<svg height="247.058975pt" preserveAspectRatio="xMidYMid meet" viewBox="0 0 149.467322 247.058975" width="149.467322pt" xmlns="http://www.w3.org/2000/svg"><path d="m806 2679c2-4-31-9-74-11-83-5-133-28-232-104-25-19-67-52-93-72-53-41-97-103-122-172-9-25-23-63-32-85-10-27-11-41-4-43 6-2 2-11-9-20-13-11-23-39-30-82-14-88-24-325-15-347 4-10 7-33 6-51-2-18 14-82 34-142 33-97 42-112 75-135 21-15 41-34 44-42 5-12 16-14 51-9 25 3 65 9 90 12 25 4 45 3 46-2 0-5 2-20 4-34 1-14 6-119 9-235 4-116 10-244 13-285 4-41 6-99 5-129-2-30 2-88 7-130 6-42 11-96 13-121l3-44-56-11c-68-14-75-18-83-50-9-34 18-72 55-80 16-4 29-11 29-17s10-8 21-5c12 3 32-1 44-9 13-8 26-11 29-6s32 7 65 6c34-1 75 2 93 7 56 15 201 39 243 39 60 1 89 21 92 64 3 53-25 69-105 58-57-8-77-3-51 13 5 4 8 19 4 33-5 24-5 47-5 127v330c0 171 4 350 9 400 5 49 7 95 4 102-8 21 17 53 42 53 13 0 27 5 30 10 3 6 17 10 31 10s23 4 20 9c-4 5 3 7 13 4 11-3 32 2 48 11 15 8 53 26 83 39 30 14 70 39 89 56 18 17 36 31 41 31 27 0 76 113 63 147-6 14 35 33 71 33 26 0 66 38 66 63 0 10 7 20 15 23 23 9 29 66 11 109-21 50-21 49 19 64 44 16 68 50 59 85-3 14-10 26-15 26s-9 5-9 11-13 24-30 41c-34 34-36 47-14 94 24 51 14 108-28 151l-33 35-78-6-79-6 2 48c4 76 1 89-23 118-21 25-27 26-71 20-31-5-58-18-82-38-28-25-39-29-62-23-27 7-63 8-137 3-28-2-39 1-37 10 1 7-9 12-25 12-15 0-36 9-48 20-20 19-120 36-109 19zm524-117c0-21 5-43 11-49 8-8 5-14-10-22-12-7-21-17-21-23s-9-26-21-44l-21-34-24 22c-31 30-32 90-3 138 25 41 36 50 67 50 19 0 22-5 22-38zm-490 19c0-4 15-12 33-17 48-14 39-35-25-58-32-12-58-24-58-29 0-4 47-5 105-1l106 5 34-34c19-19 35-44 35-55s5-22 12-24c23-8-5-29-36-27-17 1-49-3-71-9s-52-14-67-17c-46-9-31-25 23-25 42 0 50-3 45-15-3-9 3-23 14-32 26-23 25-42-2-52-21-7-20-8 10-27 34-20 39-29 20-38-10-3-8-8 4-15 10-7 14-19 11-33-4-19-2-19 11 5 18 32 5 83-22 90-13 3-11 5 4 6 12 0 24 7 27 15 7 18 72 30 96 17 22-12 30-6 24 17-5 20-58 29-77 14-20-16-63-19-81-6-14 10-15 18-8 41 8 23 16 28 52 31 23 2 48-2 56-8 19-16 37-3 30 21-11 34 22 22 36-13 7-18 19-38 26-43 8-6 23-55 34-110 11-54 23-103 27-109 3-6 7-34 9-63l4-53h-48c-54 0-215-19-222-26-12-11 15-18 67-15 86 4 113 4 165 3l48-2-3-37-3-38-97 3c-95 4-158-3-158-17 0-3 24-6 53-5 83 1 190-10 194-21 2-7-24-8-79-4-46 4-90 3-100-2-11-6-19-5-24 2-4 7-22 9-45 6-22-3-39-1-39 4 0 9-125 3-142-7-6-4-13-1-17 5-5 8-20 8-52 2-113-25-139-33-133-43 4-6 2-8-4-4-15 9-89-22-96-40-4-10-13-13-26-9-12 4-26 0-36-10-9-9-22-14-29-11-8 3-16-2-19-10s-14-14-23-14c-10 0-29-7-41-16-12-8-22-12-22-8 0 5-5 3-12-4-21-21-48-14-49 13-1 14-2 31-3 37-1 7 8 14 19 17 11 2 32 16 48 31 16 16 53 34 88 44 33 9 57 20 54 25-3 6-1 12 5 16s8 10 5 15c-8 13-86-1-125-22-19-10-40-18-46-18s-23-12-38-26l-26-27v36c0 20-5 39-11 43-6 3-8 16-5 28s8 65 11 117c6 88 31 215 57 276 35 86 50 114 61 110 7-2 12-9 11-15-1-7-2-23-2-37-1-15-8-25-17-25-28 0-31-94-4-111 5-3-3-18-18-33-23-23-25-30-15-44 7-9 21-30 32-47l20-30-33-8c-41-11-57-25-57-48 0-31 36-28 89 6 20 13 62 29 94 35 36 7 57 16 54 23s-11 10-18 9c-8-2-37-6-65-9-50-5-51-5-62 26-10 27-8 34 13 59s36 31 114 42c54 8 92 19 95 27 7 17-31 37-52 27-9-4-33-8-52-9s-48-5-65-9c-24-5-33-2-43 14-10 17-10 20 4 20 9 0 22 7 28 16 13 16 33 22 85 23 25 1 32 5 27 16-4 11 2 15 20 15 13 0 27 7 31 15 7 20-2 29-19 19-15-10-26-12-89-19-44-5-47-3-62 27-19 40-9 73 24 74 44 2 49 4 49 20 0 13 3 14 15 4 16-14 69-5 100 16 11 8 28 14 39 14 24 0 11 15-23 25-19 6-23 4-18-8 7-19-16-30-31-15-8 8-16 7-27-2-20-17-77-18-83-2-2 7 3 12 12 12s16 6 16 13 21 22 48 34c37 17 60 21 107 18 90-7 125 12 70 37-32 14-23 28 20 28 19 0 37 5 40 10 8 12 55 13 55 1zm718-213c2-29 0-38-12-38-9 0-16-6-16-14 0-26-75-56-131-53-79 5-90 39-32 96 43 42 92 59 148 51 38-5 40-7 43-42zm-62-187c4 8 10 7 17 0 6-6 23-11 38-11 22 0 39-15 39-35 0-8-75-25-107-25-46 0-63 9-63 34 0 32 18 46 46 36 15-6 26-5 30 1zm-16-97c0-2-7-4-15-4s-15 4-15 10c0 5 7 7 15 4 8-4 15-8 15-10zm23-101c27-15 32-23 29-50-4-36-15-47-54-57-23-5-28-3-29 11 0 10-2 36-3 58-5 61 3 67 57 38zm-539-319c4-11 10-12 25-4 29 15 77 12 92-6 11-13 10-17-4-25-9-6-17-17-17-26 0-18-38-63-52-63-4 0-8 9-8 19 0 11-4 23-10 26-5 3-10 14-10 24 0 29-89 57-104 32-3-4-28-6-55-3-40 3-59-1-102-23-83-42-83-42-96-38-21 7-15 31 10 38 12 4 36 13 52 21 88 39 268 57 279 28zm260-25c-8-14-24-10-24 6 0 9 6 12 15 9 8-4 12-10 9-15zm-87 5c-3-3-12-4-19-1-8 3-5 6 6 6 11 1 17-2 13-5zm-17-64c0-5-4-10-10-10-5 0-10 5-10 10 0 6 5 10 10 10 6 0 10-4 10-10zm-560-20c0-11-4-20-9-20s-11-13-14-28c-5-25-12-30-62-41-61-14-115-7-115 15 0 7 12 17 28 20 15 4 32 10 37 14 20 16 110 59 123 60 6 0 12-9 12-20zm150-71c0-5-6-9-14-9-13 0-29-48-19-62 7-12 46-9 73 7 35 20 106 19 114-1 15-40-26-61-131-65-30-2-60-36-45-51 9-9 17-9 34 0 25 12 106 11 126-1 6-5 12-19 12-31 0-25-20-35-75-37-52-1-90-21-93-50-3-25-2-26 40-19 24 3 62 4 86 2 38-4 42-6 42-32 0-33-8-36-82-35-54 2-56 1-55-23 2-20 11-27 46-38 25-7 49-11 53-8 5 3 16 3 24 0 23-9-1-46-31-46-50 0-95-35-79-62 3-5 25-8 48-7 53 3 66-5 66-40s-14-47-63-56c-31-6-38-11-35-29 3-21 8-23 71-25 23-1 27-5 27-31 0-16-7-35-15-42-39-32-45-41-45-59 0-14 12-25 38-36 34-14 35-17 18-27-48-28-65-51-56-73 8-19 14-21 44-16 23 3 36 2 36-5 0-12-83-52-107-52-8 0-12-3-10-7 3-5-12-9-33-10-35-2-38 0-48 35-7 20-11 55-11 77 1 22-1 90-4 150-11 199-6 681 7 723 5 13 3 22-3 22-13 0-5 58 10 76 11 14 39 8 39-7zm465 650c-10-15 3-25 16-12 7 7 7 13 1 17-6 3-14 1-17-5zm35-30c0-5 5-7 10-4 6 3 10 8 10 11 0 2-4 4-10 4-5 0-10-5-10-11zm-95-25c-20-13-42-24-49-24-24 0-38-26-22-39 11-9 15-8 20 4 3 8 12 15 20 15s16 3 18 8c2 4 18 15 37 26 27 15 35 16 42 5 4-7 11-10 14-7 10 10-2 25-25 31-12 3-34-5-55-19zm-655-163c-14-5-44-14-67-20-52-14-92-63-72-87 10-12 14-12 28-1 9 8 51 31 94 51 47 22 77 41 74 49-5 15-25 18-57 8zm526-280c-3-5 1-14 9-21 13-10 15-9 15 9 0 21-14 28-24 12z" transform="matrix(.1 0 0 -.1 -19.151263 268.590162)"/></svg>