<svg height="139.04306pt" preserveAspectRatio="xMidYMid meet" viewBox="0 0 88.857541 139.04306" width="88.857541pt" xmlns="http://www.w3.org/2000/svg"><path d="m545 1580c-3-5-25-10-48-11-59-1-78-9-127-49-41-33-104-143-99-173 1-7 0-19-4-27-17-47-29-162-29-295 0-154 10-212 36-202 8 3 26-12 46-40 18-25 47-51 65-59 31-12 33-18 39-71 4-32 6-110 5-173-2-112 1-129 39-202 2-5-23-8-55-8-33 0-62-3-65-6-11-11 37-49 57-46 50 8 299 0 316-11 14-8 32-8 75 1 31 6 59 14 63 17 10 11-20 22-71 28-28 4-52 8-54 10-20 19-27 397-9 427 8 13 75 13 75 0 0-5 24-10 54-10 40 0 55 4 60 16 3 9 13 14 20 11 18-7 86 11 86 22 0 5 9 11 20 14s24 17 30 31c5 14 14 26 20 26 22 0 32 61 36 225 2 111-1 184-8 210-14 46-65 135-79 135-5 0-9 11-9 25s-5 25-11 25-9 7-5 15c5 15-57 69-94 83-8 3-24 13-35 23-40 36-322 68-340 39zm275-119c84-41 101-62 70-88-21-18-29-86-11-97 12-8 42 4 36 14s22 40 36 40c6 0 19-21 30-47 11-27 23-55 27-63 12-22 9-63-5-67-6-2-26 9-45 25-18 16-46 32-61 36-63 15-265 36-387 39-33 1-77-12-118-33-24-12-45-20-48-17-7 6 49 100 62 104 7 2 14-5 17-16 4-18 8-19 35-9 54 21 68 83 20 90-12 2-23 8-25 15-5 14 61 76 90 84 37 11 250 3 277-10zm-312-383c7-57 6-70-11-92-10-14-23-26-27-26-5 0-16 23-24 50-8 28-22 57-30 66-13 12-13 19-3 36 14 23 68 50 80 39 4-4 11-37 15-73zm148 64c12-8 13-87 1-98-4-4-7-25-7-46 0-31-4-38-19-38-34 0-51 11-51 34 0 12-6 30-14 41-7 11-13 38-12 60 1 33 5 40 26 46 34 10 63 10 76 1zm209-32c21-8 26-15 22-32-4-14 0-26 10-34 15-10 12-18-28-79-24-37-44-71-44-77 0-12-34-38-50-38-6 0-18 15-26 33-9 20-22 33-37 35-16 2-22 8-18 18 3 8 2 14-3 14-4 0-6 14-3 30 2 17 8 30 13 30 9 0 23 63 21 93-2 35 60 38 143 7zm-477-66c1-26 7-53 14-61 19-24 26-149 9-166-12-12-51 15-51 35 0 10-5 18-11 18-17 0-4 151 15 189 9 17 18 31 19 31s4-21 5-46zm586-6c35-41 45-68 35-101-5-17-6-39-3-49 4-12-4-23-28-37-18-11-38-24-43-29-30-25-195-55-195-34 0 11 23 22 46 22 8 0 26 7 40 17 19 12 22 18 12 25-9 7-7 8 7 4 16-4 24 3 38 34 10 22 16 44 12 50-3 5 5 14 19 20 25 9 32 30 27 83-3 23 11 21 33-5zm-357-189c38-18 42-23 31-37-8-10-14-53-15-121-2-58-3-131-4-162-1-30 2-74 5-96 6-35 5-41-13-46-12-3-23-2-26 2-2 4-21 8-41 9s-38 3-40 5c-9 9-11 136-3 182 16 96 18 135 7 135-7 0-6 5 1 14 7 8 13 30 14 50 2 19 6 38 10 42s7 16 7 26c0 23 14 23 67-3zm133-25c0-2-7-4-15-4s-15 4-15 10c0 5 7 7 15 4 8-4 15-8 15-10zm-187-508c3-7 19-16 36-19 41-9 40-26-1-23-18 2-53 4-78 5-40 1-43 3-27 15 9 7 17 18 17 25 0 16 47 14 53-3zm159 1105c3-18 1-34-4-37-11-7-10-34 2-34 6 0 10 7 10 15s4 15 8 15c12 0 2 59-10 67-7 4-9-6-6-26zm-150-33c3-7-1-24-9-38-12-23-11-25 8-28 11-2 27 2 35 8 19 16 18 56-2 64-24 9-36 7-32-6z" transform="matrix(.1 0 0 -.1 -23.790735 159.122158)"/></svg>