<svg height="121.185644pt" preserveAspectRatio="xMidYMid meet" viewBox="0 0 144.067177 121.185644" width="144.067177pt" xmlns="http://www.w3.org/2000/svg"><path d="m853 1428c-26-9-58-17-71-18-28 0-58-15-88-44-25-23-94-123-94-136 0-4-8-18-18-31s-25-52-32-87c-11-52-11-73 0-117 18-73 44-115 72-115 13 0 36-7 52-15 15-8 33-15 38-15 20 0 43-35 45-69 6-93 9-451 4-451s-30 51-35 70c-4 18-65 113-97 150-89 104-140 150-166 150-25 0-4-42 47-92 49-46 87-105 76-116-3-3-16-1-29 5-122 59-139 63-174 38-14-10-32-13-48-9-26 6-32 18-15 29s11 22-26 50l-35 27-23-25c-14-15-40-28-62-32-57-10-64-13-64-29 0-27 43-39 145-42 72-2 116-8 157-23 32-12 64-21 71-21 8 0 27-11 43-25 15-13 40-27 54-30s47-28 75-55c43-43 47-50 28-50-12 0-29-7-38-16-8-9-22-14-29-11-8 3-47 0-87-7-45-8-79-10-86-4-7 5-14 5-17-1-13-21 34-26 209-24 236 2 247 2 265 10 8 3 56 7 105 9 180 7 316 21 329 34 11 11 13 11-34 17-44 5-49 5-137 0-53-3-76 0-84 9-9 11-5 14 20 14 27 0 32 4 38 30 3 17 10 33 14 36 5 3 9 16 9 30 0 13 5 24 10 24 6 0 10 6 10 13 0 24 24 64 44 73 11 5 24 18 30 29s24 32 40 47c26 25 35 27 100 26 55-1 80 4 114 21 39 20 55 41 31 41-5 0-8 4-4 10 7 12-31 36-73 45-31 6-33 9-31 44 5 64-21 79-65 38-30-28-33-43-17-89 13-40 9-58-15-58-14 0-18-11-15-37 2-17-16-17-21-1-3 8-38-21-82-65-72-73-79-77-92-60-7 10-14 27-14 38 0 12-5 26-10 31-8 8-7 20 0 39 6 16 8 36 4 44-3 9-8 46-10 83l-4 67 55 20c31 12 63 21 71 21 45 0 82 47 64 81-7 13-8 25-2 32 18 22 24 77 12 92-10 12-10 15 0 15s10 4-1 16c-10 13-10 17 2 26 11 7 11 11 2 15-7 2-13 11-13 19s-8 22-17 32c-10 9-24 28-31 42-56 112-96 155-176 191-55 24-130 23-203-3zm69-90c-7-7-12-20-12-29 0-14 8-17 35-16 19 1 35 5 35 9 0 12 62 28 85 22 43-11 42-57-1-68-13-4-24-11-24-16 0-6-13-10-29-10s-34-7-41-15c-9-11-17-12-30-5-29 15-40 12-40-12 0-40 14-50 54-43 20 4 53 16 73 26 47 24 65 24 88-1 10-11 22-17 27-14s0 15-12 26c-22 21-22 43 0 43s64-87 80-167c7-37 6-39-39-67-46-30-112-61-129-61-5 0-8 10-7 23 3 31 3 31 21 17 12-11 18-10 32 3 15 16 15 18-2 34-10 10-15 12-11 5 5-10 2-13-11-10-22 4-32 38-11 38 17 0 71 59 74 82 3 19-12 25-21 9-10-16-95-51-123-51-37 0-48-10-48-42-1-20 6-30 25-38 29-12 54-46 45-60-8-13-48-13-61-1-5 5-36 12-69 16s-62 8-64 11c-2 2 1 15 7 29 9 19 8 27-4 40-20 19-83 21-76 2 1-4-5-21-13-37-21-41-70-43-87-2-6 15-10 31-9 36 9 39 8 86-2 86-7 0-3 8 8 16s19 19 18 24c-2 5 6 14 17 20s20 17 20 25c0 20 36 37 61 30 28-9 69 20 69 50 0 27 10 35 54 46 50 12 62 11 48-3zm-73-557c8-14 7-20-4-25-11-4-15 2-15 19 0 30 6 32 19 6zm61-72c19 1 43 4 53 7 13 4 17-1 17-24 0-26-20-58-31-48-2 2-16 6-31 10-26 6-28 4-28-24 0-17 6-33 13-36 9-3 12-24 10-74-2-37 0-71 5-74 4-3 27 0 50 6 43 11 68 4 43-12-11-6-12-14-3-37 5-15 13-43 16-60 5-29 3-33-17-32-12 0-57-2-99-6-72-5-77-4-92 17s-15 23 1 27c10 2 21 8 25 15 4 6 5 89 3 185-5 162-4 173 13 166 9-4 33-7 52-6zm67-195c-3-3-12-4-19-1-8 3-5 6 6 6 11 1 17-2 13-5zm-199-236c-3-7-15-15-28-16-21-3-22-2-11 12 16 19 44 21 39 4zm-68 872c-13-24-4-60 13-60 19 0 97 34 97 43s-63 37-84 37c-9 0-20-9-26-20zm-490 20c0-5 5-10 11-10 5 0 7 5 4 10-3 6-8 10-11 10-2 0-4-4-4-10zm189-282c-6-14-4-48 3-48 4 0 1-11-8-24-8-14-21-23-27-21-46 14-77 14-77 0 0-8 5-15 10-15 6 0 10-6 10-13 0-15 92-49 113-41 18 6 28 70 16 102-5 14-5 22 2 22 6 0 7 4 4 10-6 10-44 33-46 28z" transform="matrix(.1 0 0 -.1 -11 144.820349)"/></svg>