<svg height="117.980122pt" preserveAspectRatio="xMidYMid meet" viewBox="0 0 155.924711 117.980122" width="155.924711pt" xmlns="http://www.w3.org/2000/svg"><path d="m1406 1451c-4-5-27-7-52-5-35 4-44 3-39-7 5-7 4-10-2-6-5 3-36-1-69-9-32-8-65-16-71-16-7-1-13-5-13-8 0-4-13-10-29-13s-53-29-81-57c-29-27-58-50-65-50-6 0-32 20-57 45-36 35-54 45-80 45-18 0-46 7-62 15s-43 16-61 18c-18 1-31 6-28 11 9 13-176 0-217-16-47-18-108-59-115-78-3-8-12-27-20-41-8-15-17-39-19-55s-6-36-9-44c-24-67-69-253-74-304s-2-69 13-95c10-17 24-31 31-31s25-14 40-31l28-31 130 6c72 4 135 3 140-1 12-10 17-28 21-75 2-20 8-55 14-77 9-35 8-44-5-57-21-21-19-36 8-64 12-14 21-26 20-27s5-19 13-38c16-39 58-63 79-45 14 11 9 98-6 114-4 5-1 25 7 44 15 38 11 105-11 157-10 26-12 46-6 86 1 9 50 29 71 29 16 0 20-7 20-30 0-18 6-33 15-36 19-7 34-57 39-124 2-31 9-56 16-58 7-3 22-14 34-26 11-11 30-21 41-21 23 0 22-30-1-56-10-11-13-26-8-43 6-24 11-27 43-24l36 3 17 79c16 77 15 106-3 106-5 0-9 6-9 13 0 6-7 25-15 40s-12 34-8 43c3 8-2 23-11 33-15 17-15 20 1 50 10 17 26 34 35 37 10 3 15 11 11 20-3 7-1 14 4 14 4 0 9 33 9 73 0 41 4 79 8 85 11 17 55-6 49-27-2-9 2-24 10-34 11-17 18-17 54-8 43 12 73 7 73-13 0-25-18-31-87-31-39 0-75-3-79-7-15-16 20-38 60-38 56 0 87-10 78-24-4-6-7-22-7-36 0-23-4-25-45-25-25 1-55 4-68 9-21 7-23 5-20-15 2-19 15-27 66-44 51-16 63-25 68-45 15-74 21-86 48-98 20-10 25-18 20-30-9-20-8-81 1-90s38 12 50 35c6 12 17 28 24 37s11 23 7 31c-3 9 1 18 9 21 17 7 21 44 5 44-5 0-10 6-10 14s-9 17-19 21c-21 6-36 63-26 95 3 10 1 21-4 25-7 4-6 14 3 28 8 12 16 39 19 61 3 21 9 41 14 45 4 4 49 4 98 1 129-9 188 7 242 66 35 38 45 57 54 108 13 70 12 147-2 161-5 5-9 20-9 33 0 39-36 105-82 148-73 70-272 148-292 115zm10-146c8-2 9-21 3-62-4-32-11-83-14-114-9-79-20-93-65-78-52 17-59 27-31 48 17 13 24 29 26 62 1 24 5 52 10 62 5 12 0 25-19 44-36 35-20 55 38 47 22-3 46-7 52-9zm-146-45c0-22-9-65-19-95-12-33-15-55-9-55s6-6-2-15c-7-8-21-15-31-15-23 0-23-1-5 36 19 38 24 73 11 75-5 0-17-20-25-45-13-39-19-46-41-46-14 0-35 11-48 24-19 20-20 27-10 49 7 15 20 29 31 32 10 4 18 13 18 21s6 14 13 14c6 0 32 14 57 30s48 29 53 29c4 1 7-17 7-39zm-516-44c20-23 36-49 36-56s7-10 18-5c13 5 14 3 6-5-12-12-7-53 6-45 4 3 10-18 14-45s11-52 17-55c6-5 6-12-2-22-10-11-10-19-1-33 9-15 7-23-11-44-33-38-54-34-60 12-21 139-38 190-79 235-16 16-28 38-28 48 0 11-7 22-16 26-13 5-8 9 17 18 19 7 37 13 41 14 4 0 23-19 42-43zm774 21c30-32 44-82 31-113-6-16-5-32 1-44 7-14 6-19-8-24-9-3-25-11-34-18-30-21-48 8-39 60 6 29 5 42-3 42-6 0-5 4 3 9 10 6 12 23 9 60-6 58 5 65 40 28zm-887-80c43-62 53-97 64-219 3-36 0-52-15-70-29-35-53-14-63 53-4 30-17 72-28 95s-19 46-17 50c4 15-14 58-33 83-26 33-24 55 9 67 15 6 30 9 34 7 3-2 26-31 49-66zm241 1c27-13 78-105 78-140 0-9 5-20 10-23 6-3 10-10 10-15 0-9-98-80-110-80-3 0-5 29-5 65s3 65 8 65c10 0-2 46-24 94-30 63-28 64 33 34zm-398-34c9-3 16-17 16-30 0-14 13-51 30-82 19-37 27-65 24-80-4-12-1-36 6-52 26-63-39-77-157-34-46 17-51 22-51 49 0 53 36 155 55 155 16 0 22-22 9-42-11-18 6-68 24-68 13 0 13 77-1 86-6 3-9 15-6 25 3 11 1 19-3 19-5 0-2 14 6 30 16 31 22 34 48 24zm1132-68c21-16 17-25-14-31-16-3-20 2-18 21 1 28 5 29 32 10zm-466-521-34-12 33-6c18-4 37-4 42-1s9 1 9-5c0-5-4-12-9-15-11-7-25-70-25-118-1-29 3-38 15-38 23 0 36 19 44 63 5 25 4 37-4 37-16 0-13 21 4 34 13 9 13 15 3 38-16 33-33 38-78 23zm455-60c-9-19-23-39-31-46-8-6-14-17-14-25 0-7-7-17-16-22-13-7-14-13-4-31 15-29 54-25 58 7 2 12 10 22 17 22 15 0 50 105 40 120-12 20-35 9-50-25zm-1052-41c-3-8 2-23 11-33s13-21 10-24c-10-10 16-37 35-37 39 1 43 16 16 56-30 45-63 62-72 38zm301-3c3-5-1-14-10-22-29-24-35-47-23-89 18-59 57-53 73 12 3 14 9 34 13 44 4 11 3 15-4 11-7-5-9 0-6 14 4 12 0 25-8 30-18 11-42 12-35 0zm-450-46c-13-33 5-64 44-74 53-15 70-14 82 8 14 28 15 27-42 55-60 30-76 32-84 11z" transform="matrix(.1 0 0 -.1 -24.105913 145.899485)"/></svg>