<svg height="191.860135pt" preserveAspectRatio="xMidYMid meet" viewBox="0 0 193.857552 191.860135" width="193.857552pt" xmlns="http://www.w3.org/2000/svg"><path d="m1413 2228c-45-60-66-151-49-211 8-27 7-28-20-21-54 13-65 23-64 62 1 63-1 72-12 72-5 0-7 7-4 15 8 21-25 80-44 79-8 0-25-2-38-2-28-2-42-36-44-103-1-46-2-49-28-49-15 0-33 7-40 15s-20 15-30 15-20 7-24 15c-3 8-10 15-16 15-5 0-10-7-10-15s-5-15-11-15c-7 0-9-11-6-29 6-27 4-29-31-34-116-19-192-37-220-51-17-9-37-16-45-16s-20-7-27-15c-7-9-44-37-82-62-81-54-145-122-193-205-39-65-66-157-60-203 3-16-1-66-7-110-10-70-9-95 10-200 12-67 22-137 22-156 0-110 70-181 225-229 86-27 187-34 279-19 67 11 70 10 86-11 24-32 7-90-26-90-16 0-22-5-18-14 6-16-31-28-64-19-16 4-22 1-22-12s-8-16-41-14c-36 3-43 0-50-19-11-30-13-81-4-114 6-24 3-29-21-39-16-7-33-11-38-10-4 1-15-4-24-11-13-11-179-19-364-18-15 0-30-4-33-10-4-6-11-8-16-5-5 4-9 2-9-4 0-14 24-19 107-25 45-4 74-2 79 5 4 7 12 6 22-4 19-15 153-24 173-11 7 4 52 9 100 10 55 1 99 7 118 17 27 14 38 14 93 1 67-16 148-11 148 9 0 8 3 7 9-2s17-11 32-6c13 4 100 9 194 11s181 8 197 15c22 9 39 7 95-11 37-13 73-26 78-31 6-4 40-6 75-3 108 9 116 8 138-14 27-27 53-27 134-2 34 11 71 20 81 20 9 0 27 6 40 13 12 6 23 13 25 14 2 0-3 10-10 22-8 13-23 21-40 21-35 0-36 14-3 36 22 14 24 20 18 62-8 57-24 99-52 130-21 25-46 21-38-7 3-9 12-37 20-64l15-47-29-29c-24-24-27-34-20-53 11-29-12-48-57-48h-28l7 62c4 35 5 66 3 70-3 5-1 8 4 8s12 18 16 40c3 21 14 44 24 49 11 7 13 13 6 18-6 5-11 33-12 63 0 30-1 61-1 68-1 20-67 81-96 88-22 5-25 11-20 28 12 36 8 67-14 97-12 15-21 34-21 41s-15 32-33 55l-32 43 5 102c5 80 2 114-11 153-9 28-24 77-34 110-9 33-31 89-48 125-51 109-57 130-38 130 9 0 36 11 61 24 50 26 70 68 45 93-29 29-67 42-88 32-26-15-46 4-31 29 18 28 27 82 15 82-6 0-11 7-11 15 0 35-66 6-130-57-29-28-40-33-58-27-12 5-22 13-22 18 0 6 6 8 14 5 14-5 51 27 51 44 0 4 5 14 10 22s10 20 11 25c1 6 4 27 8 47 3 21 1 40-4 43-6 3-7 17-4 31 5 20 2 26-15 31-11 3-21 9-21 14 0 13-26 11-37-3zm-403-363c15-18 35-20 24-3-5 8 2 9 27 4 19-3 36-11 37-16 2-6 14-10 27-10 20 0 35-17 35-40 0-4-12-11-27-14-16-4-36-9-45-12-12-3-18 0-18 9 0 8-7 17-15 21-11 4-15-2-15-20 0-21-10-30-62-54-81-38-88-38-88 5 0 21-5 35-12 36-10 0-10 2 0 6 17 7 15 33-3 33-15 0-19-24-15-101 1-35 1-36-75-69-73-32-179-104-219-149-11-11-26-21-35-21-21-1-43-19-65-52-10-16-25-28-32-28-18 0-17 40 1 64 8 11 15 28 15 38s4 18 9 18 11 9 14 20c5 18 39 30 36 13-3-20 2-43 9-43 13 0 11 64-2 72-10 7-7 8 39 23 25 8 17 25-12 26l-28 1 26 9c19 7 27 17 27 34 0 28 15 51 45 67 27 14 36-3 36-70 0-53 5-71 17-60 3 4 7 44 9 90 4 79 5 83 27 83 16 1 22 6 20 18-2 10 5 20 15 24s24 13 32 21c14 13 50 12 97-3 17-5 23-2 27 16 6 21 20 20 23-2 1-5 2-13 3-19 0-5 11-10 22-10 18 0 19 3 9 15-7 8-10 22-6 30 7 19 50 19 66 0zm264-210c-4-8-10-12-15-9-14 8-10 24 6 24 9 0 12-6 9-15zm-739-5c3-5 2-10-4-10-5 0-13 5-16 10-3 6-2 10 4 10 5 0 13-4 16-10zm942-45c47-24 57-40 37-60-16-16-18-16-30 8-8 13-20 27-29 31-8 3-15 12-15 21 0 18 0 18 37 0zm-276-69c20-46 26-182 8-170-5 3-9 0-9-6s-4-8-10-5c-6 4-10-7-10-24s-4-31-10-31c-12 0-37 58-46 108-4 20-12 40-18 44-11 7-18 105-9 121 2 4 22 7 44 7 38 0 41-3 60-44zm122 5c23-16 52-41 65-55l23-27-21-46c-11-25-20-59-20-75 0-17-6-42-14-56-7-15-28-58-46-97-18-38-36-77-40-85s-14-16-23-18c-14-3-15 9-13 86 2 49 6 94 10 100 4 7 5 21 1 31-3 10 0 23 7 29 15 12 16 161 1 171-7 5-10 50-4 69 4 10 39-3 74-27zm-272-61c9-78 16-108 40-186 12-38 21-80 21-94s5-28 12-32c6-5 0-8-15-8-26 0-57 27-98 88-12 18-27 30-32 27-5-4-6 1-3 9 3 9 1 16-5 16s-11 11-11 24-7 37-15 52c-8 16-15 37-15 47s-5 27-11 39c-9 16-7 23 12 36 30 22 80 41 99 39 10-2 17-19 21-57zm527 21c3-8-1-12-9-9-7 2-15 10-17 17-3 8 1 12 9 9 7-2 15-10 17-17zm17-31c3-5 1-10-4-10-6 0-11 5-11 10 0 6 2 10 4 10 3 0 8-4 11-10zm-718-48c7-20 13-45 13-54 0-10 5-18 10-18 6 0 10-13 10-30 0-16 5-30 10-30 6 0 10-7 10-15 0-17 30-64 70-108l25-28-25-19c-34-26-48-25-56 5-3 14-10 25-15 25s-9 5-9 11-27 44-60 84c-33 41-60 78-59 82 3 18-2 32-17 48-13 12-14 19-4 30 7 8 18 15 25 15s20 12 30 26c19 30 24 27 42-24zm621-35c27-28 57-110 42-115-5-2-8-8-4-13 13-22-57-97-141-150-16-10-38-24-47-31-29-21-31-1-3 49 15 26 30 53 35 58 4 6 12 25 19 44 9 27 9 36-1 43-8 5-9 8-2 8 6 0 12 11 12 25s7 34 16 44c10 10 18 28 19 40 2 28 28 27 55-2zm-718-143c0-7 6-14 14-17s20-25 27-49 16-47 21-53c10-12 11-65 0-65-5 0-18 10-29 23-11 12-40 40-64 63-24 22-58 68-75 102l-32 62 41 30 41 30 28-58c15-31 28-62 28-68zm885 68c-11-11-27 17-20 35 6 16 8 16 16-6 5-13 7-26 4-29zm-1055-79c0-26 71-122 119-164 34-29 48-46 41-53s-14-6-22 2c-7 7-19 12-28 12s-25 9-35 20-23 20-28 20-16 8-23 18c-11 14-15 15-23 3-10-15-3-51 9-51 5 0 10-10 12-22 2-16 11-24 28-26 14-2 30-10 37-18 6-9 17-17 25-18 7-1 30-10 52-19 55-24 96-23 96 3 0 11-5 20-11 20-5 0-7 5-4 10 12 20 21 9 44-57 23-64 23-67 6-80-21-15-59-18-51-4 3 5-6 8-22 8-15-1-60 2-101 6-53 6-70 12-63 19 18 18-4 43-50 58-24 7-49 18-57 24-12 9-13 7-8-7 4-10 7-22 7-27 0-4 15-15 33-24 25-12 28-16 11-16-35 0-184 79-184 98 0 9-7 29-14 45-14 26-14 27 8 27 30 0 47 20 92 110 52 102 103 143 104 83zm920-102c0-4-16-29-35-54s-35-51-35-57c0-19-21-34-104-74-88-42-93-41-100 22-3 25 26 52 55 52 19 0 82 31 87 43 2 4 24 16 48 28 25 11 48 26 51 34 6 16 33 21 33 6zm96-63c4-6 2-14-4-16-7-2-12-12-12-22 0-11-9-24-21-30-26-15-40-3-16 14 9 7 17 22 17 33 0 32 22 44 36 21zm130-43c4-8 2-21-4-28-6-6-10-59-10-117 0-77-6-126-22-185-12-44-28-107-36-140s-21-74-29-92l-15-31-53 14c-28 7-53 14-54 14s-9-7-17-16c-9-8-16-11-16-6s-12 13-26 16l-26 7 7 82c4 45 8 96 10 112 1 17 7 55 14 85s14 65 16 76c6 28 30 37 50 18 13-13 13-18 0-38-22-33-57-186-51-218 3-15 1-28-4-28-6 0-10-16-10-35 0-31 3-35 26-35 22 0 25 4 22 28-4 41 12 161 23 168 5 3 7 9 4 14s2 24 11 41 14 45 12 60c-3 16-1 29 3 29 11 0 49 88 49 111 0 11 4 19 9 19s28 20 52 44c48 49 57 53 65 31zm-664-47c0-29 2-66 3-83 2-32-13-71-22-61-4 3-12 1-19-5-20-17-53-1-61 29-3 15-9 29-13 32s-10 26-14 53c-6 42-5 47 12 47 10 0 22 3 26 7 7 7 62 29 79 32 4 0 8-23 9-51zm488-69c0-15-4-19-16-15-9 3-23 6-32 6-12 1-10 5 8 15 34 19 40 19 40-6zm-194-106c-10-10-19 5-10 18 6 11 8 11 12 0 2-7 1-15-2-18zm-302-9c11-4 16-19 16-43 0-20 7-68 15-106 8-39 18-98 21-132 5-43 11-63 20-63 8 0 14-5 14-11 0-5-4-7-10-4-5 3-10 2-10-4s-7-8-15-5c-8 4-21 2-28-3-6-5-37-10-67-12-51-3-53-2-40 14 12 14 15 54 15 191 0 165 1 173 20 177 11 2 23 5 27 6 3 0 13-2 22-5zm782-12c12-8 28-48 28-72 0-8-4-40-9-70-14-94-16-114-16-151 1-46-20-67-42-44-19 19-30 19-67 0-28-15-30-14-30 4 0 10 9 25 19 32 16 11 21 31 25 94 3 44 11 82 16 83 6 2 10 9 10 16 0 18 41 116 49 116 3 0 11-4 17-8zm-481-74c-4-35-11-70-15-78-5-9-6-40-3-70 2-30 4-65 4-78-1-24-31-76-31-53 0 9-14 12-55 9-57-3-65 1-41 22 16 13 41 112 37 147-1 11 3 24 9 28 5 3 8 10 5 15-3 4 1 20 9 35s12 33 9 40c-7 19 37 31 49 14 8-11 9-10 5 3-6 17 0 28 16 28 5 0 6-25 2-62zm-431-189c1-35 4-71 6-79 6-17-40-27-68-14-24 10-53 10-82 1-13-5-22-5-18-1 4 3 1 13-7 21s-15 20-15 26c0 8 3 8 11 0 16-16 66-5 93 21 16 14 23 34 24 60 1 22 7 43 14 47 24 15 40-17 42-82zm82 1309c3-4 9-8 15-8 5 0 9 4 9 8 0 5-7 9-15 9s-12-4-9-9z" transform="matrix(.1 0 0 -.1 -20 223.979157)"/></svg>