<svg height="129.344602pt" preserveAspectRatio="xMidYMid meet" viewBox="0 0 133.800023 129.344602" width="133.800023pt" xmlns="http://www.w3.org/2000/svg"><path d="m875 1580c-72-11-120-34-140-67-9-15-41-46-70-67-30-21-63-48-73-60-26-28-33-92-17-136 7-19 14-31 14-27 1 4 11 2 24-5 24-13 27-14 105-26 29-5 55-5 58 0 3 4 10 8 15 8 11 0 0-53-12-58-13-6-70-151-81-210-6-32-12-78-13-103-2-25-7-54-13-65-13-26-33-120-28-136 3-7 7-38 10-68l6-55-20 25c-44 53-50 79-38 182 11 95 11 96-16 142-15 25-40 53-56 61-40 21-132 30-159 16-12-7-38-14-58-17-38-5-62-19-51-30 4-3 46-12 94-19 57-8 92-18 99-29 7-9 18-16 24-16 14 0 13-117-1-126-4-3-8-13-8-23s-6-31-14-47c-23-46-10-80 43-113 82-53 131-103 135-138 2-18 8-39 14-46 11-13 50-16 68-5 5 3 25 6 46 6 27 0 37-5 41-19 7-26 46-17 104 23 43 29 59 35 48 18-11-19 113 10 181 41 23 10 52 19 65 20 75 2 199 49 199 75 0 20-46 37-68 25-16-8-21-7-26 5s-15 14-48 9c-24-3-76-7-116-10-61-3-81-9-119-34-26-17-59-31-74-31s-35-3-44-7c-14-5-16-2-10 18 4 13 11 26 15 29s10 15 14 27c4 11 17 27 29 35 28 18 201 70 239 73 15 1 38 2 51 3 34 3 104 67 112 102 8 37-2 70-21 70-8 0-14 4-14 9s-8 11-18 13c-20 6-54-14-51-28 9-51-57-99-136-99-50 0-61 7-50 32 5 10 9 21 9 25 1 3 4 10 9 14 4 4 7 16 7 26s5 18 10 18c6 0 10 11 10 25s-4 25-9 25c-6 0-18 14-28 30-9 16-23 30-31 30-7 0-10 5-7 10 3 6-1 10-9 10-10 0-18-14-22-37-3-21-17-52-30-70-13-17-24-38-24-46s-9-26-20-40-20-39-20-57c0-20-9-40-26-57l-27-27-18 35c-33 65-20 266 20 309 9 10 27 34 41 54 14 19 31 36 37 36 16 0 60 66 68 103 6 23 13 27 44 29 20 0 43 0 51-1s39 4 68 11c75 16 82 39 57 173-4 17-10 32-16 33-5 2-9 10-9 18 0 28-124 142-178 163-56 22-67 23-147 11zm84-156c-11-13-11-18-1-21 6-3 12-12 12-20 0-12 7-14 28-9 52 12 56 11 76-26 11-20 18-40 15-43-9-9-312 14-323 25-9 9-6 20 16 55 19 30 29 35 76 35 32 0 47 6 64 25 19 22 24 24 37 11 12-13 12-17 0-32zm-199-1005c-7-11-14-19-16-16-7 7 7 37 17 37 6 0 5-9-1-21zm-626 302c-23-17-43-28-46-26-3 3-11-1-18-10-16-19-8-27 26-27 15 0 43-7 61-15 33-13 34-16 33-66-1-84 14-138 49-169 17-15 38-28 46-28s15-4 15-9 13-12 30-16c16-4 40-17 52-31 38-40 56-32 54 24-1 26-5 53-9 59-4 7-32 23-61 36-60 28-72 49-57 102 6 21 6 37 0 41-5 3-7 15-3 28 3 12 0 35-6 51-11 29-57 75-75 75-5 0-19 3-30 6-13 3-35-6-61-25z" transform="matrix(.1 0 0 -.1 -6.193678 158.771449)"/></svg>