<svg height="174.465813pt" preserveAspectRatio="xMidYMid meet" viewBox="0 0 132.753769 174.465813" width="132.753769pt" xmlns="http://www.w3.org/2000/svg"><path d="m817 1985c-84-23-132-70-168-165-22-58-24-83-8-112 6-12 13-40 14-64 2-24 12-62 24-85 16-29 20-50 15-74-5-27-2-35 14-44 28-15 114-5 125 14 5 9 22 15 42 15h35l1-57c1-77 7-153 14-181l6-23-138 4c-76 3-164 2-195-1-49-4-58-8-58-24 0-11-4-16-10-13-5 3-10 1-10-4 0-6-9-11-20-11-27 0-26-28 5-126 14-43 25-85 25-92 0-16 68-179 87-207 7-11 13-26 13-34s10-36 22-63c19-42 26-48 52-49 17-1 42-3 56-4 131-13 400-7 400 8 1 7 6 5 13-4 10-12 33-15 122-14 101 1 114 3 163 30 36 20 54 36 59 54 3 14 13 35 23 46 9 11 23 39 30 63 7 23 16 42 20 42 3 0 12 17 19 38 7 20 19 51 26 67 14 30 23 85 29 177 2 26 8 54 15 62 16 19-1 59-30 72-49 22-95 37-116 36-25 0-31 25-14 56 11 20 23 76 25 117 1 25 6 31 30 33 16 2 32-2 37-10 9-15 31-19 102-21 53-1 67 10 67 54 0 14 3 29 7 33s8 19 10 34c1 15 5 48 9 74 3 26 3 55-1 65-5 10-10 29-11 41-2 13-14 39-28 57-15 19-26 36-26 40 0 3-10 17-22 30-13 13-33 35-45 48-28 31-104 67-139 67-69 0-193-123-254-251-25-53-30-77-30-137s3-74 18-78c9-3 25-10 34-15 10-5 29-9 43-9 23 0 31-10 25-35-14-62-34-132-40-140-5-5-11-27-15-48-8-43-25-55-86-59-24-2-48-6-54-10-18-10-55 10-49 26 6 17-13 114-26 131-5 6-11 28-15 50s-18 57-31 78l-24 37 25 12c14 6 25 15 25 20s8 8 18 6c41-10 132 60 132 102 0 23-27 87-40 95-5 3-10 16-10 27 0 12-11 36-25 54s-25 36-25 41c0 15-55 69-85 85-77 40-143 46-228 23zm58-103c0-12 8-29 17-38 15-15 19-14 52 11 24 18 42 25 56 20 29-9 25-32-10-50-16-9-30-22-30-30s-8-15-18-15c-25 0-31-7-25-30 7-28 34-33 62-12 15 10 34 21 44 25 11 4 17 15 15 29-4 30 12 38 26 13 5-11 18-31 26-45 9-14 20-40 23-57 5-26 2-35-13-43-25-14-37-13-22 2 17 17 15 58-3 58-8 0-15 5-15 10 0 6-7 10-15 10s-15-7-15-15-6-15-14-15-18-9-21-20-11-20-16-20c-14 0-11-17 7-34 8-9 11-16 5-16s-34-11-63-24c-55-24-125-46-149-46-22 0-61 111-68 190-7 70-6 72 26 110 24 28 46 42 76 48 54 12 62 10 62-16zm672-12c3-10 14-22 24-25 11-4 24-15 29-25 8-16 5-23-19-41-17-12-28-26-25-31 6-9 53 0 72 15 18 14 25 3 37-58 15-73 7-80-90-89-44-4-84-11-90-15-16-12-98-11-128 2-26 11-27 15-21 57 12 82 87 183 159 216 40 18 46 17 52-6zm-57-724c0-2-7-9-15-16-12-10-15-10-15 4 0 9 7 16 15 16s15-2 15-4zm-117-23c-7-2-19-2-25 0-7 3-2 5 12 5s19-2 13-5zm-672-14c26-13 15-29-20-29-34 0-44 9-30 27 14 16 24 16 50 2zm589 3c0-4-10-12-22-17-13-6-24-18-26-28-3-14 1-17 21-12 25 7 44 0 81-30 18-14 18-15-4-33-14-11-41-20-68-21-50-1-62-6-62-26 0-9 12-13 38-13 20 1 48 0 61-1 22-1 23-2 8-18-8-10-17-36-19-58-2-33-7-41-26-43-16-2-22-8-18-18 7-17-1-17-43-3-27 10-36 9-49-4-22-23 1-47 44-47 19 0 34-4 34-10 0-5-8-10-19-10-10 0-34-6-52-14-50-21-199-31-199-14 0 8 5 19 12 26 9 9 9 12 0 12-7 0-12 7-12 15 0 11-12 15-48 15-27 0-51-3-55-6-10-10-155-15-161-5-9 13 39 76 55 72 8-2 37-5 64-7 28-1 75-6 105-9 47-6 58-4 73 13 18 19 17 20-35 35-29 9-82 21-118 28-35 7-58 15-50 17 8 3 23 13 33 24 14 14 22 16 32 8 14-12 105 7 105 22 0 4 8 8 18 9 10 0 12 3 4 6-6 2-10 9-6 14 6 10-39 13-49 3-4-4-25-8-49-11-23-2-44-7-48-11-3-4-29-8-59-9-29-1-59-7-66-13-15-12-22 1-21 40 1 18 6 25 20 23 20-1 193 21 253 33 21 4 35 14 39 28 10 34 25 48 39 36 13-11 107-6 165 9 45 12 80 13 80 3zm210-81c0-23-28-35-46-20-11 9-11 15-3 25 17 21 49 17 49-5zm-40-90c0-5-3-17-6-25-6-15-8-15-19 1-7 10-11 21-9 25 7 11 34 10 34-1zm-37-87c18-7 11-37-14-60-10-9-19-22-19-28 0-7-14-13-32-14-30-2-31-1-16 15 8 10 23 35 33 56 18 38 23 41 48 31zm164 801c-9-21 11-29 28-11 20 19 19 26-4 26-10 0-21-7-24-15zm-717-1142c-126-17-176-29-192-45-10-10-16-23-13-28 6-9 28-8 165 14 52 8 99 12 104 8 6-3 53-7 105-9 53-2 130-7 171-12 94-10 198 0 210 19 15 24 6 34-39 42s-469 17-511 11zm160-135c-19-4-61-10-92-14-41-4-58-10-58-20 0-8-4-14-9-14s-6-12-2-27c6-22 15-29 47-35 75-15 124-18 124-9 0 5 8 8 18 7 11-1 17 6 17 19 0 17-6 20-42 19-24-1-43 2-43 6 0 8 83 20 136 20 37 0 67 20 59 41-6 17-90 21-155 7z" transform="matrix(.1 0 0 -.1 -48.062978 199.855575)"/></svg>