<svg height="210.254129pt" preserveAspectRatio="xMidYMid meet" viewBox="0 0 173.276022 210.254129" width="173.276022pt" xmlns="http://www.w3.org/2000/svg"><path d="m443 2432c-38-21-109-100-114-127-4-20-30-28-139-42-24-3-50-13-57-22-13-16-17-63-8-73 3-3 42 2 85 12 77 17 80 17 80 0 0-10-5-31-12-47-6-15-10-32-9-37s-2-12-8-15c-11-7-2-61 11-61 16 0 68 43 68 57 0 7 4 13 9 13s11 9 14 21c5 18 10 20 39 14 18-4 37-13 41-21 5-9 18-11 39-7 28 6 30 4 23-13-19-43 5-164 32-164 7 0 18-10 24-23 10-22 67-47 109-47 34 0 34-27 1-62-17-18-31-37-31-42 0-4-12-17-26-28-20-16-23-23-12-29 10-7 9-9-4-9-22 0-42-70-35-122 3-21 1-38-3-38-15 0-30-72-30-143 0-83 16-150 46-199 35-55 115-131 162-152 45-20 50-34 31-83-5-15-12-50-13-78-2-27-5-54-7-60-1-5 1-38 5-72 6-51 5-65-8-78-29-29-22-67 30-181 13-28 24-55 24-61 0-15 47-36 64-30 21 8 20 23-3 46-11 11-22 33-24 50-3 16-8 34-11 40-3 5-2 11 4 13s4 26-6 61c-11 44-12 62-4 72 7 9 9 34 5 72-5 38-2 84 9 134 20 97 74 246 92 253 8 3 25-9 40-29 28-37 28-36 4-155-17-91-11-261 13-325 12-34 24-52 31-48 8 5 8 3 0-8-24-30 22-87 49-60 15 15 37 14 37-3 0-16 27-29 41-20 5 3 9 9 9 15 0 18 45 62 79 76 18 8 31 16 28 19s-19-2-36-10c-16-9-35-16-40-16-14 0-10 52 6 68 7 7 10 19 6 28-3 9 0 14 8 12s15 7 17 20c3 16-2 22-16 22-11 0-23 6-25 13-4 9-6 8-6-2-1-8-9-19-18-26s-22-28-28-46c-23-67-32-33-38 141-2 38 2 74 10 86 11 21 15 21 51 9 73-25 136-29 191-10 41 13 55 14 67 5 11-10 18-10 32 2 9 9 31 18 47 22 17 4 46 18 65 30 20 13 55 33 78 45 69 35 161 111 155 127-3 8 6 23 21 35 17 13 26 30 26 48 0 15 5 32 11 38 14 14 17 183 4 203-6 8-10 17-10 20-10 64-34 111-89 167-69 71-76 79-76 87 0 18-125 126-146 126-14 0-25 8-29 20s-15 20-30 20c-13 0-25 7-27 18-4 13-23 22-64 32-32 7-63 16-69 20-15 10-57 20-117 25-29 3-79 9-110 14-34 4-58 4-58-1s-5-6-10-3c-8 5-7 12 2 22 7 9 13 32 14 52 1 46 14 101 24 101 7 0 27 64 32 106 2 12-2 32-9 45-6 13-14 36-17 50s-16 31-29 38c-35 19-58 3-167-114l-94-100-75 2c-42 1-81 2-88 3-9 0-8 10 4 37 17 42 14 144-5 151-7 2-12 9-12 16 0 12-57 48-95 60-12 3-34-2-52-12zm707-590c0-4 37-8 83-8 46-1 101-7 123-14 46-15 94-56 94-82 0-10 12-37 27-59 26-40 32-42 76-24 22 9 114-81 146-142 22-45 15-57-28-46-21 5-21 4-25-47-1-8-5-21-9-27-5-7-5-17-2-23 7-12 3-12-19-4-9 3-16 12-16 20 0 7-11 21-24 29-13 9-27 28-31 43-13 54-31 82-62 97-17 8-38 13-46 9-30-11-157 64-157 93 0 7 4 13 9 13 15 0 18 23 9 57-9 33-39 50-88 49-23-1-25-6-28-49l-3-47-77 5-77 4v50c0 27-5 55-12 62-19 19 27 38 76 32 27-4 41-2 41 6 0 6 5 11 10 11 6 0 10-4 10-8zm-245-108c0-30-5-50-16-57-23-17-109-9-109 9 0 23 78 94 103 94 20 0 22-5 22-46zm148-274c-2-63 2-132 8-153 14-53 1-66-45-44-27 12-33 20-29 37 3 11-1 27-8 36-10 13-10 17 1 24 12 7 10 12-7 27-23 20-49 127-38 155 9 23 45 37 85 35l35-2zm101 111c3-4 18-11 34-14 15-3 41-18 56-34 24-24 27-33 21-67-3-22-16-57-28-79-18-33-25-38-47-32-14 3-34 7-45 8-35 4-45 16-40 49 3 17 8 35 11 39 2 4 0 11-6 14-8 5-8 11 0 20 6 7 10 17 9 21-6 35 3 84 15 84 8 0 17-4 20-9zm-349-21c3-6 16-8 28-5 35 8 48-8 52-65 2-30 9-56 17-61 11-7 11-9 0-9s-12-11-6-52c14-97 12-103-20-103-18 0-33 7-40 20-6 11-14 22-17 25-5 5-21 39-23 50-3 17-42 96-51 102-23 17-34 7-33-32 0-22 4-42 8-45 5-3 6-14 3-24s0-22 6-25c6-4 11-14 11-21 0-20 31-55 50-55 12-1 12-3-2-11-26-14-22-33 12-73 26-29 29-38 20-60-8-22-13-24-32-17-56 22-118 62-118 77 0 6-13 25-30 42-19 21-30 42-30 61 0 17-4 32-9 36-6 3-6 17-1 34 4 16 6 32 4 34-3 3 3 28 12 57 15 46 22 54 60 71 24 10 44 23 44 28 0 9 43 29 67 30 6 1 15-4 18-9zm593-121c30-27 34-35 30-75-3-38-1-44 17-45 17-1 17-2 3-6-10-2-18-8-18-13s-10-19-23-32c-12-13-30-39-40-59-16-34-32-48-65-55-8-1-22-10-33-20-32-28-21 0 11 31 39 37 67 85 62 107-2 9-14 19-28 22-27 7-31 32-9 62 8 10 15 29 15 42 0 21 28 71 40 71 3 0 20-13 38-30zm350-71c23-23 8-148-18-148-9 0-53 60-67 93-11 24-10 27 7 27 11 0 25 9 32 20 15 23 29 25 46 8zm-203-63c15-21 29-52 31-69 5-40-13-106-32-113-7-3-14-10-14-17 0-15-131-86-159-86-18 0-20 3-11 19 5 11 10 29 10 40 0 12 18 40 40 62 22 23 43 53 47 68 3 14 12 35 19 46 8 11 14 28 14 38 0 19 19 61 25 55 2-2 16-21 30-43zm-274-43c-6-2-11-11-11-20 0-20-45-43-66-35-11 4-3 17 33 49 38 35 49 41 52 27 2-10-2-19-8-21zm-287-58c9-3 16-12 16-19 0-8 14-25 32-39s29-28 26-31c-4-4-13-2-20 5-7 6-29 19-48 28-51 25-56 75-6 56zm286-144c0-5-4-10-10-10-5 0-10 5-10 10 0 6 5 10 10 10 6 0 10-4 10-10zm-33-132c-3-8-6-5-6 6-1 11 2 17 5 13 3-3 4-12 1-19zm-436-11c-13-13-26-3-16 12 3 6 11 8 17 5 6-4 6-10-1-17zm319-316c0-12-20-25-27-18s6 27 18 27c5 0 9-4 9-9zm-200 70c0-6-7-11-15-11-22 0-18-27 8-52 17-18 22-35 23-76 1-29-3-55-7-58-5-3-2-16 7-29 15-23 12-65-6-65-4 0-10-6-13-14-4-9 2-13 19-13 13 0 24 5 24 12s8 12 18 11c14-1 17 8 18 44 2 74-7 140-19 137-6-1-12 3-13 8-8 59-19 97-30 106-10 8-14 8-14 0zm-287-112c-9-22-8-31 3-40 8-7 13-18 10-25s-1-16 4-19c6-4 10-15 10-25 0-11 11-27 24-36 14-8 26-23 28-32 3-14 5-14 20 2 12 12 15 22 9 34-10 17-17 38-20 57-1 6-8 19-15 30s-16 32-19 46c-10 39-41 43-54 8zm713 11c-2-8-7-27-10-41-6-28-56-60-56-35 0 7-8 20-18 29-18 16-20 14-46-43-15-33-33-60-40-60-6 0-12-9-12-20s5-20 10-20 17-7 27-16c25-23 46-12 54 28 4 18 19 44 34 56l26 24 10-45c9-41 12-44 33-36 27 10 31 20 35 79 2 25 6 52 8 60 3 11-3 14-19 13-13-2-21 1-18 5 2 4 1 14-4 22-8 12-10 12-14 0zm-809-26c-11-11-8-44 3-44 15 0 24 30 13 41-5 5-12 6-16 3zm537-73c4-5 1-12-4-14-6-3-5-4 2-3 15 3 23 26 8 26-6 0-9-4-6-9zm-524-15c0-23 11-46 23-46 8 0 8 3 0 11-6 6-9 17-7 24 3 7 1 16-5 20-6 3-11 0-11-9z" transform="matrix(.1 0 0 -.1 -12.017627 244.489022)"/></svg>