<svg height="140.586728pt" preserveAspectRatio="xMidYMid meet" viewBox="0 0 116.553067 140.586728" width="116.553067pt" xmlns="http://www.w3.org/2000/svg"><path d="m848 1536c-21-5-38-13-38-18 0-4-6-8-14-8-18 0-54-59-81-130l-20-55-65-6c-90-8-153-41-201-103-22-28-49-61-59-72-11-12-20-25-20-29 0-6-57-130-85-185-14-28-22-69-30-148-4-43-2-59 15-82 11-15 20-33 20-39 0-5 17-15 39-21 25-6 41-17 44-30 5-19 23-24 90-23 21 0 20 3 1-36-13-26-15-57-13-158l4-126-30-9c-16-5-65-9-107-9-75 0-78-1-78-23 0-48 30-59 147-57 60 1 113 1 118 1 73 0 237-13 261-20 109-36 301-6 357 54 24 26 21 44-8 58-20 9-32 8-57-4-52-25-127-40-146-29-15 8-13 11 12 21 17 6 39 10 50 9 32-2 66 12 66 27 0 7-11 24-24 38-18 20-33 26-65 26-22 0-42 3-43 8 0 4-2 48-3 99l-1 91 60 12c71 14 136 38 136 51 0 5 6 9 13 9 18 0 66 51 70 75 2 11 9 32 15 47 9 21 8 38-3 75-20 66-20 66 24 59 28-4 52 0 83 13 53 23 72 43 91 101 13 40 13 46 0 56-9 6-13 17-10 25 4 10 6 9 6-3 1-10 6-18 11-18 7 0 7 6 0 20-6 11-15 20-20 20-6 0-10 5-10 12 0 6-8 20-17 30-11 12-17 38-18 75-2 52-5 59-49 103-25 25-43 50-39 53 3 4 1 7-5 7-7 0-12 8-12 18-1 22-34 62-52 62-7 0-24 7-36 16-17 12-35 14-67 10-35-6-47-3-62 12-40 42-97 61-145 48zm67-76c25-9 25-11 9-35-11-18-14-35-9-65 7-40 7-40-27-41-18 0-47-2-64-4-39-6-63 17-44 40 7 8 10 21 7 29-8 21 44 66 100 85 1 1 13-3 28-9zm203-79c28-24 28-42 1-61-11-8-27-27-35-42-22-43-56-61-87-47-21 10-26 19-29 60-4 58-1 69 18 69 8 0 14 4 14 9 0 8 57 28 85 30 6 0 20-8 33-18zm116-164c11-18 9-21-101-119-23-20-43-17-43 8 0 8-3 14-7 14-11 0-33 51-27 61 3 5 10 9 16 9s19 7 29 16c20 18 72 33 103 31 10-1 24-10 30-20zm53-150c1-1 4-13 8-27 13-53-109-123-152-88-28 23 1 97 38 98 8 0 23 7 34 16 16 12 60 12 72 1zm-472-156c-10-9-25 14-24 37l1 27 13-30c7-16 12-32 10-34zm-285 0c0-16 41-20 47-5 8 21 23 17 23-6 0-11 4-20 9-20s7 10 4 23c-4 21-4 21 10 4 8-10 19-17 23-15 21 5 50-14 63-42 7-17 12-32 10-33s-14-7-26-14c-13-7-42-10-75-7-29 3-84 7-123 9-86 4-84 3-62 16 9 5 17 17 17 25 0 23 42 73 63 73 9 1 17-3 17-8zm130-456c0-52-3-95-6-95-4 0-23 5-44 11-37 11-37 11-33 60 4 59 37 119 64 119 17 0 19-8 19-95z" transform="matrix(.1 0 0 -.1 -22 154.016419)"/></svg>