<svg height="111.941629pt" preserveAspectRatio="xMidYMid meet" viewBox="0 0 97.386034 111.941629" width="97.386034pt" xmlns="http://www.w3.org/2000/svg"><path d="m701 1359c-49-9-127-33-181-56-141-57-206-113-259-219-37-74-42-128-24-264 12-89 30-140 50-140 7 0 17-9 23-20 17-32 56-42 163-42 67 0 100-3 103-11 2-7 6-62 8-122 2-61 5-112 6-115 11-25-6-60-29-60-18 0-12-15 16-40 29-25 15-24 323-16 113 3 181 26 199 67 12 27 11 32-5 44-11 8-35 15-55 15-33 0-37 3-44 33-4 17-6 37-5 42 2 6 4 62 4 125l1 114 59 29c32 16 78 49 103 72l44 43-6 73c-6 89-23 154-41 170-8 6-14 16-14 21 0 13-64 91-126 152-68 68-117 96-183 107-64 10-69 10-130-2zm-49-174c10-4 14-19 12-47-1-32-8-48-29-66-17-14-24-27-18-33 15-15 61 13 80 49 10 19 22 42 28 52 5 10 19 23 32 29 21 9 23 8 23-14 0-28-38-106-57-118-20-12-16-27 7-27 11 0 20 5 20 10 0 6 12 23 28 38 15 15 35 44 45 66l18 38 24-24c27-28 34-77 16-121-17-42-13-55 9-29 10 13 16 30 13 37-3 9 1 15 11 15 20 0 21 29 1 36-23 9-18 24 8 24 28 0 67-72 67-123 0-28-5-35-33-45-39-14-58-15-38-3 12 8 12 12 2 25-19 23-28 20-39-12-8-22-21-31-73-47-38-12-91-20-129-20-64 0-65 1-68 28-3 22 1 30 17 34 22 6 24 36 3 53-7 6-10 7-8 4 5-7-61-96-79-107-23-12-47 3-41 27 7 26-14 76-32 76-7 0-11-4-7-9 3-5 1-12-5-16s-8-11-5-16c4-5 0-18-8-29-14-20-14-20-39 0-23 17-25 25-21 67 6 58 31 97 89 141 44 33 87 45 65 18-13-15-12-76 1-76 4 0 8 7 8 15s5 15 10 15c6 0 10 6 10 13 0 8 9 22 20 32s20 24 20 32c0 13 18 17 42 8zm230-570c8-30 5-186-5-202-3-4-30-6-61-5-74 5-87 24-89 124-2 70-1 73 26 86 15 7 40 16 55 18 14 3 29 7 31 10 13 12 35-4 43-31z" transform="matrix(.1 0 0 -.1 -22.717663 136.831706)"/></svg>