<svg height="141.933354pt" preserveAspectRatio="xMidYMid meet" viewBox="0 0 111.644079 141.933354" width="111.644079pt" xmlns="http://www.w3.org/2000/svg"><path d="m680 1665c-14-8-34-15-45-15-62-2-162-81-194-153-38-86-43-107-37-154 3-26 6-55 7-63 0-8 7-29 15-47 8-17 17-45 20-62 6-27 3-32-22-41-56-22-134-63-134-70 0-4-11-18-24-31-29-29-41-94-27-146 11-41 50-77 95-89 14-3 29-10 32-15s23-9 45-9c29 0 41-5 46-17 4-10 13-22 20-26 8-5 12-16 9-25-15-53-22-316-11-383 10-60 32-70 145-63 52 2 131 6 174 8 47 1 81 7 84 14 2 6 9 9 17 6 23-9 54 15 63 49 5 18 8 93 6 167-5 252-7 242 36 246 76 5 236 37 250 49 8 7 24 15 35 17s24 13 30 25c6 11 16 27 22 35 31 37 0 186-42 202-9 3-14 10-11 15 7 10-75 61-98 61-22 0-31 47-17 85 6 17 11 38 11 47 0 8 10 27 21 42 23 29 29 78 10 84-6 2-11 12-11 23 0 23-94 124-108 115-6-3-12 1-15 9-9 21-81 53-151 66-34 7-71 19-83 27-13 8-30 11-39 8-9-4-22-2-28 2-21 17-71 20-96 7zm-57-123c-14-19-38-69-47-95-7-23 11-121 24-125 6-2 10-13 10-24 0-12 8-27 18-34 16-13 16-13-2-14-14 0-16-3-7-13 6-8 17-33 26-56 18-52 7-114-30-169-23-33-23-36-7-49 15-13 15-13-5-3-19 8-24 7-33-11-7-11-14-19-16-16-3 3-16-6-29-19s-33-24-43-24c-11 0-23-7-26-16-5-12-13-14-34-10-62 15-112 40-118 58-10 32 15 75 49 88 18 6 40 16 49 21 10 5 29 9 42 9 41 0 113 81 83 94-7 2-3 5 8 5 14 1 16 4 8 12-6 6-9 18-6 25 3 8-9 42-27 76-33 64-33 64-18 183 2 11 13 31 26 45 12 14 22 28 22 32 0 5 6 8 13 8 6 0 23 14 36 31 17 21 27 27 35 19 7-7 7-15-1-28zm149-13c4-36-2-77-18-135-22-82-24-99-13-119 3-5 12-32 18-60 7-27 17-59 22-70 4-11 11-38 14-60 3-21 11-43 18-47 9-6 9-8 0-8s-11-10-6-31c5-25 1-35-20-55-14-13-33-24-40-24-19 0-31-30-18-43 20-20 63-10 92 22 27 30 59 118 38 105-5-3-9 0-9 6s-6 8-12 5c-7-4-5 0 6 9 10 8 15 19 12 25-4 5-3 12 2 15 10 6 114-106 120-131 8-32 4-86-7-93-22-13-385 0-399 15-3 3 7 18 21 33 15 16 27 34 27 41s4 10 9 6c13-7 34 33 27 51-4 9 3 18 18 24 14 5 27 17 29 27 17 58-17 228-55 272-10 11-13 24-7 32 4 8 3 19-3 26-6 8-8 16-5 20 4 3 2 14-4 25-8 15-7 22 6 32 9 6 17 23 19 38 1 15 8 33 14 41 7 8 9 17 5 20-3 4 6 7 21 7s25 4 21 9c-5 9 12 17 41 20 7 1 14-21 16-50zm176-47c2-7-3-12-12-12s-16 7-16 16c0 17 22 14 28-4zm150-21c26-22 27-28 8-47-21-20-33-17-40 10-3 13-9 31-12 40-8 22 15 20 44-3zm-228-68c0-7 3-13 8-13 9 0 7-64-2-79-15-23-34-101-23-94 7 4 8 0 4-11-4-10-7-22-7-27 0-4-7-6-16-2-11 4-15 15-12 34 3 16 0 29-5 29-12 0-3 121 13 175 11 37 13 38 26 20 8-10 14-25 14-32zm116 1c4-15 1-52-6-83-29-127-11-229 45-259 18-9 45-32 60-50 26-31 27-35 15-78-7-25-21-49-31-55-15-8-20-5-25 18-11 46-47 117-66 131-10 7-18 18-18 25 0 6-12 24-27 40-23 23-28 37-27 75 1 26 11 69 23 95 13 30 21 69 21 101 0 29 3 56 7 59 13 13 23 7 29-19zm129-56c-4-13-8-33-8-45-1-12-7-27-13-33-10-10-4-79 11-142 5-20 4-28-6-28-18 0-63 39-78 68-11 20-10 22 14 22 27 0 34 14 11 23-16 7-14 63 4 81 5 5 10 19 10 31 0 11 10 25 23 31 34 18 40 16 32-8zm-215-218c0-5-2-10-4-10-3 0-8 5-11 10-3 6-1 10 4 10 6 0 11-4 11-10zm340-97c21-20 30-38 32-64 2-39-27-88-52-89-9 0-25-6-36-14-13-9-25-11-35-6-11 8-8 15 18 39 17 16 34 26 37 23s6 2 6 12c0 13-4 15-19 7-23-13-32-4-25 24 3 13 1 26-5 29-17 11-13 44 7 55 27 16 39 13 72-16zm-595-53c3-5 1-10-4-10-6 0-11 5-11 10 0 6 2 10 4 10 3 0 8-4 11-10zm89-275c8-8 32-15 56-15 41 0 41-1 38-32s-5-33-43-34c-22 0-39-5-38-10s-3-15-9-22c-13-16-12-17 48-46 51-25 51-25-19-40-15-4-27-12-26-19 5-27-14-65-34-71-34-9-85-7-92 4-12 19-34 119-41 182-7 72-3 78 62 102 51 19 79 19 98 1z" transform="matrix(.1 0 0 -.1 -23.327088 167.332073)"/></svg>