<svg height="100.452231pt" preserveAspectRatio="xMidYMid meet" viewBox="0 0 70.38063 100.452231" width="70.38063pt" xmlns="http://www.w3.org/2000/svg"><path d="m500 1209c-166-30-191-46-234-147-43-99-63-209-49-274 6-31 7-58 2-64-12-14-1-24 27-24 13 0 26-4 29-10 3-5 28-12 54-16 71-9 74-13 76-93 1-39 5-74 8-78 11-10-24-43-45-43-10 0-33-7-50-16-28-14-45-14-99 2-11 3-18-3-22-16-4-16 5-27 38-50 44-31 47-31 160-15 30 4 66 3 90-4 77-23 118-23 179-2 35 13 64 17 70 12 17-13 94-22 101-11 3 5 19 7 35 3 28-5 30-3 30 25s-4 32-37 37c-81 13-98 18-110 27-8 6-10 43-8 120 3 61 6 111 7 112 2 1 17 11 35 24 18 12 39 22 47 22 28 0 60 70 60 128-1 30-6 57-11 61-5 3-10 22-10 41 0 28-9 45-51 88-28 28-56 52-61 52-6 0-11 9-11 20s-5 20-10 20c-6 0-23 14-38 31-40 44-104 57-202 38zm5-148c6 0 12-10 13-22 5-28 31-69 44-69 5 0 23 14 40 30 26 26 33 29 46 18 37-29 50-44 56-66 8-25 41-46 61-38 16 6 37-16 33-35-2-7-28-21-58-31-64-21-60-20-59-10 6 37-3 60-26 66-28 7-65-8-65-26 0-45-80-65-101-25-23 43-67 51-91 16-11-17-20-20-45-15-17 4-33 15-35 24-8 27 9 61 34 71 13 5 32 18 43 30 16 19 17 24 5 31-16 10-14 13 32 45 21 15 38 20 48 15 8-4 20-8 25-9zm109-488c7-92-7-118-58-108-53 10-74 26-76 54-7 126-7 125 25 131 17 4 40 12 50 18 34 19 51-9 59-95zm-288-249c-13-35 61-104 112-104 38 0 132 21 132 30s70 2 84-9c17-14 96-33 112-27 20 8 0 46-23 46-9 0-27 10-41 23-16 15-37 22-66 23-23 0-47 4-54 8-14 8-62-3-62-15 0-19-85-8-125 16-47 29-61 31-69 9z" transform="matrix(.1 0 0 -.1 -19.61937 121.749365)"/></svg>