<svg height="125.773389pt" preserveAspectRatio="xMidYMid meet" viewBox="0 0 107.947271 125.773389" width="107.947271pt" xmlns="http://www.w3.org/2000/svg"><path d="m765 1529c-154-29-188-43-256-107-45-41-129-163-129-185 0-9-5-19-10-22-15-9-81-145-75-155 2-4 0-21-4-38-8-26-5-37 21-71 16-23 42-44 56-48 15-3 41-15 59-26 18-10 39-17 47-14 9 4 20-9 31-34 18-39 18-40-5-82-13-23-29-49-36-57-25-29-74-139-74-165 0-15 6-41 14-58 8-18 20-47 27-64 8-18 19-33 25-33 7 0 18-10 27-23 9-14 34-28 66-37 28-7 51-17 51-20 0-13 195-17 291-6 77 8 167 51 182 85 6 14 19 38 30 54 10 15 14 27 8 27-15 0-14 30 2 36 8 3 12 21 11 53-1 36-8 58-30 87-16 22-32 40-36 42-5 2-8 9-8 15 0 7-11 25-25 41s-25 32-25 36c0 10 32 17 85 19 22 1 42 6 45 12 4 5 15 8 26 7 36-5 193 24 204 37 14 17 3 101-16 120-8 7-9 15-4 17 6 2 4 15-5 31-8 16-16 42-17 59-1 16-6 32-10 34-4 3-8 14-8 25 0 10-4 19-9 19s-15 16-21 35-17 41-23 48c-7 6-17 26-22 42-6 17-20 34-32 40-12 5-25 20-28 32-3 13-17 29-30 35-14 6-25 19-25 30 0 10-3 18-8 18-4 0-22 14-40 30-18 17-44 30-58 30-13 0-24 4-24 8 0 11-48 35-75 39-67 10-95 10-140 2zm124-77c20-2 22-4 10-18-7-9-13-24-14-35-1-15 5-19 35-19 43 0 65-17 49-37-7-7-18-13-25-13-18 0-18-14-1-28 10-8 27-7 66 6 50 15 54 15 66-1 7-9 17-17 22-17 13 0 49-40 37-41-5-1-17 0-27 0-9 1-20-5-23-13-3-9-15-16-26-16-10 0-16-4-13-10 11-17 73-12 84 7 8 14 12 15 25 4 9-7 16-19 16-26s6-18 14-25c20-16 9-40-18-40-14 0-28-10-36-26-11-19-20-24-37-21-19 3-23 0-23-19 0-13-1-27-2-30-3-7 16-19 47-29 17-6 18-8 5-18-8-7-16-24-16-38-2-23 2-25 25-21 14 3 30 11 34 18 4 8 15 14 24 14s13 6 9 15c-3 10 3 17 21 21 17 5 28 3 31-5 2-6 10-17 17-24 23-23-1-47-46-47-22 0-64-9-93-19-49-17-68-18-188-10-196 14-225 17-245 27-10 5-48 15-86 22-37 7-70 16-73 21s-10 6-16 3c-22-14-113 18-136 48-32 39-23 62 22 54 37-7 50 3 61 45 4 17 0 33-13 49-19 24-19 24 6 69 40 72 53 83 85 68 15-6 27-15 27-19 0-5 11-8 24-8 19 0 26 7 31 30 7 33-7 60-31 60-41 0 7 51 59 64 15 3 30 12 33 19 4 11 116 16 203 9zm-167-637c9-3 23-8 32-9 8-1 19-5 22-9 4-4 26-7 48-7 41 0 86-22 86-41 0-12 36-64 74-103 39-42 52-77 32-88-48-27-60-65-21-65 14 0 25 3 25 8s5 9 10 9c17 0 11-36-12-65-27-35-123-77-103-45 12 20-45 10-64-11-17-18-30-21-87-20-36 1-73 5-82 10-8 5-23 6-32 4-10-3-21 0-24 6-4 6-23 11-42 11s-34 5-34 10c0 6-7 10-15 10-9 0-26 11-39 25-20 22-23 33-19 82 3 35 12 66 24 82 66 86 77 104 72 117-3 10 0 12 10 8 12-4 16 6 22 45l7 51 46-4c26-2 55-7 64-11zm152 495c-22-9-36-56-26-92 4-15 11-17 38-12 26 5 35 2 40-10 11-29 19-9 18 44-1 37-7 55-20 65-22 17-22 17-50 5zm-287-217c-16-35-11-69 11-76 9-3 25-8 35-12 12-5 17-2 17 9 0 9 5 16 11 16 23 0-24 89-48 90-7 0-18-12-26-27zm224-19c-29-33-34-72-11-84 26-14 84-9 97 9 17 22 16 61 0 61-8 0-22 9-32 20-23 26-27 25-54-6zm-8-331c-39-5-44-30-12-59 15-14 19-26 15-47-6-28-5-28 27-22 84 16 113 50 66 75-16 9-18 14-8 26 6 8 10 17 7 19-8 8-62 13-95 8zm80-205c-34-11-51-37-32-49 7-4 19-3 28 1 9 5 24 11 34 14 9 3 17 15 17 26 0 22-1 22-47 8z" transform="matrix(.1 0 0 -.1 -28.707364 153.499819)"/></svg>