<svg height="163.35082pt" preserveAspectRatio="xMidYMid meet" viewBox="0 0 94.109706 163.35082" width="94.109706pt" xmlns="http://www.w3.org/2000/svg"><path d="m716 1816c-60-34-156-136-156-165 0-17-19-78-32-104-7-14-2-21 23-35 17-9 43-26 58-38 14-12 38-24 54-28 21-5 27-12 27-34 0-15-7-40-15-56-8-15-15-41-15-57s-4-29-10-29c-5 0-13-18-16-40-4-22-10-43-14-45-4-3-4-21 0-40 7-31 5-38-16-52-23-15-25-14-67 30-43 46-100 77-143 77-33 0-110-37-144-69-36-35-89-135-100-191-14-71 11-132 66-159 54-26 95-19 129 21 31 36 31 45 3 75l-21 23-39-22c-29-17-41-19-50-10-20 20-24 54-14 109 18 94 162 177 215 124 12-12 26-21 32-21 5 0 8-4 5-8-3-5 6-15 19-22s22-17 19-22 9-39 27-76c61-128 68-156 75-297 2-60 10-134 16-163 10-47 9-57-9-90-11-20-25-36-32-34-20 4-75 2-123-4-31-4-48-11-51-22-3-10-8-24-11-33-10-23 21-51 46-43 43 13 85 6 113-20 32-30 56-33 90-10 18 12 25 25 25 50 0 56 19 54 60-8 14-21 30-38 36-38s17-7 24-15c12-14 47-14 69-1 5 3 7 15 4 26-3 12 1 22 11 26 9 3 16 12 16 20 0 19 24 18 40-1 7-8 23-15 37-15 25 0 78 44 69 59-3 4-26 16-52 26-42 16-84 46-84 60 0 12-56 54-71 55-9 0-22-7-29-15-19-23-30-18-45 19-8 19-19 37-24 41-6 3-10 18-10 33s-3 68-7 117c-8 129-8 145 11 195 8 25 18 54 20 64 3 11 16 31 30 46 14 14 25 31 25 38s8 12 18 12c11 0 13 3 5 8-6 4 6 7 28 7 21 0 39-3 39-7 0-5 8-8 18-8 41-1 85-64 95-138 4-36 1-48-18-70-30-35-48-20-49 40-1 36-4 43-23 46-18 3-24-4-33-39-7-24-9-55-6-71 3-15 9-42 12-59 6-30 7-31 57-24 56 8 87 23 87 42 0 6 9 15 20 18 14 4 20 16 21 38 1 18 3 48 5 67 10 90-50 196-131 234-78 37-135 13-229-96l-29-33 8 55c5 30 9 69 10 86 4 48 17 116 25 134 4 8 14 29 22 45 9 17 21 47 27 68 13 39 52 60 73 39 7-7 19-7 36-1 15 6 36 8 48 5 14-4 31 2 45 14 14 11 18 19 11 20-10 0-9 4 3 16 16 16 16 30-1 87-3 9-1 17 4 17 6 0 9 19 6 43-6 64-26 147-36 147-4 0-8 6-8 14 0 15-21 26-50 26-10 0-38 11-61 25-57 32-72 31-143-9zm-64-1558c-7-7-12-8-12-2 0 14 12 26 19 19 2-3-1-11-7-17z" transform="matrix(.1 0 0 -.1 -14.587565 184.78504)"/></svg>