<svg height="96.351277pt" preserveAspectRatio="xMidYMid meet" viewBox="0 0 90.119572 96.351277" width="90.119572pt" xmlns="http://www.w3.org/2000/svg"><path d="m650 1213c-20-7-50-39-50-53 0-21-50-9-78 20-30 29-73 39-98 22-15-9-54-83-54-101 0-9-6-11-22-6-13 4-43 9-68 11-37 4-51 0-74-20-39-32-52-122-29-200 23-77 96-205 118-206 6 0 27-15 48-32 39-35 61-86 46-109-15-24-10-75 17-161 39-121 46-125 186-123 109 3 116 4 143 29 34 31 32 26 40 178 3 78 2 119-6 123-6 4-8 13-5 21 3 7 1 16-4 19-14 8 1 37 15 31 25-9 120 49 183 114 80 81 92 98 92 132 0 15 5 30 11 33 7 5 8 22 3 49-4 22-7 51-6 64 1 12-5 25-13 28-8 4-15 12-15 20 0 7-9 18-19 24-27 14-31 13-31-7 0-14-2-15-9-5-4 8-14 12-22 11s-21 1-31 5c-16 7-50-15-87-56-25-29-38-21-46 28-5 35-16 56-45 85-37 37-57 44-90 32zm65-103c10-11 15-20 11-20s-4-5-1-10c4-6 8-59 10-118 3-130 2-122 19-122 7 0 26-6 41-14 21-11 30-12 40-3 17 16 2 45-29 57-32 12-37 31-16 58 13 15 29 22 54 22 20 0 36-4 36-10 0-5 7-10 15-10s15 5 15 11c0 5 4 7 10 4 5-3 17-2 26 3 13 7 12 11-10 26-14 9-38 21-52 26-39 15-24 33 32 37 43 2 51 0 59-20 14-30-4-126-27-151-10-11-18-23-18-28 0-27-85-83-109-72-9 4-49 8-88 9-70 1-73 0-73-22 0-21-3-22-45-18-25 3-64 7-88 10-24 2-56 9-72 15l-29 11 37 30c20 17 37 36 37 44 0 17-51 50-59 38-3-5-22-17-41-27l-34-17-25 33c-34 43-34 74 1 70 15-1 29 2 33 8 3 5 17 10 31 10 34 0 43 29 16 51-28 22-27 37 2 73 21 25 26 27 47 15 34-18 45-31 53-62 3-15 11-27 17-27s7-4 4-10c-3-5 2-10 13-10 27 0 59 34 67 72 4 18 12 39 17 46 16 18 53 15 73-8zm305-90c0-5-5-10-11-10-5 0-7 5-4 10 3 6 8 10 11 10 2 0 4-4 4-10zm-490-350c0-5-4-10-10-10-5 0-10 5-10 10 0 6 5 10 10 10 6 0 10-4 10-10zm178-118c3-32 3-32-40-32-25 0-53-6-63-14-18-13-17-14 8-31 15-9 38-18 52-19 18-1 25-7 25-21 0-18-5-20-35-17-30 4-35 1-35-17 0-12 5-21 10-21 6 0 10-4 10-10s-32-10-75-10c-57 0-75 3-75 14 0 8-6 16-14 19-10 4-13 15-10 32 2 14 0 33-5 43-13 24 4 52 31 52 16 0 18 3 9 14-20 24 15 41 90 41 37 0 71 4 75 8 17 17 39 1 42-31z" transform="matrix(.1 0 0 -.1 -16.567244 121.847353)"/></svg>