<svg height="139.37656pt" preserveAspectRatio="xMidYMid meet" viewBox="0 0 67.61769 139.37656" width="67.61769pt" xmlns="http://www.w3.org/2000/svg"><path d="m320 1628c-123-95-144-124-190-262-21-65-22-80-16-212 4-79 11-156 17-173 12-34 41-44 131-44 54 1 58 0 53-21-9-37-8-78 4-161 7-44 14-157 14-252 2-180 7-200 50-207 8-1 21-7 29-13 15-13 71-12 100 1 9 4 22 5 28 1s16-2 23 3 28 15 49 21c20 7 39 18 42 26s13 15 22 15c12 0 14 3 6 13-5 6-13 41-17 77s-12 68-18 72c-7 4-7 11 1 20 8 10 8 18 1 25-9 9-20 97-19 156 0 15-4 36-9 46-7 13-6 24 4 37 17 22 20 54 5 54-5 0-10 11-10 24s-7 27-16 30c-12 5-14 9-5 20 6 7 9 20 6 28-5 12 12 17 80 27 64 10 88 18 95 32 11 19 8 98-4 118-4 6-11 41-16 79-4 37-11 83-15 102-8 39-45 123-57 128-4 2-8 10-8 18s-4 14-8 14c-5 0-18 18-30 39s-29 42-38 45c-8 3-13 10-10 15s-5 12-19 15c-14 4-25 13-25 22 0 8-8 17-17 21-10 3-25 12-34 20-10 8-41 16-70 19-51 5-57 3-109-38zm130-80c39-13 54-38 30-53-21-13-9-25 25-25 30 0 40-7 66-42 30-42 30-43 9-46-12-2-32 4-46 12-23 16-24 16-24-7 0-32 18-47 59-47 28 0 38-5 47-24 13-27 3-36-41-36-58 0-35-55 26-63 48-6 67-22 71-57 2-20-1-24-16-22-10 2-30 1-43-3-36-9-28-48 12-55 26-5 21-8-33-19-73-14-349-18-362-5-20 22-32 236-15 277 4 9 4 24 1 33-4 11 1 22 14 31 11 8 20 20 20 27 0 18 30 76 39 76 4 0 16 8 27 18 51 44 72 49 134 30zm-223-54c-3-3-12-4-19-1-8 3-5 6 6 6 11 1 17-2 13-5zm491-345c2-13 8-29 13-35 7-8 0-15-22-23-42-15-42-15-25 17 8 16 12 39 9 52-4 17-2 21 8 18 8-2 16-15 17-29zm-295-238c5-22 13-31 36-36 16-3 39-1 51 5 17 9 18 14 9 31-12 24-6 34 14 26 11-4 15-27 16-89 1-46 3-97 6-115 4-31 3-32-40-38-47-8-63-32-44-68 11-19 20-19 75-2 18 6 22 3 21-17-1-12 2-33 6-45 6-17 5-20-10-17-11 3-27-4-41-19-19-20-20-26-8-42 12-17 17-18 41-7 33 15 40 11 43-28 1-19-2-29-8-25-12 7-59-25-60-41 0-15-59-24-88-13-33 13-39 41-35 150 2 55 0 100-6 103-6 4-6 19 0 41 7 23 6 41 0 54-8 14-7 22 3 31 12 9 12 19-5 67-19 57-24 104-12 116 15 15 31 5 36-22zm21-102c4-13 8-32 7-41 0-23 29-39 57-31 17 4 22 13 22 38 0 28-4 34-27 39-16 4-37 9-47 13-16 4-18 2-12-18z" transform="matrix(.1 0 0 -.1 -11.057385 166.777998)"/></svg>