<svg height="112.481881pt" preserveAspectRatio="xMidYMid meet" viewBox="0 0 117.865651 112.481881" width="117.865651pt" xmlns="http://www.w3.org/2000/svg"><path d="m830 1802c0-4-14-9-32-10-17-1-37-10-43-19-7-9-25-16-43-15-36 1-111-25-162-56-19-12-53-31-75-42-73-37-124-160-129-312 0-25-4-49-8-53-8-9 1-66 13-79 4-5 6-29 3-55-6-54 22-111 56-111 11 0 20-4 20-9 0-4 26-18 57-30 41-16 58-19 64-10 4 7 14 9 22 6 10-4 15-22 16-62 0-31 5-65 11-75 5-10 10-37 10-60 0-67 20-118 50-123 14-3 30-2 35 2 26 20 108 33 196 32 92 0 99 1 128 27 24 21 31 35 31 64 0 21-4 38-10 38-5 0-10 9-10 20s7 20 15 20c9 0 15 9 15 23 0 27 55 67 92 67 24 0 87 26 98 40 3 4 13 9 23 13 9 3 17 13 17 22 0 8 4 15 9 15 17 0 141 130 146 153 4 12 19 28 34 35 35 15 43 42 25 77-9 17-11 33-5 43 10 20 0 49-27 78-10 11-25 30-31 42s-19 22-27 22-12 5-9 11c8 13-23 49-42 49-8 0-11 5-8 10 8 13-44 63-89 84-19 9-38 20-41 25s-31 17-63 27c-31 9-65 24-74 32-10 8-18 12-18 9 0-4-12-1-27 5-28 11-68 17-150 21-24 1-43 5-43 10 0 4-4 7-10 7-5 0-10-4-10-8zm-33-117c12-8 36-16 55-17 45-2 131 12 143 23 16 15 24 10 27-18 3-24 9-28 58-38 62-13 120-43 120-62 0-10-6-9-25 3-17 11-56 18-115 22-79 4-90 3-90-12 0-17-12-21-24-9-4 4-24 9-44 10-49 3-86 9-146 25-39 9-50 10-54 0-2-7-10-12-18-12-9 0-14-11-14-35 0-22-5-35-13-35-16 0-108-45-116-57-11-17-111-53-110-40 3 48 72 159 108 175 14 6 33 16 41 21 8 6 49 20 90 32s79 25 85 30c12 12 17 11 42-6zm82-246 132-13-6-27c-9-39-61-160-66-154-3 2-16-14-30-36-37-62-48-71-79-64-20 4-29 2-34-11-4-12-13-14-31-10-14 4-34 2-45-4-17-9-22-7-29 13-5 12-16 28-24 35s-21 27-28 45-16 34-19 37c-4 3-11 19-17 35-7 21-17 31-35 33-22 3-26-1-31-35-4-25-2-45 8-60 23-35 18-45-15-28-37 19-35 20-37-17-2-18 4-40 14-50 14-15 14-18 1-18-17 0-78 29-78 37 0 3 9 16 20 30 25 32 25 43 3 43-15 0-16 2-3 10 8 5 10 10 4 10s-11 12-11 26c0 31 61 95 113 120 19 9 34 23 34 30 0 8 6 15 13 15 51 6 66 8 92 17 17 6 35 9 41 7s70-9 143-16zm-456-44c-3-9-8-14-10-11-3 3-2 9 2 15 9 16 15 13 8-4zm706-10c3-4-1-10-10-15-8-5-22-28-29-52-8-24-23-51-34-60-21-19-30-23-22-9 3 5 9 40 12 77 3 38 8 72 10 76 4 7 62-7 73-17zm41-15c0-6 8-14 18-17 31-12 82-58 82-74 0-21-91-114-132-135-17-9-42-14-55-11-18 3-30-3-46-24-11-16-26-29-33-29-11 0-25-28-39-77-3-12 1-35 9-51 15-30 8-94-13-115-5-5-48-11-94-12-46-2-93-8-105-14-11-6-34-11-51-11-28 0-30 2-35 53-17 167-18 192-5 180 18-18 54-16 69 2 30 36 73 46 143 35 71-11 99-6 90 16-3 8-9 11-14 8s-6 2-3 11c4 8 0 22-7 31-11 13-10 18 8 32 11 10 23 25 26 35 10 27 27 20 34-13 6-31 23-42 23-15 0 8 5 16 10 16 6 1 13 2 18 3 15 2 52 46 57 68 6 25 13 73 14 101 1 18 31 25 31 7zm215-80c0-7-6-15-12-17-8-3-13 4-13 17s5 20 13 18c6-3 12-11 12-18zm-746-199c18-16 28-32 22-35-5-4-19 3-30 15-17 18-23 20-36 9-10-8-15-9-15-1 0 6-8 11-17 11-12 1-7 6 12 15 17 7 30 14 31 14 0 1 15-12 33-28zm38 322c-2-5 0-44 4-88 11-100 39-164 72-165 5 0 5 5 2 10-4 7 7 9 30 6 41-5 57 12 81 91 25 81 26 106 5 133l-19 24-10-24c-5-14-18-52-28-84-11-32-24-66-31-75-10-14-12-14-18 4-4 11-11 29-15 40-10 24-21 82-20 113 0 17-6 22-25 22-13 0-26-3-28-7z" transform="matrix(.1 0 0 -.1 -33.48448 181)"/></svg>