<svg height="94.608904pt" preserveAspectRatio="xMidYMid meet" viewBox="0 0 62.619397 94.608904" width="62.619397pt" xmlns="http://www.w3.org/2000/svg"><path d="m645 1264c-11-8-28-13-37-10-20 5-91-15-135-37-43-23-106-102-125-157-28-82-26-148 5-197 21-33 33-42 54-42 36-1 74-7 94-15 15-6 17-29 18-171l1-165-27-5c-16-4-36-10-45-16-10-5-27-9-38-9s-20-5-20-10c0-6-12-10-27-9-44 3-82-17-80-40 1-23 31-33 93-31 21 1 81-2 132-5 51-4 99-3 105 2 15 11 35 9 69-5 52-21 218-6 203 19-4 5 1 9 10 9 12 0 15 7 13 28-3 28-8 29-68 18-14-2-25-5-25-6 0-7-106-3-109 5-2 5-5 4-5-2-1-18-21-16-21 2 0 9-9 15-25 15-30 0-33 20-5 45 18 16 19 26 14 94-4 42-10 81-15 87s-7 18-3 27c3 8 6 39 7 68 2 53 2 53 43 65 97 28 141 75 131 138-10 59-39 156-48 156-5 0-9 12-9 28 0 33-32 89-69 119-31 26-31 26-56 7zm-45-149c0-14 8-29 21-35 20-12 18-25-4-25-7 0-11-9-10-20 5-34-11-49-36-36-25 14-41 7-41-18 0-42-59-57-78-18-6 12-13 29-14 38-4 21 51 109 67 109 7 0 26 7 41 15 41 21 54 19 54-10zm119-101c3-16 1-17-13-5-19 16-21 34-3 29 6-3 14-13 16-24zm11-45c0-11-4-17-10-14-5 3-10 13-10 21s5 14 10 14c6 0 10-9 10-21z" transform="matrix(.1 0 0 -.1 -28.263158 127.787219)"/></svg>