<svg height="115.47097pt" preserveAspectRatio="xMidYMid meet" viewBox="0 0 124.807342 115.47097" width="124.807342pt" xmlns="http://www.w3.org/2000/svg"><path d="m985 1390c-22-4-53-14-70-21-16-6-39-13-50-15-65-9-146-72-191-149-19-33-26-63-31-129-5-77-3-91 18-136 19-40 29-50 49-51 14 0 48-8 75-18l50-18 1-174c2-180 6-225 25-271 15-36 5-58-25-58-14 0-28-5-31-10-11-18-27-11-20 10 10 32 14 120 6 120-5 0-8 12-8 27 0 14-8 32-17 38-9 7-16 16-16 20 0 9-48 55-57 55-6 0-36 31-76 77-18 21-18 22 2 42 27 27 26 35-6 66-19 17-39 25-63 25-20 0-47 5-61 12-23 11-24 15-21 78 4 63 3 68-23 88-15 12-34 22-41 22-17 0-44-40-64-94-20-53-42-57-68-11-17 28-28 35-51 35-59 0-49-71 19-139 30-30 31-31 13-50-10-10-29-21-43-23-15-2-26-11-28-22-3-11-10-26-18-34-16-16-18-32-4-32 6 0 10-11 10-25 0-29 36-53 53-36s44 13 51-6c8-24 31-62 44-75 8-8 20-7 42 2 24 10 31 20 36 51 4 22 10 39 14 39s11 16 14 35c7 33 9 35 48 35 28 0 51-8 74-25 18-14 40-25 48-25 9 0 16-4 16-9s16-26 36-47c34-37 75-112 80-144 1-8 4-32 7-52l6-38-37 16c-20 9-45 18-54 21-10 3-18 9-18 14s-11 9-24 9c-14 0-28 5-31 10-3 6-17 10-31 10s-22-4-19-10c3-5 1-10-4-10-21 0-11-28 12-34 13-3 41-20 63-37 21-17 63-43 92-57 45-20 62-23 105-18 28 4 56 10 61 14 13 8 85 30 145 42 30 7 48 7 57-1 9-7 29-8 56-3 24 4 97 8 163 8 114 1 120 2 117 21-5 29-30 53-63 60-16 4-44 19-61 35-34 32-48 85-52 202-2 37-8 74-15 81-9 12-8 16 2 20 9 3 12 16 9 36s0 32 9 35c8 2 35 9 60 16 47 12 106 54 101 72-1 6 3 16 9 24 24 29-14 224-43 224-4 0-12 18-18 40-14 50-92 153-148 193-34 24-54 31-100 33-31 2-75-1-97-6zm61-132c-22-37-28-114-10-133 8-8 21-15 28-15 9 0 12-9 8-25-5-31 13-55 43-55 34 0 49 23 33 49-7 12-21 24-30 27-24 7-23 24 1 24 13 0 21 9 26 30 4 17 10 30 15 30 10 0 76-99 90-136 13-33 7-54-15-54-9 0-26-5-38-12s-40-13-62-14c-254-13-246-13-267 8-14 14-34 20-65 21h-45l6 43c8 59 49 122 84 130 38 9 52 23 52 49 0 16 8 25 28 29 132 33 137 33 118 4zm89-9c11-17-1-21-15-4-8 9-8 15-2 15s14-5 17-11zm-135-479c5 0 16 7 24 16 14 14 18 13 39-8 22-22 24-33 26-144l2-120-33-27c-26-22-39-26-71-23-22 3-41 7-43 8-8 8-18 130-18 208 0 69 4 89 19 107 18 22 19 22 32 3 8-11 18-20 23-20zm-76 350c-54-21-23-130 37-130 45 0 51 57 12 116-17 26-18 27-49 14zm82-378c-3-5-19-7-35-4-26 4-29 2-24-17 14-53 73-56 84-3 5 23 3 32-7 32-7 0-15-4-18-8zm4-90c0-4-13-13-30-19-33-13-37-24-15-46 11-12 23-13 55-5 47 12 49 22 15 54-14 13-25 20-25 16zm-48-121c-22-13-10-44 21-52 15-4 27-3 27 2s7 9 15 9c20 0 19 36-1 44-22 8-47 7-62-3z" transform="matrix(.1 0 0 -.1 -15.039448 139.665692)"/></svg>