<svg height="105.906313pt" preserveAspectRatio="xMidYMid meet" viewBox="0 0 105.42208 105.906313" width="105.42208pt" xmlns="http://www.w3.org/2000/svg"><path d="m485 1206c-63-17-168-81-211-128-55-61-127-234-103-249 7-4 5-9-5-12-12-5-10-16 16-68l31-62 67 6c36 3 71 2 77-1 13-8 28-117 38-262 4-52 13-104 20-116 7-11 11-31 9-45-3-13 4-38 15-55 19-31 34-37 121-50 53-9 280-12 280-5 0 5 10 8 23 8 73-1 96 5 121 28 20 18 25 31 21 46-4 11-2 25 3 32 15 19 15 120-1 111-8-6-8-3 1 9 8 9 11 21 7 27-7 11-15 78-19 160-2 30-8 67-14 83-9 22-9 27 2 27 8 0 16-6 19-12 3-10 12-9 33 4 16 10 45 24 64 33 99 43 105 47 111 95 4 28 2 55-6 70-7 14-10 30-8 37 2 6 0 14-6 17-6 4-8 13-5 20 3 8-6 23-20 34s-26 25-26 31-5 11-10 11c-6 0-15 11-20 25s-18 28-27 32c-10 4-22 12-26 20-9 15-72 47-135 69-36 13-46 13-60 2-11-9-14-9-9-1 9 14-8 19-103 28-116 12-224 12-265 1zm506-86c5 0 9-7 9-15 0-9 6-12 15-9 17 7 19-4 6-25-8-12-15-10-39 10-33 26-43 55-16 45 9-3 20-6 25-6zm-382-11c20-7 52-17 71-25 19-7 47-15 61-18s30-16 36-29c15-33-6-147-27-147-4 0-7-11-7-24 0-35 31-40 48-7 8 14 21 34 29 44 8 9 17 30 20 45 7 38 31 34 55-10l20-37-24-25c-14-14-29-26-33-26-5 0-16-7-25-16-9-8-22-13-29-10s-16 1-19-3c-2-5-61-10-129-10-115-2-131 1-222 30-55 18-105 37-111 42-23 17-13 41 43 102 31 33 60 70 65 82 5 13 17 23 27 23s22 4 28 9c5 5 23 11 39 14 17 2 34 5 39 6 5 0 26-4 45-10zm-43-408c9-9 79-21 123-21 13 0 32-7 41-15s43-16 77-19c34-2 66-7 72-11 18-11 12-29-14-41-23-11-46-9-111 11-15 5-23 2-27-9-4-9-2-16 3-16 6 0 10-6 10-14 0-27 32-41 96-41 84 0 83-19-1-23-60-3-65-5-65-26 0-18 8-25 38-34 20-7 48-13 62-14 29-3 37-29 15-51-8-9-15-23-15-32 0-13-7-15-35-9-40 7-65-7-65-38 0-19-5-20-57-15-74 8-110 14-121 21-5 3-7 26-4 51 5 50-6 57-46 29-22-15-24-15-38 2-7 11-12 28-9 39s5 28 5 38c0 14 7 18 28 17 51-4 62-1 56 15-4 9 0 15 10 15 9 0 16 5 16 11 0 5-4 7-10 4-5-3-10 1-10 9 0 17-12 21-24 9-11-11-46-10-55 1-20 26-19 69 3 91 12 12 28 24 36 27 10 3 10 8 1 26-12 22-3 30 15 13zm-84 367c-7-7-12-16-12-21s-12-18-26-29c-38-30-46-60-20-74 18-10 26-7 58 29 23 25 34 45 29 51s-7 19-6 28c4 23-8 31-23 16zm83-18c3-5 1-10-4-10-6 0-11-8-11-18s-4-22-9-27c-5-6-23-36-41-68-30-55-32-77-7-77 13 0 75 87 94 132 12 27 11 29-4 24-15-6-15-5 1 13 19 21 14 41-10 41-8 0-12-4-9-10zm106-37c-6-21-11-43-11-50 0-6-6-14-12-16-10-4-10-6 0-6 9-1 7-10-9-32-18-26-19-33-8-40 21-13 27-11 45 16 10 15 14 34 10 49-4 16-1 26 10 30s14 17 12 43c-4 50-24 53-37 6z" transform="matrix(.1 0 0 -.1 -15.880816 121.429522)"/></svg>