<svg height="131.653026pt" preserveAspectRatio="xMidYMid meet" viewBox="0 0 190.100455 131.653026" width="190.100455pt" xmlns="http://www.w3.org/2000/svg"><path d="m927 1528c-6-4-14-5-17-3s-30-14-58-35c-29-22-69-47-89-55-37-16-38-16-123 27-84 42-87 43-187 43-91 0-104-2-125-22-14-13-32-23-42-23s-20-9-23-20-10-20-15-20-31-15-56-32c-26-18-49-34-51-35-3-2-3-29-1-63 1-8-5-50-13-93-17-94-6-176 29-217 8-8 28-32 45-52 17-21 39-38 49-38 11 0 22-5 25-10s19-10 35-10c36 0 140 31 140 42 0 13 20 9 36-6 8-8 14-19 14-25s15-42 34-81 40-87 47-108c6-20 17-44 23-52 21-26 42-128 49-227 0-7 7-13 15-13 23 0 51 30 45 47-3 8 0 25 7 37 10 20 8 34-13 92-13 38-30 93-37 122-6 28-16 55-21 58s-7 10-3 15c16 26-63 170-118 212-30 24-30 26-14 48 9 13 16 32 16 42 0 19 31 21 31 2 1-5 5-15 11-22 5-7 7-17 3-23-4-7 2-18 14-26s21-19 21-25c0-10 84-191 101-219 5-8 12-23 15-32 4-10 9-18 13-18 3 0 7-21 8-46 1-26 6-51 12-57 13-13 15-74 2-81-13-8-1-48 18-63 9-7 28-13 44-13 24 0 27 4 29 33 0 17 0 41-1 51-1 19-1 19 21-1 13-11 31-23 41-26 11-4 17-18 18-39 1-18 2-37 3-43 1-5 5-34 10-62 4-29 12-53 17-53s9-6 9-14c0-9 7-12 21-9 18 5 19 7 6 15-13 7-13 15-5 45 5 20 7 53 3 72-4 20-6 52-6 72 1 28-3 38-24 49-19 10-25 21-25 46 0 18-5 36-10 39-6 4-9 14-6 23 3 10 8 60 10 112 6 107 16 152 35 158 10 3 12-27 10-139-3-117 0-154 15-196 20-60 24-64 54-56 23 5 29 32 13 48-11 11-21 161-12 170 6 7 7 15 9 96l2 55 43-1c25-1 62 8 93 22 27 12 63 25 80 29 26 5 30 2 41-25 12-32 7-71-8-71-5 0-9-11-9-24 0-14-5-28-10-31-6-4-26-41-46-83-19-42-39-84-44-92s-17-31-27-50c-9-19-25-44-35-54-10-11-18-23-18-27 0-15 31-30 57-27 23 2 29 9 34 38 3 19 17 52 32 73 14 21 29 47 32 58 4 10 22 36 41 58 20 21 45 56 56 77s28 44 37 51 12 13 7 13 4 12 20 27 28 29 28 32c-1 3-4 18-8 33l-6 28 47-6c32-3 56-13 72-29l24-23-42-21c-23-12-54-35-68-52-19-21-33-29-48-25-18 5-21 1-22-31-1-22-7-40-17-45-9-5-16-17-16-26-1-9-16-44-35-77s-42-73-51-90c-9-16-25-39-35-51-24-25-43-132-28-150 7-8 6-13-2-16-15-5 10-68 26-68 29 1 40 27 41 96 2 68 4 74 53 146 28 42 51 81 51 87s4 11 10 11c5 0 13 18 16 40 6 35 11 41 50 56 34 13 47 14 58 5 9-8 51-12 112-12 60 0 101-4 105-10 10-17 40-3 94 46 27 25 53 45 57 45 20 0 63 131 59 183-1 17 4 27 13 27 16 0 26 21 26 56 0 13 5 24 10 24 24 0 2 74-27 93-7 4-10 14-7 22 10 25-177 196-231 212-67 19-122 23-167 12-43-10-133-52-148-68-3-3-17-16-31-29l-26-22-28 70c-15 38-34 70-41 70-6 0-15 12-19 28-9 35-33 62-57 62-15 0-23 16-19 42 1 9-267 5-282-4zm119-145c19-22 30-27 64-25 23 2 50 0 61-3 28-9 7-33-37-41-27-5-34-11-34-29 0-25 12-26 80-8 14 3 29 7 33 7 4 1 11 6 15 13 9 14 25 5 31-17 3-8 7-43 10-77 5-52 4-63-9-63-8 0-28-9-44-19-24-16-42-19-93-15-46 3-69 1-87-11-17-11-26-13-31-5-4 7-19 9-35 5-46-10-151 22-177 55-20 24-16 105 7 145 11 20 20 41 20 48 0 14 87 49 145 58 22 3 44 7 49 7 5 1 19-10 32-25zm-463-36c20-7 37-15 37-20 0-10-98-107-109-107-17 0-20 30-6 57 21 40 18 61-7 69-22 7-22 7-3 15 11 4 27 5 35 3 8-3 32-11 53-17zm-183-49c0-4 7-8 16-8 12 0 15-7 11-27-7-38 1-53 29-53 18 0 24-5 24-21 0-12-7-27-15-33s-23-40-34-76l-18-65-39 2c-89 4-122 21-93 50 8 8 8 17 1 30-6 11-12 30-14 44-2 13-7 30-12 37-11 17 1 60 26 97 17 26 26 30 69 31 27 0 49-3 49-8zm1307-20c44-19 80-56 108-114 15-30 33-54 42-54 11 0 13-7 9-27-3-16-8-44-10-63-6-48-26-128-43-168-25-60-63-51-63 15 0 22-6 36-20 43-11 6-20 17-20 25s-12 21-27 30c-27 15-27 15-3 8 39-12 93-9 97 5 3 8-8 12-36 12-27 0-43 5-49 16-6 12-18 15-36 12-28-6-74 14-121 50-18 14-42 22-66 22-44 0-46 3-20 31 16 18 20 18 34 5 23-24 46 8 42 59-4 38-2 42 36 63 22 13 44 20 49 17 6-4 13 1 16 9 7 19 42 21 81 4zm-197-82c0-19-27-46-46-46-9 0-22-7-30-15-22-22-40-19-21 3 10 10 17 23 17 28 0 6 15 17 33 26 42 20 47 21 47 4zm-90-106c0-5-4-10-10-10-5 0-10 5-10 10 0 6 5 10 10 10 6 0 10-4 10-10zm-583-183c6-4 11-32 11-64 0-40 5-61 16-69 13-9 14-14 4-22-12-10-16-81-5-99 3-5 2-24-2-43l-8-35-18 40c-10 22-20 56-22 75-3 32-22 90-44 132-5 10-9 27-9 37 0 11-4 23-10 26-5 3-10 12-10 20 0 10 12 13 44 11 24-2 48-6 53-9zm811-68c29-31 17-55-34-69-65-19-78-1-31 41 20 18 34 36 31 41-11 17 16 7 34-13zm-821 454c-4-3-7-12-7-19 0-9 5-10 24-1 13 7 22 15 20 19-6 10-28 10-37 1zm371-84c-10-5-18-17-18-24 0-8-3-14-7-14-5 1-12 0-18-1-5-1-17-3-25-4-8 0-16-10-18-20-4-17 0-18 37-12 69 11 88 23 83 57-5 32-8 34-34 18zm-315-42c-49-25-52-32-20-41 56-15 97 4 97 45 0 25-24 24-77-4zm-538 28c-4-11-15-28-23-38-19-22-11-30 22-21 27 6 29 13 16 54-7 24-8 24-15 5zm1321 0c8-21 74-57 92-50 13 5 12 8-4 20-10 8-29 15-42 15-12 0-25 7-28 15-4 8-10 15-15 15-4 0-6-7-3-15zm40-140c4-8 12-15 20-15 20 0 17 7-6 20-16 9-18 8-14-5zm-623-562c-20-7-15-31 7-43 17-9 20-8 20 7 0 25-13 41-27 36zm-13-51c0-6 4-13 9-16 4-3 9-32 10-63 0-32 6-59 11-61 6-2 10-13 10-24 0-16 5-19 23-14 12 3 25 6 29 6s4 8 1 17c-4 9-11 41-17 70-9 44-17 58-43 74-18 12-33 16-33 11zm357-34c3-18 11-36 16-40 6-3 10-20 9-37 0-17 3-33 7-35 4-3 7-19 6-36-2-32 6-38 23-17 12 14 11 167 0 167-5 0-8 7-8 15 0 18-26 20-33 3-4-10-6-10-6 0-1 6-5 12-11 12-5 0-7-14-3-32zm-900 7c-7-18 14-45 50-64 13-7 20-17 17-26-6-14 30-35 60-35 23 0 13 33-16 49-16 9-26 22-23 31 11 38-75 82-88 45zm194-9c-7-8-9-25-5-40 10-40 84-113 122-121 41-8 42 6 2 48-16 18-30 35-30 39 0 3-18 25-39 47-32 33-41 38-50 27zm-350-69c-5-12-5-30 1-40 12-22 67-57 91-57 10 0 15-4 12-10-9-15 37-11 59 5 21 16 15 43-11 51-21 6-31 12-96 47l-48 27z" transform="matrix(.1 0 0 -.1 -11.906235 153.694641)"/></svg>