<svg height="88.55591pt" preserveAspectRatio="xMidYMid meet" viewBox="0 0 77.844744 88.55591" width="77.844744pt" xmlns="http://www.w3.org/2000/svg"><path d="m598 1675c-105-39-204-119-270-220-38-59-39-61-37-146 2-119 13-180 34-195 26-19 117-45 145-42 24 3 25 1 25-59-1-34-3-65-7-68-3-3-38-7-77-8-65-2-72-4-77-24-7-28 2-43 27-43 10 0 19-7 19-15 0-15 10-19 43-15 10 1 24-3 30-8 12-10 109-19 285-27 81-3 109-1 127 11 12 8 27 14 31 13 33-6 66 33 45 54-6 6-11 21-11 33 0 27-34 41-55 24-28-24-45-4-45 53 0 29-5 58-10 63-19 19 23 42 107 58 97 18 120 30 133 72 14 42 10 126-7 146-8 9-10 19-5 22 14 8-16 92-44 119-13 13-27 33-31 44-9 23-108 113-125 113-7 0-21 8-32 19-46 41-146 53-218 26zm142-100 34-18-23-18c-29-24-22-54 11-43 13 3 27 13 31 20 6 10 13 11 32 2 33-15 32-21-10-52-42-32-45-52-7-59 19-4 32-1 43 12 8 10 25 21 37 25 16 6 24 1 35-21 13-26 13-31-9-65-14-21-29-38-35-38s-8-9-4-20 2-20-4-20-11-4-11-10c0-5 11-10 25-10 29 0 69 35 59 52-4 7-3 8 4 4s12-2 12 3c0 14 27 14 35 1 3-5 0-7-8-5-9 4-13-3-11-25 4-65-14-77-136-85-8-1-31-4-50-8-38-7-238-20-307-20-23 0-56 9-75 20l-33 20 2 79c4 103 25 162 71 192 24 16 38 20 45 13 18-18 137-9 137 10 0 16-32 39-56 39-14 0-22 4-19 10s15 10 26 10 22 7 26 15c7 21 86 14 133-10zm-104-510c4-9 19-15 40-15 41 0 47-25 8-34-20-5-23-10-15-20 7-9 7-16-1-24-13-13 31-27 62-19 13 3 20 0 20-8 0-21-8-23-95-26-76-4-80-3-83 19-2 12-8 22-13 22s-9 5-9 10c0 6 7 10 15 10 21 0 19 12-7 46-13 15-17 25-11 21 7-4 14 1 18 13 8 24 62 28 71 5zm-66 368c-70-12-98-24-96-41 0-9 6-20 11-24 28-21 130 3 138 31 4 18-10 43-22 40-4-1-17-4-31-6zm-86-131c-16-11-24-52-11-53 23-2 82 3 89 7 4 3 2 16-4 29-11 25-49 34-74 17z" transform="matrix(.1 0 0 -.1 -29.02331 168.916056)"/></svg>