<svg height="143.36968pt" preserveAspectRatio="xMidYMid meet" viewBox="0 0 156.577441 143.36968" width="156.577441pt" xmlns="http://www.w3.org/2000/svg"><path d="m895 1793c-40-8-210-67-220-75-5-4-16-8-25-8-8 0-35-18-59-40s-46-40-50-40c-6 0-83-81-118-123-28-34-73-140-93-216-14-55-20-106-18-158 2-56-1-78-11-81-7-2-21-13-30-24s-23-28-32-37c-19-20-53-73-54-84 0-4-5-11-11-15-14-9-16-118-3-185 5-31 17-56 29-64 11-8 20-23 20-34s8-32 17-47c24-37 99-112 112-112 6 0 11-4 11-9 0-13 142-61 180-61 12 0 40-5 61-11 20-7 46-8 56-4 10 5 24 7 31 6 6-1 12 2 12 7s25 21 55 37c65 32 111 76 127 122 7 18 15 33 19 33s10 12 15 28c4 15 8 29 9 32 39 136 20 257-53 350-20 25-37 46-38 48s-46 5-100 8c-55 3-114 9-133 14s-35 8-36 7c0-1-7-15-13-31-8-17-17-25-22-20-7 8 2 62 32 184 6 25 13 59 15 75 7 45 43 115 59 115 8 0 14 5 14 10 0 6 16 18 35 27s32 19 30 23c-10 16 243 26 273 11 9-5 34-17 56-27 21-11 40-25 43-31 3-7 10-13 17-13 6 0 20-13 29-30 10-16 22-30 28-30 5 0 9-7 9-15s4-15 9-15 11-10 15-23c3-12 14-32 26-44 11-12 19-26 18-30s1-19 5-33 13-43 19-65 16-56 23-75c13-37 13-111-1-200-4-30-9-62-9-70-1-8-5-39-9-67-8-50-10-53-37-53-40 0-54-29-35-72 35-78 106-116 106-57 0 15 7 32 15 39s15 19 15 26c0 29 16 12 32-34 22-60 58-96 87-87 26 8 29 51 3 59-10 3-18 14-19 24-1 15 5 18 32 18 19-1 37-5 41-9 17-17 55-6 66 18 7 16 17 24 26 20 7-3 22 0 32 5 26 14 35-4 16-32-9-14-12-29-7-37 5-7 6-22 3-34-4-16-2-19 12-14 10 4 22 7 27 7 16 0 41 62 37 91-3 15-2 26 2 24 3-2 7 16 8 40 1 36-3 47-24 64-23 18-25 27-28 108-4 116-23 269-46 368-10 44-21 99-24 122-4 24-17 67-31 96-13 30-32 76-41 103-12 36-35 67-88 119-118 115-157 147-172 141-8-3-14-1-14 5s-6 9-13 6c-7-2-46 4-87 15-72 18-224 30-265 21zm15-115c12-27 32-61 42-68 3-3 8-14 10-25 2-16-3-20-27-21-42-2-67 6-62 20 3 6-8 31-23 53l-29 42 27 10c41 15 52 13 62-11zm179-15c44-22 49-28 45-52-2-14-6-37-8-50-4-37-27-47-59-26-27 17-36 50-16 57 7 2 7 11 0 28-5 14-10 20-10 13-1-6-10-9-21-6-24 6-63 57-52 67 11 12 68-3 121-31zm81 6c0-5-7-9-15-9-15 0-20 12-9 23 8 8 24-1 24-14zm-380-9c0-5-5-10-11-10-5 0-7 5-4 10 3 6 8 10 11 10 2 0 4-4 4-10zm-21-27c32-29 45-39 64-46 35-13 14-34-30-28-7 1-13-3-13-9s-4-9-9-6c-5 4-21 2-36-4-21-8-31-6-54 11l-29 21-21-21c-26-26-26-31-1-31 11 0 20-7 20-15s-4-15-9-15-22-13-38-30c-23-25-33-29-59-24-23 4-33 2-37-9-3-10-13-13-25-10-38 10-31-15 8-31 22-9 40-18 40-21s-10-27-22-55c-19-44-27-52-62-61-23-6-47-18-53-26-19-24-28-8-14 24 6 15 13 37 16 48 6 30 49 129 67 156 53 80 199 187 271 198 4 0 16-7 26-16zm494-45c18-12 33-22 35-23 5-3-29-63-43-75-7-6-17-25-20-41-8-38-25-37-67 4l-33 32 28 30c15 16 27 37 27 47 0 51 24 60 73 26zm135 1c-2-6-8-10-13-10s-11 4-13 10 4 11 13 11 15-5 13-11zm-8-106c0-7 4-13 8-13 5 0 17-16 28-35 10-19 21-35 25-35 10 0 28-51 34-100 4-25 10-61 14-81 6-24 4-50-5-75-7-21-11-40-9-43 5-4-29-27-57-37-9-3-19-17-22-30-8-32-24-30-32 4-3 15-16 61-28 102-18 59-20 81-12 102 6 16 16 28 22 28 14 0 51 59 60 97 8 32-16 28-31-5-5-11-18-23-28-26-10-2-21-14-24-25-9-36-46-26-71 19-12 23-17 42-11 45 16 10 40 79 36 101-2 12 1 21 7 20 6 0 12 4 13 9 6 33 83 13 83-22zm-905-312c-24-58-24-182-1-226 9-17 16-40 16-51 0-12 9-33 20-47 24-30 25-37 5-37-8 0-15-4-15-9 0-13-58-10-69 3-5 6-11 27-14 46s-15 68-26 109c-13 46-21 104-21 150v76l56 1c47 1 54-1 49-15zm1010-192c-4-34-21-59-39-59s-35-21-29-36c3-8 18-14 34-14 34 0 34-2 13-35-10-15-26-25-40-25-24 0-30-14-18-44 4-10 18-16 35-16 26 0 29-3 29-34 0-19 3-41 6-50 4-10-5-20-25-31-17-8-31-24-31-34 0-23-8-31-25-24-8 2-11 11-8 20 3 8-4 28-17 45-15 20-21 39-18 59 3 17 1 32-3 35-4 2 0 19 9 37 12 23 17 59 17 130 0 95 1 98 22 92 12-3 32-1 45 4 40 17 47 13 43-20zm-1165-38c0-6-4-13-10-16-5-3-10 1-10 9 0 9 5 16 10 16 6 0 10-4 10-9zm510-20c5-11 10-31 10-45s5-28 10-31c6-4 8-10 5-15s-1-20 5-34c7-18 5-37-5-67-8-23-12-45-9-50s0-14-6-21-21-31-34-53c-13-24-30-41-41-41-11-1-29-2-41-3-11-1-21-7-22-13-4-51-7-58-27-58-12 0-25-4-30-9-18-18-100-16-125 2-24 17-24 17-2 17 12 0 29 11 38 25 16 24 16 27-2 40-29 22-44 18-55-15-13-35-27-38-56-11-16 15-23 17-32 8s-11-8-6 4c4 11-3 24-19 36-13 11-26 28-28 39-2 16 4 19 39 22 42 3 42 3 38-27-3-27 0-31 20-31 26 0 67 44 59 64-3 8 16 21 56 35 33 12 60 26 60 32 0 5 5 9 11 9 16 0 119 105 119 122 0 7 8 25 17 38 10 14 17 26 15 28-1 1-2 7-2 12 0 18 29 11 40-9zm-240-37c0-8-4-12-10-9-5 3-10 10-10 16 0 5 5 9 10 9 6 0 10-7 10-16zm808 299c-42-17-54-53-19-53 22 0 71 41 71 59 0 14-7 13-52-6zm-634-389c3-9 6-18 6-21s7 0 15 7c17 14 11 30-12 30-10 0-13-6-9-16zm-40-48c-17-13-18-15-2-21 26-10 52-2 56 18 4 21-26 23-54 3zm3-97c-33-17-36-22-26-40 8-16 17-19 36-14 29 7 55 29 46 39-4 3 4 6 17 6 15 0 20 4 15 9-21 19-52 19-88 0zm322-71c-1-2-2-19-4-38-2-24 4-43 19-61 11-14 28-36 36-48 17-25 36-27 56-7 12 13 11 18-8 39-37 41-48 56-48 67 0 16-46 59-51 48z" transform="matrix(.1 0 0 -.1 -16.214673 179.642216)"/></svg>