<svg height="152.72449pt" preserveAspectRatio="xMidYMid meet" viewBox="0 0 226.547674 152.72449" width="226.547674pt" xmlns="http://www.w3.org/2000/svg"><path d="m1655 1632c-43-21-103-75-146-132-25-34-27-34-51-18-14 9-35 14-47 11s-27-1-34 5c-18 15-126-23-158-56-27-29-70-57-68-45 4 25-3 43-16 43-8 0-15 5-15 10 0 6-11 15-25 20s-25 13-25 17c0 15-99 75-114 70-9-4-32 1-52 9-47 20-119 24-164 10-32-9-110-79-110-98 0-4-17-33-37-64-21-32-49-78-63-103l-25-46-66-2c-69-1-122-21-185-69-34-25-39-47-51-204-9-123-9-134 0-163 11-34 38-41 122-32 45 4 65 3 65-4 0-6 12-17 27-24 45-19 147-128 172-182 13-27 39-81 57-119 44-89 43-100-6-120-22-9-40-20-40-24 0-5-28-21-62-36-99-43-113-51-112-64 1-7 2-28 3-47 2-48 19-45 99 18 85 67 135 96 175 101 49 7 141 33 173 49 16 8 35 12 43 9 7-2 41 3 75 11 33 9 111 23 171 32 61 9 129 21 152 27s46 7 52 4c6-4 31 3 56 14s50 18 55 15c6-4 43 1 83 10 111 25 282 11 347-28 34-21 34-21 10-28-14-4-86-7-161-8-114-1-138-4-143-17-3-8-10-12-16-9-5 3-10 2-10-3 0-9 84-19 233-28 68-4 95-1 122 12 36 17 55 13 55-11 0-11 8-13 33-8 41 7 67 21 67 34 0 10 57 4 90-8 35-13 50-12 68 7 16 17 23 19 50 9 18-6 32-14 32-19 0-4 8-10 18-14 9-3 27-10 39-15 17-8 27-6 43 7l22 17-26 28c-16 17-31 25-41 21-9-4-21 1-29 11-7 10-27 17-49 18-24 1-36 5-33 12 2 7-2 12-10 12-7 0-29 7-49 16-19 9-50 24-69 33-20 9-68 18-113 19-43 2-132 11-198 20s-129 14-141 11c-18-5-22 0-27 31-8 46-4 50 22 24 12-12 27-21 34-21 17 0 67 55 67 74 0 9 9 21 20 28 23 14 26 34 8 41-9 3-5 14 13 33 15 16 32 46 39 67 13 41 28 46 53 19 15-16 15-22 0-67-8-28-24-68-34-90-11-22-19-46-19-52 0-7-11-13-24-13-32 0-46-38-21-56 10-8 22-11 27-8s15 0 23-6c24-20 49-2 73 52 13 29 34 76 48 103 13 28 24 56 24 63 0 18 67 15 100-4 39-23 92-12 130 29 16 18 30 39 30 48 0 8 6 21 13 27 16 17 17 174 1 179-7 2-10 13-7 23 7 25-85 120-115 120-12 0-23 4-27 9-3 6-17 6-35 1-22-6-34-4-49 9-13 12-17 21-10 28 5 5 11 29 14 54 5 48-14 110-51 169-27 43-125 135-167 157-50 25-154 28-202 5zm78-79c8-34 7-82-2-88-12-7 19-65 34-65 6 0 34 14 64 30 30 17 59 30 65 30 9 0 41-52 33-54-1-1-28-14-59-30-57-30-74-48-62-68 8-12 68-2 107 19 33 17 35 16 40-18 7-41-12-69-42-63-21 4-28 0-38-22-18-39-17-57 3-50 45 17 64 18 58 3-3-9-12-18-20-21s-14-12-14-19c0-8-12-20-27-26-35-14-191-22-199-10-3 5-16 9-29 9-12 0-25 6-28 13-3 9-16 12-35 9-24-3-37 2-59 25-25 25-28 36-28 90 1 64 15 91 86 165 15 15 29 34 32 42s28 32 56 53c27 21 48 44 46 51-3 6 0 12 5 12s11-8 13-17zm-963-135c1-22 37-58 58-58 11 0 26 10 34 22 15 23 16 23 52 6 20-10 36-22 36-28 0-5-16-25-35-44-19-20-35-42-35-50s-5-18-10-21c-15-9-181-24-198-18-10 4-12 19-7 57 10 98 16 116 36 116 11 0 19 4 19 9 0 8 16 16 43 20 4 0 7-5 7-11zm567-35c-14-49-17-93-8-93 6 0 25 19 42 43 17 23 38 46 46 51 14 7 15 2 11-38-3-26-13-55-21-64-9-9-19-30-23-46s-15-31-25-33c-11-3-19-11-19-17 0-7-11-23-25-36s-25-20-25-15-6 2-12-7c-7-9-29-19-49-22-31-6-37-3-42 14-6 22-36 27-54 9-7-7-20-9-29-5-15 6-13 10 14 26 49 30 65 63 58 113-6 39-4 46 20 63 15 10 38 29 53 40 41 34 95 44 88 17zm-840-240c-3-10-5-4-5 12 0 17 2 24 5 18 2-7 2-21 0-30zm-85 0c-3-16-12-39-21-52-12-18-12-26-3-29 6-2 12-12 12-22 0-17 2-17 29-4 16 8 36 30 45 49 15 31 19 33 36 22 11-6 20-16 20-20 0-5-21-27-47-50-25-23-62-59-81-80-39-41-84-68-100-58-18 11-23 55-12 101 6 25 11 53 11 63 0 9 4 17 9 17 8 0 23 33 25 53 0 11 46 36 66 37 12 0 15-7 11-27zm1693-30c34-16 46-38 24-45-8-3-9-15-4-36 5-25 12-32 31-32 31 0 32-32 3-61-19-19-28-20-117-14-54 4-98 11-100 16s-9 9-16 9c-18 0-49 37-42 49 3 5 20 12 37 16s52 29 84 61c29 30 56 54 59 54s21-8 41-17zm-1145-29c0-8-4-12-10-9-5 3-10 10-10 16 0 5 5 9 10 9 6 0 10-7 10-16zm-125-2c17-12 59-144 62-197 2-27 7-57 10-65 4-8 8-22 9-30 2-8 7-31 11-50 7-29 9-112 4-167-1-18-21-16-21 1 0 8-7 17-16 20-8 3-13 10-10 15 3 4-8 26-24 47s-30 44-30 50-12 21-26 35c-15 13-32 36-38 50-17 39-97 128-136 151-19 12-37 23-39 25-2 1 7 23 20 47 19 36 29 45 59 50 19 4 55 10 80 15 61 11 73 12 85 3zm215-2c0-5-2-10-4-10-3 0-8 5-11 10-3 6-1 10 4 10 6 0 11-4 11-10zm132-57c41-6 54-31 32-60-7-10-14-33-14-51s-5-42-11-53-12-30-14-41c-7-36-12-31-20 19-4 26-12 51-17 54-11 7-27 77-28 123 0 23 3 27 18 21 9-4 33-9 54-12zm313 3c27-12 35-21 35-40 0-14-5-28-10-31-6-4-10-14-8-23 1-10-5-28-14-42s-19-43-21-64c-4-39-33-74-48-59-5 5-3 28 2 53 6 25 11 84 12 133 1 48 5 87 10 87 4 0 23-7 42-14zm-106-14c7-13 6-23-2-31-7-7-13-33-13-59-1-26-7-72-13-102-14-73-18-186-7-233 8-36 8-37-30-53-55-24-82-25-88-6-13 48-17 102-7 102 6 0 11 10 11 23s6 29 12 35c10 10 10 15-1 21-8 5-12 18-8 30 3 12 2 23-3 26-4 3-3 22 2 42 6 21 11 63 12 93s7 61 14 69c7 7 11 20 8 28-7 16 20 28 69 31 25 2 37-3 44-16zm-386-49c9-27 17-60 17-75 0-16 5-28 10-28 6 0 9-18 7-42-2-25 4-64 15-93 11-30 16-61 12-78-3-15-1-33 4-40 6-7 12-29 13-50 3-36 1-40-29-52l-32-14v34c0 19-5 37-10 40-8 5-8 11 0 20 6 7 8 20 4 29-3 9-3 24 2 34 13 29 10 66-6 85-8 10-16 33-16 52-1 19-5 51-9 72-5 21-7 42-6 47 1 4-2 13-7 20-8 9-10 49-4 79 5 20 20 2 35-40zm677-2c20-19 21-53 3-66-8-6-16-26-18-45s-11-54-19-78c-9-24-14-48-10-53 3-5 1-15-4-22s-10-39-10-71c0-38-5-62-14-67-7-5-41-9-74-9-57 0-62 2-66 24-5 26 8 49 33 58 10 4 20 28 27 65 20 106 29 142 40 156 6 7 18 35 27 62 9 28 18 55 20 62 5 14 44 5 65-16zm-1112-74c2-15 8-27 13-27s40-31 78-70c38-38 73-70 78-70s14-36 19-80c11-76 13-82 53-117 23-21 43-48 44-60 1-13 5-23 9-23s8-5 8-10c0-12-30-24-82-34-34-6-38-5-38 14 0 11 5 20 10 20 15 0 12 16-13 68-41 83-68 127-88 144-10 9-19 20-19 25 0 12-109 123-121 123-5 0-22 11-37 25-25 24-26 27-9 39 9 7 17 16 17 20 0 14 45 46 60 43 8-1 16-15 18-30zm1279 6c10-13 8-19-11-34-13-11-28-19-33-19-10 0-33-43-33-61 0-6-13-21-29-35-24-20-29-31-27-59 2-19 2-35 0-35-1 0-8-2-16-5-10-4-13 12-14 75 0 69 2 81 18 86 10 3 19 14 19 25 2 34 4 37 27 64 19 22 28 25 55 20 18-4 37-14 44-22zm-899-433c17-22 19-30 8-30-12 0-46 40-46 55 0 14 18 2 38-25zm1146-191c-46-17-224-31-224-17 0 10-182 4-199-6-6-4-11-16-11-27 0-17 7-19 74-19 80 0 103-11 58-28-15-6-38-20-52-31l-25-21h40c22 0 52 7 67 14 16 9 30 11 33 5 8-12 26-11 45 1 13 9 12 13-7 29l-23 19 25 6c14 4 45 1 69-5 37-9 50-8 77 5 18 9 42 16 54 16s30 9 40 20c16 17 16 20 2 20-8 0-17 6-19 14-2 9-9 11-24 5z" transform="matrix(.1 0 0 -.1 -19.605619 164.752796)"/></svg>