<svg height="107.072614pt" preserveAspectRatio="xMidYMid meet" viewBox="0 0 77.024951 107.072614" width="77.024951pt" xmlns="http://www.w3.org/2000/svg"><path d="m583 1290c-28-4-64-16-80-27-15-10-45-28-66-38-90-46-153-182-161-343-6-145-1-151 144-194l45-13-1-93c-1-51-5-117-8-146l-7-54-64-7c-77-8-84-15-77-71 1-6 22-20 46-32 36-18 60-22 145-22 76 0 103-3 107-14 4-10 15-11 47-5 58 10 131 14 142 7 12-7 114 8 181 28 57 16 77 47 46 70-9 7-14 16-10 20 15 15-34 36-95 41-34 2-64 6-65 8-14 14-13 132 2 184 9 33 15 65 14 72-2 8 20 21 57 34 76 26 128 87 119 138-3 18-7 52-9 77s-4 47-6 50c-1 3-3 10-4 15-3 18-25 70-35 85-6 8-19 29-30 45-10 17-24 35-29 42-6 7-11 17-11 22s-9 13-20 16-20 11-20 16-7 9-16 9c-8 0-13 4-10 9 8 12-27 34-97 59-60 23-87 25-174 12zm135-93c18-12 15-39-5-36-23 4-63-10-63-21 0-4-9-10-20-13-13-3-18-11-14-20 8-22 36-30 46-14 4 8 22 20 40 27s48 19 65 28c31 15 34 15 60-4 16-12 29-28 31-36 3-16-65-66-113-84-18-6-31-19-33-32-3-18 1-21 31-19 32 2 76 25 105 54 17 17 40 17 58-1 18-19 18-30-1-22-9 3-15 0-15-9 0-8-7-15-15-15-9 0-20-12-26-27-7-16-13-23-16-15-6 17-32 15-39-3-4-8-12-15-20-15-17 0-38-37-25-45 13-7 95 21 99 35 2 5 10 10 18 10 21 0 54 32 54 52 0 29 17 21 29-13 17-50 14-120-6-135-26-19-30-17-37 17-3 17-10 28-15 24-6-3-8-11-5-18 5-13-59-21-153-20-29 1-53-1-53-4s12-17 28-30l27-25-79 7c-72 6-115 18-173 47-17 8-26 8-36 0-17-15-72 10-87 38-11 20-2 137 10 145 4 3 33 0 63-6 49-10 58-9 81 7 23 17 38 43 17 30-5-3-11 3-14 14-4 15-14 20-44 22-53 2-58 2-61 11-10 23 8 30 66 28l62-2-5 40c-3 29-1 42 10 48 18 10 156 10 173 0zm152-414c0-7-9-13-20-13-17 0-18 3-8 25 8 19 14 22 20 13 4-7 8-19 8-25zm-173-153c24 0 43-4 43-10 0-5-4-10-10-10-14 0-1-102 16-121 8-8 14-27 14-41 0-25-3-26-57-30-63-4-83 4-83 33 0 11-4 28-10 39-5 11-15 29-20 40-6 11-7 38-4 60 5 30 11 40 25 40 11 0 19 5 19 12 0 9 3 9 12 0 7-7 31-12 55-12zm-306 316c-16-19-3-48 20-41 10 3 27 0 37-6 16-10 23-9 37 5 16 16 16 18 0 36-21 23-77 27-94 6z" transform="matrix(.1 0 0 -.1 -27.465776 129.783278)"/></svg>