<svg height="159.785965pt" preserveAspectRatio="xMidYMid meet" viewBox="0 0 137.237838 159.785965" width="137.237838pt" xmlns="http://www.w3.org/2000/svg"><path d="m1141 1806c-47-7-87-18-89-24s-21-22-43-34c-28-16-54-45-86-95-44-72-58-84-65-62-4 13-136 38-203 39-45 0-212-47-236-67-8-7-20-13-26-13-27 0-123-136-123-175 0-17-6-39-14-50-9-14-13-44-12-95 2-41-2-83-7-94-6-13-5-21 3-26 7-4 9-13 6-19-4-6 0-34 9-60 14-43 23-53 65-75 55-29 90-32 121-13 18 11 23 8 44-18 14-16 28-41 33-55s15-41 21-60c29-81 82-319 82-365 1-82-1-101-9-90-4 6-18 16-32 23-22 11-30 11-55-2-39-20-48-20-69 3-17 19-79 27-101 13-5-4-26-12-45-17-39-12-47-38-12-43 12-2 22-8 22-13s22-7 53-3c45 5 55 3 71-15 22-24 75-28 106-9 17 11 24 8 60-32l40-44 34 17c19 9 37 25 41 36 7 22 49 29 60 11 11-19 61-11 84 14 20 21 26 22 72 14 31-6 68-6 94 0 37 8 54 5 112-18 53-20 74-24 91-17 12 6 22 14 22 18 0 5 12 8 28 8 62-1 82 4 82 18 0 12 9 14 48 8 32-4 58-1 82 9l35 14-25 10c-102 41-129 50-162 56-20 4-39 3-41-2-3-4-18-7-34-6-15 1-34 3-40 3-16 1-17 37-3 46 8 5 7 11-1 21s-9 46-4 126c4 62 9 131 10 153 2 36 5 40 26 37 13-1 37-12 52-23 27-20 29-20 55-3 40 25 82 66 82 80 0 7 5 14 11 16 5 2 11 10 13 18 1 8 19 49 39 91s42 99 48 127c6 29 19 75 29 103 11 29 17 55 15 59-8 12-18 94-17 130 2 52-16 107-49 152-16 23-29 49-29 59s-10 26-23 36c-12 10-35 39-51 64-23 37-42 52-95 77-88 40-101 42-200 28zm199-167c45-24 73-71 74-127 1-46-29-65-97-59-26 2-50 0-53-4-3-5-14-4-24 1-11 6-23 9-27 9-13-3-63 20-79 36-13 12-10 19 20 52 19 21 50 45 70 53 20 7 36 19 36 26 0 10 24 32 37 34 1 0 21-9 43-21zm-720-146c-1-17-27-40-60-52-19-8-54-23-77-34-24-11-46-18-49-14-10 10 29 53 71 80 37 24 115 37 115 20zm100-44c0-8 4-8 14 0 11 10 46 6 46-5 0-2-9-27-21-56-15-38-21-74-21-131 1-72 0-76-18-67-14 8-42 4-107-15-48-14-92-30-97-35-6-6-19-10-31-10s-25-4-31-9c-5-5-23-12-40-15-30-7-32-5-37 26-6 37 1 142 11 178 1 3 35 17 75 30 39 14 74 28 75 33 2 4 11 7 19 7 19 0 81 36 106 62 20 20 57 24 57 7zm367-8c-10-12-8-14 11-9 12 4 22 2 22-2 0-11 187-54 224-52 15 1 34 7 42 13 20 17 44 3 44-25 0-20 4-24 18-20 12 4 13 3 4-3-7-6-13-31-14-59 0-27-4-59-9-70-4-13-3-26 4-33 9-9 9-14 0-19-10-7-31-48-39-77-1-5-9-27-18-47-20-46-39-52-142-44-64 5-81 10-102 31-18 18-31 23-48 19s-26-1-30 10c-3 9-10 16-16 16-5 0-19 10-31 23-13 12-33 29-46 37-25 17-25 13 6 150 4 14 6 35 6 47l-1 21 45-19c25-10 48-17 53-14 4 3 13-2 20-10s21-15 32-15c10 0 17-4 14-9-6-8 62-41 85-41 5 0 23-10 38-21 16-12 35-19 43-17 7 3 23 2 34-3 16-5 28-2 43 12 38 35 24 51-64 70-33 7-65 16-72 22-7 5-17 6-23 2s-37 5-68 20-76 37-99 47c-47 23-61 44-33 53 10 3 21 12 24 20 3 9 16 14 30 13 21-2 23-5 13-17zm-308-401c4 0 5-16 3-35-5-42 14-95 34-95 8 0 22-13 32-28 9-16 23-27 31-24 11 4 12-1 5-24-5-16-9-68-9-116 0-49-3-88-7-88-18 0-23 6-20 23 2 10-1 24-6 30-5 7-9 23-8 37s0 30-3 35c-3 6-6 17-8 25-6 43-28 90-42 90-11 0-13 3-4 8 10 6 9 13-1 33-13 25-36 108-36 129 0 7 7 9 16 6s19-6 23-6zm-134-36c14-9 25-21 25-28 0-6 11-32 24-57s32-78 40-119c23-104 22-102 40-144 9-21 16-46 16-55s11-37 25-63c32-60 36-132 9-153-25-19-69-19-88 1-19 18-21 34-5 34 7 0 9 17 4 53-4 28-8 70-9 92-1 34-4 40-21 37-15-2-17 0-6 6 14 10 18 73 5 94-4 7-9 19-10 28-15 141-16 145-52 197-21 29-43 53-49 53-16 0-17 12-1 28s24 15 53-4zm-42-137c-9-15-21 4-15 25 5 21 6 21 12 2 4-10 5-22 3-27zm27-52c0-8-4-15-9-15s-11 7-15 15c-3 9 0 15 9 15 8 0 15-7 15-15zm436-23c1-17 17-119 21-137 2-11 4-62 5-114 0-83 2-94 19-98 23-6 25-41 3-50-8-3-27 0-41 6-18 8-29 9-38 1-8-6-31-10-52-8-31 2-39 7-41 26-2 13 4 32 14 43 9 10 18 36 20 56 6 67 14 111 24 138 8 21 12 24 24 13 10-10 11-20 3-41-6-19-6-32 1-39 13-13 26 90 17 142-7 40 2 87 13 75 4-4 7-10 8-13zm289-452c-5-8-11-8-17-2s-7 16-3 22c5 8 11 8 17 2s7-16 3-22zm-755 950c-30-16-66-31-80-34-38-9-54-22-47-40 8-20 62-21 97-1 14 8 35 14 47 15 28 0 73 38 73 61 0 13-23 33-33 28-1 0-27-13-57-29zm375-69c-7-13 23-41 62-58 18-7 33-18 33-24s7-9 15-5c9 3 15 0 15-9 0-8 7-15 15-15s34-8 58-19c89-39 167-44 167-12 0 22-85 53-120 44-14-4-20-1-18 8s-17 20-50 32c-30 9-69 29-86 42-33 25-80 33-91 16z" transform="matrix(.1 0 0 -.1 -23.309719 181.400611)"/></svg>