<svg height="113.515188pt" preserveAspectRatio="xMidYMid meet" viewBox="0 0 70.129641 113.515188" width="70.129641pt" xmlns="http://www.w3.org/2000/svg"><path d="m753 1853c-48-27-101-100-123-170-17-56-35-237-32-333 7-263 20-301 104-304 54-2 67-10 52-33-10-16 16-154 36-194 5-10 4-21-2-27-7-7-2-18 18-37 25-23 34-26 69-20 22 3 74 10 116 14 110 12 159 53 140 117-6 22-5 36 2 44 9 8 6 16-13 30-14 11-19 20-11 20 10 0 12 11 8 43-2 23-6 48-8 55-2 8 3 17 11 22 30 16 75 33 82 32 4-1 26 8 50 21 42 22 43 24 46 77 5 79-15 246-34 281-8 17-13 37-10 45s-3 23-14 34-20 25-20 30c0 6-5 10-11 10s-9 6-6 14-1 20-9 26c-8 7-14 18-14 25 0 6-10 20-21 31-12 10-25 29-30 41-10 26-112 97-154 107-16 4-66 9-110 12-64 4-86 1-112-13zm167-108c7-8 22-15 34-15 27 0 136-95 136-119 0-9 4-21 8-27 12-13 70-157 76-185 19-105 30-150 38-155 14-9-12-34-36-34-32 0-116-30-116-42 0-5-9-7-19-3-11 3-22 1-26-5-4-7-11-8-18-2s-30 10-52 11-51 2-65 2c-14 1-52 0-85-2-57-4-60-3-74 25-9 20-14 70-15 155-1 178 3 229 26 289 20 51 23 54 51 48 37-7 107 29 107 56 0 22 13 23 30 3zm70-629c0-11-19-15-25-6-3 5 1 10 9 10 9 0 16-2 16-4zm23-64c25-3 21-27-9-51-14-11-23-25-20-30 4-5 2-12-4-16-18-11 0-25 34-25 30 0 34-4 38-30 4-27 1-31-31-40-45-12-121-13-140-1-12 8-12 19-3 67 7 31 12 74 12 94v38l53-3c28-1 60-2 70-3zm-128 585c-24-18-42-23-88-22-53 1-58-1-64-23-8-35 9-45 79-44 71 0 118 14 118 36 0 8 13 17 29 21 28 6 48 30 33 39-4 2-23 7-42 10-28 5-41 2-65-17zm110-148c-48-17-146-19-197-3-12 3-18-3-23-25-9-40-3-47 49-60 56-14 103-14 111-1 3 6 16 8 28 5 26-5 126 42 141 68 8 13 7 20-4 27-21 13-46 11-105-11zm105-156c-44-19-139-33-259-38-51-2-95-5-97-7-2-3-5-15-6-29-3-23-1-24 57-24 87-1 223 13 278 27 45 11 62 26 91 76 10 16-20 14-64-5z" transform="matrix(.1 0 0 -.1 -59.747878 186.74413)"/></svg>