<svg height="139.482373pt" preserveAspectRatio="xMidYMid meet" viewBox="0 0 124.609553 139.482373" width="124.609553pt" xmlns="http://www.w3.org/2000/svg"><path d="m690 1633c-29-4-100-29-150-51-51-23-149-111-170-152-32-62-43-142-27-186 8-22 22-66 32-99 21-74 25-87 56-150 43-89 91-114 227-118 23-1 42-2 42-2 3-3 23-204 24-240l1-50-55-1c-31-1-56-6-58-13-5-14-32-15-32-1 0 13-47 13-55 1-5-9-79-15-160-12-22 1-50-1-62-4-26-6-31-25-8-25 13 0 14-4 5-20-8-15-8-20 2-21 36-3 185 3 201 7 13 4 20-1 24-16 5-19 10-21 47-15 23 3 56 6 74 6 26 0 32 4 32 22s2 19 10 7c5-8 22-16 37-16 15-1 54-5 87-8 32-3 63-3 70 1 14 9 137 4 191-7 22-5 58-5 80-1s66 3 98-1c36-5 76-4 105 3 26 7 69 12 96 13 28 1 51 7 54 14 2 7 9 9 15 6 7-4 3 3-9 15-22 24-44 27-209 36-49 2-110 7-135 11s-59 7-77 8c-17 0-35 5-39 9-8 7-13 111-18 331l-1 69 65 13c52 11 72 21 97 48 30 32 33 41 38 115 3 44 1 91-4 104-6 16-6 38 0 60 9 34 7 37-41 87-27 28-50 56-50 61 0 37-101 119-146 119-10 0-25 7-33 15-9 8-34 17-56 20-55 9-184 14-215 8zm245-293c3-5 16-10 28-10 29 0 45-28 39-68-4-27-8-32-25-26-15 5-19 3-14-10 3-8 2-18-2-21-5-2-12-30-16-60-4-38-11-55-21-55-8 0-14-4-14-9 0-19-53-59-86-66-49-9-38-30 17-30 41 0 44-2 43-25-1-14 2-27 7-30 4-3 10-46 14-95 3-50 15-125 26-169 11-43 18-80 15-83-2-2-35-1-72 4l-68 8-3 55c-4 53-15 142-28 225-3 22-14 57-25 78-11 20-17 37-14 37 2 0 0 8-5 19-12 22-3 35 15 20 21-17 54-1 54 27 0 13 5 24 10 24 6 0 10-4 10-10 0-5 9-10 20-10s20 7 20 15 5 15 11 15c18 0 2 128-21 173-24 46-12 74 35 80 16 2 33 5 37 5 4 1 10-2 13-8zm-156-62c24-70 26-103 9-114-6-4-8-3-5 3 4 6 0 14-9 17-8 3-12 10-9 16 9 15-44 60-71 60-13 0-24-4-24-10 0-5 5-10 10-10 6 0 10-6 10-14 0-7 6-19 14-25 8-7 15-20 15-29s2-28 3-42c6-53-68 0-127 92-13 20-29 39-35 43-15 9 42 45 73 46 12 0 42 6 67 13 25 8 48 14 52 15 3 0 16-27 27-61zm-230-67c6-10 8-21 5-23-2-3 12-20 33-38 47-42 67-76 48-84-7-2-16 2-19 10-6 16-106 21-106 5s55-50 104-63c28-7 46-18 46-27 0-8 8-23 18-34 16-20 16-20-3-13-10 4-45 15-77 24s-58 21-58 25c0 5-14 26-31 47-22 27-32 51-33 79-1 23 1 41 4 41s14 16 23 35c19 39 32 44 46 16zm555 2c4-5 18-8 29-8 17 0 22-6 24-30 3-66-36-105-105-105-19 0-21 4-16 28 4 15 13 36 20 47 8 11 14 32 14 47 0 27 17 37 34 21zm-262-804c3-8 33-12 86-12 45 0 82-3 82-7 0-12 93-6 97 6 2 7-6 12-19 12s-74 2-136 6c-84 5-113 3-110-5zm399 2c-7-4-34-6-62-3-39 4-49 2-49-11 0-20 31-27 120-26 51 0 69 3 55 9-11 5-14 9-7 9 6 1 12 6 12 12 0 5-8 9-17 7-10-1-23 0-28 4-6 4-17 3-24-1zm-576-12c-10-15 0-21 27-17l23 3-22 13c-15 8-24 9-28 1zm62-5c2-7 11-10 19-7 19 7 18 10-5 16-13 3-18 1-14-9zm48 6c3-5 17-10 31-10 13 0 24 5 24 10 0 6-14 10-31 10s-28-4-24-10zm140-51c-3-4-12-6-20-2-9 3-23-1-32-8-13-11-17-11-20-1-5 14-43 17-43 3 0-15 32-24 103-28 51-3 67 0 61 8-5 8-1 10 13 7 20-5 52 6 43 15-10 9-101 14-105 6zm-162-14c-3-9-3-19 1-22 7-7 36 16 36 28 0 15-30 10-37-6zm172-55c-11-4-24-5-29-2-4 2-12-2-17-9-11-18 11-31 29-17 10 9 16 8 22-2 11-19 23-7 18 18-2 15-8 17-23 12zm-97-37c7-3 16-2 19 1 4 3-2 6-13 5-11 0-14-3-6-6z" transform="matrix(.1 0 0 -.1 -28.027158 163.55093)"/></svg>