<svg height="111.26158pt" preserveAspectRatio="xMidYMid meet" viewBox="0 0 162.846319 111.26158" width="162.846319pt" xmlns="http://www.w3.org/2000/svg"><path d="m1285 1338c-16-6-37-17-46-24-8-8-23-14-32-14-24 0-217-196-217-220 0-10-6-23-14-27s-16-24-19-43-8-42-11-50c-5-11 6-20 35-33l42-18-24-27c-13-15-28-29-32-30-4-2-2-11 5-20 11-13 11-14-2-10-8 3-27-1-41-10-25-14-29-13-59 8-18 12-50 40-71 62-32 33-38 44-33 66 4 15 10 32 14 37 5 6 11 26 15 46 5 28 3 38-9 42-9 4-16 13-16 22 0 29-117 132-177 156-111 43-273 21-330-45-54-62-77-109-89-184-13-78-21-117-25-117-15 0 6-186 27-226 10-20 10-29 1-38-8-8-7-11 6-11 9 0 20-8 26-17 7-14 12-15 23-5 8 6 18 9 21 6 3-4 21 0 39 9 168 79 168 79 209 3 13-26 27-46 31-46 5 0 8-9 8-20s9-29 20-40 17-20 13-20c-5 0-1-5 7-10 10-7 11-10 2-10-17 0-5-47 20-79 10-13 18-29 18-36 0-17 50-24 147-21 74 3 84 6 111 32 31 30 82 119 82 142 0 8 15 31 33 53 19 21 42 56 53 76 10 21 27 44 37 51 9 7 17 19 17 26 0 14 58 76 70 76 5 0 15 6 23 14 11 12 22 12 56 4 22-6 41-14 41-17 0-4-16-23-36-42-19-18-56-65-81-104-26-38-49-72-53-75-11-7-68-105-106-182-30-60-38-68-69-74-19-3-48-4-65-2-16 2-26 0-23-5s-3-7-13-3c-11 3-48 5-84 6-56 0-80-2-122-9-5 0-8-8-8-16 0-13-3-12-19 2-11 9-42 18-72 20-43 3-50 1-45-12s2-14-22-1c-15 8-52 15-82 17-50 4-55 2-55-16 0-13 8-21 22-23 13-2 23-7 23-11s16-13 36-20c30-11 38-11 46 0 7 11 11 11 15 2 6-17 53-17 53 0 0 8 3 8 9-2 6-9 31-15 68-17 78-3 144 6 136 19-4 7 2 8 18 2 23-7 74-8 407-5 141 2 154 3 172 23 11 11 20 24 20 27 0 4-32 10-71 14-39 3-75 8-79 11-10 6 26 137 52 188 5 10 6 22 3 27-3 4-1 10 3 12 5 1 15 17 23 33 16 35 15 34 217 38l133 2 27 33c15 18 33 32 40 32 6 0 12 5 12 11 0 5 5 7 11 3 9-5 10 1 5 20-4 18-3 25 3 21 12-7 17 14 27 110 11 97 8 140-13 210-18 61-67 145-84 145-5 0-9 6-9 14 0 20-65 68-128 95-61 25-197 36-247 19zm80-140c8-26 13-110 5-99-5 9-9 9-13-3-4-9-2-16 3-16 17 0 11-26-10-50-12-13-18-30-15-37 3-9 0-11-7-7-7 5-9-1-5-18 4-14 1-32-6-42-12-17-15-16-38 8-13 14-28 26-32 26s-17 8-28 19c-15 14-18 23-10 42 5 14 16 31 25 38s16 24 16 37 5 24 10 24c6 0 10 7 10 15 0 28 42 75 67 75 13 0 25-6 28-12zm141-93c19-70 18-99-1-203-8-46-18-58-37-45-7 4-29 13-48 19-32 9-35 13-32 45 1 19 11 52 21 74 24 50 42 125 30 125-5 0-9-5-9-12 0-6-3-8-7-5-3 4 2 16 12 27 9 10 15 26 12 34-8 19 14 27 31 11 7-6 20-38 28-70zm128 15c18-17 38-48 44-69 25-80 8-224-28-246-37-23-108 36-82 67 5 7 9 32 8 55s1 40 5 38c8-6 19 96 11 109-8 14-8 76 1 76 4 0 22-14 41-30zm-1125-11c17-17 31-36 31-42s8-20 19-31c27-30 42-81 28-95-6-6-8-11-3-11 4 0-5-11-19-24l-26-24-22 21c-12 12-19 23-14 25 15 7 6 22-13 22-16 0-19 5-14 24 3 13 1 27-5 31-6 3-9 11-6 16 4 5 1 9-5 9s-14 8-17 18c-4 9-17 31-30 48-27 36-22 44 28 44 29 0 45-7 68-31zm686-10c-9-39-13-62-14-71-2-17-22-6-31 16-5 13-14 26-20 28-18 6-1 34 28 45 41 17 44 15 37-18zm-825-28c0-8 7-11 19-8 14 3 18 1 14-10-7-17 17-64 29-57 4 3 8-2 8-12 0-12 3-14 13-6 9 8 12-2 11-47-2-76-14-96-76-119-47-18-54-18-89-4-41 16-56 45-58 110 0 17-1 38-1 45-1 25 14 72 27 85 7 7 13 19 13 27 0 19 51 34 73 21 9-6 17-17 17-25zm290 7c11-18 20-40 20-49 0-22-37-59-60-59-17 0-17 2 5 26 14 15 21 32 18 38-4 6-6 18-5 28 2 9-2 19-8 23-13 8-13 25 0 25 6 0 19-15 30-32zm-213-64c-3-3-12-4-19-1-8 3-5 6 6 6 11 1 17-2 13-5zm256-253c6-16 21-35 34-42s22-17 20-23 6-24 19-39c22-27 23-30 8-53-9-13-13-24-9-24 5 0 0-9-10-20s-14-20-10-20 1-8-7-17c-9-10-19-28-22-40-10-31-34-29-42 4-4 15-13 38-20 52-8 14-14 31-14 37s-6 17-14 24c-8 6-12 18-9 26s1 14-4 14c-12 0-33 68-29 94 3 18 58 55 84 56 8 0 19-13 25-29zm121 14c16-12 17-18 7-28s-15-8-27 7c-26 36-15 47 20 21zm596-50c0-8-4-15-10-15-5 0-7 7-4 15 4 8 8 15 10 15s4-7 4-15zm55-15c8-13-15-13-35 0-12 8-11 10 7 10 12 0 25-4 28-10zm-380-360c0-8-8-16-17-18-13-2-18 3-18 18s5 20 18 18c9-2 17-10 17-18zm-775 603c0-10 4-24 9-32 7-11 12-9 22 10 12 23 11 23-6 9s-18-13-13 8c4 12 2 22-3 22s-9-8-9-17zm20-78c0-14 5-25 10-25 6 0 10 11 10 25s-4 25-10 25c-5 0-10-11-10-25z" transform="matrix(.1 0 0 -.1 -14.391734 134.607903)"/></svg>