<svg height="134.964083pt" preserveAspectRatio="xMidYMid meet" viewBox="0 0 48.784427 134.964083" width="48.784427pt" xmlns="http://www.w3.org/2000/svg"><path d="m442 1550c-24-22-54-64-68-97-27-61-65-167-68-193-1-8-8-33-16-55-15-45-20-485-7-567 10-59 31-73 107-73h55l6-100c6-104 40-225 62-225 7 1 23 7 37 14 22 13 26 25 37 112 8 63 9 103 3 115-6 10-10 34-10 55v37l48-6c59-7 102 15 102 53 0 14 6 37 14 52 8 14 14 48 15 75 6 298 6 368-1 433-4 41-8 103-7 138 0 35-5 70-11 77-6 8-13 26-14 40-2 14-11 34-20 44-9 9-16 22-16 27 0 15-70 66-84 61-6-3-23 1-37 9-44 25-81 17-127-26zm88-38c0-13-12-22-22-16s-1 24 13 24c5 0 9-4 9-8z" transform="matrix(.1 0 0 -.1 -27.54826 158.99923)"/></svg>