<svg height="118.890977pt" preserveAspectRatio="xMidYMid meet" viewBox="0 0 106.392958 118.890977" width="106.392958pt" xmlns="http://www.w3.org/2000/svg"><path d="m810 1413c-20-25-21-36-15-98 7-80 33-185 46-185 5 0 9-5 9-11 0-5 14-27 30-48 25-30 32-50 37-104 8-86-13-145-73-208-25-25-42-48-38-51 3-4-4-12-16-18-24-13-50 1-50 27 0 8-13 22-30 31-16 9-30 23-30 30 0 6-6 12-12 12-23 0-103 104-118 150-11 37-17 165-8 196 4 15-12 108-25 139-28 73-111 110-141 63-17-27-43-102-48-138-3-22-8-25-48-28-66-4-137-42-123-66 4-6 6-23 4-38-2-20 2-28 14-28 19 0 79-30 131-65 20-14 39-23 42-20 3 2 11-3 18-13 11-16 61-21 104-11 11 3 15-6 15-36 1-41 19-85 35-85 6 0 10-4 10-9 0-12 45-57 91-92 32-24 84-110 81-133-2-21-8-41-19-61-18-34-23-84-11-109 8-20 7-28-6-41-19-20-19-15-1-59 17-40 37-46 61-17 14 16 21 17 50 8 47-14 56-2 61 82 3 67 2 71-18 71-12 0-23-8-26-20-10-40-21-19-20 37 2 35 7 58 15 61 7 2 10 8 7 13-3 4 3 14 15 21 11 7 20 18 20 25s5 13 10 13c6 0 10 6 10 13s14 21 30 30c17 10 30 27 30 38 0 10 4 19 10 19 14 0 82 151 75 168-3 8 0 21 7 29 7 9 12 47 12 92 1 75 13 111 38 111 13 0 78 49 105 80 13 14 23 33 23 42 0 10 10 22 21 29 19 9 21 18 17 60-12 117-94 99-191-40l-30-44-18 24c-9 13-17 26-16 29 6 17-49 120-69 131-13 7-24 16-24 21 0 19-40 6-60-19zm-295-984c-18-28 22-134 55-144 34-11 40 3 20 48-11 23-20 49-20 58 0 21-46 53-55 38zm349-52c-9-35-7-45 7-61 10-10 15-25 12-33-4-11 0-14 18-11 20 2 24 9 24 38 1 58-21 109-46 110-3 0-10-19-15-43zm-551 21c-18-6-33-17-33-24 0-23 31-44 65-44 19 0 37-5 40-11 4-6 13-8 21-5s11 0 8-9c-7-18 31-29 53-16 10 6 13 11 6 11s-10 7-7 15c7 18-12 20-20 3-3-7-3-3 0 10 3 12 1 22-5 22-5 0-12 9-16 19-3 11-20 24-37 30-35 12-32 13-75-1zm717-23c-7-8-9-15-4-15s1-5-8-11c-10-5-18-16-18-24 0-7-7-21-16-30-15-15-15-18-1-32 14-15 18-15 40 0 18 11 27 29 32 63 7 51-4 74-25 49z" transform="matrix(.1 0 0 -.1 -15.543413 144.084641)"/></svg>