<svg height="132.496234pt" preserveAspectRatio="xMidYMid meet" viewBox="0 0 114.57672 132.496234" width="114.57672pt" xmlns="http://www.w3.org/2000/svg"><path d="m734 1459c-39-4-80-11-90-17-10-5-44-15-74-22-165-37-272-163-305-355-14-89-14-119 0-223 11-72 43-104 104-102 26 1 48 1 51 0 14-5 60-12 106-17l51-5 1-81c1-45 6-103 13-130 6-26 9-50 6-53s-36-6-73-5c-37 0-74-5-81-11-23-19-15-46 15-52 74-16 178-21 214-10 9 3 19 0 23-6s20-8 40-4c47 9 108 12 119 6 24-13 233 9 296 31 19 6 39 18 43 24 4 7 13 13 20 13s23 9 37 20c19 15 21 20 8 20-9 0-18-5-20-10-2-7-29-6-80 4-42 8-85 12-97 9-17-4-21-1-23 18-3 48-5 76-12 145-6 62-5 72 13 88 28 25 88 45 139 46 28 0 45 5 48 15 4 8 16 15 28 15 11 0 34 9 50 19 17 11 33 18 37 16 11-7 59 61 59 83 0 11-6 25-14 31-10 9-14 27-11 62 3 43-1 55-36 108-21 32-39 65-39 72-1 19-24 49-39 49-6 0-11 6-11 13 0 25-59 73-149 120-50 27-91 46-91 42 0-3-10 0-22 6-57 31-135 39-254 28zm127-99c10-6 19-20 19-32s9-31 19-42c31-35 61-99 61-133 0-17 5-35 10-38 6-4 8-11 5-16-4-5-2-9 2-9 11 0 20-135 14-216-1-27-39-44-96-44-53 0-54 3-51 123 2 51-1 87-7 87-5 0-5 6 2 14 6 7 9 26 6 42s-7 49-9 74c-3 25-5 45-6 45s-3 16-6 35c-2 19-7 42-11 50-3 8-7 21-9 28-1 8-11 20-21 28-16 12-14 13 20 14 21 0 47-5 58-10zm-205-15c9-22-23-65-48-65-20 0-20-1-3-20s17-20-9-30c-15-5-36-10-47-10-32 0-14 49 36 98 47 45 62 51 71 27zm94-25c0-5-7-10-16-10-8 0-12 5-9 10 3 6 10 10 16 10 5 0 9-4 9-10zm-308-82c-10-18-17-41-14-52 2-10-4-35-14-56-14-29-24-37-46-38-33-1-34 9-8 63 11 22 19 44 20 48 0 12 75 83 78 75 2-5-5-23-16-40zm325 14c1-15 4-48 7-73 2-25 6-110 8-188 3-158 0-166-59-157-18 3-35 0-38-5-19-30-34 9-37 99 0 28-5 52-10 52-4 0-8 4-8 10 0 5 6 7 13 5 8-4 12 5 13 22 1 58 14 125 41 218 9 27 51 61 62 49 3-2 6-17 8-32zm298-14c14-13 27-33 28-45 1-13 8-23 17-23 8 0 21-12 28-28 12-25 10-29-13-49-40-35-29-63 25-63 20 0 30-19 30-55 0-27-26-45-63-45-14 0-28-7-31-16-8-21 1-34 19-27 8 3 15 0 15-6s-13-11-29-11c-33 0-35 5-46 160-8 105-11 119-29 169-9 24-16 47-16 52 0 17 39 9 65-13zm-473-60c29 1 46-27 31-50-4-7-9-26-10-43-1-16-6-61-12-99-5-38-8-78-5-90 6-35-5-56-32-56-13 0-24-5-24-11 0-5-10-3-22 5-12 9-35 16-50 16-32 0-34 6-13 34 17 22 20 40 6 31-6-3-11 19-13 52-2 44 1 62 14 75 10 10 17 31 16 50-1 18 7 48 16 66 15 30 21 33 44 26 15-4 39-7 54-6zm663-58c4-12 15-29 26-39 17-16 23-38 32-115 1-13-6-22-23-27-14-4-19-7-12-8 24-2 12-21-14-21-21 0-24 4-19 20 3 10 1 28-4 39-6 10-12 42-15 69-2 27-7 55-10 61-4 6-1 11 8 11 10 0 13 6 10 15-4 8-1 15 4 15 6 0 14-9 17-20zm-871-63c14-16 14-47-2-74-6-12-12-28-12-36s-9-17-20-20c-16-4-21 1-26 32-3 20-8 44-11 54-2 9 1 17 7 17 8 0 10 10 7 26-4 23-2 25 20 19 14-3 30-11 37-18zm-17-154c-4-3-2-12 4-19 7-8 6-14-2-20-7-4-18 1-25 11-15 21-10 35 13 35 9 0 13-3 10-7zm390-224c7-35 38-51 93-48 59 3 60 2 60-50 0-28 5-53 10-56 6-3 10-15 10-27 0-20-3-20-127-13-71 3-130 9-133 12-5 5-38 169-39 196-1 14 8 17 59 17 60 0 61 0 67-31zm530-186c-14-13-6-33 13-33 11 0 20 5 20 10 0 6 3 9 8 8 4 0 18 4 32 10 24 10 23 11-12 11-21 1-38-3-38-9 0-5-5-10-11-10-5 0-7 5-4 10 7 11 2 13-8 3zm-132-145c-27-6-69-16-93-23-26-7-45-9-48-3-7 11-161 0-188-14-12-7-22-6-29 1-6 6-16 7-27 1-9-5-43-7-75-5-33 2-67-1-77-6-20-11-24-49-5-50 49-3 126-1 136 5 6 4 19 2 30-3 34-19 323 0 376 24 16 7 40 16 53 20 12 3 22 13 22 22 0 12 3 13 14 4s15-8 20 5c14 35-12 40-109 22zm-205-139c-14-6-53-8-92-4-57 6-68 5-68-8 0-9 9-19 20-22s26-12 33-20c16-16 79-21 128-11 43 9 73 51 49 66-19 12-38 12-70-1zm40-38c0-5-7-12-16-15-14-5-15-4-4 9 14 17 20 19 20 6z" transform="matrix(.1 0 0 -.1 -25.42328 146.363382)"/></svg>