<svg height="100.39163pt" preserveAspectRatio="xMidYMid meet" viewBox="0 0 96.83189 100.39163" width="96.83189pt" xmlns="http://www.w3.org/2000/svg"><path d="m630 1146c-30-6-61-15-68-19-6-5-22-14-35-20-117-64-139-82-187-148-27-38-50-71-50-74s-14-24-30-47c-17-23-30-51-28-63 1-11-1-26-6-33-4-7-4-27 0-45 4-17 7-36 6-41-2-4 2-14 8-21s8-20 4-29c-3-9-3-24 2-33 4-10 8-21 8-25 3-25 139-99 154-84 2 3 14 0 26-6 11-7 24-11 29-10 6 2 8-9 12-93 1-16 5-40 9-52 6-19 2-25-21-35-15-6-48-12-73-13-67-2-92-13-88-38 1-12-1-27-5-34-9-14 25-35 45-28 7 2 67 7 133 9 66 3 170 8 230 10 61 3 172 8 249 11 140 5 143 6 204 51 2 1 1 12-3 23-7 24-70 40-88 22-12-12-31-15-24-3 3 4-23 7-56 7h-62v77 78l35 6c41 7 99 32 117 50 7 7 16 14 21 16 20 8 89 141 93 180s-21 134-41 156c-11 12-20 26-20 31 0 6-8 14-17 20-10 5-17 11-15 13 16 16-96 139-158 174-19 10-43 27-53 36-40 35-152 46-257 24zm60-107c11-19 13-19 36-4 38 25 110 14 146-22l28-29-39-40c-46-46-49-77-8-82 19-2 29-11 33-28 6-23 24-34 24-14 0 6 9 10 20 10s20-5 20-12c0-6 10-2 23 10 36 34 49 29 41-15-7-39-40-109-55-118-4-3-6-19-2-35 7-40-17-49-56-21-31 22-42 26-39 14 5-19-16-55-35-62-18-7-28-2-53 27-28 33-33 35-47 21-8-9-17-29-19-44-4-39-28-45-28-8 0 35-44 83-60 67-6-6-13-34-17-62-5-49-7-52-34-52-25 0-29 4-29 29 0 52-11 87-32 100-18 11-23 10-32-5-22-37-23-59-4-86 10-14 18-29 18-33 0-7-26 0-70 18-14 6-29 11-35 11-5 1-20 5-32 9-26 10-20 37 8 37 10 0 19 4 19 9s7 11 15 13c12 2 12 7 2 28-9 19-22 26-49 28-26 2-37 9-41 24-10 38 0 46 48 35 25-6 45-13 45-17 0-8 48-5 57 3 3 4 1 7-5 7-7 0-12 7-12 15s-6 15-14 15-21 6-28 14c-8 7-24 17-37 21-12 3-20 12-18 18 6 16 76 11 96-8 21-18 65-9 57 12-3 8-6 19-6 23 0 5-16 17-35 26-40 19-44 36-13 58 19 14 24 14 38 1 9-8 21-15 26-15s15-9 22-20c13-21 75-29 86-12 8 13-45 60-76 67-33 8-36 20-9 35 28 14 57 12 71-5 7-8 26-15 43-15 29 0 29 1 23 40-7 43 6 54 24 19zm-295-159c3-5 1-10-4-10-6 0-11 5-11 10 0 6 2 10 4 10 3 0 8-4 11-10zm344-459c45-1 52-3 42-15-7-8-11-30-9-51 1-22-3-40-12-45-22-13-91-19-145-12l-50 7-9 46c-13 69-9 74 65 72 35 0 88-2 118-2zm53 559c-12-16-22-32-22-35s18-5 40-5c48 0 62 21 35 50-24 26-27 25-53-10z" transform="matrix(.1 0 0 -.1 -22.309233 115.731865)"/></svg>