<svg height="142.472921pt" preserveAspectRatio="xMidYMid meet" viewBox="0 0 114.768898 142.472921" width="114.768898pt" xmlns="http://www.w3.org/2000/svg"><path d="m715 2061c-110-32-182-77-266-164-43-45-79-86-79-91s-7-18-17-28c-9-10-21-26-27-37-61-104-81-159-91-256-4-33-9-73-12-90-2-16-6-68-8-114l-4-83 28 5c17 4 36 0 47-8s31-15 47-15c15 0 27-4 27-8 0-8 94-30 155-36 20-2 31-9 33-22 9-52 35-126 49-139 9-10 16-38 17-77 2-51-1-62-15-65-14-4-17-13-15-40 2-19 8-39 15-46 6-6 11-17 11-24 0-24 54-63 87-63 37 0 38 1 21 33-6 12-14 28-18 36-3 8-2 40 3 72 8 45 14 59 33 68 20 9 24 8 24-7 0-17 40-83 66-110 20-19 50-15 51 8 1 11-2 22-8 25-5 4-9 14-9 24s-9 26-20 36-20 24-20 32c0 7-6 14-12 15-76 9-107 32-108 80 0 21 6 28 29 33 65 14 65 65 0 65-29 0-41 5-49 21-7 11-10 23-7 25 2 3 31 9 63 14 39 6 65 17 76 30 9 11 24 20 35 20 10 0 29 6 43 13s50 12 80 12c49-1 55-4 58-23 2-14-2-22-12-22-8 0-31-17-52-37l-36-38 53-5c47-4 54-8 57-28s0-22-28-17c-42 7-82-18-78-48 3-20 8-22 58-20l56 1 2-71c2-66 1-70-13-53-8 11-15 23-15 27 0 17-43 16-61-2-23-23-24-42-2-65 11-10 16-30 15-53-3-48 8-64 40-56 30 8 48 42 37 70-19 50-4 59 32 20 26-27 63-32 82-13 16 18 20 94 6 120-11 20-12 20-24 4s-14-16-20 4c-4 12-8 98-9 190l-3 167 109 28c61 16 116 34 124 42 24 25 11 221-21 323-15 47-34 92-41 101-8 9-11 18-8 22 3 3 1 12-5 19s-19 22-29 34c-9 11-27 26-39 33-13 6-23 16-23 22 0 15-66 84-95 99-14 7-25 19-25 26 0 13-36 30-57 26-7-2-13 1-13 6 0 14-69 31-145 36-50 4-87 0-130-13zm50-130c5-16 13-18 53-13 26 2 55 12 65 20 15 13 21 14 35 4 50-36 79-52 95-52 54 0 151-159 159-260l3-35-87-3c-85-3-88-4-88-26 0-34 67-50 124-31 22 8 42 12 45 9 8-8-38-44-57-44-10 0-22-4-27-9-6-6-30-11-55-13-38-3-46-7-48-25-2-13-8-23-13-23s-3-13 6-30c20-39 19-45-10-58-53-24-63-17-60 41 1 35-2 58-13 70-18 20-34 22-31 5 1-7 0-20-4-28-3-8-8-39-11-69-3-29-8-56-11-59-10-10-76-2-88 10-7 7-14 24-15 38-4 27-18 47-27 38-4-3-7-26-9-49l-3-44-44-3c-24-2-46-8-50-13-3-5-13-7-23-3-14 6-16 16-12 73 7 75-3 103-28 82-9-8-15-19-14-25s-6-26-15-44c-11-19-15-42-12-53 6-17 3-20-17-17-17 2-22 9-21 26 2 14-3 22-12 22s-18 6-20 13c-3 7-23 12-50 12-29 0-45-4-45-12 0-7-5-13-11-13-5 0-8-4-4-9 3-5 1-12-5-16-9-6-16 39-11 75 1 8 4 31 6 50 18 150 73 279 152 356 53 51 73 59 73 30 0-21 101-12 117 10 11 15 10 21-3 36-9 9-20 16-23 13-4-2-13 1-21 6-13 8-11 13 9 27 37 26 114 49 133 40 9-4 19-16 23-27zm158-84c-47-14-50-35-6-54 37-15 38-15 60 12 13 14 23 30 23 34 0 14-42 18-77 8zm-436-81c-37-11-37-12-22-33 19-27 79-32 110-10 39 29-26 61-88 43zm536-37c-30-9-72-53-61-64 6-6 35-8 81-7 25 1 37 7 37 16 0 8 9 18 20 21s20 14 20 24c0 20-46 25-97 10zm-640-114c-7-21-7-21 60-29 48-6 58-5 63 9 9 24-13 35-69 35-34 0-49-4-54-15zm-20-126c-9-9-8-16 4-28 18-17 70-24 79-10 3 5 14 9 25 9 19 0 19 0-1 20-16 16-25 18-44 10-16-6-27-6-31 0-8 13-18 13-32-1zm949-581c-7-7-12-20-12-30 0-9-13-33-30-51-50-58-34-98 30-74 20 8 33 20 36 37 3 14 9 32 14 41 19 35-14 101-38 77zm-932-147c0-31 17-47 95-86 54-27 80-31 90-14 9 13-33 59-53 59-8 0-32 16-53 35-49 44-79 47-79 6z" transform="matrix(.1 0 0 -.1 -21.074221 207.544877)"/></svg>