<svg height="139.733012pt" preserveAspectRatio="xMidYMid meet" viewBox="0 0 106.627691 139.733012" width="106.627691pt" xmlns="http://www.w3.org/2000/svg"><path d="m1025 1593c-35-8-81-31-96-50-49-57-89-164-94-250-3-53 14-179 30-228 22-66 29-75 61-85 53-18 53-19 56-230 2-126 1-128-32-135-18-4-30-13-30-22 0-12-3-13-14-4-8 7-47 14-88 17-93 6-106 10-107 37 0 12-1 47-2 77 0 30-7 65-14 76-12 19-12 24 4 38 10 9 23 16 29 16 7 0 28 10 48 23l36 22-5 72c-3 40-9 78-14 85-15 24-33 83-33 109 0 62-51 172-103 222-21 20-39 37-40 37s-33 9-71 20c-72 20-116 18-116-6 0-8-4-14-10-14-5 0-13-12-16-27-4-16-15-39-24-53-24-34-27-46-42-150-1-8 1-46 5-85 5-38 10-90 13-115 10-94 16-136 25-166 9-28 12-30 52-28 23 1 61 6 85 12 65 15 80 7 88-45 4-25 7-62 8-82 1-33-1-36-25-33-20 2-33-6-53-33-15-19-32-35-39-35s-28-5-49-10c-41-12-57-39-33-56 18-13 100-10 155 7 24 7 53 7 95 0 183-33 190-33 297-11 96 21 134 21 216 4 22-4 47 0 80 14 26 11 70 23 98 27 44 5 51 9 47 25-5 20-78 36-114 25-11-4-30 0-44 9-13 9-42 16-63 16-45 0-68 20-56 47 10 24 14 222 4 228-5 3-5 17-1 32 6 24 15 29 75 42 49 10 72 20 82 36 18 28 22 169 5 188-6 8-12 37-13 65-2 30-8 54-15 56-8 3-13 23-13 45s-5 43-10 46c-6 3-8 16-5 28 4 16-2 30-19 47-15 13-26 30-26 38 0 41-99 80-165 65zm35-134c0-5 7-6 15-3 23 9 19-28-5-49-11-9-25-17-30-17-13 0-13-13 2-45 10-23 38-36 38-17 0 4 14 7 30 8 25 1 32-4 37-24 3-14 12-37 19-51 8-14 14-35 14-45 0-23-28-56-47-56-15 0-17-16-3-25 6-3 10-2 10 2 0 5 9 9 20 10 25 2 26-15 3-24-10-4-23-13-29-21-9-13-25-14-95-6l-84 9-9 90c-5 50-14 93-20 97-7 5-5 12 8 21 12 9 17 20 13 30-13 35 62 138 94 130 10-3 19-9 19-14zm-478-196c9-10 30-46 48-80 27-51 32-72 31-125 0-56-3-65-27-84-28-23-87-44-122-44s-52 27-52 83c0 29-6 72-14 96-19 65-4 119 40 137 18 8 35 18 39 24 10 16 40 12 57-7zm517 42c-1-5-1-13 0-17 0-5-3-8-9-8-5 0-10-4-10-10 0-12 10-13 29-1 10 7 11 13 2 27-6 11-11 15-12 9zm-596-87c-14-7-23-20-23-34 0-21 4-24 41-22 46 2 70 28 48 54-13 16-35 17-66 2zm47-135c-36-30-37-62-2-74 19-7 29-3 53 20 31 31 31 49-1 68-16 11-24 8-50-14zm623-633c-13-5-111-8-220-6s-203 2-209-1c-9-3-9-10 0-29 12-26 2-24 179-27 48-1 87-5 87-9s10-8 23-8h67c61 0 146 18 160 35 8 10 5 18-16 34-29 23-38 24-71 11zm-556-31c-13-21-43-26-49-8-2 6-24 13-49 16-35 4-48 1-59-13-13-16-13-17 2-11 9 3 18 1 21-6 4-12 136-13 190-1 36 8 30 27-12 35-25 5-35 3-44-12zm252-95c-7-9-23-13-43-10-115 18-123 18-129-4-4-14-11-18-24-14-14 4-15 4-3-4 8-6 76-12 152-15 111-5 140-3 155 9 17 14 16 15-7 9s-24-5-7 9c19 15 9 30-15 21-8-3-26-1-41 4-19 8-28 6-38-5zm-146-82c-13-2-23-10-23-17 0-8 10-17 23-21 20-7 148-6 155 1 2 2 1 12-2 23-5 16-16 19-69 18-34-1-72-2-84-4z" transform="matrix(.1 0 0 -.1 -33.762344 159.639304)"/></svg>