<svg height="59.481718pt" preserveAspectRatio="xMidYMid meet" viewBox="0 0 114.334283 59.481718" width="114.334283pt" xmlns="http://www.w3.org/2000/svg"><path d="m702 862c-13-2-26-11-28-20-3-9-11-28-18-42-16-32-34-141-41-249-2-46-6-86-9-88-2-2-19-6-39-10-33-5-35-3-42 26-3 17-11 33-16 36-5 4-9 14-9 23s-21 60-48 112c-36 72-57 102-90 127-24 18-50 33-57 33-8 0-26-16-41-36-24-31-27-44-26-97 2-79 18-167 38-206 8-17 13-35 10-40-4-5-32-12-64-16-69-8-142-32-142-48 0-7 8-22 18-33 14-18 31-22 112-27 52-4 118-11 145-16 77-15 225-22 505-23 356-2 397 7 345 76-25 33-32 36-76 36-60 0-66 15-44 101 9 34 14 68 11 75s-2 16 3 18c4 3 9 29 10 59 1 41-3 59-19 80-12 15-28 27-36 27-17 0-74-59-74-76 0-6-6-17-14-24-8-6-26-42-40-78-32-82-85-142-126-142-16 0-31 4-34 8-2 4 2 59 10 122 17 129 19 239 4 254-6 6-10 17-10 26 0 19-37 36-68 32z" transform="matrix(.1 0 0 -.1 -8.022141 86.245733)"/></svg>