<svg height="132.998571pt" preserveAspectRatio="xMidYMid meet" viewBox="0 0 126.468823 132.998571" width="126.468823pt" xmlns="http://www.w3.org/2000/svg"><path d="m664 1443c-9-15-14-16-27-4-13 10-24 11-48 2-18-6-47-11-64-11-20 0-35-6-39-15-3-9-19-15-41-15-29 0-39-6-56-32-11-18-37-46-58-63-21-16-49-46-62-65s-39-53-56-77c-40-53-64-141-70-255-4-82-2-92 33-180 53-132 77-166 132-190 25-12 52-27 59-34 17-17 74-28 113-22 17 3 30 1 30-4 0-4 6-8 14-8 16 0 28-65 20-109-4-17-2-37 3-43 6-7 14-34 17-60 6-40 4-50-13-67-52-52-3-80 94-56 52 13 74 14 122 5 40-8 70-8 98-1 22 5 56 14 75 19 37 9 130 50 130 56 0 13-57 66-72 66-13 0-17 10-17 53v52l61 19c33 10 70 20 83 21 25 3 76 33 88 52 4 7 13 13 18 13 12 0 48 40 49 54 0 5 14 22 30 38 17 15 30 31 30 34s9 17 19 30 26 55 36 92c16 65 15 71-4 142-25 93-45 143-65 160-9 7-16 18-16 25s-15 28-34 47c-18 18-36 43-40 56-4 12-12 22-17 22s-9 7-9 15-4 15-10 15c-5 0-39 29-75 65-35 36-72 65-81 65s-28 9-43 19c-15 11-40 23-57 27-16 3-40 13-53 21s-47 17-75 19c-48 4-91 10-91 14 0 1-11 4-25 6-16 3-29-2-36-13zm227-164c25-16 55-29 65-29 11 0 29-6 39-14 10-7 26-11 35-9 10 3 21-6 30-21 7-14 21-28 31-31 22-7 52-53 45-70-4-13-28-12-66 2-8 3-21 7-29 9-19 4-32 26-22 39 16 18-8 56-45 71-41 17-64 13-64-13 0-10-21-37-47-60-45-41-50-43-109-43-56 0-62 2-68 23-11 41-33 60-60 53-24-6-26-11-26-61 0-43-3-55-16-55-8 0-22-7-31-15-19-19-50-15-44 6 8 26 3 54-15 94-14 29-26 41-45 43-32 4-51-19-73-82-21-66-21-86 4-87 32-2 38-4 45-11 4-4-20-48-54-97-33-50-61-95-61-101 0-23-31-70-46-70-14 0-14 3-4 15 9 10 9 15 1 15-21 0-11 26 17 47 29 21 34 46 18 91-8 23-21 29-31 12-4-6-11-7-17-4-20 13 1 125 34 177 16 26 34 47 39 47s24 16 42 35c17 19 39 35 48 35s28 11 44 26c36 33 105 32 120-3 10-24 39-31 50-13 3 6 13 10 22 10 20 0 63 38 63 56 0 34 117 23 181-17zm254-79c3-5-1-10-10-10s-13 5-10 10c3 6 8 10 10 10s7-4 10-10zm-273-215c3-4 1-25-4-48-6-28-6-43 1-45s7-9 1-20c-6-9-18-39-29-67-23-60-37-67-45-20-4 19-10 35-14 35s-7 12-8 28c-1 15-5 49-9 75-6 38-5 51 6 58 15 10 92 12 101 4zm38-9c0-3-4-8-10-11-5-3-10-1-10 4 0 6 5 11 10 11 6 0 10-2 10-4zm-226-48c3-18 4-57 3-85-2-30 2-55 8-58s6-7-2-11c-7-3-13-12-13-20 0-29-26-12-42 29-10 23-18 46-18 51s-6 17-14 25c-23 26-9 71 28 87 43 18 43 18 50-18zm227-28c3-54-11-113-34-137-25-28-37-29-37-3 0 11 4 20 10 20 12 0 43 58 36 68-3 4-1 14 4 22 4 7 4 24-1 38-10 25-2 49 11 35 5-4 9-24 11-43zm-376-25c1-5 6-19 12-30s10-35 8-52c-1-18 2-33 7-33 4 0 8-13 8-30 0-21-5-30-17-30-9 0-14 2-11 5s-17 29-43 57c-26 29-51 50-54 47s-6-27-7-53c-2-36 2-50 14-57 10-5 15-16 12-23-3-8 4-16 16-19 11-3 20-9 19-14-1-4 1-16 5-25 27-61-44-62-111-3-35 30-32 104 6 165 16 27 27 51 24 54-4 3-2 6 3 6s22 11 39 25c28 25 70 31 70 10zm615-101c0-12-7-27-15-34s-15-23-15-36c0-15-6-24-15-24-8 0-15-7-15-15s-3-15-8-15c-4 0-12-10-17-22-6-13-18-24-28-26-16-3-18 0-12 20 4 12 12 25 17 26 5 2 3 11-4 19-10 12-9 18 7 29 10 8 15 14 10 14s-4 5 3 12 12 22 12 35 5 23 10 23c6 0 10 11 10 23 0 13 3 27 6 30 11 11 54-37 54-59zm-100 51c0-3-7-22-15-42-8-19-15-43-15-52-1-22-67-98-77-88-4 5-1 12 7 17s11 12 7 16 2 17 13 29c11 11 21 34 23 51 5 39 24 74 42 74 8 0 15-2 15-5zm-279-187c1-7 2-26 3-43 1-23 7-30 21-30 24 0 21-24-5-42-24-17-16-56 10-48 24 8 32-8 21-38-6-16-21-27-39-32-26-5-28-8-19-28 6-12 24-29 41-37 34-17 43-51 19-76-10-10-19-11-33-4-10 6-33 10-50 10s-44 7-60 15l-28 15 3 152c2 116 6 154 16 159 84 40 98 44 100 27zm366-124c2-6-30-21-72-34-58-18-78-21-87-12s-8 12 5 12c20 0 59 20 69 35 8 13 80 13 85-1zm-597-14c18-12 2-12-25 0-13 6-15 9-5 9 8 0 22-4 30-9z" transform="matrix(.1 0 0 -.1 -14.1378 145.660404)"/></svg>