<svg height="145.731676pt" preserveAspectRatio="xMidYMid meet" viewBox="0 0 105.821954 145.731676" width="105.821954pt" xmlns="http://www.w3.org/2000/svg"><path d="m695 1852c-39-13-95-57-101-79-8-29-34-37-80-24-33 9-42 7-80-17-24-15-43-33-44-39 0-7-4-13-9-13s-18-20-29-44c-24-50-25-152-2-166 11-7 10-12-5-27-10-10-26-18-34-18-23 0-40-61-35-125 5-54 27-89 65-102 10-3 9-13-4-40-9-20-17-48-17-62 0-16-6-26-14-26-25 0-26-29-1-56 14-15 25-30 25-33s16-23 35-44 35-47 35-57c0-11 12-34 28-52 34-42 49-66 63-100 6-16 17-28 25-28s13-3 12-7c-3-15 22-63 32-63 5 0 10-8 10-19 0-22 22-43 41-39 7 2 15-5 17-14 3-15-4-18-38-18-44 0-64 16-150 119-55 67-93 101-113 101-27 0-17-33 12-40 21-5 22-7 7-19-8-7-23-11-31-7-27 10-29-23-4-44 13-11 35-31 49-44 14-12 40-29 58-37 17-8 32-17 32-21 0-14-32-38-50-38-10 0-22-5-25-10-4-6-12-7-18-3-17 11-60 8-64-3-2-6 7-22 21-35 23-23 28-24 103-17 43 4 98 10 123 14 36 5 49 3 59-10 7-9 18-16 24-16 5 0 15-8 22-17 11-15 17-15 39-5 15 7 37 10 49 7 16-4 32 2 52 19 36 31 69 33 88 6 22-32 67-35 98-7 36 35 65 42 94 23 13-9 31-13 39-10s24 1 35-6c23-12 95 2 106 21 10 16-17 41-37 35-25-6-118 33-118 49 0 7 6 18 14 24 8 7 12 21 9 31-3 11 0 20 6 20s11 9 11 19c0 11 5 23 10 26 6 4 8 10 5 15-3 4 2 13 10 20s15 19 15 26c0 8 18 30 40 50s39 39 37 41c-3 2-19-10-37-27-39-36-53-38-68-5-8 16-17 23-27 19-16-6-22-27-23-81-1-18-11-46-23-62-17-23-20-37-15-65 7-35 6-36-25-36s-31 1-24 38c4 20 10 42 14 47 4 6 20 51 35 100 15 50 40 118 57 153 16 34 25 62 20 62s-13-9-16-20c-5-16-14-20-42-18-51 3-72-33-87-147-6-49-15-75-27-75-5 0-9 12-9 28 1 52-11 138-26 195-4 13 1 17 20 17 29 0 76 19 76 32 0 5 11 13 25 18s25 14 25 20 8 22 17 37c9 14 18 33 19 42 2 9 7 32 12 51 6 25 5 46-6 73-14 36-13 38 10 60 28 26 39 49 45 92 3 17 6 32 8 34s-8 22-23 45c-21 32-27 55-28 106-1 36 3 71 10 79 9 12 8 13-4 6s-13-6-4 6c30 37-35 147-89 151-57 4-134-5-148-18-24-22-43-17-57 16-8 17-18 30-24 30-5 0-21 9-35 20-26 20-43 23-78 12zm72-114 23-24-35-51c-19-28-39-55-45-58-20-12-56 4-71 32-8 16-20 32-27 36-16 11 5 47 51 89 27 25 32 26 56 14 14-8 36-25 48-38zm241-45c6-9 12-31 12-48 0-39-16-59-59-74-47-15-50-14-61 14-5 14-16 25-25 25-18 0-18 4-5 28 5 9 14 29 19 44 15 40 91 47 119 11zm-508-35c0-5 7-8 15-8 13 0 35-55 35-90 0-24-21-40-39-31-9 5-37 3-66-4-59-16-63-12-61 58 2 37 7 53 20 61 10 6 27 19 38 28 16 14 24 15 39 5 10-6 19-15 19-19zm240-168c6-11 8-25 5-30-3-6 3-10 14-10 40 0 51-11 51-50 0-52-8-70-36-81-27-10-93 17-94 39 0 6-4 12-10 12-5 0-10 23-10 50 0 37 5 55 20 70 25 25 46 25 60 0zm294-39c28-11 36-35 24-71-15-43-33-50-86-31-38 14-48 22-50 44-3 21 4 31 30 47 37 23 47 24 82 11zm-617-33c15-7 48-13 73-13 44 0 45-1 48-35 2-29-3-41-30-67-32-31-35-32-62-18-35 19-40 19-32 0 7-19 2-19-33 0-36 18-48 80-19 96 10 5 18 19 18 29 0 24 0 24 37 8zm547-224c9-3 16-12 16-19 0-6 9-20 20-30s20-23 20-29c0-17-74-96-89-96-56 0-70 95-22 148 33 35 32 35 55 26zm-294-20c11-13 10-16-9-21-28-7-22-28 10-30 13 0 29-1 36-2 16-1 36-67 29-94-3-14-23-32-47-44-39-20-45-20-71-7-37 19-44 38-25 68 10 15 14 37 11 62-3 31 0 45 16 62 25 26 33 27 50 6zm-165-46c-4-29-11-57-15-62-14-15-79 3-91 25-12 23-4 70 14 81 7 4 32 8 55 8h44zm-56-130c28 0 61-26 61-49 0-19 67-79 87-79 15 0 21-37 27-162 3-80 1-98-10-98-8 0-14 8-14 19 0 27-25 82-49 110-12 13-21 31-21 40s-15 29-34 44c-19 16-36 42-40 59-3 16-22 44-41 61-41 36-49 74-12 62 12-4 33-7 46-7zm355-95c9-32 28-267 24-303-2-24-10-38-26-46-12-6-28-18-35-27-7-8-22-18-34-22-27-8-30 10-8 39 9 11 11 24 6 30-12 15-10 46 3 46 6 0 3 7-7 14-17 13-17 15-1 24s15 11-4 28c-26 22-28 40-5 48 11 5 13 10 7 14-14 10-25 42-14 42 5 0 8 21 7 48-2 45 0 48 33 64 43 22 47 22 54 1zm126-323c0-5-4-10-10-10-5 0-10 5-10 10 0 6 5 10 10 10 6 0 10-4 10-10zm21-36c11-14 10-18-6-30-10-8-22-14-27-14-11 0-10 18 2 25 5 3 7 12 3 20-7 20 11 19 28-1zm344 155c-16-5-37-6-46-4-15 5-45-23-82-75-22-31-21-40 2-40 11 0 21-5 23-11 6-19 48 9 48 31 0 12 7 20 16 20 10 0 14 6 10 15-4 10 1 15 14 15 11 0 20 6 20 14s9 16 20 18 17 7 12 14c-4 7-18 8-37 3z" transform="matrix(.1 0 0 -.1 -27.551569 185.829255)"/></svg>