<svg height="97.021508pt" preserveAspectRatio="xMidYMid meet" viewBox="0 0 60.797234 97.021508" width="60.797234pt" xmlns="http://www.w3.org/2000/svg"><path d="m447 1195c-51-17-84-40-104-73-10-15-28-38-40-52-13-14-23-30-23-37s-4-13-8-13c-5 0-19-32-32-71-25-79-30-172-10-209 7-13 17-44 24-69 10-41 14-46 36-43 14 1 34-4 45-12 18-13 20-27 21-138 1-68 5-131 9-140 6-15 2-18-19-18-14 0-36-10-47-21l-22-22 24-18c13-9 35-19 49-22 37-7 234 1 314 13 41 6 73 7 80 1 6-5 21-5 33-1 18 8 20 13 14 42-14 61-29 79-59 72-15-4-31-7-37-8-5 0-10 16-9 37 0 20 1 80 2 132l2 95 39 16c49 19 65 43 86 124 16 62 14 124-6 162-5 10-11 30-13 46-5 42-110 184-163 219-29 19-140 24-186 8zm61-127c5-7 12-23 14-35 3-22 4-22 32-8 37 20 41 19 65-7l20-21-26-14c-14-7-31-13-37-12-42 5-56-2-56-27 0-23 3-25 29-19 16 3 32 2 35-4 8-13 66 6 66 22 0 6 3 7 7 4 11-12 14-119 3-132-6-7-26-16-44-19-19-4-48-20-64-37-27-27-35-30-83-27s-54 6-57 26c-2 12-12 28-23 35-25 16-24 20 11 40 37 22 38 36 5 67-14 13-25 27-25 32s16 25 36 45c31 31 34 37 20 45-9 5-16 17-16 28 0 17 7 21 66 29 6 0 16-5 22-11zm-5-502c18-27 57-137 57-160 0-21-72-31-106-14-25 12-26 16-26 91 1 42 1 84 2 92 0 25 55 19 73-9z" transform="matrix(.1 0 0 -.1 -21.761462 120.467109)"/></svg>