<svg height="103.101875pt" preserveAspectRatio="xMidYMid meet" viewBox="0 0 79.480159 103.101875" width="79.480159pt" xmlns="http://www.w3.org/2000/svg"><path d="m500 1240c-71-27-173-79-197-102-26-24-73-111-77-142-2-12-8-39-14-61-14-49-17-189-7-267 7-51 11-60 42-78 19-11 41-20 49-20s14-4 14-9 27-12 59-16l59-7 4-46c2-26 1-60-2-77-8-42 7-144 26-173 17-25 21-26 144-2 30 6 89 13 130 15s101 13 135 24c33 11 72 23 86 25 21 5 26 12 27 36 1 35-20 50-72 50-37 0-57 21-62 65-1 11-5 45-8 76l-7 57 36 21c20 11 45 21 57 21 11 0 31 11 44 25 20 21 23 35 22 83-1 32 1 63 5 69 8 13-35 167-53 188-7 8-9 15-4 15 4 0 0 6-11 13-10 8-15 19-11 25 3 6 1 16-6 24-7 7-19 25-27 41-19 36-106 103-158 121-66 23-171 26-223 6zm0-185c9-11 13-58 14-154 1-77 4-143 8-146 4-4 14-5 23-2 11 5 15 21 15 62 0 46-3 55-17 55-15 0-15 2-4 9 8 5 16 27 17 48 7 89 10 98 36 101 21 2 28-3 36-27 9-24 8-30-7-34-26-6-23-43 5-57 13-8 25-17 25-22 1-4 2-14 3-20 1-7-4-31-11-52-7-22-11-41-8-44 7-8 35 19 35 34 0 18 36 18 43 0s-6-28-63-48c-82-29-170-43-170-27 0 4-21 12-47 17-51 11-67 5-78-29-8-24-40-25-50-1-17 38-23 140-11 187 12 48 57 135 70 135 8 0 12-27 11-86 0-47 3-88 8-91 4-2 4-15 1-29-4-14-1-31 6-39s9-15 6-15c-4 0-4-5 0-11 4-8 12-3 20 12 17 32 17 47-1 65-16 16-11 63 8 75 5 4 7 23 4 43s-1 38 4 41c5 4 9 16 9 29 0 12 3 26 7 29 11 12 40 7 53-8zm390-181c0-8-4-12-10-9-5 3-10 10-10 16 0 5 5 9 10 9 6 0 10-7 10-16zm-323-364c-7-25 8-44 28-36 14 5 15 9 6 20-17 20 3 30 29 14 13-9 20-23 20-45 0-23 5-33 15-33 8 0 15 7 15 15 0 18 34 20 48 2 9-10 6-17-8-29-47-41-75-51-177-64-27-3-33-1-33 14 0 10-3 22-7 25-13 14-2 122 13 133 22 17 57 5 51-16z" transform="matrix(.1 0 0 -.1 -19.907489 125.368196)"/></svg>