<svg height="127.897816pt" preserveAspectRatio="xMidYMid meet" viewBox="0 0 114.072464 127.897816" width="114.072464pt" xmlns="http://www.w3.org/2000/svg"><path d="m980 1511c-8-6-17-8-21-5-14 8-74-20-126-59-49-37-91-92-137-183-18-37-28-136-17-168 5-11 5-29 2-39-6-16-7-16-23 2-9 10-23 34-32 53-18 36-83 109-134 148-46 35-142 128-142 138 0 8-52 42-64 42-3 0-5-3-4-7 0-5-2-15-6-24-4-10 1-30 13-49l19-33-29-24c-26-22-29-31-29-83 0-78 10-85 108-76l78 6 31-32c30-33 58-77 51-83-2-2-25-14-53-27-27-13-48-27-47-32 2-5-2-12-9-16-15-10-16-87-1-102 8-8 22-8 50 0 22 7 51 12 64 12 14 0 42 11 62 25 38 26 62 33 51 15-4-6 0-22 9-35 8-13 17-39 19-59s7-39 10-43c4-3 7-13 7-21 0-10-9-13-32-9-67 9-138-58-138-131 0-40 21-54 81-54 42 0 55-5 75-27 13-14 24-35 24-47s5-36 12-54c9-26 9-35-1-38-8-3-9-8-2-16 13-16-8-76-26-76-8 0-13-12-13-30 0-28 3-30 35-30 24 0 35 5 35 15 0 8 5 15 10 15 6 0 10 7 10 15 0 24 35 17 50-10 7-13 17-22 23-18 5 3 2 10-7 15-21 12-21 30 1 26 23-4 28 25 9 45-12 12-13 17-3 20 7 3 5 6-5 6-9 1-20-8-23-19-7-21-25-28-25-10 0 6 5 10 11 10 5 0 7 4 4 10-3 5 3 26 14 47 20 40 57 255 46 273-3 5-2 10 3 10s13 25 17 55c6 52 16 67 30 45 10-16 33-11 55 12 26 28 32 20 22-28-7-35-11-39-40-42-19-2-32-9-32-17 0-7-3-20-6-29-4-11 2-17 23-22 15-4 32-9 36-11 14-8-15-33-39-33-19 0-24-5-24-26 0-23 3-25 33-22 26 2 33-1 35-19 2-15-5-25-25-35-31-15-42-50-22-74 9-11 8-18-4-32-20-22-26-84-9-90 6-2 12-16 12-31 0-55 41-68 65-21 13 25 19 29 34 21 10-6 21-8 24-5s17-2 32-12c21-14 28-15 35-5 4 7 18 18 31 25 17 9 23 20 22 39-1 15 2 27 7 27 16 0 20 32 6 46-16 16-40 19-31 4 3-5 1-10-5-10-7 0-20-10-30-22l-17-22-13 25c-8 13-15 44-16 69-6 86-5 275 1 313 8 46 32 107 44 107 4 0 32-8 62-18 105-36 116-36 154 4 34 35 55 86 55 135 0 14 3 29 7 33 18 17 18 231 1 286-11 36-50 95-78 117-8 7-32 18-52 24-21 7-38 16-38 21 0 4-11 8-24 8s-26 5-28 11c-8 23-147 39-178 20zm151-105c20-9 49-30 64-46l27-29-37-15c-45-19-183-13-224 9-15 7-38 16-53 20-21 4-27 11-26 28 2 18 9 24 32 25 17 2 33 7 36 11 14 24 130 22 181-3zm-278-70c9-7 17-20 17-28 0-23 22-38 55-38 40 0 76-10 70-20-3-5 27-14 65-21 69-12 94-10 186 16 31 9 44-48 35-152-1-7-12-1-26 12-27 27-30 28-95 15-47-9-79 1-171 51-20 10-42 19-48 19-7 0-23 12-36 28-21 23-26 25-35 12-18-28-10-49 25-65 19-9 39-23 46-31 6-8 17-14 25-14 7 0 19-8 26-17 23-31 75-42 184-40 98 2 104 1 104-18-1-68-21-79-113-60-34 7-84 11-112 9-33-2-58 2-73 12-17 11-27 12-36 5-15-13-66 7-66 25 0 14-23 24-56 24-13 0-24 3-24 8 0 4-10 12-22 17-17 7-23 18-23 40 0 17-4 36-8 43-5 7-4 12 2 12s11 9 11 21c0 22 38 116 55 136 13 15 16 15 38-1zm-79-382c18-7 21-44 7-72-5-9-14-29-20-44-21-55-40-29-47 65-4 55-3 57 20 57 13 0 31-3 40-6zm202-67c3-2-8-8-23-11-15-4-36-9-45-12-13-4-18 0-18 14 0 10 2 21 6 24 5 6 72-7 80-15zm-384-535c-10-3-10-7-1-18 6-8 10-14 8-15-2 0-12-2-22-4-24-4-24-5-29-35-3-22 1-25 30-28 19-2 32 1 32 8 0 6 7 18 15 26 8 9 15 19 15 23 0 16-35 48-48 43z" transform="matrix(.1 0 0 -.1 -25 151.897816)"/></svg>