<svg height="212.883423pt" preserveAspectRatio="xMidYMid meet" viewBox="0 0 186.096512 212.883423" width="186.096512pt" xmlns="http://www.w3.org/2000/svg"><path d="m385 2364c-99-33-131-52-188-108-54-53-82-118-70-165 3-14 19-45 35-68 15-23 28-54 28-70s7-39 16-51c15-22 20-22 122-16 155 8 282 50 282 93 0 9 5 22 11 28 7 7 7 22-1 52-6 23-8 46-5 51 9 14 54 12 104-6 50-17 151-109 151-136 0-10 5-18 11-18s8-8 5-17c-3-10-7-43-11-73-3-30-14-83-26-117-15-46-18-67-10-81 6-11 8-22 5-25-16-16 63-203 92-220 8-4 14-13 14-19s12-24 26-39c60-65 70-76 88-104 20-31 73-92 117-135 58-57 179-358 158-392-5-7-9-23-9-35 0-44-70-58-88-18-6 14-15 25-20 25-4 0-8 23-7 52 0 49-2 53-41 80-46 33-72 32-118-5-19-16-30-37-36-67-8-41-6-48 18-72 20-22 35-28 67-28 44 0 65-13 65-42 0-10 4-18 8-18 5 0 10-24 11-54 1-45-2-57-24-77-13-13-25-30-25-36 0-7-4-13-9-13s-11-9-14-20c-3-13-14-20-29-20-13 0-28-4-33-9-6-6-26-6-51 1-23 6-50 8-60 3-19-8-49-14-94-19-41-5-42-5-38-23 4-21 32-26 123-21 18 0 100-4 334-18 46-3 100-12 119-20 45-18 102-19 102 0 0 17 22 26 60 26 16 0 55 7 87 16s87 18 123 21c60 4 89 18 72 35-11 10-74 13-105 4-18-5-32-5-39 2-6 6-19 7-32 3-11-5-43-11-70-15-67-10-57 13 17 37 61 21 75 38 50 62-23 24-2 56 55 86 26 13 58 31 72 41 14 9 43 20 65 24 53 10 110 52 130 96 26 59 2 98-70 112-24 5-37 0-66-27-20-17-48-41-64-52-15-11-33-25-39-31-7-7-31-21-54-33s-46-30-52-41-16-20-23-20-25-14-41-30c-16-17-31-28-35-25-3 4-6 30-6 60 0 52 1 53 40 71 46 22 85 74 85 115 0 35-41 84-92 110-35 18-40 18-61 4-21-15-22-14-35 32-7 27-15 59-16 73-2 14-7 37-11 51-3 15-2 29 3 33 10 6 8 18-27 166-12 47-20 99-19 115 0 17-4 40-10 52-6 11-9 22-7 25 3 3 10 43 16 89 6 51 20 103 35 133 13 28 24 58 24 68s4 18 9 18 17 17 26 37c10 20 26 45 35 56 16 16 21 17 42 6 12-7 28-18 33-25 14-17 82-54 101-54 8 0 22 7 31 15 8 8 19 13 24 10 5-4 9 3 9 13 0 11 7 25 15 32 9 7 13 20 10 27-5 14 11 53 26 63 4 3 9 19 12 36s9 40 15 51c26 48 20 136-15 210-28 60-164 84-241 42-20-10-42-19-48-19-25 0-130-115-143-157-14-41-13-42 25-94l38-52-22-38c-102-180-138-288-141-429-1-47-7-102-13-123-7-24-8-41-2-45 5-4 9-27 10-52 0-30 8-58 26-85 26-42 36-77 44-160l5-50-20 33c-12 18-21 39-21 46 0 23-72 120-153 207-44 46-87 100-97 119-21 41-50 140-50 168 0 11-6 23-12 25-10 4-10 7 0 15 13 9 15 132 2 132-3 0-5 19-4 42 1 24-2 51-8 62-8 14-7 17 2 11 10-6 11 1 5 31-4 21-9 51-10 66-4 54-84 152-166 203-71 43-110 56-196 62l-62 5-6 37c-8 46-34 87-71 112-16 10-31 18-34 18-3-1-36-12-75-25zm185-507c-37-19-38-39-1-26 17 6 33 15 36 19 9 15-11 19-35 7z" transform="matrix(.1 0 0 -.1 -12.411309 238.898547)"/></svg>