<svg height="95.602932pt" preserveAspectRatio="xMidYMid meet" viewBox="0 0 72.452215 95.602932" width="72.452215pt" xmlns="http://www.w3.org/2000/svg"><path d="m630 1094c-8-3-24-9-35-14s-42-11-69-14-57-12-65-19c-9-8-32-20-51-27-36-15-100-72-100-91 0-5-4-8-8-5-5 3-23-20-41-50-29-46-33-61-29-99 4-29 2-42-5-38-5 3-8 0-5-8 4-12 62-50 73-48 18 4 93-14 108-26 18-13 18-16 3-68-14-50-14-58 0-92 9-23 12-41 6-48-5-7-5-45 1-94 5-45 7-88 4-96s-19-18-35-22c-28-6-54-45-31-45 6 0 9-6 8-13-4-35-1-36 113-31 61 3 115 7 119 10 4 2 10 0 14-6s55-10 125-10c112 0 121 1 147 24l28 25-27 27c-17 18-38 27-60 28-25 1-36 7-46 29-7 15-14 37-14 50-1 12-5 27-10 34-5 6-5 14 1 17 5 3 9 29 8 56 0 27 3 53 6 57 4 3 7 34 7 69v62l41 22c23 11 48 19 55 16 8-3 21 6 30 19 9 14 22 25 29 25s15 7 19 15c3 8 2 15-3 15-4 0-6 21-4 46 3 26-1 51-7 59-7 8-10 22-6 30 3 9-6 27-23 44-19 19-25 32-18 35 9 5 9 8 0 12-7 3-13 12-13 19 0 8-20 34-43 59-35 36-46 43-57 33-8-8-11-8-7-1 6 11-6 15-93 29-14 2-32 1-40-1zm-20-140c0-7 11-15 25-18 26-7 81-56 77-69-1-4 5-10 13-13 8-4 15-17 15-30 0-19-5-24-25-24-14 0-36 7-48 15-27 18-64 10-72-16-5-15-16-19-48-19-23 0-57-4-75-10-19-5-47-7-63-3-26 5-29 10-29 43 0 46 42 108 97 141 21 12 41 27 44 32 4 6 16 7 28 4s24-1 27 5c6 10 33-20 34-38zm65-322c9-7 14-47 14-117 0-43-33-168-46-172-6-2-16 10-21 27-9 24-17 30-40 30s-28-4-28-21c1-12-4-24-10-26-7-2-12 21-13 69-2 110-5 132-13 139-5 3-2 22 7 42l15 37h63c34 0 67-4 72-8zm-193 236c-16-16-15-43 3-58 11-9 17-9 28 2 19 19 33 63 18 53-7-4-18-2-25 4-9 7-16 7-24-1zm94-320c-11-42-6-67 14-78 40-21 67 41 36 83-18 24-42 21-50-5z" transform="matrix(.1 0 0 -.1 -22.093064 109.602932)"/></svg>