<svg height="168.004907pt" preserveAspectRatio="xMidYMid meet" viewBox="0 0 153.474738 168.004907" width="153.474738pt" xmlns="http://www.w3.org/2000/svg"><path d="m1245 1815c-75-44-129-190-124-338 3-86 14-107 52-107h29l-6-68c-13-140-16-153-62-209-60-73-79-120-99-238-12-69-24-108-39-125-25-29-59-99-76-153-16-50-22-158-10-172 5-6 5-17 1-24-5-7-4-26 2-42 15-38 6-45-73-61-90-19-121-9-96 31 5 7 13 29 17 47 5 19 14 51 19 72 20 70 23 107 22 212-1 121-5 155-20 172-8 10-9 83-1 83 10 0 17 138 7 151-5 7-7 16-6 20 5 14-24 94-34 94-5 0-6 5-3 10 8 12-100 127-137 146-26 14-27 15-12 49 14 34 14 61 1 95-3 8-8 28-12 44-8 35-58 84-94 92-14 3-38 12-53 20-14 8-35 14-47 14-11 0-44 6-74 14-68 18-96 12-146-31-48-40-69-99-78-213-6-83 8-168 39-243 16-36 31-53 59-68 22-11 39-24 39-29 0-24 64-9 111 26 27 20 49 39 49 43s15 15 33 25c17 11 44 32 59 47 25 27 58 39 58 21 0-4 19-17 43-30 59-31 125-134 119-186-3-27-9-36-23-36-10 0-21 5-24 11-4 6-14 8-22 4-9-3-24 2-34 11-15 14-21 14-34 4-10-8-29-10-56-6-46 7-73-5-123-58-39-42-46-107-18-162 30-58 44-67 127-72 58-4 83-1 111 13 20 10 51 18 67 19 27 1 32-3 39-34 12-55-12-222-48-334-13-39-14-50-3-56 10-7 10-14 2-33-13-27-55-37-108-26-16 4-55 7-86 8-30 0-60 6-66 12-9 9-16 8-27-3-13-14-11-19 21-47 19-17 41-31 48-31 8 0 16-4 19-9 11-18 122-22 181-6 37 9 61 11 65 5s18-6 40 0c19 6 49 10 65 10 17 0 36 5 42 11 17 17 150 18 174 1 10-7 45-14 77-16 33-2 63-5 68-7 5-3 39-5 76-4 44 0 68-4 68-11 0-14 72 8 78 24 1 5-26 23-60 40-50 24-79 31-133 33-39 1-77-1-86-5-10-4-20-3-24 3-3 6-17 11-30 11-19 0-24 6-29 38-19 120 17 272 64 272 4 0 19-11 34-25 48-45 63-48 140-35 85 14 190 67 192 96 1 10 4 29 8 42s3 28-2 35-13 26-16 43c-4 18-23 45-43 63-34 30-41 32-87 27-154-17-174-16-180 7-10 38-7 68 12 100 33 61 37 62 93 17 28-22 60-40 70-40 11 0 33-7 50-15 16-9 35-13 41-9 7 4 8 3 4-4s-3-12 3-12c5 0 16-3 24-6s21 1 28 8c8 8 29 20 47 27 21 9 31 19 28 27s-1 14 4 14c14 0 12 47-3 97-16 52-48 90-84 99-15 4-33 10-38 15-6 4-35 6-65 5s-61 0-67 2c-56 19 87 237 148 225 13-2 38 1 54 8 17 7 37 11 46 10s33 17 53 39c32 36 36 46 30 73-4 18-6 59-6 92 2 85-31 151-101 199-51 35-55 36-142 35-75 0-97-4-130-24zm170-791c48-31 0-47-55-19-41 21-41 50 0 42 16-4 41-14 55-23zm-837-133c9-5 25-12 35-15 25-8 21-33-10-53-19-12-49-18-97-20-38 0-64 2-57 7 7 4 11 16 10 26-6 36 22 64 64 64 20 0 45-4 55-9zm657-291c3-5-1-10-9-10-9 0-16 5-16 10 0 6 4 10 9 10 6 0 13-4 16-10z" transform="matrix(.1 0 0 -.1 -9.182978 183.942697)"/></svg>