<svg height="145.262801pt" preserveAspectRatio="xMidYMid meet" viewBox="0 0 111.620728 145.262801" width="111.620728pt" xmlns="http://www.w3.org/2000/svg"><path d="m1017 1798c-40-8-60-22-113-75-35-35-64-70-64-78 0-7-6-20-14-27-38-39-96-197-96-264 0-31 62-94 93-94 9 0 17-7 17-15 0-14 56-35 98-35 20 0 22-5 20-36-1-19-6-38-10-40-4-3-8-18-8-35 0-32-11-37-32-15-8 7-25 17-38 21-14 4-33 16-42 25-27 28-155 37-199 15-19-10-36-21-39-25s-24-19-47-33c-63-39-95-109-113-237-12-97-15-170-6-196 8-25 59-34 136-24l47 6-11-28c-8-22-7-31 8-47 18-20 18-21 0-27-66-22-89-34-92-49-5-24 7-67 17-61 4 3 37 0 72-6 65-12 99-30 99-55 0-10 13-12 53-8 28 2 81 7 116 10 38 3 74 13 90 24 33 23 67 31 64 14-2-7 3-13 10-13 29 0 245 31 274 39 17 5 34 7 37 3 3-3 6 0 6 7 0 8 7 10 19 6 13-4 27 1 41 15 17 17 18 23 8 39-15 24-49 34-84 25-36-9-79 34-89 89-9 50-9 202-1 216 4 5 2 12-4 16-7 4-7 12 0 25s6 20-2 22c-8 3-8 9-1 22s7 29 0 53c-8 25-8 36 1 41 6 4 14 47 17 97 3 48 8 91 10 95 2 3 33 6 69 8 86 2 164 38 187 85 25 51 14 198-20 266-33 64-99 147-140 175-82 57-241 87-344 64zm137-161c-3-29 59-34 76-6 7 11 12 11 22 1 9-9 9-12-1-12-8 0-11-6-7-15 4-11-1-15-18-15-14 0-31-3-40-6-20-8-21-40-2-47 20-8 98 13 119 32 17 14 20 14 33-3 15-21 3-46-21-46-8 0-15-5-17-11-2-5-18-11-35-11-34-1-47-16-33-39 7-11 17-11 55-1 55 14 85 15 85 2 0-23-103-51-255-70-50-6-100-16-112-22-18-9-27-8-40 4-10 9-28 19-40 22-18 6-23 15-23 41 0 19 5 46 12 62 6 15 12 35 12 43 1 8 8 15 16 15s14-8 14-17c-1-11 5-18 15-18 26 0 61 29 61 51 0 20-24 26-35 9s-25-11-25 10c0 12 10 24 24 30 13 5 27 14 31 20s14 8 23 6c10-3 31-2 47 3 40 13 60 9 59-12zm-64-452c-7-8-21-15-31-15-11 0-19-5-19-12 0-6-3-9-6-6-13 14 18 48 43 48 21 0 24-2 13-15zm-11-81c38-8 40-22 4-26-22-2-29-9-31-30-3-26-1-28 31-28 20 0 37-6 40-13 11-28-5-63-34-76-40-17-39-49 1-57 25-5 30-11 30-35 0-19-6-30-20-34-26-8-26-39 1-56 16-11 21-26 22-67l2-53-30 7c-16 4-37 8-47 9-28 2-46 25-53 67-12 68-13 118-4 124 5 3 6 16 3 29s-3 29 2 36c8 14 14 62 17 134 3 74 9 80 66 69zm-369-90c0-29 25-32 68-7 29 16 32 16 49 1 10-10 20-32 21-51 2-34-8-44-60-61-34-11-17-26 30-27 26-1 39-3 30-6-10-2-18-10-18-17 0-23-45-39-88-31-24 4-49 2-61-4-11-6-47-14-81-18-71-7-73-3-40 87 28 76 41 100 70 131 42 44 80 46 80 3zm195-374c1-41-4-78-10-82-5-4-40-8-77-8-58 0-68 3-69 18 0 9-2 36-5 59-4 46 11 63 58 63 13 0 32 7 43 16 11 8 29 13 40 12 18-3 20-11 20-78zm-245 5c0-8-4-15-9-15-13 0-22 16-14 24 11 11 23 6 23-9z" transform="matrix(.1 0 0 -.1 -41.865651 180.566793)"/></svg>