<svg height="111.478919pt" preserveAspectRatio="xMidYMid meet" viewBox="0 0 111.436321 111.478919" width="111.436321pt" xmlns="http://www.w3.org/2000/svg"><path d="m634 1983c-20-7-40-10-45-7s-12-2-15-10c-3-9-10-13-15-10s-9 0-9-5c0-6-18-14-40-17-67-11-181-108-205-175-42-117-65-194-65-216 0-52 41-158 114-293 11-20 127-77 181-88 40-8 40-8 48-66 7-48 5-61-9-77-9-10-25-19-35-19s-25-13-33-28-26-34-40-42c-35-18-33-26 9-40 25-8 44-9 65-2 16 6 38 8 49 5s33-1 48 4c15 6 39 7 53 3s49-1 78 6c29 8 113 15 186 17 144 3 160 9 169 54 7 37-26 63-70 56-47-8-65 1-54 29 5 13 11 47 15 77 12 99 9 95 96 114 49 10 87 24 100 37 22 22 60 89 60 106 0 6 11 16 24 23 13 8 32 31 42 53 35 78 19 171-43 246-51 63-164 172-177 172-8 0-19 7-26 15-7 9-15 13-18 11-2-3-22 4-43 14-21 11-47 20-58 20s-23 5-26 10c-3 6-23 10-45 10-24 0-40 5-44 15-4 12-23 15-96 13-50-2-107-8-126-15zm166 3c0-3-4-8-10-11-5-3-10-1-10 4 0 6 5 11 10 11 6 0 10-2 10-4zm36-68c3-10 2-23-1-28-11-17 12-37 44-38 20 0 28 4 27 15 0 9 5 18 13 21 9 3 11-1 6-18-16-50 23-100 50-63 8 10 16 32 20 48l6 30 24-28c24-27 24-29 10-64-9-21-12-40-7-45 13-13 62 1 62 17 0 27 19 24 56-10 21-19 42-35 46-35 13 0 9-30-4-31-7 0-3-4 10-9 28-12 28-22 0-46-12-10-18-13-13-5 6 11 4 13-9 8-17-7-81 22-131 60-17 12-48 24-69 27-20 3-43 9-50 15s-26 11-43 13c-20 1-29 7-26 15 3 7-6 15-20 18-35 9-267 10-302 1-41-10-78-28-87-43-5-6-17-9-28-6-13 4-26-3-38-17-11-13-21-19-25-14-3 5 7 24 21 41 77 90 92 108 92 116 0 5 10 7 22 4 21-6 88 26 96 45 2 4 25 9 50 9 26 1 61 4 77 8 60 14 114 9 121-11zm-91-166c-3-3-11 0-18 7-9 10-8 11 6 5 10-3 15-9 12-12zm-30-73c1-2 5-62 8-134 5-137 19-195 45-195 10 0 12-3 6-9-5-5-22-7-37-4-25 5-27 9-22 34 4 18 2 29-4 29-30 0-91 172-91 259 0 26 2 27 46 25 25-1 47-3 49-5zm-125-7c0-4-5-13-10-18-20-20-19-57 1-85 11-16 16-29 11-29s-7-11-4-25c2-14 8-25 13-25s6-6 3-13c-2-7 4-30 15-52 20-42 19-55-5-55-15 0-46-59-38-72 3-5 0-8-6-8-7 0-10-7-7-14 9-22-31-31-52-12-10 9-23 16-30 16-51 0-120 97-136 190-4 22-11 43-16 46-25 15 45 110 87 119 10 2 44 13 74 24 57 21 100 27 100 13zm263-13c34-9 37-12 22-23-12-8-14-18-8-36 11-32 10-44-10-109-11-36-14-57-7-61 6-4 2-14-10-25-11-10-20-26-20-37 0-10-4-18-9-18-9 0-17 32-26 109-2 19-9 49-16 68-6 21-8 49-3 71 4 20 6 45 5 55-3 20 24 22 82 6zm152-43c11-5 24-10 28-11 17 0 25-29 15-49-13-27-80-127-94-143-15-15-77-53-88-53-4 0 4 16 19 36 18 23 26 43 22 59-2 14-1 22 4 20 9-6 16 103 8 117-4 6-4 19-2 29 4 14 11 17 37 12 17-3 40-11 51-17zm263-12c18-59-8-87-34-35-9 17-9 29 0 47 15 32 21 30 34-12zm-100-127c6-7 12-25 14-40 3-25-2-30-36-42-37-13-66-11-66 5 0 12 59 90 69 90 5 0 13-6 19-13zm-98-111c0-2-7-9-15-16-13-11-14-10-9 4s24 23 24 12zm-382-93c7-12 18-14 40-10 35 7 49-5 58-52 6-27 11-32 28-28 12 3 36 8 55 12l33 8-7-34c-4-19-9-54-10-79l-1-45-64-3c-36-2-74-1-86 2-22 6-49 60-38 77 4 7-24 112-42 157-8 18 24 15 34-5zm4 602c2-44 10-50 33-25 18 20 14 34-15 50-18 9-19 7-18-25zm-266-280c-2-7 2-25 10-40s14-40 14-56c0-22 5-29 20-29 20 0 24-9 21-42-3-29 29-68 56-68 22 0 24 3 18 27-3 15-15 39-25 54-11 14-24 38-30 53-5 15-15 24-20 21-6-4-10-3-9 2 3 18-2 32-17 47-8 9-11 16-5 16 19 0 12 17-8 23-11 3-22-1-25-8z" transform="matrix(.1 0 0 -.1 -24 199.817129)"/></svg>