<svg height="92.89216pt" preserveAspectRatio="xMidYMid meet" viewBox="0 0 85.49213 92.89216" width="85.49213pt" xmlns="http://www.w3.org/2000/svg"><path d="m497 1150c-26-10-62-32-79-49-18-17-35-31-40-31-4 0-8-7-8-15s-9-19-19-25c-11-5-23-20-27-32-4-13-18-33-31-45-13-13-23-29-22-35 1-7-3-24-9-38-14-31-34-149-36-210 0-25-5-51-9-58-9-13 20-67 50-94 35-31 94-58 127-58h33l6-92c8-141-3-132 151-125 107 4 139 9 173 27 58 30 63 39 69 117 7 123 6 118 39 120 71 4 157 62 186 127 28 61 25 146-6 204-14 26-25 51-25 57 0 5-18 29-40 53s-40 47-40 52c0 6-4 10-8 10-5 0-29 19-55 42-94 82-236 141-258 107-6-11-11-11-21-1-16 16-44 15-101-8zm133-70c0-5 8-10 19-10 10 0 32-7 47-15 16-8 37-15 46-15s38-21 65-46c26-26 58-53 71-61 12-9 22-23 22-33s7-23 15-30c9-7 27-37 41-66 25-53 26-99 3-135-8-12-10-12-19 1-5 8-10 28-10 44 0 35-43 113-78 141-14 11-56 36-93 56-68 36-72 36-179 36-61 0-110-4-110-9 0-4-11-8-25-8s-37-11-51-25c-25-25-44-32-44-16 0 5 7 14 15 21s15 18 15 25c0 14 65 75 80 75 6 0 10-4 10-10 0-5 7-10 16-10 19 0 54 37 54 57 0 7 15 19 33 27 39 17 57 19 57 6zm53-458c46-5 48-24 2-42l-34-14 22-15c23-16 25-17 65-19 19-2 23-7 20-29-2-20-9-28-23-29-11-1-34-2-52-3-21 0-36-8-43-20-9-17-5-21 26-31 27-9 38-9 43-1 12 18 41 1 39-22-2-17-9-22-31-23-17-1-34-10-44-23-11-17-22-21-39-17-17 5-24 2-24-8 0-13-4-13-27 0-16 7-36 14-45 14-10 0-18 7-18 15s-4 15-10 15c-5 0-7 31-5 78 6 97 14 132 33 155 18 21 71 38 92 29 8-3 32-7 53-10zm2 378c-16-7-17-9-3-9 9-1 20 4 23 9 7 11 7 11-20 0z" transform="matrix(.1 0 0 -.1 -21.517734 116.882656)"/></svg>