<svg height="77.157698pt" preserveAspectRatio="xMidYMid meet" viewBox="0 0 52.049892 77.157698" width="52.049892pt" xmlns="http://www.w3.org/2000/svg"><path d="m470 909c-68-19-138-51-157-72-41-46-72-172-54-219 7-18 6-29-2-38-9-9-9-14-1-17 7-2 10-12 7-22-4-15 4-21 44-30 26-6 64-11 83-11 82-1 77 6 79-98 2-110 17-230 32-248 13-16 56 4 63 31 10 36 6 154-5 160-6 4-7 14-3 24 4 9 7 40 8 70l1 54 65 18c36 9 76 20 90 23 37 9 60 45 47 76-5 14-9 33-8 43s-3 25-9 33c-7 7-10 24-7 36 8 30-13 75-58 126-63 69-122 86-215 61z" transform="matrix(.1 0 0 -.1 -25.013425 91.989365)"/></svg>