<svg height="92.294243pt" preserveAspectRatio="xMidYMid meet" viewBox="0 0 82.224613 92.294243" width="82.224613pt" xmlns="http://www.w3.org/2000/svg"><path d="m524 1210c-29-4-76-20-105-36-52-29-169-130-169-146 0-5-11-24-24-41-43-58-59-129-54-238 3-68 10-106 21-123 10-14 17-32 17-41 0-14 30-21 43-9 11 11 157 11 172 0 10-8 16-36 20-93 2-44 13-105 23-135l19-53 89 2c50 1 90 7 92 13 2 5 8 8 12 5 18-11 81 29 86 55 3 14 8 32 12 40 10 26 10 54 1 73-6 9-6 17-1 17 4 0 7 17 6 37-3 64 6 93 32 99 13 3 28 12 34 19s18 11 28 9c28-6 94 47 108 88 10 30 10 47-1 93-7 31-19 63-27 73-16 19-48 85-48 100 0 5-7 16-16 23s-20 23-25 35c-12 33-101 100-164 123-58 22-94 24-181 11zm36-113c0-5 35-5 78-2 65 6 80 5 91-9 11-13 10-17-10-25-56-23-97-87-49-74 11 3 20 9 20 15 0 5 7 5 18 0 20-11 43-5 58 16 6 8 16 12 22 8 17-11 15-46-3-46-9 0-19-8-22-17-9-24-45-58-62-58-24 0-23-21 3-33 19-8 29-7 47 6 13 9 27 22 32 28 4 7 14 11 23 7 8-3 21 2 28 12 11 15 13 15 25 1 33-40-21-96-100-102-21-1-43-5-49-9-16-10-12-28 6-21 9 3 24-4 37-18 17-19 27-22 40-15 9 6 22 7 28 3 14-8-27-29-73-38-20-4-38-12-41-19-3-8-22-12-52-11-31 1-48-3-52-12-3-8-9-11-14-8s-9 0-9-5c0-15-26-14-53 3-15 9-60 14-147 14-116 1-125 2-132 22-5 14-3 22 7 26 20 8 19 44 0 44-8 0-15 9-15 20 0 19 4 20 38 15 20-4 44-9 52-11s21 0 28 5c12 7 12 12 1 30-10 15-28 23-61 27-27 4-48 11-48 16 0 11 49 30 61 22 11-6 69 17 69 28 0 24-15 38-42 38-42 0-30 25 13 26 63 1 63 2 44 30-17 26-17 27 11 50 16 13 36 24 44 24s26 7 39 14c18 10 29 10 47 2 13-6 24-15 24-19zm-300-241c0-3-4-8-10-11-5-3-10-1-10 4 0 6 5 11 10 11 6 0 10-2 10-4zm354-295c-5-23-2-29 15-34 12-3 21-12 21-21s8-16 20-16c35 0 22-17-35-44-30-15-57-31-60-37-10-15-44-10-54 9-5 10-11 49-13 87l-3 69 33 2c19 1 38 6 44 12 19 19 38 2 32-27zm67 16c-13-13-26-3-16 12 3 6 11 8 17 5 6-4 6-10-1-17zm-354 191c-22-8-26-14-21-31 9-30 10-30 45-30 39 0 52 19 32 50-17 26-17 26-56 11z" transform="matrix(.1 0 0 -.1 -17.122267 121.794243)"/></svg>