<svg height="166.412246pt" preserveAspectRatio="xMidYMid meet" viewBox="0 0 146.067274 166.412246" width="146.067274pt" xmlns="http://www.w3.org/2000/svg"><path d="m780 1731c-158-53-220-83-291-142-26-22-54-39-62-39-9 0-20-15-26-32-6-18-30-53-52-78-75-83-146-233-119-250 7-4 9-13 5-20-6-9-9-9-16 1-6 10-9 3-9-19 0-43 37-77 91-86 38-6 41-8 35-32-4-14-25-66-47-114-26-60-38-98-35-116 3-15 1-35-5-45-9-17-20-85-36-216-4-35-2-58 6-67 7-8 10-20 6-25-11-18 13-83 51-138 20-30 34-56 30-60-3-4-23 1-42 11-20 9-39 14-42 12-3-3-11-1-19 5-10 9-13 8-13-4 0-8-5-17-12-19-40-14 119-128 179-128 13 0 32 5 43 12 15 10 24 9 44-1 22-12 29-12 50 3 34 22 44 20 58-9 15-33 55-30 90 7 23 25 28 27 41 14 20-20 123-19 154 1 16 11 23 12 23 4 0-7 5-9 13-4 6 4 34 9 60 10 27 1 56 5 65 9 25 10 63 17 160 29 41 5 53 3 58-9 7-18 61-11 82 11 10 9 28 12 60 7 73-9 238 12 260 34 10 10 16 25 14 33-11 37-71 52-99 24-21-22-35-8-28 27 6 27 5 29-13 19-11-6-22-17-26-26-7-18-36-20-36-2 0 7 5 18 12 25s9 12 5 12-3 9 3 20 14 40 19 66c7 36 6 47-5 51-12 4-12 7 1 17 19 14 29 61 29 144 0 34 4 62 10 62s5 5-1 11c-8 8-8 20-3 34 5 13 7 25 5 27-3 2-7 26-10 53-12 97-87 217-163 263l-33 19 43 32c24 17 53 38 65 47 13 9 20 21 17 26s2 8 12 6c17-3 19 4 18 59-1 64-40 169-70 186-7 4-11 14-8 21 3 8-6 22-20 33s-26 26-28 34-14 24-28 37c-14 12-32 29-41 37s-21 15-27 15c-7 0-12 5-12 11 0 5-4 8-9 5-5-4-11-2-13 2-6 15-113 89-128 89-8 0-44 3-80 7-60 6-76 2-210-43zm197 33c-3-3-12-4-19-1-8 3-5 6 6 6 11 1 17-2 13-5zm158-169c12-14 25-25 30-25 14-1 80-64 88-83 8-22-46-42-117-42-57 0-61 2-79 33-21 36-25 99-7 132 15 28 56 20 85-15zm-508-82c-14-75-33-85-84-46l-35 27 29 25c24 22 94 62 100 57 1-1-3-29-10-63zm737-135c11-43 7-52-14-28-11 13-20 29-20 37 0 22 27 15 34-9zm-924-34c22-15 40-30 40-35 0-4 9-10 20-14 13-4 25-25 37-62 9-30 23-58 30-60 7-3 13-18 13-34 0-22-5-29-19-29-11 0-23 5-26 10-3 6-26 10-51 10s-55 5-66 11c-15 8-19 8-14 0 10-16-9-14-23 3-7 8-27 17-46 20-32 6-35 10-33 39 2 17 10 45 19 62 33 62 61 105 70 105 5 0 27-12 49-26zm476-63c48-13 64-28 68-68 2-15 4-31 5-35 0-5 11-8 24-8h22l-23-18c-19-15-33-17-70-11-26 3-49 4-52 0-9-14-40-21-40-9 0 7-13 9-35 5-41-7-51 13-39 71 4 21 7 40 6 45-1 4 4 7 11 7 8 0 22 9 32 20s25 18 34 16c9-3 35-10 57-15zm190-237c-5-14 1-15 43-9 30 4 51 3 55-4 7-11-66-51-93-51-21-1-51-24-51-39 0-16 132-7 170 13 29 14 30 13 48-17 11-18 32-67 47-111 26-70 27-79 12-87-9-5-23-16-31-24s-23-15-33-15-29-7-41-16c-12-8-22-10-22-5 0 6-8 11-17 11-26 0-85-39-78-51 5-7 13-5 25 6 17 15 19 15 23-2 4-16 6-16 12 4 6 19 12 21 72 16 57-4 68-2 85 17 23 24 40 18 33-13-3-12-7-35-9-52-3-26-16-74-42-162-3-13-9-23-13-23-3 0-17-18-31-40-28-45-89-79-138-78-17 1-38-6-47-16-9-9-23-17-31-17-8-1-17-2-21-4-5-1-21-5-36-10-22-6-32-3-44 12-16 20-17 20-37-2-12-13-40-27-63-33l-42-10-19 39c-13 26-15 40-8 43 6 2 3 5-6 5-13 1-18-7-18-27 0-39-27-61-67-55-18 3-33 9-33 14s-7 9-15 9-15 4-15 8c0 17 25 32 52 32 25 0 28 4 28 31 0 24-4 30-15 25-20-7-45 3-45 19 0 14-31 25-75 25-17 0-37 6-43 12-10 10-15 10-22-2-7-11-5-16 8-19 9-2 28-8 42-14s32-9 40-8c9 2 3-8-12-22-25-23-31-25-59-15-26 9-33 8-41-6-10-18-58-22-58-5 0 6-10 9-22 7-16-2-31 7-50 31-16 18-29 37-29 40-11 50-19 202-12 229 4 18 12 22 41 22h36l-32-30c-28-25-31-33-22-50 6-11 16-18 21-14 27 16 132 31 201 28l77-3-15 25c-10 14-26 24-41 24-13 0-21 4-18 10s17 10 31 10c31 0 61 27 46 42-7 7-27 6-64-1-36-8-63-8-79-2-14 5-50 7-80 5s-61-1-70 1c-19 7-32 42-18 51 6 3 8 11 6 17-8 23 36 122 68 157 25 26 32 41 28 61-5 28 14 50 44 51 10 0 53-1 96-2 100-3 99-22-2-32-114-10-113-25 0-34 64-6 78-4 93 11 12 13 14 21 7 28-21 21-10 25 67 27 42 1 93 3 112 5s75 7 124 10 92 7 94 10c3 3 14 5 25 5 13 0 17-5 13-16zm302-111c16-36 15-53-3-53-9 0-15 9-15 24 0 14-4 28-10 31-15 9-12 35 3 30 6-3 18-17 25-32zm-23-623c3-5 4-10 1-10-2 0-12-3-20-6-12-5-15-2-10 10 7 18 20 21 29 6zm-771-28c17-9-20-22-49-16-43 9-52 16-29 25 18 7 58 2 78-9zm212 643c-3-8-1-15 4-15 6 0 10 7 10 15s-2 15-4 15-6-7-10-15zm-358-7c-16-5-28-14-28-19 0-15 261-20 272-5 4 6 15 6 31-1 28-13 52-2 44 21-6 15-47 22-59 10-9-8-211-11-223-3-5 3-22 2-37-3zm770 2c-3-11-25-18-62-19-15-1-16-3-6-16 9-11 16-13 24-5 5 5 18 10 28 10 18 0 36 26 25 36-3 3-7 0-9-6zm-143-70c-7-12 2-12 30 0 19 8 19 9-2 9-12 1-25-3-28-9zm-385-21c0-5 5-7 10-4 6 3 10 8 10 11 0 2-4 4-10 4-5 0-10-5-10-11zm-60-9c0-5-7-10-16-10-10 0-14-6-10-15 7-19 1-19-23 1-28 24-227 29-236 6-9-25 33-53 70-46 17 3 34 10 38 14 5 4 38 5 73 2 37-3 75 0 87 6 12 5 30 13 41 16 15 5 16 9 6 21-14 17-30 20-30 5zm604-15c22-54 21-52 2-32-21 21-14 21-61-3-22-11-44-20-51-20-6 0-17-7-24-15-10-12-16-13-26-4-11 9-14 7-14-9 0-31 16-36 40-12 11 11 25 18 30 15 6-4 10-1 10 6s11 9 33 5c38-7 93 7 90 23-2 6 3 11 11 11 16 0 29 27 20 41-3 5-19 9-36 9-23 0-29-4-24-15zm19-240c-7-21 1-28 25-21 32 10 36 36 6 36-13 0-27-7-31-15zm-53-24c0-8-19-10-65-5-45 5-65 3-65-4 0-16 34-22 102-19 61 2 68 7 43 27-11 9-15 9-15 1zm-675-42c-16-5-44-8-62-7s-35-1-39-5c-4-3-18-4-31-1-17 5-31 0-49-17-32-30-31-37 14-44 32-6 52-12 94-33 4-1 5 4 2 11-3 8-22 18-41 22l-36 6 27 27c22 22 29 25 45 15 19-12 146-12 158 0 3 4-2 7-12 7s-23 6-29 14c-8 10-19 11-41 5zm667-54c-10-12-10-15 1-15 8 0 20 7 27 15 17 21-10 20-28 0zm-99-32c-23-9-14-20 12-15 14 2 25 8 25 13 0 10-17 11-37 2z" transform="matrix(.1 0 0 -.1 -17.179959 177.600141)"/></svg>