<svg height="177.029456pt" preserveAspectRatio="xMidYMid meet" viewBox="0 0 110.632864 177.029456" width="110.632864pt" xmlns="http://www.w3.org/2000/svg"><path d="m635 2014c-78-10-95-16-95-29 0-8-6-15-13-15-21 0-62-52-81-102-26-70-7-178 32-178 7 0 15-7 18-15 5-11 21-15 63-15 74 1 125 13 165 41 37 25 79 100 70 124-4 9 0 15 9 15 8 0 17 4 19 9 4 11 148 21 148 10 0-7-101-49-119-49-5 0-14-6-20-13-17-21 10-53 35-42 10 5 21 9 24 10 3 0 15 4 26 8 12 4 34 3 50-3 28-11 29-12 9-27-11-8-34-21-52-29-29-13-30-15-20-39 10-21 17-24 37-20 51 12 81 31 87 53 3 14 11 21 19 18 9-3 11 0 7 11s-2 14 8 11c8-3 16-18 19-34 5-25 1-32-32-52-22-14-38-31-38-42 0-16-4-17-30-10-28 8-30 7-30-17 0-19 4-24 16-19 9 3 22 6 30 6s22 8 32 18c10 9 32 24 48 32 23 13 29 23 29 50 0 40 11 41 55 8 28-20 28-22 12-43-9-13-34-28-54-34-21-7-38-16-38-20 0-5-16-12-35-15-19-4-39-15-45-25-8-16-17-18-50-14-25 4-62-1-98-12-31-10-70-19-87-20-16-1-42-7-57-13-46-19-187-32-298-28l-105 4-3 31c-2 20 4 42 18 61 12 16 18 34 15 40s0 13 9 16c8 3 12 12 10 19-4 8 6 16 25 20 17 4 35 14 40 22 10 18 3 53-11 53-18 0-99-84-93-97 2-8 0-11-5-8-13 8-40-19-40-39 0-8-4-17-9-20-8-5-17-49-28-136-3-25-9-51-13-59-14-26 53-180 83-188 9-3 17-13 17-23 0-21 26-45 60-55 14-4 27-11 30-15 3-3 38-17 78-30 40-12 75-26 77-30 7-11 10-283 4-295-3-6-5-95-5-198 1-147 4-190 15-196 8-5 11-16 7-28-5-15 2-27 28-47 38-28 27-28 149 2 42 11 67 28 67 47 0 6 11 18 25 25 22 12 24 18 19 64-11 121-17 202-14 216 7 55 7 217-1 232-6 12-6 18 0 18s9 36 7 90 1 93 7 97 8 0 4-10c-7-18 8-24 18-7 3 5 15 10 25 10s23 6 27 13c4 6 24 21 43 31s43 26 54 35c25 22 66 87 66 106 0 8 7 15 15 15s22 18 31 40 22 40 30 40 14 3 14 8c0 4 18 27 40 52 22 24 40 47 40 50s6 37 14 75c8 39 17 84 19 102 3 17 8 36 11 42 7 10-75 101-91 101-4 0-14 15-22 33-15 35-55 75-111 113-28 18-50 23-105 24-62 2-132-8-175-24-20-8-34 3-53 39-29 57-67 77-132 69zm34-134c35-34 37-40 16-80-20-38-55-63-71-49-8 6-14 6-18 0-7-11-60 2-82 20-20 17-17 62 7 103 19 33 25 36 69 36 39 0 53-5 79-30zm251 20c0-5-2-10-4-10-3 0-8 5-11 10-3 6-1 10 4 10 6 0 11-4 11-10zm121-67c32-19 42-51 12-37-10 4-28 8-40 8-13 1-23 4-23 8 0 3-3 13-6 22-8 22 20 21 57-1zm-56-391c5 0 11-5 13-11 5-14-60-31-73-18-7 6-6 11 3 14 6 3 12 11 12 19 0 11 5 12 18 5 9-5 21-9 27-9zm-111-38c10-26 7-32-16-36-33-5-35-34-2-42 23-6 25-11 19-34-5-24-10-50-14-89 0-7-12-12-26-11-15 2-24 7-21 14 6 16-10 78-35 133-26 55-20 71 26 69 19-1 38 2 42 5 11 11 20 8 27-9zm-536-37c3-30 0-37-15-37-23 0-43 42-31 64 17 30 43 14 46-27zm215 14c16-6 33-9 38-5 12 7 30-41 35-96 2-25 11-63 20-84 19-48 6-68-25-37-12 12-29 21-40 21-23 0-39 18-43 50-7 46-48 93-48 55 0-10-10-15-28-15-32 0-82 48-82 79 0 11-4 23-10 26-5 3-10 12-10 19 0 14 147 4 193-13zm184-14c2-35 18-84 43-134 17-35 18-39 3-50-30-23-53-15-71 25-10 20-24 48-31 61-20 37-22 119-2 125 37 10 56 1 58-27zm315-12c-8-25-19-45-24-45s-14-5-21-10c-77-65-91-67-81-12 4 20 10 44 14 52 11 20 79 58 106 59 21 1 21 0 6-44zm-381-338c-13-13-26-3-16 12 3 6 11 8 17 5 6-4 6-10-1-17zm-6-97c-4-12 2-24 16-34 19-13 25-13 50-1 27 14 28 14 34-15 8-35-2-71-18-67-6 1-13-8-15-21s-10-26-18-29c-17-6-9-43 12-56 14-8 9-74-7-92-5-5-9-18-9-28 0-15 5-18 24-13 33 8 48-14 43-63-2-28-13-51-32-71-60-62-72-38-80 161-4 85-7 161-7 169-1 8-5 18-10 21-4 3-4 25 0 50 5 24 5 57 1 73-9 32-3 50 12 40 5-3 7-14 4-24zm102-251c1-19-1-25-4-14s-9 24-14 30c-13 13-11 27 4 23 6-3 13-20 14-39zm-264 941c-34-20-39-34-23-60 15-24 94 7 98 39 6 42-26 51-75 21z" transform="matrix(.1 0 0 -.1 -21.826281 201.536164)"/></svg>