<svg height="165.811594pt" preserveAspectRatio="xMidYMid meet" viewBox="0 0 196.943878 165.811594" width="196.943878pt" xmlns="http://www.w3.org/2000/svg"><path d="m1080 1889c0-6-9-8-20-4-11 3-25 3-32-2-7-4-22-9-32-10-11-2-24-7-30-12s-20-5-31-1c-36 13-202-44-235-81-8-9-25-19-37-23s-50-27-83-52c-33-24-67-44-75-44-9 0-26-10-39-22-13-13-34-24-48-25-31-2-74-37-95-78-9-16-22-35-29-43-8-7-14-19-14-27 0-7-6-15-14-18-7-3-28-40-46-83-30-72-32-85-28-161 6-110 12-117 125-137 67-12 89-45 60-90-9-13-16-32-16-42 0-11-3-53-7-95-9-101 12-179 82-314 54-104 54-106 35-126-15-16-29-20-66-17-41 3-48 0-51-17-4-28 5-39 53-64 50-25 57-26 76-6 10 10 23 12 43 7 40-11 64-4 64 18 0 19-6 27-45 56-19 14-19 15 5 13 45-4 110 20 110 40 0 22-16 36-52 45-35 8-68 43-68 72 0 13-4 25-9 28-5 4-8 14-7 24 2 13 12 17 42 16 70-2 166-17 154-24-18-11 12-19 55-15 21 2 41 8 45 14 3 7 14 9 22 6 9-4 19-2 23 4 3 6-1 11-9 11-9 0-13 6-10 13 6 17-63 22-82 6-9-7-19-7-35 1-13 7-38 9-65 5-26-3-44-2-44 3 0 16-58 35-89 29-38-8-47 4-43 54 4 41 4 41 40 36 19-4 43-2 54 4 14 8 20 6 25-8 10-26 34-42 64-43 15 0 32-7 39-15 20-24 55-18 70 11 17 30 3 44-45 44-72 1-106 12-121 41-11 22-22 29-43 29-16 0-43 3-60 6-26 5-31 11-31 34 0 14 3 29 6 32 12 12 69-13 91-39 12-16 22-25 23-21 0 4 11 3 24-2 35-13 179-22 172-11-3 5 3 7 14 4s20-1 20 5c0 5-21 15-47 22-27 7-56 14-65 17-12 3-18-1-18-11 0-9-5-16-11-16s-9 9-6 20c4 15-1 21-19 25-13 3-36 7-50 10-56 12-7 19 154 20 92 1 193 4 224 7 32 3 90 9 130 13 72 7 114 17 195 50 28 11 47 14 58 7 11-5 46-4 98 5 57 10 87 11 99 4 10-6 26-7 45 0 15 5 66 18 112 29 69 16 87 18 97 8 25-26 20-49-16-68-67-35-86-41-134-45-63-4-80-27-28-38 43-10 192 20 199 41 7 17 30 15 37-4 10-27 7-44-8-38-13 5-35-9-78-48-10-10-25-18-33-18-44 0-151-77-133-96 7-7 78 9 78 17 0 5 6 9 13 9 6 0 21 7 32 16 17 12 18 16 5 24-9 5 1 7 27 3 48-6 80 9 85 39 5 32 26 33 39 1 8-19 8-43 1-78-6-32-6-57 0-71 8-16 4-34-17-78-15-31-28-63-29-70-3-24-27-45-42-39-17 6-43-23-44-48 0-9-11-28-25-43-29-32-49-66-42-73 3-3 19-2 36 2 21 4 31 13 31 25 0 23 42 50 79 50 17 0 40 5 53 11 28 13 78 82 78 109 0 10 7 23 16 28 8 5 16 23 16 40 1 18 5 32 9 32 5 0 9 19 9 43 1 23 2 56 2 72 2 65-10 186-19 198-6 6-13 32-17 57-8 48-44 130-58 130-22 0 7 20 74 53 93 44 138 86 138 126 0 28-17 79-30 91-7 6-28 53-27 60 3 15-95 142-153 200-79 80-132 110-195 110-46 0-54 7-33 28 8 8 9 12 1 12-6 0-13-5-15-11-2-7-12-7-33 1-23 9-26 13-15 20 12 8 11 10-5 11-11 1-29 3-40 5s-31 4-45 5c-14 2-27 6-30 10-5 7-151 18-306 24-45 2-98 8-118 13-23 7-36 7-36 1zm-90-98c0-5-16-11-35-13-38-4-49 8-12 15 39 8 47 7 47-2zm313-44c58-63 83-154 53-199-19-29-82-65-132-74-28-5-40-2-57 14-25 23-93 62-108 62-22 0-34 27-36 80-2 52-1 56 28 73 17 9 41 17 53 17s27 5 32 10c17 17 98 39 127 35 16-3 34-11 40-18zm187-1c0-20-30-29-47-14-13 10-12 13 4 19 29 12 43 10 43-5zm-550-180c0-3-4-8-10-11-5-3-10-1-10 4 0 6 5 11 10 11 6 0 10-2 10-4zm657-41c13-9 25-31 28-53 3-20 10-45 16-54 14-27 10-51-14-79-54-64-160-76-171-19-1 8-11 32-21 53-17 34-18 40-4 63 15 25 115 102 134 103 6 1 20-6 32-14zm320-7c4-7 17-42 30-78 17-49 20-66 10-72-12-8-67-12-97-8-21 3-60 40-60 58 0 8-9 27-21 43-27 38-19 48 33 42 29-3 49 0 63 11 25 19 32 20 42 4zm-985-77c39-15 118-97 118-123 0-34-26-65-73-89-84-43-187-3-187 74 0 15-4 27-9 27s18 27 52 60c67 65 65 64 99 51zm-592-70c0-6-4-13-10-16-5-3-10 1-10 9 0 9 5 16 10 16 6 0 10-4 10-9zm-49-100c-3-24-11-46-18-48-11-4-6 31 13 86 9 26 11 6 5-38zm275 3c0-25 13-53 36-83 27-36 8-49-36-26-33 18-36 18-54 2-13-12-28-15-50-11-37 7-41 23-12 49 11 10 22 26 25 36 4 11 11 19 16 19s20 9 31 20c26 24 43 21 44-6zm-270-89c11-27-2-37-14-11-7 16-8 26-1 26 5 0 12-7 15-15zm484-135c0-5-4-10-10-10-5 0-10 5-10 10 0 6 5 10 10 10 6 0 10-4 10-10zm1060-375c-19-14-45-25-59-25-14-1-37-7-51-15s-35-14-47-15c-28 0-38-17-22-36 9-11 23-13 53-8 23 3 44 11 47 17 4 5 12 6 18 3 6-4 9-12 6-17-7-11-89-49-106-49-6 0-9-7-5-15 3-8 0-15-6-15-8 0-8-3-2-9 12-13 104 7 105 22 1 7 1 16 0 21s5 6 14 3c8-4 15-2 15 3s9 11 19 15c25 8 35 45 13 45-12 0-4 12 22 35 22 19 34 35 27 35-8 0-11 6-7 15 7 20 6 19-34-10zm-1030-192c0-5-28-9-62-11-78-3-93-16-43-36 44-19 55-20 55-6 0 5 8 9 18 8 49-4 62 2 60 27-2 22-28 38-28 18zm672-11c-15-10-7-38 14-46 8-3 11-12 8-21-4-9 1-21 11-29 10-7 15-18 12-23-4-6 9-18 28-28 28-16 36-17 49-6 12 10 13 17 5 27-6 7-8 17-5 23 4 5-3 13-14 16-12 4-31 27-43 51-20 43-38 52-65 36zm516-43c-10-10-18-23-18-27 0-12-44-52-58-52-15 0-16-26-1-35 5-4 18 0 28 9s22 16 28 16c18 0 44 37 37 53-3 8-1 25 6 36 13 26 1 26-22 0zm-761-20c-6-21 27-78 45-80 16-2 42 2 46 6 2 2-6 21-17 43-23 44-66 63-74 31zm-165-1c-6-6-12-18-12-25 0-21 31-64 41-57 5 3 9 2 9-3 0-4 11-9 25-9 14-1 25 2 25 7s-5 9-11 9c-5 0-8 3-6 8 3 4-9 24-27 45-25 30-34 35-44 25zm-278-22c-6-17 12-56 26-56 6 0 10-7 10-15 0-22 56-20 62 3 7 31-2 48-38 65-42 21-53 21-60 3zm-154-36c-9-17-6-26 15-52 15-17 37-40 50-50 21-17 25-17 39-2 17 16 22 44 9 44-5 0-26 18-48 40-47 46-51 47-65 20z" transform="matrix(.1 0 0 -.1 -19.056122 189.33266)"/></svg>