<svg height="119.908743pt" preserveAspectRatio="xMidYMid meet" viewBox="0 0 68.627794 119.908743" width="68.627794pt" xmlns="http://www.w3.org/2000/svg"><path d="m725 1421c-95-37-153-95-214-214-69-135-92-258-70-385 15-90 22-100 74-113 25-6 47-15 50-18 5-9 7-209 2-235-2-11-30-36-61-56l-58-37 28-20c36-24 100-43 147-43 26 0 39-6 51-25 13-20 25-25 56-25 21 0 42 5 45 10 4 6 12 9 18 8 16-3 83 20 127 43 19 10 55 20 80 23 111 12 128 22 116 71-6 22-12 24-69 27l-62 3v150c0 159 5 210 20 210 26 2 55 18 55 31 0 8 4 14 9 14s13 17 18 38c16 61-8 224-45 307-48 109-56 125-64 125-5 0-8 8-8 18 0 9-22 41-48 70-43 47-52 52-87 51-22-1-71-13-110-28zm126-108c34-37 75-120 65-130-4-4-12 0-17 9-8 14-14 14-56 3-27-7-60-16-75-19-23-5-28-12-28-36v-30h62c56 0 65 3 93 30 36 35 43 31 64-36 12-38 12-69-1-128-6-27-28-32-28-7 0 14-6 21-18 21-22 0-139-57-148-72-12-19 11-27 53-17 26 7 47 8 58 2 15-9 13-12-10-27-14-9-32-15-38-13-7 2-29-2-51-9-51-18-91-18-106 1-14 17-40 20-40 4 0-6-16-9-37-7-36 3-38 5-41 39-3 35-2 36 34 37 21 1 40 5 43 9 3 5 19 13 35 18 65 22 12 57-60 41-26-6-39-12-30-14 23-5 20-22-4-22-20 0-28 24-11 35 6 3 8 14 6 24-5 27 5 36 55 52 35 11 46 19 48 38 5 30-15 43-50 35-17-3-28-1-28 5 0 20 73 119 97 132 12 7 23 18 23 26 0 7 12 13 28 14 15 0 36 4 47 9 32 14 40 12 66-17zm89-383c0-5-9-10-21-10-11 0-17 5-14 10 3 6 13 10 21 10s14-4 14-10zm-55-240c4-21 4-44 1-49-4-5 2-14 11-20 17-10 17-10 0-11-10 0-16-4-12-9 9-15-15-24-30-11-16 14-35 5-35-16 0-8-9-14-21-14-31 0-14-15 20-18 22-2 31 2 31 13 0 8 9 15 20 15 17 0 19-5 16-32-8-58-23-85-53-93-43-12-154-10-161 3-11 17-14 215-4 230 7 10 15 11 28 4 39-19 82-29 112-24 34 5 39 11 21 29s-3 43 25 43c20 0 25-6 31-40zm-110 606c-11-9-28-16-37-16-23 0-44-38-30-52 11-11 82 15 82 30 0 4 10 12 21 17 12 6 22 15 23 20 2 16-38 17-59 1zm63-210c-33-14-58-45-51-63 7-17 27-16 66 1 18 8 44 17 58 20 22 5 25 10 21 31-3 21-10 25-36 24-17 0-43-6-58-13z" transform="matrix(.1 0 0 -.1 -43.30993 144.908743)"/></svg>