<svg height="117pt" preserveAspectRatio="xMidYMid meet" viewBox="0 0 169.53748 117" width="169.53748pt" xmlns="http://www.w3.org/2000/svg"><path d="m1170 1583c0-5-28-7-62-5-59 3-67 0-125-38-35-23-63-48-63-56s-7-14-15-14-23-10-35-22c-22-24-34-19-35 15 0 15-11 27-35 39-76 37-151 14-242-75-57-56-58-56-107-50-37 4-68 0-120-17-76-24-108-50-166-135-35-50-38-60-38-122 0-88 4-123 13-123 4 0 10-9 13-19 2-10 17-27 32-37 24-15 32-16 78-4l51 13 38-44c22-24 59-84 84-134 24-49 51-99 59-109 8-11 15-33 15-49 0-20 6-30 20-34 23-6 26-19 8-26-7-3-3-6 9-6 17-1 23 6 29 33 6 34-13 106-28 106-4 0-5 7-2 15 4 8 1 15-5 15s-11 8-11 18-8 29-17 42c-10 14-18 31-20 39-1 8-22 44-47 81-52 75-55 86-26 95 11 3 20 11 20 16 0 15 25 10 43-8 25-26 64-87 72-114 4-13 25-60 45-104 21-44 44-98 51-120s16-44 20-48c7-9 63 16 73 31 6 10-55 160-84 207-10 16-28 59-39 94-12 36-28 72-37 82-21 23-4 31 31 13 16-8 35-12 42-10 7 3 27 3 43-1 27-5 30-9 30-43 0-20 3-40 7-44 4-3 7-30 8-59 2-98 18-247 26-247 5 0 9-5 9-12 0-6 8-20 17-30 16-18 16-21-7-63-18-33-21-48-13-56 19-19 47-6 63 29 9 20 25 34 40 38 14 3 58 15 97 27l73 22v80c1 69 2 78 14 62 7-9 16-35 20-57 5-34 10-40 31-40 14 0 25 4 25 9 0 4 29 11 64 14 67 6 106 23 106 44 0 7 4 13 9 13 6 0 17 26 27 58 9 31 20 67 25 80s9 32 9 42c0 22 15 27 22 8 7-17-6-113-22-168-8-28-10-61-6-83 11-59 54-63 59-6 2 13 15 48 30 78s27 59 27 64c0 4 12 24 26 43 15 19 23 34 19 34-3 0 0 7 7 15s18 21 25 28c8 11 30 13 86 9 42-2 91-2 111 2 32 6 35 9 31 36-2 17 0 30 5 30 12 0 23 56 22 115 0 34-8 66-26 99-14 27-26 55-26 63 0 25-72 103-107 118-51 22-152 9-231-28-48-22-59-19-43 12 9 16 8 28-4 51-9 16-13 30-10 30 8 0-25 51-54 83-30 34-72 57-101 57-11 0-20 5-20 10 0 6-7 10-15 10s-15-3-15-7zm-40-115c0-5-7-8-15-8-9 0-15-9-15-25 0-27 21-34 71-22 6 1 13-6 14-15 2-12-6-19-26-23-20-5-29-13-29-27 0-16 5-19 24-14 15 4 26 1 28-6 3-8 11-7 28 5 23 16 36 47 20 47-17 0-21 35-4 47 26 19 52-1 80-64 16-33 33-57 45-60 20-6 20-6 1-27-11-11-23-30-26-41-16-49-30-56-129-62-78-4-100-2-120 12-17 11-27 13-32 6-16-26-118-1-168 40l-32 27 18 36c9 20 17 43 17 52 0 8 11 20 25 26s25 17 25 24c0 20 131 83 167 81 18-1 33-5 33-9zm-363-44c2-6-8-16-22-22-17-8-25-19-25-38 0-25 2-25 40-19 45 8 47 5 23-32-10-14-18-33-20-42-1-9-13-26-27-38-31-26-34-53-6-60s25-18-13-47c-48-36-64-34-59 8 4 38-37 132-76 171-19 19-21 28-13 43 31 57 184 117 198 76zm68-14c-3-5-11-10-16-10-6 0-7 5-4 10 3 6 11 10 16 10 6 0 7-4 4-10zm691-162c-1-29 2-33 27-36 18-2 29 2 33 12 3 9 12 16 19 16s16 6 19 13c3 8 12 4 26-13 23-25 11-42-14-21-14 12-20 8-58-37-14-18-14-21-2-26 9-3 12-10 9-16-3-5-2-10 4-10 5 0 13 5 16 10 4 6 11 8 16 5 5-4 9-3 9 2 0 8 47 33 61 33 4 0 19-31 34-69 28-73 27-128-2-117-8 3-31 6-50 6-29 0-33 3-24 14 6 7 9 20 5 29-3 8 0 18 6 22 9 6 9 9 0 15-16 10-39-10-33-27 3-7-17-22-48-36-58-27-94-24-133 11-12 11-34 26-51 33-23 11-31 22-33 46-6 57 64 163 102 155 10-2 23 1 29 7 21 21 35 12 33-21zm-1190 6c-5-14-1-16 29-11 26 4 35 2 35-8 0-8-4-16-9-19-11-7-11-55 1-62 36-23 94 42 82 92-6 24-5 26 17 19 44-13 81-83 59-110-17-21-163-87-217-99-18-4-35-12-38-17-4-5-24-9-46-9-33 0-41 4-49 26-6 14-8 35-6 47 3 12 7 34 10 49 8 35 89 118 117 118 15 0 19-4 15-16zm549-153c3-6 25-13 50-16 74-12 78-18 66-115-5-47-9-101-8-120 0-19-3-72-7-118-7-72-11-84-30-91-94-36-93-37-102 239-3 102-7 191-10 198-8 27 26 46 41 23zm391-48c8-46 31-93 44-93 16 0 12-35-10-85-11-26-20-53-20-61 0-25-53-73-87-80-31-6-32-6-28 32 1 22 8 58 14 82 18 63 23 100 25 167 0 38 5 60 13 60 6 0 15 3 19 8 15 15 23 6 30-30zm-152-27c4-19 2-45-3-57-15-41-34-132-33-163 1-33-23-76-30-54-2 7-4 27-3 43 11 173 19 242 27 253 18 22 36 13 42-22zm86 237c-14-7-33-13-42-13-30 0-22-37 9-43 30-6 73 7 73 22 0 5 3 16 6 24 7 20-16 26-46 10zm103-660c1-62 18-93 50-93 17 0 19 5 12 47-7 46-37 103-55 103-5 0-8-26-7-57zm159 25c-5-8-6-22-1-33 4-11 8-38 9-60 1-54 21-80 49-66 26 15 45 47 31 56-5 3-10 21-10 40 0 24-7 39-26 54-31 24-38 25-52 9zm-340-58c-27-36-28-66-3-73 28-7 60 18 54 43-3 12 0 20 6 20 16 0 5 17-18 29-14 8-22 4-39-19zm-735-16c-4-4-3-12 0-18 4-6 7-22 7-36 1-18 7-26 23-28 29-4 49 39 33 69-10 18-49 26-63 13zm1253-25c0-6-6-9-14-6-9 4-13 0-12-11 3-20 43-29 59-13 7 7 6 15-3 26-15 18-30 20-30 4zm-1386-21c-7-24 19-51 46-45 19 4 14 37-8 54-24 17-30 16-38-9zm674-15c-22-24-23-43-3-43 18 0 28 21 23 46-3 14-5 14-20-3zm-338-7c0-8-8-16-17-18s-17-13-18-25c-1-18 4-23 21-23 12 0 25 8 30 18 12 28 11 62-3 62-7 0-13-6-13-14z" transform="matrix(.1 0 0 -.1 -12.705556 159)"/></svg>