<svg height="82.263507pt" preserveAspectRatio="xMidYMid meet" viewBox="0 0 70.801895 82.263507" width="70.801895pt" xmlns="http://www.w3.org/2000/svg"><path d="m1065 1647c-31-11-47-25-90-82-16-22-44-54-61-71-40-40-43-103-6-119 12-5 22-13 22-17 0-5 10-8 23-8 69-1 80-20 47-84-27-54-45-146-30-156 6-4 9-17 5-32-8-31 7-43 35-28 19 10 27 29 33 82 2 15 6 30 10 34s7 18 7 30c0 28 20 74 32 74 4 0 8 7 8 16 0 13 6 15 28 9 15-3 34-13 43-21 26-24 63-16 101 20 36 35 56 99 38 121-5 6-8 26-5 43 2 17 0 34-5 37s-7 12-4 20c11 27-118 129-172 137-17 2-43 0-59-5zm-192-554c-7-2-13-13-13-23 0-23 31-90 41-90 4 0 9-9 12-20 6-24 15-25 41-5 19 15 19 15-2 38-17 18-19 26-10 35s4 19-22 42c-18 16-34 30-34 29-1 0-7-3-13-6zm-114-8c-1-3-2-8-3-12-1-5-4-13-8-18-8-13 36-125 54-136 15-10 52-12 61-3 11 12-37 120-66 147-30 27-36 31-38 22zm291-35c-12-22-8-43 17-103 13-29 21-37 37-35 19 3 21 9 18 67-1 36-8 71-14 78-16 19-46 16-58-7zm190-75c-23-30-49-55-56-55-18 0-18-10 2-38 9-13 13-29 10-37-4-11 2-15 17-15 34 0 97 76 97 118 0 10 5 23 11 29 12 12-8 53-27 53-6 0-31-25-54-55zm-617-11c-10-22-9-26 11-33 12-5 28-16 35-25s22-16 32-16c11 0 19-5 19-11 0-5 5-7 10-4 12 7 13 65 2 80-29 40-92 45-109 9z" transform="matrix(.1 0 0 -.1 -61.664303 165.263507)"/></svg>