<svg height="77.168886pt" preserveAspectRatio="xMidYMid meet" viewBox="0 0 88.341447 77.168886" width="88.341447pt" xmlns="http://www.w3.org/2000/svg"><path d="m494 986c-112-28-169-71-240-179-24-39-46-118-58-209l-5-47 54-11c51-11 85-23 145-54 16-8 24-20 22-32-14-110-13-141 7-185l21-44h122c128 1 148 5 148 33 0 14 2 14 9 3 18-29 31 1 29 72 0 40-3 76-6 82-3 5-7 16-7 25-1 8-5 24-8 36-9 26 32 49 83 45 19-1 58 3 85 9 64 14 173 69 178 90 9 43-40 124-135 221-90 91-212 151-318 155-41 2-98-2-126-10zm147-87c42-8 69-17 69-24 0-14-22-25-48-25-36 0-45-15-32-54 6-20 15-36 20-36 16 0 65 25 75 38 6 7 20 14 33 15 12 0 22 5 22 9s9 8 20 8c34 0 22-24-25-49-46-24-56-48-35-81 8-13 13-11 35 12 14 15 41 30 61 34 19 4 38 13 41 20 6 16 33 19 33 3 0-6 14-30 30-54 34-50 36-55 15-55-8 0-15 5-15 10 0 6-9 10-20 10s-19-5-18-11c2-7-13-16-32-21-19-6-38-16-43-23-4-8-15-11-23-8-9 3-20 0-24-7-7-11-35-17-125-25-16-1-30-3-30-4s-38-3-85-5c-75-3-93 0-152 26-37 15-74 28-82 28-22 0-20 35 6 89 35 75 41 79 111 75 77-5 107 10 86 44-8 12-22 22-31 22-31 0-20 29 15 39 44 13 68 13 148 0zm-211-49c0-5-2-10-4-10-3 0-8 5-11 10-3 6-1 10 4 10 6 0 11-4 11-10zm135-397c8-18 18-23 47-23 44 0 54-12 38-49-19-47-127-80-158-49-7 7-12 36-12 64 0 29-4 56-10 59-22 14-8 22 38 21 39-1 49-5 57-23zm-219 280c-17-44-8-53 54-53 49 0 61 3 70 20 13 24-6 35-72 42-35 4-48 2-52-9z" transform="matrix(.1 0 0 -.1 -19.0561 99.668886)"/></svg>