<svg height="129.455238pt" preserveAspectRatio="xMidYMid meet" viewBox="0 0 115.154908 129.455238" width="115.154908pt" xmlns="http://www.w3.org/2000/svg"><path d="m875 1725c-27-7-67-14-88-14-27-1-45-8-61-26-13-14-26-25-30-25s-26-15-50-32c-42-32-92-112-111-178-3-14-14-41-23-60-13-27-17-62-16-149 1-114 1-114 30-138 22-18 26-25 15-32-7-5-9-11-5-13 13-7 58-3 72 6 7 4 45 10 85 13l72 5 18-42c25-59 33-128 16-134-8-2-23-7-34-12-11-4-38-8-60-10-35-3-101-12-145-20-8-2-29-5-46-9-24-4-33-12-37-31-6-31 9-38 61-30 20 3 119 8 218 10 100 2 187 7 194 11 6 4 77 6 158 4 220-3 382-1 427 5 86 13 94 16 93 39-2 27-26 57-41 52-7-3-65-6-130-8-108-4-144 2-117 18 14 9 12 38-5 71-8 16-15 45-15 66 0 39 1 40 106 52 18 3 46 12 63 20 26 14 31 22 31 51 0 20-6 44-12 55-9 14-10 22-1 31 8 8 6 19-5 42-9 18-15 44-14 59 1 16-2 28-7 28s-13 9-16 20c-10 32-106 124-166 158-30 17-65 42-78 56-14 14-29 26-36 26-6 0-18 9-27 20-10 11-30 22-45 25-15 4-38 11-51 16s-28 7-33 4c-5-4-15-3-21 2-20 12-79 11-133-2zm145-162c0-7 6-13 14-13 16 0 56-59 56-84 0-9 4-16 9-16s12-16 15-35c4-19 10-35 14-35s8-10 8-22c1-13 5-39 9-59 6-32 5-37-15-42-35-9-80 3-81 22-3 97-42 227-70 236-20 7-26 25-8 25 5 0 7 5 4 10-4 6-11 7-17 4-6-4-8-2-5 4 12 18-4 42-28 42-13 0-27 5-31 11-5 8 1 10 17 6 13-3 33-1 44 3 15 6 25 2 42-18 13-15 23-33 23-39zm-136 42c10-7 15-18 12-23s3-12 13-15c14-3 18-11 14-25-3-14 1-22 14-26 14-4 18-17 19-53 1-27 5-74 9-105s4-69 1-83c-6-24-11-26-48-23l-41 3-3 65c-2 36-3 75-4 88 0 12-4 22-9 22-6 0-9 12-8 28 1 18-2 26-12 24-8-2-11 3-8 13 7 18 3 19-25 4-17-9-23-8-30 5-14 25-44 19-56-11-22-55-32-200-17-236 4-10 3-23-3-29-15-15-124-10-134 5-19 30 11 155 61 255 27 55 107 111 159 113 15 0 36 4 47 9 27 11 27 11 49-5zm259-37c27-14 77-63 77-76 0-5 11-18 25-28s25-23 25-29c0-5 14-37 30-69 17-32 30-65 30-72s-17-18-37-23c-30-8-42-7-61 5-13 9-22 18-19 20 8 8-13 98-25 105-6 4-12 20-14 35-2 16-17 55-33 86-32 62-31 64 2 46zm-342-135c10-25 16-180 7-188-2-1-12-5-24-9-20-6-21-3-23 83-1 80 9 141 24 141 3 0 10-12 16-27zm617-48c14-29-2-34-18-6-12 24-13 31-2 31 5 0 14-11 20-25zm-346-289c5-9 13-14 18-11s12 1 15-5c4-6 25-8 53-4 45 6 47 5 48-19 1-19-8-33-37-53-23-16-39-35-39-47 0-17 5-19 45-15 44 5 66-5 49-22-5-4-71-10-146-12-111-4-138-2-138 9 0 7-6 13-14 13-7 0-16 10-20 23-9 33-8 37 12 37 9 0 25 7 35 14 17 13 17 15 1 31-12 11-20 13-27 6-20-20-44-11-57 20-15 36-7 46 40 51 79 8 153 0 162-16zm-158-369c-5-17-7-17-18-1-10 14-20 15-52 8-35-7-36-8-12-12 19-2 25-8 21-18-5-13 5-15 65-12 38 1 68 0 66-3-2-4 6-7 19-7 12 0 108-2 212-5 109-3 206-1 228 4 40 10 49 32 20 48-27 13-342 14-358 1-10-8-20-8-33-1-10 5-49 11-85 13-58 3-68 1-73-15zm106-134c-17-12-24-12-37-2-13 11-17 10-29-6-8-11-10-23-5-28 12-12 60-16 67-5 3 5 12 4 20-3 13-10 40-10 204 7 8 0 25 2 38 3 12 0 22 8 22 16 0 15-28 26-65 24-11 0-59 2-107 4-66 4-91 2-108-10zm70-96c-27-7-30-10-19-23 7-9 22-14 34-12 12 3 27-1 33-9 16-17 52-16 76 2 16 12 17 16 4 28-17 18-85 25-128 14z" transform="matrix(.1 0 0 -.1 -47.612614 173.539304)"/></svg>