<svg height="128.132887pt" preserveAspectRatio="xMidYMid meet" viewBox="0 0 189.206025 128.132887" width="189.206025pt" xmlns="http://www.w3.org/2000/svg"><path d="m1193 1591c-165-84-184-98-326-238-81-79-96-99-116-155-34-97-48-125-54-108-3 8-17 61-31 118-15 57-33 110-41 119-17 16-20 59-5 68 12 7 13 65 2 80-19 27-65 45-111 45-43 0-53-4-67-25-9-14-14-34-11-45 3-10-1-27-9-37-19-25-17-35 11-66 18-19 36-27 60-27 25 0 40-8 59-31 14-17 26-34 26-39 0-21-44-19-102 4-68 27-148 47-159 40-4-2-9 7-13 19-7 29-55 54-67 36-5-9-17-8-47 4-48 19-51 17-82-67-21-55-21-61-7-91 11-24 24-34 49-39 19-4 34-2 36 4 2 5 9 10 15 10 7 0 31 18 55 40l43 40 39-25c23-15 55-25 76-25 20 0 48-8 62-19 15-10 37-22 50-25 12-4 22-13 22-19s12-21 27-33c27-21 28-26 31-130 2-89 0-109-13-116-11-7-15-25-15-67 0-96-26-99-91-9l-19 26 25 20c52 41 36 121-34 169-26 18-46 22-97 21-35 0-68-6-73-12-24-31-22-146 3-146 17 0 126-109 126-126 0-21-22-27-54-14-16 6-34 6-43 2-29-16-63-1-78 34-8 19-21 34-29 34-9 0-16 6-16 14s-7 17-16 20c-55 21-98-18-108-98-6-48-4-60 14-86 32-45 75-42 130 10 46 43 55 48 46 25-6-17 1-19 114-35 41-6 82-18 91-26s23-12 34-8c12 5 16 4 11-4-3-6 2-13 11-16 16-5 43-48 43-68 0-4-16 2-35 13-20 12-35 16-35 10s-6-11-14-11-16-7-20-15c-3-9-18-15-39-15-25 0-37-6-46-24-15-26-64-40-93-25-9 5-25 9-35 8-10 0-13-3-5-6 15-6 16-33 1-33-5 0-7-5-4-11 4-6 20-9 36-7 17 1 33-2 37-8 8-11 49-16 56-6 2 4 45 5 96 2s94-1 97 3 10 4 16-2c7-5 46-11 87-14s89-10 105-17c41-17 71-19 304-24 206-3 267 2 282 25 4 8 39 16 80 20 40 3 75 11 77 18 2 6 19 18 38 27 28 14 32 19 23 35-12 22-44 24-90 5-19-7-43-11-54-8s-50 4-87 3l-68-2v45c0 25 5 48 11 52 6 3 9 14 6 25-3 10 3 24 12 32 20 18 102 21 112 5 9-14 46-18 153-18 66 0 81 3 96 20 9 11 26 20 36 20 41 0 148 84 174 135 8 17 21 34 27 38 17 10 17 34 1 40-9 3-5 11 10 23s25 33 27 54c2 19 4 35 5 35s7 43 14 100c2 24-1 49-10 62-7 12-11 29-8 37s-7 34-23 58c-15 23-30 54-33 68-3 13-16 30-28 36-14 7-19 13-11 16s3 18-17 47c-16 24-34 51-39 60-19 31-50 61-61 61-7 0-14 7-18 15-3 8-10 15-16 15s-18 7-26 15c-9 8-24 15-35 15-10 0-19 6-19 14 0 18-64 28-97 15-15-5-30-6-37-1-19 16-69 20-88 8-13-8-21-8-26 0-4 6-34 11-68 11-45-1-74-7-111-26zm351-76c30-14 57-29 61-35 5-9-30-34-49-35-14 0-26-54-19-89 6-33 29-66 47-66 35 0 84 22 89 40 3 11 12 20 21 20s16 7 16 15 5 15 11 15c20 0 79-71 79-95 0-13 5-25 12-27 6-2 12-13 13-25 0-11 8-31 17-45 17-26 33-99 29-138-5-67-24-160-32-160-5 0-9 7-9 15s-4 15-10 15c-5 0-10 9-10 20 0 15-7 20-25 20-13 0-35 5-49 11-33 16-61-4-46-31 14-27 12-50-4-50-8 0-17 15-20 34-6 32-53 105-68 106-4 0-16 7-25 14-10 8-28 23-40 33-17 13-21 25-16 46 3 15 12 27 19 27 19 0 18 36-2 70-18 29-71 60-103 60-23 0-40-20-50-57-6-22-12-27-32-25-13 2-28 8-33 13-14 13-54 11-58-2-2-7-16-4-37 8-25 13-35 15-38 6-6-16-13-16-36 1-14 11-16 19-7 40 11 29-9 96-29 96-6 0-22 12-36 26-25 24-26 44-3 44 7 0 21 9 32 19 12 11 33 23 48 26 24 6 30 3 45-23 21-36 56-46 104-29 53 19 59 26 59 66 0 21 3 41 7 44 17 17 124 6 177-18zm-537-183c-1-20 2-53 7-73 7-35 7-36-21-36-15-1-44-5-64-10-33-9-36-9-32 8 3 11 10 19 15 19s7 8 4 18c-4 12 3 30 19 48 23 26 28 38 27 54 0 3 10 7 23 8 20 1 23-2 22-36zm148-192c21-8 25-13 16-23-6-8-10-29-9-48 1-49-12-118-24-125-17-11-38 26-31 56 3 16 0 44-6 63-13 40-5 87 14 87 8 0 26-5 40-10zm-143-27c-2-17 2-23 15-23 11 0 14-3 7-8-8-5-9-28-2-80 6-41 8-75 5-78-18-19-63 41-96 130-21 56-21 59-4 72 10 8 32 13 48 11 25-2 29-6 27-24zm283 3c31-7 55-19 55-27 0-6-11-35-25-66-14-30-23-62-21-72 8-25-36-52-72-45l-30 6 12 42c6 22 11 66 11 96-2 58 15 85 45 74 8-3 20-7 25-8zm140-74c-2-3 9-20 26-39 16-19 28-40 26-46-2-7-21-22-43-34-21-12-44-26-50-32-7-5-15-7-18-4-3 4-20-4-37-16-39-29-52-18-16 13 15 13 24 26 20 29-3 4 0 13 7 22 7 8 10 24 7 35s1 27 10 35c13 13 13 17-1 31-20 20-20 28-1 20 9-3 15 0 15 9 0 8-6 15-12 15-9 0-8 3 2 10 11 7 22 2 42-17 15-15 26-29 23-31zm-560 12c8-20 15-46 15-58 0-31 66-130 91-136 21-5 21-5 1-23-19-17-20-17-43 8-13 13-29 25-36 25-6 0-31 18-54 40-48 44-50 45-67 28-15-15-19-10-24 24-2 22 7 39 42 78 25 27 48 49 52 50 4 0 15-16 23-36zm-88-166c14-24 11-38-7-38-23 0-32 13-24 34 7 19 20 21 31 4zm766-15c11-6-12-43-27-43-7 0-20-8-30-19-11-12-36-20-73-24-98-10-156 13-70 29 23 4 44 8 47 9 3 0 15 6 26 13 12 6 24 9 26 6 3-2 13 7 24 21 17 23 45 26 77 8zm-338-34c10-10 6-11-40-13-27-1-30-4-29-31 0-16-5-34-13-38-20-12 25-75 61-85 42-11 48-36 7-28-17 3-44 9-61 12-23 4-30 2-30-10 0-9 4-16 9-16s8-8 7-17c-1-15 9-19 52-21 43-3 53-6 48-18-3-9-6-20-6-25 0-19-44-27-72-13-26 14-28 13-28-6 0-12 5-18 10-15 6 3 10-3 10-14 0-13 11-23 36-31 31-10 33-13 19-24-22-16-216-10-227 7-9 14-10 122-2 152 3 12 15 25 27 30 16 7 24 25 33 65 15 72 32 110 64 137 21 19 33 22 70 17 25-4 49-10 55-15zm-375-19c0-20-1-20-25-4-14 9-25 18-25 20s11 4 25 4c18 0 25-5 25-20zm900-70c0-5-4-10-9-10-6 0-13 5-16 10-3 6 1 10 9 10 9 0 16-4 16-10zm-937-25c15-8 44-17 63-21 41-8 51-23 34-55-13-23-20-80-20-166l-1-53h-50c-51 0-52 1-64 53-9 45-95 114-95 77 0-5-7-7-16-3-13 5-15 16-9 71 9 85 11 90 49 101 46 14 78 13 109-4zm-238-265c3-5 1-10-4-10-6 0-11 5-11 10 0 6 2 10 4 10 3 0 8-4 11-10zm1156 705c-17-19-37-35-46-35-21 0-19-22 7-72 34-66 54-73 108-35 44 30 48 73 12 133-15 24-32 44-38 44-7 0-26-16-43-35z" transform="matrix(.1 0 0 -.1 -7.254668 161.663983)"/></svg>