<svg height="168.009144pt" preserveAspectRatio="xMidYMid meet" viewBox="0 0 129.506092 168.009144" width="129.506092pt" xmlns="http://www.w3.org/2000/svg"><path d="m745 1926c-108-34-180-79-262-163-46-46-86-95-89-108-3-14-10-25-14-25-9 0-71-103-84-140-5-14-12-29-16-35-33-42-104-290-103-355 2-41 11-145 18-192 9-57 54-142 79-146 11-2 27-13 35-24 9-10 26-20 39-21 12-1 22-4 22-8 0-13 62-21 180-25 63-1 118-3 123-3 4-1 5-18 2-38-4-21-7-92-9-158l-2-120-47-7c-60-8-67-13-67-48 0-38 13-44 95-46 39 0 82-4 96-8 36-10 410 9 418 21 3 6 16 13 28 17s23 15 25 24c6 27-52 78-96 85-21 3-41 9-44 12s-7 63-9 133-5 147-6 171l-2 44 70 23c126 42 229 107 248 158 4 10 11 15 16 12 13-9 38 24 60 82 11 28 19 52 17 52-3 0-1 13 3 28 6 18 4 37-4 52-7 13-10 41-7 67 5 47-23 160-59 239-10 23-19 45-19 50s-17 37-38 71c-46 76-144 181-177 189-14 3-25 10-25 15s-8 9-18 9c-23 0-91 36-122 65-48 45-186 72-255 51zm-10-178c21-13 143-19 203-10l63 9 55-54c30-30 52-58 48-64-4-8-10-7-17 0-15 15-42 14-56-3-6-8-32-17-57-21-25-3-54-15-66-27-13-13-39-22-74-25-30-3-57-10-60-14-3-5-13-5-22 0-16 8-69 17-157 26-22 3-45 11-51 20-6 8-14 12-17 8-4-3-7 0-7 9 0 31 36 48 121 58 46 5 90 11 97 12 35 4-4 38-45 38-36 0-38 2-23 30 9 18 43 22 65 8zm470-225c67-108 69-127 13-136-42-6-51-1-36 23 18 29 4 34-39 13-21-10-45-18-53-19s-28-2-45-3-25-5-19-9 14-16 18-27c5-19 1-20-52-21-31 0-97-3-147-6-102-6-242 5-258 21-8 8-2 11 20 11 18 0 35-4 38-10 10-16 29-11 43 11 12 18 11 24-1 36-15 15-68 32-130 40-20 3-40 9-43 14-9 16-74 11-74-6 0-8-4-15-9-15-4 0-6-11-4-24 7-32-10-40-37-16l-22 19 26 34c14 19 26 36 26 40 0 3 13 19 29 35l29 29 34-29c62-53 87-59 204-53 59 3 130 12 157 20 58 17 133 20 142 5 4-7 13-6 27 1 11 6 31 9 45 6 27-5 57 18 49 39-5 12 7 21 29 23 6 1 23-20 40-46zm125-36c0-5-4-5-10-2-5 3-10 14-10 23 0 15 2 15 10 2 5-8 10-19 10-23zm-810-61c0-3-4-8-10-11-5-3-10-1-10 4 0 6 5 11 10 11 6 0 10-2 10-4zm630-40c0-11-19-15-25-6-3 5 1 10 9 10 9 0 16-2 16-4zm-784-24c-10-32 75-116 160-158 62-30 79-35 97-26 29 14 70 26 80 24 4-1 7 12 7 28 0 33 8 35 95 31 22-1 62 3 89 9 46 10 157 21 236 24 20 1 34 6 33 12s15 14 35 17 44 8 53 12c11 4 18 0 22-12 4-10 14-28 23-41 17-22 16-24-39-77-31-30-65-55-76-55s-23-4-26-10c-3-5-17-10-31-10s-23-4-19-9c9-16-25-41-58-43-89-4-154-13-186-25-42-17-247 23-271 52-7 8-23 15-36 15s-24 5-24 10c0 6-8 10-17 10-10 0-29 9-43 20s-31 20-37 20c-7 0-13 5-13 10 0 6-12 10-26 10s-23 4-20 9c6 9-15 21-35 21-26 0 15-91 49-109s85-71 69-71c-9 0-19 4-22 10-3 5-23 14-44 20-21 5-55 26-76 46l-38 35 33 102c18 56 35 105 37 110 8 15 24 6 19-11zm1038-107c-4-8-13-15-21-15-13 0-13 3-3 15 7 8 16 15 21 15s6-7 3-15zm-74-156c0-25-23-71-45-89-14-11-17-10-22 9-4 17-8 19-19 10-8-6-14-18-14-25 0-8-11-14-26-14-43 0-115-22-111-34 4-11 18-11 76 0 40 8 40-10 1-31-58-31-265-79-430-100-69-9-241-4-234 7 2 3-16 16-41 28s-45 26-45 31c0 12 14 11 27-2 14-14 115-7 121 9 2 7-6 12-23 12-15 0-38 9-52 20s-32 20-39 20c-8 0-14 4-14 9s-14 11-31 15c-18 3-28 10-24 17 4 6-2 13-14 16-35 9-24 26 12 18 32-7 144-24 312-49 50-8 93-12 96-10s42 6 85 9c96 7 141 14 163 25 9 4 48 18 86 30 39 12 79 30 90 40 27 24 98 59 108 53 4-2 7-13 7-24zm-1020-39c-8-5-7-9 4-13 9-4 16-17 16-30s5-28 12-35c6-6 9-14 6-17-3-4-11 0-17 7-38 44-51 62-51 69 0 4-3 14-6 22-4 11 1 13 21 9 17-3 22-7 15-12zm618-367c2-13 0-23-5-23-4 0-8-15-7-32 1-28-3-34-25-38-14-3-31-16-38-30-11-22-10-27 12-45 27-22 32-40 22-70-8-25-59-56-74-47-12 8-21 75-28 204-5 85-4 88 17 92 91 20 122 17 126-11zm20-151c2-23-1-32-11-32-16 0-32 45-21 61 11 19 29 3 32-29zm2-76c0-11-19-15-25-6-3 5 1 10 9 10 9 0 16-2 16-4zm215 774c-11-5-38-9-60-9-47-1-85-10-85-21 0-4 27-10 60-13 73-6 130 9 130 35 0 19-13 22-45 8zm-285-560c0-5 5-10 11-10 5 0 7 5 4 10-3 6-8 10-11 10-2 0-4-4-4-10z" transform="matrix(.1 0 0 -.1 -17.746449 193.309251)"/></svg>