<svg height="72.468913pt" preserveAspectRatio="xMidYMid meet" viewBox="0 0 89.801173 72.468913" width="89.801173pt" xmlns="http://www.w3.org/2000/svg"><path d="m512 1500c-72-17-126-106-134-220-2-31 9-49 75-123 27-31 27-31 77-18 58 15 90 8 90-21 0-11 10-36 21-55 21-33 27-79 29-213 1-50 20-71 58-64l30 6-4 72c-5 86-24 207-35 222-5 6-10 19-12 30-2 10-8 29-15 41-17 31-15 38 13 53 14 8 23 20 21 27-3 7 1 13 8 13s19 7 26 15c11 13 9 20-13 43-15 16-27 40-27 54 0 24-42 78-61 78-5 0-9 6-9 13 0 10-92 60-103 56-1-1-17-5-35-9zm526-141c-80-44-158-175-114-192 7-3 16-20 20-37 6-30 8-32 40-26 26 5 35 3 40-10 3-9 2-22-3-28s-15-31-22-56-18-52-25-60c-21-26-39-84-36-112 6-53 85-44 96 11 3 17 9 45 12 61 4 17 10 30 14 30 5 0 11 12 14 28 4 15 9 38 12 52s6 32 6 40c1 22 19 31 51 24 48-10 117 5 117 25 0 9 5 22 11 28 8 8 6 19-5 41-9 17-16 42-16 55 0 14-7 30-15 37-8 6-17 21-21 32-9 30-53 68-78 68-12 0-30 2-41 5-11 2-37-5-57-16z" transform="matrix(.1 0 0 -.1 -37.773908 150.925984)"/></svg>