<svg height="131.33307pt" preserveAspectRatio="xMidYMid meet" viewBox="0 0 166.011812 131.33307" width="166.011812pt" xmlns="http://www.w3.org/2000/svg"><path d="m1318 1485c-2-3-29-7-59-9s-59-5-65-5c-6-1-21-10-34-21s-30-20-39-20c-27 0-118-87-140-134-25-51-28-64-37-162-6-66-5-74 12-81 10-4 19-2 22 5 2 7 11 12 19 12 11 0 6-9-15-30-18-16-36-30-41-30s-29-24-54-52c-43-51-62-95-58-130 1-9-3-19-9-23-5-3-10-14-10-24s-6-24-14-30c-14-12-48-138-48-178 0-13-6-23-13-23-21 0-52-102-54-178-1-36 2-43 16-40 11 2 21 19 28 46 7 29 18 47 34 55 33 16 38 28 52 130 7 48 17 87 22 87s7 12 4 27c-4 22 2 34 29 60 19 17 34 40 34 51s7 26 17 33c9 8 24 31 33 51 17 38 104 138 119 138 5 0 11 7 15 15 3 8 9 14 13 14 4-1 16 1 26 6 21 9 38-10 63-65 11-25 12-41 5-56-12-27-93-53-143-47-44 6-47-3-13-35l25-24-23-28c-27-35-32-36-59-11-17 16-24 18-39 8-20-13-25-27-9-27 6 0 10-6 10-14s7-16 15-20c18-7 19-29 2-76-21-59-24-62-74-54-36 5-45 4-41-7 2-8 17-15 31-17 34-4 35-30 7-95-14-32-18-55-13-74 10-40 10-46 0-68-9-18-12-16-42 19-19 23-37 36-44 32-17-11-13-34 6-45 10-5 14-13 10-17s-1-14 7-23 16-25 18-36c4-24 43-28 43-4 0 26 47 67 80 71 24 2 30 7 28 26-2 13 3 22 12 22 21 0 25 14 14 46-9 22-8 41 2 74 7 25 13 50 14 55 7 54 34 112 73 153 27 29 33 31 60 21 17-6 33-17 36-25 4-11 15-14 38-9 18 3 52 9 76 12 23 3 45 10 48 14 3 5 25 9 49 9 25 0 59 8 77 18 18 11 50 24 71 31 82 28 162 114 172 188 2 12 11 37 19 55 9 18 16 44 16 58v61c1 46-13 81-55 145-34 51-107 124-125 124-5 0-21 11-35 24-15 14-47 32-72 40-44 15-134 22-145 11zm70-120c40-12 58-24 77-53 14-20 25-47 25-59 0-28 16-30 25-3 3 11 11 20 16 20 19 0 49-21 49-34 0-8 14-28 30-46 58-62 47-133-32-228-16-18-28-39-28-46 0-15-78-48-92-40-5 4-1 14 10 24 23 22 38 88 23 103-6 6-4 18 7 35 15 23 15 27-1 53-9 16-14 35-11 43 3 7-2 19-11 26-8 7-15 19-15 27s-11 24-25 35-25 25-25 33c0 7-13 18-30 25-16 7-30 18-30 26 0 7-9 22-21 33s-18 24-14 30c8 14 12 14 73-4zm-223-495c3-5 2-10-4-10-5 0-13 5-16 10-3 6-2 10 4 10 5 0 13-4 16-10zm23-58c4-23-12-28-37-13-12 8-13 12-1 26 17 20 34 14 38-13zm-750 361c-10-10-27-40-38-67-19-41-21-58-15-122 7-73 8-74 36-75 16 0 42-1 57-2 45-1 108 34 126 71 20 41 20 66 1 82-8 7-15 18-15 24s-17 31-37 54c-45 50-90 63-115 35zm52-151c0-13-12-22-22-16s-1 24 13 24c5 0 9-4 9-8zm-318-121c-19-12-82-145-82-173 0-17 9-43 21-59 17-24 28-29 61-29 41 0 108 25 108 41 0 19 49 9 55-11 3-11 15-24 24-30 14-7 80-121 86-150 3-14 30-67 41-80 19-24 74-132 74-144 0-7 6-21 14-31 11-15 17-17 28-8 17 14 33 4 33-19 0-10 4-18 9-17 5 0 13-5 18-13 10-16 8 121-3 172-4 19-18 43-29 52-18 15-21 24-15 65 7 59 8 200 1 212-3 5-8 29-11 52-3 24-10 48-15 53-4 4-6 15-3 22 3 8 0 14-6 14s-11 9-11 20c0 21-33 44-53 37-19-6-15-60 5-82 10-10 17-24 14-30-2-5 3-18 11-27 20-23 24-211 5-230-11-11-18-8-38 17-13 17-27 39-30 50-4 11-10 22-14 25-3 3-19 28-35 57-39 73-67 97-117 102-4 1-13 20-20 44-7 23-20 53-30 65-16 24-78 45-96 33zm438-545c0-2 3-11 6-20 4-11 1-16-11-16-24 0-56 20-50 31 6 9 55 13 55 5zm-255 54c-3-5 2-22 11-37 20-33 64-77 64-66 0 4 4 2 9-6 13-21 41-6 34 18-3 12-10 21-17 21-6 1-23 19-38 40-27 39-51 50-63 30zm722-55c-15-8-33-12-40-10-7 3-30-11-51-31-30-28-36-38-25-44 9-6 32 1 68 20 30 17 62 30 72 30 25 0 34 19 18 36-12 12-18 11-42-1zm-818-2c-10-50 7-82 43-83 9 0 18-6 21-12 2-7 7-10 11-7 8 7-11 44-40 82-22 27-33 33-35 20zm188-84c7-7 15-10 18-7s-2 9-12 12c-14 6-15 5-6-5zm645-33c-9-11-12-16-5-13 6 4 13 1 16-5 3-10 13-9 41 5 20 9 34 22 31 27-10 16-64 7-83-14z" transform="matrix(.1 0 0 -.1 -9 149.033239)"/></svg>