<svg height="158.856809pt" preserveAspectRatio="xMidYMid meet" viewBox="0 0 96.567864 158.856809" width="96.567864pt" xmlns="http://www.w3.org/2000/svg"><path d="m1018 2319c-21-17-38-35-38-39 0-5-13-29-30-53-16-25-30-51-30-58s-6-20-13-28c-36-44-90-332-66-347 6-4 7-10 0-17-12-15-17-79-8-94 4-6 2-15-4-18-25-16 5-231 37-267 9-9 30-18 47-20 41-4 47-28 61-220 4-50 13-89 26-112 26-47 17-45-30 6-41 46-62 46-40 1 7-16 14-32 14-38 2-16 26-55 47-76 10-10 19-23 19-29 0-18 43-60 62-60 24 0 23 21-2 53-11 14-20 30-20 36 0 5-9 17-21 25-22 15-18 36 6 36 45 0 58 120 31 283-7 43-10 80-6 82 15 10 27-16 44-95 10-47 22-95 27-107 4-13 4-25 0-28-15-9-3-76 15-90 17-12 17-14 1-39-10-15-17-39-17-54 1-30 7-128 9-154 1-22 38-33 57-17 10 8 11 15 3 25-6 8-7 22-3 36 8 22 10 38 18 138 5 60 4 58 23 56 23-1 31 42 10 50-11 4-13 13-8 32 4 15 4 45-1 67-4 22-11 67-14 100-12 109-9 135 14 135 13 0 14 2 3 9-8 5 4 7 32 4l47-6 20 47c13 32 17 53 11 64-12 24-22 130-13 136 10 6 5 99-9 158-6 26-8 51-5 57 4 5-1 28-10 51-13 33-14 44-4 50 8 5 9 10 2 14-6 4-9 13-5 21 3 8 0 15-6 15s-11 11-11 24c0 12-10 43-23 67s-31 64-40 89c-22 57-64 104-107 119-48 16-61 14-102-20zm82-69c14 0 18-40 4-48-19-10-6-52 16-52 10 0 25-12 35-26l16-25-29 4c-24 4-32 0-41-21-16-33-2-47 47-47 31-1 36-4 34-20-5-26-33-45-55-39-16 5-18 1-15-28 3-32 4-33 56-36 50-3 52-4 52-31 0-31-14-41-61-41-18 0-32-6-36-17-9-23 45-65 75-58 17 4 22 1 22-15 0-15-7-20-29-20-56 0-83-55-33-65 15-4 37-8 50-11 46-9 38-68-9-70-39-1-44-3-57-24-10-17-10-23 2-35 8-8 21-16 28-16 7-1-14-7-47-14s-75-16-92-20c-36-8-47 9-13 20 44 14 13 68-37 64-66-5-73-1-73 36 0 34 1 35 38 35 35 1 72 18 72 35 0 16-36 34-66 35-35 0-44 13-37 52 4 21 14 28 48 38 43 12 44 13 28 36-8 13-21 24-27 24-7 0-20 6-30 13-23 17-6 64 29 77 30 11 32 27 6 54-17 19-18 27-8 81 6 33 19 69 29 79 10 11 18 25 18 32 0 22 52 75 67 70 8-4 18-6 23-6zm289-1097c0-5-2-21-3-38-3-42-34-87-56-80-24 8-43-19-73-101-22-60-24-75-13-89 12-17 14-17 34 3 32 32 42 27 35-15-5-32-4-35 11-30 10 4 20 7 22 7s4 7 4 16 7 22 16 28c10 8 17 29 17 59 1 26 6 47 11 47s3 7-4 15c-20 24-18 75 2 86 10 5 18 18 18 29 0 10 4 22 10 25 6 4 5 13-3 25-12 20-26 26-28 13zm-649-118c-16-19-6-45 20-52 11-3 18-9 15-13s7-20 20-34c14-15 25-33 25-40 0-18 57-76 74-76 8 0 18 5 21 11 10 15-22 93-45 114-11 10-20 24-20 31 0 13-75 74-90 74-4 0-13-7-20-15zm741-21c0-11 3-14 6-6 3 7 2 16-1 19-3 4-6-2-5-13zm-831-58c0-34 60-99 83-90 22 8 22 28 0 62-36 56-83 71-83 28zm818-8c0-7-2-17-2-23-1-5-5-15-9-22-4-6-4-18-1-26 4-11 0-14-13-11-26 6-69-87-46-100 27-15 92 23 109 63 8 19 13 40 10 46-2 7 0 18 4 26 6 9 2 21-12 36-24 26-37 29-40 11zm106-96c3-5-1-12-9-16-29-11-12-76 20-76 5 0 16 9 23 20 10 17 10 26 0 47-7 15-19 29-27 31-8 3-11 0-7-6z" transform="matrix(.1 0 0 -.1 -65 234.856809)"/></svg>