<svg height="109.043922pt" preserveAspectRatio="xMidYMid meet" viewBox="0 0 134.315579 109.043922" width="134.315579pt" xmlns="http://www.w3.org/2000/svg"><path d="m1216 1324c-50-13-94-28-100-34-5-5-16-10-24-10-14 0-87-53-110-80-46-55-86-182-80-255l3-38-95-48c-62-32-103-47-117-44-15 3-30-2-42-14-18-18-97-51-121-51-6 0-10 8-10 19 0 10-7 24-15 31s-15 18-15 25c0 19-21 24-48 12-28-13-36-5-28 27 7 29 35 47 86 56 36 6 47 24 30 50-7 12-12 12-22 2-6-6-16-12-20-12-18 0-5 25 32 61 42 41 83 51 94 24 9-25 36-17 70 20 22 23 41 35 59 35 34 0 34-8-2-50-24-29-26-36-15-48 19-19 58-11 63 13 2 11 10 25 19 31 11 8 12 13 4 18-19 12-13 36 8 36 12 0 31-7 44-15 20-14 25-14 35-1 21 25-12 78-62 100-23 10-50 22-59 27-10 5-43 9-75 9-52 0-81-6-156-33-38-14-164-138-172-170-4-15-11-27-15-27-19 0-39-81-50-209-12-135-7-158 34-164 45-6 175 11 217 29 50 22 73 16 77-21 2-17 7-34 12-40 5-5 12-28 16-50 10-54 31-102 46-108 16-5 57 12 78 32 19 18 17 122-4 201-8 30-12 58-8 61 4 4 73 40 154 82 107 54 154 73 173 69 22-4 25-9 21-31-3-14-10-66-16-116-6-49-13-98-16-108-12-40-5-170 12-218 14-38 23-49 40-49 12 0 26 6 32 12 13 17 8 73-8 93-11 13-8 17 18 26 22 7 37 23 52 56 21 44 25 67 34 169 3 28 8 62 11 76 4 16 1 31-9 41-27 27-18 37 32 37 26 0 54 6 61 13 9 8 15 8 17 1 3-7 45-9 122-6 134 4 148 12 136 72-4 19-8 42-9 50-8 54-21 99-36 125-10 16-25 44-32 60-8 17-21 36-30 44-10 7-17 19-17 25 0 34-100 90-175 98-24 3-76-4-129-18zm104-81c3-2-3-11-14-18-25-19-12-35 30-35 37 0 46-14 14-23-23-6-35-30-26-52 4-12 10-12 35-2 37 16 90 57 73 57-7 0-12 7-12 15 0 9 9 15 21 15 11 0 27-7 35-15 9-8 12-15 8-15-3 0 0-7 7-17 8-9 12-18 11-20-2-2 6-36 18-75 29-96 29-96-124-88-58 4-70 1-82-15-13-18-14-18-34 0-11 10-37 19-57 21-80 7-195 32-209 46-12 12-13 21-4 43 8 21 13 26 19 16 10-15 86 2 113 26 20 18 38 67 29 80-10 15-39 23-45 12-2-5-3-4-2 2 3 15 72 42 103 40 12 0 25 4 29 10 6 10 52 4 64-8zm-230-103c0-13-33-21-43-11-16 16 12 44 29 30 8-6 14-15 14-19zm-651-369c7-5 11-14 7-19-9-15-36-4-36 14 0 16 9 18 29 5zm975 287c4-18 1-20-25-14-36 7-38-7-3-22 28-13 58-3 68 24 8 22 9 21-20 27-22 4-25 2-20-15zm-572-103c-12-14-29-25-37-25-18 0-19-14-2-28 9-8 22-6 45 5 33 16 36 24 24 56-7 16-10 16-30-8zm418-415c0-4 3-10 7-14 15-14 13-107-2-160-9-31-13-65-10-77 6-19 12-21 54-14 25 4 66 7 92 7 54-1 75 21 59 63-5 14-14 25-19 25-6 0-8 6-5 13 8 21-23 40-61 39-35-1-43 9-49 61-3 32-28 64-48 64-10 0-18-3-18-7zm-330-26c0-8 5-12 10-9 6 3 10 10 10 16 0 5-4 9-10 9-5 0-10-7-10-16zm30-2c0-11-5-22-11-24-7-2-5-17 7-43 18-43 21-49 23-65s37-12 52 6c10 12 10 19 1 32-7 10-16 27-21 39-6 11-15 24-21 28-5 3-8 10-5 15 3 4-2 13-10 20-12 10-15 9-15-8zm-74-90c-6-10-9-80-3-106 5-27 31-38 52-22 15 11 17 20 9 72-8 49-12 59-31 62-11 2-24-1-27-6zm-295-52c-24-43-41-52-41-21 0 19-18 31-50 31-27 0-41-23-34-59 5-24 12-31 29-31 13 0 25 7 29 15 8 21 26 19 26-3 0-46 69-59 88-17 7 15 8 26 2 30s-7 17-4 31c4 14 2 24-5 24-6 0-11 8-11 18 0 14 2 15 10 2s10-12 10 3c0 30-26 18-49-23zm172 25c-22-24-39-104-27-123 15-24 48-26 69-6 13 14 16 28 11 61-6 46-22 83-34 83-4-1-13-7-19-15z" transform="matrix(.1 0 0 -.1 -30.435999 134.281034)"/></svg>