<svg height="120.287953pt" preserveAspectRatio="xMidYMid meet" viewBox="0 0 108.020046 120.287953" width="108.020046pt" xmlns="http://www.w3.org/2000/svg"><path d="m905 1332c-17-10-50-43-74-71-35-41-48-68-63-129-24-97-24-89 0-144 19-43 30-53 55-49 4 0 7-4 7-9 0-6 11-8 25-4 16 4 25 2 25-6s9-10 26-6c30 8 30 15-4-112-11-41-23-76-25-79-3-2-15 5-27 17l-22 22-26-24c-15-12-28-24-30-24-2-1 4-28 12-60 24-93 30-162 17-178-6-8-14-37-18-65-3-28-10-54-16-58-12-7-102 86-112 118-5 13-9 35-11 49-1 14-5 48-8 76s-11 64-17 80-13 40-15 54c-1 14-5 39-8 55-5 27-1 34 49 73 30 24 55 50 55 58 0 21-30 77-46 87-8 4-14 13-14 19s-25 35-55 65c-48 48-58 54-84 48-19-4-41-1-59 9-21 11-45 14-83 9-46-5-60-12-94-47-58-60-79-127-70-222 4-41 13-87 21-102s14-33 14-39c0-26 43-42 85-33 44 9 131 34 156 44 12 5 18-4 27-44 20-85 19-86-44-50l-56 31-19-20c-11-11-22-34-25-51-7-31 7-51 116-167 40-43 55-77 48-110-2-10-11-16-19-15-84 21-129 24-157 13-20-8-29-18-25-27 3-8 0-14-6-14-21 0-11-20 14-26 14-3 25-9 25-13s32-16 72-25c40-10 84-26 99-37 15-10 32-19 37-19 6 0 17-6 24-13 7-8 25-17 39-20 21-5 30-1 47 23 12 16 22 34 22 40 0 13 57 4 77-12 6-5 22-6 36-3 25 7 40 33 38 70-1 17 1 16 11-5 6-14 10-29 9-34-4-18 11-46 30-57 24-12 59-3 59 16 0 7 10 15 22 17 25 3 71 65 64 85-3 7-2 13 3 13 4 0 14 12 22 28 8 15 21 32 30 39 8 6 21 30 29 52 10 32 18 41 37 41 12 0 23 5 23 10 0 6 4 10 9 10s26 7 46 16l38 16-26 25c-19 19-29 24-39 16-23-18-69-25-84-12-8 6-22 9-33 6-17-4-18-2-9 24 5 16 14 29 19 29s9 5 9 11 11 20 25 31c47 37 22 103-30 80-14-7-25-18-25-27 0-8-13-21-29-30l-29-15 10 37c10 37 3 216-9 237-4 6 0 5 9-2 20-16 82-3 155 33 29 14 57 25 62 25 25 0 21 167-5 205-8 11-14 27-14 36 0 16-75 85-116 107-12 6-57 14-100 17-67 5-83 4-109-13z" transform="matrix(.1 0 0 -.1 -19.281617 134.783825)"/></svg>