<svg height="158.835363pt" preserveAspectRatio="xMidYMid meet" viewBox="0 0 173.303738 158.835363" width="173.303738pt" xmlns="http://www.w3.org/2000/svg"><path d="m1119 1746c-2-3-62-7-132-11-107-5-141-10-209-35-45-16-92-37-104-45-13-8-30-15-39-15-8 0-15-4-15-8 0-5-26-22-57-37-32-16-75-44-96-62-20-18-42-33-47-33-6 0-10-6-10-13 0-8-9-22-21-33-35-31-106-156-127-224-12-36-22-94-24-129l-3-64 50-18c28-9 65-18 83-18 19-1 49-8 68-17 32-15 33-18 19-34-8-9-15-21-15-26s-11-22-25-38-25-33-25-39c0-5-14-26-30-47-87-110-89-316-4-460 19-33 32-65 29-70-3-6-48-10-100-10-85 0-94-2-100-20-3-11-10-20-15-20s-14-10-21-21c-9-17-8-24 2-30 14-10 147-10 163-1 4 2 83 4 175 2 91-1 198-2 236-2 44-1 94 7 135 19 105 33 206 40 480 31 74-3 198 1 275 8s166 13 197 14c31 0 60 5 63 10 3 6-1 10-10 10s-19 9-22 19c-6 25-39 32-136 27-66-3-77-2-73 11 3 8 6 17 6 19s5 4 11 4 17 7 25 15c9 8 12 15 8 15-5 0-3 5 4 12s12 25 12 40 5 28 11 28 9 8 7 18c-3 10 1 27 8 36 7 10 10 24 7 32s0 21 7 29c15 18 10 186-7 207-6 7-16 31-23 53-14 44-83 143-106 152-25 9-15 38 21 57 19 11 35 23 35 28 0 4 7 8 15 8s20 10 26 23c7 12 21 28 31 35 15 11 18 21 12 45-4 18-8 39-9 47-6 46-18 90-25 90-5 0-2 14 7 31 15 30 15 31-18 59-19 16-53 46-77 69-40 38-60 51-122 83-14 7-45 27-69 45-26 20-56 33-75 34-17 0-25 3-18 6 15 6-43 53-65 53-7 0-13 4-13 9s-10 7-22 4c-13-3-20-2-16 2 4 5-16 16-45 26-28 10-52 18-53 19 0 0-3-2-5-4zm-263-131c10-24-16-77-53-112-31-30-40-33-97-33-39 0-69 5-82 15-10 8-27 15-38 15-16 0-16 2-5 16 7 8 26 22 43 31 16 9 36 22 44 29 7 8 21 14 30 14s31 9 47 19c37 24 103 27 111 6zm492-76c2-5 10-9 18-9s14-4 14-9c0-10 39-27 53-23 5 1 6-2 2-8-3-5 0-10 7-10 28 0 36-20 21-51-20-40-26-42-96-34-50 6-66 13-89 37-26 28-29 42-15 81 4 9 9 24 12 33 4 12 12 14 37 9 18-4 35-11 36-16zm-308-108c3-4 16-12 30-16 28-9 50-35 66-80 22-59-14-98-101-109-77-9-106 3-123 50-20 55-9 106 31 144 26 25 38 30 62 25 16-3 31-9 35-14zm-595-71c3-5 30-10 58-10 39-1 58-6 77-23 51-45 75-140 49-189-7-13-7-24-1-30 5-5 7-18 5-29-4-15-15-19-52-20-25-1-50 0-56 1-5 2-19 2-29 2-10-1-31 5-45 12s-41 16-59 19c-38 8-73 37-74 63-4 56 28 133 81 197 16 19 37 22 46 7zm825-55c0-8-4-15-10-15-5 0-10 7-10 15s5 15 10 15c6 0 10-7 10-15zm270-53c8-9 23-29 33-45 9-15 24-27 32-27 21 0 28-19 13-37-26-31-242-113-300-113-21 0-28 5-28 19 0 11 5 23 10 26 6 4 10 12 9 18-8 62 48 123 140 153 36 12 68 22 71 23s12-7 20-17zm-330-205c0-19-21-37-42-37-25 0-23 16 4 34 27 19 38 20 38 3zm280-97c8-5 11-12 8-16-10-9-38 3-38 16 0 12 10 13 30 0zm-856-19c7-11-18-21-55-21-28 0-37 9-22 23 10 10 71 8 77-2zm695-49c36 3 49-7 44-37-4-17 0-27 11-31 9-3 13-10 10-15-8-14 10-11 32 6 10 8 28 15 39 15s33 14 48 30c32 33 42 36 61 18 28-29 26-48-8-81-18-18-35-39-38-47-4-12-12-12-51-3-26 5-47 7-48 4-4-23-5-77-2-84 2-4 10-1 18 7 8 7 34 20 60 27 25 7 44 18 42 23-6 18 31 49 61 51 25 2 32-3 46-32l16-35-43-42c-33-33-56-46-98-56-80-19-79-18-79-34 0-38 79-26 129 20 13 12 31 19 41 17 13-4 19 2 22 19 4 30 23 20 22-12-3-114-35-206-91-266l-43-47-81-3c-77-3-82-2-114 27-31 29-32 32-28 89 3 40 1 60-6 60-6 0-11-13-11-29 0-17-5-33-11-37-7-4-9-23-5-50l6-44h-40c-41 0-53 15-54 70-1 15-8 26-18 28-22 4-36-43-20-68 18-30 0-39-78-37-65 2-76 5-80 21-8 28-28 31-32 4-2-19-8-23-35-21-23 2-36-3-47-18-12-18-28-22-103-26-48-3-97-5-108-4s-56 3-99 4c-84 3-91 7-123 77-3 8-15 26-25 39s-18 32-18 42c0 11-4 19-9 19-4 0-16 33-25 73-19 80-15 116 22 188 25 49 86 122 78 92-8-27 1-33 63-37 27-2 54-7 61-11 6-4 17 1 24 11 11 15 11 20-2 33-8 8-20 16-26 18-67 15-103 26-111 34-13 13 96 1 109-12 6-5 32-9 58-9 55 0 71 19 44 49-20 22-21 47 0 55 23 9 82 7 88-2 3-5 116-8 252-7 206 1 249 4 253 16 3 8 9 1 15-19 8-28 13-33 35-30zm101 28c0-5 7-10 15-10 25 0 17-17-10-22-28-6-40 5-31 27 6 17 26 20 26 5zm-460-650c0-5-5-10-11-10-5 0-7 5-4 10 3 6 8 10 11 10 2 0 4-4 4-10zm240 626c0-15 58-76 73-76 4 0 2 9-5 20s-17 20-21 20c-5 0-7 6-4 13 2 6-3 17-12 24-21 17-31 16-31-1zm-156-34c2-19 7-36 10-40 10-10 6 42-5 58-7 11-9 7-5-18zm9-87c-3-9-3-18-1-21 3-3 8 4 11 16 6 23-1 27-10 5zm233-30c4-8 8-15 10-15s4 7 4 15-4 15-10 15c-5 0-7-7-4-15zm-849-58c-8-13-12-28-9-34 10-14 110-24 118-12 3 6 12 8 20 5 18-7 17 4 0 27-13 17-65 37-97 37-9 0-24-10-32-23zm13-94c-24-10-40-36-29-49 17-21 176 0 161 21-17 24-98 41-132 28zm50-133c-17-32-5-53 27-46 19 4 35 0 51-14 26-21 22-40-9-40-10 0-19-7-19-15 0-9 9-15 25-15 14 0 33-9 42-19 9-11 21-17 27-15 18 7 19 64 1 70-18 7-20 45-2 63 15 16-12 33-57 36-17 1-41 6-53 10-16 5-24 2-33-15zm984-5c-4-10-13-13-25-10-11 4-19 3-19-2 0-11-49-33-73-33-11 0-17-5-14-12 7-20 90-11 139 14 56 28 54 26 32 43-25 19-33 19-40 0zm-682-54c2-7 7-12 11-12 12 1 9 15-3 20-7 2-11-2-8-8zm32-77c9-8 20-12 26-9 19 12 10 25-16 25-23 0-24-1-10-16z" transform="matrix(.1 0 0 -.1 -14.307517 174.968572)"/></svg>