<svg height="163.069171pt" preserveAspectRatio="xMidYMid meet" viewBox="0 0 126.446105 163.069171" width="126.446105pt" xmlns="http://www.w3.org/2000/svg"><path d="m765 1984c-69-17-125-39-125-49 0-16-75-61-116-71-43-10-91-42-97-64-3-12-14-20-25-20-20 0-62-47-62-69 0-6-9-15-20-21s-20-21-20-35c0-13-15-43-33-67-37-50-60-96-52-108 3-5 2-11-3-14-10-6-1-79 27-211 24-119 46-177 90-248 36-56 91-91 163-103 52-8 58-19 47-84-14-78-14-242-1-266 11-21 10-93-2-112-4-6-12-9-19-7s-31 6-53 9c-23 2-51 9-62 15-30 16-55 14-49-4 4-8 2-17-3-20-16-10-11-20 21-44 37-28 67-35 139-35 100-1 383 29 403 41 13 8 13 8 112 17 97 9 115 15 115 36 0 28-10 30-120 34-56 2-104 7-108 11-11 10-18 135-12 220 3 42 2 79-2 82-32 19 35 50 127 58 44 3 89 10 100 15s50 23 87 39c37 17 73 31 80 31 23 0 60 31 54 46-3 8-1 14 4 14 13 0 55 41 69 68 7 12 9 31 6 41-3 11 0 21 8 24s18 20 21 39c13 65 22 139 17 144-3 2-5 31-5 63-1 35-7 65-15 75-12 14-12 19-2 25 9 6 8 11-4 21s-15 23-10 47c5 27 0 43-30 87-19 29-35 63-35 75 0 11-4 21-9 21s-14 13-21 29c-16 39-159 169-213 194-23 10-67 21-97 24-79 8-242 12-265 7zm276-100c6-3 5-12-3-21-17-21-21-39-21-106 0-74 19-97 78-97 36 0 48 6 88 45 26 25 51 45 56 45s19-15 31-34c11-19 25-36 29-38 5-2 12-18 16-37 7-32 7-33-22-27-36 8-50-6-87-86-26-54-29-57-49-45-12 7-25 17-29 23-4 7-19 15-33 18-19 5-25 13-25 35 0 45-64 107-117 114-35 4-47 1-68-19-14-12-25-30-25-39 0-12-9-14-52-9-29 4-57 10-63 14-5 5-32 11-59 15-39 6-47 5-41-5 6-9 4-11-6-4-8 4-24 7-36 6-17-3-20 1-16 17 3 12 1 21-3 21-5 0-9 26-9 58 0 52 2 57 23 60 12 2 22 10 22 17 0 16 47 55 67 55 10 0 11-4 3-19-15-29-12-88 5-115 33-50 117-58 162-16 12 10 24 16 27 13 3-4 6 3 6 15s4 22 9 22 11 17 14 38c4 26 0 45-14 64-10 15-19 30-19 34 0 8 147-3 161-12zm-258-354c51-11 93-40 69-48-17-5-15-47 3-65 8-9 10-17 5-19-6-2-13-32-16-68-4-36-10-67-14-70-5-3-10-23-12-45s-7-46-12-53c-4-6-4-16-1-22 3-5-1-10-9-10-9 0-15 3-14 8 3 17-40 172-53 188-5 7-9 25-9 40 0 62-12 127-21 113-6-10-9-11-9-1 0 6-3 12-7 12-15 0-13-87 5-187 20-111 12-134-24-68-10 19-21 35-25 35s-19 38-33 85c-15 47-31 85-36 85-6 0-10 10-10 23s-5 28-12 35c-23 23 10 41 80 44 74 4 84 3 155-12zm-271-131c7-4 13-18 13-31 2-31 68-169 100-206 22-27 23-31 9-43-14-11-24-3-80 57-35 38-67 77-70 87-3 9-9 17-14 17-4 0-7 6-7 13 0 6-8 31-19 55-14 32-24 42-39 40-22-3-24-24-11-91 5-27 14-41 32-47 25-10 32-26 13-32-6-2 1-16 15-31 14-16 26-31 26-35s14-15 31-25c18-10 29-20 26-24-8-7 37-43 53-43 7 0 10-7 6-16-3-9-9-27-12-40-4-15-13-24-25-24-22 0-22 0-9 35 9 22 6 28-20 43-16 10-45 39-64 64s-42 48-50 51c-9 4-16 14-16 23s-9 31-19 48c-23 38-27 66-16 130 11 70 29 98 77 121l43 20 7-54c4-30 13-58 20-62zm470 65c74-19 101-39 78-57-25-20-52-77-47-98 4-13-2-25-18-35-13-8-35-33-50-54-28-40-49-50-57-27-6 16-1 94 7 107 3 5 1 19-5 30-7 14-8 20 0 20 6 0 10 16 9 38-4 59 0 92 10 92 5 0 38-7 73-16zm423-64c3-5 3-10-2-10-4 0-8-24-8-54s-3-57-7-61-20 8-37 27l-31 33 30 27c17 15 30 32 30 38 0 13 17 13 25 0zm-231-42c46-40 46-63 1-152-19-39-35-76-35-83 0-10-33-35-50-38-3-1-24-11-47-23s-54-22-68-22c-19 0-25-5-25-21 0-11-4-17-10-14-5 3-10 27-10 53 1 35 7 54 25 75 13 15 28 27 33 27 13 0 37 39 46 73 3 15 11 25 16 22 6-3 10 3 10 15 0 20 4 29 29 78 6 13 9 27 6 32-15 24 47 7 79-22zm-114-12c0-3-4-8-10-11-5-3-10-1-10 4 0 6 5 11 10 11 6 0 10-2 10-4zm-77-111c-3-9-8-14-10-11-3 3-2 9 2 15 9 16 15 13 8-4zm288-18c-1-4-1-19-1-34-1-18-10-35-26-46-14-11-27-17-29-15-6 6 15 81 28 96 10 13 29 12 28-1zm-457-177c0-8-3-35-7-60-9-62-17-208-17-312v-88l-42-20c-23-11-57-20-76-20h-34l6 93c3 50 8 117 11 147s7 82 10 115c9 118 16 145 39 150 72 15 111 14 110-5zm323-25c0-9-23-26-54-40-55-26-83-31-83-17 0 11 80 56 102 57 10 1 21 5 25 8 9 10 10 9 10-8zm-437-584c0-12-29-23-41-15-18 10-9 24 16 24 14 0 25-4 25-9z" transform="matrix(.1 0 0 -.1 -20.80657 198.619601)"/></svg>