<svg height="91.90461pt" preserveAspectRatio="xMidYMid meet" viewBox="0 0 69.14665 91.90461" width="69.14665pt" xmlns="http://www.w3.org/2000/svg"><path d="m729 1864c-31-9-64-31-95-62-43-41-53-60-79-142-16-52-30-102-31-111s-4-28-7-41c-4-14-2-39 4-55 8-26 18-32 62-42 29-6 66-12 82-14l30-2 8-140c4-76 5-145 3-152-3-7-19-13-36-13-27 0-30-3-30-30 0-32 22-50 64-50 15 0 33-10 45-26 15-19 26-24 38-19 60 26 134 28 236 6 90-19 101-19 128-6 26 14 27 18 16 36-7 12-39 28-80 40-75 24-84 37-78 119 2 25 4 91 5 147v103l35 6c118 19 143 28 152 53 6 13 7 32 3 40-4 9-7 25-8 36-14 139-87 250-199 300-68 30-202 40-268 19zm180-106c24-38 41-107 39-159-2-30 1-62 6-71 7-16 0-17-81-17-48 1-106-2-128-5-45-7-135-7-146 0-7 4-3 69 5 114 6 27 19 54 41 85 12 17 24 38 28 48 5 13 18 17 60 17h54l8-42c4-24 7-69 7-102 0-44 5-63 19-77 11-11 20-16 20-11 3 20 6 28 13 45 14 30 2 138-17 152-10 7-15 19-11 28 8 22 69 18 83-5zm161-130c0-5 11-26 25-48 28-44 25-48-43-59l-48-7 2 63c2 34 5 67 8 72s3 17-1 28c-4 13 3 10 25-11 18-17 32-33 32-38zm-245-246c7-16 18-22 43-22 38 0 39-2 46-93l5-67-25 6c-13 3-24 2-24-4 0-5-10-12-21-15-15-4-20-11-15-22 3-9 6-23 6-31 0-16 45-19 55-4 9 15 25 2 25-20 0-18-6-19-57-14-32 3-62 9-66 13-4 5-10 44-13 87-2 43-6 102-8 129-3 28-2 58 0 68 7 24 36 18 49-11zm-140 338c-3-5-3-14 0-20 3-5 2-10-2-10-5 0-9-29-10-65 0-62 1-65 23-65 19 0 24 6 26 28 2 42-3 76-12 87-5 6-7 21-3 33 5 22-10 31-22 12z" transform="matrix(.1 0 0 -.1 -51.476989 187.497148)"/></svg>