<svg height="116.179546pt" preserveAspectRatio="xMidYMid meet" viewBox="0 0 74.270617 116.179546" width="74.270617pt" xmlns="http://www.w3.org/2000/svg"><path d="m630 1880c-91-11-129-35-172-110-36-62-56-138-66-255-8-87-7-105 9-141 30-67 72-86 169-75 35 4 73 6 85 3 24-4 22 3 41-207 7-81 24-146 45-169 10-10 15-24 13-31-3-8 9-20 30-30 29-14 33-19 22-30-7-8-11-26-8-44 4-26 9-31 33-31 16 0 29 4 29 9s11 12 24 15 35 15 48 26c12 11 35 29 51 41 15 11 25 24 22 29s-1 11 5 15c15 9 12 23-9 34-14 8-27 4-60-21-29-21-46-27-53-20-6 6-6 12 1 16s7 15 1 31c-11 28-8 104 4 124 5 7 5 16 0 20-5 3-9 26-9 51-1 58-14 132-27 147-19 23-4 55 37 77 23 12 52 30 67 41 14 11 35 26 46 34 12 8 24 28 27 43 7 31-14 128-27 128-4 0-8 10-8 23-1 12-6 32-13 43-22 39-121 140-167 170-44 29-107 55-126 53-5-1-34-5-64-9zm82-174c50-28 105-99 110-141l3-30-157-1c-111 0-159 3-162 11-4 12 18 134 25 138 17 11 108 45 121 46 10 1 37-10 60-23zm-72-258c0-8-7-10-40-10-50 0-70 3-70 10 0 4 25 7 55 7 30 1 55-3 55-7zm-47-498c-12-29 0-80 22-96 19-14 19-24 2-24-8 0-22 9-32 20-25 28-72 27-81-2-4-13-2-24 5-26 6-2 11-9 11-16 0-17 29-42 57-50 19-6 22-4 16 10-5 14-2 16 19 11 22-6 25-4 21 17-5 23-3 24 36 19 33-5 41-3 41 10 0 9-4 18-9 22-5 3-12 19-16 35-4 17-13 30-20 30s-15 7-19 15c-3 8-12 15-20 15s-16 8-19 18c-3 14-6 13-14-8zm418-135c-24-19-47-35-51-35-14 0-21-32-10-45 21-25 112 12 155 64 28 32 27 33-25 45-19 4-37-4-69-29zm-628 10c-8-21 0-27 52-41 40-10 45-9 45 5 0 18-48 51-74 51-9 0-19-7-23-15z" transform="matrix(.1 0 0 -.1 -38.077603 188.875118)"/></svg>