<svg height="138.344471pt" preserveAspectRatio="xMidYMid meet" viewBox="0 0 143.131865 138.344471" width="143.131865pt" xmlns="http://www.w3.org/2000/svg"><path d="m1150 1531c-42-8-110-53-163-108-40-42-97-143-97-172 0-9-5-22-11-28-7-7-13-34-14-62-2-27-5-53-8-58-2-4 0-36 6-69l10-61 49-18c26-9 48-21 48-26s10-9 23-9c12 0 31-8 42-18 19-16 20-23 12-99-5-46-13-83-17-83s-25 17-47 38c-21 21-56 48-77 61s-49 34-63 47c-13 12-49 30-79 40-53 16-55 16-69-2-30-40-38-84-25-141 6-30 20-63 30-73 14-14 16-29 13-71-5-72-18-84-72-68-22 7-48 23-56 36-9 12-24 23-34 23s-26 11-35 25-22 25-28 25-19 7-28 15c-14 13-20 12-53-11-20-13-37-31-37-39s-4-15-9-15c-11 0-12-68-1-75 10-6 6-58-5-75-5-8-12-7-23 3-10 8-38 22-64 32-53 20-97 14-99-13-1-9-3-28-4-42-5-44 15-123 36-146 18-19 18-22 4-28-9-3-25-6-35-6-26 0-34-17-17-35 9-8 17-20 19-26 3-8 49-13 143-14 77-2 158-7 180-13 138-34 525-15 580 29 12 9 93 17 255 25 75 4 110 10 123 21 26 24 21 32-37 58-32 14-57 32-61 44-3 11-15 23-26 26-11 4-19 12-17 18 3 15-12 88-20 102-3 5-7 29-9 52-1 24-7 51-12 61-5 9-8 75-7 145 3 145 11 166 60 147 15-5 33-7 38-3 6 3 36 8 67 9 62 4 124 31 116 52-2 7 2 15 10 18 10 4 13 14 9 30-4 14-2 24 5 24 11 0 8 26-12 115-6 28-10 53-9 56 0 4-8 15-18 24-11 10-20 27-20 37 0 11-4 16-10 13s-7 1-4 9c3 9 1 16-5 16s-17 13-26 29c-25 50-155 179-197 196-41 16-61 17-118 6zm128-184c35-5 51-26 31-40-33-25 10-75 52-62 14 5 20 0 25-22 3-15 10-43 16-60 12-42 4-53-33-49-16 2-32 0-35-5-11-19-24-8-24 22 0 17-7 37-15 45-22 22-59 14-63-14-2-12-13-27-24-33-26-14-108-3-108 15 0 34-84 64-85 31-2-23-17-55-27-55-7 0-9 20-4 61 5 48 12 67 32 85 28 27 49 32 41 10-14-36 73-53 92-18 11 20 4 62-10 62-5 0-9 4-9 9 0 11 79 29 105 24 11-2 30-5 43-6zm-148-283c0-2-7-4-15-4s-15 4-15 10c0 5 7 7 15 4 8-4 15-8 15-10zm154-42c7-12-7-28-24-27-24 0-25 35-1 35 11 0 22-4 25-8zm-214-12c0-5-2-10-4-10-3 0-8 5-11 10-3 6-1 10 4 10 6 0 11-4 11-10zm-280-175c0-8 5-15 10-15 6 0 10-9 10-19 0-12 12-25 30-33 17-7 30-17 30-21 0-5 8-19 18-32 9-12 24-33 32-45 8-13 22-31 30-40s35-41 60-71c24-30 48-55 52-57 5-2 8-11 8-19s13-34 28-57c56-83 53-106-18-106h-48l-7 39c-4 22-13 45-21 52-8 6-14 18-14 25 0 8-4 14-9 14s-11 10-13 21c-5 33-54 66-76 52s-18-48 12-93c26-38 41-84 37-114-2-15 2-18 18-13 14 3 21 0 21-9 0-8 7-14 15-14 29 0 14-19-20-26-19-3-35-10-35-15s-16-9-35-9c-32 0-40 8-36 34 1 4-2 13-8 20-5 6-9 24-9 40s-6 34-14 40c-7 6-14 22-15 34-1 13-11 32-22 42-25 20-27 49-10 109 9 33 9 45 0 50-6 4-9 14-6 22s-6 36-20 62c-14 27-25 60-26 75 0 15-4 36-8 47-5 11-4 25 1 33 15 17 58 15 58-3zm265-145c3-5 1-10-4-10-6 0-11 5-11 10 0 6 2 10 4 10 3 0 8-4 11-10zm-551-110c15 0 25-4 21-10-11-19 38-68 94-94 31-15 67-32 81-39 31-15 96-141 95-183 0-26-3-29-35-30-19-1-48 3-65 7-16 4-47 9-68 11-29 3-42 10-51 28-47 92-59 120-54 125 4 4 0 14-8 23-77 90-80 97-76 166 2 28 3 28 20 13 10-10 31-17 46-17zm-137-212c64-21 108-59 118-100l7-27-30 15c-18 8-46 13-68 10-49-5-64 1-64 27 0 27-46 86-76 97-25 10-32 36-12 42 7 3 25-7 40-20 15-14 54-34 85-44zm323-158c0-5-2-10-4-10-3 0-8 5-11 10-3 6-1 10 4 10 6 0 11-4 11-10z" transform="matrix(.1 0 0 -.1 -14.406889 153.816934)"/></svg>