<svg height="153.150201pt" preserveAspectRatio="xMidYMid meet" viewBox="0 0 134.00935 153.150201" width="134.00935pt" xmlns="http://www.w3.org/2000/svg"><path d="m1298 1663c-43-11-72-28-119-69-35-30-70-69-79-87-8-17-22-43-32-57-9-14-31-68-48-120-37-107-45-204-20-220 10-7 12-12 4-17-35-24 51-81 124-82 34-1 40-15 23-49-11-21-35-76-51-117-7-17-14-52-17-80-3-27-9-54-14-60-5-5-9-19-9-31s-6-26-13-32c-18-15-19-131-2-158 20-31 74-21 88 17 11 28 52 45 72 29 6-5 10-34 10-65-1-54 0-56 24-53 14 2 30 13 37 25 6 13 18 31 27 41 10 10 17 26 17 35s4 18 10 22c5 3 0 15-11 26l-20 20-31-27c-30-24-33-25-39-8-11 27-11 28 9 50 23 25 42 87 45 149 2 28 6 56 10 61 3 6 9 39 12 73 8 88 18 108 57 116 18 4 37 10 41 12 5 3 30 7 57 8 101 7 137 43 150 151 10 79 20 134 40 231 11 53 11 53-25 88-19 20-35 40-35 45 0 15-53 59-97 81-24 11-43 25-43 30s-6 9-14 9-16 6-19 13c-7 18-48 18-119 0zm32-306c0-7-5-18-11-24-18-18-3-43 25-43s41-27 34-71c-4-31-38-39-38-10 0 12-4 21-10 21-5 0-10-6-10-13 0-33-76-44-141-19-22 9-25 15-21 46 2 20 8 36 13 36s9 6 9 14 21 28 48 44c49 32 102 42 102 19zm-806 114c-42-7-77-28-157-95-41-34-47-44-42-67 4-15 2-45-4-66-12-45 1-205 18-211 6-2 11-13 11-24s6-34 14-51c8-18 20-46 27-64 12-30 37-45 79-48 8-1 22-4 30-7 34-14 46-14 79 3 31 15 38 16 50 4 18-18 44-195 43-297 0-62 2-78 14-78 8 0 17-7 20-15 4-8 15-15 26-15s27-9 36-19c19-23 63-32 69-15 2 7-3 19-12 27-8 9-15 20-15 25s-9 17-20 27c-24 22-26 35-5 35 8 0 15 6 16 13 0 6 3 21 7 32 7 23 6 247-2 320-6 57 0 85 18 85 29 0 50 40 48 92-2 59-24 138-46 170-9 12-16 32-16 43 0 12-9 31-20 42-10 12-22 33-26 47-3 14-12 26-20 26-7 0-17 6-21 13-15 24-130 81-153 76-3-1-23-4-46-8zm104-293c15-8 22-20 22-40 0-30 31-68 56-68 29 0 10-33-26-45-19-7-60-24-89-39-51-24-99-27-86-5 4 5 2 9-3 9-8 0-6 90 3 135 2 11 16 33 30 48 27 29 42 29 93 5zm248-606c-11-18 16-82 45-106 36-30 49-26 49 14 0 20-11 40-37 65-37 36-48 41-57 27zm502-87c2-14 8-27 12-30 5-3 6-23 3-45-5-36-3-40 16-40 28 0 28 32 1 94-23 50-40 61-32 21zm-777 6c-19-12-4-68 22-85 27-16 95-28 101-17 6 9-30 51-43 51-5 0-22 13-37 30-20 19-34 26-43 21zm-141-79c0-25 49-70 82-74 15-1 27 0 28 5 2 35-2 48-17 53-10 4-32 12-50 20-40 18-43 18-43-4zm526-38c-8-32-6-36 15-20 14 10 15 15 4 29-12 16-13 15-19-9zm20-33c-4-5-2-12 3-15 5-4 12-2 15 3 4 5 2 12-3 15-5 4-12 2-15-3zm248-29c-1-21-9-51-19-66-23-35-11-45 20-16 33 31 39 55 25 91-17 39-25 37-26-9zm-133-14c4-24 8-46 9-50 0-5 9-8 20-8 14 0 20 7 20 23 0 25-6 34-36 60l-21 18zm-113 14c-20-4-23-33-8-62 16-29 37-14 36 25-2 39-5 43-28 37zm-258-70c0-5 9-17 20-27s20-23 20-30 9-20 20-30 20-13 20-7c0 7 9 12 19 12 31 0 13 40-25 56-18 8-35 18-39 24-7 12-35 13-35 2z" transform="matrix(.1 0 0 -.1 -31.625229 167.643582)"/></svg>