<svg height="86.082802pt" preserveAspectRatio="xMidYMid meet" viewBox="0 0 111.573596 86.082802" width="111.573596pt" xmlns="http://www.w3.org/2000/svg"><path d="m1050 1609c0-6-15-7-34-3-19 3-41 2-48-2-7-5-26-9-42-10s-34-8-40-16c-15-21-51-38-78-38-15 0-19-3-10-8 9-7 8-13-8-27-11-10-20-15-20-11 0 11-61-82-88-132-13-25-22-61-22-89 0-27-1-74-2-105-1-32 2-62 7-67 6-5 42-12 80-15 47-4 65-2 55 4-22 14-7 12 34-5l37-16-7-105c-6-96-5-106 13-127 12-12 24-32 28-44 4-16 14-23 33-23 15 0 33-4 40-9 7-4 36-4 65 1 73 13 76 13 83 20 3 4 12 4 19 1 8-2 24 4 35 15l22 20-21 21c-18 18-28 20-64 15-23-4-52-11-65-15-13-5-38-9-57-9-33 0-34 1-43 53-5 28-9 84-8 122l1 70 85 7c85 7 108 4 80-12-9-5-16-22-15-42 0-41 27-48 74-20l31 19-20 38c-25 48-25 45 4 45 30 0 37-26 41-154 3-119 14-194 29-192 6 0 34-3 63-8 29-4 58-4 65 0 7 5 23 7 35 6 42-6 169 56 208 101 21 23 49 56 65 72 15 17 34 46 43 65 24 55 47 130 39 130-4 0-7 17-8 38-1 63-13 131-28 165-8 18-17 42-21 55-8 28-62 82-82 82-21 0-52-18-100-56-23-19-46-34-51-34s-15 12-21 28c-20 47-69 92-144 132-72 37-175 67-202 56-8-3-17-1-20 3-7 13-45 21-45 10zm20-69c0-5 22-10 48-10 37 0 54-5 68-21s28-20 61-17c24 2 43 0 43-4 0-5 18-25 41-45 33-30 79-98 79-116 0-2-13-20-30-38-16-19-30-37-30-40s-11-18-25-33-25-31-25-37c0-18-17-9-28 15-10 23-29 27-62 14-8-4-27-9-42-12-26-6-27-4-24 24 2 16 0 30-4 30s-19 11-34 25-33 25-40 25c-28 0-36-94-10-108 12-6-5-9-52-9-38 1-87-2-109-6-22-3-53-3-70 2-16 5-43 12-59 16-28 6-29 7-23 60 5 52 47 134 94 183 10 11 26 29 35 40 10 12 27 22 38 22 12 0 32 7 45 16s29 13 34 9c6-3 23 1 38 9 33 18 43 19 43 6zm541-185c-1-5-7-10-14-11-6 0-17-2-23-2-7-1-15-18-18-37-4-19-10-35-15-35-4 0-13-12-20-26-10-23-9-26 9-31 29-8 25-20-12-38-31-14-58-53-58-83 0-8-11-27-25-43-13-16-22-36-19-44 4-8 2-15-4-15-5 0-20-11-33-25s-33-31-43-37c-18-10-19-7-13 64 7 75 29 135 72 187 49 61 121 137 139 150 12 8 23 18 26 21 14 18 52 22 51 5zm49-120c17-61 8-155-20-200-12-19-19-35-16-35 4 0-17-22-46-50-29-27-58-50-64-50s-17-7-24-15-16-12-21-10c-4 3-17 0-28-7-32-20-36-2-7 32 14 17 26 37 26 43 0 7 12 23 25 36 14 13 26 33 27 45 0 11 1 28 2 36s9 16 19 18c9 2 17 12 17 22s4 22 10 25c15 9 51 96 44 107-6 9 23 48 36 48 4 0 13-20 20-45zm-604 199c-12-8-16-23-14-46 3-32 5-33 49-36 50-3 79 14 79 48 0 29-85 56-114 34zm195-26c-10-27 1-72 24-94 15-16 18-15 43 3 19 14 28 31 30 55 3 32 0 37-29 47-46 16-59 14-68-11zm-406-37c-37-8-45-46-17-82 18-22 41-27 91-20 15 2 6 77-11 95-9 9-20 15-25 15-4-1-21-4-38-8zm290-409c-6-4-12-17-12-29-2-20 3-23 32-23 43 0 53 16 26 41-22 21-30 23-46 11z" transform="matrix(.1 0 0 -.1 -65.76532 161.382958)"/></svg>