<svg height="94.403533pt" preserveAspectRatio="xMidYMid meet" viewBox="0 0 105.62592 94.403533" width="105.62592pt" xmlns="http://www.w3.org/2000/svg"><path d="m1010 1123c-65-6-77-13-140-72-46-42-61-63-57-75 4-9 3-15-1-12-16 10-42-90-43-167-1-75 11-114 33-101 5 3 17 0 26-8 30-23 61-38 82-38 19 0 21-4 16-52-3-29-10-84-15-123-15-102-14-172 3-178 7-3 16-20 20-39 4-18 14-43 24-56 16-21 21-22 45-11 18 8 27 20 27 35 0 13 5 26 10 29 14 8 13 92-1 101-8 4-7 9 2 14 8 5 14 35 17 77 2 37 5 88 6 113 2 25 4 62 4 82 2 36 3 37 60 48 68 15 133 44 158 71 16 18 16 26 6 82-15 81-15 80-35 110-9 15-17 30-17 36 0 25-56 101-75 101-5 1-28 9-50 20s-47 19-55 18-31-3-50-5zm75-109c23-10 40-30 55-60 22-49 33-121 19-130-5-3-10 0-10 5-1 6-2 16-3 21-2 17-14 16-36-2-11-10-24-18-29-18s-11-7-15-15c-3-10-19-15-44-15-21 0-55-8-76-18-35-17-40-18-73-3-37 17-37 17-21 126 3 19 34 55 47 55 4 0 11 10 16 22 19 42 112 60 170 32zm-51-48c-3-13-4-34-2-46l3-22 28 22c36 29 38 70 2 70-18 0-26-7-31-24zm-669-68c-82-42-111-88-121-188-7-66 26-204 56-234 11-11 34-25 52-31 28-9 41-7 83 11 28 12 64 24 81 28l31 7 6-53c8-72 13-92 31-130 26-55 62-90 88-86 37 5 49 43 44 142-4 70-10 99-32 142l-27 53 32 26c17 15 31 33 31 41s4 14 9 14c18 0 23 43 10 84-25 81-95 156-168 181-64 22-157 19-206-7zm237-130c21-21 38-47 38-58 0-21-91-100-116-100-7 0-28-9-46-20-22-13-51-20-85-20-49 0-52 1-62 33-21 63-14 177 11 177 5 0 19 9 30 20 29 27 43 20 42-19-1-17 1-31 5-31 28 1 50 16 56 38 4 15 11 30 17 33 19 12 70-13 110-53zm-95-30c-9-5-17-15-17-22 0-8-7-16-15-20-16-6-21-41-6-50 10-7 64 41 73 64 8 22-15 40-35 28z" transform="matrix(.1 0 0 -.1 -24.275076 112.810161)"/></svg>