<svg height="115.648065pt" preserveAspectRatio="xMidYMid meet" viewBox="0 0 98.393225 115.648065" width="98.393225pt" xmlns="http://www.w3.org/2000/svg"><path d="m474 1365c-21-7-57-18-79-24-72-23-133-95-204-245-67-141-74-170-75-291 0-129 12-160 91-237 74-73 96-89 111-83 7 3 17 5 22 5 4 0 11 15 14 33 10 47 25 15 28-59 1-33 8-73 15-91 22-54 7-62-161-78-33-3-61-7-63-9-9-9 11-35 30-40 47-12 140-6 159 10 13 13 21 14 31 5 9-7 35-9 73-5 52 6 61 4 78-15 22-24 87-29 105-8 10 13 68 32 168 57 23 6 49 17 58 26 18 19 20 54 3 54-28 0-58-13-58-25s-69-25-139-25c-26 0-32 3-27 16 3 9 1 45-6 80-12 69-7 84 31 87 11 1 21 5 21 8 0 4 15 5 33 2 32-5 117 23 117 39 0 5 6 8 14 8s24 11 37 25c13 13 30 25 37 25s10 5 7 10c-3 6-1 10 6 10 16 0 59 48 59 66 0 7 4 14 8 14 12 0 35 71 31 96-1 10 1 27 6 37 4 10 2 23-5 32-13 15-4 39 11 30 10-7 39 18 39 32 0 5-9 19-21 32-12 12-18 25-15 28 8 9-40 94-63 110-12 8-19 18-16 22 5 10-51 71-65 71-6 0-10 6-10 13s-8 20-17 28c-10 9-33 33-51 53-19 20-40 36-47 36-8 0-31 10-52 23-32 18-54 22-134 23-53 1-114-4-135-11zm201-110c32-2 97-36 139-72 15-13 30-23 35-23 13 0 78-75 86-99 3-12 11-21 18-21 8 0 8-3 0-11-15-15-43-5-88 31-20 16-60 37-88 46-29 9-67 26-85 36-26 14-45 17-85 13-60-7-172-50-203-77-11-10-25-18-31-18-5 0-18-9-28-20s-24-20-32-20c-7 0-24-7-37-16-13-8-27-11-30-6s16 50 41 100c44 86 51 94 97 117 67 32 171 55 221 48 22-4 54-7 70-8zm-95-224c0-30 14-32 33-7 13 17 24 22 45 18 54-10 56-59 7-143-19-33-35-62-35-65 0-19-42-45-67-43-15 2-33 0-40-4-6-4-18-5-25-2-11 5-14 28-14 98 0 51-3 99-8 108-5 13 3 21 36 38 53 26 68 26 68 2zm208-48c15-9 29-18 31-20 3-2 4-24 2-49-2-48-35-98-72-109-11-4-19-15-19-26 0-16-5-18-25-13-14 3-32 1-40-6-8-6-19-9-25-5-15 9-12 35 5 35 8 0 15 7 15 15s8 23 18 33c20 20 33 45 39 76 2 11 8 25 14 33 6 7 9 22 6 33-6 25 14 26 51 3zm-348-23c0-5-4-10-10-10-5 0-10 5-10 10 0 6 5 10 10 10 6 0 10-4 10-10zm-74-38c-4-11 5-44 19-76 31-71 31-76-1-76-29 0-57 28-79 79-21 47-19 55 18 74 42 21 50 21 43-1zm568-42c14-22 26-44 26-50 0-13-17-13-25 0-3 5-12 7-20 4-8-4-12-10-9-15 9-16-30-47-70-55l-40-7 22 37c12 20 22 44 22 52s5 14 10 14c6 0 10 14 10 30 0 25 4 30 24 30 16 0 31-12 50-40zm-484 20c0-5-4-10-10-10-5 0-10 5-10 10 0 6 5 10 10 10 6 0 10-4 10-10zm-184-104c8-8 14-24 14-35s5-23 10-26c6-4 7-11 4-17-5-7-12-5-20 7-8 11-20 15-30 11-24-9-10-52 37-108 34-41 48-68 34-68-24 0-57 31-80 76-16 30-31 54-35 54-5 0-6 114-1 115 20 7 56 1 67-9zm192 2c16-16 15-28-2-28s-38 24-29 33c9 10 17 9 31-5zm481-48c16 0 3-46-26-92-13-21-27-38-33-38-5 0-26-11-46-25s-32-25-26-25 9-6 7-12c-8-21-104-25-117-5-6 9-8 9-8 0 0-7-4-13-10-13-5 0-10 7-10 15 0 10 16 16 50 21 28 4 50 10 50 15s3 8 8 8c24-4 40 3 45 21 4 15 0 20-13 20-11 0-17-7-16-17 1-12-4-16-14-14-8 3-41 5-72 5-32 0-58 3-58 6 0 12 25 30 42 30 10 0 21 7 24 15 4 10 14 13 30 9 15-4 32-1 42 8 9 8 30 15 45 16 47 3 67 19 67 55 1 29 2 30 14 15 7-10 18-18 25-18zm-149-15c0-15-6-25-14-25-19 0-25 21-12 37 17 19 26 15 26-12zm-259-6c18-34 39-88 39-98 0-6-11-11-25-11-22 0-24-2-14-27 5-14 17-31 25-37 10-8 14-23 11-49-3-23 1-41 10-48 11-10 11-15-2-35-13-21-13-27 5-66 11-24 26-52 34-63 15-19 14-20-21-19-21 1-40 9-45 18-6 10-23 16-48 16-21 0-42 6-47 13-4 6-8 66-8 132-1 106-3 126-25 169-22 45-22 50-7 61 9 7 17 18 17 25s8 10 20 7c11-3 20-1 20 4s7 9 15 9 15 5 15 11c0 14 22 6 31-12zm254 421c-6-10 40-60 55-60 4 0 11 7 14 15 4 11-3 19-19 25-14 5-25 14-25 20 0 13-17 13-25 0zm-202-167c-7-2-13-11-13-19 0-12 4-12 20-2 31 20 26 35-7 21z" transform="matrix(.1 0 0 -.1 -11.606775 137.620476)"/></svg>