<svg height="115.824262pt" preserveAspectRatio="xMidYMid meet" viewBox="0 0 94.714138 115.824262" width="94.714138pt" xmlns="http://www.w3.org/2000/svg"><path d="m468 1324c-3-3-25-5-49-6-24 0-56-6-70-14-61-31-112-139-97-209 13-64 39-104 75-116 17-5 33-15 35-21 2-5 26-12 53-15 60-6 83-28 58-55-10-11-11-18-5-18 7 0 12-6 12-14s11-27 23-43c41-49 77-118 87-169 14-70 36-197 49-283 7-41 16-81 23-88 6-7 7-14 2-14-5-1-20-3-34-5-14-3-67-6-118-8-52-2-96-7-99-10-11-11 19-36 51-41 17-2 108-7 201-10 94-2 216-7 271-11 84-5 110-4 148 11 32 13 46 23 44 34-3 13-20 16-111 16-84 1-110 4-118 15-9 14-7 134 5 210 8 58 34 172 40 178 3 3 35 0 72-6 62-10 68-9 112 15 65 35 74 49 66 103-14 101-123 218-169 180-8-6-18-9-24-6-29 18-151-106-151-154 0-11-5-29-12-39-9-15-9-26 0-45 10-22 7-35-20-91-34-74-48-74-55-3-5 53-40 170-65 220-10 21-18 49-18 64s-13 41-30 61c-35 39-38 69-12 115 30 53 19 152-20 197-42 47-61 61-97 71-42 12-46 12-53 4zm-38-174c11-7 9-11-13-19-37-14-37-14-37 9 0 21 24 27 50 10z" transform="matrix(.1 0 0 -.1 -24.934278 132.943077)"/></svg>