<svg height="190.736519pt" preserveAspectRatio="xMidYMid meet" viewBox="0 0 93.350518 190.736519" width="93.350518pt" xmlns="http://www.w3.org/2000/svg"><path d="m895 2161c-3-6-17-11-31-11-27 0-118-48-179-94-78-60-185-184-185-216 0-9-9-35-21-59-24-51-44-152-35-185 6-23 84-86 107-86 24 0 71-33 79-55 6-16 18-26 32-26 85-6 109-15 103-43-20-99-23-315-5-326 20-12 4-38-27-43-15-3-85-11-156-18-91-9-131-17-141-28-30-34-41-206-16-236 8-9 8-14-1-17s-7-39 6-143c15-124 21-147 51-200 68-120 85-129 192-104 41 10 98 18 126 18 81 0 120 5 128 16 4 5 26 10 50 11s43 3 43 4 12 3 27 5c16 2 38 7 50 11 13 5 27 8 32 9 9 0 16 12 34 55 23 58 31 87 33 125 2 22 5 45 8 50 7 12 10 28 15 83 3 24 10 50 17 58 6 7 9 21 5 29-3 8 0 15 5 15 6 0 9 9 6 20s-2 22 2 24c7 5 6 106-1 139-7 28-39 44-108 51-175 18-169 15-163 103 8 102 10 141 13 218 5 107 14 133 53 139 165 23 195 29 219 47 15 10 33 19 41 19 29 0 37 24 37 120 0 73-6 111-24 165-29 87-47 125-58 125-4 0-8 7-8 15 0 50-107 152-209 199-43 20-137 31-146 17zm88-203c12-6 35-23 51-39 29-27 29-28 12-54-10-15-27-30-37-32-10-3-19-10-20-17-6-65-5-78 12-97 27-31 125-36 140-7 7 14 7 23-2 34-6 8-9 17-5 21 11 11 37-22 45-58 5-19 10-38 11-44 1-5 2-21 1-34-1-21-4-23-37-17-23 5-41 3-51-6-18-14-104-39-115-32-3 2-10 18-13 35-10 45-67 103-94 94-12-3-21-12-21-19s-9-21-20-31-20-26-20-37c0-21 2-21-39-7-19 7-30 17-28 24 3 6 1 32-4 57-7 33-17 48-35 56-24 11-33 45-15 56 14 9 41-4 41-19 0-17 20-24 40-14 8 4 28 12 44 18 16 7 26 14 23 17-2 3 1 26 9 51 10 34 11 50 3 66-9 16-8 23 7 34 22 16 88 17 117 1zm-71-582c-17-26-30-140-29-246 2-96 0-115-13-115-30 0-17 345 14 394 8 12 11 11 22-4 7-10 10-23 6-29zm-102-522c0-8 4-13 9-9 5 3 12 1 15-4 4-6 18-6 35-1 42 12 134 7 139-8 5-16-32-28-93-31-40-1-55-7-72-27-34-37-29-48 15-39 42 9 49 9 111 7l44-2-8-47c-4-27-8-61-9-77-2-17-8-32-14-34-7-2-12-10-12-18s-4-14-10-14c-5 0-10 4-10 9 0 6 5 13 10 16 6 3 10 10 10 14 0 18-162-29-168-49-7-19 17-29 52-20 17 5 48 11 68 15 33 5 37 4 31-12-4-10-10-20-14-23s-9-12-11-20c-7-30-106-61-240-74-54-6-57-5-82 25-14 17-29 43-32 57-4 15-9 32-13 37-3 6-6 15-7 20-1 6-7 37-13 69-6 33-11 79-11 102 0 37 4 44 30 57 16 8 49 18 72 22 50 8 68 20 68 45 0 21 17 27 73 29 27 1 37-3 37-15zm-260-44c0-16-4-30-10-30-5 0-10 14-10 30 0 17 5 30 10 30 6 0 10-13 10-30zm19-82c-12-43-9-46 46-50 30-1 55 0 55 4s7 5 15 2c23-9 19 23-4 36-17 8-110 15-112 8zm361-63c-11-13-8-15 15-15s26 2 15 15c-7 8-14 15-15 15s-8-7-15-15zm-72-5c-34-10-67-40-45-40 27 0 75 21 81 36 6 16 3 16-36 4zm-267-129c-16-29-15-31 30-31 36 0 40 2 37 23-4 30-52 37-67 8z" transform="matrix(.1 0 0 -.1 -40.624076 216.719873)"/></svg>