<svg height="91.028525pt" preserveAspectRatio="xMidYMid meet" viewBox="0 0 148.674396 91.028525" width="148.674396pt" xmlns="http://www.w3.org/2000/svg"><path d="m473 1222c-50-21-77-53-93-112-28-105-4-213 50-225 16-4 34-4 39-1 14 9 23-10 27-62 1-26 5-67 7-92s11-58 20-75c9-16 24-45 33-62 10-18 25-33 33-33 13 0 14-2 2-9-8-5-14-24-13-43 3-114 5-128 15-128 37 1 52 58 35 133-8 37-7 44 11 59 18 14 22 33 29 127 4 61 5 118 1 128-4 13 5 25 32 45 50 36 60 81 30 138-12 22-21 52-21 65 0 14-9 33-20 42-11 10-20 22-20 28 0 20-110 95-138 94-9 0-36-8-59-17zm470-9c-7-2-13-10-13-17s-11-18-25-24c-32-15-67-92-68-147-1-58 20-153 37-170 8-8 22-15 30-15 13 0 16-12 16-54 0-75 26-215 50-271 11-27 20-55 19-64-3-24 12-71 22-71 5 0 9 5 9 10 0 6 9 10 19 10 19 0 19 2 5 36-15 35-14 38 8 61s23 32 23 164c0 76 3 139 8 139 4 0 7 7 7 15 0 10 10 15 32 15s39 9 59 31c25 28 28 38 23 78-3 25-8 57-11 71-4 14-6 28-5 31 3 18-38 115-55 127-52 40-147 63-190 45zm432-60c-67-10-125-111-122-214 2-71 13-89 60-98l32-7 1-104c1-145 1-144 30-173 20-20 27-39 30-79 9-111 15-139 29-128 18 15 17 90-1 107-22 22-7 96 22 107 10 4 14-1 13-17-1-12-1-46-1-74 2-52 2-53 33-53 29 0 31 2 25 26-4 14-3 31 2 37 5 7 12 27 14 45 4 31 2 35-34 50-35 16-38 19-34 52 3 19 5 35 6 35 2 0 4 29 5 65 2 36 4 72 4 81 1 11 14 15 54 17 29 0 65 6 80 11 36 14 45 66 21 129-10 26-18 54-19 62s-7 31-13 50c-10 30-21 38-71 58-55 21-97 25-166 15zm-614-518c2-25 5-48 8-50 4-2 5-37 4-79s3-76 8-76 9-11 9-24c0-34 15-41 39-17 20 20 21 63 5 154-4 23-8 50-9 60s-6 22-12 25c-6 4-12 16-14 27-3 11-12 21-22 23-15 3-18-3-16-43zm364 15c-3-6 1-13 9-16 9-3 16-10 16-16 0-5-4-7-9-4-10 6-9-104 1-119 4-6 3-17-1-24-5-7-2-37 5-68 12-52 24-80 24-55 0 7 7 12 16 12 13 0 14 3 5 14-7 8-8 17-3 19 8 6 8 134 0 195-3 18-14 41-26 52-24 23-28 24-37 10zm-700-47c-10-39-12-99-6-142 5-30 11-36 31-36 27 0 42 38 35 90-2 16-4 36-4 43-1 7-11 17-23 22-19 7-19 9-5 9 10 1 15 6 12 11-4 6-11 7-17 4-7-5-9-1-5 9 3 10 3 17-2 17s-12-12-16-27zm850-116c8-103 47-181 77-151 3 3-1 18-9 34-10 20-11 35-5 47 6 10 6 26 1 40-5 13-6 29-3 37 9 24-23 75-46 73-19-1-20-6-15-80zm337 58c-17-36-15-41 8-20 20 18 27 45 12 45-5 0-14-11-20-25zm-1360-11c-18-20-15-36 14-68 22-23 24-30 13-37-12-7-12-13 1-35 8-15 20-29 26-31 15-5 26 78 12 94-6 8-8 16-5 20 8 8-19 59-35 66-7 2-19-2-26-9zm1400-5c8-21 25-86 33-123 6-27 6-28 26-10 29 26 20 65-26 110-21 22-36 32-33 23zm-48-37c3-5-4-21-15-38-21-32-25-54-8-54 5 0 15 14 20 30 6 17 15 30 20 30 15 0 10 27-7 34-8 3-13 2-10-2z" transform="matrix(.1 0 0 -.1 -24.088761 123.944938)"/></svg>