<svg height="131.871199pt" preserveAspectRatio="xMidYMid meet" viewBox="0 0 89.251136 131.871199" width="89.251136pt" xmlns="http://www.w3.org/2000/svg"><path d="m649 1606c-3-3-20-8-39-11-111-18-174-55-231-132-90-121-120-266-89-421 17-83 41-101 147-109 43-3 82-9 87-13 5-5 9-53 11-107 1-54 6-157 10-229l8-132-24-7c-29-10-44-25-44-47 0-10-2-17-5-16s-15-4-27-11c-26-13-29-38-9-66 13-18 16-18 119-1 105 18 136 18 342 0 72-7 146 4 183 26l32 20-19 39c-23 43-36 51-90 51-67 0-72 13-77 222-3 100-6 197-8 214-4 29-2 31 51 47 103 32 161 65 181 104 20 37 15 178-8 225-11 23-20 47-20 53 0 39-174 235-209 235-5 0-22 10-38 23-45 37-79 47-157 47-40 0-75-2-77-4zm129-105 22-12-26-35c-35-45-44-116-19-144 18-20 51-25 93-14 31 9 68 89 51 110-25 30 11 12 55-27 40-36 61-79 38-79-5 0-23-31-41-68-27-57-31-73-22-90 10-18 8-21-20-27-17-4-33-13-36-21-3-9-20-14-43-14h-39l1 42c0 23-5 44-11 46s-11 10-11 17c0 21-30 26-49 7-20-19-41-74-41-107 0-34-24-47-92-50-100-4-110 2-112 63-2 66-23 91-61 74-37-17-47-7-42 41 14 123 40 179 105 222 34 23 45 25 95 19l57-7v31c0 17 4 32 10 34 22 7 118 0 138-11zm258-460c-7-11-85-26-93-18-6 6 51 25 80 26 10 1 16-3 13-8zm-340-186c-3-9 3-19 14-25 15-8 20-8 20 2s2 10 9 0c7-12 12-12 29-1 17 10 24 11 33 2 15-15-5-43-31-43-11 0-16-8-16-22 1-29 23-47 49-40 14 4 18 0 15-14-2-10-14-21-28-24-17-4-27-16-34-39-11-38 4-54 40-45 26 7 32-1 40-52 5-33 4-36-10-25-8 7-24 10-36 6-21-7-44-50-35-65 6-10-20-21-67-27-32-4-38-2-38 14 0 10-6 25-12 32-11 10-10 11 5 6 14-6 17-2 17 22 0 16-3 33-7 36-7 8-10 67-3 67 3 0 5 53 5 118-1 64 1 120 3 125 2 4 12 7 24 7 14 0 18-5 14-15zm-153 496c-18-15-33-35-33-44s-4-17-10-17c-5 0-10-7-10-15s4-15 9-15 11-10 13-22c4-33 72-39 88-9 6 12 18 21 27 21 21 0 13 68-13 104-24 32-31 32-71-3z" transform="matrix(.1 0 0 -.1 -27.81439 161)"/></svg>