<svg height="141.734567pt" preserveAspectRatio="xMidYMid meet" viewBox="0 0 80.828636 141.734567" width="80.828636pt" xmlns="http://www.w3.org/2000/svg"><path d="m538 1683c-49-8-135-120-162-209-19-64-10-134 19-134 6 0 25-11 43-23 27-20 39-23 77-17 25 4 48 3 51-2 3-4 13-8 23-8 21 0 33-31 21-51-5-7-7-52-5-101l4-88-37-2c-20-1-80-2-132-3-157-2-149 0-169-46-19-42-19-64-1-199 5-41 12-102 15-135 20-210 26-244 58-322l21-53 65-2c36-1 78-1 94 0 15 1 27-2 27-7 0-11 29-14 123-13 124 1 130 2 165 22 18 11 38 17 44 14 7-5 9 0 6 14-4 12 0 26 9 33 26 22 51 83 57 139 3 30 10 56 15 59 19 13 29 47 19 65-7 13-7 20 0 25 6 4 14 29 17 56 4 28 11 58 16 67s9 25 9 35 8 35 18 54c23 45 22 147-2 183l-17 26-119-6-120-5-1 28c0 15 0 54 1 86s-3 57-8 57c-9 0-25 60-27 94 0 12 84 45 118 45 23 1 27 5 27 31 0 38-24 130-44 166-25 48-82 104-114 113-39 12-168 20-204 14zm402-746c0-8-17-12-47-13-67-1-153-15-153-25 0-5-10-9-23-9-56 0-89-82-36-88 28-3 208 44 223 59 18 16 38 10 31-10-3-10-8-36-11-57-7-52-10-70-22-126-5-27-7-48-3-48 3 0-10-11-29-24-43-29-80-41-80-27 0 6 11 11 24 11 17 0 28 9 38 30 7 17 15 30 18 30s6 9 6 20c0 13-7 20-18 20-10 0-18-4-18-8 0-12-58-29-123-37-49-6-60-11-70-32-15-33 0-41 69-38 64 2 71-10 12-21-41-7-51-8-110-12-19-2-29-10-37-32-10-31-18-35-45-24-25 10-19 32 13 49 28 14 29 17 19 46s-13 30-46 24c-30-5-34-4-28 10 3 9 6 23 6 31s8 17 18 21c26 9 52 34 46 44-3 5 0 9 6 9 7 0 10 6 7 13-2 6-19 12-38 12-33 0-34 1-37 43-3 35 0 42 15 42 10 0 33 9 50 20 25 15 34 29 39 59 6 37 9 40 33 36 113-17 127-17 139-3 15 19 162 23 162 5zm-400-18c0-14-5-19-17-17-26 5-29 38-4 38 15 0 21-6 21-21zm261-127c-30-2-60-10-68-18s-21-14-29-14-14-4-14-9-3-16-6-24c-4-11 4-17 26-22 44-10 148 4 165 22 20 20 19 43-2 43-14 0-15 2-5 9 20 12-2 17-67 13z" transform="matrix(.1 0 0 -.1 -25.651442 168.529199)"/></svg>