<svg height="174.186102pt" preserveAspectRatio="xMidYMid meet" viewBox="0 0 120.233465 174.186102" width="120.233465pt" xmlns="http://www.w3.org/2000/svg"><path d="m650 1880c-14-5-44-14-67-20-24-6-43-15-43-20s-7-7-15-3c-17 6-94-30-133-62-13-11-40-41-59-67-19-27-40-48-48-48-9 0-58-95-55-108 0-1-7-18-15-38s-12-40-10-45c3-4 1-16-4-26-14-25-37-104-56-190-13-56-14-77-5-94 8-14 9-24 2-28-14-8 9-71 39-109 22-27 50-49 118-94 26-18 147-58 174-58 12 0 16-26 22-137 4-76 11-147 15-159 5-12 5-25 1-30-5-5-2-61 5-124 18-158 18-159-6-153-20 5-51 45-61 78-3 11-10 19-15 18s-9 18-9 43c0 24-2 44-5 44s-5 25-4 56c2 48-1 57-17 61-10 3-19 9-19 14s-5 9-11 9c-7 0-8-11-4-29 4-17 2-32-5-36-6-4-9-14-6-23 3-10 8-40 11-69 8-71 35-144 67-182 26-30 33-32 101-36 44-3 88-12 114-25 23-11 48-20 56-20 7 0 18-5 23-10 6-6 57-12 115-13 98-2 104-1 104 18 0 17-8 20-52 23-29 2-53 6-53 10s21 16 48 27c49 21 53 22 90 24 21 1 23 5 20 38-2 28-8 40-23 45-17 5-16 6 6 7 39 1 50 22 51 93 0 36 7 72 14 83 28 39 7 84-40 85-15 0-17-6-14-35 2-19 0-35-5-35-4 0-5-5-2-10 4-6 2-16-3-23s-12-31-15-55c-5-43-13-60-22-51-7 8-7 60-1 99 4 19 9 62 11 95s5 62 6 65 0 31-1 63c-2 49 2 63 21 83 21 22 21 25 6 37-9 6-18 28-19 47l-3 35 75 7c41 4 82 11 90 14 8 4 41 6 72 4 31-1 66 4 78 10 25 14 51 68 50 108-1 15 1 61 4 102 8 109-3 209-25 231-12 12-14 19-6 22 9 3 8 11-2 33-8 16-14 32-13 37 1 4-2 7-7 7s-7 9-4 20 0 20-6 20-11 6-11 13-13 28-30 47c-16 19-29 40-30 47 0 14-77 93-91 93-6 0-22 14-36 30-13 17-31 30-39 30s-14 5-14 10c0 6-14 10-31 10s-42 9-56 20-33 20-43 20c-9 0-20 3-24 7-11 11-115 32-156 31-19 0-46-4-60-8zm120-140c-9-17-50-30-50-16 0 2-3 11-6 20-5 13 1 16 30 16 34 0 36-2 26-20zm-112-34c33-35 35-45 32-129-2-40-9-54-41-88-34-36-43-40-66-34-16 4-63 8-105 10-43 1-80 4-83 7-14 13 49 129 107 198 29 34 81 70 102 70 12 0 36-15 54-34zm391-59c42-32 60-56 84-107 16-36 35-68 40-72 14-9-48-67-90-84-51-22-104-17-144 11-65 48-74 83-39 158 11 23 21 59 23 79 9 79 37 82 126 15zm-329-248c0-5-7-9-15-9-15 0-20 12-9 23 8 8 24-1 24-14zm-50-60c31-12 70-67 70-100 0-44-47-84-114-97-95-19-112-16-151 25-37 39-39 45-28 106 7 47 38 70 107 78 53 6 74 4 116-12zm190 12c0-14-18-23-30-16-6 4-8 11-5 16 8 12 35 12 35 0zm356-116c1-11 2-22 3-25s3-38 5-78c4-71 4-72-22-78-15-3-46-12-68-20-23-7-58-10-78-7s-49 0-66-7c-40-16-56-2-55 47 0 25 11 55 31 83 27 40 38 48 119 76 102 36 129 38 131 9zm-826-154c3-1-3-8-13-16-22-16-47-10-47 11 0 13 17 14 60 5zm419-38c22-18 19-33-7-33-27 0-43 15-36 33 8 21 19 21 43 0zm-134-123c18-8 17-9-7-9-16-1-28 4-28 9 0 12 8 12 35 0zm-10-106c15-10 36-14 52-11 26 5 73-10 73-23 0-12-24-30-41-30-16 0-29-19-29-41 0-5 16-9 35-9 30 0 35-3 35-23 0-32-18-47-58-47-23 0-41-7-54-22-29-33-4-52 67-50 42 1 55-2 55-13 0-17-30-35-58-35-17 0-52-37-52-56 0-3 30-4 68-3l67 4 1-51c2-60-8-76-62-93-30-10-50-10-79-2-21 5-41 8-45 6-4-3-13 2-19 9-8 9-8 16-2 20s6 18 0 39c-5 18-6 72-2 127 4 52 6 104 5 115s-3 62-4 113c-3 100 1 106 47 76zm438-374c-3-11-11-20-17-20-18 0-31-49-31-119 0-61 2-65 25-71 17-4 21-8 12-14-20-12-3-26 33-26 40 0 91 41 81 65-10 26-36 29-57 6-32-34-48-27-46 18 1 22 6 43 10 47s7 18 7 31c0 12 4 23 9 23s11 9 14 20 1 20-4 20-9 9-9 20-5 20-11 20-13-9-16-20zm-854-12c-6-23-4-58 5-78 16-38 42-70 51-62 5 4 5 2 2-4-4-7 1-22 11-34 14-18 25-21 45-16l27 6-22 38c-12 20-29 53-39 72-16 32-37 55-67 74-7 4-12 6-13 4zm109-163c-3-3-9 2-12 12-6 14-5 15 5 6 7-7 10-15 7-18zm-205 48c-19-7-15-35 7-61 14-17 31-24 59-25 21-1 37-5 34-9-2-5 0-8 6-8 15 0 26 23 13 28-7 2-9 9-5 15s0 8-10 4c-10-3-17-3-17 2 0 13-74 58-87 54z" transform="matrix(.1 0 0 -.1 -13.425237 188.830273)"/></svg>