<svg height="155.147553pt" preserveAspectRatio="xMidYMid meet" viewBox="0 0 127.802693 155.147553" width="127.802693pt" xmlns="http://www.w3.org/2000/svg"><path d="m750 1895c-71-12-146-37-214-72-35-17-116-97-161-158-17-22-40-51-53-65-31-35-61-101-87-195-13-44-28-93-35-110-19-50 2-221 34-263 7-10 23-12 56-7 37 5 54 2 81-14 19-11 48-22 64-24l30-4-2-174c-1-96-3-176-4-179-6-24 6-91 22-116 10-17 19-38 19-47s26-27 63-45c98-47 115-52 168-52 28 0 59-5 70-11 13-6 25-7 32-1 20 15 77 22 97 12 11-6 20-6 22-1s20 12 41 15c41 6 85 43 110 91 40 79 51 155 52 349v189l62 22c34 13 74 32 89 44 15 11 32 21 38 21 20 0 82 72 104 120 25 54 28 69 18 95-4 11-12 34-18 50-5 17-14 39-19 50-4 11-13 40-20 65-6 25-19 56-28 70s-23 36-29 50c-33 65-48 86-88 127-24 24-54 48-66 53-13 6-30 14-38 18-8 5-42 22-75 38-33 15-62 31-65 35-26 33-150 45-270 24zm208-149c40-7 76-16 80-20 9-10-27-36-49-36-28 0-40-25-42-87-1-66 13-94 62-124 71-43 154-8 172 72 5 22 7 44 4 50-16 24 15 5 52-33 35-38 54-67 57-90 1-3 4-10 9-14 12-12 8-89-6-108-12-16-15-16-39 9-34 33-97 45-117 21-7-9-20-16-27-16-15 0-15-3-18-88-2-34-8-59-19-69-12-12-17-13-17-5s-5 10-12 6c-16-10-38-13-115-17l-62-3 20 33c23 37 30 104 11 111-7 2-12 9-12 16 0 17-63 74-95 86-20 7-30 5-53-15-31-26-39-48-48-126-5-43-4-47 30-73 20-15 34-31 32-35-3-4-47-7-98-6-92 2-214 32-229 57-7 10-38 30-76 47-27 12-28 26-8 75 19 45 35 46 35 2 0-24 9-44 28-64 41-45 61-47 114-12 36 24 47 38 52 66 7 34-10 104-25 104-4 0-10 8-13 18-4 10-23 26-42 36l-37 17 22 20c11 11 21 24 21 29 0 19 35 9 60-16 50-54 103-50 167 12 44 43 55 80 36 124-7 19-12 39-9 46 5 14 67 23 106 17 14-3 58-10 98-17zm-531-271c-4-8-11-15-17-15s-6 7 2 20c14 22 24 19 15-5zm333-485c0-5-4-10-10-10-5 0-10 5-10 10 0 6 5 10 10 10 6 0 10-4 10-10zm-100-20c0-5-14-10-31-10s-28 4-24 10c3 6 17 10 31 10 13 0 24-4 24-10zm380-10c0-11-7-20-15-20s-15-4-15-9-26-9-57-9c-105 1-113-1-113-21 0-34 39-48 115-40 42 4 65-1 65-16 0-11-13-15-53-15-33 0-61-6-76-16-22-16-22-17-5-27 10-6 50-11 89-13 51-1 70-5 70-15 0-11-19-14-78-15-53-1-85-7-103-19-51-33-20-44 128-45 36-1 46-4 42-14-3-8-15-17-27-21-80-26-156-47-182-50-105-12-139-13-155-3-17 11-17 14-2 35 19 30 24 130 6 137-7 3-35 4-63 2-40-2-51 1-51 14 0 8 4 20 8 25 8 11 47 13 58 3 3-4 13 0 21 8 9 8 22 13 31 9 17-6 44 13 36 27-3 5-17 14-31 19-19 7-23 14-17 27 4 9 7 27 7 39-1 26 21 33 90 27 29-3 77-2 107 3 30 4 81 9 113 11 52 2 57 1 57-18zm-447-274c3-8 3-17 0-20-9-9-34 15-27 25 8 13 21 11 27-5z" transform="matrix(.1 0 0 -.1 -19.29252 190.537589)"/></svg>