<svg height="136.193484pt" preserveAspectRatio="xMidYMid meet" viewBox="0 0 90.937033 136.193484" width="90.937033pt" xmlns="http://www.w3.org/2000/svg"><path d="m543 1771c-40-9-64-20-70-33-4-10-41-46-82-81-44-36-89-85-108-117-76-124-114-344-77-440 9-25 16-60 15-78l-1-34 52 3c29 1 77-1 106-6 46-7 53-10 49-27-3-10 1-38 8-61 8-23 19-89 25-147 7-58 15-109 20-115 15-19 22-86 10-100-9-11-7-23 6-50 19-40 33-41 52-3 14 30 61 46 73 26 5-7 9-23 9-34 0-46 40-51 54-7 13 40 86 37 86-4 0-7 7-16 15-19 8-4 12-10 9-15-8-14 12-10 25 4 6 8 14 28 17 45 4 18 10 32 13 32 4 0 8 17 9 37 1 21 7 50 13 65s9 51 6 80c-16 157-19 185-18 212 2 36 8 47 24 40 13-5 122 39 174 71 35 21 42 40 44 125 2 99-22 212-61 295-17 35-30 69-30 76s-7 21-17 31c-13 15-14 23-5 44 18 39 15 49-25 70-43 22-106 65-111 77-2 4-9 7-17 7-7 0-18 7-25 15-22 26-182 37-267 16zm214-131c20-25 15-40-15-40-39 0-52-15-39-44 10-20 17-22 61-18 48 4 53 2 74-27l23-32-20-27-19-28 34 4c31 4 35 1 48-29 15-37 12-53-10-45-7 3-16 1-20-5-3-5-14-7-25-4-13 4-19 2-19-9 0-20-13-20-51-1-35 19-49 13-42-16 5-18 11-20 47-15 23 3 65 7 95 9 53 2 55 1 62-27 11-40 3-49-42-43-21 3-55 1-76-3-23-6-42-5-47 0-14 14-26 12-26-4 0-27 52-58 87-53 50 8 88-41 46-58-29-12-176-5-198 9-32 20-65 26-65 11 0-7 7-18 15-25 16-13 147-49 185-50l25-1-24-10c-14-5-32-9-40-7-9 1-27-4-40-11-17-9-26-10-34-2-6 6-18 11-27 11-8 0-37 11-64 25-27 13-65 28-85 31-42 8-91 31-91 43 0 11 29 23 40 16s23 26 12 37c-9 9-102 28-138 28-19 0-24-5-24-25 0-14 5-25 10-25 6 0 10 5 10 12 0 6 9 3 20-7 25-23 25-31 0-38-13-3-18-1-13 6 4 6-1 8-14 5-33-9-42 27-36 133 3 52 9 98 14 104 5 5 9 21 9 37 0 17 7 31 20 38 11 6 20 18 20 26 0 16 57 44 90 44 12 0 30 8 41 19 11 10 29 17 39 14 21-6 32 9 24 32-5 12-14 14-38 10l-31-7 35 31c25 22 43 30 63 28 15-2 27 0 27 5s4 7 8 4c4-2 14-1 21 3 16 10 91-17 108-39zm227-464c9-19 16-40 16-47 0-17-30-49-45-49-16 0-27 27-15 35 14 8 13 48-1 62-6 6-8 16-5 22 13 21 34 11 50-23zm-442-243c0-10 2-42 2-72 1-61 26-88 26-29 1 71 49 87 102 33 29-29 40-57 93-232 6-22 5-22-72-19-117 6-128 10-142 59-7 23-15 50-17 60-3 9-1 17 5 17s11-7 11-15 7-15 15-15c16 0 20 27 7 47-4 6-16 11-27 10-22-2-24 6-30 103-2 30-1 58 2 62 8 14 23 8 25-9zm-28 576c-3-6-13-9-22-8-10 2-31-1-49-5-43-10-55-46-15-46 31 0 121 32 125 44 6 16-30 29-39 15zm211-67c-11-11-4-22 14-22 24 0 51 10 51 19 0 7-57 10-65 3zm-380-86c-12-9-15-19-11-34 9-26 24-28 52-7 10 8 35 15 55 15 22 0 39 6 42 14 4 11-7 14-49 15-30 0-58 3-63 5-4 3-16 0-26-8zm-71-667c2-19 4-37 5-41 0-5 15-8 31-8 24 0 35-7 48-30 9-16 23-30 30-30 6 0 11-3 11-7-4-23 3-33 24-32 16 1 17 3 5 6-16 4-16 6-2 28 20 30 10 75-16 68-11-3-31 8-53 31-20 20-41 36-46 36s-16 3-25 6c-13 5-15 0-12-27zm662-77c-4-7-5-16-2-19s1-12-5-20c-9-10-8-17 2-29 8-9 14-39 14-67 0-31 5-52 13-54 8-3 12 7 12 32 0 20 5 45 11 56 8 16 6 26-8 47-10 15-20 36-23 47-4 15-8 17-14 7z" transform="matrix(.1 0 0 -.1 -19.155036 178.200459)"/></svg>