<svg height="127.541816pt" preserveAspectRatio="xMidYMid meet" viewBox="0 0 106.56875 127.541816" width="106.56875pt" xmlns="http://www.w3.org/2000/svg"><path d="m655 1560c-96-12-141-28-189-68-25-20-45-41-46-47 0-5-23-39-50-75-28-36-50-70-50-75 0-6-9-27-20-48-11-20-18-37-16-37 3 0-4-26-15-57-14-41-18-71-13-107 9-88 13-99 29-86 10 9 15 7 19-8 7-20 85-42 147-42 34 0 43-12 41-61-1-21 3-41 8-44 6-3 10-16 10-29 0-12 3-26 7-30s8-22 9-39c1-18 4-39 7-47 9-24 18-180 11-180-4 0-13 8-20 17-12 16-15 16-24 3-17-25-11-48 21-85 32-36 72-47 82-21 3 8-3 22-14 32-26 23-24 34 5 34 17 0 27-7 32-22 12-42 25-50 46-31 15 14 18 25 13 58-8 48-30 85-50 85-19 0-19 9 1 48 9 19 13 41 8 54-3 12-8 42-9 67s-8 72-15 104-11 60-9 62c15 14 58 14 73 0 13-14 32-16 94-14l77 4 3-28c5-42-13-58-59-51-30 5-39 3-39-7 0-24 30-60 59-70 25-10 25-11 7-25-11-8-26-14-33-14s-13-10-13-21c0-24 26-48 51-49 14 0 29-19 29-36 0-3-11-9-25-14-15-6-25-17-25-29 0-11-8-24-17-30-12-6-17-20-15-40 1-17-4-46-12-64-17-42-5-61 44-72 19-4 38-13 42-19 5-6 8-2 8 11 0 16 4 21 15 16 9-3 22 2 29 13 8 10 27 19 42 20 16 1 35 3 42 3 15 1 16 105 1 206-14 97-17 193-6 238 9 34 7 40-12 53-31 22-27 29 27 43 26 6 72 27 102 46s59 35 65 35c25 0 43 36 44 85 0 28 3 68 6 89 4 28 0 48-15 73-11 19-18 39-15 43 3 5-3 28-15 52-11 23-20 47-20 53 0 7-15 31-33 54-73 92-274 145-462 121zm208-121c92-24 167-71 167-108 0-11-5-10-22 6-22 20-27 20-108 8-47-7-86-9-88-4-6 15-59 10-72-6-16-19-22-19-46 3-26 24-85 46-137 51-15 2 4 20 36 35 36 17 169 35 207 28 14-2 42-8 63-13zm-334-98c12-11 41-23 64-26 23-4 49-13 57-20 20-16 120-29 120-15 0 5 9 10 20 10s20-4 20-10c0-15 66-12 135 6 33 9 69 18 80 20 17 4 24-4 42-53 53-140 50-168-15-199-28-13-77-16-295-16-261 0-315 5-362 36-20 13-25 25-25 56 0 21 5 42 11 46 6 3 9 14 6 23-2 10 8 38 22 63 57 101 78 115 120 79zm151-31c0-5-2-10-4-10-3 0-8 5-11 10-3 6-1 10 4 10 6 0 11-4 11-10zm229-844c10-11 8-16-8-21-25-8-41 1-41 21 0 18 34 18 49 0zm-404 737c10-43 34-59 112-77 80-19 148-19 165 1 5 7 14 10 19 7s31-7 59-9c38-2 55 2 71 16 14 12 37 19 65 19 32 0 46 5 53 19 16 29-30 33-118 9-102-28-164-36-193-25-12 5-48 7-78 4s-46-3-36 0c16 4 11 8-20 19-21 8-46 14-55 14s-19 7-23 15c-10 27-29 17-21-12zm615-712c6-35 4-44-20-70-15-16-25-32-22-36 3-3-3-12-14-20-18-14-18-14 4-15 12 0 22-4 22-9 0-11 73 5 100 22 16 9 24 9 42-2 16-10 23-10 26-2 2 6 10 11 18 11 20 0 18 13-8 45-19 24-26 27-64 21-41-5-66 5-44 19 6 4 8 10 5 15s-1 12 5 15c7 4 3 14-11 26-36 31-47 25-39-20zm17-137c-3-3-12-4-19-1-8 3-5 6 6 6 11 1 17-2 13-5zm-768 78c-25-5-12-37 28-73 41-36 79-52 103-44 41 13-14 75-77 89-18 4-33 13-35 19-2 7-10 11-19 9zm-134-52c4-7 2-16-6-21-11-7-6-15 21-39 36-30 64-38 75-20 3 6 11 10 16 10 6 0 7-5 3-12-4-6-3-8 4-5 18 12 1 46-35 67-44 26-89 38-78 20z" transform="matrix(.1 0 0 -.1 -22.347047 156.576937)"/></svg>