<svg height="186.582345pt" preserveAspectRatio="xMidYMid meet" viewBox="0 0 107.995055 186.582345" width="107.995055pt" xmlns="http://www.w3.org/2000/svg"><path d="m740 2090c-8-5-23-11-33-14s-15-10-12-16c3-5 0-10-9-10-18 0-68-58-60-71 3-5-1-12-8-14-10-4-14-25-13-78 3-144 23-180 114-197 79-15 94-13 128 18 24 22 30 36 31 71 2 50-19 91-46 91-27-1-61-35-56-56 2-11 0-26-5-33-8-13-15-12-50 5-44 21-47 30-42 127 1 10 18 36 39 56 37 37 41 38 104 37 47-2 74-8 101-25 21-12 35-26 32-30-2-5 6-13 18-20 25-13 57-64 57-91 0-9 7-23 15-30 10-8 12-17 6-29-7-11-4-22 11-38 12-13 17-26 12-35-10-16-7-54 12-178 16-98 12-164-12-232-22-64-85-188-95-188-5 0-9-7-9-15 0-26-61-115-78-115-10 0-28 9-42 20s-33 20-42 20-20 5-23 10c-7 11-45 8-75-4-8-4-26-22-40-41-28-37-68-54-81-33-5 7-9 59-9 114 0 78 3 104 15 114 8 7 15 17 15 22 0 17 72 98 86 98 8 0 14 4 14 9 0 8 52 31 71 31 11 0 48-54 52-76 2-11 7-27 11-36 7-16-18-68-34-68-4 0-15 9-25 20-11 12-31 20-50 20-53 0-67-30-43-96 10-29 17-33 59-39 28-4 56-2 68 5 12 6 21 8 21 5s9-1 21 5c12 7 18 17 15 27-4 10 1 17 15 20 29 8 38 40 29 99-16 99-29 132-66 163-47 38-80 44-129 20-46-21-145-111-145-131 0-7-11-25-24-39s-27-36-31-50c-4-13-12-29-17-36s-7-17-4-22c4-5 2-12-3-15-5-4-7-39-5-79 6-102 9-120 23-125 9-3 9-7 0-18-17-21-38-17-48 9-11 27-69 87-85 87-6 0-19 17-28 38-9 20-25 46-35 57-11 11-20 22-20 25-1 3-7 18-13 35-10 27-34 121-47 188-7 36 13 140 37 193 22 47 85 96 116 88 28-7 55-62 56-111 0-53-5-61-40-55-27 4-28 3-27-40l1-43 50-3c56-3 73 9 93 67 13 41 15 91 2 91-5 0-7 9-4 20s-5 43-18 70c-48 102-146 113-230 25-58-61-69-79-90-153-20-72-26-216-9-227 6-3 8-16 5-28-4-15 2-30 17-46 14-16 23-39 25-67 1-34 14-61 59-126 32-46 74-99 93-119 50-49 80-90 86-114 30-142 40-172 65-200 26-27 28-38 33-126 4-81 10-104 34-148 26-48 30-51 58-46 17 4 59 9 95 11 36 3 72 8 80 11s23 5 33 4c22-3 57 26 57 47 0 9 6 23 14 31 17 20 29 118 15 123-7 2-7 12 0 30s6 38-2 63c-9 32-9 39 5 49 9 6 26 18 37 26 12 8 21 18 21 22s10 23 22 44c19 32 22 54 19 120-1 9-22 36-47 61-38 37-44 46-32 56 20 17 48 64 48 81 0 8 4 16 8 18 12 5 52 65 52 78 0 6-4 8-10 5-5-3-10-2-10 2 0 5 14 14 30 20 19 7 30 18 30 30 0 10 6 27 14 38 7 11 23 49 35 85s25 72 28 80c4 8 7 17 7 20 1 3 5 11 9 17 4 7 9 32 10 55 2 24 6 49 11 56 4 7 6 30 5 52-2 21 0 42 4 46 12 12 8 24-9 24-8 0-12 4-9 10 3 5 0 20-6 32-7 13-14 34-15 48-3 35-29 101-42 109-6 3-13 18-17 33s-39 57-80 95c-91 85-102 93-115 93-5 0-10 3-10 8 0 4-25 8-56 10s-67 7-81 13c-29 11-43 11-63-1zm78-1641c3-73 3-74-25-86-55-22-70-24-77-8-3 8-11 15-19 15-7 0-23 10-34 23-15 17-19 32-15 70 4 47 4 47 41 48 20 0 45 4 56 8 11 5 31 8 44 6 23-2 25-6 29-76z" transform="matrix(.1 0 0 -.1 -16.988455 209.893126)"/></svg>