<svg height="123.476314pt" preserveAspectRatio="xMidYMid meet" viewBox="0 0 109.365471 123.476314" width="109.365471pt" xmlns="http://www.w3.org/2000/svg"><path d="m508 1447c-7-8-19-12-26-9-6 2-12-1-12-8 0-6-3-9-8-6-4 2-30-2-58-9-59-15-228-137-284-204-54-66-80-163-75-281 6-123 9-142 32-187 30-61 63-78 146-76 56 2 73-1 83-15 12-17 8-78-7-97-4-6-6-27-4-48 2-20-1-51-6-69-6-21-5-36 2-45 8-9 8-13 1-13s-10-15-8-35c5-64 114-130 196-120 19 3 91 7 159 10 91 4 129 9 141 20 9 8 23 15 32 15 22 0 29 11 17 27-9 10-8 13 5 13 11 0 16 9 16 28 0 16-3 32-7 36-10 9-14 166-5 166s8 92 0 105c-14 23 14 38 87 49 42 6 86 19 91 27 3 5 27 9 53 9 29 0 53 6 60 14 13 15 12 127 0 164-5 13-5 22 2 22 10 0 8 75-4 86-3 3-3 12 0 20 2 7-2 23-11 36-9 12-16 32-16 43 0 12-11 31-25 43s-25 30-25 40c0 22-83 104-127 126-18 9-40 27-48 40-25 37-126 74-237 86-121 12-114 13-130-3zm188-78c22-1 39-11 59-35 16-19 34-34 42-34 20 0 17-77-3-88-13-7-9-15 25-51 22-23 38-47 35-54-2-7 7-19 20-27 20-10 23-17 16-31-13-24-13-29 5-29 8 0 14-6 13-12-3-12 1-13 36-9 8 0 20 17 27 35 7 19 17 32 22 29s13 1 18 8c7 12 11 11 24-2 9-9 18-27 20-40 16-130 17-151 5-179-7-16-17-30-22-30-6 0-33-12-62-26-65-33-216-47-216-20 0 9 8 16 19 16 20 0 46 24 38 37-3 4 1 22 7 38 11 26 10 35-7 68-10 20-24 37-31 37-6 0-17 9-24 20-14 23-54 26-92 7-55-28-80-151-40-197 44-51-20-72-221-72-59 0-82 4-94 16-9 9-21 16-27 16-7 0-2 10 10 23s22 30 22 39 5 18 11 20c13 4-29 108-43 108-5 0-8 6-8 13 0 14-45 37-72 37-30 0-76-28-83-50-3-11-11-20-17-20s-8 9-3 23c3 12 11 40 16 62 18 75 33 100 93 157 57 55 60 56 70 36 6-12 27-26 46-31s40-12 45-17c25-19 99 15 92 42-3 10 1 21 8 26 15 8 30 52 18 52-13 0-8 46 6 64 15 18 80 32 130 29 20-2 50-4 67-4zm-296-89c0-13-7-20-20-20-23 0-26 10-8 28s28 15 28-8zm396-611c9-16-13-27-41-21-19 3-21 7-12 18 15 16 43 18 53 3zm-96-19c0-11-6-20-14-20-12 0-14 14-7 38 1 1 6 2 11 2 6 0 10-9 10-20zm-165 0c9 15 25 12 25-5 0-10-10-15-29-15-20 0-30-6-34-19-6-25 14-33 63-25 44 7 50 0 38-43-8-31-11-33-56-35-26 0-53-1-59-1-7 1-13-7-13-16 0-17 65-51 99-51 21 0 33-22 25-43-6-16-67-47-92-47-9 0-23-9-30-20-14-23-44-26-64-7-7 8-22 19-33 25-18 9-20 20-19 89 1 43 5 90 8 106 16 75 17 77 1 77-8 0-15 5-15 11 0 7 7 8 18 4 36-15 60-17 83-4 13 7 27 12 32 11 4-1 7 3 7 8 0 7 6 7 19 0s22-7 26 0zm145-175c0-26-4-35-16-35-13 0-14 3-5 13 6 8 8 17 5 20-7 7 2 37 11 37 3 0 5-16 5-35zm305 450c-14-14-25-28-25-30 0-3 28 1 40 5 3 1 9 2 14 1 13-3 36 20 36 35 0 23-37 16-65-11z" transform="matrix(.1 0 0 -.1 -4.474852 145.899805)"/></svg>