<svg height="177.900872pt" preserveAspectRatio="xMidYMid meet" viewBox="0 0 54.642211 177.900872" width="54.642211pt" xmlns="http://www.w3.org/2000/svg"><path d="m450 1999c-55-22-117-100-143-179-29-89-66-299-68-385-2-122 10-522 16-537 5-13 18-18 45-18 22 0 42-5 46-12s7-137 7-290c-1-268-1-278 18-278 10 0 19-5 19-11s7-8 16-5c10 4 29-5 50-24 36-31 58-37 69-20 3 6 14 10 25 10 10 0 20 7 24 15 3 8 12 12 21 9 8-4 22-1 30 6 9 7 26 10 40 6 17-4 31-1 40 8 8 8 20 16 26 18 20 7-8 47-44 61l-32 14 1 166c1 92-3 167-8 167-7 0-7 29 1 125 1 6 28 11 60 12 33 0 64 4 70 7 9 6 9 58-4 296-6 125-15 234-21 250-10 27-25 114-30 175-3 33-12 78-20 100-17 45-40 122-55 178-10 40-29 77-40 77-4 0-23 16-42 35-37 37-68 43-117 24zm67-107c13-10 33-49 47-92l26-75-23-17c-20-16-36-20-92-22-11-1-26-5-33-9-15-10-89 1-98 14-3 5-1 24 5 42 6 17 13 44 16 59 7 34 30 58 66 65 16 3 26 10 23 15-7 11 14 38 30 38 6 0 21-8 33-18zm96-246c9-7 17-24 17-37s4-40 9-59 12-61 16-93c6-55 5-58-11-49-13 7-25 7-38 0-21-11-132-28-205-31-25-1-46-7-49-14-7-23-30-13-34 15-8 57-4 59 95 64 117 7 230 50 211 80-7 11-133 1-149-12-5-4-41-7-80-6l-70 1 2 59c3 81 8 93 31 72 24-20 70-19 152 4 80 22 81 22 103 6zm72-351 6-50-42-2c-23-2-54-9-69-17-22-11-47-12-112-5-84 8-105 3-95-24 18-48 167-64 253-27 70 30 80 23 76-55-3-48 0-65 9-65 10 0 10-3 1-12-7-7-12-27-12-46v-34l-57 7c-32 5-113 9-181 10-95 1-126 4-133 16-9 15-14 105-12 252 0 85 7 113 21 91 4-6 16-16 27-21 37-18 192-2 259 27 23 10 44 15 47 11 4-3 10-28 14-56zm-185-461c0-19 0-37-1-40 0-4 5-10 11-14 8-5 14-36 15-76 2-38 5-119 8-181l5-111-25-7c-14-3-26-5-27-3-10 15-34 149-30 165 3 12 1 23-4 27-6 4-7 21-1 46 6 27 6 48-2 61-7 15-7 24 1 34s8 19 0 34-8 21 0 21c6 0 0 15-14 33-15 19-26 37-26 40 0 9 32 13 63 9 23-4 27-9 27-38zm-52 929c7-3 16-2 19 1 4 3-2 6-13 5-11 0-14-3-6-6zm-68-688c-17-20-3-24 143-44 106-14 213 34 112 50-22 4-45 3-51-2-11-9-140-4-175 7-9 2-22-2-29-11z" transform="matrix(.1 0 0 -.1 -23.900099 200.950369)"/></svg>