<svg height="147.956964pt" preserveAspectRatio="xMidYMid meet" viewBox="0 0 79.893551 147.956964" width="79.893551pt" xmlns="http://www.w3.org/2000/svg"><path d="m547 1754c-1-2-19-5-40-8-20-2-46-8-59-11-39-12-138-77-138-91 0-7-6-17-12-21-37-24-107-192-124-298-3-22-8-43-11-48-6-10-14-156-17-322-2-117 0-146 15-176 22-44 59-60 117-49 66 12 87 8 84-15-3-21-2-247 1-280 1-13-4-20-18-21-11-1-43-4-72-8-28-3-54-2-57 3-8 12-77-4-87-21-11-16-11-35-1-42 4-2 68-7 142-11s138-8 141-11c4-2 54-4 113-5 58-1 106-5 106-9s33-10 74-13c40-4 85-11 100-16 22-9 28-7 42 14 15 23 14 26-11 60-15 19-39 44-54 54-25 19-26 24-26 113 0 51-4 99-9 106-4 7-3 19 4 27 6 7 9 32 7 54-4 37 0 45 29 70 18 16 46 32 63 36 35 7 65 48 56 75-4 12-2 20 6 20s8 4 1 13c-7 8-7 18-2 27 13 21 12 122-2 200-6 36-11 86-10 112 2 25-2 49-7 52-6 4-6 18 0 38 5 21 5 36-1 42s-10 18-10 28-4 18-8 18-8 16-9 35c-2 53-26 95-84 145-29 25-61 53-71 62-28 27-150 82-161 72zm39-121c80-33 79-79-1-68-31 5-37 4-25-5 12-10 12-11-5-5-11 4-56 10-99 14-50 4-81 11-84 19-2 6 3 12 11 12s17 7 21 15c14 36 114 46 182 18zm-160-125c61-12 169-14 210-4 19 5 26 0 39-25 12-22 13-34 5-43-11-15-99-28-115-18-5 4-17 7-25 9-8 1-32 4-52 7-21 4-38 2-38-3s-16-5-37 1-55 12-75 15c-35 5-38 3-38-20 0-34 23-50 65-45 19 2 35 0 35-4 0-14 118-9 123 5 4 8 8 9 14 1 13-17 65-32 112-32 24-1 45-2 46-4 2-2 6-22 10-44 6-39 5-42-22-49-15-4-53-9-83-11-96-7-120-11-127-18-10-10-73 4-113 25-29 16-36 17-42 5-4-8-5-21-2-29 7-19 59-41 73-32 6 3 11 1 11-6 0-9 29-10 118-5 64 3 131 9 147 11 43 8 55-4 48-47-4-30-11-38-33-43-31-7-240 1-248 10-3 3-14 5-24 5-22 0-41 16-51 43-3 9-13 17-22 17-31 0-9-88 24-97 11-3 22-12 25-20 4-9 13-12 26-8 11 3 20 2 20-4 0-5 20-9 45-8 28 1 45 7 45 14s7 10 15 7 13-11 12-17c-1-7 5-10 13-8s45 5 83 6l67 2v-42c0-48-7-60-27-44-7 7-30 9-53 6-27-3-43-1-51 10-7 8-26 13-43 12s-44 4-61 10c-55 22-105-12-56-39 27-14 78-13 83 2 3 8 11 5 24-8 21-20 28-22 114-28 30-3 59-5 63-5 5-1 7-11 5-23-4-29-62-40-200-39-76 0-98-3-98-13 0-15-98-27-106-14-3 4-10 5-17 3-15-6-40 14-56 43-27 50-14 406 18 485 6 15 8 27 5 27-4 0-2 6 4 13 5 6 15 32 22 56 6 25 19 54 28 66 15 20 19 21 38 9 11-8 47-19 80-26zm399-248c3-5 1-10-4-10-6 0-11 5-11 10 0 6 2 10 4 10 3 0 8-4 11-10zm-388-56c-3-3-12-4-19-1-8 3-5 6 6 6 11 1 17-2 13-5zm-22-104c-3-5-10-10-16-10-5 0-9 5-9 10 0 6 7 10 16 10 8 0 12-4 9-10zm243-368c6-18-15-14-22 4-4 10-1 14 6 12 6-2 14-10 16-16zm-106-80c22-13 27-25 33-71 3-31 8-72 11-92 4-30 1-37-20-47-13-6-32-9-42-7-63 13-74 16-74 25 0 5-5 21-11 37-15 37-18 166-5 175 15 10 75-1 108-20zm-302-272c0-5-5-10-11-10-5 0-7 5-4 10 3 6 8 10 11 10 2 0 4-4 4-10z" transform="matrix(.1 0 0 -.1 -12.046725 175.531308)"/></svg>