<svg height="155.419583pt" preserveAspectRatio="xMidYMid meet" viewBox="0 0 122.663351 155.419583" width="122.663351pt" xmlns="http://www.w3.org/2000/svg"><path d="m1025 1711c-22-4-46-11-54-15-7-5-48-15-90-22-99-17-152-41-226-104-33-27-90-75-127-105-82-67-119-106-112-117 3-4 0-8-6-8s-20-21-30-46c-24-54-26-146-6-195 17-42 80-101 99-93 8 3 20-2 27-11 11-13 10-18-5-29-17-12-16-15 10-54 15-23 31-42 35-42s10-14 14-31c4-19 13-33 26-36 11-3 20-12 20-19 0-8 8-18 18-21 9-4 20-11 23-15 8-12 75-27 121-28 37 0 38-1 37-37 0-21 1-66 4-101 2-34 1-65-4-68-9-5 22-90 47-129 17-26 39-31 63-16 12 8 11 18-7 63-29 75-35 110-35 222 0 82 3 100 17 108 16 9 48-11 45-29-4-24 4-31 36-30 43 1 53-8 33-30-9-10-18-30-20-44-4-23 1-29 29-43 25-12 33-21 29-34-3-9-11-39-17-67-7-27-17-53-22-57-14-9-19-76-7-83 6-4 10-1 10 5s4 9 9 5c6-3 18 12 27 32 22 48 32 54 67 47 15-3 27-1 27 4s10 12 21 15c19 5 21 11 15 49-3 24-6 88-7 142l-2 100 37 12c75 26 208 147 242 219 28 60 53 90 82 99 12 4 22 14 22 22s3 14 8 14c11 0 13 78 2 85-6 3-10 15-10 25s-5 31-12 47c-13 33-15 37-26 83-22 89-76 160-192 255-66 54-106 79-143 90-77 21-98 24-142 16zm115-127c0-3-6-15-14-27-27-43-28-74-4-91 55-39 106-7 95 60l-6 33 33-18c51-29 101-82 137-145 28-52 33-69 33-128 0-37-2-69-4-72-3-2-41 2-85 10s-91 13-105 10c-14-2-32 0-41 4-9 5-36 11-60 12-39 3-44 6-41 26 2 12-2 22-8 22s-10 7-8 16-4 21-13 27c-21 13-56-21-55-54 1-21-4-24-49-30-27-4-68-12-90-19-22-6-58-14-80-16-22-3-47-7-55-10-31-11-228-16-234-5-12 18 17 51 46 51 18 0 33 9 47 29 25 34 27 51 7 51-30 0-25 20 13 62 40 43 55 45 56 5 0-16 7-23 27-25 22-3 27 2 33 28 5 23 2 37-11 51-9 10-15 21-13 23 21 20 165 76 200 78 40 3 44 1 43-19 0-16 5-23 18-23 10 0 18 4 18 10 0 5 8 6 17 3 13-5 15-2 10 11-4 10-7 22-7 27 0 6-5 7-11 3-7-4-10-1-7 7 5 16 91 36 136 31 17-3 32-6 32-8zm-60-368c0-3-4-8-10-11-5-3-10-1-10 4 0 6 5 11 10 11 6 0 10-2 10-4zm77-97c27-10 22-36-16-78-32-35-41-39-39-13 2 32-2 67-11 81-13 21-34 2-60-55-12-24-25-44-30-44-8 0-5 78 4 107 7 21 96 23 152 2zm-222-60c0-30-3-75-7-101-7-44-6-48 13-48 16 0 19-4 13-22-8-29-6-27-40-33-25-5-31-2-41 21-17 36-16 44 4 59 15 11 15 14-3 41-33 47-58 114-48 124 8 8 77 18 99 15 6-1 10-26 10-56zm477 23c13-13-37-47-72-47-16 0-25-6-25-15 0-19-20-40-38-40-8 0-17-6-20-13-3-8-21-22-41-31s-36-21-36-25c0-10-53-32-88-37-30-4-27 29 3 34 28 5 91 68 116 115 22 44 38 62 59 69 26 8 131 1 142-10zm-732-44c20-16 52-33 71-38 39-11 67-46 50-63-6-6-11-30-11-54 0-41-12-57-23-30-3 7-24 26-48 42-24 17-47 34-51 40-4 5-29 35-57 65s-51 58-51 62 19 6 42 6c31 0 52-8 78-30zm674-89c-3-5-10-7-15-3-5 3-7 10-3 15 3 5 10 7 15 3 5-3 7-10 3-15zm-729-59c3-5-1-10-10-10s-13 5-10 10c3 6 8 10 10 10s7-4 10-10zm178 553c-20-7-15-48 7-68 12-11 29-16 45-12 21 3 28 0 35-19 11-28 11-28 43-13 18 8 24 19 23 38-2 37-25 58-71 63-22 3-47 7-55 11-8 3-21 3-27 0zm488-32c-21-13-1-54 27-56 24-2 33 14 25 44-6 22-28 27-52 12zm-80-20c-8-5-16-27-17-49-1-34 2-42 23-51 17-8 30-8 44-1 10 6 19 12 19 14 0 15-24 66-31 66-5 0-8 5-6 11 3 16-15 21-32 10zm-595-109c-3-5-3-17 0-28 4-16 12-19 45-16 45 5 47 8 17 33-22 20-53 25-62 11zm619-779c-10-21-26-49-36-62-11-13-19-32-19-42 0-24 32-25 52-1 21 24 48 82 38 82-4 0-6 14-4 30 7 42-10 38-31-7zm-573-19c-16-17-15-24 8-76 24-55 43-72 70-63 24 8 28 50 5 59-8 3-15 14-15 24s-13 30-28 44c-23 20-30 22-40 12zm755-35c-9-6-17-18-17-28 0-21-37-64-63-74-24-9-21-24 6-31 34-9 42-7 64 12 27 24 46 61 39 78-3 9-1 12 4 9 15-9 12 21-3 33-8 7-18 7-30 1zm-941-7c-3-4 2-19 9-33 8-13 20-34 26-46 7-13 16-23 21-23 4 0 8-5 8-10 0-6 10-24 22-40 24-33 58-39 79-14 10 13 8 19-14 40-15 14-27 29-27 34s-19 29-43 54c-40 43-69 57-81 38zm-136-87c-22-27-7-48 52-71 90-35 137-8 73 40-59 45-104 56-125 31zm950-45c0-13 5-20 13-17 6 2 12 10 12 17s-6 15-12 18c-8 2-13-5-13-18zm-130-52c0-5 7-11 15-14 10-4 13-14 9-30-8-29 11-32 26-4 14 26 0 53-29 55-12 1-21-2-21-7zm110-10c-11-12-18-23-16-25 7-8 46 22 46 34 0 18-6 16-30-9zm-593-12c-14-11-15-15-5-20s10-7 0-12c-15-7-6-24 12-24 8 0 24 8 37 19 20 16 21 21 10 35-16 19-30 20-54 2zm332-8c-2-19 2-62 6-66 2-2 12-1 23 2 15 5 20 15 19 41-1 30-5 35-24 35-13 0-23-6-24-12z" transform="matrix(.1 0 0 -.1 -33.050955 171.491894)"/></svg>