<svg height="145.519907pt" preserveAspectRatio="xMidYMid meet" viewBox="0 0 119.974866 145.519907" width="119.974866pt" xmlns="http://www.w3.org/2000/svg"><path d="m814 1601c-17-4-36-11-42-15-15-9-96-117-105-138-9-24-30-23-52 2-10 11-22 20-26 20s-19 11-33 25c-19 19-32 24-51 19-14-3-31-1-38 4-7 6-18 7-25 3-8-4-24-6-38-3-14 2-24 0-24-7 0-6-6-11-12-11-25 0-97-88-118-141-11-30-20-77-20-105 0-92 50-193 82-167 19 16 78 26 78 14 0-5 12-9 28-9 52 1 58-2 60-29 1-15 7-32 12-37 19-19 11-45-17-52-69-16-102-32-128-62-15-18-34-31-41-28-9 3-16-4-20-22-3-15-8-33-10-41-2-7 1-20 7-27s8-18 5-23c-8-13 14-104 27-112 5-4 11-22 13-40 1-19 16-77 33-129s31-102 31-111c0-24 29-89 52-119 28-35 69-60 101-60 15 0 27-3 27-8 0-4 12-13 28-19 47-21 106-26 152-12 25 7 56 14 70 14 14 1 43 7 65 12 22 6 69 15 105 22 120 22 202 52 232 85 15 17 28 36 28 42s9 22 19 36c11 13 24 42 30 65s16 45 21 48c6 4 8 11 4 16-3 6 3 19 15 30 11 11 23 32 27 47 3 15 9 36 14 47 17 39 37 199 32 246-2 16-14 32-35 44-18 10-35 23-39 29-3 5-26 11-49 12-37 1-44 5-50 28-4 15-3 26 3 26 5 0 9 21 8 48-2 74 6 89 52 96 23 4 54 14 70 24 27 16 28 18 28 104 0 70 3 90 15 94 17 7 20 40 5 49-6 4-8 10-5 15s-3 18-15 30c-11 11-20 24-20 28 0 8-71 70-100 87-54 33-162 19-225-29-34-26-55-33-55-18 0 14-76 52-104 52-14 0-26 5-26 10 0 11-11 11-56 1zm41-101c-11-35 2-58 30-52 14 2 28 8 31 13 8 14 44 11 44-4 0-7-16-29-35-47-32-31-35-39-30-71 5-30 3-37-17-45-13-5-47-7-75-4-61 6-78 24-81 79-2 32 5 47 44 94 33 41 53 57 71 57 20 0 23-4 18-20zm373 6c55-29 73-58 78-132 3-38 1-74-3-80-9-13-197-22-223-11-8 3-24 7-35 9-30 5-41 58-21 99 9 17 16 36 16 41 0 21 56 61 110 78 37 12 48 11 78-4zm-834-111c-9-21 42-20 54 1 6 11 16 14 31 9 27-8 27-28 1-46-19-13-19-17-8-41 14-30 37-35 67-16 17 10 24 8 45-14 21-20 23-28 13-36-20-17-96-31-189-35-81-4-87-2-92 17-10 37-6 102 6 114 7 7 8 12 3 12s2 11 15 25c26 28 63 35 54 10zm365-207c5-18 12-70 15-115 5-82 5-83-18-83-30 0-43 17-44 57-1 35-25 89-43 95-17 6-1 48 17 48 8 0 13 4 10 9-7 10 9 19 36 20 10 1 20-11 27-31zm146 22c11-18 15-179 5-185-5-3-10-15-10-25 0-24-11-31-38-23-17 4-21 12-18 34 1 16 6 32 9 36 4 3 5 15 2 27-2 12-6 45-10 74-5 48-4 53 17 62 30 12 36 12 43 0zm116-51c6-13 8-36 4-58-4-20-9-47-11-61-9-56-15-70-29-70-19 0-19 37 0 56 8 9 13 25 11 37-16 78-17 117-2 117 8 0 20-9 27-21zm119-29c0-11 14-29 30-42 35-25 35-28 14-85-14-36-21-43-44-43-46 0-55 21-41 94 7 34 12 66 10 71-3 19 1 25 16 25 8 0 15-9 15-20zm-530-11c0-6 6-9 13-6s13-3 14-12 6-32 11-52c10-41 3-61-25-65-30-5-52 6-59 29-3 12-13 36-21 54-12 27-13 34-1 47 15 18 68 21 68 5zm314-395c4-12 13-14 32-10 36 9 64-2 64-24 0-21 28-40 59-40 12 0 21-4 21-9s8-11 18-14c13-3 11-6-11-15-16-7-39-12-53-12-17 0-24-5-24-20 0-26 36-46 55-30 8 6 22 11 32 10s35-2 56-1c34 1 40 5 53 37 12 29 18 34 27 24s9-14 0-17c-7-2-10-10-7-17 11-28-60-66-123-66-13 0-23-5-23-11 0-7-11-9-27-6-15 3-33 3-40 0-16-6-17-35-1-51 18-18 4-24-72-30-39-2-73-9-76-13-3-5-31-9-64-9-53 0-58 2-64 24-7 29-47 41-79 24-26-14-174-15-188-1-15 15-48 113-39 113 14 0 40-42 40-63 0-14 4-17 18-12 9 5 26 7 37 6s54-1 95-1c71 1 106 12 94 31-10 17 7 49 26 49 30 0 43 34 21 54-10 9-21 13-25 9s-30-9-59-11-53-8-55-13c-5-12-30-11-34 1-2 6-40 13-86 15-45 2-82 8-81 12s5 7 10 5c6-1 18 2 28 8 24 12 163 21 176 10 15-11 55 7 55 25 0 8-7 15-15 15-18 0-20 16-2 22 6 3 48 6 92 7s82 4 84 7c11 11 50 2 55-12zm336-74c0-5-5-10-11-10-5 0-7 5-4 10 3 6 8 10 11 10 2 0 4-4 4-10zm-580-464c0-3-4-8-10-11-5-3-10-1-10 4 0 6 5 11 10 11 6 0 10-2 10-4zm514 1269c-9-24 9-37 40-29 35 9 31 38-7 42-18 2-29-2-33-13zm29-90c-33-14-41-36-24-64 7-11 15-10 47 5 22 9 40 18 42 20 2 1 0 13-4 28-7 29-16 31-61 11z" transform="matrix(.1 0 0 -.1 -23.000504 160.851712)"/></svg>