<svg height="102.331224pt" preserveAspectRatio="xMidYMid meet" viewBox="0 0 114.8815 102.331224" width="114.8815pt" xmlns="http://www.w3.org/2000/svg"><path d="m1040 1263c-8-3-19-10-25-17-5-6-27-23-47-38-36-28-92-113-108-165-4-16-11-36-15-45-5-12 3-21 30-34 44-20 53-38 32-62-8-9-20-42-26-72-7-30-18-63-26-74-14-19-35-14-35 9 0 7-8 15-17 17-14 2-17 12-15 43 2 23-4 54-12 70-20 38-20 54 1 77 13 14 14 21 5 30-7 7-12 19-12 28 0 23-80 101-146 141-75 47-125 61-142 43-7-8-21-14-32-14-35 0-124-41-158-73-47-46-74-102-74-158 0-53 26-141 53-181 11-14 19-31 19-36 0-6 14-22 31-35 34-26 28-26 134 9 56 19 62 18 80-16 9-16 22-30 30-30 11 0 14-7 9-25-6-23 3-57 27-110 13-27 26-155 19-185-7-31-57-39-94-15-23 15-26 15-32 2-10-28 0-62 21-65 11-2 27-10 35-17 26-22 131-26 216-9 44 9 88 16 99 16 34-2 91 17 115 38 17 15 26 17 36 9 9-7 19-7 36 2 12 7 42 14 65 16 61 5 115 30 111 51-3 15-15 17-80 14-90-2-108 9-89 57 7 16 10 55 8 90-3 41-1 58 5 49 7-9 8-5 4 13-3 15 5 61 18 107 14 44 22 90 19 101-6 24-4 25 34 10 72-29 135-49 155-49 22 0 53 36 36 43-10 4-10 6 0 6 7 1 12 15 12 35 0 19 5 38 11 42 8 4 7 9-2 14-9 6-10 12-2 22 12 13 11 67 0 85-4 6-9 28-12 49-2 22-9 40-15 42s-8 7-5 11c2 5-7 19-20 31-14 13-25 32-25 41 0 22-26 37-60 34-14-1-41 6-60 17-33 17-88 22-120 11zm84-118c21-16 15-45-10-45-15 0-15-13-4-77 0-1 23-1 51 0 47 2 52 0 65-26 13-25 13-28-3-33-10-3-26-10-35-15-27-14-60-11-103 11-22 11-45 20-52 20-6 0-20 13-29 29-10 16-26 32-36 34-22 6-16 27 25 80 25 32 34 37 70 37 23 0 50-7 61-15zm-631-55c5-4-3-16-17-27-23-18-24-23-13-47 10-22 17-25 37-21 14 4 33 14 43 23 13 12 20 13 29 4s6-18-13-38c-40-43-74-63-130-77-48-12-55-18-65-48-6-18-16-35-21-36-10-4-46 77-48 107 0 9-5 21-9 28-5 8 3 35 20 68 25 50 40 61 77 55 4 0 7 5 7 13 0 10 11 12 48 9 26-3 51-9 55-13zm234-26c-3-3-12-4-19-1-8 3-5 6 6 6 11 1 17-2 13-5zm318-104c3-5 1-10-4-10-6 0-11 5-11 10 0 6 2 10 4 10 3 0 8-4 11-10zm240-30c3-6-1-13-10-16-19-8-30 0-20 15 8 14 22 14 30 1zm-269-56c41-12 41-12 25-79-15-65-18-78-26-120-9-49-13-57-28-48-7 4-25 8-40 9-36 2-39 6-32 37 6 23 9 24 41 14 65-20 73 30 10 61-32 16-31 42 2 57 18 8 22 17 20 40-2 17-8 30-15 30-19 0-26 13-18 32 7 17 8 17 15-2 4-12 23-25 46-31zm-326-8c0-8 6-21 13-28s19-33 26-58 16-52 21-60c4-9 11-30 15-48 3-18 11-32 16-32 6 0 20-10 33-23 23-23 51-29 141-31 47-1 50-2 47-26-4-35-16-43-69-46-31-2-52-9-60-20-15-21-8-34 18-34 11 0 18-4 15-9-3-4 12-7 34-6 42 2 43 1 31-30-5-11-5-25 0-31 6-7-9-15-45-23-30-7-56-17-59-24-4-12-166-21-168-9 0 4-2 16-4 27s-5 49-6 85c-2 96-22 176-63 257-43 83-42 97 12 148 40 38 52 43 52 21z" transform="matrix(.1 0 0 -.1 -21.769231 126.909603)"/></svg>