<svg height="150.494258pt" preserveAspectRatio="xMidYMid meet" viewBox="0 0 101.084783 150.494258" width="101.084783pt" xmlns="http://www.w3.org/2000/svg"><path d="m914 1691c3-5-13-12-36-15-68-11-130-44-187-99-29-29-61-70-72-92-10-22-24-51-32-65-35-61-47-90-57-131-18-70-31-162-25-178 3-8 1-17-5-21-16-10-23-302-9-385 6-38 13-87 16-107 3-21 9-38 13-38s10-16 12-35c3-25 0-35-10-35-9 0-12-6-7-17 4-10 9-34 12-53l6-35-22 22c-11 12-21 28-21 35 0 8-9 20-20 28s-20 24-20 35c0 30-48 116-83 148-37 33-43 34-49 3-5-25 43-101 56-89 4 4 5 1 2-7s1-26 9-40c24-42 48-94 52-110 10-48 7-65-12-68-19-4-35-19-35-34 0-4 26-12 58-18 31-7 59-16 62-19 3-4 32-15 65-24 52-14 68-15 115-4 30 7 63 18 73 23 30 17 76 5 83-21 6-23 42-33 149-41 156-11 185-12 190-3 4 5 16 9 28 9s29 5 37 10c12 7 10 11-10 19-14 5-19 10-11 10 8 1 5 8-9 19l-23 19 29 26c16 15 33 27 37 27 5 0 6 7 3 16-6 17 18 60 48 85 12 10 17 22 13 32-6 15-9 15-37-1-16-9-33-25-36-35-6-20-47-67-58-67-4 0-5 9-1 20 3 11 8 41 11 67 2 28 10 51 19 56 8 4 15 17 15 27s8 23 18 29c14 8 15 12 4 23s-18 7-40-19c-15-18-38-58-51-90-14-32-36-69-49-83s-37-48-52-75c-40-72-95-82-191-36-23 12-50 21-60 21-9 0-19 7-23 15-3 8-16 15-30 15-35 0-39 11-37 101 1 44-3 88-9 99-9 16-8 20 5 20 8 0 15-5 15-11 0-17 27-39 48-39 10 0 34-8 53-17 20-10 53-16 82-15 44 2 47 0 47-23 0-21-5-25-32-25-40 0-70-26-58-49 5-9 12-29 15-45 6-26 8-28 43-21 20 4 54 7 75 7 31 0 37 4 38 21 1 30-2 121-6 180-4 65 12 80 95 89 18 2 26 10 28 28 2 14 11 31 20 38 15 11 17 36 19 169 1 86 4 166 7 179 3 12 1 24-5 26-8 3-6 14 5 37 10 18 14 40 11 49-4 10-9 35-11 56-2 22-9 43-15 47-7 4-9 21-6 40 3 22-2 50-15 79-44 99-102 215-110 218-4 2-8 11-8 19 0 29-96 103-133 103-10 0-16-4-13-9zm65-128c28-33 29-39 14-43-32-9-82-52-76-66 6-16 69-19 78-4 14 22 46 10 60-22 7-18 17-37 21-41 5-4 10-20 12-35s7-28 13-30c5-2 9-17 9-32 0-16 4-31 9-34 7-5 26-132 24-163 0-7-4-47-7-88-4-46-2-84 4-95 6-12 7-20 1-20-5 0-9-24-9-52 1-65-5-125-14-133-4-4-26-11-49-16-31-7-44-7-50 2-5 9-19 6-53-11-38-18-51-20-77-11-16 5-64 13-107 17-44 4-84 13-93 21-11 9-34 13-65 11l-49-3-3 58c-2 45 0 59 13 63 9 4 22 19 31 35 13 25 20 29 59 29 24 0 47 5 50 10 3 6 0 10-8 10s-17 7-21 15c-4 12-17 14-56 11-68-6-76 13-56 142l8 53 36-7c21-3 42-13 48-20 6-8 20-25 30-39 11-15 29-25 44-25 24 1 64 23 66 38 0 4 4 15 8 24 10 21-8 53-39 74-19 13-31 14-54 6-31-11-110-7-123 6-4 4-5 24-1 45 5 32 9 37 32 38 75 1 193 17 203 27 21 21-10 43-51 36-20-3-55-5-78-5-35 1-43-2-43-17s-6-18-29-14l-29 4 18 36c10 21 21 45 24 55 8 24 23 21 32-5 11-37 34-48 65-32 33 16 41 37 33 79-8 43 15 65 69 65 37 1 88 23 76 33-14 12-70 24-92 20-15-3-27-1-27 3 0 16 44 32 92 33 42 1 49-2 77-36zm-205-939c9-3 16-10 16-16 0-5-5-6-11-3-6 4-17-2-25-14-18-25-30-27-38-5-12 31 21 52 58 38zm-144-99c5-84-4-135-23-135-5 0-5 5-2 10 4 6-1 24-9 42-9 17-19 55-22 85-4 29-13 58-20 64-22 18-6 29 34 26l37-2zm347 888c-9-2-15-9-12-13 3-5-3-18-15-30-11-11-20-33-20-49s-6-31-15-35c-8-3-15-17-15-31 0-22 9-30 33-26 4 1 25-3 47-8 41-9 50-4 76 44 15 27 10 65-16 123-14 31-25 35-63 25zm43-213c-8-5-24-10-35-10s-26-9-33-20c-11-19-10-20 35-15 46 4 79 27 67 46-7 11-15 11-34-1zm-48-180c-28-17-32-23-22-35 7-9 10-28 7-45-10-47 35-79 63-45 7 8 18 15 25 15 22 0 38 29 38 70 0 48 1 47-43 54-26 5-44 1-68-14zm-210-157c-41-65-7-133 66-133 23 0 33 7 48 36 19 35 19 36-2 53-11 9-27 30-35 46-21 43-49 42-77-2zm211-17c0-8 8-11 19-8 11 2 30-1 42-8 18-9 29-9 45-1 34 19 15 31-48 31-42 0-58-4-58-14z" transform="matrix(.1 0 0 -.1 -31.745383 169.99627)"/></svg>