<svg height="124.276601pt" preserveAspectRatio="xMidYMid meet" viewBox="0 0 115.626066 124.276601" width="115.626066pt" xmlns="http://www.w3.org/2000/svg"><path d="m688 1326c-127-68-255-181-320-282-61-95-108-236-112-339-5-122-3-129 67-159 34-15 74-34 89-42s45-17 65-19c21-2 40-5 43-6s16-2 30-3c20-1 26-7 28-29 2-16 0-36-4-45-4-10-7-20-6-23 1-4 4-44 7-89 4-54 14-99 29-129 24-52 30-53 151-37 33 4 80 6 105 5 102-7 125-3 157 27 30 28 57 100 48 128-3 6-6 44-9 84-3 49-11 84-25 108-19 32-20 35-3 40 37 12 59 21 112 47 30 15 61 27 67 27 13 0 126 88 131 102 2 4 9 8 16 8 34 0 72 80 50 103-4 4-8 21-10 39-4 57-23 141-34 152-5 5-10 17-10 26s-9 25-20 35-17 21-14 26c14 24-100 164-186 228-63 48-97 56-168 43-31-6-71-6-99-1-71 14-116 7-175-25zm376-71c3-9 0-15-9-15s-12 6-9 15c4 8 7 15 9 15s5-7 9-15zm-230-20c11-8 16-18 13-22-4-4-13-1-19 5-7 7-18 12-25 12-17 0-28-47-15-63 5-6 15-31 21-54 7-24 16-43 22-43s8-11 4-28c-3-16-8-65-10-110-3-60-1-82 8-82 7 0 8-3 2-8-5-4-10-11-11-17 0-5-4-27-8-48-7-30-4-46 10-73 10-19 19-34 21-34 1 0 13 4 27 10 22 8 26 16 26 48 0 22-7 52-15 68-14 30-11 74 7 74 5 0 7 4 4 8-3 5-5 44-6 88-1 43-8 99-15 124s-13 52-13 60-3 23-7 33c-7 17-6 18 14 6 11-8 21-19 21-25s6-17 13-23c8-6 20-29 27-51s17-40 22-40c4 0 8-9 8-19 0-11 5-23 10-26 6-4 8-15 5-26-4-13-2-19 8-19 15 0 17-15 18-163 0-59-3-71-22-86l-23-18 22-23c24-26 21-40-9-40-11 0-33-7-49-15-21-11-31-12-36-4s-36 10-103 5c-53-4-104-7-113-7-10 0-20-4-23-9s-19-4-37 2c-23 8-39 8-63-1-23-8-40-8-60-1-15 6-31 7-37 4-7-4-8-2-4 4 4 7 2 12-5 12s-34 10-61 22c-44 20-48 24-48 57 0 36 15 113 27 141 3 8 7 20 9 25 13 50 39 103 71 140 20 25 40 45 44 45 15 0 19-51 5-73-22-33-31-146-16-193 18-55 34-68 60-52 17 10 20 20 16 43-16 81-14 128 6 161 11 18 17 38 13 44s-2 16 3 23 15 29 21 49c7 20 25 47 41 60 29 22 41 58 20 58-19 0-10 20 13 30 12 5 33 18 47 29 30 24 96 27 124 6zm143-25c14-11 32-20 39-20 17 0 56-39 71-70 55-120 59-135 61-231 1-77 5-104 21-132l20-37-22-12c-27-15-98-48-103-48-2 0-4 9-4 19 0 11-5 21-11 23-8 3-6 10 5 20 19 19 22 84 4 91-10 4-10 7 0 15 15 10 12 117-3 142-4 7-9 23-11 34-4 31-27 89-41 104-7 7-13 18-13 23 0 6-11 27-25 47-37 55-33 67 12 32zm158-31c-3-3 11-21 30-39 19-19 35-41 35-49 0-9 6-28 14-43s17-41 21-58 12-33 19-36c19-7 20-168 1-184-12-10-17-7-27 16-7 16-17 33-23 37-7 6-7 10 1 13 13 5 8 98-8 137-6 17-16 26-24 23s-14-1-14 4c0 6 5 10 10 10 14 0 12 36-2 52-18 19-38 56-38 69 0 5-11 25-25 43-32 43-32 49 4 28 16-9 28-19 26-23zm-546-665c3-16 1-17-13-5-19 16-21 34-3 29 6-3 14-13 16-24zm147-53c9-45 70-54 139-21 22 11 45 19 52 20 23 0 27-111 7-177-6-21-13-23-70-23-98 0-159 16-173 46-17 39-14 144 6 166 23 25 33 23 39-11zm-31 698c-4-6-4-13-1-16s1-12-5-19c-6-8-9-20-6-29 4-8 2-17-3-20-24-15-44-291-24-340 13-31 62-54 69-32 2 7 6 93 9 192s8 194 12 211c8 42-32 84-51 53zm93-777c-9-2-15-9-12-17 3-7 0-16-6-20-18-11 20-34 55-34 42 1 72 13 56 24-11 6-11 9 0 16 11 6 11 9-1 12-8 2-28 8-45 13-16 6-38 8-47 6z" transform="matrix(.1 0 0 -.1 -25.41404 135.782009)"/></svg>