<svg height="142.469704pt" preserveAspectRatio="xMidYMid meet" viewBox="0 0 113.403591 142.469704" width="113.403591pt" xmlns="http://www.w3.org/2000/svg"><path d="m1070 1705c-19-13-40-24-47-24-6-1-24-23-40-51-15-27-31-50-35-50-5 0-8-6-8-12 0-7-7-26-16-43-23-44-42-147-49-266-7-117-7-117 59-125 16-3 31-5 32-7 1-1-6-38-16-82s-17-82-15-84c3-2 0-12-5-22-7-11-7-20 0-24 5-3 6-13 3-21-3-9 0-20 8-25 11-7 11-11 1-17-11-7-24-89-26-159-1-13-4-23-8-23-5 0-8-10-8-22l-1-23-12 23c-7 12-16 19-20 16-4-4-7-2-7 4 0 7 5 12 10 12 14 0-38 100-55 107-8 3-12 9-9 14 3 6-7 26-22 46l-27 36 24 44c23 42 23 45 6 54-12 7-16 17-12 30 4 12 1 21-8 25-9 3-18 16-21 29-3 12-15 25-26 28s-20 14-20 24c0 29-55 83-85 83-14 0-35 9-47 20-14 12-36 20-58 20-20 0-57 6-81 13-49 15-103 5-132-24-46-47-58-221-22-319 9-25 21-63 27-85s14-47 19-55 15-28 23-45c7-16 29-48 48-69 32-37 36-39 66-28 18 6 47 25 64 41 18 17 41 34 52 37 28 9 79-54 100-125 10-33 24-62 32-65 9-3 12-11 9-16-4-6-2-16 3-23 6-7 11-16 12-22 1-5 6-21 11-33 5-13 10-38 12-55 1-18 6-35 11-39 12-8 46 13 46 29 0 7 5 13 10 13 17 0 11 26-10 45-11 10-20 31-20 47s-5 39-12 51-13 31-15 41c-2 11-8 25-14 33-6 7-8 14-3 14 74 10 72 10 84-29 7-20 16-41 21-47 5-5 9-19 9-31s7-35 15-50c19-36 19-54 0-81-13-18-13-23 4-42 15-17 23-20 44-12 26 10 45 57 29 73-11 11 2 78 17 87 14 9 21 211 7 211-8 0-8 2 0 8 14 10 26 42 14 42-5 0-4 15 1 34s8 39 7 44c-4 12 1 13 29 6 20-6 22-11 19-48-3-22-8-101-12-174-6-109-10-135-23-140-42-16-44-50-4-96 25-29 35-31 64-15 15 7 18 16 13 32-4 12-11 25-16 28-17 11-4 44 17 42 28-2 32 10 28 85-6 98-4 161 7 212 5 25 12 61 14 80s6 42 9 50c4 8 8 42 11 75 9 103 13 111 54 112 20 1 41 8 46 16 6 8 21 17 33 21 28 9 78 72 88 111 4 17 10 76 12 133 7 172-29 254-154 354-58 45-109 50-163 13zm153-116c20-17 37-35 37-39 0-5-23-19-51-31-35-15-48-26-45-36 4-8 6-21 6-29s9-14 20-14 20 5 20 10c0 15 43 12 66-5 15-10 20-22 16-40-3-20-13-28-47-36-43-11-66-42-45-63 9-9 55-13 80-5 9 2 16-4 18-17 3-19-3-23-48-29-50-7-51-8-48-39 3-30 2-31-36-30-42 2-134 29-181 55-20 11-29 23-27 35 1 11 5 48 8 84 7 89 19 128 55 183 35 53 64 75 72 54 2-7 19-14 36-15 25-2 31 1 31 18 0 28 19 25 63-11zm-760-472c-3-18-11-41-17-52-13-25-14-75-1-76 6 0 18-2 27-4 13-2 25 12 44 56 28 62 33 66 52 47 16-16 15-58-3-101-20-49-19-64 7-78 18-10 24-8 40 11 10 12 18 35 18 51 0 33 15 46 35 29 29-24 10-55-90-153-55-55-107-103-116-108-20-10-59 28-64 62-1 13-14 56-28 94-35 95-38 139-12 143 31 6 44 21 56 66 12 44 24 57 45 49 9-3 11-15 7-36zm672-667c-3-5 3-10 15-10s18 5 15 10c-3 6-10 10-15 10s-12-4-15-10zm38-18c-7-4-12-24-11-44 1-31 6-40 32-52 19-9 35-11 40-6 12 12-23 80-41 80-7 0-10 7-7 15 7 17 4 18-13 7zm-673-20c-33-16-11-62 29-62 57 0 71 63 16 67-17 1-37-1-45-5zm126-13c-18-22-18-22 5-40 13-10 27-19 30-19 9 0 15 21 15 50-1 32-26 36-50 9zm671-16c-2-5-7-20-11-35-6-25-4-28 18-28 26 0 49 41 27 48-6 2-9 8-5 13 3 5-2 9-10 9s-17-3-19-7z" transform="matrix(.1 0 0 -.1 -25.387056 172.957643)"/></svg>