<svg height="160.516777pt" preserveAspectRatio="xMidYMid meet" viewBox="0 0 125.039187 160.516777" width="125.039187pt" xmlns="http://www.w3.org/2000/svg"><path d="m854 1953c-8-13-21-35-30-50-9-14-18-38-19-52s-8-39-14-54c-6-16-11-38-11-50-1-20-2-21-14-4-7 9-26 18-42 18-17 1-22 3-11 6 23 6 22 18-5 42-33 32-55 34-93 11-28-17-35-29-41-66-7-50-16-59-42-45-10 5-46 13-80 17l-62 7-6-32c-4-17-10-34-14-36-10-6 0-86 12-102 12-15 1-53-15-53-7-1-30-17-52-36-36-32-39-39-43-98-4-56-2-66 20-88 14-13 46-32 72-42 51-20 52-23 32-92-39-133-46-232-20-259 9-8 49-31 90-50 59-28 89-35 155-39 45-3 86-9 91-14 13-13 12-90-1-105-10-13-8-111 4-190 9-59 42-95 93-103 20-3 50-10 65-16 32-12 153-4 172 12 20 17 39 107 24 116-5 3-3 14 4 26 9 16 9 22-1 25-6 3-9 10-5 16 10 17 12 157 2 157-5 0-6 7-2 16 3 9 0 20-8 24-19 12-10 18 42 29 24 5 55 12 69 15 14 4 39 7 55 8 17 0 35 4 40 8 6 4 22 10 37 14 32 7 90 54 82 67-3 5 4 9 16 9s19 4 16 9c-4 5 2 7 12 4 10-2 29 5 42 17 14 12 31 25 38 29 21 12 15 206-7 249-5 9-17 41-26 70-21 71-55 122-80 122-15 0-17 2-6 9s7 16-19 44c-18 21-38 33-46 30-10-4-12 0-7 13s3 16-10 11c-11-4-17-1-17 8 0 8-13 22-30 32-16 9-30 20-30 24 0 14-60 31-89 24-22-5-29-12-28-26s7-19 19-16c9 3 19 0 21-7 3-6 22-20 43-31s54-37 73-57c20-21 41-38 49-38 7 0 11-4 7-10-3-5 12-28 35-51 26-27 40-50 40-68 0-15 7-37 17-50 9-13 17-38 18-55s5-57 10-88c8-62 14-51-74-129-38-33-99-61-147-67-30-3-50-12-62-27-17-21-21-22-76-11-58 12-83 33-73 61 5 13-18 55-25 45-19-29-38-76-38-95 0-16-7-24-25-27-13-3-22-1-19 3 3 5-2 9-11 9-13 0-15 5-9 18 4 9 8 29 9 45 1 15 5 30 8 34 11 10 8 53-3 53-5 0-7 7-4 15 4 8 1 15-4 15-17 0-42-42-42-72 0-15-4-30-10-33-5-3-10-20-10-36 0-34-6-37-74-41-32-2-50 1-53 10-3 7 4 12 15 12 27 0 38 17 45 72 5 34 3 49-8 58-18 15-47-3-39-24 2-6-5-21-16-33s-20-32-20-45c0-20-5-23-43-23-59 0-120 21-158 53l-33 27 30 5c20 4 29 11 27 24 0 10 7 34 18 53 22 39 25 60 7 46-7-5-25-10-40-11-33-2-37 21-12 69 12 24 19 29 37 23 11-4 27-13 35-20 14-14 116-20 146-8 23 9 20 44-3 44-33 0-51 11-51 31 0 10-7 19-15 19-18 0-19 23-2 51 11 18 6 25-43 72-31 29-63 57-73 62-15 9-23 29-57 138-18 59-2 71 55 42 43-21 76-60 101-115 40-89 45-98 96-151 43-46 86-12 51 40-54 79-79 154-86 256-3 46 25 39 35-9 5-22 12-44 17-50s12-26 16-44 13-45 21-60 14-33 14-39c0-7 5-13 10-13 6 0 10-6 10-12 1-33 16-39 54-23 32 14 37 20 31 38-3 12-9 38-11 57-3 19-10 40-16 48-8 9-8 16-1 20 5 4 10 41 10 82 1 41 3 91 6 110s6 38 6 41c1 3 12 11 26 17 23 11 26 9 42-26 13-29 16-64 15-162-2-183-2-184 8-194 6-6 10-18 10-29 0-24 23-47 39-38 6 4 9 15 5 24-3 9-2 17 4 17 5 0 10 10 10 23 1 12 5 69 10 127s7 109 4 113c-2 5-6 35-8 68-3 42-12 72-31 102-14 23-26 44-25 47s-5 13-13 23c-8 9-15 22-15 28s-6 9-14 6-16 2-19 13c-7 26-46 21-63-7zm-446-550c10-10 41-34 68-53 60-42 42-49-55-23-78 22-96 43-60 72 29 25 25 25 47 4zm52-352c0-6-4-13-10-16-5-3-10 1-10 9 0 9 5 16 10 16 6 0 10-4 10-9zm410-285c0-6 7-21 15-32 12-18 20-20 60-14 45 7 46 7 43-19-2-16-8-25-17-23-7 2-20-6-28-18-8-11-18-18-23-15-4 3-10-2-14-10-3-8-12-12-21-9-18 7-19 0-5-27 6-10 21-19 34-19 29 0 43-28 18-37-26-10-42-30-42-52 0-25-11-26-49-6-38 19-43 48-42 240 0 16-5 32-12 37-8 5-4 10 12 16 30 11 71 4 71-12zm150-356c0-5-5-10-11-10-5 0-7 5-4 10 3 6 8 10 11 10 2 0 4-4 4-10zm111 1067c-22-46-28-87-11-87 6 0 10 4 10 9s8 11 18 14c9 2 24 8 34 12 13 5 16 0 16-29s-4-36-19-36c-14 0-19-7-19-30 0-16 4-30 10-30 21 0 60 24 65 42 4 10 13 18 21 18 19 0 18-14-3-31-33-28-50-109-22-109 24 0 99 94 99 124 0 21-27 45-52 46-11 0-18 10-20 27-2 19-12 32-30 41-16 7-29 17-29 23-1 5-2 15-3 22 0 6-11 13-22 15-17 2-26-7-43-41zm169-278c-19-12-36-22-38-24-1-1 0-10 4-19 15-38 78-6 72 37l-3 27zm-100-59c-1-8-1-19 0-25 6-27-1-109-10-120-12-15-4-41 16-49 26-10 43 5 46 42 2 31 7 38 28 40 34 4 90 31 90 42 0 6 7 10 15 10s15 9 15 20c0 25-16 25-55 2-33-21-120-38-111-23 4 5 0 16-8 23-8 8-16 23-19 34-3 13-5 14-7 4zm-630-20c-12-8-13-13-3-29 7-11 10-26 8-33-6-16 39-38 65-31 16 4 18 9 9 24-5 10-6 20-2 20 4 1 14 2 22 3 8 0 19 9 25 19 9 14 8 20-4 27-19 12-101 13-120 0zm506-91c-9-46-7-91 3-84 5 3 12 1 16-4 3-6 13-7 21-4 16 6 16 8-3 96-7 37-29 34-37-4zm-513-22c-30-46-32-57-13-67 30-16 50-12 59 13 14 36-27 84-46 54z" transform="matrix(.1 0 0 -.1 -27.047753 197.719126)"/></svg>