<svg height="152.973739pt" preserveAspectRatio="xMidYMid meet" viewBox="0 0 161.656551 152.973739" width="161.656551pt" xmlns="http://www.w3.org/2000/svg"><path d="m1290 1898c-136-40-264-152-309-271-11-29-5-77 9-77 4 0 25-21 45-46l38-46-32-93c-17-51-31-100-31-109s-4-24-9-34c-6-9-14-50-20-90-5-41-13-77-16-80-4-4-24 12-45 36-21 23-43 42-49 42s-11 7-11 15-5 15-11 15c-16 0-48 42-49 63 0 9 8 25 18 35s16 25 14 33c-3 8-1 11 3 7 11-10 38 29 30 42-3 6-2 10 4 10 39 0 2 126-45 157-13 8-24 20-24 27 0 6-17 19-38 29-20 9-61 31-91 47-82 46-128 53-211 34-38-8-80-24-94-35-13-10-29-19-34-19-19 0-134-135-154-180-33-76-47-162-34-212 35-137 178-252 251-204 14 9 25 21 25 26 0 6 11 10 25 10 13 0 40 8 60 17 51 24 82 10 114-52 30-61 61-141 68-175 2-14 8-34 13-45 4-11 16-40 26-65s24-50 32-57c7-6 12-20 10-30-4-19-22-20-84-8-44 9-94-32-86-72 3-16 11-32 18-36 11-6 9-12-6-27-16-16-29-18-80-15-66 5-76-6-42-46 45-54 123-57 180-8 18 16 45 31 60 34 15 4 37 8 50 11 15 3 22 0 22-10 0-16 29-29 51-22 8 2 26 7 42 10 15 4 27 12 27 19s6 22 14 32c13 17 15 18 47 2 19-8 47-20 61-26 17-6 26-16 22-24-7-18 19-39 39-31 16 6 29 74 13 74-5 0-1 9 9 20s14 20 10 20c-5 0-4 5 3 12 8 8 7 15-7 27-10 9-18 27-17 41 1 17-5 25-19 27-11 1-14 0-7-3 6-3 12-10 12-15 0-6-4-8-9-5-4 3-16-3-25-13-13-15-24-17-44-12-15 5-33 6-40 4-6-3-16 5-20 18-7 19-10 20-15 6-4-10-16-17-27-17-12 0-35-14-52-30-35-35-63-52-72-43-3 4 1 14 10 24 10 12 15 29 12 49-4 26-2 30 19 30 24 0 31 18 13 36-5 5-12 41-16 79-3 39-14 105-25 149-19 79-18 96 5 96 24 0 36 23 22 43-16 21-25 21-46 2-16-14-18-13-23 22-4 20-5 39-3 40 8 8 98-61 108-83 6-13 15-21 19-18 17 10 9-26-10-45-11-11-21-32-23-48-3-30 12-35 58-20 30 11 44-28 51-146 4-66 10-100 19-104 17-6 54 32 54 57 0 11 4 20 9 20s7 17 5 37 1 42 7 49 12 41 14 76 9 113 15 173c6 61 13 124 14 140 5 51 16 75 37 75 22 0 26-32 5-49-16-14-9-64 9-58 17 7 31-4 39-30 7-23-24-53-56-53-15 0-16-3-6-25 7-16 19-25 33-25 13 0 28-7 35-15 10-13 6-21-30-53-35-31-41-42-35-60 6-20 11-22 36-17 26 6 29 4 29-17 0-13-14-40-31-61-25-31-29-40-19-53 7-8 20-12 29-9 25 8 47-56 30-87-7-13-11-23-10-23s-2-12-8-26c-18-50-18-64 4-61 23 4 44 30 45 55 0 9 8 17 18 17 9 0 30 10 45 23 28 22 29 23 17 77-6 30-12 66-13 80s-6 30-10 37c-4 6-3 14 3 18 5 3 7 34 4 75-3 39-1 70 3 70 5 0 10 21 10 48 1 26 4 65 6 87 3 21 1 48-4 58-17 30-5 40 23 18 14-12 33-21 41-21s28-7 43-15c41-21 73-18 119 10 22 14 48 25 58 25 24 0 77 40 77 58 0 8 8 26 18 40 25 38 51 154 52 236 0 38 2 72 5 75 6 11-14 104-31 142-15 33-76 88-134 119-70 38-232 58-300 38zm86-141c1-23-4-41-12-44-7-2-12-12-12-21 1-24-17-63-39-87-10-11-17-28-15-37s-6-23-17-30c-12-7-21-18-21-25 0-18-19-16-26 1-3 8-21 22-40 31-33 15-33 17-16 35 9 10 26 41 36 67 11 26 22 50 25 53 17 15 44 52 34 46-23-13-14 4 15 29 18 17 37 24 57 22 27-2 30-5 31-40zm106 21c0-7 2-17 2-23 1-5 4-14 7-20 13-25-2-167-20-189-7-8-10-20-7-25 4-5-1-14-9-19-15-8-15-10-1-21 22-19 20-29-6-33-13-2-27-13-33-25-13-30-42-29-80 2l-29 24 17 36c9 19 21 35 27 35 5 0 10 9 10 21 0 11 10 34 21 51 12 17 24 49 26 72 5 45 10 78 13 86 1 3 2 9 1 14s4 13 11 17c20 13 48 11 50-3zm124-49c4-7-2-9-17-7-13 2-25 11-27 21-3 16-1 17 17 8 11-6 23-16 27-22zm-396-22c0-8-10-25-21-38-12-13-28-39-36-57-7-18-19-31-26-29-18 6-9 47 18 83 14 18 25 37 25 43s9 11 20 11 20-6 20-13zm396-104c26-34 29-46 28-103-2-78-17-139-43-168-23-27-40-27-90-1l-41 21 17 31c9 18 18 40 20 50s10 25 18 33c8 9 15 24 15 35s5 29 10 39c7 12 7 21 0 25-6 4-4 15 6 30 9 13 13 29 9 35-3 5 0 10 8 10s28-17 43-37zm-1089-76c4-8 21-22 36-32s26-19 24-21 18-26 45-54c64-67 61-83-4-26-29 26-59 44-66 41s-11-1-8 4c3 4-3 16-14 26-12 10-20 13-20 7 0-7-8-4-18 6-10 9-27 22-38 29-16 10-17 13-4 22 21 15 58 13 67-2zm-97-32c-9-11-6-16 12-26 13-6 27-18 31-25 4-8 20-14 34-14 15 0 24-2 21-5s14-27 38-53 44-51 44-55c0-5 4-6 8-3 19 11 4-35-18-59-23-25-24-25-42-5-10 10-18 22-18 25 0 13-56 54-67 50-7-2-15 5-18 16-7 21-53 49-72 42-6-2-14 1-18 6-3 6-15 11-26 11-20 0-20 1-2 31 10 17 29 39 43 47 14 9 29 22 33 29 5 8 13 11 18 7 6-4 6-11-1-19zm347-97c-3-8-6-5-6 6-1 11 2 17 5 13 3-3 4-12 1-19zm-457-17c0-5 15-14 33-20s40-20 50-31c9-11 24-20 32-20 9 0 14-4 11-9s1-15 10-22c30-25 47-86 29-104s-99-54-136-60c-35-6-38-5-69 41-46 69-51 135-14 192 26 38 54 56 54 33zm895-31c3-5 1-10-4-10-6 0-11 5-11 10 0 6 2 10 4 10 3 0 8-4 11-10zm-485-800c0-5-5-10-11-10-5 0-7 5-4 10 3 6 8 10 11 10 2 0 4-4 4-10zm-415 717c19-30 61-51 71-36 9 15-40 59-66 59-19 0-20-1-5-23zm1105-634c0-12-11-35-24-50-25-28-25-28-56-10-39 21-54 21-70 2-11-13-9-20 9-38 11-13 21-30 21-39s12-23 26-33c20-13 28-14 40-4 8 7 13 18 10 26-3 7 1 13 8 13 22 0 66 59 66 89 0 15-7 36-15 47-14 19-14 19-15-3zm40-144c0-12-11-21-32-27-20-5-34-16-36-26-3-16 1-18 31-12 23 4 36 3 39-5s14-10 31-5c24 6 27 11 27 45 0 35-3 39-30 43-24 4-30 1-30-13z" transform="matrix(.1 0 0 -.1 -13.919791 190.615977)"/></svg>