<svg height="149.496002pt" preserveAspectRatio="xMidYMid meet" viewBox="0 0 130.482889 149.496002" width="130.482889pt" xmlns="http://www.w3.org/2000/svg"><path d="m1089 1737c-47-22-122-99-142-146-7-14-14-28-17-31-16-13-52-104-60-151-5-30-13-69-19-87-5-18-10-34-11-37 0-3-2-10-4-17-28-100-45-314-28-359 9-21 19-28 56-33 31-5 46-12 48-24 4-21-53-312-62-312-6 0-33 58-34 76-1 6-6 18-12 25-6 8-14 21-18 29-10 22-28 52-53 87-13 17-23 35-23 40 0 6 16 24 35 42 29 26 35 38 35 74 0 23-6 54-14 68-7 14-16 37-20 52-3 15-11 27-16 27-6 0-10 8-10 18 0 21-57 112-71 112-5 0-9 5-9 11 0 17-102 109-122 109-9 0-21 6-25 13-7 11-40 37-82 62-9 6-32 20-51 31-55 34-110 39-143 14-15-12-27-26-27-31s-9-22-21-38c-30-41-38-144-19-263 8-53 18-100 23-104 4-4 7-16 7-27 0-19 29-88 41-97 3-3 14-21 24-40 17-34 27-48 98-134 68-83 89-91 160-61 20 8 40 15 45 15 4 0 16-24 27-52 10-29 27-64 37-77s18-32 18-42 5-30 12-46c7-15 12-32 13-38 6-57 18-106 26-111 6-3 20-3 32 0 29 7 31 59 3 79-14 10-17 19-11 33 11 25 6 54-11 78-8 11-14 28-14 38s-5 18-11 18-9 7-5 15c3 8-1 20-7 27-11 11-27 41-31 58-1 3-8 16-15 29-14 25-7 37 24 43 13 2 21-4 23-17 2-11 11-27 19-37 8-9 16-22 17-30 2-7 10-29 18-48 9-19 18-60 22-91 7-67 30-126 60-154 12-11 25-28 28-37 9-22 45-12 54 16 4 11 6 21 4 21s2 10 9 23 21 22 36 22c27 0 26-4 29 138 0 34 5 62 9 62 8 0 5 48-6 95-2 11-1 25 4 30 4 6 10 28 12 50 6 54 15 72 38 78 25 7 36-17 19-38-8-9-11-30-7-54 2-22 1-43-4-48-11-11-13-199-4-272 8-59 26-134 35-144 10-12 50 10 50 27 0 8 6 16 14 19 9 4 14 18 14 36-1 19-5 28-12 24-6-4-6 0 1 8 9 12 10 25 2 54-6 22-9 65-7 97s1 58-4 58c-4 0-8 7-8 15s4 15 10 15c5 0 7 7 4 15-7 17 23 162 35 170 5 2 40 8 79 11 91 9 111 28 118 110 3 31 11 69 19 83 7 15 21 69 30 121s20 103 26 113c5 10 8 21 5 26-3 4 1 25 8 46 8 21 12 50 10 64-1 14-5 55-8 91-5 76-20 120-40 120-7 0-20 10-29 23-40 61-93 108-144 127-67 25-77 25-134-3zm19-89c-3-7-15-14-29-16-23-2-23-2-5 13 24 18 39 20 34 3zm121-17c20-11 51-69 51-96 0-13-7-16-30-13-18 3-31 0-34-9-3-7-12-10-22-6-17 6-17-6 2-69 4-13 1-16-10-12-9 3-16 1-16-5 0-12 37-34 60-36 8-1 24-2 36-3 18-2 21-9 22-48v-46l-32 5c-59 10-77-28-18-39 48-9 51-11 46-32-4-13-17-17-55-19-28 0-53-4-56-7-12-12 37-47 56-41 24 7 34-8 33-48-1-42-15-52-45-32-31 20-80 11-75-14 2-12 18-17 58-21 53-5 55-6 53-34-3-38-6-40-63-37-39 1-50-1-50-13 0-17-42-32-60-21-6 4-24 8-40 10-17 2-46 16-65 30-19 15-39 24-44 20-6-3-20-1-31 5-16 8-20 21-20 57v46l23-20c26-24 107-38 107-18 0 18-20 31-60 41-19 4-38 9-42 10-5 1-13 2-19 3-12 1-3 60 12 75 10 11 128 16 135 5 7-12 31 0 31 16s-98 51-120 42c-30-12-37 7-26 73 5 35 14 69 18 75 5 5 9 25 9 43s11 45 24 61 31 44 41 62c17 31 20 32 32 16 15-21 29-22 45-2 9 11 16 13 24 5 18-18 86-9 86 12 0 5-16 16-35 24s-35 16-35 18c0 8 80-3 99-13zm36-181c3-5-1-10-9-10-9 0-16 5-16 10 0 6 4 10 9 10 6 0 13-4 16-10zm-955-138c22-18 23-20 7-52-10-18-17-39-17-46 0-22 21-27 34-8 7 9 18 14 24 10 8-5 12 0 12 13 0 24 8 26 33 7 22-17 22-38-1-66-23-29-17-70 10-70 28 0 58 18 58 35 0 22 25 18 56-8 18-16 25-30 21-41-4-9-6-19-6-22 0-4-4-10-9-13s-13-22-16-41c-5-24-4-30 2-21 6 8 17 11 26 8 12-5 19 1 26 18 12 32 23 32 44 0 13-19 15-37 11-69-7-44-7-44 22-39l28 5-37-37c-21-20-38-43-38-50 0-18-53-55-77-55-11 0-28-9-38-20-33-37-52-35-93 11-20 23-45 51-55 62-16 16-73 130-90 179-4 10 0 21 7 25 8 5 24 25 35 47 21 36 21 40 5 57-14 16-18 16-31 4-8-8-24-15-35-15-19 0-20 5-17 79 4 67 8 83 28 105 29 31 41 32 71 8zm687 162c-14-14-7-44 11-45 17-1 105-1 130 0 14 1 15 11 4 27-8 13-134 29-145 18zm37-105c-3-5-16-9-30-9-16 0-27-8-33-22-11-30 1-35 67-30 45 3 52 7 52 25 0 23-45 52-56 36zm-709-319c-8-13 29-40 44-31 7 5 11 13 7 19-8 13-45 22-51 12zm-18-38c-2-4-4-22-5-39-2-23 2-33 12-33 16 0 36 29 36 53 0 15-37 31-43 19zm112-149c-5-16-12-34-14-40-3-9 6-13 25-13 30 0 32 3 34 53 1 20-3 27-16 27-11 0-23-11-29-27z" transform="matrix(.1 0 0 -.1 -13.996995 175.840601)"/></svg>