<svg height="296.448786pt" preserveAspectRatio="xMidYMid meet" viewBox="0 0 176.606238 296.448786" width="176.606238pt" xmlns="http://www.w3.org/2000/svg"><path d="m1060 3164c-73-23-201-90-255-134-105-84-146-124-174-164-15-23-33-40-40-38-7 1-9-6-5-22 3-13 0-35-7-48-7-12-13-27-14-31 0-4-7-12-15-17s-11-10-6-10 2-7-5-17c-29-34-16-394 17-480 9-24 20-43 24-43s11-11 14-25c4-14 11-23 15-20 5 3 7-4 4-14-3-13 2-21 16-26 12-3 21-10 21-15 0-9 91-42 106-39 5 1 22-3 37-9 16-7 33-10 38-6 5 3 17-3 27-14 9-10 36-25 59-32 41-12 41-13 45-64 2-28 0-73-5-101-6-37-5-63 7-100 30-101 37-136 31-169-4-19-2-43 4-54s14-46 17-78c5-38 23-92 50-149 67-141 78-201 89-455 3-79 9-147 14-150 4-3 10-20 13-38 4-29 2-33-16-31-12 1-29-1-39-6-9-4-23-3-30 2-40 31-337 61-426 43-25-5-83-11-128-14-45-2-86-7-91-10s-9-22-10-42l-1-36 107 7c59 3 127 11 152 17 77 17 280 10 530-19 30-4 60-5 65-4 6 2 37 2 70 0 33-1 94-1 135 0 53 2 72-1 65-8-13-13-549-35-762-31-24 1-43-3-43-8s-19-8-42-7c-48 3-88-18-88-46 0-11 9-21 24-25 25-6 106 12 106 24 0 4 19 8 43 9 23 1 51 2 62 3s51-1 88-3 70 0 73 4c2 4 40 5 84 3 60-2 80 0 80 9 0 10 21 12 88 9 250-11 282-10 322 12 27 14 38 27 37 41-2 17 3 20 33 17 50-4 100 7 100 22 0 17 47 39 55 26 10-16 74-12 113 7 19 9 30 19 24 21s-9 9-6 15c2 7-5 18-16 25-17 10-29 10-63 0-23-6-44-14-47-18-6-6-46-9-180-14-52-2-115-8-140-14s-52-12-61-12c-19 0-32 47-17 57 6 3 8 25 4 52-7 46-8 61-20 241-3 52-10 109-16 125-5 17-11 44-14 60-8 49-26 104-36 110-6 4-10 21-10 40s-4 36-9 39c-8 5-29 73-38 121-2 11-13 56-24 100-12 44-21 87-21 95-1 8-6 18-11 22-6 3-12 35-13 70-2 34-6 94-9 132-6 68-6 69 17 62 134-41 176-48 258-42 133 8 200 18 200 28 0 5 4 7 9 3 14-8 130 32 164 57 16 11 46 21 67 22 27 1 51 12 83 39 25 20 50 37 56 37s11 7 11 15 5 16 10 16c6 1 14 2 20 3 15 2 38 39 33 53-3 7 1 13 9 13 26 0 65 144 46 168-7 8-7 16 1 26 8 9 10 28 5 53-4 21-7 39-6 40 1 2-7 19-18 38-11 20-20 44-20 55 0 10-4 22-10 25-5 3-10 19-10 35 0 33-29 101-47 113-7 4-13 23-13 42s-4 37-10 40c-5 3-10 15-10 25s-11 31-25 46-25 31-25 36c0 15-147 156-170 163-11 3-20 11-20 16 0 6-4 8-9 4-5-3-12-1-16 4-3 6-45 22-93 37s-94 31-102 35c-61 30-463 47-540 23zm295-139c82 7 131 1 230-30 22-7 76-11 119-10 71 2 78 0 86-19 4-12 26-32 49-46 22-14 41-27 41-30s20-32 45-65 45-63 45-67 13-26 29-50c30-46 53-148 32-148-6 0-11 7-11 15 0 9-16 23-35 32s-37 25-40 34c-4 10-29 35-58 56s-53 41-55 45c-2 5-11 8-21 8-9 0-33 11-53 25s-42 25-47 25c-17 0-81 33-81 42 0 4-6 8-13 8s-32 9-56 21c-44 21-147 42-162 33-5-3-15-2-21 3-7 4-29 9-48 10-88 5-146 5-160 0-26-9-146-18-153-11-13 13 15 34 45 34 16 0 40 8 54 17 22 14 27 14 35 2s10-12 19 1c5 8 10 23 10 32 0 10 10 20 25 24 14 3 25 10 25 15 0 6 9 5 21-1 14-8 49-9 104-5zm-53-201c39-13 47-20 51-47 2-19-1-37-9-45-8-7-14-21-14-30 0-26-23-85-45-117-26-39-27-65-4-65 21 0 59 45 59 70 0 10 9 28 19 42 11 13 23 42 26 64 4 21 12 47 17 58 7 13 6 21-3 27-21 13 11 11 66-3 40-11 45-15 45-40 0-30-28-86-60-118-11-11-20-24-20-28s-13-16-30-25c-16-10-30-24-30-30 0-17-98-79-118-75-21 4-33 69-15 83 7 6 14 21 17 35 2 14 7 37 11 51 8 31 12 139 5 139-16-1-34-21-36-42-1-12-10-48-19-78s-14-65-12-77c2-13-2-24-10-27s-13-14-11-23c4-25-10-43-33-43-13 0-19 7-19 24 0 13-7 37-15 52-8 16-15 36-15 45s-3 19-6 22c-4 4-9 27-11 53s-8 55-14 65c-13 25-46 24-54-1-7-23 11-120 31-167 38-89 45-101 59-107 13-5 13-10-2-41-9-19-19-35-23-35-8 0-40 39-40 49 0 4-15 23-33 42-19 19-32 39-30 44 1 6-11 18-28 28-25 14-29 20-19 32 7 8 8 20 4 27-5 7-9 22-10 33-6 49-18 101-27 113-7 9-3 12 17 12 14 0 34 4 44 9 24 13 109 31 210 46 48 7 87 13 88 14 0 0 21-6 46-15zm-442-151c7-32 17-67 23-78s10-23 9-28c-4-14 53-110 76-124 12-9 22-20 22-26 0-15 32-36 58-37 18 0 22-6 22-32 0-53-12-62-71-59-30 1-58 6-65 12-6 5-14 6-17 3-9-9-88 24-114 48-12 11-25 38-28 60-5 27-13 42-28 48-34 12-40 2-34-56 6-56 34-106 55-99 7 3 21-4 32-15s25-20 30-20c6 0 10-4 10-9s13-9 30-9c16 1 35-4 43-10 9-8 17-8 24-1 6 6 19 6 38-1 16-6 34-9 42-6 9 4 13-3 13-21 0-42-32-144-47-150-7-3-37 2-66 11-28 9-69 21-90 28-54 16-120 85-156 162-20 44-22 58-16 135 4 47 11 91 15 96 4 6 10 24 13 40 3 17 8 37 12 46 4 12-1 18-17 22-21 6-22 7-6 23 15 15 19 15 34 3s19-11 38 16c33 46 73 85 89 85 9 0 18-21 27-57zm748 37c18-8 32-22 32-31 0-21-32-79-43-79-5 0-5-5-2-10 8-13-14-42-25-35-4 3-23-13-41-35-19-22-40-40-47-40s-15-6-18-14-16-17-28-20c-15-4-27-18-36-45-7-22-17-38-22-35-4 3-6 10-3 15 4 5-6 14-22 20l-28 10 40 34c22 19 43 34 47 35 3 0 11 14 17 31s19 33 30 36c27 7 101 122 101 157 0 15 3 26 8 24 4-3 22-11 40-18zm-358-54c0-3-4-8-10-11-5-3-10-1-10 4 0 6 5 11 10 11 6 0 10-2 10-4zm450-21c7-8 16-15 21-15 20 0 103-81 107-103 3-20-51-74-102-101-20-11-36-24-36-29 0-6-3-8-6-4-3 3-37-8-74-24-83-35-95-36-80-9 6 11 15 18 21 15 5-4 12 1 15 9 3 9 16 16 28 16 24 0 81 52 69 63-3 4-1 7 6 7 14 0 41 24 41 36 0 4-3 4-7 1-3-4-12-2-19 4-9 7-14 5-19-11-4-13-31-31-73-51-37-16-79-36-93-44s-37-16-52-19c-24-4-25-3-14 15 7 11 19 22 28 24 9 3 28 19 43 35 14 17 33 30 40 30 8 0 18 9 21 20s13 20 21 20 14 7 14 15 10 23 21 34c12 11 22 30 23 43s7 22 14 21c7-2 12 2 12 7 0 15 16 12 30-5zm330-145c6-11 15-18 20-15 6 3 16-6 22-21 10-22 10-28 0-32-6-2-12-19-12-37 0-66-23-88-35-32-4 17-12 35-18 39-5 3-11 18-13 33s-10 37-18 50c-12 18-12 25-3 28 26 11 47 6 57-13zm-111-167c1-14-5-23-13-23s-16-5-18-10c-2-6-21-11-43-12-22 0-47-4-56-9-28-14-241-20-236-6 2 6 21 15 43 19 72 15 178 68 234 118l45 40 22-47c12-27 22-58 22-70zm-559-48c6-15 17-25 30-25 11 0 20-4 20-10 0-5-6-10-14-10-26 0 47-62 84-72 19-6 42-16 50-24 27-23 123-71 160-79 43-9 110-37 110-46 0-4-16-16-36-28-25-15-52-21-95-21-63 0-72 8-36 33l22 15-34 13c-19 6-63 27-98 45-35 19-71 34-78 34-8 0-18 6-22 13-11 16-73 38-73 25 0-15 22-52 39-66 18-15 97-53 115-56 19-3 60-35 53-42-3-4-28 1-54 10-26 10-57 19-67 20-11 1-22 8-24 14-2 7-19 12-38 12-27 0-34-4-34-19s8-20 36-23c28-2 39-9 45-26 10-27-14-41-41-24-9 5-37 13-61 17-25 4-56 15-69 25-22 17-24 21-13 52 6 18 16 58 23 88 6 30 20 72 31 92 10 20 19 43 19 50 0 15 19 38 32 38 5 0 13-11 18-25zm578-80c3-36-2-60-20-96-24-51-41-59-74-34-10 8-30 15-44 15-15 0-30 4-35 9-13 11-116 41-144 41-11 0-25 8-30 19-6 10-24 24-41 31-35 14-38 25-10 33 11 3 20 2 20-1 0-7 228-6 288 0 18 2 40 12 49 21 26 26 36 16 41-38zm-788-574c0-11 6-26 13-33 6-7 13-33 15-58 1-25 8-49 15-55 6-5 13-37 14-70s9-78 16-100c31-89 36-111 33-138-2-15 0-30 4-32 5-3 6-24 4-47-2-25 2-50 10-63 7-11 17-39 21-63 4-23 11-44 16-48 12-7 12-74 0-74-6 0-13 5-16 10-3 6-15 10-26 10-29 0-49 23-42 49 3 13-1 29-12 41-11 13-14 20-6 20 7 0 9 5 5 12s-9 35-9 63c-1 27-12 71-24 97-13 29-19 56-15 72 3 13-1 36-9 52-9 18-12 37-7 50 5 11 3 43-2 70-10 46-15 79-22 149-2 17-1 34 2 40 4 5 5 22 3 37-1 16 2 28 8 28s11-9 11-19zm470-1107c0-2-9-4-21-4-11 0-18 4-14 10 5 8 35 3 35-6zm170 2356c0-13 49-44 57-36 9 8-27 46-44 46-7 0-13-4-13-10zm70-48c0-12 6-22 13-22 19 0 47-33 47-54 0-13 3-14 13-4 17 16 18 38 1 38-7 0-17 6-21 13-4 6-18 21-30 31-23 19-23 19-23-2zm85-112c3-5 8-10 11-10 2 0 4 5 4 10 0 6-5 10-11 10-5 0-7-4-4-10zm-1178-77c-19-31 29-167 73-208 12-11 31-29 43-41 37-35 66-47 83-33 20 16 18 28-11 55-14 13-25 21-25 18s-16 11-35 32c-19 20-35 42-35 49s-6 18-14 24-17 31-20 55c-4 26-13 47-22 50-21 8-32 8-37-1zm-14-409c-4-10 1-22 10-29 10-7 17-16 17-22 0-18 103-55 139-49 64 10 55 50-12 54-16 1-41 10-55 20-26 17-77 42-88 42-2 0-7-7-11-16zm942 306c-3-5 3-10 15-10s18 5 15 10c-3 6-10 10-15 10s-12-4-15-10zm-986-2177c-18-21-3-29 63-33 144-8 438-2 438 10 0 4-8 13-17 21-13 10-44 13-118 11-155-4-154-4-258 0-70 3-101 0-108-9zm178-59c-3-3-34-8-69-10-101-6-171-18-175-31-2-6 8-20 23-29 25-17 30-17 70-2 24 8 41 11 38 7-8-13 10-11 24 3 6 6 33 11 59 10 26 0 55 4 65 9 16 9 16 11 1 29-18 21-26 24-36 14z" transform="matrix(.1 0 0 -.1 -44.053443 317.560137)"/></svg>