<svg height="156.560369pt" preserveAspectRatio="xMidYMid meet" viewBox="0 0 153.349462 156.560369" width="153.349462pt" xmlns="http://www.w3.org/2000/svg"><path d="m1390 1845c-52-8-117-11-168-8-52 4-91 2-105-5-12-6-48-18-80-26s-88-33-125-55c-37-23-76-47-87-54-11-6-34-22-52-34-17-13-37-23-43-23-31 0-190-144-175-158 2-3 0-13-6-24-20-37-40-132-34-160 7-28-10-98-23-98-7 0-32-48-32-62 0-4-9-17-20-28-14-14-20-32-18-53 1-18-1-38-6-45-4-6 12-45 35-87 34-62 40-82 34-108-17-81-17-118-1-142 9-13 16-29 16-36 0-12 40-48 55-49 6 0 22-7 37-14 15-8 41-14 58-14 17 1 36-4 42-10 13-13 64-5 94 15 12 8 27 27 34 43 12 29 22 34 65 32 11-1 33 4 48 10 22 8 31 8 36 0 5-9 18-7 47 7 21 11 42 17 46 15 10-6 38-95 38-121 0-13 5-23 11-23s9-7 5-15c-3-8 1-34 8-58l13-44-51-11c-28-6-68-14-88-17-21-3-38-11-38-17s-10-8-24-4c-29 7-126-12-126-25 0-5-9-9-19-9-25 0-38-20-20-31 22-13 85-11 144 7 87 25 221 40 305 34 67-4 179 1 184 9 3 5 23 7 45 5 22-1 78 1 125 5 73 7 88 12 105 32 41 48 18 60-99 51l-70-5-2 29c-2 38-3 45-13 74-25 73-19 414 7 448 6 6 19 12 30 12s32 9 48 20c15 11 38 24 51 30s35 17 49 25 43 15 65 16c53 1 79 10 107 35 13 11 32 23 41 27 23 9 59 88 47 102-6 7-5 16 3 24 9 9 9 14-3 21-13 9-13 10 0 10 10 0 7 7-10 20-22 16-25 25-21 67 10 139 1 226-29 278-22 38-87 105-102 105-3 0-28 10-55 22-26 11-54 22-62 24-8 1-17 8-22 15-11 18-150 21-249 4zm-145-146c4-6-2-13-13-16-25-6-33-25-21-44 7-12 12-12 30-1 46 29 116-17 98-65-4-12-4-25 1-28 13-8 40 5 40 20 0 7 7 19 16 26s20 23 25 36c6 15 17 23 33 23 27 0 45-18 28-29-13-8-19-43-9-58 5-7 16-13 26-13 20 0 55 33 45 42-3 4 4 16 16 28 19 19 26 20 46 11 23-10 33-31 16-31-4 0-8-16-9-36-1-19-9-44-18-54-11-12-14-26-10-40 6-20 12-21 44-15 20 4 45 7 55 8 26 3 60-58 52-95-3-15-9-42-12-59-4-18-15-34-28-39-26-10-51-38-60-67-13-40-32-15-31 40 0 51-1 52-31 55-27 3-33-1-38-23-4-15-17-30-31-35-30-12-32-31-5-55 24-22 19-28-35-45-45-15-167-22-160-9 12 18-62 19-118 1s-57-19-39-36c14-12 33-16 66-15 53 3 62-2 47-29-6-12-11-29-11-40 0-24-39-42-92-42h-41l27 25c14 13 26 31 26 40 0 22-30 31-44 14-6-8-23-20-37-28-18-9-25-19-22-31s-2-20-15-25c-12-3-26-19-34-35-10-24-17-28-39-23-19 3-28 0-33-12-3-10-12-15-21-12-7 3-24-5-37-18-13-14-34-25-49-25-14 0-30-5-37-12-9-9-15-8-26 8-14 19-15 19-38-3-26-25-49-29-78-13-16 9-18 8-14-5 6-15-11-45-26-45-14 0-27 54-19 78 5 12 10 22 11 22 2 1 28 3 58 6 59 6 84 21 71 42-7 11-15 11-45-2-35-14-39-14-75 7-101 59-126 110-71 145 17 10 20 10 20-2 0-8-5-18-10-21-20-12-9-21 27-23 21-2 41-8 44-14 6-9 11-8 22 1 11 8 17 9 22 1 12-19 98-5 113 18 21 33 6 42-67 42-48 0-72 4-81 15-20 24-4 32 70 37 77 6 84 10 94 49 5 24 2 27-24 31-16 3-44-1-62-7s-44-8-58-5c-22 5-25 11-22 41 2 19 5 35 7 37 1 2 43 4 91 5 49 1 95 6 102 10 15 10 16 47 2 47-6 0-16 5-23 10-7 6-21 17-32 26-20 14-20 15-1 27 11 7 37 29 57 50 38 37 59 47 59 27 0-17 57-12 64 6 9 24 9 24-26 24h-33l24 19c21 16 21 19 6 24-9 4-25 7-36 7-26 0-24 16 6 36 24 16 94 16 173-1 26-6 32-4 32 9 0 9 5 16 11 16s9 6 6 14c-8 21 56 86 86 86 14 0 29-5 32-11zm-515-249c0-5-5-10-11-10-5 0-7 5-4 10 3 6 8 10 11 10 2 0 4-4 4-10zm-22-28c2-7-3-12-12-12s-16 7-16 16c0 17 22 14 28-4zm-71-518c-3-3-12-4-19-1-8 3-5 6 6 6 11 1 17-2 13-5zm575-40c29-3 54-7 55-8 3-3 34-189 37-227 1-14 5-30 9-36 4-5 7-36 8-67 2-39 8-63 21-79 19-21 19-22-4-27-13-3-45-6-73-5h-50l-13 60c-8 33-16 67-19 75s-7 22-9 30c-7 40-11 50-17 56-4 4-7 15-7 23 0 9-8 24-19 33-13 11-21 36-25 82-10 84-2 110 29 102 13-3 48-9 77-12zm-402-69c0-8-4-15-10-15-5 0-7 7-4 15 4 8 8 15 10 15s4-7 4-15zm-22-33c2-7-1-12-6-12s-24-13-42-30c-31-29-70-40-70-20 0 6 8 14 18 17 9 4 22 13 28 21s16 12 21 9c6-4 13 3 16 14 6 22 28 22 35 1zm422 590c-46-48-56-86-25-98 19-8 65 25 65 47 0 10 11 29 25 43 32 32 33 56 3 55-14 0-42-20-68-47zm147-19c3-20-3-36-21-55-31-33-32-40-6-63 19-18 21-17 54 0 19 11 34 21 34 24-1 3 2 14 6 23 13 30-18 92-46 96-22 3-24 0-21-25zm-311-82c-20-22-14-56 12-66 14-5 14-7 2-16-11-8-9-9 10-4 43 12 63 39 55 74-5 26-11 31-34 31-15 0-36-9-45-19z" transform="matrix(.1 0 0 -.1 -41.582485 185.613248)"/></svg>