<svg height="138.626669pt" preserveAspectRatio="xMidYMid meet" viewBox="0 0 113.202354 138.626669" width="113.202354pt" xmlns="http://www.w3.org/2000/svg"><path d="m765 1526c-11-7-37-16-57-20-21-4-63-20-94-36-31-17-67-30-80-30s-24-4-24-10c0-5 4-10 9-10s3-17-4-37c-11-31-11-41 0-53 29-34 45-79 36-102-5-13-9-40-9-59 0-18-5-70-10-114-22-178 2-264 95-337 18-13 21-27 22-81 0-78 16-146 47-207 25-51 75-110 92-110s15-16-4-34c-19-20-34-20-34-2 0 22-50 76-70 76-14 0-20-9-22-32-2-24-7-32-18-29-8 2-35 5-59 5-30 1-46 6-49 16-11 35-71 42-79 10-5-17-13-20-70-19-50 1-67-3-77-16-7-10-19-16-27-13-18 7-65-17-77-38-5-9-7-27-4-40 4-20 10-24 39-24 19 0 47 7 63 15 25 13 30 13 37 1 4-8 26-21 47-30 33-14 42-14 55-3 9 8 36 15 60 16 31 1 49 8 58 22 18 25 32 24 126-7l78-26 52 27c48 25 52 25 64 9 7-10 13-22 13-27s7-4 15 3c12 10 19 10 27 2s19-7 40 4c20 10 33 12 41 6 7-6 39-16 72-23 65-13 159-3 212 23 29 14 42 38 21 38-7 0-23 16-36 36-25 38-23 38-103 8-61-23-79-15-79 35 0 41-17 91-31 91-5 0-5 7-2 17 4 11 3 14-5 9-7-4-12-15-12-24 0-13-8-18-27-17-26 0-28-3-28-39 0-23-5-41-13-44-23-7-72 20-78 44-3 12-14 30-25 40-23 21-24 34-4 34 8 0 15 7 15 16 0 8-4 13-8 10-13-7-86 20-94 36-27 51-39 93-41 143-2 57-2 58 28 61 16 2 34-1 40-6 5-4 27-11 48-15 38-7 75 4 105 33 7 6 18 12 23 12s9 7 9 15 5 15 10 15c6 0 10 9 10 20s5 20 10 20c18 0 1 99-20 123-11 11-20 24-20 28 0 12-79 39-113 39-40 0-136-64-157-106-8-16-16-31-17-33-2-2-14 1-27 7-29 13-60 74-53 102 3 11 2 22-3 25-15 9 8 79 32 97 28 21 54 23 61 5 5-14 98-37 149-37 41 0 98 39 105 73 3 15 9 27 14 27 11 0 40 56 32 63-3 4 0 13 6 21 18 21 25 130 10 158-6 13-36 50-65 84-67 77-148 106-199 70zm105-691c-7-8-21-15-31-15-11 0-19 7-19 15 0 10 10 15 31 15 27 0 30-2 19-15z" transform="matrix(.1 0 0 -.1 -19.662717 154.140064)"/></svg>