<svg height="73.213169pt" preserveAspectRatio="xMidYMid meet" viewBox="0 0 65.854059 73.213169" width="65.854059pt" xmlns="http://www.w3.org/2000/svg"><path d="m415 903c-11-3-24-9-29-14-6-5-17-9-26-9-28 0-140-102-164-149-33-65-38-94-30-172l7-69 53-16c30-8 56-19 59-24s12-7 20-3c12 4 15-6 17-51 1-31 2-64 2-73 1-15-9-18-59-20-51-2-64-7-84-30-22-25-22-27-5-40 10-7 26-13 36-13s18-4 18-9c0-16 29-21 178-27 205-10 263-8 305 10 20 8 37 12 37 9s9 2 20 12c40 36 16 80-37 69-29-6-30-4-38 38-4 23-8 59-9 78-2 19-8 45-14 57-11 20-8 23 36 44 26 12 62 37 80 56l33 34-20 35c-12 19-21 40-21 46 0 27-55 117-93 151-81 73-180 102-272 80zm93-105c7-7 12-31 12-55 0-52 19-57 51-14l22 30 29-30c16-16 33-29 38-29 7 0 18-25 34-72 4-13-6-20-45-32-58-16-104-7-114 24-7 21-40 32-73 23-14-3-21-11-18-19 8-21-26-34-75-28-23 3-47 7-51 10s-8 28-8 57c0 43 2 48 13 35 11-16 33-22 68-19 40 3 22 81-18 81-8 0-13 6-11 12 3 7 29 16 58 21 30 4 56 10 59 12 7 8 16 6 29-7zm82-384c0-83-6-89-89-89-38 0-74 5-79 10-5 6-12 31-15 56l-6 46 62 15c34 8 77 16 95 17l32 1z" transform="matrix(.1 0 0 -.1 -16.265788 91.003298)"/></svg>