<svg height="158.32381pt" preserveAspectRatio="xMidYMid meet" viewBox="0 0 108.427053 158.32381" width="108.427053pt" xmlns="http://www.w3.org/2000/svg"><path d="m864 1896c-84-12-105-23-179-93-44-41-180-250-190-291-3-9-13-47-24-85-28-94-22-233 11-296 21-39 29-45 77-58 30-7 59-13 65-12s27 1 47 0l36-1 14-105c9-68 11-106 4-108-6-2-10-81-10-208 0-205-1-206-34-201-8 2-71 152-71 172 0 12-74 115-90 125-17 11-24-3-11-19 7-8 13-30 13-48s7-43 14-55c8-12 14-29 14-37s11-28 25-44c46-55 19-59-40-7-22 19-50 35-62 35s-23 5-25 11c-5 16-81 30-90 16-13-21-9-25 50-63 31-20 71-52 88-70 18-19 39-34 49-34 11 0 15-5 11-15-4-11 1-15 18-15s26-7 30-26c6-22 10-25 36-19 22 5 32 2 36-8 7-18 107-22 189-7 28 5 111 11 186 14 87 3 149 10 171 19 39 17 58 37 34 37-19 0-21 11-4 28 8 8 8 15-2 27-11 13-6 18 36 36 27 12 51 25 54 28 3 4 22 15 42 24 38 18 65 51 49 61-5 3-28 3-52 1-103-12-102-12-103 18-1 15 4 33 10 38 7 5 12 25 12 44 0 53-30 41-71-28l-34-59-13 65c-6 35-12 129-13 208l-2 143 44 8c24 4 61 17 83 28 21 11 43 20 49 20 22 0 87 72 92 103 9 58-34 348-60 396-7 15-13 31-13 37 0 19-102 125-164 169-83 58-126 82-178 95-68 18-69 18-154 6zm16-210c16-31 8-85-24-158-19-42-31-57-51-62-38-10-72 16-86 64-11 37-10 43 12 74 28 39 106 106 123 106 7 0 18-11 26-24zm213-67c20-5 37-14 37-20 0-5 8-22 17-36 10-15 25-56 35-91l16-65-28-28c-34-34-67-43-124-35-40 6-46 11-69 55-24 47-24 48-6 72 10 13 25 54 35 92 18 73 20 75 87 56zm-403-269c0-5-4-10-10-10-5 0-10 5-10 10 0 6 5 10 10 10 6 0 10-4 10-10zm126-315c-3-10 1-15 13-15s21-10 25-25c7-26 20-32 31-15 8 13 45 13 45 0 0-12 27-3 62 22 14 10 33 18 41 18 23 0 37-54 44-167l6-103-57-25c-65-29-75-55-22-55 18 0 39 7 46 15 13 15 45 22 36 7-2-4-1-23 3-42 9-42-7-88-31-96-10-3-16-10-13-15 4-5-1-9-9-9s-19-7-23-15c-6-11-34-16-101-21-104-6-103-7-116 86-8 58-9 218-1 230 3 5 6 62 6 125 0 73 4 115 11 115 5 0 8-7 4-15zm171-101c-3-3-3-12-1-19 4-9-8-11-45-9-55 4-60 1-35-23 17-17 86-12 92 7 2 5 9 7 15 3 7-4 8 0 4 11-4 10-7 22-7 27 0 10-14 12-23 3zm26-93c-5-21-33-30-33-10 0 6-10 9-22 7-33-4-35-40-3-55 19-8 23-8 18 0-4 7 0 6 10-1 14-12 21-11 47 4 35 21 39 48 9 64-17 10-21 8-26-9z" transform="matrix(.1 0 0 -.1 -35.168889 190.407985)"/></svg>