<svg height="170.884229pt" preserveAspectRatio="xMidYMid meet" viewBox="0 0 146.492375 170.884229" width="146.492375pt" xmlns="http://www.w3.org/2000/svg"><path d="m1195 2220c-101-33-165-78-212-150-24-35-43-74-43-86s-10-28-21-36c-19-12-21-20-15-52s14-41 45-54c20-9 45-26 55-39 16-22 16-25-5-71-13-26-23-55-24-65-1-9-10-26-20-37-9-10-14-24-9-31 5-8 3-10-6-4-10 6-12 4-6-11 4-10 4-15 0-12-9 10-73-119-85-172-13-62-14-63-22-77-11-18-37-121-34-136 3-17-34-9-49 10-7 10-19 14-33 10-11-3-19-1-15 4 3 5-6 9-20 9-35 0-75-43-82-90l-7-40h-66c-36 0-73-6-82-13-25-19-41-57-35-83 5-20 0-28-34-49-23-14-43-32-46-39-3-8 2-39 11-69 12-41 27-65 56-92 23-20 38-39 35-42-10-10-90-25-150-28-34-2-62-9-67-16-6-10-12-10-27 4-21 19-38 22-46 8-12-18 8-44 45-60 31-14 49-15 112-7 79 10 124 3 97-14-12-7-9-10 12-10 15 0 30-4 33-10 3-5 19-10 35-10s41-5 56-11c45-16 154-24 219-16 17 3 62 8 100 12 39 4 76 12 82 18 7 5 51 11 97 13 47 2 96 8 110 13 33 13 140 32 203 36 29 2 61 9 72 14 13 8 22 8 26 1 11-17 25 0 25 30 0 20-6 31-20 35-16 5-19 14-17 48 1 29-2 41-10 40-7-2-10 4-7 12 4 10 0 15-14 15-11 0-23 7-26 16-3 8-10 13-15 9-20-12-20 14 1 56 44 90 30 207-27 229-54 20-90 12-155-36-48-35-59-48-49-55 11-7 11-9-2-9-9 0-19-7-23-15-8-21-36-19-37 3-1 9-2 33-3 52-1 20-6 41-10 48s-1 31 7 55c31 89 39 119 34 124-3 2 1 19 8 37 8 19 22 67 30 107 19 83 92 244 124 273 19 17 23 17 53 3 39-18 180-33 201-21 48 27 102 162 94 233-8 63-27 131-45 159-38 59-104 113-167 135s-114 21-190-3zm179-88c37-25 44-38 63-112 4-14 7-65 7-115 1-90 1-90-24-89-63 4-168 27-201 45-20 10-44 19-53 19s-16 4-16 10c0 5-25 17-55 25-55 17-65 28-62 75 2 22 7 25 42 28 63 4 68 8 50 36-16 23-15 27 2 50 10 14 26 26 35 26s20 5 23 10c3 6 17 10 30 10s27 5 31 11c11 18 85 1 128-29zm-229-364c3-7-4-38-16-68s-31-82-44-115c-12-33-28-73-34-89-7-16-9-36-7-43 3-8 2-21-3-31-18-33-39-88-57-144-11-38-23-58-33-58-22-1-64-39-87-77-10-18-21-33-25-33-16 0-17 32-3 66 8 20 13 42 10 49-2 7 2 16 10 19 9 3 14 14 13 23-2 16 5 37 33 99 5 11 8 24 7 30-1 5 3 22 9 37 7 16 12 34 12 42s5 17 11 20c6 4 8 14 5 22s-2 11 4 8c5-3 15 14 22 37 7 24 29 70 49 103 21 33 39 69 41 80s8 23 13 27c16 12 65 9 70-4zm-387-678c17-25 40-75 52-112 24-75 27-79 57-72 18 5 20 14 21 84 1 53 8 93 22 124 20 47 48 66 34 24-8-25-8-30-6-67 2-21 6-23 32-18 27 6 30 4 39-31 5-20 12-55 16-77 8-49 22-75 39-75 19 0 43 31 50 66 4 18 16 40 27 50 10 9 19 23 19 29 0 17 26 37 68 51 29 11 39 10 59-3 21-14 23-20 18-77-10-119-13-124-103-194-18-14-31-31-28-38 6-16-15-24-64-24-21 0-42-5-45-11-4-6-22-8-45-4-22 4-41 2-44-4-4-6-59-10-139-10-73 0-165-1-205-3-68-3-90 3-57 16 26 9 17 22-25 36-22 7-45 19-51 27-6 7-19 13-28 13-20 0-51 34-51 55 0 19 17 19 37-1 35-34 93 7 60 44-9 10-20 33-23 50-4 18-11 32-16 32s-4 9 2 20c13 24 52 26 74 5 8-8 19-15 25-15s11-3 11-7c0-5 11-21 25-37s25-33 25-38c0-12 41 0 58 17 15 13 8 31-30 84-22 29-23 77-3 124 13 33 16 34 39 24 13-6 38-32 54-57zm591-324c20-24-7-59-39-50-14 3-46 6-72 5-27 0-48 4-48 9 0 6 6 10 13 10s30 9 52 20c46 24 78 25 94 6zm-23 1292c-18-29-10-82 11-74 8 3 17 6 19 6s4 11 4 24c0 14 4 27 10 31 13 8 1 35-16 35-7 0-20-10-28-22zm-86-133c0-16 27-32 37-21 7 7-16 36-28 36-5 0-9-7-9-15z" transform="matrix(.1 0 0 -.1 -13.243592 223.856526)"/></svg>