<svg height="182.478168pt" preserveAspectRatio="xMidYMid meet" viewBox="0 0 79.64504 182.478168" width="79.64504pt" xmlns="http://www.w3.org/2000/svg"><path d="m510 2018c-49-13-133-81-156-126-10-20-29-49-40-64-12-14-34-62-50-105-15-43-31-80-35-83-5-3-11-37-14-75-4-39-10-81-15-95-21-62-31-503-12-522 7-7 12-20 12-29 0-29 29-49 70-49 21 0 41-4 44-8 8-13 9-81 1-137-9-73-10-138-1-156 6-14-1-18-44-24-65-9-82-25-69-67 5-18 9-34 9-35 0-2 21-3 47-3 27 0 57 0 68-1 11 0 108 2 215 4 188 4 230 9 230 28 0 5 13 7 29 4 17-3 33-1 36 5 3 5 17 10 31 10 13 0 24 4 24 10 0 5 15 16 34 24 38 16 56 36 32 36-19 0-21 26-3 33 29 11-39 23-80 15-53-12-79 2-62 33 14 27 8 189-8 214-20 29-17 32 39 39 116 16 128 42 131 274 0 20-2 68-6 106-3 39-1 78 4 87 6 12 5 22-6 32-9 9-13 33-13 64 1 27-3 63-9 79s-14 58-17 94c-4 36-11 67-16 68-6 2-10 17-10 32 0 16-4 31-10 35-5 3-7 12-3 20 3 8 0 15-6 15s-8 7-5 15c4 8 2 21-4 28-5 6-13 23-17 36-7 22-36 62-63 85-7 6-18 16-25 21-40 35-181 53-257 33zm104-122c49-1 62-25 14-28-18 0-41 0-51 0-15 2-18-4-15-31 3-29 6-32 42-35 21-2 51 2 66 8 29 12 70 0 70-19 0-14-77-41-114-41-33 0-46-13-46-45 0-22 98-25 147-4 52 21 54 19 82-85 25-93 23-114-11-92-29 18-104 16-100-2 3-15-52-8-104 14-30 12-44 10-44-7 0-4 14-12 31-18 23-8 30-16 28-33-2-13 3-33 10-46 11-21 17-22 74-17 34 4 74 12 88 19 34 17 67 2 67-30 0-18-6-24-23-24-13 0-26-7-29-16-4-11-12-14-24-8-9 4-30 9-47 10-89 9-116 13-124 18-5 4-12 2-16-4-3-5 16-20 42-32 26-13 50-25 53-28s22-6 43-7c28-2 37 1 37 13s9 14 43 12c38-3 42-5 45-33 2-16 8-35 13-42 6-6 10-47 10-90 1-145 4-136-44-156-43-17-84-20-142-9l-30 5 30 9c17 4 46 6 66 3 28-4 38-2 43 10 3 9 10 13 16 10 5-3 10-1 10 5 0 7 7 10 15 6 9-3 15 0 15 9 0 16-26 21-32 5-2-6-36-4-90 4-95 14-93 15-91-41 1-11-51-20-82-13-5 1-68 4-139 7-90 4-135 10-144 19-17 18-7 34 21 34 28 1 89 31 95 48 2 7-6 12-21 12-53 0-87 12-87 31 0 21 21 34 72 43 22 4 42 15 48 26 10 18 7 20-27 21-21 1-48 0-61-1-20-1-23 2-20 27 3 27 6 28 61 31 53 3 58 5 55 24-2 12-12 23-23 25-71 15-75 15-75-1 0-9-5-16-10-16-6 0-9 18-8 43l3 42h62c74 0 103 18 79 50-10 14-27 19-65 19-41 1-51 4-51 18 0 23 14 30 58 30 20 0 42 4 49 10 20 17-7 46-49 53s-46 15-21 40c11 12 25 15 48 11 27-5 35-2 49 18 18 28 21 50 6 41-5-3-10 0-10 8 0 9-9 12-30 9-40-6-40 16 1 31 27 10 30 16 27 47-3 32 0 36 47 62 28 15 57 24 65 21s33-6 54-7zm98-1068c-9-9-12-7-12 12s3 21 12 12 9-15 0-24zm-164-10c6-14 59-9 72 8 15 17 61 15 67-2 3-8-16-15-47-19-50-7-51-8-48-39l3-31 58 3c36 3 57 0 57-7 0-11-4-12-74-15-30-1-41-6-47-23-11-31 12-46 71-47 87-2 51-32-40-35-30 0-67-4-82-7-14-3-45 0-67 6-44 12-42 8-46 108-1 23 2 42 7 42 4 0 8 8 8 18s7 27 15 39c13 18 22 21 53 16 20-3 39-10 40-15zm41 811c-20-38 3-57 47-37 21 10 27 9 35-3 7-11 11-11 17-1 5 7 22 17 38 22 28 9 28 9 3 7-14-1-32 3-40 9-8 7-31 14-52 16-29 3-41 0-48-13zm-23-363c-7-27 5-33 88-41 72-6 151 9 151 29 0 6-27 11-60 13s-71 6-85 9c-60 15-88 11-94-10zm38-72c4-10 1-21-6-25-22-14 44-31 94-25 26 3 50 1 53-5 10-15 35-11 62 10l24 20-38 6c-21 3-58 10-83 15-117 24-114 24-106 4zm43-865c-10-6-25-8-32-5-8 3-17 1-20-5-4-5-27-7-54-3-49 6-80-9-39-19 20-6 20-7 4-31-9-15-12-26-6-26 5 0 19-9 29-19 15-15 34-20 75-20 31 0 56 4 56 9s7 7 15 4c11-5 15 1 15 18 0 25 32 48 66 48 8 0 12 5 9 10-3 6 1 10 9 10 9 0 16 8 16 19 0 16-8 19-62 19-35 1-71-3-81-9z" transform="matrix(.1 0 0 -.1 -17.8073 202.621025)"/></svg>