<svg height="92.440446pt" preserveAspectRatio="xMidYMid meet" viewBox="0 0 69.745752 92.440446" width="69.745752pt" xmlns="http://www.w3.org/2000/svg"><path d="m592 1130c-44-5-80-15-91-24-10-9-23-16-30-16-20 0-181-138-181-154 0-4-10-28-22-54-25-56-50-173-39-187 5-5 11-22 15-37 7-30 83-96 135-118l32-13-5-97c-3-54-9-105-12-114s-2-16 4-16c5 0 13-16 16-35 4-19 15-39 24-44 21-11 77-8 157 8 83 17 100 32 98 84 0 23 3 47 8 53s9 31 8 55c-3 69 7 89 44 89 57 0 141 98 151 175 2 11 6 27 9 35 11 30 14 85 6 102-6 10-5 19 1 23s6 15-1 33c-6 14-12 45-15 67s-8 47-11 55c-4 8-7 17-7 20-1 3-20 23-43 44-42 37-127 77-161 75-9-1-50-5-90-9zm-46-125c-21-16-32-13-21 4 3 6 14 11 23 11 15-1 15-2-2-15zm-61-196c22-2 47-6 55-10s34-13 58-20c23-7 42-15 42-19s15-14 33-21c32-14 66-46 67-64 0-6 10-15 21-20 30-14 28-28-5-40-19-6-33-6-46 3-11 7-28 12-38 12s-36 16-57 36c-22 20-41 31-43 25-3-8-9-8-23 0-13 6-25 7-32 1-7-5-19-10-27-10-47-4-80-16-80-29 0-8-4-11-10-8-5 3-10 15-10 27 0 11-8 22-20 25-11 3-20 8-21 12-4 42-7 69-10 81-3 11 7 16 44 18 28 2 47 8 47 15 0 9 2 9 8 0 4-6 25-12 47-14zm76-195c17-16 34-24 44-21 27 11 28 9 31-60 3-99-31-224-57-207-5 2-20-3-34-12-32-21-55-12-55 21 0 14-6 25-12 26-10 0-10 2 0 6 6 2 12 17 12 31 0 51 11 73 34 70 33-5 35 44 2 66-22 14-26 24-26 61 0 54 19 60 61 19z" transform="matrix(.1 0 0 -.1 -22.659753 113.876325)"/></svg>