<svg height="146.155439pt" preserveAspectRatio="xMidYMid meet" viewBox="0 0 89.76569 146.155439" width="89.76569pt" xmlns="http://www.w3.org/2000/svg"><path d="m736 1719c-32-37-32-47-5-99 15-28 26-39 36-36 8 3 20 6 27 6 28 0 85 73 66 85-6 3-10 15-10 26 0 10-6 19-14 19s-16 4-18 8c-1 5-15 12-30 15-21 6-31 1-52-24zm-260-200c-10-50-7-76 10-93 22-23 49-20 79 8 21 19 24 28 16 47-11 31-40 56-72 64-23 6-27 3-33-26zm516 4c-82-16-52-173 33-173 37 0 89 36 78 53-4 7-8 17-8 22-1 13-17 49-24 55-3 3-11 14-17 25-12 21-25 25-62 18zm-345-201c-41-45-50-129-22-200 17-41 27-47 69-43 11 1 22-3 26-9 8-12 65 3 83 22 31 34 37 58 28 100-6 23-18 48-28 55s-37 31-61 53c-48 44-71 49-95 22zm521-72c-26-16-32-66-13-106 15-32 19-35 48-28 41 8 48 21 40 64-13 78-32 95-75 70zm-802-43c-15-21-16-29-17-90-2-60 26-74 73-37 45 35 46 119 2 139-35 15-42 14-58-12zm573-136c-29-22-48-87-47-157 0-28-4-60-9-70-6-10-13-33-16-51-7-38 8-47 53-30 29 11 31 15 27 45-6 33 1 40 20 21 18-18 121-16 141 4 18 19 26 117 9 117-5 0-7 10-3 23 4 16-2 31-20 50-14 15-29 27-35 27-5 0-19 9-31 20-27 25-58 25-89 1zm-349-136c-7-8-19-15-27-15-16 0-45-62-39-82 3-7 7-25 10-40 3-14 18-40 32-57 21-25 33-31 65-31s39-4 39-19c0-11 6-21 13-24 7-2 8-8 3-13s-11-4-13 4c-8 23-20 12-38-35-14-36-15-50-7-64 7-10 9-25 6-33s-1-17 4-20 7-20 5-38c-3-18-5-38-6-44-1-21 26-133 32-132 3 1 14-2 23-6 16-7 70 6 143 34 11 5 28 11 38 14 16 5 18 16 15 95-2 51-9 96-16 104s-9 17-4 19c8 3-1 159-13 206-6 26-31 29-39 5-9-28-9-169-2-268l7-91-41-18c-61-27-92-6-54 35 15 17 20 48 13 74-1 6 3 23 10 39 6 16 9 37 5 48-4 14 1 24 15 34 22 16 28 34 10 34-5 0-23 15-40 32-24 27-28 39-23 63 3 16 10 35 14 40 13 17 2 72-22 109-35 53-92 72-118 41zm45-98c0-26-20-25-23 2-3 16 1 22 10 19 7-3 13-12 13-21zm-285 18c0-40 17-52 49-35 26 13 27 38 4 56-34 25-53 17-53-21z" transform="matrix(.1 0 0 -.1 -34.847811 174.541276)"/></svg>