<svg height="185.720717pt" preserveAspectRatio="xMidYMid meet" viewBox="0 0 187.588396 185.720717" width="187.588396pt" xmlns="http://www.w3.org/2000/svg"><path d="m1636 2158c-40-21-96-91-96-120 0-11-5-29-11-40-20-38 7-149 51-216l39-57h68 68v-67c0-38-1-68-2-68-11 0-53 25-53 32 0 15-15 8-28-12-9-15-9-36-1-95 10-65 14-75 31-75 16 0 19-4 14-22-4-13-8-27-10-33-7-24-30-65-36-65-12 0-30 26-24 33 11 10-23 37-55 43-34 7-61-9-61-35 0-9 20-37 45-61s45-51 45-58c0-8-13-30-30-49-16-18-30-38-30-44 0-16-25-5-26 12-3 27-16 59-25 59-4 0-17 10-28 21-11 12-26 19-34 16-40-15-24-141 20-158 29-11 30-46 2-100-11-23-18-44-15-47s-1-13-10-23c-15-16-17-16-50 3-33 20-36 20-54 3-31-28-20-91 24-150 37-48 42-60 27-69-4-3-12-42-15-86-7-71-10-80-27-80-11 0-17 5-14 10 3 6-3 10-14 10-23 0-25-5-21-67l2-43h-44-43l30 25c28 23 29 26 13 39-10 7-18 16-18 20 0 13-72 76-86 76-8 0-23 9-35 21-18 18-19 23-6 37 8 9 17 26 20 37s13 40 22 64 18 70 19 101c4 52 1 60-25 85-28 25-31 26-53 12-13-9-31-32-40-51-9-20-19-36-22-36-2 0-2 40-1 88 3 62 9 96 21 114 22 34 31 132 15 170-19 46-70 64-94 32-10-14-15-15-35-3-13 8-31 20-39 28-8 7-28 18-43 23-16 6-36 24-44 41-9 16-20 35-25 41-6 6-15 19-22 28-7 10-27 21-44 24-31 6-34 4-49-31-15-37-16-37-65-33-27 3-52 7-54 10-3 3-6 25-8 49-1 30-11 56-30 80-15 20-30 51-34 70-8 46-41 79-77 79-28 0-126-25-156-40-8-4-20-17-26-28-6-12-18-30-26-39-50-58-69-173-35-211 9-10 17-25 17-34 0-16 65-88 79-88 5 0 12-11 15-25 12-49 68-24 184 82 20 18 40 33 45 33 4 0 5 5 2 10-3 6 1 10 9 10 10 0 16-9 16-24 0-19 7-26 30-31 35-8 36-12 10-40-17-18-18-26-9-60 6-22 14-44 19-48 9-11 44 7 79 39 34 31 143 67 179 59 40-8 98-64 105-102l6-32-49 6c-43 5-55 2-90-21-22-14-40-31-40-37 0-14 26-39 39-39 6 0 11-5 11-11s22-9 58-7c64 3 85-6 77-31-2-9-1-30 3-46 6-20 4-41-5-63-13-31-14-32-35-17-13 8-30 15-40 15-70 0 4-147 93-184 28-12 43-28 65-71 15-31 42-66 59-77 40-28 76-69 69-79-9-14-51-10-64 6-19 23-36 18-60-16-19-26-26-29-54-23-42 10-112 7-136-6-16-8-18-15-10-29 5-10 7-21 3-24-8-8 16-29 58-50 26-13 42-16 60-9 21 8 243 7 524-2 128-4 277 28 289 61 6 14-18 42-36 43-5 0-8 7-8 15 0 9-9 15-23 15s-36 15-57 40c-19 22-39 40-45 40s-30-9-53-20c-22-11-45-20-49-20-12 0-37 61-35 85 5 54 12 67 35 61 51-16 66-15 87 2 33 26 20 58-41 107-47 38-50 42-44 77 7 47 48 122 69 126 10 2 20-7 26-22 5-14 15-27 22-27 7-1 24-3 38-5 20-2 55 8 79 23 9 5-50 91-80 116l-32 27 19 36c21 39 55 65 62 45 2-6 12-11 22-11s21-4 25-10c3-5 12-7 20-3 10 3 15-1 15-16 0-18 6-21 50-20 28 1 50 6 50 10 0 5 7 9 15 9 10 0 15 10 15 29 0 16-7 34-15 41s-15 18-15 25c0 13-33 29-82 41-28 6-37 27-18 39 6 3 10 15 10 25s8 26 17 36c10 10 23 27 28 38 6 13 22 22 40 24 17 2 34 10 38 18 5 9 17 12 31 8 22-5 45 11 50 38 2 7 8 24 13 38 14 34-6 104-31 108-10 2-28-6-40-17-17-16-30-20-54-15-26 5-30 9-21 21 9 10 9 19-1 38-7 13-10 35-6 50s3 32-2 38c-22 29-20 57 8 87 15 16 31 30 35 30s25 17 46 39c46 45 50 77 15 118-13 15-26 37-30 49-3 11-17 27-31 34s-27 21-30 30c-9 27-45 41-157 59-36 6-54 3-82-11zm-262-1643c1-9 9-21 17-26s9-9 3-9c-17 0-47 38-39 50 8 14 16 8 19-15zm66-9c0-15-18-31-26-23-7 7 7 37 17 37 5 0 9-6 9-14z" transform="matrix(.1 0 0 -.1 -14.570644 217.169288)"/></svg>