<svg height="171.627604pt" preserveAspectRatio="xMidYMid meet" viewBox="0 0 122.860205 171.627604" width="122.860205pt" xmlns="http://www.w3.org/2000/svg"><path d="m989 1899c-57-5-72-10-110-42-91-76-149-158-175-246-15-52-15-60 0-108 9-28 30-65 46-83 25-27 28-36 24-78-3-26-6-80-9-121-2-47-9-80-19-89-13-13-16-10-25 24-6 22-11 45-11 52 0 6-4 12-9 12-4 0-11 26-14 58-10 88-17 115-33 134-14 14-14 19-1 40 21 33 15 95-17 160-27 56-66 98-92 98-7 0-14 4-16 10-1 5-38 13-81 16-70 6-83 4-145-21-80-33-128-79-177-173-33-62-36-75-40-167-5-131 17-189 88-240 62-43 100-52 132-31 45 30 67 13 81-60 3-22 10-43 14-49 5-5 11-37 15-70s12-71 17-84c4-13 15-71 23-130 19-131 29-164 57-176 13-6 32-35 48-72 14-35 36-74 48-88s22-30 22-35 11-12 25-16c14-3 25-10 25-15s8-9 18-9c24 0 43 54 41 113-1 25 2 52 8 59 5 7 17 33 27 57 15 39 15 45 1 67-18 28-35 31-35 8 0-9-9-29-20-45-12-15-22-43-23-61s-9-41-18-51c-15-17-19-13-68 68-60 100-65 137-22 155 21 8 27 17 24 31-7 26-21 33-38 19-12-10-17-7-25 15-18 47-12 61 30 78 60 23 49 64-19 69-52 4-49 24 10 78 39 35 51 51 43 59-8 9-22 6-55-8-58-27-63-26-75 7-11 28-10 30 47 61 61 33 73 57 44 81-12 10-22 8-50-9-59-35-74-28-90 36-2 7 20 33 49 58 65 55 105 60 97 12-2-10 39-128 50-142 3-5 10-26 14-45 15-70 54-126 96-135 24-5 36 0 71 29 23 20 44 36 48 36 14 0 2-84-14-95-9-7-16-15-16-19 0-5-10-16-22-26-19-15-20-20-9-33 7-9 10-21 6-27-5-8 2-11 21-8 25 3 29-1 32-25 2-18-6-43-20-65-22-34-27-82-9-82 5 0 20-9 35-21 25-20 25-21 11-56-9-20-17-52-19-72-1-20-8-47-15-59s-9-28-5-34 3-8-4-4c-6 3-14-3-17-15-4-13-2-24 4-29 9-5 8-10-4-20-17-14-20-40-5-40 6 0 8-11 4-25-5-19-2-25 10-25 9 0 16 8 16 20 0 11 4 20 9 20 15 0 22 32 10 46-9 11-9 14 0 14 7 0 9 5 6 10s-1 10 4 10c6 0 10 3 9 8-2 7 26 74 43 102 15 24 34 74 31 83-1 4 3 7 8 7 6 0 10 7 10 16 0 8-5 12-10 9s-10-1-10 5c0 7 7 9 17 6 9-4 20-1 25 6 11 18 10 68-2 68-5 0-10 4-10 10 0 5 7 7 15 4 19-8 19 6 1 31-11 16-17 17-29 7-18-15-25-6-19 28 2 14 5 48 6 76s6 55 10 62c3 6 11 51 17 99 11 90 16 128 19 128 4 0 11 44 13 85 4 60 31 110 60 110 12 1 33 7 47 15s48 14 76 15c71 0 104 17 105 55 1 17 1 33 0 37 0 3 3 48 8 100 6 64 5 99-2 113-6 11-10 28-8 38 1 10-8 35-20 55s-23 50-25 66c-5 41-86 120-114 111-12-4-27-2-33 4-7 5-22 9-32 8-11-1-50-4-86-8zm-159-525c0-2-7-4-15-4s-15 4-15 10c0 5 7 7 15 4 8-4 15-8 15-10zm50-168c0-8-4-17-9-21-12-7-24 12-16 25 9 15 25 12 25-4zm-10-70c0-3-4-8-10-11-5-3-10-1-10 4 0 6 5 11 10 11 6 0 10-2 10-4zm268-491c-6-14-15-25-20-25-14 0-9-28 8-45 15-15 15-16-7-10-21 5-27-1-44-37-21-44-22-46-24-79 0-11-14-32-30-47-36-33-61-100-61-165 0-44 2-48 23-45 12 2 22 10 22 18s4 21 8 28c5 7 4 12-2 12s-11 5-11 10c0 6 7 10 15 10 16 0 55 56 55 78 0 8 8 26 19 40 10 15 20 40 23 55 5 24 3 28-13 24-11-3-19-1-19 4s8 9 18 9 26 9 35 21c22 25 42 73 27 64-6-3-10 1-10 9 0 9 6 16 13 16 8 0 7 4-3 10-13 9-8 14 12 12 3-1 12 5 18 14 11 12 10 13-4 8-14-6-21 5-17 29 3 18-21 5-31-18zm-743-88c-12-10-14-16-7-21 7-4 12-15 12-25s11-38 24-63c13-24 27-55 31-69 9-26 48-67 68-70 39-5 49 1 43 26-4 14-20 47-36 74-17 26-30 53-30 58 0 17-62 103-74 103-7 0-20-6-31-13zm847-76c-7-22-17-41-21-41-10 0-24-35-41-103-7-26-18-51-24-55-27-18-39-42-26-57 19-23 48 2 76 64 19 42 22 56 12 63-10 6-10 8 1 8 8 0 12 3 8 6-3 3 3 15 14 27 21 23 25 47 8 47-6 0-1 12 10 26 12 15 21 34 21 43 0 13-2 13-9 2-7-10-10-10-13-1-2 7-10-6-16-29zm-954-19c-21-4-24-42-4-42 8 0 17-11 20-25 4-14 13-25 20-25 8 0 25-13 38-29 34-42 63-55 91-39 19 10 20 13 5 16-10 2-18 11-18 21 0 21-60 91-78 91-6 0-12 4-12 8 0 13-42 29-62 24zm-128-99c0-10 20-31 79-83 39-34 41-35 63-17 12 8 15 21 11 40-4 21-11 27-31 27-14 0-33 7-42 15-20 18-80 31-80 18z" transform="matrix(.1 0 0 -.1 -8.457766 190.731552)"/></svg>