<svg height="153.844244pt" preserveAspectRatio="xMidYMid meet" viewBox="0 0 132.37603 153.844244" width="132.37603pt" xmlns="http://www.w3.org/2000/svg"><path d="m413 1653c-20-4-70-48-110-97-48-58-86-267-64-356 5-19 12-47 15-62 4-16 13-28 21-28 18 0 20-16 3-24-8-3 1-16 25-36 20-18 37-37 37-44 0-14 56-36 92-36 14 0 35 9 48 20s29 20 35 20c7 0 18 7 25 15s18 15 26 15c16 0 50-106 65-203 6-38 19-84 29-101 13-24 19-66 24-186 5-132 13-242 19-273 1-4-32-9-73-10-41-2-84-8-95-14s-28-14-37-17c-10-3-18-12-18-20 0-11 19-14 85-15 47 0 90-3 96-7 18-11-12-24-54-24-40 0-77-14-77-30 0-5 6-7 14-4s17 1 21-5c8-14 100-14 126-1 10 6 72 10 136 10 194-1 222 0 247 10 14 5 40 6 59 3 27-4 40 0 56 16 11 11 26 21 31 21 13 0 13 4-1 33-15 32-82 56-110 39-16-10-24-9-44 4-14 9-25 19-26 23-1 9-7 35-10 46-2 6 0 26 4 45 3 19 2 62-3 95-13 74-12 68-5 140 3 33 7 85 9 116 1 30 6 61 10 67 4 7 5 16 1 22-3 5 1 26 10 46 8 20 15 47 15 61 0 13 7 26 15 29 8 4 15 10 15 15 0 6 9 22 20 37 10 15 25 50 32 77 17 72 24 75 63 32 19-20 39-37 45-37s8-5 5-11c-4-5 8-25 27-44 41-43 84-47 124-10 14 13 29 23 33 22 9-3 56 46 66 68 4 11 7 32 6 48-2 15 2 27 8 27 14 0 31 68 27 110-8 77-19 130-28 130-5 0-8 6-7 13 3 19-12 67-22 67-5 0-9 6-9 14 0 16-62 78-81 82-8 2-38 10-68 18-36 10-61 12-78 5-13-5-36-9-49-9-53 0-159-57-229-123-39-36-68-122-48-138 11-10 11-15-3-30-9-10-13-22-10-28 4-5-3-13-15-16-12-4-18-12-15-21 6-15 4-16-64-18-42-1-45 1-42 24 1 13 14 37 29 52 30 31 34 85 9 104-9 6-16 17-16 25 0 16-56 79-71 79-5 0-9 5-9 11 0 17-32 38-58 39-23 0-118 45-128 61-3 5-23 9-44 9s-42 5-45 10c-3 6-9 9-13 9-4-1-17-4-29-6zm30-104c-8-8-16-8-30 0-16 9-14 10 12 11 21 0 26-3 18-11zm837-17c0-9-37-42-47-42-3 0-11-7-17-16-7-9-25-17-42-17-27-2-43-12-44-29 0-11 61-25 86-20 12 2 36 17 54 33 30 28 63 32 41 5-12-14 8-37 42-49 10-4 16-11 12-17-3-5 3-20 14-32 13-13 21-35 21-55 0-18-1-33-3-33-17 0-87 44-87 54 0 8-9 16-21 19s-18 10-14 16c3 6-1 11-10 11-12 0-9-10 14-44 48-70 60-79 98-73 31 5 33 4 33-24 0-17-6-32-15-35-8-4-15-12-15-20 0-20-37-17-58 4-10 10-23 17-29 15-5-2-16 3-23 12-7 8-18 15-24 15s-24 16-40 36c-15 20-41 40-57 46s-28 16-27 24c3 13-68 83-84 84-21 0-4 32 27 52 19 13 35 28 35 34s12 14 28 18c15 3 50 13 77 20 59 17 75 19 75 8zm-656-81c22-24 18-31-56-109-31-33-59-71-63-83-4-13-18-32-31-42s-24-24-24-31c0-22-30-74-45-80-8-3-15-1-15 5 0 5-11 21-24 35-13 15-31 49-41 78-16 47-16 55-1 105 9 30 23 63 33 73 16 18 59 26 48 8-3-5 0-18 6-28 13-21 18-19 82 44 47 46 102 57 131 25zm391-200c-6-11 37-61 53-61 15 0-21-78-48-107-11-11-27-37-35-56-14-33-17-35-50-30-35 6-35 5-35-31 0-32 3-36 26-36s25-3 19-22c-4-13-10-42-12-65-4-36-9-43-27-43-41 0-66-12-66-31 0-21 28-39 60-39 19 0 21-5 18-42-3-41-5-43-35-43-38-1-39-1-47-41-6-28-4-32 26-40 23-7 34-17 36-32 3-18-1-22-27-22-25 0-30-5-36-31-9-38-7-40 44-42 31-1 41-5 41-18 0-10 3-24 6-33 5-12-2-18-25-22-17-4-31-11-31-16s-5-6-11-2c-16 10-30-18-17-33 13-16 10-20-21-25-20-2-25 2-27 22-8 86-16 229-23 390-6 142-12 192-24 217-10 18-17 41-17 52s-9 25-21 31c-12 7-18 18-15 26s-8 34-24 58c-33 49-37 66-15 66 8 0 19 9 25 20s17 20 25 20c17 0 20-16 5-25-6-4-9-21-7-38 2-25 8-33 28-35 18-2 30-14 44-45 26-55 58-61 100-17 16 16 24 30 18 30-14 0 45 147 70 174 9 11 17 25 17 32s6 14 13 17c14 5 31-19 22-32zm-24-1054c-16-16-26 0-10 19 9 11 15 12 17 4 2-6-1-17-7-23zm279 1053c8-5 20-10 25-10 6 0 3 5-5 10s-19 10-25 10c-5 0-3-5 5-10zm10-30c-12-8-11-10 6-10 12 0 27-7 34-15s18-15 25-15c16 0 26 36 11 38-6 1-22 4-36 7s-32 1-40-5zm-290-80c0-5 5-10 10-10 6 0 10 5 10 10 0 6-4 10-10 10-5 0-10-4-10-10z" transform="matrix(.1 0 0 -.1 -23.291137 165.873059)"/></svg>