<svg height="92.885404pt" preserveAspectRatio="xMidYMid meet" viewBox="0 0 126.668569 92.885404" width="126.668569pt" xmlns="http://www.w3.org/2000/svg"><path d="m851 1163c13-15 11-16-11-9-55 15-93 19-86 8 3-6 1-14-5-18-8-4-9-3-5 4 10 16-12 15-76-3-108-29-204-74-223-104-3-6-25-19-48-30-50-23-145-113-170-162-21-41-38-147-25-155 5-3 7-11 5-18-8-20 12-56 31-56 10 0 23-5 29-11s26-13 44-15c19-2 68-11 109-19 41-7 89-14 105-14 23-1 35-8 48-31 10-17 16-34 13-39s1-25 9-45c26-61 21-73-44-106-33-16-62-34-66-39-8-14 31-51 52-51 10 0 72 5 138 10 177 15 371 24 445 22 76-3 160 14 160 33 0 7-8 23-18 35-16 20-27 23-98 22l-80-1-2 102c-1 56-4 114-7 128-5 23-2 27 33 37 22 7 48 12 59 12s31 8 44 19c13 10 29 16 36 14 12-4 68 21 93 42 8 8 40 36 70 63l54 50-19 38c-11 20-35 52-52 70-18 18-33 41-33 51 0 54-201 161-286 152-16-2-34 0-39 3-6 4-31 6-55 6-25-1-63 4-85 10-53 16-60 15-44-5zm80-88c28-2 53-6 56-8 2-3 0-21-5-40-12-44-5-81 19-103 17-15 23-15 44-4 14 7 28 10 32 7 12-13 34 46 27 76-5 25-3 28 12 24 11-3 39-11 63-17s50-18 58-26 22-14 32-14 23-11 29-25 16-25 21-25 12-14 16-31c10-46-14-57-34-16-22 43-47 47-56 8-9-40 10-74 36-66 13 5 19 2 19-10 0-9-5-13-11-9-11 6-128-43-140-59-3-5-26-11-50-13-24-3-49-10-55-15-7-6-15-6-18-1s-29 5-58 2c-29-4-56-6-60-3-5 2-8 18-8 34 0 38-19 58-60 61-28 3-33-1-45-36-8-22-11-52-8-66 4-23 1-28-24-35-15-5-41-9-58-11-16-2-46-5-65-7-19-3-47-1-63 4-16 4-56 9-90 10-34 0-78 5-97 10s-55 14-78 20c-44 10-44 11-37 46 10 55 25 71 72 78 28 4 43 11 43 21 0 8-4 14-10 14-33 0 20 72 70 94 40 18 124 69 132 81 4 5 8 6 8 2 0-5 10-1 22 7 32 23 38 20 38-14 0-20 6-33 18-37 9-4 22-14 28-22 10-13 15-13 37 2 39 25 49 50 31 75-11 16-12 22-2 29 15 9 99 21 110 15 5-2 31-5 59-7zm19-496c0-6 9-22 20-36 22-28 26-73 10-104-14-25-27-24-35 1-15 49-85 48-85-1 0-21 5-29 17-29 13 0 14-3 5-12-6-6-37-12-67-14l-56-2 3 32c3 29 0 31-39 40-25 5-44 15-47 25-17 65-17 71 6 73 13 0 31 1 40 0s35 5 58 13c38 13 42 13 60-5 28-28 64-26 78 5 12 25 32 34 32 14zm317-265c-3-3-12-4-19-1-8 3-5 6 6 6 11 1 17-2 13-5zm-791 510c-10-36 1-62 32-78 69-35 109 48 42 87-41 25-67 22-74-9z" transform="matrix(.1 0 0 -.1 -19.753842 117.908912)"/></svg>