<svg height="161.882741pt" preserveAspectRatio="xMidYMid meet" viewBox="0 0 164.348121 161.882741" width="164.348121pt" xmlns="http://www.w3.org/2000/svg"><path d="m862 1973c-20-6-54-15-76-18-45-7-138-36-146-46-3-3-16-10-30-14s-32-13-40-19c-8-7-33-20-55-30-105-49-131-65-142-87-7-13-26-33-43-44-16-11-30-23-30-28 0-22-53-86-84-101-33-16-40-28-38-66 0-8-5-18-11-22-9-6-9-8 1-8 17 0 15-20-8-68-31-63-22-142 15-142 8 0 15-9 15-20 0-12 9-30 20-42s20-30 20-39c0-10 11-26 25-37s25-24 25-30c0-15 53-72 67-72 7 0 13-4 13-10 0-5 11-12 25-16 14-3 25-9 25-13 0-5 18-14 40-21s45-19 51-27c6-7 22-13 35-13s24-4 24-10c0-5 6-10 13-10 6 0 25-7 42-16 16-8 37-13 47-11 9 3 22-1 28-8 6-8 25-17 41-20 16-4 29-12 30-18 0-7 2-68 4-137 3-69 7-151 10-183l6-58-34 6c-26 5-48 0-97-24-35-17-73-31-86-31-12 0-27-6-33-14-10-12-9-17 6-24 29-15 146-22 188-11 48 13 25 12 265 5 107-4 209-2 225 2 32 9 48 42 21 42-9 0-16 8-16 20 0 20-27 26-96 23-17-1-23 6-28 30-4 18-8 43-11 57s-6 67-7 117c-2 80-5 94-21 99-14 4-16 9-7 19 7 8 9 19 5 25-3 5-1 10 5 10 7 0 8 6 0 19-16 32-13 34 44 27 30-4 57-3 60 2s24 9 46 9c23 0 46 5 53 12 6 6 19 11 29 11s18 4 18 9 14 13 32 16c17 4 41 18 54 32s27 22 33 19c6-4 20 1 32 11 44 35 136 128 147 148 6 11 18 20 28 20 24 0 105 114 99 141-3 12 3 27 15 37 11 9 20 27 20 40s5 28 10 33c14 14-7 72-31 85-10 5-19 19-19 30s-7 22-15 25c-8 4-15 18-15 34 0 15-7 33-15 40s-15 18-15 24c0 7-13 27-30 46-16 19-29 39-30 45 0 5-17 25-38 45-21 19-46 47-56 62-9 14-33 34-52 43-20 9-52 28-71 41-20 13-46 24-57 24-12 0-27 5-33 11-5 5-52 12-104 14-52 3-94 5-94 6 0 8-217 1-243-8zm298-232c0-63 2-71 26-90 30-24 92-28 127-9 26 13 57 47 57 61 0 6 7 19 16 29 16 17 19 16 64-17 26-19 54-35 62-35 7 0 18-13 24-29 9-23 8-32-7-52-10-13-19-33-19-45 0-35-33-55-102-61-35-3-68-9-73-14-6-4-50-11-97-15-96-7-97-7-103 54-5 48-15 67-51 92-33 22-39 23-82 11-25-6-53-17-60-24-30-24-62-88-62-121 0-19-3-37-7-39-38-23-540-28-576-5-11 7 17 70 48 108 7 8 15 24 17 35 6 33 23 18 26-22 6-76 75-117 142-85 39 19 85 87 74 110-4 10-7 20-6 23 2 11-66 79-78 79-17 0-7 22 16 34 10 6 21 13 24 16s23 11 45 19 45 16 51 18 16-13 22-35c6-21 25-51 42-67 26-25 39-30 81-29 36 0 53 6 64 20 23 29 55 96 55 114 0 31 22 38 131 39l109 2zm540-376c0-8-7-15-15-15-16 0-20 12-8 23 11 12 23 8 23-8zm-97-62c3-17-2-36-15-54-11-15-18-31-14-37 3-5-8-22-24-38s-30-36-30-44-14-26-30-39c-17-13-30-29-30-36 0-9-15-13-46-13h-45l35 43c20 24 36 50 36 59 0 8 5 18 10 21 18 11 59 105 53 121-3 9 1 14 13 14 11 1 30 7 44 15 34 20 37 19 43-12zm91 21c22-8 20-19-4-21-11-1-20 4-20 13 0 16 2 16 24 8zm-1222-41c6-16 13-50 15-78l5-50-50 51c-45 46-72 83-72 98 0 3 20 6 45 6 40 0 47-3 57-27zm-162-2c0-11 6-26 13-33 8-7 17-25 20-40 4-15 25-46 47-68 44-45 47-50 25-50-8 0-43 27-78 60-34 33-67 60-73 60-12 0-27 67-18 82 3 4 18 8 35 8 22 0 29-5 29-19zm316-41c1-27 14-73 33-113 36-79 35-77 17-77-28 0-110 136-130 213-7 28-6 28 36 25l43-3zm124 31c5-11 10-32 10-46s5-36 12-48c15-27 18-57 6-57-20 0-119 133-109 147 17 27 67 29 81 4zm172-98c-2-71 1-120 8-133 6-12 9-24 6-27-8-9-36 17-36 33 0 8-13 42-29 76-16 35-31 77-35 93-3 17-8 40-12 53-6 22-5 23 47 20l54-3zm348 101c7-7 0-25-22-60-17-27-31-59-30-71 1-11-5-24-13-27s-15-12-15-20c0-7-7-17-16-20-9-4-14-9-11-12 5-6-1-15-31-49-14-16-37-11-27 6 4 5 8 33 9 63 2 29 7 59 10 65 4 6 5 15 2 20s1 25 9 44 11 37 8 40c-3 4-1 13 5 20 13 16 106 17 122 1zm188 0c6-5-22-74-30-74-4 0-22-16-39-35-18-19-36-35-40-35-5 0-25-11-45-25-53-36-67-34-49 8 7 17 21 34 30 35 10 2 15 12 13 26-1 12 7 36 20 53 12 17 22 36 22 41 0 6 8 12 18 14 17 4 94-2 100-8zm-392-16c11-35 12-62 2-69-10-6-14-28-22-109-3-30-11-57-17-59-8-2-8-6 1-11 18-11 3-30-24-30-21 0-22 3-20 90 2 49 5 94 9 100 3 5 6 32 7 60 0 48 1 50 28 50 21 0 31-6 36-22zm608 7c-4-8-10-15-15-15s-9 7-9 15 7 15 15 15c9 0 12-6 9-15zm-329-277c-7-17-40-30-50-20-3 3 5 16 17 29 22 24 43 18 33-9zm-90-48c3-5 1-10-4-10-6 0-11 5-11 10 0 6 2 10 4 10 3 0 8-4 11-10zm-305-82c0-6-3-9-6-6s-29 0-57-8c-29-8-53-14-53-14-1 0-4 9-7 20-5 18 0 20 59 20 42 0 64-4 64-12zm-85-74c11-8 30-12 45-9 14 3 32 1 40-4 12-8 12-14 1-34-10-18-10-30-2-45 14-27 14-119 0-128-6-3-9-14-6-24 3-12-2-20-15-23-33-9-67 10-74 40-3 15-8 35-11 43s-5 50-5 92c0 43-4 80-9 84-10 6-3 24 9 24 4 0 16-7 27-16z" transform="matrix(.1 0 0 -.1 -14.11957 198.47096)"/></svg>