<svg height="146.372255pt" preserveAspectRatio="xMidYMid meet" viewBox="0 0 157.977053 146.372255" width="157.977053pt" xmlns="http://www.w3.org/2000/svg"><path d="m927 1672c-11-4-78-7-150-5-131 3-147 1-232-36-182-80-263-135-337-233-62-81-92-260-57-339 16-33 22-38 75-49 33-6 71-11 86-11s30-4 33-9 26-12 50-16c49-7 52-11 30-40-8-10-15-26-15-34s-11-25-25-38c-13-13-35-47-49-75-26-54-26-48-12-219 4-51 44-149 66-163 11-7 50-83 50-98 0-8-30-13-105-14-114-3-195-17-207-36-4-7-8-20-8-30 0-17 11-18 163-12 89 4 206 8 260 10s111 7 128 10c18 4 36 2 44-5 10-9 35-10 87-4 40 4 98 7 128 6 179-6 555-8 615-2 39 4 77 3 86-1 17-8 69 9 69 23 0 11-36 28-43 21-4-3-13 0-22 7-8 7-50 14-92 16-43 1-81 3-85 3-5 1-8 5-8 11 0 5 7 7 16 3 19-7 34 13 34 45 0 13 13 42 29 65 26 36 31 57 42 154 9 86 9 123 0 159-14 54-53 135-87 181-13 17-24 34-24 37s23 17 51 32c52 26 119 85 119 104 0 5 4 10 10 10 10 0 30 63 30 97 0 12-7 28-15 37-8 8-15 22-15 30 0 9-5 16-11 16s-9 6-6 14-9 25-29 41c-18 15-44 43-56 63-27 45-79 93-127 118-20 10-56 30-82 45-25 14-63 32-85 39-21 7-50 19-64 28-45 29-218 59-253 44zm-74-118c26-4 47-11 47-17 0-21-57-57-105-67-53-11-146-10-139 2 3 4-11 14-31 24-19 9-35 20-35 25 0 15 39 29 90 33 28 2 53 6 57 9 5 6 23 4 116-9zm212-33 30-6-4-94c-2-71 0-96 10-103 11-7 11-11 2-15-22-8-14-23 12-23 14 0 28-7 31-15s15-17 26-21c11-3 17-8 14-11-3-4 2-12 12-19 15-11 14-13-12-23-15-6-40-12-55-13-45-1-64-9-53-20 14-14 93-12 102 3 4 6 12 9 18 5 6-3 17 1 26 9 12 12 20 13 40 3 14-6 26-14 26-18 0-9-46-30-65-30-8 0-15-5-15-11s-8-9-19-6c-10 2-44 0-76-5-62-9-85-1-85 33 0 10-14 28-30 41-19 14-26 24-19 29 19 11-49 67-94 77-23 5-46 11-52 13-14 4-112-19-138-32-32-17-77-61-77-76 0-7-5-13-10-13-6 0-9-3-8-7 1-5-3-19-9-33s-12-34-15-45c-2-13-11-19-23-18-11 2-33 4-50 7-16 2-38 4-47 5-25 1-22 20 7 63 14 20 25 46 25 57s5 23 10 26c6 4 10-7 10-24 0-42 21-39 42 7 21 43 10 64-22 44-16-10-21-9-30 7-6 13-6 21 0 23 12 4-10 68-22 68-4 0-8 7-8 15s-9 20-20 27c-23 14-27 38-7 38 7 0 23 11 35 25 29 34 47 32 85-10 38-41 136-79 182-70 16 3 67 17 111 32 75 24 84 30 109 69 29 46 38 49 100 35zm200-96c51-32 195-170 195-187 0-4-8-11-17-16-26-13-93-22-93-12 0 4-13 13-29 18-15 5-46 22-69 36-30 18-39 30-35 44 3 15-2 20-24 25-26 5-28 9-27 49 1 52 11 78 31 78 7 0 38-16 68-35zm-865-79c0-8 5-16 12-18 18-6 15-113-4-135-9-10-19-28-22-40-9-29-30-29-84-1-56 30-54 49 11 137 48 65 87 91 87 57zm476-130c24-6 37-19 53-51 28-57 27-75-5-75-14 0-23-4-20-8 5-9-95 1-130 12-11 3-36-2-59-14-22-11-45-20-51-20-20 0-27 38-11 55 9 8 18 29 22 46s13 33 21 36 14 10 14 17c0 13 114 15 166 2zm219-216c3-5-1-10-10-10s-13 5-10 10c3 6 8 10 10 10s7-4 10-10zm-473-62c3-9 34-12 101-12 53 0 97-2 97-4 0-3-8-11-17-18-14-9-15-16-7-24 12-12 25-10 152 26 49 14 55 14 66-1 10-14 17-15 33-7 11 6 23 9 25 6 3-2 17 2 33 10 21 11 34 12 59 4 48-16 51-25 17-42-32-17-35-23-25-50 7-18 52-20 122-7 37 7 45 6 58-13 14-21 13-21-50-27-69-6-96-20-96-50 0-22 15-24 50-6 15 8 47 17 73 20 42 6 47 5 47-13 0-11-16-37-35-59-33-36-38-38-79-34-24 3-53 0-66-7-34-18-10-33 49-29 36 3 51 0 51-8 0-9 10-11 30-6 27 5 30 3 30-20 0-14-4-29-10-32-5-3-10-20-10-36 0-41-21-122-34-131-14-10-26 0-20 17 4 10-7 16-43 21-26 4-52 6-58 4-5-2-37-5-70-6-75-4-92-7-107-22-7-7-10-12-7-12 2-1 49-5 104-11 55-5 105-10 110-11 6 0 24 3 40 7l30 8-25-20c-23-19-137-42-165-34-27 8-96 8-101 0-3-5-17-6-31-3-16 4-28 2-34-7-7-10-11-11-16-3-5 7-27 10-58 8-46-4-103-4-226-3-34 1-49 6-58 21-13 21-8 29 24 42 21 8-18 31-52 31-30 0-39 5-55 34-21 37-18 64 7 55 8-4 31-3 51 0 26 5 34 12 32 24-4 21-76 25-97 4-18-17-33-11-49 21-23 48-8 66 68 82 3 1 16 5 29 9 38 13 5 26-50 19l-46-5 1 56c0 31 3 56 6 56s13 18 24 39c19 41 28 46 114 57 34 4 52 11 52 20v22c0 4-21 7-47 7-47 0-54 7-44 50 2 11 100 4 103-7zm738-588c0-13-28-25-38-16-3 4 0 11 8 16 20 13 30 12 30 0zm-700-70c0-5-2-10-4-10-3 0-8 5-11 10-3 6-1 10 4 10 6 0 11-4 11-10zm42-22c-7-7-12-8-12-2 0 14 12 26 19 19 2-3-1-11-7-17zm323 1211c-5-6-19-17-30-25-19-14-17-15 20-9 49 8 53 12 34 29-9 9-18 11-24 5zm-40-616c-11-2-29-8-40-13-54-23-180-33-249-19-23 5-33-16-12-24 66-25 295-7 288 23-2 7 3 10 12 7 8-3 17 1 21 10 4 13 8 14 17 5 17-17 33-15 18 3-13 15-19 16-55 8zm-347-50c7-3 16-2 19 1 4 3-2 6-13 5-11 0-14-3-6-6zm-111-39c-4-4-19-8-34-9-51-3-53-5-49-27 2-13 10-22 17-20 8 2 37 6 65 9 60 6 98 28 74 43-17 11-64 13-73 4zm239-39c-6-7-18-14-26-17-13-4 86-2 100 3 14 4 27 6 49 7 13 1 21 5 17 10-12 11-128 9-140-3zm380-225c-16-3-31-11-34-19-4-11 3-13 28-7 37 7 44 11 39 23-2 5-17 6-33 3zm67-7c-34-23-28-35 15-27 34 6 51 18 52 37 0 13-44 7-67-10z" transform="matrix(.1 0 0 -.1 -12.015172 167.570217)"/></svg>