<svg height="82.065473pt" preserveAspectRatio="xMidYMid meet" viewBox="0 0 64.384352 82.065473" width="64.384352pt" xmlns="http://www.w3.org/2000/svg"><path d="m446 1230c-51-3-81-10-84-17-2-7-10-13-17-13-24 0-92-80-110-128-10-26-23-54-30-62-18-20-28-158-16-211 13-58 32-70 98-64 46 5 53 3 53-13 0-10-6-26-13-37-12-17-12-36-1-115 20-154 16-148 87-155 34-4 87-4 117-2 30 3 61 6 68 6 6 1 11 6 10 13-2 7 8 13 20 14 13 1 36 10 50 21 29 22 30 28 36 182 4 91 8 101 44 101 62 1 84 48 61 135-5 22-12 54-14 70-6 49-22 93-44 124-12 16-21 32-21 36 0 5-13 21-30 37-16 15-30 32-30 37 0 34-93 50-234 41zm34-141c0-5 9-9 20-9s20 5 20 10c0 6 14 10 31 10 44 0 36-32-9-35-38-3-37-3-46-32-6-19-2-23 28-28 19-4 55-3 80 3 26 5 46 6 46 1 0-18-37-44-65-47-17-2-36-9-44-17-12-12-12-17 2-38 16-25 16-25-26-31-50-8-64-8-141 0l-59 6 5 62c7 78 29 121 74 144 36 18 84 19 84 1zm225-169c10-16-3-29-24-23-12 3-17 11-14 19 6 16 29 19 38 4zm-121-214c-4-23-10-58-14-79-4-20-4-39 0-42 4-2 5-16 3-29-4-21-12-25-55-31-27-4-54-3-59 2-16 16-41 175-29 187 14 14 86 32 127 32 32 0 33 0 27-40zm66 24c0-11-4-20-9-20-14 0-23 18-16 30 10 17 25 11 25-10zm-14-147c-11-11-17 4-9 23 7 18 8 18 11 1 2-10 1-21-2-24z" transform="matrix(.1 0 0 -.1 -18.398057 123.239169)"/></svg>