<svg height="75.687622pt" preserveAspectRatio="xMidYMid meet" viewBox="0 0 90.161869 75.687622" width="90.161869pt" xmlns="http://www.w3.org/2000/svg"><path d="m698 964c-3-3-32-12-65-21-80-21-162-63-182-93-9-14-24-34-34-45-34-38-64-100-71-147-4-26-11-50-17-53-16-10-10-33 10-40 11-3 21-13 23-22 2-12 20-16 73-20 85-5 99-9 91-28-5-15 39-206 55-236 4-9 22-16 40-17 18 0 36-7 40-14 6-10 45-13 151-15 228-2 248 13 228 168-13 96-10 119 15 119 9 0 30 7 47 16s42 17 55 19c41 4 62 35 65 90 1 30-3 50-10 53-7 2-12 11-12 21 0 28-130 144-192 171-13 6-39 20-58 31-19 12-39 22-45 24-5 1-17 5-25 8-24 9-145 37-161 37-9 0-18-3-21-6zm182-157c129-43 206-111 198-177-3-21-9-25-40-28l-38-3v39c0 35-3 40-27 45-20 4-37-3-67-27-23-17-46-38-53-46-15-20-125-18-176 3-33 14-37 19-27 36 14 27-18 97-43 95-9-1-14 2-11 7 9 15-23 10-36-6-10-12-8-22 9-51 30-50 21-67-29-62-22 2-40 0-40-3 0-4-9-5-20-2-22 6-28 33-6 33 7 0 19 7 26 15 10 13 10 19-4 34-15 17-15 20 5 45 11 15 42 38 67 51 44 24 55 25 157 21 61-2 130-11 155-19zm-26-348c6-6 6-13-2-21-28-28-8-58 39-58 32 0 22-52-11-57-112-17-227 31-161 67 16 8 18 17 14 51l-6 42 59-8c32-3 63-11 68-16zm-5 318c-22-10-25-16-18-34 12-32 84-33 94-2 5 14 1 25-12 34-22 17-30 18-64 2z" transform="matrix(.1 0 0 -.1 -32.010604 97)"/></svg>