<svg height="154.862268pt" preserveAspectRatio="xMidYMid meet" viewBox="0 0 102.380867 154.862268" width="102.380867pt" xmlns="http://www.w3.org/2000/svg"><path d="m475 1850c-16-4-56-17-87-29-32-12-65-21-74-21-11 0-14-5-10-16 5-13 2-15-16-11-73 20-161-106-162-233-1-74 77-258 129-305 12-11 25-29 29-40 8-26 65-65 109-75 45-10 96 12 122 52 11 17 39 44 61 60 41 30 42 30 70 12 55-36 103-87 109-114 4-16 12-33 19-39 16-13 3-119-19-164-8-17-15-36-15-43s-11-25-25-40-25-32-25-39c0-6-12-22-26-36-37-34-84-109-84-134 0-12-3-25-7-29-8-8-9-13-12-41-1-21-17-19-41 5-23 23-50 17-43-11 7-26-28-26-52 1-34 38-64 14-45-36 18-48 14-54-39-54-61 0-81-7-81-30 0-38 95-74 169-64 33 4 56 3 65-5 10-8 21-8 40-1 35 13 36 13 36-4 0-18 31-30 40-16 5 8 9 6 13-4 11-29 30-18 24 14-7 34 6 39 35 13 14-13 23-14 42-5 22 10 24 8 29-17 4-19 14-31 29-35 52-14 55-11 54 66-1 40-5 76-11 80-6 5-5 8 2 8 13 0 103 131 103 149 0 6 5 11 11 11 16 0 99 82 99 98 0 7 4 11 9 7 10-5 51 45 51 63 0 6 5 12 12 14 20 7 38 90 38 179 0 124-12 181-63 287-6 13-22 35-34 48-13 14-23 29-23 35 0 5-6 9-12 9-7 1-33 21-58 45-25 25-51 45-57 45-7 0-13 6-13 13 0 8-12 24-26 38-51 47-77 101-91 189-8 47-17 88-21 92-15 14-98 40-126 40-16-1-38 5-49 13-23 16-55 18-102 5zm71-122c4-7 3-8-4-4-18 11-27-63-9-77 16-13 29-65 18-72-4-2-6-21-5-42 1-22-5-45-14-56-21-24-10-31 16-9 48 42 69 211 28 234-44 25 10 39 60 16 25-12 26-15 21-66-3-29-11-60-17-67-6-8-9-24-5-35 5-15 0-29-13-43-11-12-34-49-51-82-18-33-42-71-55-85s-31-39-41-57-23-29-28-26-19 0-32-7c-20-10-26-9-44 9-16 16-20 28-15 44 5 12 8 25 9 28 0 4 12 19 28 34 15 15 27 34 27 41s6 19 13 26c13 15 18 31 21 65 0 13 5 23 10 23 4 0 6 7 2 15-3 8-2 15 2 15s13 24 20 53c12 53 7 101-9 91-5-3-9 4-9 15 0 18 12 25 57 30 6 0 15-4 19-11zm-86-58c4-15 1-30-7-38-7-8-11-17-8-22 3-4-2-21-10-36-8-16-15-37-15-46s-5-20-10-23c-6-4-8-10-5-15 3-4-2-13-10-20s-15-20-15-29-13-28-29-41c-15-14-26-31-24-37 6-16-9-17-25-1-17 17-15 69 4 82 9 7 16 25 15 42-3 113 3 131 63 186 37 34 68 33 76-2zm345-320c3-5 0-19-7-31-10-17-10-23 0-26 6-3 12-9 12-14 0-15-49 24-50 39 0 6 5 12 10 12 6 0 10 7 10 15 0 17 16 20 25 5zm120-75c30-29 30-35 7-66-10-13-21-32-25-41-3-10-13-18-21-18-10 0-13 6-10 15 4 8 1 15-5 15s-11 5-11 12c0 6-8 20-17 31-17 18-17 20 5 37 12 10 22 23 22 29 0 19 30 12 55-14zm86-117c0-7 2-25 4-40 2-19-2-29-13-33-30-10-73-55-70-73 6-31 38-25 73 13 37 38 57 40 47 3-3-14-2-19 6-14 7 4 12 4 12-1 0-15-15-28-35-30-11-1-42-8-70-16-41-12-49-18-49-38 0-19 5-24 36-27 20-2 39 2 43 7 9 16 25 13 25-3 0-28-57-58-102-54-37 3-43 0-46-17-2-13 7-26 24-36l26-16-26-26c-14-14-26-31-26-37 0-7-10-9-27-6-16 3-35 2-43-4-13-8-13-13 2-38 13-22 15-31 5-41-9-9-9-14 3-21 13-8 10-14-14-35-36-31-44-31-56 0-9 23-29 33-42 19-11-11 17-77 39-91 33-22 30-45-4-37-45 11-63 23-63 44 0 11-3 20-7 20-5 0-13 11-20 25-6 14-8 23-5 21 4-2 23 28 42 68 19 39 43 77 52 84 10 7 18 20 18 28s7 17 15 20c8 4 13 9 10 13-2 5 9 18 26 30 16 12 27 26 24 31-3 4-1 10 5 12s11 18 13 36c1 17 5 32 9 32 6 0 30 90 32 124 1 12-3 24-8 28-16 11 24 48 51 48 12 0 32 9 43 20 23 23 40 26 41 8zm-499 261c-7-11-10-24-7-29 3-4-5-17-18-27-22-17-47-53-47-67 0-17 19-1 36 29 10 19 22 35 25 35 15 0 39 51 32 65-7 12-11 11-21-6zm507-836c-22-6-99-77-99-91 0-7-7-12-15-12-9 0-21-12-28-27-6-16-15-30-18-33-4-3-9-14-11-25-2-17 3-20 32-21 25 0 36-5 38-17 2-11-3-17-15-18-14 0-12-3 6-10 32-13 40-3 47 60 7 68 15 89 51 127 15 16 29 40 31 52s2 21 0 21c-2-1-10-3-19-6zm79-71c-16-10-28-22-28-29 0-6-5-13-11-15-7-2-13-17-15-32-3-28-2-28 11-9 8 11 27 26 43 32 24 10 52 46 52 66 0 10-26 3-52-13z" transform="matrix(.1 0 0 -.1 -12.619133 185.844265)"/></svg>