<svg height="141.595561pt" preserveAspectRatio="xMidYMid meet" viewBox="0 0 206.111454 141.595561" width="206.111454pt" xmlns="http://www.w3.org/2000/svg"><path d="m1270 1681c-14-4-45-17-70-29-67-30-100-35-119-18-33 29-145 28-231-1-8-3-28-7-45-9-73-9-110-27-145-70-39-49-72-64-141-64-26 0-51-5-54-10-3-6-17-7-29-4-14 3-29 0-37-9-8-7-20-12-27-9-6 2-12-1-12-7s-6-11-13-11c-8 0-19-11-25-25s-17-25-24-25c-21 0-66-100-76-165-9-63-7-202 3-244 7-29 32-50 59-51 12 0 16-5 12-15-6-18 27-38 52-31 9 3 51 8 92 11 72 6 77 5 100-20 13-14 30-25 37-25 8 0 11-5 8-10-3-6 1-13 9-16 9-3 16-12 16-19 0-8 8-21 17-31 9-9 19-25 20-36 2-11 9-25 16-33 8-7 22-53 32-101 10-49 22-93 26-99 5-5 9-19 9-32s4-23 8-23 8-16 8-35c0-33-17-48-30-26-3 5-17 11-30 13-20 4-25 0-29-21-7-34 24-68 75-81 58-16 76 0 76 69 0 31-3 60-6 66-3 5-7 23-9 40-6 55-42 189-63 232-11 23-20 47-20 52 0 6-6 14-14 18s-15 11-15 16c-2 21-36 57-55 58-20 0-20 1-2 8 19 7 19 8-3 30-27 27-23 34 30 51 41 14 42 13 65-14 14-15 22-31 19-36s4-25 15-45c11-19 20-42 20-50s9-24 19-34c11-11 17-22 14-24-2-3 0-14 5-24 6-10 11-31 13-48 2-16 6-34 10-40 3-5 9-21 13-35 3-14 24-45 46-68 22-24 40-52 40-62s3-26 7-36c6-18-2-17-80 2l-28 6 17-36c13-26 24-36 41-36 16 0 23-6 23-19 0-20 18-31 66-38 43-6 55 12 43 65-5 24-6 48-3 54 4 6 10 24 14 42 5 17 18 64 29 103 12 40 21 84 21 98 0 17 7 28 23 34 20 7 22 15 23 79 0 39 5 77 11 84s13 27 16 43c9 56 39 105 64 105 26 0 28-8 9-35-14-22-25-61-30-115-5-45-20-109-57-236-34-120-39-216-12-254 10-14 23-38 28-55 7-20 18-31 32-33 21-3 23 0 21 38-1 23 4 45 10 49s13 35 16 70c4 64 12 84 24 64 13-20 47-3 61 30 24 55 56 95 108 137 59 47 82 52 55 12-52-75-72-109-72-120 0-6-11-28-25-48s-25-44-25-53c0-18 48-51 74-51 13 0 76 78 76 94 0 9 31 44 91 105 69 69 81 79 124 97s74 7 119-41c19-19 41-35 50-35s16-6 16-13c0-17 30-34 74-42 20-4 38-11 41-15 2-4 32-3 66 2 52 7 67 14 98 46 45 46 70 78 54 68-16-9-17 6-2 21 6 6 12 17 13 24 2 8 6 25 9 39 11 43 14 110 5 110-4 0-3 8 3 18 12 19 5 92-9 92-4 0-16 19-27 41-10 23-38 57-62 78-43 37-48 52-42 136s-58 221-92 199c-5-3-9 2-9 10 0 18-42 48-62 45-7-1-29 5-49 14-45 20-126 10-195-25-53-26-63-22-112 43s-72 89-88 89c-8 0-24 9-36 20-49 45-158 71-218 51zm-260-149c-1-12-27-42-32-37-2 3-18-13-34-35s-33-41-39-43c-5-2-48 15-93 39-79 40-82 43-61 54 18 10 23 9 31-4 5-9 18-21 29-27 26-13 59 13 59 47 0 21 5 23 53 26 51 3 87-5 87-20zm374-1c16-9 36-20 45-25 18-10 71-81 71-96 0-6 5-10 12-10 6 0 8-3 5-7-4-3-1-16 6-27 24-37 49-202 33-215-21-16-86-32-98-24-19 11-40 13-57 3-11-6-29 2-62 26-26 19-49 34-51 34s-2-15 0-34c5-41-7-46-75-36-28 5-77 9-109 9-31 0-61 4-66 9-15 15-28 167-18 202 5 16 7 30 4 30-2 0 4 17 15 39 11 21 17 42 13 45-3 4 1 4 9 1 11-4 18 1 22 15 3 12 10 19 16 15 7-4 2-16-14-32-17-19-23-37-22-62 2-31 6-36 28-38 21-1 31 8 58 52 22 37 31 60 26 74-7 22-29 28-40 11-4-6-11-8-16-4-14 8-1 24 21 24 10 0 20 5 22 10 2 6 26 12 53 14 28 3 61 9 75 15 28 11 51 6 94-18zm-554-19c-7-3-19 3-28 13-16 15-15 16 12 4 15-7 23-15 16-17zm747-94c-3-8-6-5-6 6-1 11 2 17 5 13 3-3 4-12 1-19zm343-5c11 3 20 0 20-6 1-7 15-21 32-32 42-26 72-79 74-129 3-52-2-59-29-42-12 8-43 17-69 21-36 5-48 11-48 23 0 10-9 25-20 35-20 17-22 16-45-7-16-16-25-36-25-57 0-22-8-37-27-53-41-32-127-85-132-81-2 2 7 21 20 42s25 47 27 58c5 26 6 123 1 154-3 21 2 27 41 42 85 34 135 45 147 36 7-5 22-7 33-4zm-1316-38c13-13 22-14 57-5 46 13 71 2 51-22-14-17-4-65 15-72 8-3 23-1 33 4 15 8 24 2 54-40 40-56 47-90 17-90-10 0-38-3-63-6-44-6-46-5-56 25-11 30-13 32-49 25-21-4-44-11-50-17-18-14-16-74 2-81 22-8 18-23-11-42-19-13-54-19-133-22-124-4-128-2-138 76-4 40-1 60 17 99 24 51 76 113 95 113 6 0 20 8 31 19 27 25 75 50 96 51 9 0 24-7 32-15zm1006-340c-23-25-60-34-60-15 0 10 72 51 79 44 3-2-6-15-19-29zm-705-1c15-10 37-14 56-12 38 6 44-4 60-102 15-91 18-168 8-195-4-11-15-46-24-77-14-50-19-56-31-44-8 8-14 21-14 28s-9 40-19 73c-40 122-71 251-71 298 0 26 2 47 5 47s17-7 30-16zm1046-8c1-6 0-21-1-33-2-26 33-63 59-63 22 0 51 25 51 45 0 7-8 16-17 20-15 6-13 9 11 16 30 8 66-3 66-21 0-6 6-10 14-10 24 0 49-51 48-98 0-24-3-46-6-50-4-3-20 5-38 18-17 12-27 17-23 10 6-10 4-12-8-7s-17 1-17-13c0-11-4-20-10-20-5 0-10-16-10-36 0-28 3-35 15-31 8 4 17 2 20-3 4-6 17-10 31-10s23-4 20-9-14-7-24-4c-12 3-22-4-30-22-11-23-14-24-34-14-13 7-34 13-47 14-14 0-27 7-29 14s-12 20-21 28c-15 13-16 20-6 61 9 35 9 49 1 54-15 10-48 10-42 0 3-5-3-15-13-24s-21-22-23-29c-8-23-36 14-40 52-2 21-8 33-15 32-7-2-13 4-13 12 0 18-12 19-27 4-10-10-63-3-63 9 0 11 83 83 114 99 61 32 105 35 107 9zm-841-25c0-15-28-52-31-40-11 49-9 59 11 59 13 0 20-7 20-19zm362-9c7-10 28-27 46-37 42-25 42-56 0-101-18-19-36-34-41-34-32 0-190-143-175-158 7-7 3-17-11-31l-20-20 6 32c3 18 17 55 30 82 14 28 34 82 45 120 10 39 28 85 39 103 10 18 19 40 19 48 0 20 46 18 62-4zm-179 486c-16-8-23-20-23-40 0-15-3-28-7-29-5 0-19-2-33-5-24-4-24-3-6 11 11 8 15 15 9 15-19 0-44-31-39-49 3-9 8-29 12-46 9-41 22-55 49-55 29 0 40 39 24 87-13 39-4 55 33 58 30 2 46 29 29 49-15 18-18 19-48 4zm40-165c-14-3-23-12-23-22 0-23 25-45 42-38 7 2 21-2 30-11 14-11 21-12 32-3 16 13 15 26-2 59-12 22-29 25-79 15zm-210-39c-19-8 6-53 33-60 12-3 32 0 44 6 19 10 20 13 7 33-14 21-58 32-84 21zm-584 26c-11-6-14-19-11-39 7-47 49-52 70-7 19 42-17 70-59 46zm-78-153c-6-6-11-25-11-42 0-25 6-33 30-42 35-13 48 1 46 51-1 23-7 31-28 37-15 4-31 2-37-4zm885-735c-2-4-3-31-2-60 3-58 21-81 45-58 16 17 23 64 10 72-5 3-9 14-9 26 0 14-5 18-16 14-8-3-12-2-9 4s2 10-4 10c-5 0-12-3-15-8zm-766-52c0-6-18-7-44-4-37 6-46 3-55-14-8-16-6-25 14-46 30-33 76-32 107 1 18 19 20 27 10 48-11 25-32 34-32 15zm970-10c-1-8-3-27-5-42-4-32 10-45 30-28 20 16 19 30-5 60-14 17-20 20-20 10z" transform="matrix(.1 0 0 -.1 -21.604402 168.785809)"/></svg>