<svg height="84.638656pt" preserveAspectRatio="xMidYMid meet" viewBox="0 0 92.307366 84.638656" width="92.307366pt" xmlns="http://www.w3.org/2000/svg"><path d="m635 1037c-118-12-165-24-165-42 0-9-10-15-22-15-30-1-49-16-80-65-40-65-60-136-50-181 5-22 9-42 10-46 1-5 2-12 2-17s21-12 48-16c59-9 75-21 62-46-18-33-4-156 27-239 3-8 8-24 10-34 2-11 8-25 14-33 9-10 6-15-12-22-48-17-88-22-107-12-11 6-46 15-78 21-90 17-121 21-104 14 8-4 19-13 23-20 4-8 16-14 25-14s26-7 36-15c11-8 29-15 40-15 17 0 18-2 6-10s-11-10 8-10c12 0 31-5 42-12 15-10 31-9 77 1 32 7 76 15 98 16 152 11 225 19 225 26 0 5 11 9 25 9s25 4 25 9c0 13 183 25 206 13 11-5 34-12 52-15 27-6 33-4 30 9-4 22-83 52-147 57-28 2-54 6-57 9s-6 68-7 144l-2 138 27 15c16 9 28 19 28 24 0 4 11 12 24 17 20 7 25 17 28 62 4 52-7 98-23 98-5 0-6 7-2 16 10 26-36 100-73 118-18 8-52 29-75 46-46 33-48 33-194 17zm189-152c12-16 28-45 36-63 12-30 11-35-6-53-20-19-41-27-101-36-32-5-33-4-33 29 0 19 4 38 9 44 5 5 5 33-2 67-9 48-8 60 3 67 18 11 65-16 94-55zm-184 11c6-19 10-61 9-93-2-32 1-67 6-77 7-17 5-18-21-12-16 4-45 9-64 11s-46 7-60 11-31 6-38 5c-8-1-24 5-38 14-36 23-31 58 13 94 52 43 62 41 52-11-11-60-12-58 15-58 39 0 55 24 52 78s7 72 39 72c18 0 26-8 35-34zm195-276c-3-5-11-10-16-10-6 0-7 5-4 10 3 6 11 10 16 10 6 0 7-4 4-10zm-210-63c11-7 45-19 75-27 30-7 64-19 76-27 20-13 44-71 44-106 0-51-164-67-218-22-26 22-29 31-31 91-1 38-5 72-8 77-6 10 15 27 32 27 6 0 19-6 30-13z" transform="matrix(.1 0 0 -.1 -18.572878 104.726886)"/></svg>