<svg height="119.591939pt" preserveAspectRatio="xMidYMid meet" viewBox="0 0 84.684856 119.591939" width="84.684856pt" xmlns="http://www.w3.org/2000/svg"><path d="m885 2031c-40-25-116-107-146-156-22-38-24-50-25-210-1-93 2-192 7-220 17-111 39-195 60-237 13-23 23-47 23-53 1-5 7-21 15-34 11-21 18-23 54-17 112 18 133 16 107-10-8-8-7-19 0-39 6-15 8-42 5-59l-6-31-91-3c-91-3-134-14-123-33 4-5-1-16-9-25-21-20-20-43 0-51 9-3 61 0 115 8 81 12 108 13 147 2 64-16 139-16 197 2 27 8 52 12 57 9s17 1 26 9c9 9 49 21 87 27 39 7 80 18 92 26s31 14 41 14c37 0 60 55 27 65-8 3-23 8-32 12-10 3-47 7-82 7-63 1-64 1-68 31-3 17-4 39-4 49 0 11-9 30-20 44-25 32-24 39 4 48 12 4 41 20 64 35 23 16 48 29 56 29s19 6 25 13c9 10 15 140 13 261-1 40-44 170-62 186-3 3-15 25-28 50-34 68-46 89-70 114-11 12-21 28-21 34 0 7-8 16-17 19-10 4-27 15-37 25-11 10-40 25-65 34s-55 20-66 24c-11 5-65 11-120 14-87 6-104 4-130-13zm212-130c12-14 22-29 23-32 0-4-23-9-50-13-41-5-53-12-62-32-19-41-1-47 82-30 68 14 75 14 86-2 8-9 14-19 14-22s-29-18-65-34c-59-26-65-31-65-58 0-28 2-30 28-23 15 3 44 18 64 32 47 32 103 37 103 8 0-13-8-21-23-23-13-2-32-17-43-35-23-38-24-47-4-47 8 0 15 5 15 10 0 6 7 10 15 10s23 9 33 20c24 26 37 12 41-42 2-33-1-39-26-50-41-17-63-38-63-60 0-26 23-32 58-14 27 14 31 14 36 0 9-24-2-34-40-34-30 0-35-4-40-30-4-16-9-31-13-31-3-1-21-3-40-5-56-7-168-43-182-60-20-24-52-38-82-36-17 2-30-4-33-13-4-8-9-15-13-15-10 0-39 61-45 95-2 17-10 53-16 80-14 62-21 293-11 358 9 55 51 108 81 100 10-3 27 0 38 6 16 8 24 6 42-14 29-31 52-21 76 34 13 31 21 37 38 33 11-3 31-17 43-31zm164-48c13-17 13-17-6-3-11 8-22 16-24 17-2 2 0 3 6 3s17-8 24-17zm69-80c0-13-3-13-15-3-8 7-15 16-15 21s7 6 15 3c8-4 15-13 15-21zm-150-638c0-8-7-15-16-15-26 0-74-33-74-51 0-27 40-30 82-7 45 25 54 20 42-24-9-30-15-34-72-47-39-9-66-11-72-5-5 5-11 41-12 79l-3 70 35 6c65 12 90 10 90-6zm-350 620c-17-20 3-45 36-45 12 0 25-4 28-9 9-14 76 10 76 26 0 17-59 43-98 43-16 0-35-7-42-15zm-23-202c-3-3-3-11 0-19 10-27 93-12 93 17 0 8-86 10-93 2zm47-177c3-12 6-24 6-28 0-5 25-8 55-8 46 0 55 3 55 18 0 33-15 41-68 40-49-1-53-3-48-22z" transform="matrix(.1 0 0 -.1 -71.386981 204.695408)"/></svg>