<svg height="155.379636pt" preserveAspectRatio="xMidYMid meet" viewBox="0 0 147.258084 155.379636" width="147.258084pt" xmlns="http://www.w3.org/2000/svg"><path d="m680 1954c-90-14-160-54-225-126-22-24-54-60-71-79-39-43-85-79-102-79-8 0-10-8-6-27 4-14 7-38 8-51 1-14 8-28 16-32 45-21 56-29 71-56 9-16 26-47 38-68 20-35 21-42 9-70-7-17-13-69-13-116 0-76 4-92 32-150 18-36 44-83 57-105 14-22 30-49 35-61 5-11 20-33 34-50 13-16 30-40 37-54s21-31 32-38c10-7 18-19 18-26s18-36 40-64c22-27 40-55 40-61s5-11 10-11c6 0 10-9 10-19 0-11 5-23 10-26 6-3 10-11 10-16 0-6-5-7-12-3-6 4-8 3-4-4 7-12-12-112-26-129-15-18-1-32 31-31 19 1 32 8 39 22 23 50 32 79 27 84-2 3 0 11 6 19 9 10 8 13-5 13-14 0-15 4-6 20 9 17 7 28-10 55-12 20-25 33-29 31-4-3-5 8-3 25 2 16 0 29-4 29-5 0-15 12-21 28-7 15-34 54-61 87s-49 64-50 68c0 5-11 21-24 36-14 15-25 34-25 42 0 9-14 36-31 62-18 25-32 50-32 56s-4 11-8 11c-11 0-30 40-47 98-21 67 3 182 61 295 8 16 14 35 14 43s4 14 9 14 16 6 23 14c11 11 23 11 60 3 64-15 68-37 17-88-21-21-39-48-39-59 0-10-7-23-16-28s-16-23-16-43c0-19-5-40-10-46-6-7-12-34-14-60-2-27-4-55-6-63-7-39 16-148 39-185 14-22 62-76 108-120 94-90 132-152 146-238 5-32 15-67 22-78 9-15 9-23-1-39-6-11-12-27-12-35s-5-15-12-15c-6 0-4-7 5-18 10-10 14-22 10-25-3-4 5-7 19-7 30 0 63 33 54 56-3 8-3 21 1 27 19 31 18 187-2 230-6 15-10 16-17 5-7-9-8-7-3 8 3 13-1 26-10 34-8 7-15 18-15 26 0 7-6 19-12 26-19 20-38 51-45 71-3 10-12 16-20 13s-11-2-8 3-4 16-15 24c-11 7-17 17-14 20 4 3-5 20-20 37-14 17-26 36-26 41 0 6-7 17-15 25-19 19-36 84-38 143-2 48 13 75 42 78 49 4 104 14 113 19 5 3 20 7 34 9 14 1 38 11 52 22 42 31 61 34 82 16 11-10 20-23 20-29s12-23 27-38c24-24 32-26 77-22 28 3 77 12 109 20 32 9 73 16 91 16 40 0 80 41 71 71-4 11-2 19 4 19s11 7 11 15 4 15 9 15c15 0 43-51 38-71-3-10-1-21 4-25 5-3 2-19-7-35-8-17-13-33-10-36s-15-45-40-93c-31-62-57-98-89-125-25-20-45-43-45-50 0-8-9-19-20-25s-20-15-20-20c0-8-57-97-70-110-16-15-40-62-40-78 0-11-6-38-14-60-15-42-13-50 35-102 13-14 14-19 3-26-22-15 12-74 42-74 29 0 29-3 4 70-31 92-32 120-4 180 26 56 75 124 112 153 12 10 20 22 17 27s2 15 11 22c51 42 104 98 104 111 0 23 19 31 26 12 4-9-1-24-10-34s-16-22-16-28-7-16-15-23-15-23-15-35c0-13-6-25-14-28-20-8-78-153-80-201-2-31-7-43-23-51-30-13-34-37-17-101 8-30 14-57 14-59 0-3 10-5 23-5 28 0 47 18 40 36-3 8 0 20 6 28 6 7 14 42 17 77 6 73 75 226 125 280 16 17 29 37 29 45s7 14 15 14c9 0 21 12 28 28 6 15 14 29 18 32 3 3 12 16 19 29 11 22 11 23-6 17-11-4-6 4 11 18s26 25 22 26c-5 0-2 12 7 28 8 15 24 56 37 91 18 51 20 67 11 82-7 10-12 27-12 36 0 10-9 24-21 31-19 12-20 15-5 31 9 10 16 25 16 34 0 8 9 19 20 22 22 7 27 25 8 25-7 0-3 7 8 15 37 25 57 80 49 137-6 40-15 58-45 88-96 96-208 160-282 162-178 4-276-21-330-85-34-40-49-28-57 45-1 10-77 43-155 67-69 22-149 32-196 25zm262-174c26-24 34-40 14-27-3 1-15-8-28-19-13-12-34-27-47-34-21-11-22-13-7-28 8-9 30-21 48-26 31-11 33-13 35-65 1-29 4-59 7-67 8-21-13-28-33-10-10 9-22 16-28 16-5 0-18 9-28 20s-23 20-29 20-16 9-21 21c-9 19-54 48-100 64-11 4-40 7-65 6-74-3-154-1-173 5-16 5-16 7 0 35 10 16 23 29 29 29 7 0 25 6 41 14 43 21 90 34 173 47 41 6 82 15 90 20 34 19 88 10 122-21zm500-15c9-21 8-27-6-38-14-10-15-18-7-40 8-21 8-27-3-27-13 0-31-30-39-67-3-15 0-23 9-23 8 0 14 6 14 14 0 7 9 16 20 19s20 14 20 24 9 26 20 36c11 9 20 27 20 39 1 58 34 61 68 6 15-26 15-28-2-41-11-8-16-19-13-24 4-6-16-29-43-52-28-24-48-47-45-52 4-5-2-12-12-15-36-12-69-30-111-61-24-18-50-33-59-33-8 0-27-8-41-18-35-24-107-46-125-39-14 5-15 60-4 237 4 55 42 118 77 127 14 3 30 9 35 14 6 4 42 13 80 19s71 13 74 16c2 2 17 4 33 4 21 0 32-7 40-25zm230-191c3-3-5-16-18-29s-24-34-24-47c0-31-15-52-30-43-18 11-4 65 27 97 27 28 35 32 45 22zm-1184-57c2-18-1-27-11-27-15 0-30 37-21 52 10 17 29 2 32-25zm309-14c22-21 54-49 72-62 24-19 28-27 20-37-6-8-20-14-31-14-10 0-29-6-41-14-12-7-41-16-64-19-34-4-43-2-43 10 0 24 31 83 41 77 5-3 10 5 10 18 2 32 2 31-6 56-9 30-4 28 42-15zm744-130c11-29 2-110-13-119s-22 4-10 19c11 13 10 47-3 100-9 36 12 36 26 0zm-21-191c0-13-12-22-22-16s-1 24 13 24c5 0 9-4 9-8zm-782-467c-3-3-9 2-12 12-6 14-5 15 5 6 7-7 10-15 7-18zm572 1030c0-8 4-15 10-15 5 0 7 7 4 15-4 8-8 15-10 15s-4-7-4-15zm-42-66c-30-42-36-69-15-69 15 1 67 74 67 95 0 27-24 15-52-26zm64-29c-34-63-31-71 18-42 23 14 27 21 18 30s-9 12 0 12c8 0 11 12 10 30-1 17-5 30-8 30s-21-27-38-60zm80-1008c3-11 2-41-2-68-12-78 18-121 50-71 20 31 21 48 6 79-10 19-11 29-3 37s8 11-1 12c-7 1-16 3-22 4-5 1-13 3-17 4-5 1-1 6 7 11 13 8 12 10-4 10-13 0-17-5-14-18zm-391-141c-22-31-27-46-12-36 5 3 12 1 15-4s-1-12-10-15c-8-3-12-10-9-16 9-14 48-13 63 2 24 24 9 98-19 98-4 0-17-13-28-29zm-441-26c-7-8-20-15-30-15-13 0-16-6-12-25 4-25 26-34 37-15 4 6 10 8 15 5s11-1 15 5c3 5 15 10 26 10 14 0 19 7 19 25 0 21-5 25-29 25-16 0-34-7-41-15z" transform="matrix(.1 0 0 -.1 -27.386987 195.592217)"/></svg>