<svg height="128.791498pt" preserveAspectRatio="xMidYMid meet" viewBox="0 0 128.470312 128.791498" width="128.470312pt" xmlns="http://www.w3.org/2000/svg"><path d="m1098 1580c-16-8-28-21-28-27 0-7-5-13-11-13-16 0-38-64-45-132-3-35-8-66-10-69-3-6 21-100 32-124 2-5 15-28 28-50 23-38 23-42 9-75-29-68-54-166-59-234-2-38-7-73-10-78-8-13-44-10-48 5-2 6-9 37-16 67s-16 60-20 65c-4 6-13 28-20 50-16 50-49 120-77 165-12 19-29 55-39 80s-28 62-42 84c-13 21-25 46-27 57-7 36-64 144-93 176-34 37-95 65-132 61s-74-78-74-145c0-57-4-59-64-54-54 5-129-47-136-94-1-8-5-17-8-20-3-4 7-30 22-58 22-42 38-57 81-79 47-24 66-27 144-27 50 0 113-5 140-10 62-12 96-13 93-3-2 4 1 9 6 12 8 5 71-100 96-160 5-14 14-32 20-40 20-32 49-98 65-150 10-30 22-63 27-74 6-12 6-22 0-28-9-9-170-34-294-47-15-2-8-51 7-51 8 0 15-4 15-10 0-5-7-10-15-10s-15-7-15-15 1-15 3-15c1 0 38 7 81 15 44 9 136 18 205 21s144 9 166 14c21 5 44 5 50 0 11-9 185-9 185 0 0 4 11 13 25 20s25 20 25 27 7 16 16 20c18 7 34 42 27 61-3 6-16 12-28 12-13 0-26 4-29 8-6 10-86 5-121-8-15-6-29-9-30-8-10 13-24 131-19 163 22 162 34 205 59 205 8 0 15 4 15 9 0 6 10 9 23 9 59-4 75 4 135 63 36 36 66 76 73 97 6 21 15 42 19 47 8 10 14 73 11 106-1 18-53 58-84 65-35 8-75 6-113-6-42-14-64-1-64 39 0 68-78 122-132 91zm-521-131c12-19 31-46 43-61s19-32 16-37c-3-4 6-30 19-57 27-52 31-74 15-74-5 0-10-9-10-21 0-18-5-21-37-17-21 3-45 8-54 12-10 4-23 1-33-9-12-13-20-14-30-6-8 7-23 8-46 1-24-7-38-6-48 3-8 6-25 10-37 9-13-2-25 3-28 12-4 9-15 16-26 16s-27 10-35 22c-15 20-14 24 6 45 28 30 86 31 118 3 13-11 33-20 45-20 13 0 28-6 34-14 18-21 73-26 94-8 26 23 21 50-13 71-36 21-84 85-93 121-5 17 0 31 15 47 19 20 24 22 42 10 12-8 31-29 43-48zm564 19c10-13 19-32 19-43s7-29 15-39c8-11 15-34 15-50 0-17 4-37 9-44 11-19 59-5 66 19 4 11 24 39 45 62 33 35 40 39 46 24 4-11 17-17 35-17 28 0 29-2 29-46 0-33 3-43 13-39 6 4 0-4-15-17-16-13-28-30-28-38-1-19-24-50-38-50-6 0-20-12-31-26-16-20-31-27-72-30-49-5-53-3-85 31-63 69-85 122-85 201 0 74 13 124 32 124 6 0 19-10 30-22zm282-65c-7-2-19-2-25 0-7 3-2 5 12 5s19-2 13-5zm-218-884c-17-5-100-14-185-20-215-15-224-15-322-17-51-1-88-6-88-12 0-13 62-39 75-31 6 3 90 7 187 8 98 1 182 4 187 7 5 4 12 3 15-2s27-7 53-6c26 2 60-1 75-7 24-10 31-8 58 19l30 31-27 19c-22 14-35 17-58 11zm-201-158c3-5 0-8-7-8-6 1-49-2-94-6-60-6-83-12-87-24-4-9-4-18-2-20 8-8 228 21 244 33 22 16 6 34-29 34-17 0-28-4-25-9z" transform="matrix(.1 0 0 -.1 -20.739949 158.923108)"/></svg>