<svg height="144.593581pt" preserveAspectRatio="xMidYMid meet" viewBox="0 0 120.177125 144.593581" width="120.177125pt" xmlns="http://www.w3.org/2000/svg"><path d="m575 1720c-83-30-135-57-135-70 0-6-5-10-11-10-16 0-67-57-93-104-28-52-50-130-42-152 3-9 9-39 12-67 7-71 10-76 32-70 14 3 170-53 200-73 2-2-1-18-6-36-6-18-13-77-16-131s-8-102-10-106c-3-4-8-38-11-77-4-38-9-82-11-99-3-16-6-69-7-117-2-80 0-88 19-97 16-7 20-16 17-35-3-14-7-26-10-26-8 0-42 44-43 55 0 6-9 16-21 23-16 10-24 10-35 1-15-12-11-44 11-91 8-15 16-41 20-58 6-30 51-70 77-70 7 0 19 9 26 20s18 20 26 20 16 7 20 15c8 22 25 18 38-10 6-14 18-25 27-25 14 0 14 2 1 10s-13 11-1 19c11 7 10 10-5 14-16 4-17 5-1 6 21 1 24 53 3 70-8 7-14 26-14 42 1 18-8 39-23 55-14 15-19 28-13 32 5 4 22 39 37 77 18 47 43 88 77 125 27 30 50 58 50 62 0 5 5 8 10 8 6 0 27 17 48 38 68 68 210 115 325 109 42-3 55-10 102-52 30-27 62-67 72-87 10-21 22-38 26-38 5 0 6-4 3-9-10-15 5-41 23-41 13 0 13-2 2-9-9-6-10-11-2-15 14-9 15-182 1-191-6-3-10-13-10-21 0-24-41-78-79-103-31-21-48-24-126-25-108-1-172 16-184 47-5 13-16 29-25 36-12 10-14 17-5 27 6 8 15 11 20 8 17-10 9 6-22 40-29 34-30 36-14 65 8 17 13 31 10 31-4 0 9 15 28 33 20 18 55 38 82 45 43 11 49 11 61-5 7-10 19-26 26-37 8-10 12-31 10-46-3-22-13-32-43-44-22-9-46-16-54-16-22 0-18-23 7-45 37-32 51-34 99-9 48 24 89 82 67 95-7 4-6 8 2 11 25 8 1 75-43 124-38 41-48 47-92 50-54 4-132-26-143-55-3-9-18-28-33-43-33-33-49-97-50-198 0-41-1-93-1-116-1-70 42-132 57-82 4 13 13 26 19 30 8 6 7 8-1 8-7 0-13 11-13 25 0 35 17 31 25-6 13-58 109-77 277-55 33 5 59 14 62 22s12 14 20 14c21 0 86 61 86 82 0 10 5 18 11 18s9 6 6 13c-2 6 0 20 4 29 6 10 5 19-1 23-16 10-12 21 14 33 21 9 24 20 31 87 6 70 5 80-14 106-12 15-21 32-21 38 0 21-45 91-59 92-11 0-12 2-3 6 18 7 15 16-18 54-79 91-129 119-228 126-88 6-210-30-259-76-12-12-26-21-31-21-9 0-44-26-79-59-27-26-40-23-24 6 16 31 23 114 10 129-7 9-8 14-1 14 6 0 9 25 8 65-1 37 1 68 4 70 4 3 45 7 91 11 81 6 127 22 133 47 2 7 8 27 14 45s6 32 1 32-9 15-9 33-8 48-18 67c-9 19-24 55-31 80-16 50-39 85-97 146-84 88-142 103-249 64zm105-100c12-8 11-13-8-33-25-26-30-77-8-77 8 0 18 5 21 10 3 6 16 10 29 10 12 0 27 5 33 11 15 15 33 3 33-21 0-10 6-23 14-27 7-4 19-26 26-48 7-21 22-47 33-56 13-10 18-22 14-32-9-24-48-22-54 3-6 22-18 26-28 9-4-6-20-9-35-7-19 2-41-6-62-22-47-35-151-34-232 3-55 25-56 27-51 61 11 87 50 136 150 186 84 42 100 46 125 30zm7-182c-13-45-9-49 33-45s70 21 70 43c0 8-8 14-19 14-10 0-32 3-48 6-26 5-31 2-36-18zm44-857c-19-12-23-161-4-168 8-3 12-12 9-20-4-10 1-9 18 4 19 14 24 26 22 53-2 19-4 51-5 71-1 43-20 72-40 60zm-474-160c-3-12 3-27 14-37 10-9 19-21 19-26 0-12 18-30 51-52 25-15 27-16 33 0 4 10-1 22-11 30-10 7-14 14-10 14 5 0 1 7-7 16-9 8-14 19-11 24 6 9-46 50-63 50-5 0-12-9-15-19z" transform="matrix(.1 0 0 -.1 -25.644161 174.035541)"/></svg>