<svg height="139.735901pt" preserveAspectRatio="xMidYMid meet" viewBox="0 0 176.82262 139.735901" width="176.82262pt" xmlns="http://www.w3.org/2000/svg"><path d="m1127 1643c-57-33-117-119-144-205-14-44-22-56-33-52-64 28-125 36-182 24-49-11-65-20-96-55-43-50-77-114-89-170-8-37-10-39-48-40-47-1-140-48-164-83-9-14-26-35-38-48-35-38-71-115-98-209-13-46-15-74-8-120 7-56 11-61 43-77 30-14 49-15 143-6 98 9 110 8 128-8 10-9 19-22 19-28s6-22 13-36 12-54 12-90v-64l-92-2c-50-1-101-8-113-14-11-6-49-11-83-10-104 2-122-2-125-29-4-25 15-44 35-36 7 2 13 0 13-5 0-14 29-12 97 5 38 9 91 13 156 11 53-2 99 0 102 4 5 8 50 4 66-6 4-2 10 0 14 6 3 5 17 10 29 10 13 0 30 7 37 16 11 14 28 15 120 9 61-4 109-3 112 3 5 7 179 7 310-1 21-2 41 1 44 6s14-1 25-13c16-17 30-21 67-19 51 2 119-9 126-21s98-1 106 12 49 19 49 7c0-11 49-21 71-14 28 9 21 49-9 53-13 2-30-2-38-9-13-10-17-10-24 0-4 8-35 15-76 18-116 7-114 6-111 62 2 31 11 58 25 76 12 15 22 33 22 40 0 6 9 20 20 30 12 10 18 25 16 32-3 7-1 13 4 13 4 0 11 14 15 30s9 30 13 30c18 0 138-34 146-41 30-27 142 2 169 44 18 28 23 202 6 212-8 6-8 10 2 16 11 6 10 12-4 27-9 10-17 24-17 30 0 7-4 12-10 12-5 0-10 7-10 16 0 8-7 22-15 30-8 9-15 24-15 35 0 10-3 19-8 19-4 0-13 13-20 28-6 16-31 39-53 52-36 20-50 22-107 17-36-4-70-11-76-17-5-5-17-10-26-10-8 0-26-6-40-14-93-51-160-86-163-86-9 0-14 76-6 97 5 12 33 36 64 54 30 17 55 34 55 39 0 4 12 11 27 15 34 8 83 43 83 58 0 24-36 97-47 97-7 0-13 9-13 20s-4 20-10 20c-5 0-10 5-10 11s-10 24-22 39c-13 16-34 45-48 64-14 20-30 36-37 36-6 0-13 4-15 8-1 4-20 21-41 36-30 23-50 29-105 33-59 3-73 0-115-24zm93-78c0-8-12-20-26-28-22-12-24-15-10-26 12-10 22-10 52 1 20 7 39 19 41 25 7 18 24 16 52-6 19-15 22-21 12-39-6-11-27-30-46-42s-35-28-35-36c0-20 27-29 44-15 9 7 17 8 20 3 3-6-1-15-9-22s-15-20-15-30c0-19 26-35 35-21 2 5 18 11 34 13 23 3 28 1 23-11-9-25-45-61-59-61-7 0-21-4-31-9-35-17-121-41-148-41-21 0-39 11-62 35-17 20-33 39-33 43-17 92-7 153 35 230 29 52 30 52 78 52 35 0 48-4 48-15zm167-125c-13-22-37-34-46-24-3 4 0 9 7 11 6 3 12 21 12 41l1 37 19-23c16-19 17-27 7-42zm-522-142c-4-13-18-34-30-48-25-26-50-80-37-80 14 1 37 26 49 53s33 37 33 16c0-5 5-7 10-4 6 4 8 10 5 14-8 13 21 45 34 37 8-6 9-12 2-20-6-7-9-15-6-18 3-2-9-17-25-33-22-21-30-38-30-62 0-38 17-44 25-10 3 12 19 31 35 42s33 28 38 39c8 18 10 18 35-10 15-16 27-33 27-38s-30-40-67-78c-64-66-143-118-179-118-9 0-31-7-50-16-38-18-48-14-50 19-1 12-9 49-18 82-21 78-20 113 4 171 31 71 51 84 132 84 67 0 69-1 63-22zm250-198c3-5 1-10-4-10-6 0-11 5-11 10 0 6 2 10 4 10 3 0 8-4 11-10zm160-17c12-28 18-134 18-313-1-113 3-168 11-173 8-6 8-10-2-14s-10-8-2-19c8-9 9-26 2-58-5-25-7-57-5-71 5-23 3-25-27-21-42 5-49 18-38 69 24 113 30 331 14 525-7 78-6 92 7 92 8 0 18-8 22-17zm-133-25c0-13 2-27 3-33 11-68 17-170 16-255-1-155-10-330-16-341-10-15-31-10-50 11-14 16-15 23-6 34 7 8 10 20 7 25-4 5-2 12 4 16s8 43 5 103c-2 53-5 97-5 97-3 0-10 33-20 89-6 32-15 67-20 77-16 29-12 45 15 57 16 8 23 17 19 27-4 9 1 21 10 28 12 9 16 23 13 50s0 37 9 37c8 0 15-10 16-22zm-574-17c12-11 22-22 22-25 0-4-20-15-44-26-72-30-73-87-1-76 17 2 40 7 51 11 16 5 23 2 27-15 4-16-1-24-19-32-13-6-24-15-24-20s-15-15-32-23c-33-13-33-14-9-22 33-13 110-7 130 10 9 8 32 18 51 21 100 19 94 20 109-16 8-18 15-41 16-50 1-10 8-25 15-33 8-9 15-48 16-88 5-98 5-100 11-117 3-8 6-39 7-68l2-52-35 6c-58 9-61 12-61 51-1 21-7 56-15 78s-15 52-15 66c0 15-7 32-15 39-10 9-12 17-5 30 19 35-7 130-35 130-9 0-14-4-11-9 4-5 3-17-1-26-5-15-15-17-60-12-30 3-53 2-53-4 0-5-4-9-9-9s-20-4-33-9c-34-13-33-12-93-26-64-15-124-13-135 6-21 33 33 202 82 258 32 37 60 55 103 64 34 8 39 7 63-12zm1210-9c40-35 40-49 0-82-23-19-30-32-25-45 6-15 15-17 52-12 24 4 46 3 49-1 10-17 14-62 6-57-10 6-24-3-58-37-36-36-96-38-205-10-63 17-70 28-64 97 11 115 38 148 135 165 73 12 75 12 110-18zm-740-32c-13-20-28-27-28-12 0 10 22 32 32 32 5 0 3-9-4-20zm-71-107c6-32 20-99 32-149 15-69 18-99 11-124-6-21-6-48-1-69 5-20 12-48 15-63 4-19 13-28 26-28 11 0 20-6 20-14 0-20-51-38-96-34-33 3-38 6-35 23 11 52 4 261-9 280-4 6-10 22-14 38-4 15-13 27-22 27-13 0-15 7-11 28 3 17 0 41-9 58-8 16-11 30-6 32 5 1 24 14 42 27 19 14 37 25 41 25 3 0 11-26 16-57zm566-208c16-11 15-15-13-53-16-23-30-45-30-48s-9-19-21-35c-17-25-25-44-44-109-1-3-5-18-10-33-5-18-12-26-21-23-7 3-20-2-29-10-13-14-15-13-15 5 0 12 5 21 11 21 5 0 7 5 4 10-3 6-2 10 3 10 6 0 8 17 5 40-3 22-1 45 4 52 6 7 15 28 22 47 9 27 8 36-1 42-8 5-3 10 14 14 22 6 27 14 33 50 6 43 7 44 38 38 18-3 40-11 50-18zm-883-64c0-11 4-22 9-25 5-4 12-24 16-46s11-42 16-46c5-3 9-18 9-33s5-32 12-39c8-8 5-14-17-22-15-6-30-8-33-5s-9 33-14 67c-5 35-13 65-19 66-7 3-6 8 1 17s4 20-11 40c-18 22-20 29-8 36 23 14 39 10 39-10z" transform="matrix(.1 0 0 -.1 -17.118127 166.792102)"/></svg>