<svg height="114.505475pt" preserveAspectRatio="xMidYMid meet" viewBox="0 0 116.667716 114.505475" width="116.667716pt" xmlns="http://www.w3.org/2000/svg"><path d="m1433 1939c-5-3-41-19-82-34-51-19-88-41-122-74-27-26-49-52-49-58s-7-16-15-23c-8-6-14-15-13-18 1-4-7-25-16-46-11-23-18-69-20-113-2-73-1-75 27-90 16-8 35-12 43-9s14 1 14-3c0-5 22-12 49-16 52-7 70-29 52-64-5-9-11-33-15-54s-16-43-26-50c-12-7-20-23-20-39 0-38-20-39-53-2-29 34-79 64-104 64-22 0-26 26-9 59 31 59 19 81-75 143-71 46-141 78-171 78-13 0-41-7-63-15s-63-14-91-15c-45 0-54-4-70-27-35-51-40-77-38-170 2-95 9-117 56-167 10-11 18-25 18-32 0-29 134-37 175-10 13 9 31 13 39 10 9-3 16-2 16 3s25 23 56 38c55 28 57 28 71 9 8-10 16-29 20-42 3-12 18-36 34-53s29-37 29-44 7-18 16-25c24-21 44-78 37-111-7-36-7-36-73-44-30-3-59-10-64-16-6-6-6-9 2-9s9-7 2-24c-18-48 1-51 218-37 378 24 403 27 425 57 39 53-5 82-125 83-38 1-68 3-68 5 0 3 5 17 11 33 6 15 13 72 14 125 2 54 7 112 11 130s8 67 9 108l1 75 29-3c53-6 110 8 137 33 15 14 32 25 38 25 18 0 30 47 31 128 3 141-1 159-45 225-58 87-103 115-183 114-34 0-66-4-70-8zm125-126c42-47 61-100 51-141-9-41-58-92-88-92-11 0-31-5-44-11-21-9-30-8-54 10-25 19-34 20-58 11-37-14-109-3-130 20-15 17-15 21 9 67 38 72 65 99 126 123 30 12 64 26 75 30 43 18 88 11 113-17zm-712-358c19-14 19-14-2-15-26 0-38-25-24-51 11-20 60-27 60-9 0 6 7 10 15 10s15 5 15 10c0 6 5 10 10 10 6 0 10-10 10-23 0-22-43-57-70-57-7 0-24-8-38-19-36-25-101-61-110-61-21 0-70 179-55 203 8 14 28 7 52-19 30-31 55-28 59 9 3 22 8 27 31 27 15 0 36-7 47-15zm628 365c-25-10-38-26-30-39 9-14 45-1 56 20 12 22 2 29-26 19zm28-70c-15-24-8-40 17-40 20 0 44 23 47 46s-49 17-64-6zm-25-76c-4-4-7-17-7-30 0-12-6-25-12-27-7-3 3-6 23-6 19-1 40 4 47 11 17 17 15 48-2 48-8 0-21 2-28 5-8 3-17 2-21-1z" transform="matrix(.1 0 0 -.1 -56.520502 194.687971)"/></svg>