<svg height="113.386632pt" preserveAspectRatio="xMidYMid meet" viewBox="0 0 86.892974 113.386632" width="86.892974pt" xmlns="http://www.w3.org/2000/svg"><path d="m710 1964c-87-39-104-52-151-110-71-90-89-134-89-228 0-77 12-175 31-248 7-26 19-43 39-53 38-20 70-19 155 6 39 10 84 22 101 25l30 6-6-53c-3-32-15-66-27-84-14-19-25-54-30-95-9-75-25-86-68-46-31 29-82 43-98 27-6-6-11-44-11-83 0-114 46-188 76-122 9 18 9 33 1 53-11 30-1 61 20 61 7 0 18-14 24-30s18-30 27-30 16-4 16-10c0-14 46-12 58 3 6 6 13 29 17 50 4 20 11 39 15 42s24-15 45-40c25-31 44-45 60-45 25 0 28 4 81 112 11 21 25 37 33 35 15-2 17-79 5-192-6-65 5-83 41-67 16 7 25 19 24 30-5 33 12 62 39 68 15 3 38 10 51 15 32 13 44 0 43-49-1-27 4-42 15-46 19-8 33 1 33 21 0 9 8 22 18 29 14 11 15 15 3 23-8 5-12 18-8 30 4 15 0 21-11 22-11 0-12 2-4 6 30 12-6 63-45 63-12 0-40-11-64-25-49-27-62-20-48 28 5 17 6 40 3 53-3 12 2 36 11 54 10 20 14 42 10 61-6 28-9 29-42 23-20-4-50-20-66-36-36-34-47-27-52 36-2 26-11 58-19 71-9 14-16 33-16 44s-4 23-10 26c-5 3-10 14-10 24 0 14 11 20 45 26 73 10 165 59 165 86 0 17-23 80-40 110-5 9-6 26-3 38 7 27-15 81-33 81-8 0-14 9-14 20s-11 27-25 36-25 21-25 27c0 18-49 75-78 91-56 31-77 37-141 41-47 3-76 0-101-11zm125-102c61-21 121-65 141-104 13-25 13-28-1-28-19 0-30-43-16-68 11-21 48-35 56-21 3 4 12 6 19 3 17-7 39-55 29-64-20-16-184-62-207-58-18 4-32-2-47-18-13-13-30-24-39-24s-25-7-36-15c-10-8-31-15-46-15s-29-4-32-9c-7-10-56-2-73 12-7 5-13 17-13 27 0 13 9 17 43 16 37-1 42 2 39 19-2 11-12 29-23 40-16 16-23 18-38 8-25-16-29-4-25 72 8 121 20 146 93 204 42 33 57 38 63 19 3-7 14-9 31-4 15 3 25 11 22 16-8 14 2 12 60-8zm-230-113c-4-12-2-26 3-31 6-6 8-17 5-24-3-9 2-14 16-14 13 0 26 12 37 32 15 30 15 32-2 45-26 19-52 16-59-8zm195-20c-10-35-9-44 4-57 13-14 19-14 41-2 30 16 34 59 7 83-29 26-40 20-52-24zm-33-96c-14-4-17-13-15-41 3-38 2-38 63-33 25 2 28 28 8 55-18 26-24 27-56 19z" transform="matrix(.1 0 0 -.1 -47.021677 197.639382)"/></svg>