<svg height="236.85794pt" preserveAspectRatio="xMidYMid meet" viewBox="0 0 147.636477 236.85794" width="147.636477pt" xmlns="http://www.w3.org/2000/svg"><path d="m1177 2634c-3-4-17-8-29-10-39-5-142-47-162-66-11-10-25-17-30-17-44 5-69-13-182-135-30-32-62-72-70-87-8-16-18-29-22-29-5 0-16-35-27-77-10-43-22-82-25-88-4-5-12-24-18-42-8-25-8-34 4-44 9-8 12-23 8-48-3-20-8-51-11-69-7-43 18-99 69-154 21-23 38-45 38-48 0-4 14-13 30-20 17-7 30-14 30-17 0-10-37-75-85-148-29-44-56-91-60-105s-20-42-36-62-29-45-29-55-9-36-20-58-31-96-45-165-32-150-41-180c-25-92-8-426 24-450 4-3 8-19 10-37 3-30 1-32-35-38-21-3-47-10-58-14-11-5-58-8-104-9-84 0-84 0-86-26 0-21 5-28 25-33 14-4 33-6 42-5 10 0 20-3 22-6 3-4 60-6 128-4s146 4 173 5c73 1 392-12 448-18 29-4 47-2 47 5 0 5 11 10 25 10s25-5 25-12c0-14 208-4 224 12 5 5 21 10 36 10 19 0 22 2 10 10-8 5-11 12-7 16 3 4 13 2 20-5 17-14 47-4 47 14 0 19-22 24-122 29-96 5-107 8-107 34 0 19-9 94-11 102-1 3-1 19 0 36 1 18-4 35-10 39-12 7-12 83 1 100 7 10 7 25 9 185l1 76 42 13c29 9 43 9 45 2s33-11 73-11c62 0 76 4 122 34 70 45 93 71 132 153 8 17 19 34 23 37 5 3 9 13 8 23-2 26-35 83-47 83-6 0-7 5-4 10 4 6 0 22-9 35s-16 33-16 43c0 19-8 29-94 122-46 50-117 100-142 100-8 0-14 6-11 13 2 6 19 12 38 12 36 1 89 22 89 37 0 4 5 8 10 8 17 0 80 65 80 82 0 9 7 21 15 28s20 31 27 54c7 22 23 56 36 74 13 17 21 32 17 32s-3 6 2 13c12 14 13 24 15 125 0 42-4 78-10 84-8 8-8 17-1 30s5 32-6 63c-8 25-15 53-15 61 0 30-71 159-104 189-18 17-46 49-61 73-15 23-33 42-40 42s-32 9-56 19c-44 19-154 27-143 10 3-5 0-9-5-9-6 0-11 5-11 10 0 11-53 14-63 4zm225-94c14-7 28-23 31-36 3-20 0-24-18-24-12 0-28-7-35-15-10-12-9-15 8-15 25 0 89-76 120-143 28-60 41-147 23-147-15 0-41 25-41 39 0 13-26 27-67 34-36 7-47-11-13-20 11-3 20-9 20-14s11-15 25-21 24-17 21-24 2-15 10-18 14-11 14-18 7-26 15-42c16-30 11-76-9-76-6 0-22 14-36 31-24 29-78 65-86 57-7-8 47-78 57-73 5 4 8 3 7-2-2-4 7-18 20-30 35-36 25-123-14-123-8 0-12 5-9 11 8 13-23 49-42 49-7 0-23 16-34 35-27 45-52 49-36 5 6-16 15-30 19-30s15-14 24-32 23-38 31-46c17-18 13-47-7-47-8 0-24 16-37 35-12 19-33 47-46 62-13 14-27 37-30 50-4 14-21 36-38 49-18 13-50 41-73 61-22 21-48 41-58 44s-18 12-18 20-10 14-24 14c-24 0-44 30-32 49 3 4-12 27-34 49-30 30-45 39-61 35-14-4-25 0-31 11-8 14-21 17-66 14-47-2-57 0-60 14-3 15 5 17 66 16 38 0 75 3 83 8s38 9 66 9c29 1 48-2 42-6-6-3 4-9 22-11 25-4 29-3 17 6-8 6-13 16-11 23 2 6-11 16-30 22-38 13-97 11-97-2 0-5-9-7-21-4-13 3-28-2-40-14-17-17-19-18-20-1 0 10-3 12-6 5-7-18-23-16-23 2 0 8 3 15 8 15 4 0 20 11 36 25 27 23 35 25 96 20 86-7 103-11 128-26 11-7 27-9 38-5 18 8 18 8-1 16-12 4-27 15-34 24s-21 16-31 16c-13 0-17 5-13 21 5 17 11 19 36 13 26-5 29-4 23 11-5 14-2 17 19 12 34-6 117 12 109 24-3 5-3 13 0 17 8 13 117 7 148-8zm-512-312c-13-5-30-6-37-4-7 3-13 2-13-3 0-7-48-31-94-45-10-4-16-12-13-20s-5-18-19-25c-31-14-31-14-38 5-3 8-2 12 4 9s10-1 10 6c0 13 41 59 53 59 4 0 26 9 50 19 55 26 78 30 102 18 18-10 18-10-5-19zm65-2c18-13 18-14-8-9-15 3-27 9-27 14 0 13 13 11 35-5zm73-44c6-19-13-14-33 8-18 20-18 21 5 12 13-5 26-14 28-20zm-85-81c9-7 21-10 27-6 16 10 59-44 54-68-5-29-22-37-54-25-24 8-38 27-44 63-3 14-29 7-44-13-7-9-12-26-11-37 5-64-1-96-17-93-9 2-22 12-28 23s-15 23-21 27c-5 4-6 10-3 14 9 8-9 44-21 44-5 0-13-13-19-28-20-58 40-157 88-145 22 6 27-9 7-25-7-6-14-23-15-37-1-15-8-36-16-47-14-20-14-20-21 1-3 11-20 30-36 42-17 12-28 27-25 35 3 7 1 16-5 19-19 13-39 79-40 138-2 55 1 62 27 81 69 51 178 70 217 37zm35-167c40-20 49-34 22-34-12 0-28-6-36-14-12-13-11-17 11-34 21-17 24-26 20-57-5-45-20-65-49-65-12 0-27-5-34-12-9-9-15-9-23-1s-7 17 5 34c9 13 16 42 16 66 0 23 5 45 10 48 6 4 9 19 8 33-2 24 7 52 16 52 2 0 17-7 34-16zm146-29c3-9 0-15-9-15-8 0-15 7-15 15s4 15 9 15 11-7 15-15zm94-132c12-25 19-50 15-54-5-4-47-13-95-21l-88-15 6 26c16 66 60 109 114 110 20 1 29-8 48-46zm-319-156c-15-31-32-50-51-56-34-12-47 3-25 27 9 9 25 39 37 66l21 50 20-21 20-20zm359-34c2-7-3-13-12-13-23 0-36-33-27-66 8-31 21-33 126-23 31 3 40 0 43-13 3-15-4-18-32-18-32 0-36-3-36-25 0-23 3-25 48-25 26 0 53 5 60 12 10 10 19 5 42-21 34-37 36-44 14-62-13-10-17-10-24 0-9 16-80 7-80-10 0-6-9-8-20-4-23 7-27-7-5-25 11-9 21-9 46 4 37 18 49 20 49 6 0-5-14-17-31-25-22-12-29-22-27-38s-2-22-14-21c-10 1-18-2-18-7 0-18 42-8 95 21 50 28 55 29 70 13 32-32 41-93 14-93-5 0-9-6-9-13s-26-17-67-25c-37-7-70-17-73-21-3-5-30-12-60-16s-75-14-100-23c-33-12-85-16-200-16-139-1-160 1-202 21l-48 22-2-22c0-12-2-29-2-37-2-28 40-94 65-101 13-4 51-7 84-8l60-1-2-110c-1-65 2-110 7-110 6 0 10-4 10-10 0-5-6-10-14-10-17 0-18-12-17-179l1-123-28 6c-15 4-34 8-42 10-8 3-29 5-46 5-27 1-31 4-31 29 0 16-12 45-26 64-15 19-27 40-27 46 0 7-5 12-12 12-6 0-8 3-5 7 4 3 2 12-5 20-6 8-12 24-13 36-4 68-18 126-27 120-7-4-8-1-3 7s9 68 11 134c1 78 8 136 17 163 9 22 13 44 10 47s0 12 7 21 10 18 7 22c-3 3 0 18 8 33s12 30 8 33c-3 3 9 23 26 44s31 43 31 51c0 7 9 31 20 52 21 40 40 52 40 25 0-11 11-15 38-15 44 0 76 27 66 54-7 18-20 21-29 6s-78-13-71 3c3 6 9 19 12 28 3 8 25 24 48 34 35 16 41 22 29 30-9 7-13 23-11 40 3 32 23 40 127 50 23 2 46 6 49 10 11 11 105 0 110-12zm-448-81 22-18-32-68c-24-48-40-70-59-77-64-22-80-52-36-69 25-9 25-11 12-37-8-16-20-40-27-55-8-16-21-28-30-28-10 0-17-10-18-30-1-17 3-30 9-30 13 0 3-113-12-142-10-19-79-26-79-8 0 6 5 10 11 10s9 9 6 20 1 39 8 63 11 64 8 90c-4 31-2 47 6 47 6 0 11 11 11 23 0 13 23 61 50 107 28 46 49 89 46 96s6 20 20 28c13 9 24 23 24 30s7 19 15 26c9 7 14 19 11 27-7 18 8 16 34-5zm345-597c-16-8-42-14-57-15-24 0-26-3-19-27 5-21 15-29 34-31 15-2 27 1 27 7s9 11 21 11c17 0 20-5 17-37-3-34-7-39-40-48-47-13-52-19-44-50 5-20 11-24 29-20 56 13 61-38 5-53-23-6-33-14-33-28 0-16 6-19 37-16 41 3 46-7 40-84-4-38-5-40-32-36-29 4-29 4-17-27 7-18 18-30 27-28 10 1 16-7 18-26 3-27 3-27-45-21-26 3-61 0-77-6-38-14-44-6-23 30 10 16 17 41 18 57 0 43 8 373 10 421l2 42 66-1c64-1 65-1 36-14zm-536-52c14-29 25-167 12-159-6 4-20 4-31 1-15-5-19-13-15-32 7-39 22-50 46-35 12 8 22 12 23 10 7-10 29-98 32-126 1-18 7-38 12-45s11-22 14-34c5-17 0-23-19-28-33-8-45 2-38 34 4 20 0 35-15 52-11 13-18 17-15 8s-1-21-9-28c-17-14-9-51 11-51 8 0 11-4 8-10-9-15-22-12-44 11-17 18-22 39-37 159-2 14-6 37-10 53-4 17-2 27 5 27 6 0 11 6 11 14s5 16 10 18c15 5 15 131 0 136-7 3-6 10 6 23 21 24 31 24 43 2zm186-452c3-5 1-12-5-16-5-3-10 1-10 9 0 18 6 21 15 7zm28 850c-8-23-8-31 3-35 16-6 86 4 100 15 6 5 14 6 17 3 4-4 1 5-6 20-10 22-18 26-57 26-41 0-47-3-57-29zm54-98c-32-3-50-9-54-20-14-36 74-58 124-30 21 12 22 14 7 35-8 12-18 21-22 20s-29-3-55-5z" transform="matrix(.1 0 0 -.1 -21.537069 263.997239)"/></svg>