<svg height="95.175903pt" preserveAspectRatio="xMidYMid meet" viewBox="0 0 70.32779 95.175903" width="70.32779pt" xmlns="http://www.w3.org/2000/svg"><path d="m341 1105c-63-23-131-76-131-102 0-7-4-13-10-13-5 0-10-6-10-14s-3-16-7-18c-5-2-20-28-35-58-36-72-59-244-39-293 7-18 19-57 27-87s16-55 17-57c2-1 32 2 67 7 36 5 68 6 71 2 4-4 10-41 13-82 4-41 10-86 13-98 5-23 3-24-42-21-67 4-81-18-40-61 25-27 36-31 72-29 23 2 45 0 49-4s16-4 28-2c12 3 84 7 162 8 160 2 180 10 170 61-4 16-15 38-25 47-12 11-17 26-14 39 3 11 1 26-5 33s-7 26-3 47c7 34 1 87-13 121-5 12 2 20 26 29 18 7 43 22 56 33 12 11 22 17 22 12s11 2 24 14c20 19 23 30 20 72-2 27-8 58-14 69-5 10-10 28-10 39 0 12-4 29-9 39-5 9-26 53-47 96-27 54-49 86-71 100-18 12-33 26-33 32 0 19-95 54-157 59-44 3-73-2-122-20zm-21-236c-2-40-4-103-4-139l-1-65-32-3c-21-2-40-13-53-29-11-14-22-24-25-22-2 2-6 29-9 59-10 94 30 220 81 258 15 12 32 20 37 19 5-2 8-37 6-78zm145-468c0-68-4-95-13-99-15-5-34 10-38 30-23 111-25 143-10 154 9 6 26 11 38 10 21-1 22-5 23-95zm185 49c0-5-7-7-15-4-8 4-15 8-15 10s7 4 15 4 15-4 15-10z" transform="matrix(.1 0 0 -.1 -10.164932 112.552821)"/></svg>