<svg height="136.827969pt" preserveAspectRatio="xMidYMid meet" viewBox="0 0 141.98153 136.827969" width="141.98153pt" xmlns="http://www.w3.org/2000/svg"><path d="m1280 1664c-41-18-80-52-80-70 0-7-27-42-59-77-72-76-86-117-58-164 10-18 23-33 27-33s13-13 18-30c11-29 12-30 69-25 32 3 73 2 91-1 31-6 33-9 28-35-10-50-44-114-77-147-18-18-36-32-40-32-11 0-56-84-78-148-29-80-42-155-42-238l-1-72-31 2c-22 1-32-4-33-14-1-8-3-19-4-25-1-5-2-18-1-28 3-23-14-22-39 3-28 28-34 26-54-19-11-27-22-38-32-34-7 3-14 9-14 13 0 17-50 59-64 54-23-9-74 48-92 100-16 47-15 50 35 102 36 39 63 110 62 167-1 64-8 83-57 143-23 29-43 43-66 47-135 21-161 28-182 54-25 33-26 63-3 75 9 4 25 12 35 18 9 5 38 21 63 34 52 28 67 58 40 85-19 19-35 51-32 65 8 37-60 134-96 136-7 0-13 3-13 8 0 10-178 3-216-9-40-12-77-53-98-108-19-49-33-190-21-218 4-10 9-31 11-48 10-76 69-101 141-60 50 30 69 31 83 5 6-11 17-20 24-20 8 0 19-13 26-30 10-25 20-31 69-40 84-18 152-40 167-55 22-22 16-72-13-118-51-78-62-109-62-177-1-43 6-79 19-107 11-25 15-45 9-48-5-4-7-11-3-16 3-6 3-21 0-35-8-32-37-31-99 1l-47 26-10-26c-6-15-10-31-10-36s-6-9-14-9c-18 0-36-23-42-54-4-23 0-27 26-32 16-4 30-10 30-15s9-9 19-9c11 0 26-7 35-15 23-23 69-19 81 8 6 13 19 22 33 23 12 1 25 4 29 8 3 3 12 1 20-5 10-9 17-6 31 11 13 16 25 21 36 17 10-4 15-11 12-16-12-19 35-18 59 1 19 15 36 19 65 15 27-3 44 0 51 10 10 11 15 10 34-7 12-12 35-22 51-23 24-2 32 4 44 31 14 31 17 32 55 26 70-12 80-11 77 11-2 11-7 22-10 25-4 3-9 14-10 25-2 11-8 25-14 32-5 7-8 16-5 20s8 53 11 108c4 55 11 118 16 140s12 54 15 70c4 17 13 44 21 62 8 17 14 34 14 37 0 4 25 32 55 63s55 62 55 69 7 20 16 28c8 9 17 26 18 38 5 42 28 103 44 116 9 6 30 12 48 12 22 0 43 10 68 33l36 32-15 60c-9 33-24 72-35 86-10 15-22 38-25 51-9 37-63 88-119 114-60 28-60 28-106 8zm43-1015c-3-16-10-32-14-35-5-3-9-12-9-21s-18-35-40-59c-45-49-49-72-20-99 11-10 20-14 20-10 0 5 6 1 13-8 7-10 33-20 62-23 28-4 53-12 57-17 4-7 16-4 32 6 14 9 30 17 36 17 15 0 54 42 57 62 2 10-2 18-8 18-5 0-8 4-5 8 11 18-35 5-57-16-27-26-37-28-37-7 0 9-7 27-16 40-15 23-15 28 1 61 10 20 13 42 9 52-4 9-8 19-8 22-4 16-19 28-41 33-22 4-27 0-32-24z" transform="matrix(.1 0 0 -.1 -16.059428 167.80122)"/></svg>