<svg height="79.234349pt" preserveAspectRatio="xMidYMid meet" viewBox="0 0 74.987864 79.234349" width="74.987864pt" xmlns="http://www.w3.org/2000/svg"><path d="m770 1583c-24-4-125-37-165-53-11-5-29-11-40-14-28-8-77-55-95-91-8-16-17-32-20-35-11-10-31-63-41-108-5-26-18-65-29-87-25-55-17-103 19-112 14-3 40-13 56-22 17-9 38-18 48-21 14-4 20-16 22-51 1-25 12-72 24-105 30-80 66-99 172-90 41 3 94 6 118 6 30-1 47 4 56 17 11 14 16 15 26 6 9-9 19-9 45 2 18 7 35 11 38 7 3-3 7 6 8 19 0 13 2 31 2 39 1 8-6 23-14 32-12 14-16 38-15 107 1 73 5 93 22 115 20 25 41 37 28 16-3-5-2-10 2-10 5 0 14 9 21 20s21 20 32 20 20 5 20 11c0 5-4 7-10 4-16-10-11 7 5 19 14 10 14 16 0 62-8 28-23 62-34 75-10 14-31 46-46 72-26 48-83 106-136 140-28 18-29 18-29 0 0-11-3-14-8-7-9 14-49 22-82 17zm-86-169c9-3 16-17 16-30 0-26 8-28 93-24 50 2 56-3 32-27-25-24 1-80 32-68 6 2 28 7 47 11 32 5 36 4 36-15 0-11-3-21-7-22-5-1-26-3-48-5s-41-7-43-12c-12-37-32-47-105-50-64-4-83 0-121 19-50 24-59 46-23 51 14 2 22 10 23 23 1 31-3 33-41 25-33-7-56 2-36 14 5 3 12 17 15 31 9 36 37 65 63 65 12 0 25 5 28 10 7 12 17 12 39 4zm136-375c0-14 7-19 24-19 14 0 28 5 32 11 10 17 28-7 20-27-5-13-10-14-18-6-22 22-48-5-48-49v-40l-42 5c-24 2-66 7-94 11l-52 8-16 55c-18 63-14 76 23 69 14-3 55-2 91 2 75 8 80 7 80-20z" transform="matrix(.1 0 0 -.1 -36.552162 158.431288)"/></svg>