<svg height="147.466404pt" preserveAspectRatio="xMidYMid meet" viewBox="0 0 152.96695 147.466404" width="152.96695pt" xmlns="http://www.w3.org/2000/svg"><path d="m1055 1730c-53-9-102-30-150-66-16-12-52-34-80-49-27-15-54-31-58-35-5-4-38 3-74 16-77 28-162 31-219 9-58-23-149-69-152-77-2-5-13-8-24-8-27 0-115-95-129-139-6-20-24-58-39-86-37-70-41-101-30-234 9-110 12-121 58-210 63-124 87-139 199-122 87 13 93 10 93-49 0-19 4-62 10-94 5-33 6-64 1-70-14-18-25-106-18-146 5-28 41-80 56-80 8 0 23 8 33 17 18 16 21 16 47 0 39-23 59-21 63 5 2 13 11 24 20 26 12 2 16-1 12-11-8-21 15-32 32-15 8 8 23 29 33 48 27 50 36 46 37-15 1-30-3-55-7-55-5 0-9-6-9-14 0-10 8-13 22-11 31 6 38 16 43 61 7 48 29 74 47 56 10-10 10-14 0-21-8-5-13-11-13-15 1-3 1-7 0-8 0-2-1-20-2-41-2-32 1-37 19-37 15 0 26 10 34 30 7 17 16 30 20 30s10 9 13 20c7 28 27 25 27-3 0-13 3-26 6-30 9-9 74 25 74 39 0 18 49 32 93 26 37-4 38-5 22-28-9-14-13-29-10-34 9-15 46-12 65 5 16 14 21 14 53-5 31-18 41-20 75-11 22 6 45 18 51 25 19 22-6 53-49 60-21 3-51 20-74 40-20 19-47 38-58 42-20 6-21 11-13 113 4 58 8 124 9 147 0 22 7 48 14 56 8 10 10 26 6 42s-2 26 5 26c6 0 11 8 11 18 0 9 10 37 23 62s29 64 37 88l13 42h101c169 0 207 21 199 108-8 83-25 145-60 215-18 37-31 67-28 67s-3 17-14 38c-27 51-101 123-162 156-19 10-39 24-44 31-36 43-166 71-260 55zm65-182c0-15 5-30 10-33 6-4 8-10 5-15s-1-11 4-15c11-6 8-62-7-140-6-27-13-67-18-89l-7-38-50 6c-27 4-60 14-73 23-23 15-23 16-7 32 26 23 49 94 34 99-9 3-6 11 8 26 12 12 23 35 24 52 2 16 11 43 20 61 10 18 17 38 17 46 0 7 5 18 12 25 15 15 28-2 28-40zm135 7c22-25 32-46 33-72 1-20 7-52 13-71 8-25 8-36 0-41-7-5-10-33-9-73 2-91-18-123-70-113-21 4-46 9-57 10-14 1-20 9-20 28-1 15 3 27 7 27s8 15 8 33c0 58 7 96 20 112 9 10 11 31 6 68-4 28-7 59-8 67 0 8-5 21-11 28-8 10-7 16 4 23 27 17 51 9 84-26zm-266-31c-5-25-6-50-3-55s0-9-6-9-9-4-6-9c4-5 1-11-6-13-9-3-8-9 5-22 20-20 22-27 6-23-6 1-13-10-16-25-2-14-9-43-16-64-11-29-19-38-42-40-15-2-31-7-34-13-4-6-28-1-61 13-51 20-55 24-52 51 5 46 28 85 80 140 64 66 124 111 153 114 4 1 3-20-2-45zm408-51c35-45 69-113 100-203 29-82 29-90-2-90-14 0-25-5-25-11 0-8-4-8-15 1-8 6-19 9-24 6-5-4-27-4-48 0l-39 6 2 81c1 45 7 95 13 111 12 31-1 96-20 96-5 0-4 9 3 20 17 27 22 26 55-17zm-822-33c15-16 27-42 30-69 3-24 14-63 25-87 11-23 20-54 20-67s9-32 20-42 20-25 20-33 14-37 30-64c17-26 30-50 30-52 0-13-114-73-130-69-12 3-29 32-50 86-18 45-36 91-40 102s-16 65-26 120c-21 114-21 114-23 118-1 1-3 19-5 39-2 27 1 38 13 41 34 9 63 1 86-23zm97 15c3-3 3-17 0-30-5-26-32-35-32-11 0 8-3 21-6 30-4 11 0 16 13 16 11 0 22-2 25-5zm-246-85c7-36 14-81 17-100s10-48 16-63c6-16 11-41 11-56s6-36 14-46c8-11 12-24 9-30-2-7 3-18 11-25 9-7 14-16 11-20-3-5 4-32 15-61 12-29 17-55 13-59-13-11-114-50-130-50-10 0-5 11 15 35 29 35 29 36 15 83-8 26-19 56-23 67-24 57-37 122-45 220-1 22-7 65-13 95-11 62-2 83 32 78 17-2 23-14 32-68zm-128-50c2-14 8-29 13-34 5-6 9-33 9-61 0-29 7-74 15-101s18-82 21-122c7-73 6-74-22-98-44-35-69-31-101 18-26 38-28 48-26 137 2 119 15 214 32 235 7 8 10 20 6 27-9 13 13 30 35 26 8-1 17-13 18-27zm510-180c21 0 23-3 17-22-4-13-7-30-7-40 1-9-8-24-18-33-19-17-19-16-16 13 3 17-2 39-10 49-17 23-20 63-2 45 7-7 23-12 36-12zm127-40c3-5 1-17-4-27-13-23-31-79-41-123-21-93-31-149-35-195-12-125-18-165-26-170-4-3-6-12-3-19 3-8-1-37-10-65-9-30-11-53-5-56 16-10 10-23-9-19-12 4-18 16-19 42-1 37-38 159-54 176-4 5-4 17 1 26 6 10 3 52-6 110l-15 93 28 23c15 13 35 23 44 24 50 1 96 47 79 80-10 19-4 50 10 50 4 0 13 14 20 30 12 30 33 39 45 20zm206-112c-1-29-6-57-10-63-4-5-9-46-10-90s-7-98-13-120-11-86-12-143c-1-56-7-106-12-111-13-14-131-29-146-19-7 4-9 8-5 8s2 10-5 23c-14 25-18 87-6 103 5 6 4 23-1 38-8 19-5 41 10 88 11 35 20 77 21 93 1 29 2 30 48 27 33-3 50 1 59 12 8 9 20 16 28 16 12 0 12 3-2 16-15 15-17 15-30-2-8-11-15-14-15-7 0 6-12 13-27 15-26 3-28 7-27 43 0 22 7 54 15 70 12 25 21 31 61 35 26 3 50 9 54 13 20 20 29 4 25-45zm-513-214c1-25 7-72 13-105s10-61 8-63-19-7-36-11c-37-8-46 5-58 87-5 33-13 49-28 56l-22 11h23c16 1 22 7 22 25 0 21 27 38 71 45 4 1 7-20 7-45zm27-239c0-23-30-32-50-15-21 18-7 42 24 38 18-2 26-9 26-23zm402 447c-23-25-21-49 3-55 13-3 26 5 44 28 14 18 22 35 19 39-13 12-50 5-66-12zm-77-252c0-33 25-53 60-45 26 6 28 9 18 25-7 10-19 21-28 23-8 3-23 8-32 12-14 5-18 2-18-15zm30-176c0-10-6-14-15-10-22 8-18 0 8-17 19-12 26-12 40-2 10 7 15 19 11 29-8 21-44 21-44 0zm-739-101c-13-25-2-133 13-133 7 0 21 7 32 15 25 19 34 19 34 0 0-15 46-32 57-21 4 4 8 30 9 58 2 60-14 82-60 84-17 1-41 5-53 9-16 5-24 2-32-12z" transform="matrix(.1 0 0 -.1 -9.442774 173.465806)"/></svg>