<svg height="98.347183pt" preserveAspectRatio="xMidYMid meet" viewBox="0 0 81.138602 98.347183" width="81.138602pt" xmlns="http://www.w3.org/2000/svg"><path d="m552 1219c-53-44-64-59-78-105-8-30-13-58-9-64 3-5 1-19-5-30-16-30 2-52 52-65 32-8 42-14 40-28-2-11 4-17 17-17 29 0 34-15 33-106 0-46 4-100 9-119 16-56 6-69-73-100-95-37-119-30-131 40-4 28-10 57-14 65-3 8-6 31-6 50-1 19-5 38-11 42s-2 23 11 50c35 70 45 114 38 165-13 91-73 163-140 169-16 1-35 4-41 6-17 5-114-90-114-111 0-10-6-24-14-30-7-6-14-29-14-51 0-21-5-47-11-58-5-10-6-24-2-31 10-16 77-31 111-25 15 4 31 0 37-8 6-7 13-62 15-123l3-109-64-13c-64-13-90-32-91-65 0-26 73-47 178-51 60-3 97-9 102-16 14-24 170-5 170 20 0 10 71 22 150 24 96 3 152 15 178 38 29 27 27 37-9 66-28 22-37 23-99 17l-68-6 1 136 1 135 28 15c15 8 28 19 28 24 0 6 5 10 11 10 7 0 25 14 41 31 26 27 29 36 23 67-9 52-55 133-80 142-11 4-27 16-35 26-16 18-70 44-92 44-7 0-41-23-76-51zm88-97c0-18-28-45-38-38-18 11-14 34 6 39 28 8 32 7 32-1zm-435-170c-11-11-27 17-20 35 6 16 8 16 16-6 5-13 7-26 4-29zm560-483c-17-4-48-7-70-8s-53-8-69-16c-15-8-32-13-37-10-4 3-16 2-26-3-46-24-90-32-122-22-32 9-109 5-141-7-8-4-18-7-22-7-5-1-7-5-5-11 1-5 9-9 17-8 38 6 199 5 209-1 6-4 17-4 24 1 17 10 35 14 87 19 25 2 57 6 73 8 16 3 27 1 27-5 0-8 4-8 13 0 8 6 31 13 53 15 89 9 130 50 56 58-21 1-51 0-67-3zm-353-141c3-7 14-14 26-16 16-3 20 1 16 12-7 19-48 22-42 4zm79 3c-11-7-9-11 7-20 11-6 31-11 44-10 15 0 18 3 8 6-8 3-22 12-30 19-9 8-21 10-29 5zm119-16c-7-8-20-15-29-16s-1-5 17-9c19-4 45-5 60-1l26 7-24 17c-30 21-34 21-50 2z" transform="matrix(.1 0 0 -.1 -8.65288 127)"/></svg>