<svg height="120.537933pt" preserveAspectRatio="xMidYMid meet" viewBox="0 0 102.924805 120.537933" width="102.924805pt" xmlns="http://www.w3.org/2000/svg"><path d="m359 1407c-40-33-57-66-64-122-6-49-5-51 29-74 25-16 43-21 60-17 20 5 28 0 43-24 9-16 21-30 26-30s7-6 4-12c-2-7 2-20 9-28 7-9 15-32 17-53 2-20 9-42 15-50 6-7 12-37 13-67s9-65 17-78c14-21 13-25-6-44l-21-21-30 32c-42 44-80 54-120 30-17-10-31-25-31-34 0-26-33-85-48-85-39 0-92-24-92-42 0-10-4-18-9-18s-14-13-20-30c-5-16-7-30-3-30s8-37 8-82c1-46 5-97 9-115 5-22 2-42-9-63-11-24-13-36-4-49 12-20 62-41 96-41 11 0 23-3 25-8 3-4 34-6 69-5 34 0 83-3 107-8 54-12 274-15 291-4 7 5 11 4 8-1-17-27 209 2 256 32 10 7 25 10 32 7 9-3 14 2 14 12 0 11 5 15 14 12 16-6 56 64 56 97 0 10 10 27 22 37 13 12 16 19 8 19-10 0-9 4 3 12 17 14 31 128 15 128-5 0-6 4-3 10 9 15-44 79-71 86-17 5-24 13-24 32 0 14-11 39-24 57-28 37-119 87-142 78-14-5-15-1-9 28 5 19 9 43 11 54 1 11 3 21 4 23 2 1 3 6 4 11 0 5 4 13 9 17 4 4 7 15 7 25 0 36 22 66 58 79 39 14 50 23 70 58 10 18 10 28-2 56-14 33-53 69-66 61-4-3-13 2-20 10-52 63-165-77-117-146 15-21 14-70-3-94-4-5-8-32-9-58-2-45-7-62-33-107-19-34-20-42-8-50 11-7 11-11 1-24-17-21-51 0-51 32 0 12-7 25-16 29-8 3-19 16-24 28-6 17-20 24-53 29-51 8-82 35-74 66 3 11 1 20-5 20s-8 7-5 15c4 8 2 17-3 20-6 4-10 19-10 35s-4 31-9 34-12 22-15 41c-4 19-10 35-15 35-15 0-28 45-20 67 17 46-10 134-51 163-36 26-59 25-91-3zm51-97c0-5 6-10 14-10s18-4 21-10c4-6-6-7-27-3-40 7-42 9-33 22 8 14 25 14 25 1zm253-494c9-7 17-19 17-25 0-7 6-24 14-39s17-49 20-77c9-80 28-155 37-149 5 3 9 0 9-5 0-6 10-11 23-11 18 0 25 10 40 53 9 30 17 65 17 78s10 44 22 69c36 71 49 75 96 29 42-42 44-82 3-99-52-21-45-70 10-70 10 0 19-1 19-3 0-10-34-104-41-112-8-11-21-105-14-105 2 0 15 10 29 23 18 16 23 30 19 45-3 13-1 22 6 22s9 5 6 10c-3 6 1 10 9 10 9 0 16 7 16 15 0 9 7 18 15 21 10 4 13 13 9 26s1 24 13 33c25 20 30 18 35-9 5-23-33-133-50-145-4-4-20-23-35-44-23-30-34-37-61-37-23 0-36 6-41 17-3 10-1 19 4 21 19 6 12 49-11 65-22 15-22 16-4 30 10 8 16 19 12 25-10 17-43-6-51-35-3-13-15-48-26-78l-20-55h-51c-48 0-50 1-46 25 3 13 0 26-6 28-7 3-7 9 3 20 11 14 11 17 0 18-11 0-11 2-1 6s10 8 1 20c-10 11-10 16-1 22 7 4 10 15 7 23-5 12-13 14-33 9-31-9-43-43-39-118l2-53h-47c-27 0-48 2-48 4s6 16 14 30c15 30 10 65-10 73-8 3-14 14-14 24 0 23-13 24-35 2-16-16-16-25-2-118 2-9-42-10-50-1-3 2-4 22-5 44 0 25-6 43-14 46s-14 15-14 26c0 32-44 23-48-10-2-14-7-29-12-34s-4-20 1-33c5-14 6-29 3-34-10-17-34 12-34 41 0 15-7 33-14 40-10 7-14 27-13 55l2 44 36-5c33-6 37-4 43 20 4 15 4 31 1 36-11 17-15 160-5 185l10 27 35-36c19-20 35-40 35-44s11-24 25-45c14-20 23-37 19-37-3 0-1-7 6-15 14-17 50-20 50-5 0 5 11 12 24 16 22 5 23 9 18 67-2 34-9 65-14 68-6 4-6 9 2 14 6 4 9 14 5 23-4 10 3 23 17 34 27 21 28 21 51 4zm-365-281c-2-1-18-6-36-10l-32-7 5 36c7 56 14 60 41 20 14-20 24-38 22-39z" transform="matrix(.1 0 0 -.1 -14.591682 142.881789)"/></svg>