<svg height="102.493417pt" preserveAspectRatio="xMidYMid meet" viewBox="0 0 96.618722 102.493417" width="96.618722pt" xmlns="http://www.w3.org/2000/svg"><path d="m763 1420c-13-5-23-15-23-22 0-10-2-10-9 0-6 10-16 8-47-10-74-43-123-90-147-140-20-43-34-157-22-185 5-10 9-20 10-23s7-18 13-33c7-16 12-34 12-41 0-23 29-39 59-33 16 3 32 3 36-1s11-8 16-8c5-1 13-2 17-3 4 0 14-22 21-47 17-57 21-328 5-344-6-6-56-13-112-17-56-3-102-9-102-12s-20-6-45-6c-56-1-97-33-75-59 7-9 21-16 31-16s21-4 24-10c7-11 229-5 355 11 47 5 92 17 100 24 12 11 19 12 27 4 7-7 22-8 45-1 25 7 39 6 52-3 10-8 41-14 69-14 29 0 86-4 127-8 56-6 82-5 103 5 15 7 27 17 27 20 0 21-208 81-230 67-5-3-11-1-14 4s-27 12-53 16c-27 4-51 11-54 17-4 6-3 26 2 47 11 46 13 224 4 274-4 20-12 37-19 37-25 1 41 39 78 44 36 6 131 52 165 79 15 13 8 110-9 115-5 2-10 9-10 15 0 20-58 135-86 173-23 30-104 84-104 70 0-3-16 2-35 10-38 16-166 18-202 4zm131-156c37-9 66 4 66 29 0 18 8 13 45-28 44-50 62-86 67-139 3-28 0-30-72-52-98-31-151-39-229-37-41 1-69 7-80 17-10 9-22 16-28 16-22 0-34 29-27 64 6 34 8 36 38 31 18-4 38-1 49 7 23 17 30 57 11 65-31 12 19 46 91 62 23 6 32 3 37-11 4-9 18-20 32-24zm26-744c0-5-7-10-15-10s-15 5-15 10c0 6 7 10 15 10s15-4 15-10zm40 688c-33-9-34-11-15-24 12-9 14-14 5-14s-8-5 5-20c16-18 20-18 46-4 30 15 37 42 17 62-14 14-11 14-58 0zm-108-42c-12-6-29-22-38-35-15-21-15-24 7-49 13-15 25-28 25-30 1-2 13 0 28 4 23 5 26 11 26 48-1 55-18 78-48 62z" transform="matrix(.1 0 0 -.1 -36.369829 142.9197)"/></svg>