<svg height="196.996804pt" preserveAspectRatio="xMidYMid meet" viewBox="0 0 162.822337 196.996804" width="162.822337pt" xmlns="http://www.w3.org/2000/svg"><path d="m1494 2093c-15-16-28-39-30-53-1-14-5-37-8-52-2-16 0-28 5-28 16 0 10-53-9-85-11-17-22-48-26-70s-14-47-23-57c-13-15-20-35-22-64-1-5-9-19-20-30-10-11-21-30-25-41-5-17-12-19-44-14-30 5-40 13-54 41-17 35-17 117 0 130 12 9 8 76-6 93-9 11-10 17-2 22 6 4 9 14 5 23-3 8 3 24 14 36 17 19 18 27 9 76-13 70-37 97-66 79-43-27-72-169-37-182 8-4 15-15 15-26s4-22 9-26c12-7 5-216-8-224-5-3-36-4-70-3-55 3-61 6-61 26 0 12-6 28-12 34-10 10-10 15 1 22 13 7 13 11 0 26-8 9-13 25-11 34 3 20-46 56-58 43-4-4 1-42 11-83 26-108 28-104-45-121l-65-15-19 38c-11 20-16 38-11 40 4 2 6 13 3 25-6 23-29 37-45 27-11-7-12-41-1-48 5-3 9-25 11-50l2-44-54-12c-73-17-86-12-115 43-28 50-49 58-75 29-22-24-21-40 3-77 25-37 25-55 3-55-10 0-29-11-43-24-14-14-46-44-72-67-27-23-48-48-48-55 0-8-9-23-20-34s-20-30-20-43-4-27-9-32c-22-24-42-346-26-420 23-109 29-121 58-116 4 0 7-3 7-8s20-5 46 0 53 5 62 0c10-5 56-12 105-16 98-8 89 1 107-110 17-110 22-130 37-146 12-14 12-17-4-24-10-4-42-9-71-11s-58-7-65-11-23-9-37-10c-83-9-110-16-121-29-7-8-20-12-30-9-10 4-46-2-79-12-58-17-76-35-45-47 16-6 128 1 157 10 9 3 71 13 138 23l121 18 30-23c29-21 32-21 82-8 29 8 68 17 87 19 72 8 107 13 150 25 25 7 117 13 205 15 88 1 174 5 190 9 17 3 76 16 133 28 99 21 131 37 75 39-16 0-41 2-58 3-16 1-59-2-95-7-36-4-109-9-163-10-87-2-100 0-109 16-5 10-7 26-4 34 4 9 1 22-5 30-7 7-9 16-6 20 4 3 2 12-4 20-9 10-8 17 1 28 7 8 9 22 5 32s-9 39-10 66c-3 44-1 48 23 53 15 3 34 8 42 11 8 2 37 9 64 14 55 10 166 57 166 70 0 14 34 11 55-5 22-16 56-10 48 10-3 10 2 14 18 14 48 0 54 14 47 97-2 17-31 25-60 18-21-5-24-1-34 40-9 40-9 48 5 52 30 9 103 48 114 62 9 11 9 15 0 18-7 3-13 11-13 19 0 19-3 18-46-11-20-14-43-25-50-25-12 0-34 28-31 40 3 14-27 100-34 100-12 0-11 31 0 49 8 12 13 12 24 3 12-10 33-3 110 37 52 27 107 57 121 66 25 17 26 17 36-9 12-34 22-33 60 5 27 28 31 37 27 76-5 59-31 77-60 42-11-13-24-36-29-51-10-28-38-46-38-25 0 29-22 37-48 17-14-11-31-20-39-20s-13-8-11-17c2-13-3-17-17-16-11 1-43-9-71-22-28-14-64-28-81-31-25-5-31-2-36 16-4 14 1 30 14 43 10 11 19 24 19 29 0 4 6 8 14 8s17 8 20 18c3 9 19 25 36 34 16 9 32 28 35 41 4 14 15 27 26 30 12 3 22 17 25 36 4 17 10 31 15 31 4 0 14 12 21 28 7 15 23 31 36 37 12 5 22 13 22 17 0 5 6 8 13 8 8 0 22 8 31 19 30 33-5 121-48 121-20 0-30-11-52-57-16-31-29-74-29-95-1-29-7-43-26-55-13-10-33-27-44-39s-36-38-55-58c-28-31-31-39-20-46 13-8 12-10-2-10-10 0-18 5-18 11 0 5-5 7-11 4-6-4-8-10-5-13 8-8-45-42-66-42-20 0-51 58-40 74 5 6 14 31 21 56s22 64 32 87c33 73 42 98 40 107-1 5 1 16 5 25 12 28 14 51 4 51-16 0-12 22 7 35 14 11 15 16 5 28-13 16-12 17 63 70 30 22 31 36 5 65-11 12-20 26-20 32 0 19-29 10-56-17zm-296-596c2-10-3-17-11-17-16 0-30 24-19 34 10 10 27 1 30-17zm-163-2c11-1 30-5 43-9 22-7 23-9 6-27-9-11-15-21-13-23s29-5 60-7c39-2 63 2 79 14 22 15 25 15 42 0 11-9 18-26 16-37-3-18-42-49-80-62-9-3-19-12-22-20-4-10-12-11-30-4-27 10-75 1-77-15-2-22 30-29 73-17 104 31 152 41 163 32 6-5 9-25 7-45-4-30-9-36-41-45-20-5-66-12-103-15-70-7-89-20-40-30 57-12 77-21 77-35 0-9-13-17-34-20-37-5-46-17-32-39 7-10 16-11 42-3 68 21 116 23 123 6 3-9 4-20 1-24-6-10-76-42-120-56-16-5-31-18-33-28-3-15 1-17 27-11 16 3 38 2 48-3 19-11 21-10-67-42-48-17-171-39-255-46-38-3-77-8-85-11s-26-6-39-7c-14-1-26-7-29-14-2-7-16-12-30-13-15 0-36-4-46-8s-44-3-75 1c-31 5-83 12-116 16-59 7-59 7-61 40-3 51 16 62 102 62 52 0 82 5 99 16l25 16-23 24c-26 28-40 30-58 8-20-24-118-15-149 14l-23 21 26 10c15 6 64 18 109 27 89 18 103 27 86 57-9 17-17 19-76 13-36-4-72-12-79-18-19-15-43-2-43 24 0 30 37 47 120 54 35 3 72 10 81 15 10 5 27 9 38 9 12 0 21 5 21 11s-7 8-16 5c-10-4-13-2-8 6 10 17-129 3-168-17-41-20-52-7-28 32 18 30 23 32 61 28 24-2 50 2 63 9 11 8 46 20 76 27s58 18 62 23c4 6 13 5 22-3 20-17 21-5 2 15-17 17-36 18-36 3 0-8-4-8-14 0-15 12-86 6-118-11-12-5-18-5-18 1 0 17 84 51 109 44 14-3 41 3 69 18 31 16 63 23 95 23 26-1 45 1 43 4-3 2-1 13 4 23 11 19 65 30 115 21 17-2 39-5 50-7zm175-610c0-8-9-15-20-15-12 0-39-9-60-19-24-12-42-15-46-9-8 12 24 37 51 39 11 1 25 3 32 3 6 1 15 5 19 9 12 12 24 8 24-8zm-295-184c25 2 51-3 57-9 9-9 8-12-5-12-10 0-22-12-27-26-13-34-14-34 19-45 41-15 73-99 37-99-8 0-17-13-21-30-4-16-12-33-18-37-14-9-127-13-127-5-2 16-20 93-39 162-11 41-21 80-21 86 0 16 62 33 83 22 9-5 38-8 62-7zm-20 1267c-22-25-24-44-12-94 8-30 11-31 52-30 47 1 52 9 46 70 0 10 3 24 8 30 14 17-10 41-44 44-22 2-36-4-50-20zm-174-107c-30-8-47-60-31-91 12-22 12-22 53-24 34-2 51 23 49 73-2 47-18 57-71 42zm1071-678c-25-5-48-38-32-48 5-3 7-12 4-20-9-22 24-30 45-11 10 9 23 16 30 16 8 0 11 12 9 32-3 34-13 39-56 31zm-217-849c-33-7-91-21-130-30-48-12-119-17-226-18-103-1-161-6-171-13-9-8-19-9-28-3-20 13-107 13-115 0-4-6-13-7-23-1-10 5-28 9-42 9-14 1-85 3-157 6-110 4-133 3-133-9 0-21 17-27 89-31 74-4 181-15 181-19 0-2-7-15-14-31-8-15-13-31-10-36 9-14 67-9 85 8 10 9 43 17 81 20 35 3 70 8 78 11s42 7 75 8c77 3 92 5 135 15 19 5 73 11 120 15 98 6 201 24 215 36 5 5 16 9 25 9 20 0 48 42 31 48-6 2-9 8-5 13 3 5 4 9 2 8s-30-7-63-15z" transform="matrix(.1 0 0 -.1 -28.015196 211.997984)"/></svg>