<svg height="109.200325pt" preserveAspectRatio="xMidYMid meet" viewBox="0 0 69.151952 109.200325" width="69.151952pt" xmlns="http://www.w3.org/2000/svg"><path d="m499 1261c-26-4-65-19-87-34-23-15-46-27-51-27-15 0-91-92-111-135-18-37-47-137-57-195-2-14-6-74-9-135-4-105-3-111 20-137 25-28 80-48 133-48 38 0 40-6 48-175 4-87 10-124 22-137 8-9 13-21 10-25-14-22 15-31 116-36l109-5 17 37c9 20 23 47 31 61 18 32 18 33 25 170 8 148 11 160 36 160 24 0 74 25 102 51 17 16 20 32 21 147 1 111-2 133-16 149-10 11-18 25-18 31s-13 37-30 69c-16 31-30 62-30 68 0 5-16 31-34 56-54 73-141 104-247 90zm109-128c2-13 6-23 10-23s19-11 34-25c43-39 84-217 72-311-7-62-23-75-53-45-22 22-51 19-51-5 0-8-8-14-19-14-10 0-24-6-30-14-38-46-246-28-266 23-4 9-8 46-10 83-2 38-7 72-10 78-3 5-1 10 5 10s10 10 9 23c-2 21 6 65 18 97 4 8 7 20 7 27 1 6 20 28 44 49 49 41 138 74 197 71 33-2 41-6 43-24zm-23-680c0-50 3-95 8-99 17-18 7-55-19-64-36-14-89-17-87-5 1 6 4 44 8 85 3 41 7 80 7 86 1 6-9 24-22 41-31 43-20 55 48 51l57-3zm-193 588c-1-62 42-80 66-27 12 27-3 52-40 61-24 6-26 4-26-34zm141 17c-20-26-23-50-8-65 21-20 61-9 68 18 11 42-36 78-60 47zm91-142c-8-21 14-56 31-50 22 9 18 41-5 54-16 8-22 8-26-4zm-264-18c-13-15-17-25-10-32 5-5 10-23 10-38 0-32 0-31 33-19 29 11 41 49 27 85-12 32-33 33-60 4zm167-25c-2-5-10-25-16-45-11-33-10-39 8-57 35-35 58-27 63 21 4 45-16 78-42 70-7-3-10 0-6 7 4 6 5 11 2 11s-7-3-9-7z" transform="matrix(.1 0 0 -.1 -18.249809 126.41518)"/></svg>