<svg height="190.545093pt" preserveAspectRatio="xMidYMid meet" viewBox="0 0 149.407013 190.545093" width="149.407013pt" xmlns="http://www.w3.org/2000/svg"><path d="m383 2200c-18-11-33-24-33-30 0-5-4-10-10-10-5 0-20-11-34-25s-33-25-42-25-32-12-51-26c-32-24-34-29-34-87-1-122-3-142-21-145-23-4-68-76-68-109 0-16-5-46-10-68-6-28-6-48 3-67 11-25 17-28 59-28 51 0 66-11 43-30-8-7-15-27-15-44s-4-47-10-66c-10-36 3-110 20-110 5 0 11-8 14-17 7-19 84-103 129-141 15-12 40-22 57-22 19 0 33-7 40-20 7-14 21-20 45-20 18 0 36-4 40-9 3-5 18-10 33-10 50-2 62-4 62-13 0-4 18-8 40-8h40l-7-297c-3-164-10-308-14-320-7-18-13-21-36-14-15 4-56 9-91 10-34 1-74 6-88 11-35 14-44 13-44-5 0-8-4-15-10-15-19 0-10-22 21-51 17-16 35-29 39-29 5 0 10-5 12-11 4-12 76-17 353-24 464-13 504-13 509 1 12 33-12 52-91 73-24 7-43 16-43 22 0 5-19 28-42 50-40 38-42 42-39 94 1 29-3 63-9 74-6 12-12 57-14 102-2 44-5 82-7 84s-4 55-3 117c1 136 10 157 62 160 66 3 77 4 100 12 27 9 28 22 2 29-41 11-16 34 100 90 93 46 127 68 154 102 20 24 36 48 36 55 0 6 5 8 11 4 10-6 28 11 29 28 0 4-13 21-28 38-21 22-34 29-48 24-23-9-158-102-199-139-51-44-87-58-175-66-49-4-117-18-160-33-75-27-163-36-310-34-36 1-95 1-132 1-60 0-67 2-77 24-16 34-15 36 22 28 17-4 47-7 65-8 17-1 32-5 32-9 0-11 50-4 53 7 4 18-86 54-131 53-23-1-48 4-54 10-7 7-21 12-32 12-18 0-18-1 4-25 35-37 19-40-41-8-52 28-53 29-64 90l-11 62 35 5c47 6 110 1 141-10 14-5 45-9 70-9 28 1 49-5 56-13 7-10 18-12 35-7l24 8-31 13c-18 7-63 16-100 20-38 4-73 10-79 14-5 4-38 13-72 20-35 7-63 14-63 14 0 1 9 21 20 44 11 22 20 48 20 55 0 16 27 30 40 22 5-3 14-21 20-41 9-25 15-33 23-25 6 6 17 7 26 2 22-11 170-13 152-2-14 9-50 104-50 131 0 8 6 24 14 34 14 19 15 19 49 1 52-28 90-13 94 38 2 21-1 44-6 50-5 7-12 24-16 39-3 15-15 30-26 33s-20 11-20 16c0 6 4 8 9 4 5-3 12-1 16 5 3 5 17 10 31 10 24 0 28-9 24-58-1-13 8-43 19-68 12-24 21-48 21-54 0-5 13-10 30-10 29 0 29 0 29 58-1 72-7 92-25 92-11 0-13 6-9 21 5 13 3 19-3 15-5-3-15 1-22 9-12 15-4 20 22 16 4 0 25 8 45 18 49 25 101 18 113-15 12-30 3-54-19-54-22-1-51-24-51-43 0-25 30-28 61-6 16 11 36 19 43 16 8-3 23 1 34 9 15 10 23 11 27 3 10-14 2-20-80-63-70-37-99-71-69-83 8-3 23 2 33 11s30 16 46 16c15 0 47 11 69 24 48 28 116 44 116 27 0-16-88-77-132-92-21-7-38-16-38-21 0-4-13-8-30-8-32 0-38-11-17-28 14-11 126 1 136 16 3 5 33 22 66 37 33 16 62 30 65 32 3 1 12-2 20-7 12-7 11-13-10-35-14-15-42-36-62-46-21-11-38-26-38-33 0-8-9-16-20-19-28-7-25-27 5-27 35 0 123 43 170 83l39 34 26-41c15-23 29-59 33-80 7-45 36-76 71-76s40 14 17 58c-13 25-20 57-19 89 1 41-5 60-30 99-18 27-38 58-45 68-20 31-111 116-124 116-7 0-13 4-13 9s-26 22-57 37c-43 21-72 28-120 29-35 0-63 3-63 8 0 4-15 7-34 7s-38 5-41 10c-10 17-25 11-18-7 4-11 3-14-5-9-7 4-12 18-12 30 0 14-10 30-25 40-14 9-23 21-20 26s-3 14-14 20c-11 5-37 26-58 45-36 33-114 58-130 41-3-3-12-1-19 5-9 8-18 5-33-10-26-26-47-27-54-1-7 28-89 28-134 0zm106-84c20-21 21-27 11-72-21-100-16-93-62-89-24 2-44 9-47 16-2 8-10 20-18 27-15 16-18 92-3 92 6 0 10 6 10 13 0 16 35 35 66 36 11 1 30-10 43-23zm193-11c15-14 36-25 46-25 20 0 66-46 58-59-3-4-24-13-48-20s-53-18-66-24c-32-15-92-12-103 4-14 24 2 92 29 122 32 34 50 34 84 2zm-387-102c4-16 11-36 16-46 8-15 4-25-23-52-18-19-35-32-39-30-10 7-10 102 1 130 13 33 38 32 45-2zm265-137c0-8 3-23 6-33 4-14 1-13-15 6-25 27-27 41-6 41 8 0 15-6 15-14zm-116-41c18-16 25-32 22-43-8-25-55-50-101-54-40-3-40-3-43 34-5 53 11 76 56 81 20 2 37 4 38 5s13-9 28-23zm-222-90c3-15-2-32-14-45-37-40-66-16-45 39 15 40 52 43 59 6zm277-119c9-10 8-15-1-19-15-5-40 17-31 27 10 10 20 7 32-8zm461-571c0-8-4-15-9-15s-9-34-10-77c-1-42-5-81-11-88-5-6-7-20-4-32 3-11 1-24-5-27-6-4-11-29-11-56s-5-61-11-77c-6-15-11-58-11-96 0-37-4-70-9-73s-9-16-9-30c0-20-5-24-31-24-17 0-39 5-51 11-17 9-19 17-14 62 3 29 8 93 12 142 3 54 11 99 20 113 8 13 14 31 12 40-1 9 0 22 4 27 3 6 2 37-3 69-10 79-2 115 28 127 33 12 33 12 33-16 0-16 6-25 15-25 8 0 15-5 15-11 0-5 5-7 10-4 6 3 7 17 4 30s-3 29 1 34c9 16 35 13 35-4zm-60-91c0-8 5-12 10-9 6 3 10 10 10 16 0 5-4 9-10 9-5 0-10-7-10-16zm387 654c-9-24-146-84-207-91-25-4-59-13-75-21l-29-15 25-9c27-11 123 1 142 17 7 5 15 9 20 9 25 0 87 15 87 21 0 4 14 6 30 3 29-4 30-6 15-22-8-9-13-19-9-22 3-3-21-21-53-39s-72-43-89-56-37-23-45-23-25-9-38-19-32-16-42-14c-11 3-19 1-19-5s-19-13-41-17c-30-5-38-10-28-16 16-10 99-1 114 12 5 5 22 9 38 9s40 9 54 20 32 20 39 20c8 0 14 5 14 10 0 6 9 10 21 10 11 0 17 4 14 10-3 5 0 7 8 4 9-3 28 8 46 25s36 31 41 31 20 10 34 23c26 25 23 42-9 49-16 3-20 11-18 42 3 50-26 89-40 54zm-907-197c13-8 43-14 123-26 12-2 39-7 60-11 22-4 37-3 37 3 0 10-98 31-185 39-33 3-45 2-35-5z" transform="matrix(.1 0 0 -.1 -7.577716 222.092886)"/></svg>