<svg height="92.72793pt" preserveAspectRatio="xMidYMid meet" viewBox="0 0 108.407958 92.72793" width="108.407958pt" xmlns="http://www.w3.org/2000/svg"><path d="m752 1314c-13-9-28-27-33-41-8-21-12-23-24-13-19 16-19 6 2-37 14-31 48-56 78-57 20-2 42-53 48-115 4-36 13-74 21-86s12-33 9-48-2-35 3-44c7-18 9-47 15-286 1-70 7-127 12-127 6 0 5-5-1-13-5-6-6-20-3-30 6-17 8-17 20-3 7 9 10 16 7 16-4 0 0 7 8 16 19 18 20 38 5 65-6 12-7 28-3 37 12 29 14 71 4 77-7 4-6 13 0 26 8 14 6 27-5 50-12 22-13 34-5 44 12 14-1 58-20 70-8 5-8 10 0 20 19 23 22 82 4 89-8 3-13 10-9 15 3 6-2 45-11 88-10 43-18 87-19 98s-6 29-10 39c-6 14-2 24 14 38 27 21 23 52-11 99-25 33-61 38-96 13zm101-238c4-10 1-13-9-9-7 3-14 9-14 14 0 14 17 10 23-5zm170 186c-20-12-33-61-32-116 1-51 16-122 30-141 8-12 11-102 10-350 0-104 2-198 5-207 6-21 40-24 46-6 4 13 2 111-3 216-2 28-7 52-12 52s-6 8-1 18c17 40 10 263-12 335-3 9 0 17 6 17 26 0 78 32 88 55 14 31-11 98-42 113-32 16-70 22-83 14zm-488-69c-24-6-65-52-65-73 0-8 5-32 11-52 9-36 12-38 49-38 36 0 40-3 71-57 18-32 32-63 31-69-1-5 9-48 22-94 17-58 22-87 14-91-6-4-7-12-2-20 4-8 9-34 10-59 0-25 7-57 14-72 7-16 9-34 5-45-5-10-7-22-6-26s2-18 3-31 10-29 19-35c25-15 52 39 39 75-6 14-10 38-10 53s-3 31-7 35-7 21-8 39c-2 70-18 153-33 170-9 10-17 37-18 59s-8 44-15 49c-11 6-9 9 5 15 18 7 18 8 0 21-10 7-13 13-6 13s-2 22-19 50c-17 27-27 54-24 60 11 18 13 60 3 60-5 0-7 4-4 8 5 9-40 63-52 61-4-1-16-4-27-6zm758-196c-49-9-53-12-53-38 0-17 5-29 13-29 9 0 9-3-1-9-8-5-12-17-10-27 3-18 5-17 25 3 19 19 27 21 48 13 39-15 53-12 65 11 9 16 8 28-5 55-9 19-19 33-23 33-4-1-31-6-59-12zm-62-168c-14-42-15-41 12-37 14 2 21 9 18 18-2 8-3 23-3 33 1 28-15 19-27-14zm-814-27c-34-38-48-113-27-153 11-20 49-26 66-10 20 20 86-64 89-114 1-34 34-86 50-81 16 4 5 89-16 127-7 13-13 31-14 39 0 8-6 14-13 12-7-1-12 3-11 10s-7 35-19 61c-12 27-22 56-22 66 0 25-29 61-49 61-10 0-25-8-34-18zm802-29c0-5-3-39-5-78-3-38-8-73-13-78-14-14 0-48 18-45 12 3 16 16 16 58 0 30 3 60 8 66 4 7 9 28 11 48 4 31 2 36-14 36-11 0-20-3-21-7zm175-125c-36-29-37-60-2-93 15-14 31-32 36-41 12-22 32-10 25 16-3 11 0 33 6 51 8 24 7 37-4 60-19 35-23 35-61 7zm-114-78c0-5-17-14-37-19-29-8-38-16-39-33-1-13-4-29-5-37-3-8 6-15 24-18 15-2 27 1 27 7 0 5-5 10-10 10-23 0 24 49 53 56 62 13 78 44 22 44-19 0-35-4-35-10zm-680-140c-9-6-10-10-3-10 6 0 15 5 18 10 8 12 4 12-15 0zm624-1c-3-6-2-15 4-21 13-13 32-2 32 18 0 16-26 19-36 3zm-176-16c7-3 16-2 19 1 4 3-2 6-13 5-11 0-14-3-6-6z" transform="matrix(.1 0 0 -.1 -38.03079 132.981967)"/></svg>