<svg height="129.707208pt" preserveAspectRatio="xMidYMid meet" viewBox="0 0 47.11356 129.707208" width="47.11356pt" xmlns="http://www.w3.org/2000/svg"><path d="m437 1439c-73-37-119-92-145-174-8-22-17-49-22-60-7-18-43-232-53-312-2-19 1-33 7-33s6-4-1-11c-8-8-10-43-6-113 5-85 10-108 32-144 24-40 28-43 61-38 19 3 42 7 50 7 8 1 21 7 29 12 15 13 41 18 42 9 0-4 2-54 4-112 6-135 26-280 39-281 6-1 16-1 22 0 7 1 14-5 18-14 9-25 25-17 34 18 9 33 8 138-2 304l-6 92 38 7c20 4 49 7 65 7 15 0 27 3 28 6 0 3 2 15 3 26s6 37 10 57c4 24 2 56-8 87-10 35-12 60-5 89 5 23 6 63 3 89s-7 66-9 88-6 60-10 85c-3 25-7 63-10 86-5 45-50 154-64 154-5 0-14 13-19 29-6 16-24 35-43 45-38 19-34 19-82-5zm61-121c-3-7-15-15-28-16-13-2-29-10-36-17-20-20 6-37 45-29 36 8 65-15 76-59 7-28 2-31-72-42-24-4-43-11-43-16s-7-9-15-9c-9 0-15-9-15-21 0-20 4-21 48-16 26 3 62 9 80 13 30 6 32 5 33-22 2-30 2-70 0-91-1-17-31-16-31 1 0 11-12 11-76 0-42-7-85-16-95-19-13-4-21-1-26 11-9 24 14 176 32 211 8 15 15 32 15 36 0 5 12 28 26 53 21 36 31 44 56 44 19 0 28-4 26-12zm85-425c3-32 2-62-4-69-11-13-50-20-160-28-74-5-76-4-74 17 1 12 3 41 4 63l1 41 48 7c26 4 70 10 97 13 28 3 52 7 54 9 17 16 29-3 34-53zm-3-114c0-11-4-17-10-14-5 3-10 13-10 21s5 14 10 14c6 0 10-9 10-21zm-80-40c0-11-68-29-105-28-22 1-24 3-8 6 12 2 26 10 32 17 11 14 81 19 81 5z" transform="matrix(.1 0 0 -.1 -21.472145 145.756152)"/></svg>