<svg height="112.317227pt" preserveAspectRatio="xMidYMid meet" viewBox="0 0 76.754069 112.317227" width="76.754069pt" xmlns="http://www.w3.org/2000/svg"><path d="m387 1308c-65-8-88-16-148-56-15-9-41-26-58-37-32-20-91-121-91-155 0-9-4-20-9-25-20-22-19-168 1-255 11-47 25-91 30-97 9-12 64-31 111-40 10-1 34-10 53-18 32-13 36-18 31-42-3-15-1-36 5-47 5-10 6-16 1-13-4 3-6-38-5-90 2-52 0-99-5-104s-32-10-61-10c-37-1-56-7-69-21-20-22-20-23 0-42 17-18 106-48 122-42 6 2 61-2 121-10 142-17 216-17 256 0 18 8 45 17 60 20 17 4 32 18 42 37 14 28 14 33 0 46-13 13-24 14-71 4-30-6-59-9-63-6-19 12-45 241-28 251 5 3 7 16 4 29-4 16-1 24 12 28 84 28 130 52 165 87 36 36 41 45 41 88 0 54-19 127-46 180-10 20-18 46-18 57 0 12-4 25-8 31-5 5-16 28-25 52-40 101-108 170-191 193-55 16-79 17-159 7zm93-127c0-5-12-12-26-15-22-6-25-11-19-34 9-39 22-49 45-34 32 20 66 14 85-14 21-32 14-39-50-55-27-7-56-17-62-22-18-13-16-57 2-57 19 0 19-20 0-34-22-16-5-33 41-40 36-6 45-4 65 16 41 41 56 41 62 2 7-41-8-88-24-79-6 4-8 13-5 21 9 22-16 16-44-11-20-19-41-26-88-31-43-5-66-12-72-23-15-29-143-14-155 18-15 38-24 127-16 156 5 16 14 53 21 80 18 81 52 137 91 151 40 15 149 18 149 5zm262-353c6-16-19-65-36-71-11-5-11 0 1 24 8 16 12 36 9 44-3 9 0 15 8 15s16-5 18-12zm-320-288c10-11 18-36 19-57s7-43 12-50 5-18 1-24c-4-7-8-25-10-42-3-38-19-55-41-41-20 12-36 63-26 84 3 8 5 45 4 83-3 73 9 86 41 47zm108-200c0-5-4-10-9-10-6 0-13 5-16 10-3 6 1 10 9 10 9 0 16-4 16-10z" transform="matrix(.1 0 0 -.1 -6.630547 131.419909)"/></svg>