<svg height="128.717947pt" preserveAspectRatio="xMidYMid meet" viewBox="0 0 137.365408 128.717947" width="137.365408pt" xmlns="http://www.w3.org/2000/svg"><path d="m520 2103c-30-2-64-5-76-8-31-7-100-65-132-110-26-39-27-45-26-165 0-94 4-134 17-163 9-21 24-68 33-105s20-72 25-78c8-10 83-4 137 12 13 4 22 2 23-5 3-26 4-30 12-37 4-4 7-15 7-25s5-30 11-46c6-15 13-39 14-53 2-14 8-56 14-95 7-38 14-97 18-131 5-58 4-61-18-67-13-4-38-7-56-7-17 0-35-4-38-10-3-5-15-10-26-10s-18-4-14-9c9-15-17-25-70-27-95-4-160-16-177-35-25-25-22-39 13-78 36-42 53-43 189-11 52 12 118 26 145 32 28 6 57 17 66 25 11 9 33 12 65 10 27-2 61 0 76 5 18 7 39 6 62-2 97-32 606-49 639-21 23 18 21 34-5 50-17 11-63 15-175 16-159 2-183 8-183 46 0 11 4 19 9 19s11 10 14 23c6 28 57 157 85 217 11 25 22 54 24 65 3 15 10 20 33 18 58-4 110-15 141-28 39-18 110 1 136 36 20 28 31 175 16 224-27 92-43 129-62 150-11 13-38 41-58 64-21 23-42 41-48 41-5 0-10 5-10 11s-6 9-14 6-16-3-18 1c-7 15-66 40-109 47-35 5-56 3-82-10-20-9-48-16-64-15-53 4-68 0-95-25-32-30-34-30-42-7-28 77-164 208-262 251-28 13-98 19-164 14zm2-145c-8-8-8-15-1-24 11-14 98 3 136 26 19 12 24 12 41-3 10-9 26-17 35-17s17-7 17-15 4-15 9-15 21-17 37-37c21-27 23-35 10-30-30 12-57-10-50-40 6-22 4-25-10-20-10 4-26 1-37-6-16-12-17-16-5-32 13-18 15-18 51-1 54 26 73 45 67 68-7 30 20 18 36-15 18-37 7-70-20-61-14 4-28-2-48-21-17-17-37-26-51-24-13 2-35-3-48-10-28-16-210-37-234-28-26 10-20 24 13 31 35 6 41 37 13 68-17 19-69 26-58 8 3-5-1-10-9-10-40 0-1 95 47 113 26 10 20 24-15 37l-33 12 38 18c21 9 43 22 50 29 6 6 16 11 21 11 6 0 5-5-2-12zm749-190c1-7 2-24 3-38 1-34 13-50 37-50 10 0 19-7 19-15s-4-15-10-15c-15 0-12-15 8-40 17-21 22-22 51-12 32 11 32 11 29-16-3-23-9-28-45-36-50-10-54-26-15-55 26-20 26-22 8-35-16-13-24-11-72 15-30 16-60 29-67 29-6 1-28 14-47 30-19 17-39 30-46 30-6 0-23 9-36 20-14 10-43 22-65 26-51 8-67 18-60 37 4 12 13 13 41 7 22-5 36-4 36 2 0 5 8 7 18 4 13-4 21 2 29 23 9 24 8 29-3 24-8-3-14 0-14 6 0 7 14 17 30 22 17 6 30 15 30 20s22 9 49 9c28 0 53 5 56 10 9 14 35 12 36-2zm-327-156c-6-4-16-17-22-29-10-18-18-20-54-16-53 7-58 11-33 26 28 17 132 35 109 19zm-204-118c0-22-58-63-80-57-17 5-20 12-18 45 2 35 4 39 24 34 13-4 27 0 35 10 12 14 14 14 26-2 7-10 13-23 13-30zm196-49c7-17-32-89-41-76-6 11-14 38-22 83-5 27-5 28 27 17 17-7 34-17 36-24zm494 15c0-18-3-19-20-10-11 6-20 15-20 20 0 6 9 10 20 10 13 0 20-7 20-20zm-360-90c10 0 22-4 25-10 3-5 17-10 31-10 23 0 24-1 9-16-9-9-19-29-22-45-7-38-20-40-78-14-33 16-54 20-62 14-7-6-13-6-17-1-3 6 6 17 20 27 14 9 32 33 41 53 13 31 16 33 24 19 6-9 19-17 29-17zm-305-10c10-11 16-23 12-26-3-3-2-16 3-29 7-19 5-24-13-29-12-3-36-6-54-6-27 0-32 4-38 30-4 16-7 33-7 37-1 7 58 41 73 43 3 0 14-9 24-20zm258-150c28-15 32-23 31-55 0-33-4-38-27-41-15-1-27 1-27 6s-15 13-32 18c-28 7-34 13-36 40-2 18 1 32 6 32s12 10 15 22c5 18 8 19 22 8 8-7 30-20 48-30zm-226-22c17-22 23-75 10-91-7-8-26-18-43-22-39-7-59 13-50 51 4 15 2 32-5 41-10 12-10 16 2 24 21 13 75 11 86-3zm216-112c8 3 17-2 20-10 4-9 2-16-3-16s-12-9-15-20c-5-15-15-20-41-20h-34v51 50l29-20c16-12 36-19 44-15zm-343 851c-38-18-49-32-43-56 6-22 18-27 28-11 3 6 17 10 31 10 13 0 24 5 24 10 0 6 7 10 15 10 20 0 19 20-2 36s-21 16-53 1z" transform="matrix(.1 0 0 -.1 -18.148707 210.480269)"/></svg>