<svg height="85.033144pt" preserveAspectRatio="xMidYMid meet" viewBox="0 0 66.64242 85.033144" width="66.64242pt" xmlns="http://www.w3.org/2000/svg"><path d="m551 1084c-140-31-210-116-212-258-2-115 17-185 60-223 20-18 50-36 68-39l32-6-4-96c-2-54-4-103-4-111-1-10-11-12-40-7-27 4-42 2-50-8-19-23 41-76 87-77 50-2 74-5 106-13 15-3 54 1 88 10 34 8 96 18 137 21 81 6 120 16 122 33 1 5 2 16 3 23 2 20-36 41-74 42h-35l-1 108c-2 131 7 146 92 158 31 4 62 13 68 19 16 16 14 159-3 169-9 6-10 11-3 15 14 8-35 95-63 110-28 16-43 28-74 59-15 16-40 30-55 31-15 2-36 13-47 25-11 11-30 21-42 21s-38 2-57 5c-19 2-64-3-99-11zm176-143c6-1 16-15 22-31 5-17 17-33 26-36 20-8 19-21-3-28-25-8-46-49-38-74 6-18 11-20 32-12 40 16 66 12 62-7-2-13-16-19-53-21-27-2-58-8-67-13-18-10-88 17-88 33 0 4-11 8-26 8-19 0-28-7-35-29-12-34-44-44-88-25-38 16-40 37-5 53 15 6 24 15 20 18-3 4 1 15 11 25 15 17 15 19-3 39-26 28-11 47 64 85 55 27 68 30 110 23 26-4 52-8 59-8zm41-384c6-16 10-33 7-37-2-3-6-28-10-54-5-50-16-67-50-80-36-15-123-22-134-11-3 4-6 41-7 83 0 43-2 84-5 92-3 11 5 16 28 18 30 3 32 1 39-34 7-40 35-74 59-74 23 0 19 62-6 88-20 22-20 22 0 30 45 16 67 11 79-21zm-146 351c-7-7-12-20-12-30s-4-18-10-18c-13 0-13-12 0-46 10-25 12-26 29-10 9 9 23 16 29 16 7 0 12 9 12 20s-4 20-9 20c-4 0-8 12-7 27 1 30-14 39-32 21z" transform="matrix(.1 0 0 -.1 -33.884939 109.518154)"/></svg>