<svg height="145.781013pt" preserveAspectRatio="xMidYMid meet" viewBox="0 0 61.973545 145.781013" width="61.973545pt" xmlns="http://www.w3.org/2000/svg"><path d="m393 1630c-48-7-116-51-147-95-57-80-87-142-102-205-15-66-19-477-5-500 7-9 25-14 53-13 39 2 45-2 65-32 21-33 22-43 20-287-1-178 2-259 10-274 18-31 95-57 146-50 23 3 57 6 74 6 34-1 93 24 93 39 0 5-7 14-15 21s-11 17-7 24c12 19 20 428 8 464-6 18-2 25 25 40 61 33 96 71 118 128 27 71 29 161 4 181-13 10-15 16-5 19 15 7 15 26 0 76-8 27-14 35-20 26-6-8-7-4-2 12 7 25 7 37-1 115-6 68-15 98-42 150-32 62-74 104-113 112-17 3-30 9-30 13 0 15-86 35-127 30zm89-157c9-16 25-37 35-48 45-47 102-213 103-298 0-12 1-31 1-42 2-29-8-117-16-137-4-10-12-15-17-12-6 4-5 10 3 15 20 12-15 11-66-2-22-6-47-11-55-11s-23-8-33-16c-9-8-20-12-24-9-3 4 0 7 8 8s3 4-11 8-31 4-37-2c-20-15-77 1-92 24-9 16-10 24-1 29 6 4 9 17 5 32-6 21-2 26 19 32 31 8 33 26 7 50-11 10-17 24-14 32 3 9-2 14-15 14-17 0-19-5-16-30 3-16 2-30-3-30-20 1-36 20-39 47-2 23 4 32 32 51 20 12 40 22 45 22 6 0 7 5 4 10-3 6-2 10 4 10 19 0 23 41 5 61-16 17-16 20-1 37 21 23 7 46-29 47-42 2-40 19 7 70 43 46 78 63 139 64 29 1 39-4 52-26zm-224-195c-2-24-8-34-23-36-16-2-20 2-20 21 2 30 13 47 31 47 11 0 14-9 12-32zm327-398c3-5-1-10-10-10s-13 5-10 10c3 6 8 10 10 10s7-4 10-10zm-74-149c0-9 0-43-2-76-1-33-3-70-3-82-1-27-2-27-56-8-53 19-50 19-50-10 0-32 41-60 75-51 24 6 25 4 25-39 0-44 0-44-30-38-27 5-30 3-30-21 0-28 26-36 48-14 9 9 12 3 13-27 2-68-5-91-20-66-6 9-18 12-37 7-16-4-44-8-63-9l-34-1-4 99c-13 369-17 353 92 353 63 0 75-3 76-17zm-89 691c-24-7-26-11-16-37 8-19 33-19 73 1 26 13 30 19 20 30-12 15-38 17-77 6zm53-149c-12-2-26-12-31-21-10-15-7-17 21-16 18 1 43 10 56 22l23 22-25-1c-13-1-33-4-44-6zm-32-96c-3-6 4-19 17-29 42-34 149-13 114 22-13 13-123 19-131 7zm144-111c-4-11-17-14-50-11s-49 0-58-12c-11-13-11-17-1-20 6-3 12-11 12-18 0-16 33-17 71-3 29 10 55 56 41 70-6 6-12 3-15-6zm-169-353c-9-10-19-29-23-42-7-21-5-23 16-18 13 4 32 7 42 7 9 0 17 6 17 14s5 16 12 18c6 2 9 12 5 21-8 22-50 22-69 0z" transform="matrix(.1 0 0 -.1 -13.045239 163.054625)"/></svg>