<svg height="108.569385pt" preserveAspectRatio="xMidYMid meet" viewBox="0 0 126.851217 108.569385" width="126.851217pt" xmlns="http://www.w3.org/2000/svg"><path d="m1102 1180c-23-10-45-26-48-35-3-8-17-15-30-15-14 0-24-6-24-14s-6-16-13-19c-22-8-48-152-53-292-1-41-10-92-22-122-13-35-20-76-20-120 0-141-2-146-79-158-26-4-56-14-65-22-26-23-48-1-48 47 0 21-6 41-12 44-10 5-10 7 0 12 17 8 15 59-2 74-8 6-13 17-10 24s-3 35-12 61c-9 27-17 65-18 84-1 20-4 41-7 46-4 6-7 26-8 45-3 55-6 74-15 88-4 6-4 17-1 22 3 6 3 10-2 10-4 0-9 12-10 26-2 35-21 54-33 34-8-13-10-12-10 3 0 9-6 17-12 17-10 0-10 2-1 8 23 15-19 50-69 57l-46 7-37-54c-22-34-38-72-41-99-3-24-7-45-8-46-1-2-16-4-32-5-40-3-62-26-65-68-2-41 9-90 22-90 15 0 10-49-6-74-9-13-18-46-22-73-5-49-5-50 33-72 51-30 120-32 160-5 16 11 42 26 59 33 16 7 35 21 43 32 7 10 19 19 26 19 15 0 22-29 32-136l6-70-67-12c-40-8-95-10-140-6-62 6-77 4-91-10-9-9-15-18-13-19 9-6 55-26 72-31 31-10 339-8 412 3 161 24 382 33 488 20 34-4 54-1 69 9 19 14 22 13 34-2 11-16 17-16 48-6 20 6 36 15 36 20 0 19-33 40-71 46-23 4-46 15-54 26-12 18-25 20-107 20-51 0-113-5-138-10-51-12-64-7-54 17 4 9 6 26 5 39 0 12 3 22 7 22 5 0 7 32 5 70-3 46-1 70 6 70 6 0 11 14 11 30 0 17 3 30 6 30 10 0 49-23 77-46 24-20 31-22 55-11 15 6 29 14 32 18 8 10 80-2 74-13-8-12 45-2 99 19 24 10 37 22 36 32-1 9-1 25 0 35 1 18 2 18 19 3s19-15 35 12c21 36 22 66 2 89-56 63-67 83-62 112 7 31-9 90-24 90-5 0-9 7-9 15 0 14-31 23-105 27-22 2-40 8-41 13-4 37-29 75-56 84-41 14-46 14-96-9zm80-77c-2-12 1-24 7-27 6-4 3-18-6-37-11-22-12-34-5-41 6-6 8-23 6-38-5-25-4-26 23-23 18 3 36 16 48 33 24 36 82 47 91 18 7-22-11-47-41-58-17-7-22-17-23-54-2-40 0-46 18-46 11 0 20 5 20 10 0 14 36 13 77-2 39-14 42-30 9-63-13-13-21-26-18-29 14-15-124-9-158 6s-37 28-14 63c12 18 13 28 4 44-16 31-31 26-72-21-20-24-39-41-42-38s3 24 13 45c45 99 44 147-3 138-14-3-28-14-32-26-6-21-28-47-37-47-3 0-1 16 5 37 5 20 7 49 4 64-3 16-1 31 4 34 6 3 10 17 10 30 0 18 4 23 15 19 8-4 15-2 15 3 0 13 40 30 65 29 14-1 19-7 17-23zm-657-126c27-48 31-84 14-132l-12-32-47 23c-46 22-47 23-53 79-7 69-3 81 31 94 40 14 39 14 67-32zm-98-221c12-14 19-27 14-31-17-10-84 20-100 44l-16 24 40-6c22-4 49-17 62-31zm83-81c0-25-5-38-17-43-10-4-37-20-60-36-35-23-49-27-78-22-19 4-35 10-35 13 0 18 37 43 62 43 15 0 36 4 46 9 9 5 25 12 35 15 13 4 16 12 11 31-5 21-3 25 15 25 17 0 21-6 21-35zm370-435c-36-4-92-13-125-20-33-6-71-13-84-13-23-2-44-32-34-49 2-4 44-5 93-2 71 5 90 3 97-9 5-10 39-18 103-25 128-14 132-13 124 12-4 12-11 23-15 24-5 2-9 8-9 13 0 6 4 8 9 4 5-3 12-1 16 5 3 5 25 7 51 3 35-4 49-2 67 13 18 16 19 16 8 2-8-11-9-18-3-18s13 4 17 10c3 5 12 7 20 3 11-4 13-1 9 11-6 15-18 20-38 17-4-1-13 3-20 8-15 13-203 20-286 11zm130-61c0-5-4-9-10-9-5 0-10 7-10 16 0 8 5 12 10 9 6-3 10-10 10-16z" transform="matrix(.1 0 0 -.1 -24.073317 119.877896)"/></svg>