<svg height="90.593964pt" preserveAspectRatio="xMidYMid meet" viewBox="0 0 79.913862 90.593964" width="79.913862pt" xmlns="http://www.w3.org/2000/svg"><path d="m506 1022c-3-2-32-5-65-6-47-1-64-6-83-23-14-13-28-23-32-23-9 0-65-58-104-106-30-38-49-107-62-229-12-117 0-192 37-229 56-56 160-88 202-62 7 4 15 6 17 3 7-6 44-157 44-178 0-8 6-23 13-33 19-25 96-23 183 5 62 20 66 23 61 48-2 14-7 33-11 42-4 10 0 23 10 33s14 26 11 41c-2 14 0 25 5 25 6 0 8 6 5 14-8 20 30 66 53 66 10 0 22 5 25 11 4 5 17 14 28 20 33 14 60 32 79 52 22 24 41 112 29 135-5 9-20 43-32 75-13 31-26 57-31 57-4 0-8 6-8 14s-13 24-29 37c-16 12-27 28-25 33 2 6-12 22-31 35s-35 29-35 37c0 7-8 15-19 19-10 3-26 14-36 25s-25 20-33 20c-9 0-23 7-31 15-16 14-126 36-135 27zm39-142c46-20 93-30 108-24 10 3 17 1 17-5s13-17 28-25c16-8 29-21 29-30 0-12-8-11-51 5-27 11-54 23-59 26-22 13-188 2-236-16-27-11-51-18-54-15-6 6 42 54 75 76 41 27 92 30 143 8zm-9-144c6-15 44-18 44-4 0 13 29 9 55-8 14-9 31-14 39-11 9 4 16-5 21-26 11-49 9-121-4-125-6-2-11-9-11-15 0-7-4-19-10-27-7-12-12-12-29 4-12 11-21 27-21 38 0 10-7 18-16 18-12 0-13 5-8 23 10 28 7 88-6 101-6 6-14 5-22-2-14-11-12-102 2-102 5 0 6-9 3-19-9-33-73-35-73-1 0 10-6 20-14 23-7 3-17 18-20 34-4 15-15 36-24 46-28 31 5 59 76 66 7 0 15-5 18-13zm-146-30c0-8 5-16 10-18 6-2 13-14 15-28 6-44 17-68 31-74 16-6 19-36 4-36-5 0-10 3-10 8 0 4-25 20-56 36-55 29-57 29-70 11-22-30-17-41 36-79 47-34 50-38 50-81 0-48-1-50-28-36-9 6-28 12-42 15s-45 25-70 48l-46 43 12 41c20 70 43 104 92 135 51 32 72 36 72 15zm410-68c0-10 5-18 10-18 6 0 10-7 10-16s9-18 20-21 20-11 20-18c0-14-108-90-116-82-4 3 3 42 15 86s21 83 20 88c-1 4-1 13 0 18 2 16 21-18 21-37zm-210-176c24-12 34-24 33-37-1-11 3-53 8-94 13-95 3-109-68-95-42 8-48 12-51 37-2 15-8 27-13 27s-9 18-9 39c0 22-4 43-10 46-16 10-12 35 13 65 26 33 48 36 97 12zm131-228c0-11 3-14 6-6 3 7 2 16-1 19-3 4-6-2-5-13z" transform="matrix(.1 0 0 -.1 -15.533873 102.431355)"/></svg>