<svg height="150.645936pt" preserveAspectRatio="xMidYMid meet" viewBox="0 0 129.095641 150.645936" width="129.095641pt" xmlns="http://www.w3.org/2000/svg"><path d="m755 1680c-4-6-20-9-37-8-18 1-33-3-36-10-2-6-19-12-39-12s-48-9-66-22c-17-13-41-27-53-33-36-17-122-90-160-137-6-7-22-22-36-33s-30-30-36-42c-7-12-18-28-27-36-27-27-64-124-71-183-4-33-13-71-20-86-11-20-13-54-8-134 5-107 16-154 33-154 5 0 19-16 31-36 32-50 188-121 206-92 3 5 12 1 18-8 17-23 147-22 183 2 14 8 30 13 37 11 7-3 18-38 24-79 16-102 29-289 20-294-3-2-50-7-104-10-109-6-114-8-114-33 0-24 23-43 42-36 8 3 20-1 27-9 11-13 48-15 229-15 120 0 225-3 235-6 9-4 48-2 85 5 87 17 126 58 89 95-20 19-89 55-107 55-34 0-49 24-51 80-1 30-4 58-6 63-2 4-6 59-8 121l-4 114 38 7c20 3 50 17 64 31 22 20 76 46 115 55 22 5 31 12 26 20-3 5-1 9 5 9 14 0 61 45 61 58 0 5 11 13 24 16 30 7 86 64 80 81-3 7-2 15 3 18 13 8 8 140-6 145-6 2-9 13-5 26 3 12 1 33-4 46-5 14-11 30-12 35-4 15-62 95-70 95-3 0-16 18-29 40-24 43-148 160-170 160-7 0-23 11-35 25-21 24-92 55-127 55-11 0-19 4-19 8 0 28-200 57-215 32zm135-114c8-1 26-7 38-15 23-12 23-13 5-26-10-7-54-18-98-25-44-6-100-20-124-31-24-10-49-19-55-19s-24-7-41-16c-16-8-61-29-100-46-91-40-167-89-160-105 2-7 0-13-5-13s-16-7-24-16c-9-8-16-10-16-4 0 20 34 65 109 142 41 43 77 82 80 87s38 21 76 35c39 15 79 31 90 36 41 18 112 29 160 23 28-3 57-6 65-7zm230-91c19-23 8-26-19-4-16 13-18 19-8 19 8 0 20-7 27-15zm-58-109c7-10 3-74-7-126-15-81-15-80-51-80-46 0-65 31-63 99 2 58-15 88-41 70-11-8-12-12-3-15 7-3 9-12 6-21-4-11-2-14 5-9 14 9 15 5 3-27-5-14-12-60-16-102-4-49-12-86-23-101-16-23-36-27-38-8-1 25-28 130-36 140-5 6-10 29-12 50-2 22-7 54-11 71-9 38-13 36 105 53 47 7 94 16 104 20 24 8 69 1 78-14zm121-36c32-19 35-25 39-77 4-47 0-65-24-114-16-32-34-61-39-64-5-4-9-15-9-26 0-10-7-19-15-19s-15-6-15-13-11-21-25-31-25-28-25-39c0-18-25-46-42-47-3 0 5 28 18 63 14 34 23 70 20 80-2 10 5 23 17 32 18 13 19 17 8 24s-10 11 6 19c24 13 30 90 11 122-11 17-10 22 0 29 9 6 12 20 8 45-5 31-3 36 13 36 11 0 35-9 54-20zm-464-29c12-16 21-38 21-49 0-12 4-23 8-26 11-7 7-46-8-81-8-16-15-47-16-68s-5-42-9-45c-12-13-50 47-69 109-13 41-25 63-38 67-10 2-18 13-18 25 0 11-3 17-7 14-3-4-12-2-19 4s-15 6-18 1c-7-12 26-111 48-145 9-13 21-39 26-56 8-29 7-31-20-31-16 0-30 7-34 15-3 8-9 14-13 13-4-2-9 1-10 6s-6 12-11 15c-16 10-82 119-82 135 0 19 52 58 110 83 25 11 56 24 70 31 43 18 67 14 89-17zm606-93c10-18 24-64 31-103 15-85 10-92-91-140-88-42-121-48-117-20 2 11 8 21 13 23s9 10 9 18 18 33 40 56c21 23 42 56 46 73 10 51 36 125 43 125 4 0 15-14 26-32zm-917-60c6-13 14-33 17-45 4-13 11-23 16-23s9-6 9-13 20-30 44-52c25-22 42-44 38-50-3-5-5-22-3-37 4-38-19-35-45 5-11 18-28 31-37 31-9-1-15 2-12 6 12 19-61 130-85 130-16 0-11 15 13 43 27 32 31 32 45 5zm-22-178c8 0 14-7 14-14 0-24 56-101 82-112 64-30 92-34 108-19 13 14 13 17 1 25-12 7-8 10 14 16 43 11 58-5 61-62 2-55-2-68-19-57-7 4-66 8-132 8-93 1-127 5-150 18-16 9-37 19-46 23-9 3-22 18-29 32-7 15-17 35-22 45-12 24 7 118 35 172l20 40 25-58c13-31 31-57 38-57zm409-50c16 0 26-35 13-48-6-6 0-8 17-5 14 3 30 14 36 24 18 34 39 23 39-20 0-38-1-39-44-45-31-5-45-12-49-26-3-11 1-21 9-24s14-13 14-22c0-12 7-15 29-12 18 3 38-2 53-13 26-20 19-36-9-19-13 8-26 9-45 1-27-10-39-31-18-31 6 0 10-7 10-16 0-8 5-12 11-8 6 3 15 1 19-7 7-10 12-10 23-1 19 17 27 5 27-41 0-38-1-39-18-24-36 33-105 14-83-22 11-18 72-32 87-21 15 13 24-17 24-87 0-59-10-70-88-97-39-14-42-14-52 4-5 10-10 34-10 54 0 19-5 38-11 42-7 4-7 9-2 13 8 5-19 266-27 266-2 0-8 31-13 73-2 18-12 41-22 52-14 15-15 23-6 33 6 8 7 18 3 22-4 5-2 6 3 2 6-3 17-2 25 4 8 5 21 7 28 4 8-3 19-5 27-5zm-187-67c7-3 16-2 19 1 4 3-2 6-13 5-11 0-14-3-6-6zm255-370c-33-6-48-29-32-49 40-48 100-32 82 22-10 30-16 33-50 27z" transform="matrix(.1 0 0 -.1 -16.347502 168.930124)"/></svg>