<svg height="86.648812pt" preserveAspectRatio="xMidYMid meet" viewBox="0 0 101.685768 86.648812" width="101.685768pt" xmlns="http://www.w3.org/2000/svg"><path d="m874 1199c-28-4-86-22-128-38-68-26-86-39-159-115-125-129-131-138-128-204 2-58 13-82 38-82 8 0 24-11 36-24 20-22 32-25 127-30 152-8 158-11 180-76 35-106 37-169 4-156-7 3-16 1-18-3-3-5-37-11-76-15-69-7-94-18-65-30 21-8 19-46-2-46-26 0-1-20 33-27 82-16 407-19 489-4 33 6 78 12 100 15 66 7 77 15 70 47-4 16-3 34 1 41 26 41-17 75-81 65-20-3-38-1-43 6-11 13-32 137-32 185 0 30 10 36 86 46 11 1 24 5 30 8 5 2 35 11 67 18 59 14 77 30 71 63-4 30-57 129-71 134-7 3-13 11-13 17 0 7-11 23-25 36s-25 29-25 35-13 26-28 43c-60 67-295 116-438 91zm78-163c-3-25-1-28 15-21 10 4 38 8 63 10s57 8 73 14c24 9 31 7 58-16 42-38 37-71-16-96-95-45-110-55-108-76 2-12-5-22-17-26-27-9-190 48-190 65 0 4-12 10-27 13-27 5-73-20-100-53-8-10-15-12-21-5-16 17 15 74 43 81 19 5 25 13 25 33 1 14 9 36 19 48 22 27 114 61 156 59 27-1 30-4 27-30zm-149-193c-7-2-21-2-30 0-10 3-4 5 12 5 17 0 24-2 18-5zm197-150c6-5-30-33-42-33-4 0-8 12-8 26 0 22 3 24 23 18 12-3 24-9 27-11zm110 8c0-12-26-21-60-21-33 0-49 16-23 23 32 8 83 7 83-2zm-50-110c29-21 38-62 16-80-18-15-92-19-105-6-4 6-11 34-14 63l-6 54 42-7c23-4 53-14 67-24zm30 405c-25-13-129-42-142-38-3 1-8-5-11-12-10-26 43-28 115-5 37 13 68 26 68 31 0 4 7 5 16 1 12-4 15-1 12 13-4 24-26 27-58 10z" transform="matrix(.1 0 0 -.1 -45.850417 120.589648)"/></svg>