<svg height="120.950765pt" preserveAspectRatio="xMidYMid meet" viewBox="0 0 105.397706 120.950765" width="105.397706pt" xmlns="http://www.w3.org/2000/svg"><path d="m626 1289c-114-39-148-62-250-163-73-72-86-91-101-142-9-32-20-63-24-69-4-5-13-30-20-55-8-25-19-65-27-89-8-26-10-50-5-60 4-9 11-38 14-66 3-27 12-62 19-77 11-24 19-28 59-28 26 0 71 5 100 11 30 6 60 11 68 12 10 2 14-19 16-93 1-52 5-120 9-150 9-62 17-56-94-64-63-4-90-15-90-37 0-14 7-19 30-19 17 0 41-7 55-16 19-12 28-13 45-4 16 9 25 8 36-1 10-8 18-8 27-1 9 8 32 8 81 0 51-9 73-8 87 0 12 8 20 8 25 1 7-12 63-9 82 4 7 6 15 7 18 5 3-3 42 3 87 13s99 19 120 19c20 0 37 4 37 9s7 17 16 26c29 29 10 46-49 44-67-2-87 7-58 28 12 8 19 19 16 24-7 11-8 143-1 182 3 22 1 27-10 23-8-3-14-2-14 2 0 13 36 30 76 37 58 10 172 52 190 69 8 9 20 16 26 16 5 0 8 6 5 14s1 20 9 26c15 13 20 55 6 46-5-3-9 7-9 22 0 57-14 102-31 103-10 0-12 3-4 6 6 2 12 10 12 16 0 26-21 87-35 100-7 8-20 30-29 51-8 20-20 36-25 36-6 0-11 6-11 14 0 17-96 106-115 106-8 0-17 5-20 11-4 5-31 21-61 35-30 13-54 29-54 34 0 6-9 10-21 10-11 0-17-5-14-10 7-11-16-10-25 1-3 4-23 9-45 13-30 4-62-2-129-25zm214-100c0-14-93-50-152-58s-125 5-121 24c1 6 23 14 50 19 26 6 53 15 58 22 6 7 19 14 30 16 28 5 135-13 135-23zm143-62 25-13-24-27c-13-15-32-27-43-27-24 0-30-8-33-46-2-28-4-29-57-30-33 0-56-5-59-12-2-7-7-10-12-7-4 3-30-2-56-10-58-18-57-17-49-6 3 6-19 10-55 10-36-1-87 8-127 22-44 14-68 18-71 11-2-6-10-8-18-5-28 10-13 38 39 73 68 46 61 44 104 23 49-23 164-24 213-2 19 9 62 22 95 29 33 6 67 16 75 20 21 12 24 12 53-3zm62-77c3-5 1-10-4-10-6 0-11 5-11 10 0 6 2 10 4 10 3 0 8-4 11-10zm68-117c-5-15-16-29-24-30-62-8-90-16-103-29-9-8-28-17-43-19-43-5-87-17-99-26-6-5-34-9-62-10-29-1-52-5-52-8 0-9-201 2-230 12-8 3-36 8-62 12-61 8-77 27-43 49 14 9 25 23 25 31 0 19 19 19 59-1 37-18 111-26 127-13 7 6 22 5 39-1 30-11 157-5 184 9 9 5 22 6 29 4 6-3 12-1 12 4 0 10 81 10 97 0s74 17 104 49c20 21 25 22 37 10 11-10 12-21 5-43zm53-49c-3-9-6-23-7-32-1-10-4-7-8 8-9 28-5 40 11 40 5 0 7-7 4-16zm-79-105c-36-31-46-46-41-61 4-13 1-19-8-17-30 4-48-2-48-16 0-17-45-21-55-5-9 15-23 12-44-9-18-18-26-19-88-9-37 5-93 9-123 8-87-3-201-9-252-14-65-7-85 1-92 35-4 21 0 34 17 51 26 27 70 28 157 4 75-21 173-27 234-14 28 5 60 11 71 13 37 5 110 27 130 38 23 14 115 34 160 36l30 1zm93 31c0-5-4-10-10-10-5 0-10 5-10 10 0 6 5 10 10 10 6 0 10-4 10-10zm-328-262c-9-9-12-7-12 12s3 21 12 12 9-15 0-24zm-97-18c3-5-1-10-10-10s-13 5-10 10c3 6 8 10 10 10s7-4 10-10zm-20-114c10-25 14-49 11-54-3-6-1-12 6-14 7-3 8-9 2-19-5-8-9-18-9-24s-31-10-71-10l-70-1 1 66c1 36 2 70 3 77 2 12 27 19 79 22 28 1 33-3 48-43zm110-4c-11-11-27 17-20 35 6 16 8 16 16-6 5-13 7-26 4-29zm-5-62c0-33-3-40-20-40-24 0-27 15-4 24 8 3 14 14 13 23-2 23 0 33 6 33 3 0 5-18 5-40zm-140-202c0-4 9-8 19-8 11 0 23-5 26-10 4-6 11-7 17-4 6 4 14 1 18-6 5-9 31-14 72-14 50-1 66 3 77 17 7 10 10 21 6 25s-10 1-12-5c-5-14-43-18-43-5 0 5-6 9-12 10-100 7-168 7-168 0z" transform="matrix(.1 0 0 -.1 -19.617448 131.519653)"/></svg>