<svg height="134.788352pt" preserveAspectRatio="xMidYMid meet" viewBox="0 0 154.162256 134.788352" width="154.162256pt" xmlns="http://www.w3.org/2000/svg"><path d="m689 1626c-13-15-32-23-55-24-48-2-165-80-194-129-24-40-34-115-20-141 5-10 11-29 15-44 6-29 51-78 73-78 7 0 15-6 18-14s15-17 27-20 31-19 42-36c32-48 65-41 127 25 50 54 76 70 65 40-4-8-2-17 4-21 6-3 8-12 5-20-10-25 54-114 81-114 8 0 11-4 8-10-3-5-1-10 4-10 6 0 10-3 9-7-3-10 72-83 84-83 5 0 6-5 3-11-4-6 2-13 14-16s21-11 21-18c0-8 9-17 21-20 11-4 24-18 29-31s16-24 24-24c14 0 28-35 31-83 2-15 8-34 15-43 11-12 8-19-21-44-36-31-59-38-59-17 0 23-146 83-193 79-12 0-24 3-28 9-3 5-16 11-27 12-12 1-22 5-22 9s-13 8-30 8c-29 0-40 13-21 25 14 8 9 45-6 45-7 0-13 6-13 13 0 48-74 127-118 127-7 0-15 7-18 15-9 22-90 55-134 55-49 0-91-24-121-69-12-20-31-45-40-56-43-50-40-162 7-236 15-24 37-62 49-83 15-30 30-44 60-54 40-14 42-14 95 21 59 37 181 133 191 149 7 10 56 1 64-13 3-4 12-6 20-2 8 3 15 0 15-5 0-6 10-14 23-17 58-18 117-49 117-61 0-17-14-18-40-2-15 10-23 9-39-6-12-11-21-25-21-32s-6-19-14-27-16-27-18-43c-2-20-8-29-21-28-9 1-32-12-49-28-31-29-35-30-91-23-51 5-59 4-54-9 3-8 1-17-6-19-18-6 12-37 50-54 18-7 48-13 66-13 19 0 40-6 46-14 14-16 45-11 83 16 32 22 47 23 54 3 7-18 34-19 69-3 19 9 34 8 64-2 29-9 43-10 60-1 17 10 25 9 37-4 18-17 75-20 90-5 8 8 24 6 54-4 35-12 69-13 188-6 80 5 158 6 173 3 14-3 42 2 60 10 19 9 49 18 67 22 17 4 32 11 32 16s7 9 15 9c10 0 15 10 15 26 0 26-2 26-44 22-44-5-45-5-48 26l-3 31-58-3c-63-3-98 14-128 66-11 20-25 28-51 30l-36 3 10 41c7 31 6 43-4 49-11 7-10 9 0 9 11 0 12 10 7 43-4 23-11 47-16 53s-6 14-2 17c3 4 1 12-5 19-5 7-20 47-32 88s-37 96-56 123c-19 26-34 51-34 55 0 5-9 28-21 51-11 24-18 49-16 56 3 7 25 14 49 17s59 12 78 20c19 9 49 21 67 28 17 6 40 21 49 31 16 18 16 25 5 62-7 23-15 55-18 70-3 16-22 41-44 59-21 17-39 40-41 52-2 15-16 25-48 36-25 8-49 18-55 21-5 4-25 10-42 14-80 17-161-47-227-179-44-90-48-130-19-172 14-19 19-39 16-55-4-23-1-27 31-32 21-3 53 0 76 8 45 16 45 15 81-60 13-27 30-56 37-63 7-8 10-18 7-23-4-5-1-9 4-9 6 0 11-6 11-14s3-16 8-18c12-5 50-90 57-128 4-19 11-40 17-46 5-7 10-28 12-48s6-39 9-42 1-17-5-30c-8-18-14-21-24-13-17 14-50-4-86-45-15-17-28-29-28-26-1 3-4 19-6 35-6 42-40 140-72 205-30 63-71 118-125 169-142 134-167 168-167 231 0 41 14 66 42 74 13 3 31 17 40 29 18 26 33 117 19 117-5 0-13 14-16 32-7 28-82 118-100 118-4 0-19 9-34 20-16 10-47 24-70 29-38 8-45 7-62-13zm19-188c23-22 42-46 42-53 0-21-100-105-125-105-19 0-44 72-38 110 7 44 39 90 62 90 9 0 36-19 59-42zm548-82c7-57-11-74-63-58-27 8-40 8-50 0-16-13-20-10-24 17-6 36 22 85 65 110l41 24 13-25c7-14 16-44 18-68zm218 19c-4-8-10-12-15-9-14 8-10 24 6 24 9 0 12-6 9-15zm-1000-515c15-5 31-21 38-35 10-23 7-29-48-79l-59-54-17 21c-26 33-23 90 8 126 28 33 39 36 78 21z" transform="matrix(.1 0 0 -.1 -25.837744 164.367585)"/></svg>