<svg height="94.28469pt" preserveAspectRatio="xMidYMid meet" viewBox="0 0 72.105964 94.28469" width="72.105964pt" xmlns="http://www.w3.org/2000/svg"><path d="m567 1220c-15-4-43-22-63-39-19-17-39-31-44-31-6 0-10-11-10-25 0-16-6-25-15-25s-19-10-24-22c-5-13-18-32-30-42-11-11-21-27-21-37 0-9-6-30-14-46-69-139-67-123-55-303 0-8 7-33 15-55 14-38 28-49 84-68 9-2 25-37 38-81 17-58 28-80 49-93 16-10 33-23 38-29 6-7 44-20 87-30 88-20 137-10 140 30 2 31 3 38 13 66 4 14 10 34 11 45 2 11 5 27 7 36 4 21 71 99 85 99 7 0 24 13 38 30 15 16 35 32 45 35 11 4 19 15 19 26s6 22 14 25c31 12 44 164 18 209-4 5-7 27-8 47s-11 50-22 66c-12 15-24 41-28 57-7 30-61 86-127 132-34 23-50 27-125 30-48 1-100-2-115-7zm161-90c64-17 150-115 167-188 7-35-9-46-20-12-3 11-12 20-19 20-6 0-21 7-31 15-44 33-93 62-124 73-40 14-116 16-139 3-26-14-60 14-46 37 30 48 134 74 212 52zm-63-190c3-5-1-10-9-10-9 0-16 5-16 10 0 6 4 10 9 10 6 0 13-4 16-10zm-45-283c0-5-8-16-17-24-16-13-16-13 5-3 23 11 23 11 38-38 5-18-24-60-47-67-32-10-22-28 11-21 24 4 32 2 37-12 4-9 11-20 16-24 13-8-65-48-93-48-32 0-59 31-60 70-3 128 33 198 93 182 9-2 17-9 17-15z" transform="matrix(.1 0 0 -.1 -28.462993 122.708362)"/></svg>