<svg height="154.478948pt" preserveAspectRatio="xMidYMid meet" viewBox="0 0 153.631487 154.478948" width="153.631487pt" xmlns="http://www.w3.org/2000/svg"><path d="m988 1710c-9-5-49-14-90-19-78-10-139-29-167-53-10-8-29-18-42-21-62-16-253-199-299-288-7-13-33-54-57-91-43-66-44-69-37-126l6-58 60-13c64-13 80-31 54-60-9-10-28-50-42-91-34-99-29-191 15-273l31-57-37-15c-20-9-43-13-50-11-8 3-33 3-57 0-39-6-43-9-43-35 0-37 38-53 105-44 27 4 112 8 188 10 77 2 191 8 254 13 88 7 118 6 130-3 10-8 32-11 64-8 26 3 58 0 70-5 11-6 62-16 111-22 50-7 97-13 105-14 9-1 20-5 26-8 20-13 249-1 314 16 93 25 170 66 170 91-1 26-23 55-43 55-22 0-31 18-18 34 19 23 19 98-1 191-10 50-20 105-22 124-2 18-9 38-15 44s-11 19-11 28-7 19-15 23c-24 9-17 20 25 39 36 17 40 23 41 55 0 20 2 49 4 64s-1 30-6 33c-5 4-9 16-9 29 0 12-3 26-7 30-4 3-8 12-10 19-1 7-6 26-9 42-9 37-32 75-48 75-6 0-24 23-41 51-28 47-125 139-147 139-5 0-23 9-39 21-16 11-36 18-45 15-8-3-17 1-21 10-3 8-12 13-19 10s-16-1-19 4c-4 6-16 10-29 10s-31 9-41 20c-10 12-25 18-32 16-7-3-15-1-17 3-8 12-168 13-188 1zm92-100c0-5-4-10-10-10-5 0-10 5-10 10 0 6 5 10 10 10 6 0 10-4 10-10zm-37-17c24-28 31-85 14-126l-16-36-111 4c-109 4-140 13-140 40 0 8-5 15-12 17-8 3-6 14 7 35 16 27 27 33 84 44 36 6 82 18 101 25 47 17 54 17 73-3zm389-135c31-22 51-80 46-136-3-31-9-40-44-59-52-29-136-33-183-10-19 9-39 17-45 17-15 0-16 33-3 97 7 39 15 54 31 59 12 4 23 10 26 13 3 4 19 17 35 29 35 26 93 22 137-10zm-736-62c52-11 60-42 33-117-13-35-30-68-38-74-19-12-141-36-151-30-17 11-19 59-5 109 12 41 27 65 61 96 31 29 49 39 57 32 7-5 26-13 43-16zm318-92c22-5 26-12 26-42 0-47-24-72-69-72-48 0-107 17-126 36-18 19-20 71-2 77 20 7 144 8 171 1zm526-128c-14-14-22-2-14 18 5 14 9 15 15 4 4-7 4-17-1-22zm90 20c0-3-4-8-10-11-5-3-10-1-10 4 0 6 5 11 10 11 6 0 10-2 10-4zm-460-16c0-5-7-10-15-10s-15 5-15 10c0 6 7 10 15 10s15-4 15-10zm-242-212c45-1 82-5 82-10 0-4 47-8 105-8 77 0 114-4 137-16 30-16 117-16 164 0 16 6 23 2 32-18 15-34-3-44-90-49-36-3-73-9-82-14-21-12-12-40 15-48 34-11 111-7 119 5 8 14 70 4 70-10 0-5-16-12-35-16-29-5-34-10-30-25 8-23-17-26-35-4-27 33-99 9-84-28 5-13 15-15 52-10 26 4 62 6 81 5 19 0 42 3 52 8 15 9 18 3 21-56 4-86-17-111-47-55-14 28-14 30 4 36 19 6 22 36 4 42-5 2-22-3-38-11s-32-13-36-10c-5 2-13-4-18-14-10-19-20-23-106-42-114-25-131-28-139-20-9 9-56-8-56-21 0-5 6-6 14-3s25 0 38-7 41-11 62-10c39 3 116-24 116-41 0-11-5-10-51 3-30 9-42 9-54-1-8-7-15-8-15-2 0 17-86 36-96 21-3-5-13-5-22 0-26 14-160 23-342 22-91 0-173 2-182 5-22 7-23 27-3 44 10 8 13 21 8 38-5 22-4 24 13 17 32-14 105-18 117-6 6 6 19 11 28 11 32 0 30 19-2 36-23 12-51 15-107 12l-75-3-9 30c-11 42 1 147 19 162 12 9 20 9 37-1 23-15 92-20 110-9 6 4 17 8 24 9 16 3 27 12 21 18-2 2-35 6-72 8-54 4-67 2-63-9 9-22-18-14-36 12-17 23-17 24 10 34 17 7 77 9 157 5 72-3 167-6 213-6zm-401-141c-6-17 57-47 96-47 15 0 27-4 27-9 0-11 63-21 89-14 12 3 21 10 21 15s-5 6-11 2c-7-4-19 3-29 16-12 16-29 23-61 25-24 1-57 7-72 14-37 15-54 14-60-2zm580-28c17-17 36-24 73-25 27-2 50 0 50 4 0 14-15 29-30 30-8 1-37 4-65 8l-50 5zm-52-80c-8-11 20-28 71-44 57-17 98-19 89-5-3 6 3 10 14 10 15 0 19 4 14 17-4 11-8 13-11 5-3-10-7-10-17-2-16 13-154 30-160 19zm202-341c2-5-3-8-11-8-9 0-16-7-16-15 0-18-17-20-22-3-3 9-47 13-164 14-87 0-169 4-182 8-14 5-34 2-52-8-17-8-28-10-25-5 4 5-3 9-14 9s-22-4-25-9c-6-8-26-7-80 5-20 5-27 3-22-4 3-6 1-14-5-18-8-4-9-3-5 5 6 9-8 11-56 9-57-3-63-5-66-25-3-18 2-23 20-24 13 0 39-1 58-2s64 3 100 8c72 9 77 9 136-3 23-5 64-6 93-2s54 3 57-2c7-11 57-10 90 2 16 6 31 7 36 2 13-13 121-4 130 11 6 9 10 9 17-2 16-24 221 13 221 41 0 4-6 8-12 9-123 10-205 12-201 7zm-557-48c0-5-2-10-4-10-3 0-8 5-11 10-3 6-1 10 4 10 6 0 11-4 11-10zm140-121c0-6 6-9 14-6s20 0 26-8c11-13 54-15 66-3 7 8-53 28-82 28-13 0-24-5-24-11zm115-9c19-21 37-18 28 5-3 8-14 15-26 15-19 0-19-1-2-20zm100 2c-3-7-10-10-16-6-7 4-10 1-7-7 9-27 148-16 148 12 0 21-117 22-125 1zm-49-15c3-10 9-15 12-12s0 11-7 18c-10 9-11 8-5-6z" transform="matrix(.1 0 0 -.1 -23.333333 171.839983)"/></svg>