<svg height="118.563121pt" preserveAspectRatio="xMidYMid meet" viewBox="0 0 173.398626 118.563121" width="173.398626pt" xmlns="http://www.w3.org/2000/svg"><path d="m1240 1571c0-5-8-7-19-4-30 8-96-15-150-52-28-19-58-35-67-35-21 0-110-45-132-67-9-9-17-21-17-27s-24-12-53-14c-33-2-52 1-48 6 3 6-17 16-45 22-41 10-66 10-120 0-38-6-69-16-69-21 0-4-6-6-13-3-14 5-137-53-137-65 0-3-11-18-24-33-54-57-80-315-42-423 23-69 53-132 66-140 6-3 8-10 5-15-9-14 44-87 66-93 11-3 22-5 25-5s18-12 34-27c26-25 35-27 131-31 147-6 145-6 239 11 113 21 169 36 176 46 3 5 12 9 20 9 20 0 106 55 98 63-4 4 0 7 10 7 27 0 66 51 59 78-4 15-1 22 10 22 17 0 27 21 27 55 0 12 7 36 15 51 21 41 20 61-2 43-13-11-15-11-9-1 11 18 14 82 4 88-4 3-5 11-2 18 6 15-42 50-56 41-5-3-12 0-16 6-4 8-3 9 4 5 23-14 12 23-14 47-16 15-22 27-16 31 20 12 79-30 141-100 34-38 66-69 71-69 13 0 50-46 75-95 34-66 57-154 54-202-2-26 1-43 9-46 7-2 12-24 12-57 0-38 4-54 15-59 8-3 15-10 15-16 0-5-7-10-15-10s-15-4-15-10c0-5-14-10-30-10-23 0-33-6-39-24-5-13-16-26-25-29-8-3-14-16-13-27 1-19 6-21 32-15 38 9 96 13 255 20 149 6 300 38 300 64 0 22-36 45-44 28-3-8-8-7-16 6-6 9-17 17-25 17-13 0-40 59-30 68 2 3-4 12-15 22-16 14-18 27-15 96 3 43-1 97-6 119-6 22-12 45-13 52s-5 15-8 19c-4 3-4 12-1 20 12 32-74 244-127 311-11 14-20 31-20 38s-7 15-15 19c-8 3-15 12-15 21 0 8-7 15-15 15s-15 7-15 15c0 20-31 55-43 48-6-3-7-1-3 5 3 6-5 19-20 29-14 10-34 25-43 33-9 9-31 22-49 29s-32 18-32 23-20 17-44 28c-24 10-46 22-49 27-8 12-117 15-117 4zm30-185c0-10-16-15-55-18-38-2-55 1-55 9 0 11 26 17 88 21 13 1 22-4 22-12zm150-38c0-5 9-8 20-8s20-4 20-10c0-5 9-10 19-10 11 0 26-6 33-13s21-16 31-20c22-8 22-23 1-31s-81 32-88 58c-4 16-8 17-20 7-16-13-56-6-56 10 0 5-6 9-14 9-15 0-16 16-3 38 6 9 14 8 32-5 14-10 25-21 25-25zm-340 22c0-5 7-10 15-10 29 0 14-26-46-80-58-50-62-52-75-35-16 22-18 35-4 35 6 0 10 7 10 15 0 9 16 31 35 50 33 34 65 46 65 25zm-386-125c-4-8-10-12-15-9-14 8-10 24 6 24 9 0 12-6 9-15zm916-66c13-33 28-63 34-67 15-10 39-53 32-59-3-3 1-12 9-20s15-23 15-34 7-30 16-44c14-21 14-26-1-54-34-67-70-16-60 88 5 50 3 62-5 49-6-10-15-18-20-18-6 0-10 8-10 18-1 9-9 35-20 57s-19 49-20 61c0 11-5 25-11 31-7 7-13 23-14 36-2 19 1 24 15 20 11-3 27-28 40-64zm-693 5c18-27 21-40 13-54-11-20-47-36-58-25s-9 100 2 107c17 12 19 10 43-28zm233-64c16-11 38-41 51-68 12-26 26-49 29-52 10-7 10-70 0-70-4 0-17 18-29 39-21 42-88 110-107 111-18 0-35 26-28 44 8 22 50 20 84-4zm-400-15c0-8-6-15-12-15-12-1-105-66-156-110-28-24-45-25-62-5-7 9-17 14-23 12-13-4-67 51-67 69 0 21 65 32 117 20 22-5 39-3 55 7 13 9 43 15 67 15 24 1 49 6 54 11 15 15 27 14 27-4zm55-104c3-6-9-26-26-46-19-21-29-42-27-53 3-10-1-27-8-37-12-16-14-16-29-1-9 9-31 24-47 32l-31 16 34 26c34 27 108 71 121 72 4 0 9-4 13-9zm273-35c47-50 48-102 3-129-41-24-212-24-256 1-15 8-11 15 24 56 32 36 43 44 47 32 3-9 4-23 1-31-4-8-2-17 4-21 5-3 7-15 4-25-6-18-3-20 32-17l38 3 5 70c3 39 9 76 13 83 15 22 52 13 85-22zm-592-83c27-12 56-24 64-27 8-4 29-15 45-26 64-42 214-94 240-84 7 3 15-2 19-12 5-13 14-15 46-10 23 4 40 2 40-3s10-11 22-13c19-3 16-7-22-32l-43-28-141 4c-165 6-227 23-281 76-19 19-35 41-35 47 0 7-9 41-20 75-26 81-26 101-2 74 10-10 40-29 68-41zm1221-93c2-22-4-24-26-11-15 10-7 31 12 31 7 0 13-9 14-20zm31-92c17-17 15-26-7-38-25-13-51-3-51 20 0 28 37 39 58 18zm7-110c24-4 33-37 13-49-40-26-83 5-74 53 3 13 5 25 5 27 1 2 9-3 19-11 9-9 26-18 37-20z" transform="matrix(.1 0 0 -.1 -28.601374 157.786905)"/></svg>