<svg height="126.921608pt" preserveAspectRatio="xMidYMid meet" viewBox="0 0 95.886727 126.921608" width="95.886727pt" xmlns="http://www.w3.org/2000/svg"><path d="m465 1459c-38-9-103-60-146-114-8-11-38-46-66-78-42-47-59-79-94-174-46-125-51-175-35-316 10-84 23-98 121-122 41-10 93-28 117-39l42-21-1-85c-2-99 14-197 36-223 11-13 12-20 3-25-8-6-4-16 13-36 23-27 30-29 92-27 135 3 203 20 227 56 19 29 22 125 4 125-6 0-3 7 8 15 11 9 14 14 6 15-9 0-10 5-3 17 5 10 5 26 1 39-13 34-1 94 19 94 9 0 28 6 42 14 14 7 38 16 54 20 54 14 76 48 125 196 61 182 60 265-5 403-52 113-111 162-250 207-22 7-67 25-100 39-65 29-140 36-210 20zm93-146c2-13 8-23 13-23 6 0 7-5 3-11-4-7-1-10 7-7 8 2 20 17 27 31 13 27 32 37 32 17 0-6 9-20 20-32 21-23 26-38 11-38-5 0-7-9-4-19 7-28-14-61-40-62-17-1-18-2-4-6 10-3 20-17 24-34 6-32 17-44 51-52 30-7 89 10 96 28 10 27 43 17 56-17 8-18 20-41 28-51 19-22 7-35-18-19-33 20-53 16-43-10 4-13 6-44 5-70-2-42 0-48 17-48 11 0 27 7 36 16 26 26 43 11 36-32-10-59-66-87-207-102-61-6-119-9-130-7-51 10-158 14-144 5 13-9 13-10 0-10-9 0-21 5-27 11s-35 12-64 14c-103 5-118 15-125 90-2 17-1 44 3 60 5 29 6 29 14 8 10-27 53-32 63-8 8 21-14 54-39 57-27 4-24 59 4 87 12 12 21 32 21 46s6 25 13 25c6 0 19 15 28 33 16 32 47 45 40 17-2-8-4-34-5-58-3-58 13-70 67-51 34 11 44 21 53 48 9 28 8 40-5 62-21 37-65 56-86 39-17-14-34-5-19 9 5 5 38 28 74 50 73 45 113 50 118 14zm50-775c-35-25-40-78-8-78 11 0 23 7 26 15 4 8 14 15 23 15 16 0 16-6 12-87-1-7-12-13-25-13-47 0-122-42-110-62 3-4-1-8-10-8s-18 18-25 50c-14 65-14 70 3 70s25 20 28 70c1 19 3 37 4 40s26 6 56 7l53 2zm66 444c-26-22-54-74-54-100 0-24 35-56 50-47 6 4 22 8 36 10 28 3 26 1 42 37 13 31 3 69-25 100-20 22-23 22-49 0zm-296-40c-9-9-16-26-17-37-4-46-2-67 6-75 13-12 73 1 73 16 0 8 5 14 10 14 19 0 10 46-12 67-36 32-44 34-60 15z" transform="matrix(.1 0 0 -.1 -11.568198 146.753356)"/></svg>