<svg height="146.770254pt" preserveAspectRatio="xMidYMid meet" viewBox="0 0 127.226126 146.770254" width="127.226126pt" xmlns="http://www.w3.org/2000/svg"><path d="m755 1760c-179-10-226-52-373-330-38-71-73-191-87-290-7-54 11-94 44-98 13-2 25-11 28-21 4-14 74-64 133-94 8-4 29-16 45-26 17-11 58-33 93-50 56-27 80-51 51-51-7 0-8-16-3-52 4-29 7-69 6-88-2-19 2-64 9-99 13-72 7-83-46-79-23 2-31 9-36 33-8 30-40 127-45 133-1 2-11-1-22-7-16-9-18-17-12-48 3-21 13-55 21-76 9-26 10-40 3-45-16-11-24-51-11-59 6-4 54-8 107-9 90-1 176-12 167-20-9-9-119-34-127-29-5 3-11-1-13-7-4-10-8-10-15 1-9 13-32 8-32-8 0-15 50-31 79-25 16 4 32 1 35-5 9-14 162-15 171-1 3 5 24 7 46 5 43-4 69 11 82 48 4 10 17 17 31 17s27 4 30 8c3 5 19 7 35 4 27-4 93 25 111 48 3 4 18 10 34 14 21 5 27 11 23 26-3 11 2 25 10 31 10 9 13 25 10 55-3 23-1 46 4 51 4 4 4 15-1 23-9 13-11 13-19 1-5-8-16-11-24-8-11 4-17-8-26-53-10-51-16-61-47-79-19-12-41-21-47-21-22 0-17 38 7 54 21 13 23 23 24 90 1 60-2 76-14 76-8 0-14 6-14 14 0 7-7 19-15 26-9 7-14 19-11 27s-1 30-9 50c-24 58-20 71 28 83 23 6 69 20 102 30s80 24 103 30c56 14 153 64 176 89 14 15 15 23 6 40-6 12-10 27-8 34 3 15-8 48-38 114-13 28-24 56-24 62 0 11-42 103-63 136-48 78-149 183-189 197-16 6-28 16-28 23 0 37-220 117-310 113-25-2-90-5-145-8zm26-139c49-39 22-178-42-219-36-23-86-18-94 9-4 10-13 19-20 19-21 0-30 64-14 103 18 46 27 56 78 82 56 29 63 30 92 6zm409-166c40-38 67-124 49-157-23-44-88-86-136-89-52-4-91 12-127 51-36 40-39 67-10 91 8 6 14 23 14 38 0 14 9 37 20 51s20 31 20 39c0 10 16 12 70 9 60-3 73-7 100-33zm-786-234c-4-19-10-29-16-23-5 5-4 20 2 37 6 15 13 26 15 23 3-3 2-19-1-37zm-4-62c0-6-4-7-10-4-5 3-10 11-10 16 0 6 5 7 10 4 6-3 10-11 10-16zm510-44c25-12 50-32 56-44 17-32 6-68-25-80-33-14-130-21-136-10-3 4-24 11-48 14-34 6-45 13-58 38-9 18-14 38-11 45 2 7 32 26 65 42 68 32 85 32 157-5zm205-15c3-6-1-13-10-16-19-8-30 0-20 15 8 14 22 14 30 1zm-580-30c3-5 2-10-4-10-5 0-13 5-16 10-3 6-2 10 4 10 5 0 13-4 16-10zm268-263c-6-41 15-64 45-48 26 14 31 7 25-38-5-33-2-39 18-46l24-8-23-4c-25-5-46-37-38-58 7-20 74-36 118-29 21 4 38 3 38-2-1-22-19-32-70-38-30-4-68-12-83-18-25-10-32-8-55 15-25 26-26 29-27 167-1 126 1 140 17 140 13 0 16-6 11-33zm207 18c0-17-4-18-37-9s-28 24 7 24c20 0 30-5 30-15zm-2-58c3-21-1-27-17-27-11 0-23 5-26 10-4 6-15 8-26 5-32-11-21 14 14 29 41 18 51 15 55-17zm10-68c-2-6-8-10-13-10s-11 4-13 10 4 11 13 11 15-5 13-11zm179-45c-3-3-12-4-19-1-8 3-5 6 6 6 11 1 17-2 13-5zm261-74c-10-30-12-52-7-56 13-8 1-46-19-61-10-9-12-13-3-13 24 0 50 20 45 35-4 9 0 15 10 15 12 0 16 9 16 34 0 19 5 38 10 41 6 3 10 12 10 18 0 8-3 8-9-1-7-11-9-11-14 2-4 10-1 16 8 16 8 0 15 5 15 10 0 6-10 10-23 10-19 0-26-9-39-50zm-1056-2c-17-17-15-32 6-67 40-66 102-90 102-38 0 33-91 122-108 105z" transform="matrix(.1 0 0 -.1 -29.382915 176.779016)"/></svg>