<svg height="144.123822pt" preserveAspectRatio="xMidYMid meet" viewBox="0 0 131.67177 144.123822" width="131.67177pt" xmlns="http://www.w3.org/2000/svg"><path d="m960 1780c-92-8-210-53-265-101-11-10-41-29-67-43-43-23-78-49-120-88-10-10-22-18-27-18s-17-12-27-27c-17-26-24-37-51-88-30-56-60-296-46-378 5-34 7-35 48-35 24 0 52-5 62-11 11-5 78-13 149-16 71-4 137-11 146-16 12-6 19-23 20-47 0-20 2-48 3-62s5-90 9-170c8-185 19-229 57-237 23-4 31-13 41-47 6-22 13-42 14-44s44-6 96-8c101-5 149 2 245 36 66 24 80 45 57 85-15 26-34 124-35 178 0 15-5 27-11 27-7 0-7 4 0 13 5 6 9 53 8 102-1 50 0 95 3 100 3 6 7 21 8 35 8 90 12 98 62 109 25 5 75 13 111 17 58 5 157 37 170 55 3 3 15 9 28 13 13 5 22 15 22 28 0 38-97 321-123 362-10 14-17 29-17 34s-22 29-50 54c-27 25-50 50-50 55 0 12-120 74-150 77-26 3-105 29-146 48-26 12-91 15-174 8zm51-153c-1-12-15-9-19 4-3 6 1 10 8 8 6-3 11-8 11-12zm-74-29c-2-21 2-23 48-24 28 0 55 4 62 9 18 13 110 17 139 6 61-23 68-66 9-55-25 5-37 1-59-19-34-32-26-45 22-39 48 7 82 24 82 41 0 21 28 15 59-13 29-25 32-54 6-54-7 0-18-6-25-14-6-8-18-12-25-10-8 3-24-4-36-15-13-12-26-21-31-21-4 0-8-7-8-15 0-22 52-19 73 5 9 11 25 20 34 20 10 0 32 9 49 19 31 19 32 19 48 0 33-39 17-69-56-102-21-9-38-22-38-28 0-7-11-8-31-4-23 5-34 3-44-11-11-16-9-22 16-45 16-15 29-36 29-47 0-12 9-22 22-26 36-9 8-26-54-33l-55-5 2 48c2 50-11 94-28 94-5 0-7-7-3-15 3-8 2-15-2-15-9 0-8-82 1-97 8-13-12-21-63-26-22-2-24 1-21 39 2 34-2 45-21 58-12 9-25 16-29 16-10 0-31-75-27-99 3-21-3-25-45-36-54-14-59-10-54 39 1 20-4 32-18 40-11 6-23 16-27 21-5 6-6-9-3-32 3-26 1-43-5-43-5 0-19-9-30-20-21-21-46-25-66-12-9 5-9 21-1 60 9 44 9 55-3 62-11 7-17 4-22-8-6-16-7-16-7 1-1 29-19 19-26-15-4-18-12-38-17-45-5-6-8-20-6-30 3-16-5-18-57-19-78-1-105 5-105 23 0 8 4 12 8 9 8-5 123 27 144 40 16 10-5 23-44 26-25 1-38 7-41 19-6 24 1 29 38 29 17 0 40 7 51 15 10 8 27 15 36 15 26 0 31 18 13 46-11 17-22 23-33 19-9-4-21-7-27-8-5-1-15-8-21-16s-18-12-25-9c-18 7-53-17-45-31 4-5 2-12-4-16s-8-11-5-16c4-5 0-9-7-9-17 0-47-51-40-69 3-8 0-11-7-7-16 10-7 142 14 208 18 54 29 72 46 74 5 1 13 2 18 3 5 0 28 19 50 41 36 36 46 40 108 46 73 7 101 20 83 38-20 20-9 34 43 49 77 23 97 22 94-5zm547-294c19-49-7-84-66-89-32-2-46-8-54-24-18-35-28-30-31 15-2 40-2 41 60 77 69 41 82 44 91 21zm-334-314c-19-12-30-12-30-1 0 10 31 20 40 14 2-2-2-8-10-13zm73-41c-1-8-4-40-8-71-6-58-18-78-31-57-11 19-7 100 7 126 13 25 35 26 32 2zm-113-30c0-5 4-8 9-5s14-1 21-10c10-11 10-18 2-26-7-7-12-20-12-31 0-12-11-23-30-30-21-8-30-18-30-34 0-19 5-23 30-23h30v-64-64l-35-12c-55-18-39-48 30-53 14-2 21-13 28-46 5-25 5-47 0-52-14-14-128-33-147-26-15 6-16 18-9 109 4 57 7 157 6 224l-2 121 32 16c37 18 77 22 77 6zm97-199c-1-47-6-70-14-70s-11 13-9 38c2 20 4 52 5 70 0 17 5 32 10 32 6 0 9-31 8-70zm2-132c1-5-3-8-9-8-5 0-10 12-9 28 0 24 1 25 9 7 5-11 9-23 9-27zm-596 854c-16-11-16-14-3-22 17-11 26-12 98-11 58 0 92 14 92 37 0 13-14 15-85 12-48-2-92-9-102-16zm806-637c-2-13-5-29-8-35-4-8-10-70-14-148-3-62-1-74 14-83 24-12 45 22 30 49-10 19-9 60 1 77 10 16 0 127-11 138-6 6-11 7-12 2zm-769-143c0-30 26-91 45-104 5-4 10-31 11-61 2-68 13-90 45-85 19 2 25 10 27 38 3 31-24 138-39 150-3 3-12 20-20 37-15 35-42 55-33 25 4-12-1-10-15 7l-21 23zm940-47c0-8 5-14 11-12 6 1 14-4 16-10 3-7-2-13-9-13-20 0-58-42-63-70-3-13-10-27-16-31-6-3-8-16-5-27 9-27 39-18 71 20 20 23 23 33 15 54-13 33-13 34 4 34 22 0 28 31 10 51-21 23-34 24-34 4zm-1190-41c0-19 34-74 46-74 8 0 14-7 14-15s9-19 20-25 20-17 20-24c0-30 80-60 95-36 8 14-102 148-136 166-29 14-59 19-59 8z" transform="matrix(.1 0 0 -.1 -35.32823 178.370483)"/></svg>