<svg height="126.106476pt" preserveAspectRatio="xMidYMid meet" viewBox="0 0 155.451399 126.106476" width="155.451399pt" xmlns="http://www.w3.org/2000/svg"><path d="m796 1529c-21-5-52-20-68-34s-33-25-36-25c-4 0-29-20-57-45-27-24-56-45-63-45-41-1-232-173-248-224-4-11-13-26-20-34-8-7-11-18-8-23 3-6-4-13-15-16-38-10-67-93-41-119 5-5 11-24 13-42s12-39 23-46c11-8 64-17 122-21 56-4 102-12 102-17s-8-22-18-36c-49-70-46-184 5-228l27-23-25-5c-13-2-73-9-133-16-61-6-118-18-130-26-11-8-35-14-53-14s-33-4-33-9c0-13 64-23 153-25 42 0 77-4 77-7s31-11 68-18c75-13 222-7 233 10 4 6 26 13 50 15s62 6 84 9c63 9 546 11 551 3 6-10 75 3 101 19 17 11 42 13 115 7 99-7 108-4 122 42 9 30-75 59-150 51-29-3-56-2-59 3s8 23 25 40c20 21 30 41 31 63 0 18 2 40 4 51 6 29-35 124-65 151-29 27-26 52 9 60 16 3 35 13 42 21 6 8 18 14 25 14 8 0 14 4 14 9s10 11 23 13c16 2 23 11 25 32 4 31-37 133-73 181-12 17-25 42-29 57-8 34-104 127-159 155-107 55-145 63-357 83-63 6-126 12-140 14-14 3-42 0-64-5zm180-149c19 0 24-5 24-25 0-14 5-25 12-25 9 0 9-3 0-12-33-33 13-72 85-72 18 0 33-4 33-8s-10-8-22-8c-16 0-19-3-11-11 7-7 22-9 40-4 43 11 93 13 99 3 9-15 32-8 55 17 30 31 44 31 74-1 33-35 32-46-10-90-23-24-33-43-30-55 3-10 0-21-8-26-8-4-16-17-19-28-3-17-12-20-66-21-53-1-62 1-62 17 0 9-8 25-17 35-10 10-22 27-28 38-6 12-31 35-56 52-37 24-58 31-105 33-52 2-63-1-84-24-13-14-32-25-42-25-25 0-51-62-43-101 11-48-4-56-115-58-97-2-112 3-88 27 8 8 7 22-6 57-10 25-21 45-25 45-12 0-71 56-71 67 0 5 14 19 30 32 26 19 31 20 36 6 3-8 13-15 21-15 7 0 13-7 11-17-2-11 7-19 32-26 20-5 36-5 37 0 2 5 16 8 31 5 20-2 36 4 57 25 17 15 39 32 49 38 28 15 58 76 52 106-4 22 0 27 37 41 23 8 48 14 55 12 8-2 25-4 38-4zm212-35c57-26 65-45 28-64-20-11-31-9-85 18-113 58-60 101 57 46zm209-11c-3-3-12-4-19-1-8 3-5 6 6 6 11 1 17-2 13-5zm-657-28c0-20-65-56-101-56-45 0-31 20 26 38 28 9 52 20 53 24 6 13 22 9 22-6zm291-226c28-22 55-40 60-40 16 0 10-29-8-38-22-12-213-22-213-12 0 4-3 22-7 40-4 23-3 31 5 26 6-3 13 3 17 14 7 21 48 47 78 49 10 1 40-17 68-39zm429-6c0-16-43-29-61-19-8 6-5 13 12 25 25 19 49 16 49-6zm-975-38c46-42 42-62-14-68-59-5-74 17-51 76 12 34 20 33 65-8zm665-145c0-5-13-12-30-16-42-9-40-34 3-29 17 2 33 8 35 14 2 5 10 6 18 3s20-1 27 5c17 13 44 12 102-3 46-13 52-18 74-65 31-65 37-139 13-147-9-3-30-11-47-18-16-8-61-14-100-14-269 0-287 0-280-11 6-9-27-8-35 1-3 3-32 0-65-8s-69-15-80-17-27-6-35-9c-39-14-98-14-112 0-8 8-21 15-29 16-8 2-26 13-41 26-25 22-27 29-23 84 2 33 8 63 12 66s18 24 30 46c18 33 28 40 55 42 18 1 74 7 123 12 50 5 126 12 169 16 44 3 81 7 83 9 9 8 133 5 133-3zm69-74c-26-12-61-28-78-35-25-11-28-16-18-26 7-7 24-16 39-19 21-6 30-2 42 15 8 11 27 23 42 24 33 4 80 44 51 44-9 0-17 5-17 10 0 14-8 12-61-13zm-532 0c-40-16-28-32 28-35 50-3 69 5 57 25-11 17-54 23-85 10zm588-97c-11-5-35-9-52-9-35-1-42-11-18-31 20-17 114 12 123 38 4 14-24 15-53 2zm-577-7c-10-2-18-11-18-20 0-12-3-13-14-3-10 7-21 8-31 3-25-14 1-30 55-35 56-5 73 8 53 39-9 13-18 22-22 22-3-1-14-3-23-6zm312-291c-27-2-52-11-62-22-16-18-15-18 50-16 37 1 74 6 81 10 8 5 12 5 9 0-4-5 73-9 183-9 155 0 191 3 199 15 5 8 7 17 4 21-2 4-73 7-157 6-112-2-158-6-174-17-18-12-24-12-38 0-19 16-32 18-95 12zm-202-17c-3-3-28-7-54-9-27-2-74-9-104-16s-68-14-83-15c-33-4-41-10-32-24 9-16 47-13 91 5 22 9 73 18 114 20s100 9 130 15l55 12-33 9c-24 6-38 5-50-4-12-10-14-10-8 0 7 12-15 18-26 7zm252-75c0-5-6-7-14-4s-36-4-62-15c-53-24-71-26-76-10-3 8-13 6-33-5l-30-17 27 6c15 3 30 1 33-5 12-20 152 15 166 41 6 13 6 19-1 19-5 0-10-4-10-10z" transform="matrix(.1 0 0 -.1 -14 153.533487)"/></svg>