<svg height="138.837778pt" preserveAspectRatio="xMidYMid meet" viewBox="0 0 132.960439 138.837778" width="132.960439pt" xmlns="http://www.w3.org/2000/svg"><path d="m683 1454c-61-12-106-34-117-57-3-7-17-30-31-52s-28-47-32-55-13-20-21-26c-7-5-12-19-10-30 2-15-4-20-32-22-78-8-242-224-242-320 0-24 3-46 6-49 3-4 1-12-6-20-9-11-5-13 26-10 21 3 70-4 110-14 39-10 83-19 97-19s28-3 31-6c7-6-4-43-39-131-23-58-29-97-23-164l3-27 56 13c80 18 189 27 195 16 10-15 13-142 7-226-7-75-5-82 18-113 40-55 90-72 203-69 94 2 97 3 122 32 34 38 39 61 28 110-9 41-8 97 2 223 5 60 4 73-9 78-15 6-22 34-8 34 4 0 20-4 37-9 17-6 58-18 90-27 33-9 71-23 85-30 45-24 101 8 101 57 0 28 19 52 21 27 1-7 5 5 9 27 8 42-6 141-23 163-19 24 3 25 53 2 53-25 72-20 85 21 4 10 12 19 18 19 20 0 34 33 30 75-2 22-4 49-5 60-2 31-37 135-61 178-12 22-28 50-35 63s-19 24-27 24-18 7-23 16c-6 10-29 17-70 21-42 4-67 12-78 24-18 20-16 22 34 19 34-2 46 22 16 34-8 3-13 10-10 15 9 14-4 41-19 41-8 0-24 13-37 29-37 47-74 60-143 51-76-10-111-26-153-70l-33-35-42 45c-68 74-82 79-154 64zm42-116c48-42 75-69 75-78 0-13-23-13-37 1s-87 3-102-15c-10-12-71-10-71 2 0 3 12 25 28 49 21 35 32 43 50 40 12-2 25 0 28 4 7 12 12 11 29-3zm366-17c24-19 56-88 45-98-3-3-12 0-21 7-12 10-21 8-51-15-47-36-81-29-82 17-1 32 20 73 31 62 3-4 9 5 13 20 7 31 31 34 65 7zm-381-120c0-6-11-22-24-36-25-27-25-27-56-9-39 23-34 37 16 45 61 10 64 10 64 0zm490-76c0-8 5-15 10-15 6 0 10 4 10 10 0 15 43 22 73 11 17-7 35-27 49-56 12-25 25-45 29-45s17-28 29-61l23-61-24-19c-31-23-82-35-87-20-2 6-10 11-18 11-28 0-134 55-140 72-3 10-9 18-13 18s-17 9-30 21c-12 11-28 19-35 16-8-3-6 13 8 54 12 32 27 59 33 59 7 0 13 5 13 10 0 6 16 10 35 10 24 0 35-5 35-15zm-303-7c40-33 83-77 83-87 0-14-28-25-110-44-62-14-66-13-86 5-19 16-28 18-58 10-48-14-56 2-20 37 44 42 121 83 167 90 4 0 15-5 24-11zm-354-48c14-11 30-20 36-20 15 0 14-21-4-75-9-25-15-53-13-63 3-15-8-18-77-22-90-6-168 14-173 43-4 19 46 112 55 104 3-3 26 8 51 24 54 34 90 37 125 9zm565-216c4-7 16-13 26-15 25-5 44-68 24-80-7-5-21-6-31-3-20 6-75-15-81-33-7-16 63-27 97-14 20 8 30 7 42-5 20-21 10-34-25-34-16 0-32-4-35-10-10-16-111-12-125 5-7 8-19 15-26 15-8 0-14 4-14 10 0 5-13 7-30 4-26-6-30-4-30 15 0 54 58 136 110 153 26 9 90 3 98-8zm-490-120c35-2 58-14 29-14-20 0-21-6-4-25 10-11 16-9 38 11 22 21 29 23 55 14 16-6 37-22 48-36 18-26 18-26-2-20-14 5-25 1-34-13-8-11-36-25-64-32-27-6-59-15-72-20-43-17-82-11-91 14-11 29-3 83 15 98 8 6 14 18 14 26 0 11 5 13 18 7 9-4 32-8 50-10zm587-135c-8-12-42-12-50 0-3 5 5 11 17 13 28 5 40 0 33-13zm-403-110c4-13 63-16 101-5 24 7 27 6 27-16 0-27-54-83-80-83-9 0-14-10-14-25-1-20 5-26 28-28 16-2 33 1 39 7 25 25 39 12 32-26-8-46-13-52-25-33-7 12-12 12-28-3-10-9-27-17-38-17-15 0-20-7-19-27 0-25 4-28 38-31 47-4 49-22 3-22-22 0-44 8-60 22-22 20-26 34-31 108-4 47-11 90-17 97-5 7-6 18-2 25s7 25 6 40c-2 22 2 28 17 28 11 0 21-5 23-11zm458 581c-12-8-11-10 7-10 12 0 25 5 28 10 8 13-15 13-35 0zm-40-29c1-24 18-29 43-13l26 18h-34c-19 0-35-2-35-5zm-59-20c-10-6-10-10-1-16 7-4 19 0 28 9 14 13 14 16 2 16-8 0-21-4-29-9z" transform="matrix(.1 0 0 -.1 -19.391895 146.08994)"/></svg>