<svg height="118.824158pt" preserveAspectRatio="xMidYMid meet" viewBox="0 0 182.02547 118.824158" width="182.02547pt" xmlns="http://www.w3.org/2000/svg"><path d="m1082 1411c-62-21-122-47-135-57-12-11-34-26-49-33-25-13-30-11-58 13-17 14-49 29-71 32-21 4-39 10-39 15s-29 7-64 5c-47-3-79-12-115-32-28-15-51-30-51-34s-19-28-42-53c-86-91-121-194-119-339 2-94 4-105 22-158 7-19 13-41 15-48s12-16 21-19c22-8 52-43 53-60 1-32 230-36 319-6 31 10 58 20 61 23 6 6 32 11 77 14 18 1 43 7 55 13 125 60 160 80 203 113 27 22 53 49 58 62s6 56 2 95c-6 62-4 74 9 79 25 10 83-35 118-91 18-27 36-52 39-55 4-3 11-18 14-33 4-15 11-30 16-33s9-17 9-32 7-36 15-46c17-23 20-62 5-71-6-4-8-11-4-16 3-5-11-41-30-80-20-39-36-76-36-83 0-6-9-20-21-29-16-14-19-25-14-45 9-36 76-104 93-93 19 11 5 79-17 83-20 5 44 42 74 44 51 3 61 6 83 24 20 17 22 22 11 42-8 14-14 18-17 10-2-6-13-12-23-12-18 0-20 5-13 48 7 51 18 70 29 52 5-8 11-6 21 7 17 23 18 37 0 30-11-5-14 8-13 60 1 61 3 67 29 82 39 23 42 39 8 46-24 5-33 16-50 61-11 30-20 59-20 64s-25 38-56 75c-60 70-100 96-179 113-118 26-142 30-172 25-25-4-32-1-38 16-4 12-1 28 5 36s11 22 10 32c-3 24 10 63 21 64 63 6 74 3 77-27 2-16 6-36 9-44s5-21 4-27c-1-7 2-13 7-13 18 0 34 31 37 71 2 22 5 42 7 44s24-2 51-8c46-10 47-11 47-48 0-35 2-38 28-36 20 2 28 8 30 26 3 19 8 22 30 16 15-3 37-16 50-29 21-21 22-24 7-52-14-28-20-64-10-64 2 0 21 9 42 21l37 21 18-22c17-21 17-24-4-61-12-22-25-39-30-39-13 0-9-27 6-39 10-8 19-5 40 14 14 13 26 29 26 35 0 20 20 9 35-20 20-38 19-39-10-50-50-19-23-73 32-66 25 4 32 0 37-17 9-34 7-47-7-47-21 0-46-33-43-55 4-24 19-29 47-14 19 10 25 9 36-7 7-10 13-28 13-41s7-26 15-29c8-4 12-10 10-15-3-4 1-35 10-68 20-77 19-91-4-91-10 0-21-7-25-15-7-20-79-20-96 0-15 18-38 4-39-23-1-9-3-30-5-47-1-16-4-45-4-62-2-34-22-47-22-15 0 21-29 52-48 52-27 0-5-85 34-139 2-2 21 3 42 12 23 9 44 12 52 7s18-6 23-3c4 3 11-4 14-16 7-29 53-30 53-1 0 11 5 20 11 20s9 11 7 24c-4 29 77 114 86 90 9-23 27-16 39 16 6 17 16 30 22 30 5 0 5 4-2 8s-13 23-14 42c-2 19-6 40-9 45-9 14-26 83-46 185-9 48-23 89-31 93-12 7-12 11-1 24 10 13 10 17 1 20-8 3-11 14-7 30 7 26 5 33-44 133-51 104-207 270-292 312-111 53-133 59-265 73-40 4-72-3-163-34zm-12-178c0-32-4-63-8-69-13-19-41-23-56-9-24 25-39 18-33-13 5-24 0-35-29-61-26-25-33-38-28-56 5-20 3-22-20-18-14 3-26 10-26 15s-10 18-22 27l-21 18 24 39c13 21 23 41 23 44s24 27 53 55c47 43 112 84 136 85 4 0 7-26 7-57zm-276 14c17-12 17-14-1-47-20-37-51-76-56-69-29 41-35 115-9 122 32 9 48 7 66-6zm-191-37c-8-29 30-125 56-146 8-6 11-15 8-21-3-5 14-32 38-59 25-27 45-51 45-54s14-14 30-23c17-10 30-25 30-33 0-15 25-28 74-39 37-8 23-21-31-28-35-4-47-1-70 19-15 13-31 24-35 24-5 0-8 9-8 20s-11 27-24 36c-14 8-28 29-31 45-4 17-9 28-13 25-3-3-17 1-30 10l-25 17 21-34c11-19 30-53 42-76 12-24 35-54 51-67 16-14 29-28 29-33-1-4-17-16-37-25l-36-17-46 39c-25 22-57 53-71 70-27 32-50 39-50 15 0-19 60-83 92-99 13-6 24-18 26-27 2-12-9-15-62-13-36 2-72 6-79 11-19 11-37 47-37 72 0 12-6 21-12 21-9 0-13 19-12 64 1 36-2 82-6 103-6 39 1 61 33 97 9 11 17 23 17 28s20 28 44 53c46 48 88 61 79 25zm522-228c24-45 23-82-3-82-36 0-157 72-141 83 32 23 61 37 69 32 5-3 12-1 15 5 13 21 37 5 60-38zm635-542c0-18-36-38-47-26-9 9 27 57 37 51 6-4 10-15 10-25zm-786 765c-9-22 1-29 15-11 8 10 9 16 1 21-5 3-13-1-16-10zm732-562c-6-14-5-15 5-6 7 7 10 15 7 18s-9-2-12-12zm264-168c-5-14-10-28-10-30 0-13-58-93-63-88-4 3-9-2-13-11-3-9-12-16-20-16s-14-4-14-10c0-5 4-10 10-10 5 0 7-7 4-15-8-19 8-19 71 1 28 8 86 17 129 19s83 8 88 13c16 16 5 46-20 57-16 7-21 17-20 35 3 23 0 25-32 24-19 0-41-2-49-5-10-3-17 6-20 25-8 39-28 44-41 11zm-762-110c-4-31 0-38 27-55 36-22 75-17 75 10 0 17-46 70-61 70-4 0-14 3-22 6-11 4-16-4-19-31zm-116-54c-14-9-9-40 8-51 15-9 72 8 65 20-9 15-63 38-73 31z" transform="matrix(.1 0 0 -.1 -33.91707 144.567129)"/></svg>