<svg height="127.214035pt" preserveAspectRatio="xMidYMid meet" viewBox="0 0 105.670378 127.214035" width="105.670378pt" xmlns="http://www.w3.org/2000/svg"><path d="m515 2002c-51-8-67-15-101-45-85-74-108-207-62-362 16-55 26-65 62-65 31 0 100 20 112 33 11 11 64 8 64-2 0-6-4-12-9-15s-3-23 5-43c7-21 13-55 14-75 0-20 4-39 9-42 4-3 12-34 16-68 4-35 9-78 12-96 3-25 0-33-9-29-7 2-12 11-10 21 2 9-1 16-6 16-4 0-18 18-30 39-13 22-31 43-42 46-11 4-20 12-20 18 0 27-65 106-101 121-45 20-135 24-165 8-38-20-52-139-22-181 23-31 23-48-1-56-11-3-23-18-28-33-10-32-2-103 12-103 6 0 24-6 40-14 17-7 38-15 47-19 13-4 16-13 13-33-4-19 1-36 14-51 18-21 23-22 67-11 28 7 56 23 72 41 14 15 31 28 38 28s16 9 19 20c11 34 26 23 19-14-6-34 13-106 28-106 9 0 38-54 38-70 0-6-25-10-59-10-33 0-62-4-66-9-3-6-27-7-53-4-37 4-51 2-62-12-23-28 0-48 76-65 38-9 77-20 87-24 16-8 96-4 237 11 30 3 85 7 121 8s70 4 75 8c6 3 28 2 50-3 21-5 69-10 105-10 54 0 69 4 84 20 18 20 18 21-2 42-16 16-40 22-105 28-153 14-155 15-164 68-11 71-11 123 0 129 5 4 12 1 14-5 2-7 8-10 13-6 5 3 9 0 9-6 0-19 70-41 119-39 55 3 68 8 50 20-9 6-4 8 16 4 17-2 39 2 53 11 21 14 23 21 18 62-11 82-10 102 9 116 22 16 27 56 9 63-7 2-10 11-7 19s-5 17-21 24c-14 5-26 14-26 19 0 4-14 11-30 15-43 8-46 28-16 91 32 69 32 73 0 85-14 6-23 14-20 19s-5 16-19 25c-23 15-29 15-82 0-50-15-75-32-108-76-23-30-74-115-91-152-16-35-19-37-30-21-7 10-11 34-9 56 2 24-2 42-10 49-10 8-11 19-6 34 6 15 2 39-16 81-14 33-29 65-34 71-6 7 10 31 45 68 30 32 56 68 59 79 2 12 7 29 11 38 5 10-2 27-18 47-15 16-26 37-26 46 0 8-9 20-19 26-11 5-22 18-25 27-13 41-155 87-231 75zm40-142c3-5 15-10 27-10 11 0 33-13 48-30 15-16 33-30 39-30s11-9 11-19c0-21-38-35-65-24-11 4-23-1-34-14-18-23-115-58-131-48s-12 103 6 140c12 26 23 35 47 38 18 2 35 5 39 5 4 1 10-2 13-8zm511-431c-8-19-28-47-44-62-37-36-34-69 7-62l26 5-27-11c-28-11-35-23-19-33 11-7 3-79-10-87-12-7 7-24 40-34 40-12 91-46 91-61 0-10-13-14-46-14-37 0-58 8-102 36-53 36-54 37-47 73 4 20 7 44 8 53s4 15 8 12c4-2 9 5 12 16 6 22-21 28-39 10-7-7-17-5-30 6-10 8-13 12-5 8 11-5 13-2 9 14-4 14 0 22 13 25 11 3 19 14 19 25 0 10 9 27 20 37s19 28 18 38c-2 16 7 24 47 37 28 10 53 14 58 11 4-4 1-23-7-42zm-676-49c0-6 10-15 23-21s28-19 34-29c11-16 8-18-41-19-74 0-139 42-109 72 10 11 93 8 93-3zm724-123c40-8 29-27-16-27-39 0-68 13-68 30 0 7 50 5 84-3zm-612-39c12-36-23-118-63-147-16-12-29-17-29-12s4 12 10 16c5 3 7 12 4 20-3 7 4 23 15 34l21 21-25 10c-37 14-61 12-79-5-17-18-66-11-66 9 0 21 62 66 109 78 8 2 33 4 54 4 35-1 42-5 49-28zm162-185c4-9 9-31 12-50 4-26 2-32-9-27-10 3-13 16-10 40 2 19-1 34-7 34-5 0-10 5-10 10 0 16 17 11 24-7zm276 272c0-8 7-15 15-15s15 7 15 15-7 15-15 15-15-7-15-15z" transform="matrix(.1 0 0 -.1 -19.834289 200.406084)"/></svg>