<svg height="193.064268pt" preserveAspectRatio="xMidYMid meet" viewBox="0 0 114.364819 193.064268" width="114.364819pt" xmlns="http://www.w3.org/2000/svg"><path d="m630 2111c-14-5-34-13-45-19s-49-20-85-33c-97-33-165-75-211-131-37-44-46-64-74-176-18-70-35-145-39-166s-14-49-23-62c-23-35-9-58 88-155 49-48 89-93 89-100 0-6 16-27 36-46l37-34-7-117c-4-64-8-135-10-157s-7-83-10-135c-4-52-12-117-18-145-11-51-41-95-65-95-7 0-21-4-31-9-9-5-25-12-34-15-10-3-18-11-18-17 0-8 4-8 15 1 13 11 13 8 0-23-8-20-15-41-15-47 0-8 48-9 155-5 85 4 164 3 175 0 34-11 12-24-36-23-29 0-49-5-55-13-16-25-3-34 49-37 50-3 67-14 38-25-12-5-12-11-3-31 12-25 15-26 88-22 42 2 85 9 97 15 11 6 30 11 41 11 17 0 21 6 21 33s5 35 33 46c17 8 55 15 82 16 33 1 49 5 47 13-3 15 13 15 39 1 15-8 26-7 44 5 12 8 46 18 73 22 67 9 75 30 16 39-35 5-44 10-42 23 3 17 56 34 149 47 32 4 48 11 52 23 3 9 8 25 12 35 6 14 2 17-24 17-17 0-31 3-31 8 0 4-39 7-87 7h-87l-8 44c-4 25-12 49-18 55-5 5-10 32-10 58 0 32-5 50-14 54-10 4-14 44-14 191-1 145-5 192-17 216-15 31-15 32 17 57 50 38 108 96 108 108 0 5 7 15 16 22 11 10 14 27 11 65-2 28-7 56-10 62-4 6-2 13 4 15 8 3 6 10-5 21-15 15-15 17-2 17 12 0 15 10 12 47-2 26-8 49-14 51s-8 10-5 18 0 14-5 14c-6 0-16 25-23 55s-16 55-20 55-21 21-37 48c-17 26-44 62-61 80s-31 36-31 40c0 7-20 19-118 66-55 27-128 33-182 17zm158-182c-2-6-26-19-52-28-27-9-54-25-60-34-23-38 55-58 111-29 11 6 37 12 59 14 55 4 52-21-6-40-25-8-47-18-50-23-3-4-17-11-33-14-15-4-25-11-22-15 9-15-15-22-31-9-17 14-21 11-26-15-5-30 73-30 137-1 84 38 103 40 117 9 11-23 10-28-7-41-11-8-32-17-47-20s-33-11-39-19-21-11-38-8c-45 9-109-13-113-39-2-16-10-22-28-22-34 0-36-26-5-57l26-26-61-7c-33-4-63-11-66-16-6-11-84-12-100-1-6 4-18 21-27 38l-16 31-51-16c-33-10-49-20-46-28 8-19-8-16-28 6-10 11-16 32-14 54 2 35 3 36 43 35 22 0 56 2 75 5s38 6 43 6c4 1 7 12 7 26 0 33-32 49-86 41-24-3-44-4-44-2 0 3-3 12-7 22s-2 15 3 11c17-10 103-18 129-11 14 4 25 13 25 23 0 22-38 63-51 56-12-8-49 4-49 15 0 18 51 43 102 51 58 9 66 15 50 31-9 9 1 16 41 30 28 10 62 17 74 15s39-1 60 3c60 12 105 11 101-1zm292-159c0-5-5-10-11-10-5 0-7 5-4 10 3 6 8 10 11 10 2 0 4-4 4-10zm-190-160c0-5-7-10-15-10s-15 5-15 10c0 6 7 10 15 10s15-4 15-10zm-170-95c14-16 10-18-14-9-9 3-16 10-16 15 0 14 16 11 30-6zm5-224c-6-11-75-12-75-1 0 9 47 18 67 12 7-2 11-7 8-11zm50-91c-3-5-10-10-16-10-5 0-9 5-9 10 0 6 7 10 16 10 8 0 12-4 9-10zm-45-9c0-5-9-15-19-22-11-8-21-25-23-39-2-20 1-25 17-23 11 1 38 3 60 5l40 3 3-40c3-40 3-40-49-60-35-14-54-28-61-44-18-49 10-65 66-36 34 18 58 19 74 3 10-10-1-19-50-43-54-26-64-34-69-63l-7-33 42 6c73 13 79 14 90 25 5 5 20 10 33 10 27 0 33-34 8-44-9-3-15-14-13-23 2-13-8-20-43-29-53-14-89-31-89-44 0-4-3-16-6-25-6-14-1-17 32-15 21 2 47 2 57 1 33-2 12-24-34-35-37-9-44-15-42-33 2-19-4-23-40-27-82-11-162-14-189-9-24 5-28 10-28 41 0 25 7 41 28 58 15 13 30 24 33 24 15 0 2 46-15 53-15 6-17 10-8 19 7 7 12 21 12 33 0 25 22 75 33 75 4 0 7-4 7-10 0-16 39-11 58 8 9 9 16 25 14 34-3 16-38 35-56 29-5-1-16 1-24 4-11 4-12 8-3 19 14 16 17 77 6 96-5 8-3 11 6 8 45-16 65 46 28 83-25 25-18 49 13 50 13 1 35 2 50 3s30 5 34 9c10 10 24 9 24-2zm173-501c16 0 37-47 30-65-6-17-39-29-54-20-6 4-9 16-6 26s1 22-4 25-9 14-9 26c0 14 5 18 16 14 9-3 21-6 27-6zm100-207c-7-2-19-2-25 0-7 3-2 5 12 5s19-2 13-5zm-413-252c0-5 18-18 40-29 31-15 42-17 50-7 13 16 2 25-31 25-15 0-31 5-34 10-8 12-25 13-25 1z" transform="matrix(.1 0 0 -.1 -14.368078 211.966841)"/></svg>