<svg height="106.852397pt" preserveAspectRatio="xMidYMid meet" viewBox="0 0 104.554676 106.852397" width="104.554676pt" xmlns="http://www.w3.org/2000/svg"><path d="m913 1279c-10-4-37-27-60-51-64-66-92-183-58-247 15-30 55-61 79-61 22 0 28-17 15-42-6-12-15-47-20-77-4-31-15-85-24-121-11-43-17-108-17-190-1-141 5-185 32-220l19-25 27 27c26 26 27 28 14 74-7 25-13 52-12 58s3 39 6 73c2 33 7 67 12 75 10 15 10 17 23 78 5 25 7 48 5 52-3 4 0 15 5 25s18 56 29 103l19 85 39-5c38-4 68-4 138 0 19 1 42 10 51 20 24 27 22 97-3 147-12 23-22 49-22 58 0 8-29 44-64 80-47 48-68 63-83 59-13-4-28 2-40 16-20 21-68 25-110 9zm-13-159c0-5-5-10-11-10-5 0-7 5-4 10 3 6 8 10 11 10 2 0 4-4 4-10zm-562 14c-29-9-49-22-53-33-3-11-17-26-30-35-48-31-61-95-37-181 19-70 25-100 23-113-1-8 5-24 13-37 22-33 75-42 129-22 23 9 58 19 78 22l37 7 17-52c13-40 17-84 16-193-1-78-3-164-5-192-3-27-2-44 1-37 2 6 11 12 19 12 10 0 12-8 8-30-5-22-3-30 7-30 29 1 48 27 53 71 2 24 9 72 15 105 7 40 8 70 2 86-5 14-6 31-1 38 4 7 6 18 4 25-3 6-6 41-8 76-4 78-15 137-27 145-15 9-10 40 11 67 11 14 20 35 20 46 0 12 5 21 11 21 13 0 6 36-18 90-25 59-29 64-61 86-17 12-28 24-25 28 4 3-1 6-9 6-9 0-21 7-29 16-7 8-21 13-31 11-10-3-21-1-24 4-8 13-51 10-106-7z" transform="matrix(.1 0 0 -.1 -20.649534 128.883725)"/></svg>