<svg height="111.541699pt" preserveAspectRatio="xMidYMid meet" viewBox="0 0 84.156169 111.541699" width="84.156169pt" xmlns="http://www.w3.org/2000/svg"><path d="m575 1448c-11-7-28-14-38-15-10-2-24-9-32-16-7-6-33-28-59-47-25-19-45-40-46-46 0-5-12-25-27-42-50-61-80-123-86-180-3-22-8-46-12-51-3-6-1-11 4-11 6 0 11-10 11-23 0-12 12-35 26-50 23-25 31-28 63-22 54 9 87-7 101-50 6-20 9-43 6-51s1-30 8-49c8-18 12-36 9-39-3-2-1-11 3-18 5-7 10-24 11-38 4-55 12-125 14-125 1 0 3-13 5-29s6-36 10-45 6-24 5-34c-4-31 25-63 70-76 24-8 63-20 86-27s77-16 120-19c69-4 82-2 118 19 33 19 40 28 38 52-4 65-13 173-20 229-3 33-6 77-5 98 1 20-2 37-7 37s-9 17-9 38c-2 57-5 72-14 72-4 0-8 6-7 13 0 20 52 53 93 60 51 8 71 28 91 89 18 55 17 58-41 170-8 14-15 38-16 53-2 15-8 30-15 32-7 3-13 13-13 22 0 26-59 101-80 101-9 0-33 6-51 13-45 18-286 22-314 5zm204-120c18-6 41-17 50-24 9-8 29-25 45-37 26-21 28-29 30-92l1-69-50-9c-27-4-86-15-130-24s-124-18-177-20l-98-4v30c0 17 4 31 10 31 5 0 12 15 16 34 3 19 15 42 25 52 10 9 19 20 19 24 0 16 64 76 109 102 48 29 72 30 150 6zm6-438c43-27 47-36 59-140 2-14 4-27 5-30 5-11 6-170 1-169-11 1-78 117-95 164-10 28-27 62-37 77-10 14-18 31-18 36 0 6-12 20-27 31-31 25-26 32 30 42 23 3 44 7 46 8 2 0 18-8 36-19zm-35-440c0-5-5-10-11-10-5 0-7 5-4 10 3 6 8 10 11 10 2 0 4-4 4-10zm65 0c3-5-1-10-10-10s-13 5-10 10c3 6 8 10 10 10s7-4 10-10z" transform="matrix(.1 0 0 -.1 -27.349916 145.869816)"/></svg>