<svg height="163.539175pt" preserveAspectRatio="xMidYMid meet" viewBox="0 0 110.04778 163.539175" width="110.04778pt" xmlns="http://www.w3.org/2000/svg"><path d="m520 2020c0-5-15-10-33-10-38 0-133-62-160-104-22-33-47-105-47-135 0-14-9-34-19-45-37-40-27-165 15-184 13-7 24-18 24-26s14-24 30-36c33-23 66-23 137 3 18 6 35 9 37 6 3-3 12-31 21-64 8-32 26-76 40-96 30-47 26-94-10-103-15-4-24-16-29-37-8-43-8-97 2-102 4-3 7-20 7-38 0-25-6-36-23-45-13-6-30-22-39-34-13-19-13-24-2-31s11-9-2-9c-61 0-6-150 59-165 41-8 113 2 165 24l47 20 1-22c1-12 1-25 0-29 0-4-3-29-6-55-3-27-8-64-11-83-3-20-1-55 4-78 6-24 6-39 1-36s-9 0-9-7c0-8-11-9-35-5-67 13-98-14-69-59 15-23 20-24 137-23 67 0 133-4 147-9 14-6 36-9 50-7 46 6 109 6 129-1 19-6 91 18 91 30 0 4-5 15-11 26-6 12-7 28-3 37 3 9 8 27 10 40 1 13 8 29 13 36 6 7 7 16 3 20s-7 11-8 14c0 4-8 24-17 46-9 21-17 42-17 46 0 5-13 21-29 37-25 25-27 31-15 47 7 10 20 16 28 13 24-10 75 22 103 64 30 46 26 103-7 114-11 4-20 12-20 20 0 7-7 16-16 19-18 7-12 50 11 76 7 8 18 35 25 60l12 44-41 38c-38 36-44 38-102 38-43 0-68-5-80-16-19-17-44-10-32 9 4 7 8 14 9 17 2 13 26 68 39 92 8 14 15 33 15 42 0 18 54 23 65 6 6-10 41-5 85 13 14 6 27 11 30 12 26 9 40 19 45 33 3 10 19 25 36 35 20 11 29 23 25 32-3 8-1 17 5 20 11 8 9 103-3 125-4 8-12 26-18 40-25 62-48 84-107 100-25 8-43 19-46 30s-25 28-49 40c-38 17-57 20-123 16-43-3-83-10-89-16-5-5-20-10-32-10-13 0-26-4-29-10-9-14-45-12-45 3-1 29-92 107-164 140-42 19-106 23-106 7zm26-184c8-9 19-16 24-16 4 0 10-9 13-21 5-20-22-59-42-59-5 0-39-13-74-30-94-43-98-42-92 27 6 71 22 120 42 131 19 11 108-12 129-32zm529-64c22-9 59-37 82-62 39-41 43-50 43-98v-53l-37 6c-52 8-115 27-131 38-12 10-23 12-95 23-21 4-49 16-63 29-25 23-32 45-13 45 6 0 9 6 6 14s2 17 11 20 40 19 67 35c52 30 64 31 130 3zm-355-168c0-9-5-14-12-12-18 6-21 28-4 28 9 0 16-7 16-16zm148-187c2-19-1-27-12-27-19 0-22 30-3 31 10 0 10 2 0 6-7 2-13 9-13 15 0 22 25 0 28-25zm-7-127c5 0 9-6 9-14s9-22 21-30 18-19 14-25c-3-6-1-11 4-11 7 0 8-6 2-17-5-10-19-41-32-70-21-45-28-52-52-53-21 0-30 6-34 20-3 11-10 20-17 20-19 0-16 49 4 55 15 5 18 13 14 45-3 22-1 40 5 40 5 0 12 12 15 26 5 18 12 24 22 20 9-3 20-6 25-6zm-201-40c0-5-7-10-15-10s-15 5-15 10c0 6 7 10 15 10s15-4 15-10zm478-66c31-9 9-50-69-126-75-72-83-77-95-61-7 10-14 23-14 30s-7 16-16 21c-20 11-10 52 12 52 8 0 14 6 14 14s16 30 35 50c32 33 38 36 77 30 24-3 49-7 56-10zm-447-61c18-27 36-50 39-53 17-13 18-42 2-70-9-16-20-30-25-30-11 0-47 63-47 83 0 10-6 17-12 16-36-4-50 4-64 36-23 57-20 65 31 65 41 0 46-3 76-47zm452-168c23-21 26-28 17-45-6-11-20-25-33-32-29-17-105-37-139-38-39 0-37 32 5 61 17 13 36 29 40 36s16 13 26 13 24 7 31 15c16 20 20 19 53-10zm-526-6c14-14 52-36 76-45s21-16-16-39c-53-32-66-35-109-26-46 11-57 19-63 49-8 43 81 92 112 61zm229-291c22-135 22-158-1-158-31 0-45 31-45 95 0 35-4 66-9 69-6 4-6 20 0 41 6 19 6 43 2 52-8 16-8 24-4 58 0 5 9 2 18-8 12-12 25-60 39-149z" transform="matrix(.1 0 0 -.1 -23.793453 202.979079)"/></svg>