<svg height="127.468514pt" preserveAspectRatio="xMidYMid meet" viewBox="0 0 109.866356 127.468514" width="109.866356pt" xmlns="http://www.w3.org/2000/svg"><path d="m956 1683c-3-4-34-7-69-8-41 0-78-8-109-23-26-12-52-22-58-22-24 0-127-60-157-92-39-42-95-144-122-224-20-61-30-181-17-203 4-6 7-48 7-93 0-44 5-90 11-102 16-29 69-75 96-82 12-3 38-14 58-24s42-16 50-13c18 7 30-26 38-112 4-38 14-90 22-115 14-41 14-45-2-57-10-7-29-13-43-13-14-1-44-9-66-20s-47-19-56-20c-19 0-45-27-36-37 12-12 92-5 129 11 21 9 49 16 62 16 14 0 35 4 48 9 61 23 252 55 397 66 73 6 121 16 121 26 0 5-5 9-11 9-8 0-8 4 0 14 16 19 4 24-39 20-19-2-57-5-85-7l-50-2-2 55c-2 30-4 86-6 123-3 83 3 90 86 92 62 1 134 26 150 52 4 7 15 13 22 13 8 0 15 4 15 9 0 10 73 62 103 74 9 3 17 15 17 25 0 11 7 25 15 32s21 26 30 42c32 64-4 267-56 319-11 11-16 19-13 19s-1 6-8 14c-7 7-46 50-87 95-67 73-78 81-102 76-20-5-33-1-48 14-37 37-209 69-235 44zm229-163c17-8 44-29 61-47 18-18 36-33 42-33 14 0 52-66 52-90 0-52-48-29-89 44-17 30-44 62-59 71-49 32-73 58-60 66 7 4 15 7 18 5 3-1 19-8 35-16zm-318-214c0-61 3-141 5-178 6-94-21-99-62-13-8 17-21 36-28 43-7 8-9 18-6 23 3 6-2 16-12 24-14 10-16 16-7 27 10 11 9 21-3 43-8 16-12 35-9 43s0 12-7 9c-26-8-9-224 18-240 8-4 14-17 14-27 0-11 6-20 14-20 23 0 31-52 10-67-23-17-54-17-54 1 0 7-7 19-15 26s-15 21-15 31c0 11-6 19-14 19-10 0-20 24-31 75-10 46-22 75-30 75-11 0-41-82-37-101 1-4 3-24 6-45 2-21 9-40 15-42s11-12 11-22c0-19 40-50 64-50 19 0 39-37 32-57-9-22-93-13-132 14-16 11-46 31-67 44l-38 24 6 75c4 42 8 89 9 105 2 17 13 53 25 81 25 55 95 114 173 145 24 9 55 23 69 31 15 8 42 14 60 15l34 1zm78 94c3-5 19-10 34-10s36-6 46-14c10-7 26-11 36-9 9 3 28-1 40-8 40-20 119-90 119-104 0-7 7-16 16-19 28-11 57-94 50-144-7-53-27-78-68-87-36-8-43-3-28 24 11 21 4 25-38 24-10-1-12 6-7 20 3 12 7 27 8 33 2 6 11 23 21 38 21 33 15 66-10 46-8-7-13-20-12-29 2-9-9-38-24-64-28-48-37-84-18-72 16 10 12-7-7-27-22-25-44-22-66 8-12 16-16 32-11 47 4 12 8 30 9 40 1 11 8 23 15 27 11 7 12 14 2 35-8 18-9 24-1 19 8-4 9 0 4 15-4 14-1 27 10 38 16 15 16 18 1 28-21 16-20 25 1 25 13 0 14 3 5 12-7 7-12 18-12 26 0 15-28 41-44 42-4 0-5-8-1-17 4-10 7-26 7-35 0-10 3-20 7-23 8-4-13-105-37-182-6-18-8-33-5-33s-6-9-20-20c-27-21-42-26-32-10 3 5 1 36-6 67-7 32-13 74-13 93-1 19-5 41-10 48-5 8-4 18 2 24 8 8 8 17 1 30-5 10-7 23-4 28s1 11-4 15c-6 3-8 12-6 20 3 8 7 22 10 30 5 17 31 20 40 5zm-15-444c0-7-9-25-20-39-34-43-20-77 33-77 18 0 27-4 24-12-2-7-19-13-38-14-30 0-34-4-40-33-6-28-4-34 18-42 13-5 33-9 43-9 19 0 36-17 27-27-3-2-24-7-46-10-38-5-44-11-43-43 0-3 3-15 6-27 6-19 2-22-36-28-24-3-50-8-59-11-12-3-16 4-17 28-1 18-4 60-7 93s-5 67-5 75c1 8 1 32 1 52 0 33 4 39 39 55 22 10 40 25 40 33s15 22 33 31c42 21 47 22 47 5zm249 133c-10-6-7-9 14-9 29 0 35 5 14 13-8 3-20 1-28-4z" transform="matrix(.1 0 0 -.1 -41.811028 169.198965)"/></svg>