<svg height="192.616933pt" preserveAspectRatio="xMidYMid meet" viewBox="0 0 210.658093 192.616933" width="210.658093pt" xmlns="http://www.w3.org/2000/svg"><path d="m1490 2153c0-5-37-9-83-10-109-2-150-5-161-11-5-3-32-7-60-9-28-1-73-7-101-13-165-33-205-43-216-56-6-8-18-14-26-14-7 0-32-10-55-22-75-42-66-34-168-131-48-46-120-142-120-160 0-4-11-30-24-59-45-97-55-127-67-208-10-73-10-83 6-100 10-11 27-22 39-26 46-14 46-24 2-68-23-23-49-56-57-74s-17-32-21-32c-3 0-15-28-26-62-38-118-53-212-53-334 0-101 4-130 25-192 14-41 34-88 46-106 30-50 27-74-13-81-40-8-90-7-145 1l-44 6 21-41c32-62 61-72 178-65 84 6 100 4 112-10 7-9 21-16 30-16s25-7 35-15c31-23 80-19 107 10 29 30 43 31 70 4 12-12 27-18 36-14 9 3 20 0 24-7 6-9 11-9 23 1 9 8 16 19 16 25 0 7 6 21 14 31 13 19 15 18 47-7 27-20 43-24 74-21 22 2 43 9 46 15 8 12 82-4 105-23 8-6 17-4 28 6 18 18 44 19 141 6 50-6 72-6 77 2s13 6 26-6c10-9 30-17 43-17 14 0 31-6 38-13 8-6 11-7 8-2-3 6-2 17 4 25 7 13 9 12 9-2 0-15 9-18 45-18 25 0 45 5 45 10 0 6 5 10 11 10 5 0 7-4 4-10-8-14 1-13 33 4 38 19 92 28 92 15 0-12 83-4 111 12 10 5 20 5 23 1 3-5 40-2 83 5 43 8 89 16 103 17 14 2 37 8 51 14 15 6 37 8 49 5 37-10 131 18 140 41 17 48-7 65-90 66-56 0-68 8-79 48-8 25-6 36 11 57 10 14 16 25 12 25s0 8 8 18c8 9 20 37 28 62 7 25 24 70 37 100 29 64 37 175 19 263-12 58-43 105-124 184l-42 41 43 21c24 12 49 21 55 21 40 0 64 171 30 222-9 14-21 45-28 69-14 58-61 171-77 187-7 7-13 17-13 22 0 16-79 127-95 134-9 3-14 10-11 14 3 5-6 15-19 22-14 7-25 19-25 27 0 7-8 13-17 13s-13 3-10 6c7 7-76 74-91 74-5 0-17 9-28 21s-26 18-37 15c-10-2-27 4-38 15-20 20-69 26-69 8 0-5-5-7-10-4-6 4-7 11-4 17 5 8-3 9-24 5-17-3-32-3-34 2-4 11-58 23-58 14zm-41-100c-25-6-31-41-9-53 20-11 32-44 20-57-5-4-10-19-12-32-1-13-19-37-39-53-34-28-40-29-100-22-44 5-69 13-84 28-12 12-37 34-56 50-24 20-35 39-39 65-5 34-3 37 30 50 33 12 115 23 203 25 20 1 37 4 37 7s15 3 33 0c17-3 25-6 16-8zm-671-192c9-4 34-16 54-26 33-16 63-58 56-81-4-14 12-97 21-109 4-5 13-25 20-44 9-29 8-37-6-54-39-43-66-48-145-31-40 9-79 18-86 20s-16 14-22 28c-5 13-19 28-32 31-13 4-26 13-30 19-12 17-9 89 3 127 15 44 86 117 119 122 14 2 26 5 28 6 1 0 10-3 20-8zm1007-111c15-6 49-29 76-52 36-30 49-48 49-67 0-32-7-42-42-60-14-7-40-26-58-42-38-35-52-36-83-6-20 18-25 35-30 103-6 76-5 82 19 107 28 30 32 31 69 17zm-402-195c26-11 33-53 13-86-28-48-56-138-45-145 21-12-9-26-66-30-37-2-63 1-73 9-8 6-17 11-18 10-2-1-17 4-33 10-39 14-47 50-27 118 22 71 41 98 87 118 38 17 113 15 162-4zm-713-171c0-17-5-17-47-2-44 16-42 24 7 20 26-3 40-9 40-18zm20-153c59-27 267-75 371-85 20-2 45-8 55-14 26-14 158-32 184-25 11 3 28 2 37-3 28-12 84-13 128-1 50 13 72 16 165 22 41 3 94 8 118 11 35 5 41 4 36-9-3-8-18-17-35-21-17-3-29-12-29-21 0-10-10-15-34-15-19 0-37-4-40-9s-24-7-46-4c-25 4-40 2-40-5 0-6-20-10-47-10-78 0-115-3-109-9 10-11 70-11 83-1 7 5 18 6 25 1 18-11 51-10 60 2 5 6 8 6 8-1 0-11 65-5 86 8 5 4 29 7 54 9 38 3 45 0 42-14-3-19 32-25 43-7 4 6 10 8 15 5 4-3 13 2 20 10 11 13 60 22 60 11 0-15-14-36-24-36-7 0-17-5-24-12-28-28-199-72-244-63-15 4-28 2-28-3 0-14 43-33 75-32h50c78 0 116 4 121 11 3 5 16 9 28 9 13 0 34 8 47 19 38 29 68 35 76 15s-59-84-87-84c-10 0-32-10-51-23-30-19-93-41-154-53-56-10-81-18-87-28-5-8-8-7-8 2 0 6-7 12-15 12s-15-5-15-11c0-11-17-9-68 7-21 6-23 4-20-17s10-25 58-30 59-2 87 18c23 18 38 22 58 17 17-4 24-11 21-20-8-20 13-17 59 6 22 11 49 20 61 20s25 7 28 16c3 8 10 13 15 10 11-7 61 14 61 25 0 4 10 7 23 6 12 0 34 3 50 7 25 8 27 6 27-23 0-17-5-31-11-31-5 0-8-4-5-9 9-15-51-34-109-35h-55v-33c0-17 5-35 10-38 18-11 11-21-30-39-22-10-38-21-35-26s-9-12-27-15c-18-4-39-12-46-18-7-5-36-11-64-13-29-1-54-8-59-16-14-22-10-29 11-18 11 6 20 14 20 18s25 7 57 6c42-1 67 5 100 23 23 14 43 31 43 38 0 8 9 17 20 20 12 4 28 15 38 25 9 10 32 21 50 25 31 6 33 5 23-12-5-11-29-36-52-56s-38-37-33-37c19-1-60-30-81-30-36 0-55-10-55-30 0-14-12-19-57-25-42-5-63-13-75-28l-16-21-19 23c-19 23-20 23-46 6-44-28-106-38-132-21-15 10-35 13-59 9-33-5-35-7-22-22 14-15 13-20-10-44-29-32-36-29-70 24-13 21-28 39-32 39s-22-23-41-50c-18-28-39-50-46-50-8 0-24 21-37 47s-30 49-39 51-27-15-44-43c-16-25-34-45-41-45-23 0-44 12-44 25 0 8-9 17-20 20-11 4-18 11-14 16 3 6-2 17-12 24-25 19-34 18-34 0 0-23-51-95-66-95-8 0-14 4-14 9 0 6-15 26-34 47l-33 36-27-34c-14-19-26-40-26-46 0-7-4-12-10-12-5 0-10 12-10 26 0 24-3 26-30 20-20-3-30-1-31 7-1 6-3 21-4 32-1 12-7 30-14 42-15 30-14 36 7 28 9-4 35-9 57-12 22-2 42-8 45-13 10-16 109-4 130 15 11 10 20 21 20 25 0 3-36 7-80 7-55 1-86 6-102 17-12 9-34 16-49 16s-32 7-39 15c-7 9-21 14-31 13-10-2-18-1-18 2s-5 19-11 35c-17 43-20 63-22 125-1 80 12 176 27 197 13 17 14 17 20 0 6-13 11-15 20-7 11 9 12 7 8-9-4-15-1-21 11-21 9 0 16-4 16-9 0-10 55-41 72-41 4 0 27-9 51-19 48-22 105-32 113-19 3 4 20 8 38 8s41 7 52 15c10 8 26 15 35 15 20 0 20 27 0 35-9 3-60 8-113 10-54 2-102 6-107 9-5 4-11 1-13-5s-14-2-29 10c-15 11-29 17-33 14-3-3-6-1-6 5 0 7-8 12-18 12-11 0-27 10-38 22-19 21-19 21 1 16 11-3 28-9 38-13 12-5 17-2 17 11 1 17 3 16 21-5 11-13 22-21 26-18 3 3 22-1 42-9s64-16 99-17c34-1 62-5 62-9 0-11 92-6 108 5 18 14 15 55-5 60-10 3-43 6-73 7-110 3-217 18-257 36-17 8-39 14-50 14-10 0-27 7-37 15-15 11-16 17-8 28 7 8 9 16 6 20-3 3 3 10 14 16 15 8 23 7 32-4 11-13 39-24 110-42 8-2 35-7 60-10s48-9 51-14c7-12 57-14 93-4 25 7 28 5 23-8-6-17-4-17 83-18 83 0 120 16 120 53 0 15-4 18-17 13-25-9-25-9-55-1-16 5-28 12-28 16 0 8-121 24-187 24-24 0-43 4-43 8 0 5-13 8-30 8-42 0-151 38-177 63-20 18-21 21-6 32 22 17 48 12 123-24zm430 19c0-5-2-10-4-10-3 0-8 5-11 10-3 6-1 10 4 10 6 0 11-4 11-10zm315-20c-3-5-15-15-25-20-16-9-18-8-14 5 5 11 2 14-12 9-16-5-16-4-4 5 19 14 63 14 55 1zm-178-67c-3-10-5-4-5 12 0 17 2 24 5 18 2-7 2-21 0-30zm736 5c9-5 17-13 17-18 0-12-23-13-34-3-4 4-23 8-42 9-19 0-30-2-24-6 7-5 6-11-5-20-13-11-19-10-35 5-11 10-27 15-37 11-13-4-12-1 5 13 13 11 29 18 37 15s22-1 32 5c18 10 53 6 86-11zm137-130c0-4-6-5-14-2s-12 12-9 21c5 12 7 12 14 1 5-7 9-16 9-20zm-80-453c0-8-2-15-4-15s-6 7-10 15c-3 8-1 15 4 15 6 0 10-7 10-15zm-102-56c-2-6-8-10-13-10s-11 4-13 10 4 11 13 11 15-5 13-11zm-28-29c0-5-5-10-11-10-5 0-7 5-4 10 3 6 8 10 11 10 2 0 4-4 4-10zm120-6c0-3-7-21-16-40-21-44-60-49-50-6 4 15 14 33 23 40 17 13 43 16 43 6zm-177-77c-21-31-36-43-58-45-17-2-27-1-23 3s2 17-3 28c-12 22-15 19 56 61 55 32 67 12 28-47zm-178 16c-13-55-58-82-68-43-3 13 0 20 10 20s13 6 9 17c-7 18 9 33 38 33 15 0 17-5 11-27zm-250-33c3-6-4-10-17-10-18 0-20 2-8 10 19 12 18 12 25 0zm275-70c0-5-7-10-16-10-8 0-12 5-9 10 3 6 10 10 16 10 5 0 9-4 9-10zm-150-10c0-13-48-32-61-24s20 33 44 34c9 0 17-5 17-10zm-1060 536c0-3 12-17 28-33 15-15 40-45 55-65 27-37 67-52 67-25 0 8 3 8 9-2 5-8 19-12 35-9 14 3 26 1 26-3 0-5 11-9 25-9 18 0 23 4 19 15-4 8-1 15 5 15s11-6 11-13c0-9 13-14 35-14 19 0 35 4 35 9 0 4 7 8 15 8 22 0 18 38-5 45-10 3-29 1-40-5-13-7-26-8-33-3-17 13-42 9-39-5 1-9-4-8-20 2-28 18-144 46-154 37-4-3-5 1-1 10 3 9-3 23-14 32-12 11-19 13-19 5 0-9-3-9-12 0-12 12-28 16-28 8zm220-106c0-5-5-10-11-10-5 0-7 5-4 10 3 6 8 10 11 10 2 0 4-4 4-10zm115-10c3-6-1-7-9-4-18 7-21 14-7 14 6 0 13-4 16-10zm-355-20c0-6 8-10 18-10 9 0 29-17 43-38 23-32 39-41 117-66 62-20 98-27 118-22 16 4 41 10 57 13 46 9 30 21-45 33-40 7-81 16-90 21-10 6-18 5-20-2-2-6-14-5-33 5-17 9-36 16-42 16-7 0-13 7-13 15s-9 15-19 15c-11 0-26 6-33 13-16 15-58 20-58 7zm1004-172c25-14 76-20 76-9 0 9-48 21-79 21-13-1-12-3 3-12z" transform="matrix(.1 0 0 -.1 -16.844623 215.617251)"/></svg>