<svg height="99.709333pt" preserveAspectRatio="xMidYMid meet" viewBox="0 0 132.391963 99.709333" width="132.391963pt" xmlns="http://www.w3.org/2000/svg"><path d="m795 1782c-27-10-70-28-94-41-57-30-151-128-151-157 0-12-6-24-14-27-13-5-27-47-32-97-9-88-6-117 19-167 29-55 50-73 90-73 14 0 30-7 37-15s20-15 30-15c21 0 31-21 36-75 2-22 6-73 9-114 9-105 30-135 78-110 12 7 66 12 131 11 94-1 113 2 137 19s28 27 27 63c0 23 5 53 11 65 7 12 12 56 11 99-2 103-2 102 15 102 8 0 15 5 15 10 0 6 5 10 11 10 15 0 58 47 69 75 5 12 6 58 3 101-7 105-42 184-118 265-16 16-38 29-95 52-19 8-48 19-63 26-39 16-103 13-162-7zm90-152c0-20 6-26 28-28 15-2 27 1 27 7s9 11 20 11 20 5 20 10c0 6 6 10 14 10 28 0 27-21-3-51-17-17-31-34-31-39 0-15 64-18 81-4 21 19 55 18 63-2 10-25 7-29-21-31-15 0-29-6-31-12-2-7-15-25-29-42-22-26-24-34-15-54 13-27 12-27-42-45-38-12-81-17-248-25-91-5-89-6-92 38-1 6 8 12 19 13 37 1 75 16 75 30 0 8 5 14 10 14 17 0 11 29-9 39-19 10-71-5-71-21 0-5-5-8-11-8s-9 16-7 37c3 34 7 38 48 53 70 26 78 31 76 43-4 27-19 38-43 32-18-4-24-2-21 7 7 21 89 47 143 45 46-2 50-4 50-27zm235-200c0-11-1-23-2-27-3-11-88-32-88-21 0 4 8 8 17 8 20 0 53 28 53 47 0 7 5 13 10 13 6 0 10-9 10-20zm-180-256c0-8 4-14 9-14 4 0 6-10 4-23-3-14 4-32 20-49 14-15 28-40 31-55l7-29-93-12c-51-7-98-12-105-12-13 0-8 45 13 108 10 30 11 49 4 61-16 31 18 50 76 43 20-3 34-10 34-18zm310-9c-30-10-35-17-34-41 0-16-5-33-12-37-14-8-9-63 6-80 12-14 50 30 50 57 0 13 7 29 15 36s15 18 15 25c0 8 4 15 9 17 6 2 4 10-2 19-10 13-17 14-47 4zm-789-79c-11-13-2-45 19-66 3-3 11-17 19-32s31-46 52-70c36-39 40-41 56-26 15 16 14 21-12 72-16 31-32 56-37 56s-7 4-4 9c6 9-58 71-73 71-5 0-14-6-20-14zm959-30c0-7-18-30-39-49-22-20-44-45-50-56-15-27-14-58 2-64 15-5 77 34 77 49 0 6 9 19 21 30 33 30 40 49 26 78-13 27-37 36-37 12zm116-100c-9-14-16-30-16-35s-10-18-23-28c-14-11-21-26-19-40 4-31 37-30 57 1 9 13 25 26 35 29 23 6 37 54 23 76-16 25-39 24-57-3zm-1140-23c-12-31 60-74 92-54 20 12 5 36-34 54-43 21-50 21-58 0zm-121-85c1-13 3-26 4-30 2-11 88-21 116-14 30 8 32 26 7 49-13 12-36 17-74 17-51 0-55-2-53-22z" transform="matrix(.1 0 0 -.1 -27.46272 179.886239)"/></svg>