<svg height="105.003685pt" preserveAspectRatio="xMidYMid meet" viewBox="0 0 128.083719 105.003685" width="128.083719pt" xmlns="http://www.w3.org/2000/svg"><path d="m551 1358c-41-10-84-24-95-30-47-25-116-85-135-118-39-70-38-294 3-367 9-16 18-36 22-45 3-9 13-19 22-23 21-8 168 14 211 31 55 23 69 19 77-23 4-21 12-49 19-63 37-71 85-189 87-215l3-30-100-11c-55-6-96-12-91-13 5 0 2-8-5-17-10-13-25-15-66-11-48 5-53 4-53-14 0-37 37-61 98-63 32-2 67-8 78-14 12-6 23-10 25-7 2 2 40 6 84 9 44 4 97 9 118 12s116 5 210 3c95-1 232-1 306 0 124 2 136 4 152 24 15 19 15 22 3 25-9 2-13 10-10 17 9 25-52 47-110 39-33-4-54-2-58 5-10 15-16 187-9 243 5 43 8 47 38 52 50 10 174 75 190 100s9 61-25 121c-47 83-56 95-67 95-7 0-13 7-13 15 0 36-81 125-114 125-9 0-16 6-16 14 0 62-216-7-272-87-70-99-89-146-92-230-1-62 1-74 19-89 11-10 25-17 32-18 16 0 23-13 29-52 2-18 7-46 10-63 3-16 5-49 4-72-1-44 30-119 58-139 21-15 1-25-36-18-24 5-32 13-38 38-3 17-11 36-16 43s-7 17-3 23c3 5 1 10-5 10s-9 4-6 9c7 10-47 170-60 180-6 3-10 17-11 31-1 30-40 142-52 150-4 3-14 22-21 43-13 42-16 36 58 116 45 47 38 71-43 147-69 65-151 111-210 119-19 2-39 6-43 8-4 3-40-4-81-15zm165-152c19-19 34-38 34-43 0-20-140-140-239-205-54-36-89-18-98 52-3 22-10 43-14 46-5 3-2 16 7 29s14 28 12 32 7 12 20 18c24 11 28 20 12 30-18 11-11 21 30 44 50 28 68 19 35-17-29-31-29-32-10-58 14-19 15-19 21 4 3 12 13 22 20 22 8 0 14 6 14 13s10 25 22 40c33 41 89 38 134-7zm558-106c15-5 26-17 25-27 0-11-3-13-6-5-11 28-23 9-19-33 3-25 1-45-3-45-5 0-6-11-3-25 2-14 9-25 14-25 14 0 37 25 47 53 8 20 15 24 31 20 32-8 66-44 74-77 7-29 7-29-31-23-33 5-42 2-66-22-16-16-40-31-55-34-34-7-152 10-169 24-18 16-6 56 30 102 26 33 28 42 19 63-9 18-9 24 1 24 6 0 23 9 37 20 29 22 39 24 74 10zm-411-322c43-125 58-204 50-266-5-36-9-43-27-40-16 2-21 11-22 36-1 19-7 39-13 45s-11 26-11 44c0 17-11 63-25 100-21 59-22 69-10 83 8 9 15 26 15 37 0 16 8 33 15 33 1 0 14-33 28-72zm262-18c3-5 1-10-4-10-6 0-11 5-11 10 0 6 2 10 4 10 3 0 8-4 11-10zm92-163c12-18 24-57 28-89l7-58h-32c-33 0-70 25-47 33 8 2 11 25 9 75-2 40 0 72 5 72 4 0 18-15 30-33zm-582 586c-4-20-13-46-21-57-10-14-11-23-2-33 15-19 36-16 43 7 3 11 14 27 23 37 13 12 14 17 4 21-9 3-10 8-2 17 14 17 2 45-20 45-13 0-20-11-25-37z" transform="matrix(.1 0 0 -.1 -29.261014 137.392372)"/></svg>