<svg height="94.001122pt" preserveAspectRatio="xMidYMid meet" viewBox="0 0 98.064217 94.001122" width="98.064217pt" xmlns="http://www.w3.org/2000/svg"><path d="m610 1008c-175-37-236-62-295-123-22-23-51-64-65-91s-29-52-34-56c-5-3-12-41-16-85-6-68-5-81 12-99 26-29 115-77 158-84 24-4 34-11 31-21-4-15-7-41-14-146-4-52-1-67 18-95 12-19 24-42 26-53 3-12 17-22 39-28 19-5 43-17 53-28 23-24 128-26 207-3 30 8 79 21 108 29 29 7 60 19 67 25 8 7 21 10 29 7 21-8 78 31 74 51-1 9 5 28 14 41 10 13 15 28 12 32-2 4-7 36-10 71-3 34-9 67-14 73s-3 17 4 25c11 15 21 21 78 58 16 9 28 21 28 25 0 5 14 22 30 37 28 27 34 53 20 90-1 3-1 15 0 27 0 12-6 35-15 52-8 17-13 31-10 31 2 0-8 21-24 46-54 84-116 131-240 182-59 24-184 29-271 10zm128-136c17-27 32-55 32-63s5-20 11-26c5-5 9-38 7-73-4-81-23-98-123-105-38-3-96-8-127-11-56-5-58-4-64 22-4 14-2 29 3 33 5 3 9 33 8 66-1 61 8 92 31 110 8 6 15 21 17 34 4 27 32 51 59 51 16 0 16-3 6-20-10-15-10-23-2-28 6-4 14-16 18-27 9-29 9-134 1-177-7-34-5-38 14-38 29 0 43 41 37 102-3 26-2 48 2 48 15 0-1 94-19 114-27 29-24 36 19 36 33 0 40-6 70-48zm138-22c5 0 28-17 52-39 34-31 42-45 42-74s-4-36-27-42c-15-3-39-15-55-26l-28-20v49c0 27-3 52-7 56-5 4-8 20-9 34-1 15-5 43-9 62-8 34-8 35 12 18 11-10 24-18 29-18zm-436-37c-12-34-19-138-13-175 3-16 14-29 27-32 20-6 20-7 3-17-31-18-105-2-124 28-35 53-6 153 57 197 48 34 61 33 50-1zm396-347c8-8 14-22 14-30 0-9 7-16 15-16 13 0 13-4-2-27-22-35-41-50-73-58-42-11-55-49-20-58 32-8 24-23-25-46-65-31-110-28-141 8-18 21-35 31-62 33-35 3-37 5-40 41l-3 37h58c75 0 94 11 69 39-20 22-86 30-86 10 0-6-8-9-17-7-12 2-18 14-19 36-1 17 1 32 5 32 3 0 38-5 76-9 55-7 87-6 150 9 44 10 81 18 83 19 2 0 10-5 18-13z" transform="matrix(.1 0 0 -.1 -19.670371 101.963422)"/></svg>