<svg height="142.636595pt" preserveAspectRatio="xMidYMid meet" viewBox="0 0 105.681922 142.636595" width="105.681922pt" xmlns="http://www.w3.org/2000/svg"><path d="m259 1630c-44-36-55-49-80-97-32-64-35-199-5-232 12-13 14-21 7-21-27 0 2-19 39-25 32-5 52-1 105 24 36 17 71 31 78 31 19 0 34-46 57-175 31-172 37-438 9-394-17 28-22-4-10-64 6-34 11-91 10-127-2-122-1-127 26-134 14-4 25-11 25-18 0-22 52-118 62-112 5 3 6-5 3-19-5-17-2-26 9-30 22-9 48 3 42 19-3 7 0 15 7 18 8 3 9 7 2 13-5 4-21 31-34 58-14 28-29 56-35 63-9 13-11 182-2 370 2 53-3 135-11 190-8 53-17 120-19 147-3 28-8 57-11 65s-5 21-4 28c1 6-3 12-9 12s-8 5-5 10c3 6 1 25-6 44-17 48-6 82 30 89 20 4 36 17 46 38 15 29 15 32-2 44-10 7-15 17-11 21 4 3-4 15-17 26-14 11-25 28-25 38 0 22-71 87-116 106-50 21-126 18-155-6zm94-100c4-15 14-20 40-20 41 0 50-10 52-56 1-30-4-34-55-58-31-14-61-26-68-26s-20-4-30-9c-51-26-73-34-78-28-12 11-7 112 6 142 23 50 51 74 91 74 29 1 38-3 42-19zm527-235c-7-8-19-15-26-15-8 0-26-18-40-40-15-22-30-40-34-40-11 0-30-48-30-75 0-14-4-25-9-25-13 0-20-52-10-72 5-10 21-18 34-18 14 0 25-4 25-10 0-5 11-12 25-16 26-6 32-18 15-29-6-4-8-11-5-16 4-5 2-9-3-9s-13-26-17-57c-3-32-15-93-25-135-13-53-16-86-10-107 7-24 5-32-11-43-18-13-19-15-2-98s28-101 65-107c25-4 31 27 9 51-18 21-18 21 0 40 21 22 24 45 10 93-6 20-6 35-1 38s9 23 8 43c0 20 2 51 5 67 14 74 37 165 55 210l19 49 71 1c82 2 142 26 160 64 19 39 15 98-8 121-11 11-20 23-20 26 0 22-68 95-101 108-51 21-132 21-149 1zm81-65c4 0 6-13 3-29-6-28 15-58 24-33 4 14 32 16 32 2 0-10-19-15-94-25l-48-7 23-24c13-14 32-24 44-23 11 1 28-2 38-6s38-5 63-1c34 4 44 2 44-9 0-23-64-48-102-39-18 4-50 8-70 9-20 0-40 4-44 8s-18 7-31 7c-19 0-23 5-23 33 0 35 25 97 40 97 4 0 10 9 13 19 5 19 39 32 65 25 8-2 18-4 23-4zm-317-779c4-5 2-11-4-13s-6-17 2-43c6-22 12-45 12-51 2-24 42-64 63-64 18 0 23 6 23 24 0 14-4 28-10 31-5 3-10 17-10 30s-7 30-15 39c-8 8-15 19-15 24s-12 14-26 20c-14 7-23 8-20 3zm245-14c-26-20-31-65-14-118 9-27 22-49 30-49 10 0 39 73 40 102 0 3 3 10 8 14 13 13 7 52-9 58-23 9-37 7-55-7zm186-38c-31-63-29-119 5-119 11 0 20-4 20-10 0-16 50-12 56 5 4 8 12 15 18 15 14 0 36 56 36 92 0 29-13 42-52 52-14 3-33 9-41 12-11 4-23-10-42-47zm-710 31c-3-6 3-27 14-48 11-20 27-54 36-74 34-76 83-107 108-67 8 13 3 26-24 60-19 24-42 60-53 80-10 20-29 42-42 48-30 13-31 13-39 1zm-145-36c0-42 26-97 62-130 32-28 45-34 76-31 22 1 37 7 36 15-1 6-2 19-2 27-1 9-16 18-33 22-23 4-39 19-64 59-23 36-41 54-55 54-12 0-20-7-20-16z" transform="matrix(.1 0 0 -.1 -15.318078 165.004307)"/></svg>