<svg height="127.38549pt" preserveAspectRatio="xMidYMid meet" viewBox="0 0 149.492313 127.38549" width="149.492313pt" xmlns="http://www.w3.org/2000/svg"><path d="m475 1483c-30-8-136-73-168-104-15-14-43-51-62-80-19-30-41-61-49-70-30-30-66-161-76-279-13-137-7-185 25-206 13-8 26-26 29-40 6-23 10-24 79-24 39 0 77-4 83-8 19-13 23-51 7-68-13-12-15-37-11-139 2-79 8-129 16-137 7-7 12-24 12-40 0-23 7-31 43-47 35-16 64-19 169-18 90 1 129 5 132 13s18 10 43 7c35-4 43-1 69 27 16 17 71 75 122 128 50 53 92 102 92 109s6 13 13 13 20 8 29 17c9 10 28 26 42 36 28 19 25 47-5 47-11 0-48-22-82-48-35-26-77-54-95-61s-32-17-32-21c0-15-71-62-86-56-8 3-12 11-9 17 8 12 9 136 2 197l-5 44 56 24c32 13 64 29 72 34s34 19 58 31c23 13 42 26 42 30s9 11 20 14c21 7 21 12 11 187-1 9-8 24-18 33-13 14-14 18-3 25s10 14-3 42c-8 18-16 36-17 40-3 24-43 98-67 126-74 86-122 132-140 132-10 0-24 9-31 20s-21 20-32 20c-10 0-41 8-67 19-46 18-163 26-208 14zm272-208c78-56 122-125 103-159-25-48-183-74-225-38-35 30-58 73-46 85 6 6 11 25 11 43 0 23 5 33 20 37 10 3 27 21 37 41 9 20 22 36 28 36s39-20 72-45zm-371-155c45-17 81-61 100-122 16-54 16-59 1-76-9-10-17-23-17-28-1-5-10-20-21-34-19-22-30-25-108-28-102-4-109 0-118 76-4 40-1 61 16 96 11 25 21 53 21 61 0 9 7 27 16 40 18 28 61 33 110 15zm161-471 6-31 58 6c57 7 59 6 59-16 0-48-13-53-77-36-44 13-60 14-65 5-18-28-2-41 65-52 73-12 86-23 87-70 0-16 9-48 20-70 12-26 15-43 9-50-6-5-50-10-100-10-103 0-110 5-107 76 1 25-2 50-6 57-3 6-8 58-11 116l-4 106h30c25 0 30-5 36-31zm55-207c-27-8-28-10-20-39 7-28 38-30 62-4 15 17 15 19 1 25-9 3-13 10-10 16 7 11 1 11-33 2zm748 235c-14-13-33-27-42-33-39-22-198-160-198-171 0-7-6-13-12-13-7 0-31-17-52-38-22-20-52-47-68-59-20-14-26-23-17-29 7-4 18 1 27 12 13 16 14 17 9 2-8-22 6-23 23-3 6 8 22 17 33 21 27 8 137 102 137 117 0 5 14 23 31 38s28 32 25 38c-4 7-1 8 8 5 10-4 31 9 57 35 23 23 46 41 51 41 6 0 8 6 5 13-2 6 2 20 11 30 22 25 1 21-28-6zm110-206c0-6-20-13-45-17-25-3-45-11-45-16s-5-6-11-2c-6 3-15 1-19-7-5-7-21-13-37-14-42-2-89-19-193-70-14-6-71-27-127-46-57-19-103-38-103-42 0-5 10-17 23-27 18-15 33-18 82-13 72 6 157 29 205 54 19 11 41 19 48 19s38 16 68 35 58 35 63 35 11 3 13 8c2 4 29 24 61 45 51 33 56 39 43 52-17 17-26 19-26 6zm-11-175c-2-3-25-7-50-10-58-7-122-29-127-44-6-20 47-34 82-23 17 6 64 11 104 12 39 1 72 5 72 9s20 11 45 14c47 7 51 11 36 35-7 10-16 11-37 4-18-6-39-7-53-1-14 5-28 4-36-2-7-6-15-6-21 0s-12 8-15 6z" transform="matrix(.1 0 0 -.1 -11.362592 148.850357)"/></svg>