<svg height="111.886785pt" preserveAspectRatio="xMidYMid meet" viewBox="0 0 91.739439 111.886785" width="91.739439pt" xmlns="http://www.w3.org/2000/svg"><path d="m915 1379c-212-30-309-54-283-70 10-7 8-9-7-9-20 0-145-125-145-145 0-6-15-29-33-51-26-30-36-54-45-107-6-38-8-75-6-82 6-16 107-75 127-75 7 0 20-15 28-32 18-42 60-62 131-63 32-1 59-3 61-6 4-5 28-136 30-161 1-10 5-18 10-18s7-10 4-22-1-41 6-65c13-49 4-63-43-63-14 0-40-9-58-20s-39-20-47-20-15-9-15-20 6-20 14-20c7 0 19-6 25-14 11-13 78-22 231-32 41-2 88-9 103-16 18-7 59-9 114-5 74 5 91 10 111 30 21 22 22 27 10 48-17 31-37 44-68 45-50 1-111 16-114 27-17 66-22 98-16 102 3 2 5 56 4 119-1 64 2 116 7 116 4 0 20 5 36 12 15 6 35 10 44 9 8-1 24 8 34 19s24 20 32 20c7 0 18 11 23 25 6 16 17 25 31 25 18 0 21 4 16 29-4 19-1 33 8 41 8 7 15 21 15 32 0 10 7 29 15 41 25 38-11 144-71 208-13 14-24 31-24 37 0 7-11 17-25 22s-25 17-25 25c0 9-15 22-34 30s-36 18-38 22c-7 18-123 39-173 32zm-327-407c2-7-3-12-12-12s-16 7-16 16c0 17 22 14 28-4zm264-65c4-7 8-17 8-24 0-20 38-25 62-9 32 23 39 20 27-11-7-20-6-36 5-63s15-78 15-186c0-192-1-194-50-194-43 0-59 18-59 70 0 26 5 34 30 43 27 10 46 34 36 44-9 9-56 10-56 2 0-5-6-9-13-9-11 0-37 101-37 146 0 9-7 32-16 52-48 109-57 144-42 154 17 11 81 0 90-15zm188 10c0-22-11-27-26-12-19 19-18 25 6 25 11 0 20-6 20-13zm-330-51c0-13 5-26 11-28 5-2 7-11 4-20-9-24-35-10-35 18 0 13-4 24-10 24-5 0-10 7-10 15s9 15 20 15c14 0 20-7 20-24zm150-316c0-5-4-10-10-10-5 0-10 5-10 10 0 6 5 10 10 10 6 0 10-4 10-10zm85-250c3-5 1-10-4-10-6 0-11 5-11 10 0 6 2 10 4 10 3 0 8-4 11-10zm-62 499c-43-12-50-27-19-39 38-14 75 4 76 38 0 14-12 14-57 1zm-5-92c-39-11-50-35-25-54 38-29 98 7 77 46-6 12-12 20-13 20-1-1-19-6-39-12z" transform="matrix(.1 0 0 -.1 -39.528962 138.009257)"/></svg>