<svg height="115.413521pt" preserveAspectRatio="xMidYMid meet" viewBox="0 0 125.378355 115.413521" width="125.378355pt" xmlns="http://www.w3.org/2000/svg"><path d="m895 2115c-81-17-126-34-151-56-11-11-26-19-33-19-23 0-129-79-163-122-60-75-86-155-93-289-5-79-3-98 9-109 9-7 16-21 16-32 0-10 8-21 18-24 14-5 116-52 184-85 10-5 31-9 48-9 16 0 30-3 30-8 0-4 10-12 22-17 22-10 45-67 66-164 13-56 7-71-28-71-15 0-33-7-40-15-11-13-15-14-29-2-40 35-101 24-101-19 0-17-13-17-69-1-57 18-93 4-89-33 3-22 7-25 39-22 20 2 52-3 72-12 28-11 44-12 76-4 35 9 45 8 60-7 15-13 24-14 40-6 29 16 87 13 101-4 20-24 47-18 84 21 19 20 40 33 46 29 6-3 31-8 56-11 39-4 48-1 69 22 20 22 29 25 52 19 15-5 33-8 38-7 6 1 28-14 50-34 36-32 44-35 80-29 21 3 45 11 52 17s29 8 49 5c20-4 46-1 56 4 11 6 34 12 52 14 104 10 151 30 140 58-6 16-51 17-244 3-60-4-78-2-92 11-16 14-18 14-18 1 0-20-24-30-38-16-7 7-16 6-30-1-17-9-23-6-37 15-19 29-26 126-13 194 8 41 6 47-17 63-30 22-32 37-5 37 11 0 37 7 58 16 20 8 60 16 88 18s66 11 85 21 44 23 55 28c29 15 57 96 51 150-6 57-30 147-39 147-5 0-8 8-8 19 0 10-9 30-21 45-11 14-18 26-14 26 6 0-63 96-99 137-11 13-43 41-71 62-49 38-52 39-160 45-60 3-126 8-145 10-19 3-62-1-95-9zm94-92c10-18 19-20 128-26 91-4 90-8-7-50-19-9-48-19-63-22-17-5-32-17-38-32-13-34-12-34 16-21 21 10 30 8 53-9 28-21 152-39 152-22 0 5 9 9 19 9s28 8 40 18l22 17-27 28c-19 21-23 32-15 40 16 16 67-25 63-49-2-11-4-24-4-31-1-7-14-15-30-18-27-6-38-28-18-40 5-3 20 0 32 7 13 7 26 11 31 10 4-1 7 2 7 7 0 15 30 21 51 11 10-6 19-21 19-33s7-33 16-45c9-13 18-37 21-55s9-34 13-37c14-8-7-93-26-107-23-17-33-16-40 2-9 22-27 18-53-9-23-25-64-41-91-37-8 2-29 13-45 26-56 42-126 15-151-58-8-22-17-31-28-29-10 2-23-2-31-8-7-6-51-12-97-13-89-2-88-2-73 50 5 16 1 25-19 39-36 23-76 6-76-31 0-28-16-32-44-10-10 8-23 12-28 9-14-9-138 55-138 71 0 11 13 13 62 10 36-2 68 1 75 7 14 11 18 44 6 51-8 5-79-5-124-17l-26-7 4 53c6 58 45 160 76 195 15 16 27 21 44 17 15-4 31 0 43 11 14 12 27 15 47 10 54-13 108-14 125-1 9 7 20 24 23 39 6 21 4 27-9 27-26 0-77 30-71 40 4 6 21 10 40 10s37 5 40 10c11 18 93 12 104-7zm-229-62c0-10-30-24-37-17-3 3-2 9 2 15 8 13 35 15 35 2zm288-618c2-7-4-13-13-13-12 0-16-8-13-32 2-27 10-36 41-51 21-10 40-25 43-35 3-9 10-25 15-36 14-24-7-76-30-76-9 0-22-5-28-11-8-8-22-5-52 11-24 12-50 18-62 15-15-5-19-1-20 17-1 13-3 37-5 53-2 17-4 41-4 54 0 12-7 39-16 57-9 19-15 36-13 38s28 6 57 9 56 8 60 11c9 10 35 3 40-11zm-398 453c0-9-5-16-11-16-5 0-8-4-5-9 10-15 57 0 54 18-4 21-38 27-38 7zm590 4c0-5 5-10 11-10 5 0 7 5 4 10-3 6-8 10-11 10-2 0-4-4-4-10zm76-39c-10-11-24-40-32-66l-14-47 33 6c17 3 51 9 75 12 26 4 42 12 42 20s5 14 10 14c15 0 12 36-5 50-8 7-15 8-15 3 0-14-63-34-74-23-7 7-4 10 6 10 25 0 31 18 10 29-15 8-23 6-36-8zm-616-11c-16-4-25-13-25-25 0-11-3-25-7-32-5-7 3-15 24-22 17-6 32-11 34-11 10 0 44 46 44 59 0 21-39 38-70 31zm254-18c-26-21-40-85-22-100s84-25 113-18c13 3 39 20 56 37 29 28 30 31 16 53-15 23-75 46-118 46-13 0-34-8-45-18z" transform="matrix(.1 0 0 -.1 -45.213518 212.499398)"/></svg>