<svg height="125.727449pt" preserveAspectRatio="xMidYMid meet" viewBox="0 0 91.228033 125.727449" width="91.228033pt" xmlns="http://www.w3.org/2000/svg"><path d="m1005 1873c-11-3-32-14-47-24-14-11-30-19-35-19-19 0-155-169-169-210-4-14-7-31-6-37 2-7-1-13-6-13-11 0-39-116-41-165-1-16-4-43-6-60-3-16-7-65-10-108-3-44-6-82-6-85-5-36 14-47 134-73 92-20 107-29 107-62 0-13-5-16-24-11-35 9-52-25-28-58 34-46 40-65 35-110-3-28-1-48 6-52 6-4 11-18 11-32 0-30 17-64 31-64 5 0 21-11 34-25 24-23 80-45 118-45 9 0 34 11 55 23 20 13 52 27 71 30 18 4 49 17 69 29 34 21 34 22 29 76-3 30-10 59-15 64s-7 27-5 48c2 22 0 40-4 40s-9 25-11 55l-3 55h38c39 0 150 34 168 51 5 5 21 9 35 9 15 0 34 8 43 18 17 19 24 82 9 82-5 0-15 26-21 58-7 31-21 65-30 76-9 10-15 19-13 20 7 2-11 61-29 98-11 21-19 46-19 57 0 28-47 119-86 168-19 23-34 46-34 52s-12 17-27 25c-16 9-41 29-57 46-16 16-33 30-38 30s-30 10-56 22c-47 21-129 32-167 21zm160-147c20-15 20-16-7-38-14-13-29-34-33-47-7-22-5-23 21-17 16 4 31 12 32 17 5 13 61 41 70 35 11-7 80-109 84-124 2-9-8-15-28-17-35-3-84-32-84-49 1-26 17-38 38-27 11 6 28 8 36 5 10-4 16-1 16 8 0 21 36 51 50 43 7-4 19-24 27-43 15-35 14-37-12-58-15-12-23-24-19-26 5-3 3-3-5-1-16 4-31-14-31-36 0-11 13-13 59-8 54 5 60 3 65-17 15-57-8-86-69-86-44 0-55-9-43-35 6-13 20-26 32-29 21-6 21-7-4-21-35-20-66-18-99 6-36 26-52 18-44-22l6-29-56 3c-31 2-63 9-71 16-9 8-26 11-38 7-34-9-126 32-130 58-3 18-10 21-58 20-30 0-64-2-74-5-34-7-46 32-29 94 8 28 17 76 20 106 2 30 11 67 19 83 8 15 13 28 10 28-9 0 24 104 36 111 7 5 22 6 33 4 11-3 28 1 38 9 16 12 17 18 7 37-12 21-11 22 29 16 37-5 43-3 51 17 7 20 16 23 72 25 43 1 70-3 83-13zm-167-695c-7-11-16-17-21-14-4 3 0 11 10 19 24 18 25 17 11-5zm52-9c0-5 35-14 77-20 42-7 81-18 85-25 15-23 8-46-14-49-18-2-23-10-23-33 0-25 4-30 27-33 20-2 30-10 34-28 10-38-2-52-50-59-39-6-45-11-48-33-2-19-11-28-33-34-39-10-88 10-81 34 2 10 0 21-5 24-6 3-6 11 1 19 14 16 30 125 19 125-8 0-18 100-12 113 6 10 23 9 23-1zm-213 506c-8-31-4-34 55-41 72-9 101-1 87 24-5 10-16 19-24 19s-15 5-15 10c0 6-22 10-49 10-42 0-49-3-54-22zm-14-160c-5-7-9-22-9-32 1-18 9-20 71-21 39-1 73 2 76 8 4 5-3 20-14 33-16 19-31 24-68 24-26 0-51-6-56-12z" transform="matrix(.1 0 0 -.1 -67.786016 187.733019)"/></svg>