<svg height="117.041485pt" preserveAspectRatio="xMidYMid meet" viewBox="0 0 127.078944 117.041485" width="127.078944pt" xmlns="http://www.w3.org/2000/svg"><path d="m895 1439c-70-10-145-37-180-67-43-36-84-94-85-118 0-29-17-40-74-49-56-8-146-62-166-100-7-14-17-25-21-25-16 0-28-75-20-118 9-45 25-64 79-88 19-8 32-22 32-33 0-68 78-131 163-131 41 0 44-2 66-45 12-25 30-49 39-54 14-8 18-30 22-119 3-61 8-113 11-117 9-9 41-9 60-1 13 5 18 0 23-25 9-45 24-61 46-49 11 6 21 6 24 1s31-9 61-10c30 0 64-5 74-11 31-16 57-12 82 15 13 13 31 25 39 25 36 1 53 28 56 87 2 32 5 72 8 88 6 32-11 126-25 135-13 9 4 24 54 47 26 13 47 28 47 34 0 5 8 8 18 5 9-3 47 5 84 18 36 13 69 22 72 18 12-11 96 45 96 65 0 3 8 15 17 25 12 14 14 21 5 30-8 8-7 14 5 23 19 14 11 65-11 65-7 0-21 9-31 20s-24 20-32 20c-7 0-13 11-13 24 0 16-7 27-20 31-11 3-20 12-20 18 0 7-14 23-30 36-17 13-30 32-30 43 0 18-27 76-41 88-3 3-8 13-12 22-8 22-73 63-121 76-21 6-53 23-72 37-20 15-41 28-47 29-7 2-24 8-38 13-42 18-141 29-194 22zm201-141c26-13 60-35 75-50 15-16 37-28 49-28 29 0 76-26 84-45 10-28 7-94-6-115-10-16-9-26 6-54 14-27 32-39 89-61 117-45 121-55 42-90-47-21-58-23-82-12-23 10-28 18-28 45 1 45-31 94-59 90-11-2-20-9-18-16 1-6-3-12-9-12-9 0-8-4 0-14 6-7 8-26 5-43-4-18-1-33 5-37 21-13 13-46-11-47-75-2-111-9-128-24-14-12-28-16-50-12-20 4-40 0-62-12-34-19-168-34-168-19 0 4-4 8-9 8-14 0-21-43-9-57 8-10 6-13-10-13-27 0-35 26-20 66 10 30 9 36-16 69-27 35-29 36-47 19-25-22-115-37-142-23-16 9-19 18-15 61 5 49 5 50-28 64-18 8-39 11-47 8-43-16-63 74-26 120 26 33 103 57 141 44 36-13 79 9 89 44 7 29 13 37 75 104 22 24 47 44 55 44 7 0-2-14-20-31-31-28-33-33-27-72 4-23 13-49 21-56 21-21 66-3 84 33 11 24 11 34-2 67-11 28-12 39-4 40 7 1 19 3 27 4 8 0 22 4 30 7 92 33 107 34 166 6zm8-647c3-4-13-23-35-40-43-35-41-56 4-63 14-2 23-11 25-27 3-20 0-23-20-18-12 3-31 0-41-7-15-12-16-18-6-40 7-14 18-26 26-26 7 0 13-4 13-10 0-12-17-13-24-1-5 8-79 25-103 24-7 0-13 5-13 12s-5 15-11 17-11 29-11 62c-1 65 17 92 75 113 38 14 114 17 121 4zm-41 492c-7-3-13-11-13-19s-5-22-11-32c-14-23 4-72 28-73 68-6 99 16 98 66 0 23-7 30-45 45-25 9-51 15-57 13zm-461-157c1-41 3-44 31-49 29-4 107 28 107 43 0 4-8 17-19 28-14 17-30 22-69 22h-50zm293-30c-9-14-15-37-13-52 2-24 10-30 47-41 39-11 47-11 63 4s17 18 3 33c-8 9-15 23-15 32 0 19-32 48-53 48-9 0-24-11-32-24z" transform="matrix(.1 0 0 -.1 -34.671347 144.101483)"/></svg>