<svg height="180.202163pt" preserveAspectRatio="xMidYMid meet" viewBox="0 0 69.941981 180.202163" width="69.941981pt" xmlns="http://www.w3.org/2000/svg"><path d="m855 2102c-11-2-24-8-29-13-6-5-20-9-33-9-26 0-103-45-103-59 0-6-9-13-20-16-45-14-130-167-130-234 0-10-5-21-12-23-8-3-12-32-13-89 0-62-4-85-14-90-19-7-23-195-4-210 9-8 10-16 3-30-6-10-10-42-10-71s-2-78-6-108c-7-64 10-152 34-173 22-18 66-31 130-36 43-3 45-12 45-177 0-88 3-169 8-180 4-12 4-25-1-30-11-13 5-177 21-202 21-34 149-67 164-42 3 6 21 10 40 10 29 0 35 4 43 33 5 17 9 135 8 260-1 160 2 231 10 238 8 6 13 3 17-11 4-16 9-18 29-11 17 7 22 15 20 36s3 28 26 37c28 11 52 46 81 122 11 28 25 293 23 446-1 41-1 94-1 117s-4 44-9 47-8 18-6 33c1 15 0 32-4 37-3 6-7 17-9 26-9 54-27 120-33 120-4 0-7 11-7 25 0 13-16 48-35 77s-37 60-40 68c-15 42-129 92-183 82zm41-137c1-17 16-49 30-65 9-10 10-20 4-30-6-9-10-10-10-3 0 9-24 11-87 9-114-5-158-14-178-36-25-28-9-44 34-35 74 14 253 15 273 1 13-10 16-16 8-21-6-4-9-13-6-20 4-10-10-15-52-20-85-9-102-14-102-30 0-22 20-29 90-30h65l6-40c4-22 5-42 4-43-2-2-23-6-47-9s-49-10-55-15c-7-6-20-8-28-4-9 3-15 0-15-10 0-23 44-35 82-22 24 9 33 8 36 0 2-7 12-12 22-12 17 0 30-26 30-60 0-16-10-19-95-23-65-3-90-17-73-39 12-16 42-23 137-33 24-2 46-6 49-9 13-14-22-33-59-33-22 0-45-5-51-11-8-8-17-8-30-1-22 12-48 5-77-20-31-27-6-44 61-40 29 2 59 0 66-5 7-4 25-5 39-1 17 4 29 1 34-7 14-22 10-28-16-28-16 0-25-6-25-15 0-12-4-13-19-6-12 7-28 7-48-1-24-9-36-8-61 5-18 8-34 12-37 7-2-4-18-10-35-13-68-14-14-55 77-59 105-4 57-38-64-46-40-2-73-8-73-12 0-15-44-19-81-7-28 8-38 18-42 37-2 14-6 31-8 38-4 14 2 18 53 42 40 19 21 50-29 50-26 0-34 3-26 11 5 5 8 27 6 49-4 36-3 38 32 50s36 13 19 31c-9 10-23 19-30 19-21 0-26 17-18 65 5 36 10 45 26 45 33 0 58 19 58 45 0 28-3 29-32 14-23-13-80-3-59 11 9 5 12 18 9 35-6 31 13 55 45 55 12 0 33 9 47 20 20 16 23 22 14 37-6 10-23 19-38 21-33 4-43 25-28 58 9 18 9 24-1 25-6 0-2 5 10 11 13 6 25 19 29 30 11 35 54 71 106 89 55 18 132 21 134 4zm114-823c0-14-11-21-26-15-8 3-11 9-8 14 7 11 34 12 34 1zm-198-244c14-14 22-35 23-58 0-32 2-35 30-35 23 0 30-4 30-20 0-11-6-19-12-17-7 1-13-2-13-8 0-5-8-10-18-10-9 0-23-10-31-22-11-18-11-22 5-32 11-6 37-11 59-11 33 0 40-3 40-20s-7-20-40-20c-45 0-85-22-85-47 0-13 13-18 55-23 55-7 55-7 55-42v-36l-38 7c-35 5-40 3-50-20-15-31-15-35 1-32 7 2 12-7 12-22 0-21-4-25-25-22-35 3-50 28-46 76 2 26-3 47-12 58-10 13-12 21-4 30 5 7 10 29 11 48 0 19 2 47 4 61 2 15-1 40-8 55-7 18-9 44-4 69 4 22 10 57 14 78 7 43 16 46 47 15zm188-8c0-5-4-10-10-10-5 0-10 5-10 10 0 6 5 10 10 10 6 0 10-4 10-10zm-90-454c0-16-18-31-27-22-8 8 5 36 17 36 5 0 10-6 10-14z" transform="matrix(.1 0 0 -.1 -48.234576 210.335478)"/></svg>