<svg height="122.217251pt" preserveAspectRatio="xMidYMid meet" viewBox="0 0 81.121332 122.217251" width="81.121332pt" xmlns="http://www.w3.org/2000/svg"><path d="m554 1461c-104-18-213-105-251-201-7-19-23-54-34-77-23-48-49-175-51-245-1-53 17-88 59-115 15-10 35-25 45-33 27-24 41-34 83-57l39-21v-147l1-146-30-17c-16-9-33-21-36-25s-12-1-19 8c-7 8-17 15-22 15-6 0-5-7 2-15s10-21 7-28c-9-23 9-39 49-47 22-3 38-11 37-18-2-6 10-20 26-31 25-18 40-20 127-16 54 2 137 11 184 20s115 16 152 15c36-1 69 3 72 8 3 6 3 24 0 41-6 29-10 31-64 37-53 6-57 8-57 33 1 38-12 216-18 254-3 18-9 55-14 84-9 58-1 73 37 73 37 0 80 31 112 80 37 57 52 199 28 246-9 16-26 52-39 79-12 28-41 69-63 92-23 23-52 54-66 69-57 63-196 103-296 85zm37-140c-11-7-10-14 5-40 22-37 48-37 52 1 2 18-4 31-20 42-22 16-22 16 17 12 53-5 86-19 109-45 29-32 29-69 0-87-22-15-34-54-16-54 27 1 52 14 48 26-3 8 0 14 7 13 21-1 54-52 67-107 14-60 4-79-51-102-16-7-29-16-29-20s-21-15-47-25c-27-10-54-23-62-29-19-15-132-23-152-10-16 10-9 22 16 28 31 8 33 34 5 64-22 23-64 29-75 11-9-13 16-99 29-99 6 0 6-4-1-11s-17-7-29-1c-11 6-41 17-69 25l-50 14-3 59c-2 32-1 68 3 81 5 23 30 32 37 12 5-16 34 0 46 26 9 20 7 28-14 50-13 14-24 35-24 45 0 43 86 111 180 142 21 8 39-10 21-21zm140-702c16-11 29-25 29-31 0-19-32-48-52-48-10 0-18-4-18-10 0-5 17-8 38-7 35 2 37 0 40-30 2-25-1-33-12-33-9 0-16-7-16-15s-8-15-18-15c-11 0-27-9-37-20-11-12-31-20-51-20-31 0-33 2-43 50-6 28-11 60-11 71s-5 29-10 39c-8 15-6 24 10 40 11 11 26 20 34 20 7 0 27 7 42 15 37 19 40 19 75-6zm-191 572c0-11-4-22-9-25-11-7-3-42 13-56 17-14 63 9 70 35 3 12-3 28-16 42-27 29-58 30-58 4zm182-103c-19-19-14-65 10-88 27-25 50-26 72-1 20 22 9 61-26 85-27 19-40 20-56 4z" transform="matrix(.1 0 0 -.1 -21.841565 146.536864)"/></svg>