<svg height="101.972136pt" preserveAspectRatio="xMidYMid meet" viewBox="0 0 89.913734 101.972136" width="89.913734pt" xmlns="http://www.w3.org/2000/svg"><path d="m794 1722c-133-50-228-131-270-229-9-21-21-46-26-56-6-13-5-24 4-35 10-12 10-14 1-8-9 5-13 0-14-16-1-13-2-42-3-65-1-24 1-43 4-43 5 0 7-22 9-113 0-16 0-34-2-40-1-7 8-11 21-10 12 2 22-1 22-6 0-8 55-16 145-22 13-1 27-15 39-40 16-32 17-43 7-65-9-21-9-29 2-38 18-14 28-54 16-62-5-3-37-10-71-15-35-6-67-14-72-20-6-5-17-9-26-9s-22-12-29-27c-11-24-10-29 10-44 22-17 107-30 114-19 4 6 17 6 260-6 191-9 237-9 305-1 89 11 111 18 131 38 19 19 19 19-5 29-13 5-26 15-28 22-3 7-20 13-39 14-138 4-129 2-129 30 0 14-5 34-10 45-6 10-12 38-14 61-2 24-5 48-6 53-8 33 2 67 20 72 11 3 20 10 20 15 0 6 16 7 38 3 32-5 46-1 100 34 43 28 62 47 62 61 0 30-21 113-31 125-5 5-9 16-9 25 0 8-15 47-34 85-45 93-166 216-271 275-62 35-152 36-241 2zm149-88c19-7 11-40-19-77-20-23-22-31-12-52l11-25 35 36c27 28 33 41 30 65-3 17 0 29 6 29 15 0 76-55 76-69 0-6 7-11 15-11s15-4 15-10c0-5-7-7-15-3-30 11-86-62-77-100 5-24 34-18 48 11 6 12 21 34 34 47 21 23 24 23 51 9l29-15-40-38c-40-38-52-74-27-84 17-6 32 3 40 25 3 9 17 24 32 34 20 13 28 14 40 4 8-7 15-19 15-26 0-8 5-14 10-14 6 0 10-5 10-11s-7-9-15-5c-19 7-67-33-61-51 8-20-11-15-26 6-13 18-29 25-56 22-9-1-9-10 3-38 9-21 20-42 25-46 13-14 50 2 43 19-4 10 2 14 22 14 38 0 65 17 65 43 1 18 3 16 15-11 8-18 12-38 9-45-6-17-97-57-164-73-76-18-170-18-170 0 0 8-8 17-17 20-12 5-13 10-5 18s7 19-6 40c-9 15-19 28-22 28-14 0-26-57-17-77 13-30 2-57-21-48-9 4-24 9-32 10-59 9-140 30-140 38 0 4 9 6 19 2 22-7 34 6 25 28-8 22-24 25-62 15-26-7-31-12-23-22 14-16 4-26-25-26-27 0-32 24-27 116 6 109 77 234 134 234 11 0 19-5 19-11s10-10 23-9c12 1 24 1 27 0 3-2 24-4 46-4 49-3 49 11 2 39l-31 18 34 17c35 18 77 24 102 14zm127-584c0-13-6-17-19-13-22 6-61-13-61-28 0-7 13-9 35-5 20 4 40 4 45 1 13-8 0-37-15-31-17 6-48-17-51-39-2-15 3-17 36-12 44 6 55-8 40-48-10-28-34-31-123-16-26 4-50 4-52 0-8-12-63 20-70 41-4 11-11 20-16 20-13 0-11 37 2 45 6 4 8 22 4 44l-6 38 97 6c54 4 102 11 107 16 14 14 47 1 47-19zm-401 444c0-5-2-17-4-26-5-25 13-35 76-43 67-8 79 2 47 39-16 19-37 28-70 32-27 4-48 3-49-2zm-48-123c-16-12-20-20-12-25 6-4 9-11 6-16-7-12 34-23 87-24 38-1 48 2 52 18 7 26-1 36-28 36-12 0-31 7-42 15-25 19-34 18-63-4zm349-122c0-26 26-53 45-45 22 8 18 33-7 50-30 21-38 20-38-5z" transform="matrix(.1 0 0 -.1 -48.562893 174.693459)"/></svg>