<svg height="92.433677pt" preserveAspectRatio="xMidYMid meet" viewBox="0 0 65.541629 92.433677" width="65.541629pt" xmlns="http://www.w3.org/2000/svg"><path d="m363 1143c-18-2-33-8-33-14 0-5-6-9-13-9-13 0-110-91-153-143-12-15-36-60-53-101-31-74-31-75-15-122 8-25 13-57 10-69-3-13-1-25 5-27s13-15 14-28c1-14 3-29 4-33 1-11 92-51 112-49 13 0 17-12 21-61 10-123-12-207-53-205-43 3-59-3-59-21 0-31 23-41 101-40 41 0 110 0 153-1 43 0 95 5 115 12 20 6 46 11 59 10 17-1 22 3 22 23 0 18 5 25 20 25 11 0 28 9 37 20 10 11 28 20 40 20 17 0 23 6 23 23 0 38-35 67-81 67-44 0-42-3-57 95-13 82-14 81 77 116 46 17 66 31 73 49 13 31 11 104-1 108-6 2-7 10-4 18 6 16-14 73-31 89-6 6-22 33-36 60-13 28-34 59-46 71-12 11-23 25-25 30-10 23-73 64-99 64-16 0-30 4-32 9-4 11-55 19-95 14zm158-176c14-17 31-42 38-55 7-12 16-20 21-17 6 3 7-1 4-10-4-8 0-25 9-38 19-29 30-81 23-105-4-12-26-24-64-35-105-30-240-49-264-36-9 5-25 9-34 9-57 0-73 98-29 180 13 25 24 40 25 33 0-7 9-17 20-23 21-11 34-6 74 25 19 14 18 15-7 36-15 11-27 24-27 29 0 10 35 19 102 25 28 3 54 8 57 10 11 12 28 3 52-28zm-81-22c-14-17-8-51 14-80 16-20 16-20 36 5 25 32 25 36-6 65-32 29-28 29-44 10zm50-145c-23-23-23-38 3-54 13-8 22-6 39 12l22 22-21 21-21 21zm-153-3c-22-9-28-16-24-34 3-16-1-23-11-23-12 0-12-3-2-15 18-22 66-18 90 7 23 25 24 32 10 59-12 21-22 22-63 6z" transform="matrix(.1 0 0 -.1 -8.546586 114.448441)"/></svg>