<svg height="142.406776pt" preserveAspectRatio="xMidYMid meet" viewBox="0 0 123.598488 142.406776" width="123.598488pt" xmlns="http://www.w3.org/2000/svg"><path d="m735 1642c-140-50-218-132-265-282-25-81-34-240-13-247 6-2 9-13 6-24-12-44 74-126 104-99 4 5 32 11 61 15l52 7v-60c0-34 4-64 10-67 5-3 10-16 10-28 1-52 6-96 17-147 17-84 24-180 13-180-6 0-10 4-10 9 0 12-134 148-179 181-20 16-34 36-36 51-5 45-24 68-65 80-34 10-43 10-58-4-10-10-24-17-30-17-13 0-30-75-24-108 3-12 17-36 33-53 28-30 31-31 92-25 56 6 64 5 85-16 62-64 152-211 152-250 0-17-39-46-103-78-49-24-57-44-25-63 11-8 56-6 155 6 76 9 157 17 180 17s70 7 105 15c60 14 164 19 257 13 54-4 81 13 65 39-6 10-20 20-32 23-11 3-30 17-42 32-19 25-26 27-88 26-108-1-112 0-112 22s19 27 37 9c8-8 17-8 33 1s21 19 18 42c-3 27 3 36 46 66 57 40 159 76 192 68 17-5 24-13 24-32 0-42 27-84 55-84 14 0 25 5 25 10 0 6 6 10 14 10 20 0 54 45 65 87 11 37-1 77-29 101-21 18-78 7-107-20-18-17-28-20-41-12-27 18-172-19-193-49-3-5-9 2-12 14-4 15-1 26 7 31 8 4 17 20 21 35 3 16 14 43 22 61 15 31 19 33 50 27 43-8 92 23 122 76 38 67 7 126-78 149-39 10-45 9-63-9-10-12-24-21-30-21s-8-11-6-25c3-14 1-25-4-25s-8-6-5-12c5-15-33-88-46-88-4 0-7-14-5-30 1-17-2-34-8-38-19-12-37-52-23-52 8 0 7-6-3-17-8-10-21-40-28-68-7-27-21-63-32-79-14-19-18-37-14-57 3-15 2-31-3-33-5-3-11 17-15 45-4 27-11 47-16 44-4-3-4 11 1 31 6 20 7 43 4 52-4 10-7 80-6 157 2 208 2 208-20 238-11 16-19 29-17 30 1 1 13 8 25 15 13 6 29 12 36 12 18 0 75 28 82 41 4 5 19 9 35 9 39 0 107 65 105 100-2 38-37 150-47 150-4 0-8 10-8 23 0 33-32 83-101 156-67 71-77 75-264 87-40 2-76-2-110-14zm113-75c15-8 45-22 67-33 52-24 49-22 38-36-6-7-13-25-17-40-3-16-11-28-16-28s-18-9-28-20c-15-17-24-19-44-11-32 12-58 67-51 105 4 19 2 27-5 22-17-10-24 11-10 34 15 23 30 25 66 7zm-146-84c4-118 5-121 44-158 25-24 46-35 63-34 71 5 78 2 76-38-2-21 3-53 11-72 8-18 14-35 14-36 0-2-24-10-52-18-64-19-178-30-178-18 0 5 5 11 10 13 6 2 14 28 19 58 7 45 6 61-9 91-21 41-83 97-117 105-27 7-28 18-5 60 23 43 81 90 115 93 4 1 8-20 9-46zm405-125c23-47 22-78-2-78-7 0-18-7-25-15s-30-20-52-25c-21-6-46-14-54-17-23-9-16 19 12 49 23 23 30 25 47 16 16-8 23-7 32 6 7 9 16 16 21 16s11 12 12 26c1 20-4 28-28 37-35 13-41 40-7 35 15-2 29-18 44-50zm-539-79c30-23 37-55 23-106-9-30-7-40 6-55 15-17 14-18-30-18-26 0-46 3-45 8 1 4-1 34-5 67-8 65-1 125 15 125 5 0 22-9 36-21zm412-119c0-5-4-10-9-10-6 0-13 5-16 10-3 6 1 10 9 10 9 0 16-4 16-10zm-120-201c0-15 5-31 10-34 6-4 8-15 5-25s-1-21 5-25 7-12 2-18c-12-18-15-76-4-90 5-7 8-32 7-57-2-25 3-92 11-149 9-57 13-110 10-117-7-17-27-18-61-2-23 10-25 17-25 70 0 40-4 58-12 58-10 0-10 2 0 8 7 5 10 16 7 24-9 22-14 95-16 208 0 52-5 97-10 100-4 3-6 23-2 44 10 64 73 69 73 5z" transform="matrix(.1 0 0 -.1 -32.699518 165.636265)"/></svg>