<svg height="143.207049pt" preserveAspectRatio="xMidYMid meet" viewBox="0 0 97.276787 143.207049" width="97.276787pt" xmlns="http://www.w3.org/2000/svg"><path d="m735 2080c-11-5-39-14-62-20-32-8-61-29-118-85-41-41-75-81-75-89s-8-22-17-31c-9-10-17-24-18-34-1-9-5-23-8-31-2-8-12-35-21-60-8-25-18-63-20-85-3-22-10-54-15-72-5-17-7-34-4-37s1-11-5-19c-6-7-11-45-10-84 0-39-2-76-6-81-3-6-2-14 4-17 7-4 9-28 6-61-3-30-1-54 3-54 5 0 6-11 4-24-3-13 0-33 7-45 10-20 18-22 87-19 59 1 78-1 87-14 6-8 21-18 34-22 18-6 23-14 21-34-1-15 3-45 8-67 6-22 14-82 17-134 6-90 8-96 46-147 30-39 45-52 57-47 9 4 13 8 7 10-5 2-8 20-8 40 1 21-1 42-3 46-3 4-6 71-7 147-1 77-6 143-10 147-10 11 146 33 159 23 6-5 26-10 45-12 49-4 48-32-2-36-36-3-38-5-38-38 0-20 5-35 13-35 6-1 22-3 34-4 13-1 29-8 38-15 36-29-1-86-49-74-30 7-56-14-56-45 0-12 8-39 17-61 15-33 23-40 45-40 23 0 28 4 28 24 0 14-4 28-10 31-19 12-11 37 12 33 14-2 25-14 32-35 17-49 31-59 60-44 13 8 27 22 29 32 8 28 37 36 53 13 7-10 22-28 33-39 13-12 19-29 16-43-2-12 0-24 4-26 9-6 116 47 137 69 25 25 5 59-45 73-22 7-47 22-55 33-11 16-26 21-67 22-50 2-53 4-64 37-7 19-15 69-19 110s-12 81-18 88c-16 18 7 39 50 47 49 8 147 68 146 88-1 8 4 13 10 11 15-6 18 64 4 90-7 14-7 16 2 11 16-10 4 98-17 143-8 18-12 40-9 47 3 8 1 17-4 20s-7 19-3 35c3 17 1 30-4 30-6 0-10 19-10 43 0 43-22 117-35 117-5 0-8 9-8 20 0 58-162 231-240 255-3 1-12 5-20 8s-33 8-55 11-53 7-70 10c-16 3-39 1-50-4zm190-135c33-30 24-57-25-73-22-6-49-12-60-12-21 0-76-51-78-72 0-7-4-28-7-45-6-34 19-93 40-93 5 0 30 9 54 21 31 13 48 16 55 9 5-5 23-10 39-10 38 0 125 83 108 104-15 17-3 28 19 16 20-11 50-89 50-128 0-24-1-24-18-9-24 22-65 22-83 0-22-27-47-76-50-99-5-26 41-94 63-94 9 0 21-12 26-27 5-16 13-36 17-45 5-13-2-21-29-32-28-11-36-21-36-40 0-16 7-27 20-31 26-8 112 34 118 58 5 19 5 19 25 11 16-6 12-48-7-63-32-26-90-51-119-51-18-1-43-7-57-15s-37-14-52-15c-16 0-28-4-28-10 0-5-23-10-51-10-34 0-48-4-43-11 4-7 0-9-12-6-11 4-48 7-84 8-36 2-69 6-75 10-5 3-28 10-50 14-22 3-53 13-70 20-16 7-38 15-47 19-13 4-18 16-18 46 0 25-5 40-12 40-9 0-9 3 1 9 12 8 12 14 2 38-8 19-9 38-3 54 5 13 10 47 11 74 1 28 4 58 7 68s1 24-5 31c-9 10-7 15 10 19 11 3 18 10 15 16-4 5-3 12 2 15 10 6 56-83 48-92-10-9 16-32 36-32 24 0 68 29 68 45 0 7 6 15 14 18 10 4 13 20 11 59-3 43-8 57-32 78-23 21-37 26-64 22-30-3-38-9-48-39-10-26-16-32-22-22-5 8-4 18 1 23 6 6 10 16 10 24 0 26 70 131 122 183 48 47 54 50 87 44 20-4 38-11 39-16 2-5 12-9 23-9s19-7 19-16c0-14 3-14 15-4 8 7 15 18 15 24 0 38 55 39 95 1zm-118 19c-3-3-12-4-19-1-8 3-5 6 6 6 11 1 17-2 13-5zm193-74c0-6 11-23 25-38 29-31 31-38 9-46-11-4-14-13-10-31 5-21 3-25-17-25-13 0-33-9-45-20s-34-20-49-20c-21 0-24 3-13 10 10 6 14 28 14 74 1 36 4 66 8 66 5 0 8-4 8-10 0-5 7-7 15-4 8 4 15 14 15 23 0 10 3 21 7 24 10 11 33 8 33-3zm172-420c3-17 2-32 0-35-10-9-62-5-62 5 0 6 4 10 8 10 5 0 14 11 20 25 15 34 29 32 34-5zm-356-313c6-6-77-17-101-13-10 1-21 8-23 15-3 8 13 10 58 7 34-3 64-7 66-9zm6 286c-11-10-32-26-46-37-21-15-24-24-19-50 9-51 43-104 70-109 83-16 127 66 82 154-33 64-50 72-87 42zm-288-44c-42-46-9-176 41-163 34 10 70 40 69 60-3 57-6 71-22 90-27 32-66 38-88 13zm240-593c-9-35-1-61 18-58 10 1 15-4 14-14 0-9 5-19 13-22s11 0 7 7c-4 6-1 11 7 11 23 0 27 24 11 56-26 49-60 59-70 20zm-231-13c-7-2-13-13-13-22 0-28-10-31-45-10-29 17-33 18-39 4-7-20 20-52 65-75 25-13 39-16 46-9 11 11 51-4 64-24 4-6 12-5 22 4 13 12 12 19-6 56-11 22-31 46-44 52-12 6-23 15-23 21 0 11-7 12-27 3z" transform="matrix(.1 0 0 -.1 -35.428751 208.545318)"/></svg>