<svg height="147.594944pt" preserveAspectRatio="xMidYMid meet" viewBox="0 0 118.978931 147.594944" width="118.978931pt" xmlns="http://www.w3.org/2000/svg"><path d="m985 1696c-22-7-58-23-80-34s-60-29-85-40c-44-20-74-40-110-74-10-9-28-21-39-28-20-10-101-123-101-139 0-5-20-47-44-94-44-87-61-132-57-154 1-7-3-13-10-13-8 0-10-11-6-34 3-18 1-38-5-44-11-11 7-108 24-127 4-5 8-15 8-22 0-8 22-44 50-80 27-36 50-70 50-75s33-6 76-2l75 7-8-29c-19-67 0-309 29-387 11-27 12-28 64-21 53 6 112-1 100-13-3-3 2-19 11-34 21-35 51-37 123-9 28 11 58 20 68 20 9 0 29 7 44 14 15 8 39 13 52 10 27-5 46 14 26 26-9 5-9 9-1 11 11 4 16 54 26 238 2 46 6 85 9 88s28 7 57 9c58 4 77 14 161 84 34 29 88 110 88 132 0 6 9 23 21 39 31 44 43 157 26 249-5 25-10 54-12 65-7 36-64 173-89 212-53 81-160 173-201 173-13 0-27 4-30 10-3 5-34 23-69 39-75 37-178 48-241 27zm160-127c22-6 49-21 60-33 11-11 33-27 48-34 15-6 25-17 22-22-11-18-113-90-127-90-23 0-58-30-58-51 0-16 7-19 39-19 22 0 43 5 47 11 3 6 41 27 83 46 42 20 78 37 81 39 3 1 11-1 18-5 15-9-33-71-55-71-7 0-30-8-51-17-20-9-53-22-72-28-41-13-57-55-20-55 30 0 90 27 90 41 0 7 10 9 28 6 19-4 34 1 52 17 14 13 37 26 53 30 23 5 29 3 37-19 15-40 14-43-40-66-27-12-50-28-50-35 0-18-40-39-68-35-26 3-83-17-94-33-12-18-9-26 10-26 10 0 23-5 29-11 9-9 18-8 37 5 30 19 66 21 66 4-1-21-28-50-40-43-6 4-19 4-28 0s-28-8-42-9c-19-1-25-6-25-26 0-21 5-26 32-28 34-3 92 14 160 47 54 27 63 26 63-2 0-35-59-82-133-107-36-11-40-11-55 11l-16 23-6-24c-5-21-12-25-40-23-21 1-41 9-51 22-10 12-22 21-27 21-14 0-22-38-15-71l6-29-69-2c-270-8-390 0-406 26-10 15-10 78 0 93 5 7 21 11 40 9 18-3 60 3 95 13 34 10 67 16 73 14s17 3 24 12c17 21-13 70-38 60-9-4-48-9-86-11-49-4-74-10-83-22-14-19-14-19-17 21-1 24 3 29 26 34 15 3 28 9 28 13 0 9 72 26 119 29 41 2 46 5 46 36 1 23-2 24-72 24-40 0-75-4-78-10-9-14-25-11-25 5 0 12 89 38 145 42 11 1 27 2 36 3 10 1 16 11 17 30 1 32 8 29-107 44-30 4-10 22 28 25 22 2 45 10 51 18 7 7 19 14 27 14 15 0 14 34-1 59-6 9-4 17 6 22 9 5 19 20 22 33 4 17 23 34 54 50 51 28 113 29 197 5zm-300-99c3-5 1-10-4-10-6 0-11 5-11 10 0 6 2 10 4 10 3 0 8-4 11-10zm-35-9c0-12-20-25-27-18s6 27 18 27c5 0 9-4 9-9zm271-782c38-14 59-28 60-38 1-9 3-35 5-57 3-36 0-44-21-58-14-9-38-19-54-22-24-5-30-13-36-40-7-39-22-42-57-14-23 17-24 23-18 67 5 26 7 73 5 103-4 87 14 96 116 59zm47-275c-7-6-31-14-54-18-32-4-45-2-57 12-15 16-11 17 54 18 54 0 67-3 57-12zm2 1111c-14-8-40-14-58-15-30 0-62-18-62-35 0-4 26-5 58-3 67 4 128 34 110 55-13 16-17 16-48-2zm-447-553c-27-4-36-27-20-53 11-18 19-20 73-15 33 3 68 8 77 12 18 6 22 31 9 50-6 11-83 14-139 6zm359-338c-32-22-29-54 6-54 70 0 98 35 47 58-32 15-26 15-53-4z" transform="matrix(.1 0 0 -.1 -44.480512 170.634825)"/></svg>