<svg height="177.748583pt" preserveAspectRatio="xMidYMid meet" viewBox="0 0 169.667931 177.748583" width="169.667931pt" xmlns="http://www.w3.org/2000/svg"><path d="m943 2263c-18-7-65-18-105-24-70-11-147-47-186-86-8-8-25-18-37-23-37-14-199-210-229-276-15-34-28-68-30-78-1-9-8-22-14-28-7-7-12-16-12-21s-6-23-14-40c-35-77-48-201-24-225 6-6 11-36 9-69-1-35 4-69 13-86 8-15 13-34 10-41-3-8 4-32 15-55 12-22 21-46 21-54 0-13 117-87 139-87 7 0 54-14 104-31 51-16 110-30 132-29 62 3 64 2 78-33 16-37 14-156-3-187-6-12-21-20-35-20-13 0-28-6-32-13-9-14-82-38-128-41-19-2-31-9-33-19s-11-17-21-17c-27 0-61-29-61-52 0-20 4-21 72-14 39 3 76 10 82 15s27 12 46 16 44 14 55 21c24 16 142 21 156 7 7-7 1-12-21-16-28-6-29-8-18-27 10-16 19-19 43-14 17 3 35 10 40 14 11 8 26 7 110-8 67-13 188-10 224 5 17 7 41 6 78-3 62-14 253-15 253-1 0 10-50 52-61 52-4 0-11 3-15 7-4 5-22 8-40 8s-36 5-39 10c-3 6-15 10-25 10-11 0-26 12-35 29-12 25-23 31-66 38-48 7-53 11-65 43-7 19-13 56-13 81l-1 46 98-3c64-2 114 2 147 12 28 8 58 15 67 15 10 0 20 4 23 10 4 5 15 9 26 9 53 0 220 113 205 139-5 7 6 17 28 26 20 9 36 22 36 31s9 29 21 45c11 16 17 29 14 29-4 0 0 7 9 15 8 9 13 22 9 30-3 9 0 22 7 30s10 26 8 39c-3 16 0 27 9 30 12 5 12 9 0 27-13 17-13 25-2 46s11 33-1 74c-8 27-13 53-10 58s-1 14-9 21-15 22-15 35c0 27-28 85-41 85-6 0-7 5-4 10 3 6-1 10-9 10-9 0-13 6-10 14 10 27-72 165-98 166-4 0-27 22-52 48-25 27-58 55-73 62-38 20-87 53-91 63-2 4-11 7-19 7s-28 11-45 25c-16 14-42 28-56 31-15 4-51 17-80 30s-59 24-68 24c-8 0-40 9-72 19-67 23-218 25-269 4zm141-99c10-4 16-18 16-39 0-46 44-129 75-143 49-22 94-13 135 28 25 25 40 55 40 79 0 26-3 26 51-1 24-12 52-21 62-20 9 0 15-3 12-8s4-15 15-23c14-10 18-20 14-38-28-112-2-189 78-242 35-22 126-18 140 7 21 37 46 10 62-66 6-27 5-28-29-22-39 6-48-6-60-79-5-33-8-36-25-27-10 5-40 30-65 55-26 25-50 45-52 45-3 0-18 10-35 21-28 20-54 63-49 83 3 12-50 86-61 86-6 0-23 14-38 30-30 32-82 41-97 18-4-7-21-20-37-28-24-12-39-29-52-58-1-2-22 2-45 9-46 13-70 13-79-1-5-9-80-7-96 2-5 2-40 3-79 1-145-6-155-5-155 14 0 8-4 11-10 8-5-3-8 0-5 7 6 15-40 68-59 68-18 0-30-31-16-40 6-4 13-22 16-42 6-33 4-35-25-41-51-10-130-51-137-69-3-10-14-18-25-18-10 0-19-5-19-12 0-6-3-9-6-5-10 9 28 65 48 70 10 3 21 13 24 24 4 10 14 26 22 36 8 9 12 17 7 17-4 0 4 10 19 21 15 12 25 23 23 26-3 2 8 18 24 36 16 17 29 37 29 44s5 13 11 13c5 0 28 14 49 31 38 31 70 34 70 7 0-7 17-32 38-56 33-38 42-43 86-45 41-1 52 2 72 26 13 15 21 34 18 42-4 8-1 15 4 15 7 0 9 21 7 55-5 66 1 84 29 95 26 11 40 12 60 4zm171-26c13-15 13-48 0-62-23-23-48-20-79 9-30 28-33 50-10 63 14 8 79 1 89-10zm-290-25c-1-16-7-45-14-65-7-21-9-43-5-49 5-9-2-10-25-6-49 10-94 35-114 62-17 24-17 25 0 31 10 3 32 11 48 18 95 41 113 43 110 9zm661-165c70-74 82-113 36-120-50-7-87 16-102 64s-14 79 4 90c17 12 20 11 62-34zm-278-133c34-11 26-22-20-27-53-5-78 0-78 17 0 21 50 26 98 10zm-410-150c2-2 11-50 19-107 21-153 24-172 36-186 5-7 7-15 4-19-4-3-2-12 4-19s6-15 1-18c-6-3-5-24 1-51 8-34 7-49-1-57-9-9-16-7-29 12-10 14-18 31-20 39-4 29-15 67-28 96-41 96-56 139-61 182-8 73-14 94-23 89-4-3-6 5-3 19 2 13 12 26 21 29 17 5 71-1 79-9zm125-5c20-8 37-19 37-26 0-6 14-17 30-24 17-7 30-18 31-24 0-6 2-24 4-41 1-16-2-48-8-69-8-29-8-41 0-43 7-3 8-16 2-44-5-23-9-55-9-72 2-64-12-118-29-115-9 2-20 13-26 26-5 12-13 22-17 22-5 0-8 20-8 44 0 25-4 47-9 50s-12 23-16 43c-5 21-10 45-12 53-1 8-5 35-7 60-4 46-10 69-29 107-11 24 5 78 21 71 4-2 24-10 45-18zm-267-74c0-36 6-72 13-80s10-19 7-24 6-24 19-42c17-22 21-37 15-45-11-13 16-121 37-146 7-9 10-19 7-22-4-4-1-13 5-21 8-9 8-16 2-20-5-4-22 11-38 31-15 21-31 39-35 41s-10 19-14 38c-3 19-9 34-13 34-9 0-36 55-56 115-10 28-24 64-31 82-8 17-14 38-14 46s-6 17-14 20c-21 8-8 45 18 50 11 2 37 5 56 6l35 1zm421 48c-3-3-12-4-19-1-8 3-5 6 6 6 11 1 17-2 13-5zm538-51c-9-15-14-20-11-11 3 10 0 20-6 24-7 5-5 12 8 21 25 18 29 1 9-34zm-489 7c32 0 37-23 20-97-3-16 0-23 10-23 8 0 13-4 9-10-3-5-12-7-20-4-10 4-16-3-20-23-4-15-11-41-15-58-5-16-11-43-14-60-8-49-17-73-30-78-8-3-11 34-10 138 1 78 4 147 8 153 3 6 2 13-3 16-5 4-3 19 6 37 11 22 18 28 26 20 6-6 21-11 33-11zm-616-58c8-33 18-64 23-68 4-4 7-14 7-23 0-21 81-204 95-213 6-5 5-8-4-8-26 0-79 40-91 70-7 16-18 35-26 41s-28 38-46 70c-17 33-35 59-40 59-6 0-8 7-5 15 4 8 2 17-3 20-15 9-12 18 13 45 13 14 26 33 30 43 12 33 31 12 47-51zm847 13c17-11 21-23 20-55-1-22-7-40-13-40-13 0-24-23-24-50 0-11-9-24-20-30s-19-14-18-18c2-13-15-47-29-55-7-4-13-12-13-16 0-5-33-41-72-79-63-62-75-69-87-57-13 12-13 17 1 32 20 23 59 137 61 180 1 18 5 33 8 33s11 11 17 25c8 17 8 25 1 25-6 0-7 5-2 13 13 20 33 81 33 101 0 17 5 18 57 12 32-4 68-13 80-21zm303 0c0-8-4-15-10-15-5 0-10 7-10 15s5 15 10 15c6 0 10-7 10-15zm-147-103c20-20 37-42 37-49 0-8 7-16 15-19 31-12 77-146 68-199-4-27-17-42-64-74-88-61-134-73-291-78-88-2-139 0-143 7-4 6 6 10 25 10 17 0 39 4 49 9 10 6 37 12 61 15 23 3 50 11 59 19 9 7 32 21 52 30s40 24 43 33c3 8 10 13 16 9 5-3 16 8 25 25s20 28 25 25c20-12 88 85 74 106-3 5 0 9 7 9 8 0 8 4-1 15-14 17-34 9-26-11 3-8 1-14-4-14-6 0-10-7-10-15s-4-15-9-15-39-29-76-65c-36-36-73-65-81-65-9 0-28-9-43-20-15-10-57-24-92-29-79-13-79-13-79-1 0 6 5 10 10 10 16 0 51 40 45 50-4 6 0 10 8 10 19 0 109 99 101 111-3 5-1 9 5 9 33 0 117 144 106 180-10 32 44 14 88-28zm-1137 11c14-45 38-93 46-93 4 0 8-7 8-15 0-9 11-33 25-55s25-44 25-50c0-5 5-10 10-10 6 0 21-11 34-23 40-40 104-68 140-62 27 5 34 3 45-18 10-20 11-29 1-47l-12-23-17 21c-19 25-61 42-103 42-36 0-162 32-166 42-2 5-9 8-16 8-25 0-74 64-74 98 0 18-6 49-13 70-16 46-13 67 14 104 24 32 45 36 53 11zm462-330c20-5 23-11 19-37s2-37 32-67c61-61 96-103 108-129 26-59 43-112 38-120-4-7-230-7-276-1-4 1-14 13-24 27-15 23-15 28-2 42 10 11 17 43 19 90 3 66 1 72-17 73-18 0-18 1 3 9 15 6 22 18 22 36 0 14 10 39 23 54 25 33 24 32 55 23zm168-73c0-21-12-25-35-11-17 11-6 31 17 31 11 0 18-8 18-20zm-306-34c0-11-19-15-25-6-3 5 1 10 9 10 9 0 16-2 16-4zm105-453c-47-10-48-13-23-36 19-17 38-22 88-24 40-2 67 2 71 9 6 9 14 9 34 0 29-13 65-16 65-4-1 14-25 37-50 48s-147 16-185 7z" transform="matrix(.1 0 0 -.1 -27.94209 227.772239)"/></svg>