<svg height="87.479067pt" preserveAspectRatio="xMidYMid meet" viewBox="0 0 58.569582 87.479067" width="58.569582pt" xmlns="http://www.w3.org/2000/svg"><path d="m740 1542c-36-16-96-61-113-83-9-13-28-39-42-58-33-45-73-184-70-238 2-23 9-56 16-72 12-27 19-31 54-31 62 0 87-10 79-29-27-57 27-315 72-348 19-14 78-10 99 7 6 4 22 8 36 8 44-1 132 48 136 74 6 38 12 118 16 213 4 89 5 90 36 108 17 11 31 22 32 25 0 4 3 18 6 32 15 80-18 211-71 278-43 54-103 102-127 102-10 0-21 5-24 10-7 11-111 12-135 2zm42-111c-8-36 54-54 100-30 24 13 64-4 73-32 3-9 17-28 30-42 14-13 31-42 38-63 26-74-12-114-104-109-24 2-69-1-99-5-36-5-62-4-75 3-11 7-47 12-80 12h-60l3 30c5 54 8 62 25 88 10 15 26 27 37 27 23 0 24 4 9 31-8 16-7 25 5 38 9 10 16 22 16 28 0 16 43 43 65 40 11-1 19-8 17-16zm160-436c-7-171-8-177-33-196-24-18-64-29-104-29-19 0-24 7-30 40-4 22-10 40-14 40-7 0-9 19-15 125 0 20 3 29 12 27 8-1 12 7 10 25-3 27-1 28 52 31 42 2 52 0 43-9-6-6-9-18-6-25 4-11 8-10 21 3 10 9 18 20 18 25 1 4 2 11 3 14 0 3 11 4 24 2 21-3 22-7 19-73zm-52 369c-7-8-25-14-41-14-30 0-59-23-59-46 0-10 12-14 44-14 40 0 43-2 39-24-4-19 0-24 23-29 31-5 49 8 64 47 7 20 6 26-4 26-7 0-16 13-19 29-7 33-30 46-47 25zm-23-450c-8-8 1-24 13-24 4 0 10 7 14 15 5 15-14 21-27 9z" transform="matrix(.1 0 0 -.1 -51.486012 154.911286)"/></svg>