<svg height="112.916176pt" preserveAspectRatio="xMidYMid meet" viewBox="0 0 82.442581 112.916176" width="82.442581pt" xmlns="http://www.w3.org/2000/svg"><path d="m750 1380c-53-4-88-13-120-31-72-41-90-53-90-64 0-6-23-33-50-60-78-77-108-150-136-340-5-35 22-178 38-205 16-25 60-49 100-54 29-3 33-7 36-36 2-18 10-42 17-54s17-39 20-61c4-22 16-69 27-105 10-36 22-76 26-90 6-21 13-25 42-24 82 3 296 38 311 51 14 12 16 33 13 141-2 70-5 143-6 162-3 33-1 35 37 42 102 17 110 21 113 58 2 23 12 42 29 56 25 19 25 22 13 70-6 27-13 58-15 69-1 11-7 33-14 48-6 16-11 39-11 52s-4 27-10 30c-5 3-10 15-10 26 0 25-79 188-102 211-10 10-18 22-18 26 0 5-15 25-33 46-38 42-69 47-207 36zm38-157c7-11 21-16 47-15 33 1 37-1 32-19s-2-20 16-16c12 2 29 7 38 11 12 5 25-14 57-83 23-50 43-98 45-108 1-10 6-24 11-32 5-7 11-42 14-77 6-75 23-66-183-89-77-9-164-20-193-25-66-12-112-4-112 20 0 10 7 21 16 24 9 4 14 13 10 21-3 9 0 24 6 35 16 25-4 72-27 64-11-5-15 1-15 19 0 33 12 40 45 27 36-14 80 13 63 40-6 9-26 23-45 31-37 14-38 17-22 53 7 14 17 22 25 19s14 0 14 6 8 11 18 11c29 0 34 11 16 38-19 29-15 34 39 49 59 16 75 15 85-4zm67-613c3-6-1-7-9-4-18 7-21 14-7 14 6 0 13-4 16-10zm-21-23c19-19 21-27 13-51-10-30 4-49 29-39 7 2 15-5 19-16 7-23-2-44-15-36-5 3-11 1-14-4s-40-8-81-7c-80 1-97 11-94 51 1 11-3 33-10 48-6 16-8 33-5 38 3 6 1 16-5 23-9 11 4 13 65 14 66 1 79-2 98-21zm46 513c-8-5-18-6-24-3-5 3-6 1-2-6 4-6 12-9 17-6 5 4 9-1 9-9 0-10 9-16 25-16 22 0 24 3 15 19-14 26-23 31-40 21zm48-110c-10-17-25-30-36-30-21 0-36-25-26-42 6-9 61-4 107 8 31 9 11 92-23 94-3 0-13-14-22-30zm-41-117c-33-4-38-7-35-26s10-22 58-23c71-2 94 4 81 20-7 9-7 16 1 24 12 12-18 14-105 5z" transform="matrix(.1 0 0 -.1 -35.335075 138.51984)"/></svg>