<svg height="140.589842pt" preserveAspectRatio="xMidYMid meet" viewBox="0 0 96.768327 140.589842" width="96.768327pt" xmlns="http://www.w3.org/2000/svg"><path d="m570 1600c-89-11-167-38-189-66-10-13-21-24-24-24-8 0-82-75-112-114-30-40-75-130-75-151 0-7 6-16 13-19 6-3 1-3-12 0-17 4-21 3-16-6 4-7 3-15-3-19-14-8-42-114-42-157 0-61 64-97 193-108 37-3 72-8 77-11 12-8 3-416-14-599-9-94-3-108 42-105 21 1 44-1 52-5 9-4 25-5 35-4 11 2 56-1 100-5 45-4 88-5 97-2 21 8 20-12 17 415-2 237 5 269 57 270 30 0 147 45 192 74 58 37 122 113 120 142-2 14-8 30-15 36s-13 20-13 32c0 37-53 160-87 202-18 23-33 45-33 49 0 10-65 72-110 106-28 20-175 83-183 78-1-1-31-5-67-9zm130-109c0-23-35-55-50-46-6 4-9 12-7 19 3 8-17 11-71 9-66-2-77-5-84-22-10-29 40-55 85-45 43 10 68 10 96 1 15-5 31-3 45 6 38 26 80 30 99 10 38-40 64-79 71-106 6-25 3-29-41-48-27-11-53-27-60-36-10-12-29-15-95-14-46 1-96 4-113 7-16 3-48 7-71 8-22 2-49 8-60 14s-47 10-81 9c-47-1-67 3-79 15-14 14-15 20-4 32 7 9 18 16 25 16s15 7 19 15c7 18 52 20 59 2s93-46 157-51c30-2 81 0 112 6 41 7 67 7 89-1 25-9 37-8 60 6 38 23 41 68 4 77-23 6-158 0-217-9-14-2-53 0-85 6-32 5-67 11-78 12s-26 13-33 26c-13 21-11 26 18 52 36 33 57 38 185 48 102 7 105 6 105-18zm265-288c0-6 3-15 8-19 15-16 6-51-21-77-36-34-44-34-36 1 5 27 5 27-13 7-10-12-36-28-58-37-26-10-40-22-40-34 0-14-8-19-27-19-14-1-32-6-40-12-25-20-93-22-183-6-49 9-124 17-165 19-41 1-94 9-118 18-24 8-49 15-55 13-7-1-12 5-12 13 0 16 41 21 60 8 6-3 22 2 35 12 20 15 23 21 13 31-7 7-13 19-13 27 0 13 21 14 128 9 70-3 141-10 157-17 35-14 102-14 159 1 96 24 153 44 176 61 26 18 45 19 45 1zm-311-377c-10-26-23-18-20 12 5 38 6 39 16 20 6-9 7-23 4-32zm-94-106c16-41 26-50 58-50 34 0 22-24-13-27-55-4-57-42-3-59 17-5 37-19 45-30 12-19 12-24-2-38-12-12-21-13-36-6-10 6-19 9-20 8-7-26-3-51 10-55 9-3 22-7 30-9 11-4 10-8-4-24-10-11-24-20-32-20-22 0-16-57 7-63 11-3 20-11 20-19 0-9-16-13-57-13-32 0-63 4-69 8-31 19-53 287-26 319 6 8 9 17 6 21-3 3 6 13 20 22 17 12 26 26 26 44 0 54 18 50 40-9zm373 425c0-8 4-12 9-9s6 10 3 15c-9 13-12 11-12-6z" transform="matrix(.1 0 0 -.1 -11 160.900204)"/></svg>