<svg height="90.504504pt" preserveAspectRatio="xMidYMid meet" viewBox="0 0 65.411243 90.504504" width="65.411243pt" xmlns="http://www.w3.org/2000/svg"><path d="m480 1240c-50-8-199-81-222-108s-65-113-76-157c-16-67-14-161 4-179 8-9 21-16 28-16s27-17 46-37c27-31 34-47 36-88 9-172 16-225 34-263 23-47 56-59 117-43 21 5 74 16 117 23 81 13 116 34 116 67 0 14-1 14-10 1-5-8-10-11-10-7s7 19 16 32c10 15 15 41 13 69-2 25 0 48 4 52s2 13-4 21c-9 10-8 17 1 28 7 9 10 18 7 22-4 3-2 12 4 20 7 7 7 13 2 13-12 0-5 49 10 68 5 6 20 12 32 12 36 0 73 36 79 78 6 38-15 118-27 105-4-3-7-1-7 5 0 7 5 12 10 12 6 0 3 11-6 25-8 13-13 28-10 34 4 5 0 15-7 23-8 7-19 24-26 36s-16 20-22 17c-5-4-9 5-9 20s-7 28-17 32-20 10-23 14-30 23-60 43c-56 37-65 39-140 26zm10-177c0-16 0-16 56-2 30 8 49 8 55 2 7-7-3-12-29-17-54-8-69-28-48-61 20-30 54-32 89-5 31 24 46 25 73 2 34-28 39-58 12-66-34-9-50-7-43 4 3 6 1 10-4 10-6 0-11 7-11 16 0 11-6 14-22 8-13-3-24-11-26-15-2-5-12-9-22-9s-20-10-23-21c-4-15-11-20-21-16s-16 1-16-7-14-19-32-25c-42-15-168-26-168-15 0 4 12 21 27 36 25 26 26 29 10 45-15 15-15 18 4 44 19 28 19 28-1 42-36 25-18 59 43 82l52 21 22-21c13-11 23-26 23-32zm145-350c0-13-4-22-10-20-5 1-10 9-10 17 0 9-8 14-19 12s-15 1-11 8c12 20 50 7 50-17zm-97 1c-2-9-12-22-23-28-30-17-40-29-40-51 0-25 30-38 56-25 28 15 39-18 13-37-10-8-18-19-16-24 2-8-12-13-22-6-2 1-12-5-22-14-11-9-32-17-47-17s-37-8-47-17c-23-21-21-27-25 84-4 90 6 121 37 121 13 1 34 7 48 15 36 21 92 20 88-1z" transform="matrix(.1 0 0 -.1 -17.117853 124.725049)"/></svg>