<svg height="220.979157pt" preserveAspectRatio="xMidYMid meet" viewBox="0 0 189.403284 220.979157" width="189.403284pt" xmlns="http://www.w3.org/2000/svg"><path d="m1105 2400c-3-5-4-14 0-19 3-5 1-12-5-16-5-3-10-15-10-25 0-30-19-34-50-11-27 20-29 20-50 3-25-20-18-52 10-52 11 0 22-4 25-10 3-5 19-10 36-10 27 0 29-3 27-31s-5-30-31-26c-32 4-49-17-40-51 6-25 32-28 80-12 25 9 36 7 66-10 24-14 37-17 42-10 4 6 14 9 22 6 31-12 32 6 3 52-31 50-31 49 16 78 18 10 18 12 1 28-9 10-27 17-40 16-12-1-27-2-33-1-12 1-28 36-38 84-6 27-20 35-31 17zm681-403c-18-31-19-32-29-10-15 34-62 43-52 10 17-56 15-67-10-77-21-8-24-14-19-40 5-23 3-30-10-30-19 0-50-45-41-60 3-5 13-10 21-10s14-6 14-13c0-8 9-22 21-33 20-18 22-18 51-1s30 17 49-7c25-31 54-25 54 12 0 15-6 32-15 39-13 10-11 15 15 39 17 15 29 32 28 36-2 4 4 8 12 8s15 5 15 11c0 5-4 8-9 5s-23 8-41 24c-28 26-31 34-26 65 5 25 3 35-6 35-10 0-10 2 1 9 7 5 9 11 4 14s-17-9-27-26zm-1341-71c2-20 2-43-1-51-6-16-34-21-34-7 0 5-16 9-35 9s-35-4-35-8c0-11 32-27 48-23 8 1 8 0 1-3s-1-14 16-29 25-29 21-39c-3-9-2-13 4-10s10-1 10-9c0-9-4-16-10-16-5 0-10-6-10-14 0-7-7-19-15-26s-15-21-15-32c0-30 54-21 58 10 2 12 10 22 18 22s14 9 14 20c0 22 4 23 76 21 29-2 55 2 58 7 6 11-27 44-41 40-5-2-21 10-37 25-27 27-27 29-10 42 11 8 15 15 11 15-5 0-1 7 7 16 20 20 21 45 1 38-8-4-15-9-15-13 0-9-46-31-63-31-7 0-3 7 7 15 11 8 15 15 9 15-7 0-13 10-15 22s-9 23-16 26c-9 3-11-6-7-32zm-10-86c-3-5-11-10-16-10-6 0-7 5-4 10 3 6 11 10 16 10 6 0 7-4 4-10zm735 80c6-11 13-48 15-81 4-67 6-65-62-38-41 17-132-3-173-38-17-13-30-22-30-18 0 3-13-3-30-15-85-61-109-276-35-324 15-10 46-16 79-16 46 0 57-4 67-21 10-19 22-209 17-284-1-14 11-133 28-285 12-103 13-191 3-188-14 5-45 65-59 118-7 25-28 75-46 111-18 37-38 86-43 109-10 45-11 43 52 93 27 21 28 23 17 74-14 65-67 128-130 156-32 14-68 20-126 20-76 0-85-2-142-37-77-46-101-80-114-159-12-70 1-136 31-165 50-46 66-53 101-46 74 15 81 12 108-40 27-54 40-136 22-136-6 0-8-5-4-12 5-8 2-9-9-5-23 9-23-35-1-54 20-16 64-106 64-130 0-31 12-50 37-60 21-8 24-14 18-39-8-35 29-110 54-110 9 0 21-10 26-22 7-17 17-22 35-20 14 2 27 6 29 8 3 3-9 33-26 67-37 75-55 121-52 133 1 5-4 23-11 39-7 17-14 39-16 50-1 11-7 40-13 64-5 25-8 48-6 52 6 8-22 107-36 133-14 25-28 116-18 116 16 0 38-44 69-139 36-108 72-189 110-246 28-42 46-95 54-157 7-54 35-108 56-108 25 0 31 22 21 77-5 26-7 51-5 55 7 10 24 10 23 1-4-22 3-35 15-30 7 3 20-3 29-13s12-20 6-22c-5-2 1-22 12-46 18-36 26-43 47-40 38 5 48 29 29 71-9 19-17 40-17 45 0 6-6 12-12 14-10 4-9 9 3 21 22 21 32 108 19 158-6 22-9 48-6 57s7 37 10 62 12 64 20 88c16 43 16 45 16 62 0 6 7 10 15 10s15-9 15-20-5-20-11-20c-8 0-8-4-1-13 6-7 8-26 6-42-3-17-5-41-6-55 0-14-4-32-9-42-6-10-5-19 1-23s7-12 3-18-8-31-9-54c-3-38 0-43 18-43 15 0 18-4 11-13-16-21-35-86-28-97 17-28 50 3 61 59 6 29 22 32 28 6 5-18 1-36-9-52-9-14-14-33-10-46 4-14 3-18-3-9s-11 6-20-12c-8-19-8-25 2-29 9-3 12-15 9-31-5-22-2-26 20-26 28 0 56 23 58 46 1 8 3 19 4 24 1 6 3 24 4 40 0 17 5 30 10 30s8-36 7-80c-2-75 2-85 27-81 4 1 25-3 47-8 55-12 111 14 99 47-5 12-14 22-22 22-27 0-37 21-20 46 12 19 12 24 2 24-7 0-3 7 9 16 17 12 20 19 12 29-8 9-8 15 0 20 5 3 10 17 10 30s11 37 24 53c25 29 26 72 2 72-6 0-49-41-95-90-46-50-89-89-95-87-13 4-15 59-3 68 5 3 1 13-8 22s-14 21-11 26-3 11-14 14c-22 6-28 53-11 85 27 49 41 88 41 111 0 15 9 44 20 66s20 51 20 65c1 34 38 59 105 70 64 10 75 16 75 36 0 8 5 14 11 14s8 7 5 17c-4 9-8 49-11 90-6 112-64 221-126 236-13 3-42 10-63 16-22 5-47 6-55 2-9-5-49-16-89-26-65-15-77-22-112-64-23-26-40-40-41-31 0 8-3 31-6 50-12 70-7 139 11 159 9 10 44 25 77 32 46 10 61 18 65 34 7 27-29 120-64 165-15 19-33 48-40 64-11 25-11 28 3 22 9-3 23-6 31-6s14-6 14-14c0-29 80-61 123-50 19 4 23 11 19 30-3 15-11 24-22 24-10 0-28 8-41 19l-23 18 22 23c27 30 27 36 1 51-18 9-28 6-63-18l-41-29-19 40c-11 23-28 48-38 57s-18 21-18 28c0 6-5 11-10 11-7 0-7-7 0-20zm-42-246c44-26 76-72 63-88-7-8-21-12-31-9-11 3-20 0-20-6s-11-11-25-11-48-11-77-25c-28-14-67-25-85-25-29 0-33 3-33 25 0 62 92 151 158 154 13 1 36-6 50-15zm-23-321c3-27 9-61 11-78 3-16 7-39 8-50s5-27 8-35c13-32 15-75 6-95-7-16-6-30 5-51 8-16 20-53 26-83s15-59 20-65c13-17 1-82-20-105-11-12-19-35-19-55 0-34-13-55-24-38-5 9-13 87-21 207-2 33-8 104-13 158s-6 115-2 136c4 20 3 46-1 57-11 28-11 144 0 144 6 0 13-21 16-47zm432-129c24-15 45-76 47-134l1-35-70 3c-43 2-75 8-85 17-9 8-24 15-33 15-10 0-26 6-37 12-16 10-24 10-40 0-28-17-38-15-50 9-19 35-4 65 47 94 78 44 168 51 220 19zm-759-52c20-16 23-24 17-56-8-42-24-53-54-37-17 10-24 7-43-15-29-33-78-54-99-43-22 11-30 47-21 84 6 22 22 38 58 57 57 32 109 35 142 10zm562-598c0-8-4-12-10-9-5 3-10 10-10 16 0 5 5 9 10 9 6 0 10-7 10-16zm483 906c1-38 5-70 10-70 4 0 5-4 2-10-10-17-23-12-58 25-19 19-41 35-51 35-19 0-21-30-3-49 10-11 9-12-1-6-11 6-12 3-3-14 7-11 16-21 21-21s16-7 25-16c12-12 14-27 9-63-4-35-2-50 9-59 18-15 47-5 47 15 0 15 27 42 42 43 4 0 9-9 13-19 7-24 72-34 80-13 6 16-11 52-25 52-5 0-15 18-21 40-9 31-9 43 1 55 16 20 6 19-27-2-24-16-26-16-39 2-16 21-19 71-5 77 14 5 0 68-15 68-10 0-13-17-11-70zm-1676 3c-11-10-8-43 3-43 6 0 10-11 10-25 0-28 36-71 43-52 6 18-12 77-23 77-6 0-9 3-9 8 5 33-8 52-24 35zm113-115c0-19-2-23-16-31-10-6-14-27-14-75 0-79 8-112 25-112 25 0 39 30 28 59-14 37-1 65 36 81 24 9 31 19 31 39 0 23-6 28-45 37-25 6-45 7-45 2zm-145-48c-33-4-40-9-43-29-3-34 15-52 45-45 24 6 73 45 73 57 0 14-38 22-75 17zm1571-435c-21-23-23-30-15-68 5-23 19-50 31-60 22-18 45-18 41 2-2 6 2 11 8 11 7 0 5 10-5 25-21 32-20 40 9 69 34 34 31 46-10 46-26 0-43-7-59-25zm-102-10c-40-40-29-62 21-41 19 8 31 21 32 34 2 31-25 35-53 7zm-1112-314c-25-15-12-36 70-107 20-18 41-41 48-53 9-17 15-20 24-11 16 12 33-11 59-81 21-54 63-90 93-78 30 10 24 47-22 149-56 122-76 141-102 99-14-21-14-21-48 15-19 20-36 36-39 36s-14 9-25 20c-21 21-37 25-58 11zm0-140c-15-9-6-61 10-61 5 0 7-4 4-9s1-14 9-21 15-23 15-36 5-24 10-24c6 0 10-6 10-13 0-24 45-57 78-57 40 0 51 19 24 41-14 10-20 23-16 33s0 18-10 22c-9 3-16 14-16 24 0 11-5 22-10 25-6 4-22 24-36 46-24 38-46 47-72 30zm-177-31c-6-20 19-68 43-83 8-5 26-22 41-38 22-23 37-29 70-29 29 0 41 4 41 14 0 23-50 76-71 76-10 0-19 6-19 14 0 16-63 66-84 66-8 0-17-9-21-20z" transform="matrix(.1 0 0 -.1 -7.19119 240.979157)"/></svg>