<svg height="129.473728pt" preserveAspectRatio="xMidYMid meet" viewBox="0 0 115.359674 129.473728" width="115.359674pt" xmlns="http://www.w3.org/2000/svg"><path d="m837 1426c-9-7-28-11-42-8-18 3-25 0-25-11 0-9-6-20-14-24s-16-26-18-48l-3-40-75-2c-41-1-87-6-102-12-21-8-31-7-42 4-8 8-18 15-22 15s-28 10-52 21c-40 20-47 20-74 7-39-18-65-84-43-108 8-9 15-26 15-38s4-22 8-22c5 0 16-6 26-13 17-13 17-17-13-74-28-52-40-65-85-87-63-31-79-58-65-113 13-47 26-61 62-66 29-3 50-24 41-39-3-4 2-8 11-8 13 0 12-4-5-22-11-12-20-27-20-33s-9-18-20-28c-26-22-25-61 2-87 31-29 111-33 132-7 6 8 31 18 55 21l44 7-6-35c-3-20-2-38 2-41 5-2 16-44 25-92 9-49 18-97 20-108 11-56 21-70 48-66 4 0 10-19 13-42 9-56 33-88 62-81 22 6 38 40 22 50-5 3-9 16-9 30 0 22 4 24 43 24 45 0 67-13 67-40 0-8 8-25 18-38 16-21 18-21 41-6 20 14 22 22 17 59-6 34-4 44 9 49 23 8 32 1 40-34 6-28 50-70 73-70s24 25 2 66c-20 35-22 47-13 66 18 36 26 79 25 133-1 28-1 65-1 83s-6 60-12 93-9 62-6 65 15-4 27-16c19-19 29-21 63-16 38 6 97 35 123 61 25 24 24 59-3 95-15 19-33 40-39 45-7 6-15 38-19 71l-7 62 55 31c81 46 85 87 15 146-27 23-38 26-72 20-23-3-45-10-50-15-10-10-43 4-66 30-8 9-30 25-47 35-35 20-40 34-22 52 7 7 13 22 15 35s6 33 10 45c5 17-2 29-27 53-36 33-81 39-112 16zm-18-256c35-9 40-14 31-25-6-8-31-17-55-21-24-3-52-12-62-20-45-34 61-44 112-10 14 9 25 25 25 36 0 29 32 25 72-7 51-43 58-51 58-66 0-8 9-34 19-58 11-24 21-73 23-108l3-63-125-45c-97-34-143-45-205-48-198-11-275-12-275-5 0 5-9 6-20 3-16-4-20 0-20 19 0 13-5 29-11 35-7 7-11 44-10 90 1 66 5 84 29 123l27 44 75 1c62 0 78 3 92 20 16 19 16 21 1 33-20 14-113 16-113 2 0-5-4-10-10-10-19 0-10 27 14 45 51 39 107 53 197 49 47-1 105-8 128-14zm-19-685c0-2 7-31 16-66 20-77 17-79-94-79-75 0-83 2-78 18 3 9 7 48 8 85l3 68 42-3c24-1 45 1 49 5 5 5 54-20 54-28zm126 530c-10-8-22-13-25-10-4 2-13-5-20-16-10-17-10-20 1-17 7 2 34 10 61 17 27 8 47 19 47 27 0 18-40 17-64-1zm-358-1c-3-3-27-8-54-12-52-8-61-17-39-46 14-18 15-18 41-2 15 11 35 15 49 12 17-4 28 0 39 16 8 12 13 25 10 30-6 9-38 11-46 2zm385-68c-13-7-21-15-18-18s-12-8-34-12c-59-9-59-31 0-33 33-2 49 2 49 10 0 7 10 17 23 22 22 10 30 36 12 41-5 1-20-4-32-10zm-511-45c-12-7-12-12-1-30 15-23 21-24 68-15 23 5 31 12 31 28 0 18-7 21-43 23-23 2-48-1-55-6zm654-596c4-8 11-15 16-15 6 0 8-10 4-22-6-25 37-98 58-98 25 1 37 17 30 43-5 24-3 27 19 27 13 0 44-15 67-34 43-34 70-37 70-10 0 19-38 56-50 49-6-4-10 0-10 7s-11 18-25 25c-21 9-29 8-49-8-23-18-24-18-46 6-13 14-30 25-37 25-8 0-11 5-8 10 3 6-5 10-19 10-18 0-24-4-20-15zm-643-32c7-40 68-122 92-123 24 0 37 17 27 36-5 11-15 30-21 44-20 44-104 80-98 43zm-163-13c0-11 5-20 10-20 6 0 9-3 8-7-5-18 14-51 35-62 18-10 28-9 49 2l27 14-34 33c-19 19-35 40-35 47 0 8-12 13-30 13-23 0-30-4-30-20z" transform="matrix(.1 0 0 -.1 -20.640326 143.980479)"/></svg>