<svg height="136.285094pt" preserveAspectRatio="xMidYMid meet" viewBox="0 0 102.546866 136.285094" width="102.546866pt" xmlns="http://www.w3.org/2000/svg"><path d="m622 1519c-34-6-55-20-103-71-33-35-67-76-76-93-8-16-22-38-30-47-9-10-13-24-9-33 3-9 2-13-3-10-11 6-26-33-17-42 3-4 0-13-7-22-19-22-80-285-74-317 3-16 0-27-9-31-19-7-18-63 3-126 22-69 29-77 74-77 25 0 44-7 57-20 17-19 18-27 6-134-7-63-16-122-21-131s-7-29-5-46c4-24 9-29 33-29 16 0 29-4 29-9 0-15-18-23-25-12-3 6-12 8-19 5-8-3-17-1-21 5-3 6-25 11-48 11s-61 9-85 20c-31 14-49 17-65 10-38-16-67-47-73-79-8-41 14-49 67-26 30 14 42 16 51 7 17-17 48-15 54 3 4 8 11 15 17 15 7 0 7-4-1-12-20-20-14-28 18-22 19 4 38 1 53-9 32-21 55-23 104-8 38 10 44 10 63-9 24-24 41-25 81-5 30 16 54 58 43 77-11 17 29-8 48-31 28-33 82-37 123-10 19 13 33 30 30 37-5 15 61 17 70 2 3-5 13-10 22-10s21-7 27-16c11-14 16-13 60 4 39 15 53 27 74 66 24 44 25 48 9 63-16 16-18 16-32-2-8-11-18-30-21-43-8-28-51-30-108-3-23 11-52 22-66 25-40 8-68 83-75 196-3 52-11 100-16 106-7 9-4 16 13 25 13 7 25 15 28 19s25 14 50 23c41 14 45 18 56 62 8 30 9 56 4 71-6 14-6 26 0 29 21 13-8 300-34 341-10 14-16 35-15 47 4 42-41 157-62 157-5 0-9 8-9 17 0 15-63 82-79 84-3 0-15 2-26 3s-36 5-55 8-54 2-78-3zm45-55c-3-4-2-15 4-26 8-14 18-19 35-15 24 4 64-26 85-66 9-16 7-18-23-12-39 7-88-8-88-28 0-18 61-29 111-21l36 6 23-73c12-40 25-93 27-118 8-82 5-233-5-243-5-5-29-11-53-14-39-6-60-7-134-13-11 0-26-11-34-23-12-19-11-23 5-35 22-16 88-17 116-2 25 13 86 20 93 9 18-29-94-52-235-46-63 2-145 5-182 5-66 1-68 2-68 26 0 21 5 25 29 25 39 0 50 29 21 52-12 10-31 18-41 18s-19 6-19 14c0 31 13 46 40 46 15 0 33 7 40 15 10 13 9 19-5 35-11 12-26 18-36 15-14-5-17 0-16 27 2 42 18 58 62 65 43 7 45 23 6 46l-29 17 20 58c26 74 25 73 55 61 33-12 37-8 19 26-8 15-12 35-9 44 8 23 34 51 47 51 19 0 37 16 40 35 1 10 16 23 32 30 34 16 39 17 31 9zm22-830c22-5 31-12 31-26 0-10 6-18 13-17 6 1 22 1 34 0 29-1 19-37-13-45-25-7-49-40-39-56 3-6 22-10 41-10 27 0 34-4 34-20 0-19-14-29-62-44-27-8-11-33 25-40 17-3 45-22 62-41l32-34-28-11c-27-12-88 0-113 22-19 15-43 8-69-22-32-35-40-37-66-11-15 15-28 19-55 14-41-6-42-3-16 52 11 22 19 46 20 53 0 7 13 12 33 12 47 0 63 13 51 41-8 16-19 23-40 24-27 0-29 3-32 43-3 35 1 47 19 63 12 10 26 19 31 19s6 9 3 20c-6 18-2 20 33 20 22 0 54-3 71-6zm391-374c0-5-4-10-10-10-5 0-10 5-10 10 0 6 5 10 10 10 6 0 10-4 10-10zm-337 958c-48-10-77-43-47-55 9-3 31-1 48 5 18 7 40 12 49 12 20 0 23 36 5 42-7 3-32 1-55-4zm-83-139c0-9 8-24 19-33 15-14 26-15 60-7 24 5 43 11 44 13 1 1 10 12 19 23 16 20 15 20-63 20-66 0-79-2-79-16zm85-118c-6-5-23-11-40-13-22-2-30-8-30-23 0-26 42-34 110-22 57 10 71 24 48 49-17 19-72 24-88 9z" transform="matrix(.1 0 0 -.1 -13.208155 152.383661)"/></svg>