<svg height="120.161702pt" preserveAspectRatio="xMidYMid meet" viewBox="0 0 96.384379 120.161702" width="96.384379pt" xmlns="http://www.w3.org/2000/svg"><path d="m737 2000c-39-9-62-20-60-27 5-14-14-27-21-14-11 18-94-20-138-63-62-60-94-103-122-160-36-76-56-126-49-126 4 0-3-10-15-23-26-28-57-207-47-269l7-38 67 4c37 1 73 6 80 10 6 4 18 2 26-4 8-7 21-10 29-7s27 2 43-3c15-5 49-12 75-15l47-6-4-91c-2-50 0-100 6-110 5-10 6-24 2-31-4-6-8-32-8-57 0-37-4-46-25-57-14-7-39-13-56-13-16 0-36-6-43-13-11-9-14-9-18 1-7 19-20 14-26-10-8-30 7-46 56-59 53-14 136-13 224 4 43 9 88 12 111 7 22-4 47-3 56 2 8 5 37 8 63 8 84-1 90-1 117 10 14 5 26 17 26 25 0 33-79 50-245 55-5 0-4 4 4 9 10 7 12 19 6 47-5 22-9 57-10 79s-5 48-9 58c-5 11-4 17 4 17s11 17 10 53c-4 80-5 78 43 71 74-10 188-35 223-50 60-25 88 10 80 101-2 22-9 55-14 72-9 27-8 36 5 49 10 10 12 19 6 25-5 5-8 50-6 99 3 50 1 90-4 90-4 0-9 14-9 32-1 17-8 36-17 43-9 6-19 24-23 41-4 16-12 32-18 36s-11 12-11 18c0 11-74 80-87 80-4 0-8 6-8 14 0 17-67 59-81 51-5-4-9-3-9 2 0 15-55 36-112 42-37 4-79 1-121-9zm143-112c49-15 63-27 49-44-6-8-19-14-28-14-9-1-29-11-44-24l-28-23 21-55c11-30 29-63 39-72 20-18 66-24 95-11 15 6 17 5 11-5-4-7-8-28-7-47 1-28-3-35-25-44-20-7-23-13-15-21s8-15 1-24c-6-7-9-25-7-41 2-21 9-29 28-32 24-3 39-16 40-33 0-12-48-9-55 2-5 8-11 8-20 0-10-8-15-8-20 0-4 6-14 9-22 6-9-4-11-2-7 6 5 8-5 9-34 6l-41-6 6 32c3 17 11 34 17 38 7 4 6 15-2 33-7 14-12 35-12 47 0 71-103 77-157 8-21-25-15-87 11-129l25-39-33-5c-17-3-52-1-76 5-25 5-74 15-110 21-49 9-66 17-68 31-3 14 1 17 16 12 22-7 56 9 92 42 13 12 30 22 38 22 11 0 13 11 10 50-5 46-3 50 17 50 13 0 28 6 35 14 6 8 17 13 24 10 13-5 66 49 66 66 0 19-20 60-41 84-25 29-64 34-94 12-22-16-48-115-35-131 5-6 5-16 1-23-6-10-16-9-45 4-29 14-35 22-30 38 9 30 51 84 75 97 12 6 18 13 15 16-10 11 16 33 38 33 11 0 34 7 50 15 15 8 37 15 47 15s20 4 23 9c8 12 124 11 166-1zm162-187c6-10 17-17 24-14 7 2 20-9 28-26 22-42 20-45-11-23-16 10-41 22-57 26-20 5-26 10-18 18 6 6 8 17 5 24-8 21 15 17 29-5zm97-309c1-37-2-43-16-39-10 3-31 8-47 12-22 4-26 9-17 18 6 6 11 28 11 49 0 35 2 38 19 29 24-13 31-5 32 38 2 32 3 30 9-14 5-27 9-69 9-93zm-354 18c3-5 1-10-4-10-6 0-11 5-11 10 0 6 2 10 4 10 3 0 8-4 11-10z" transform="matrix(.1 0 0 -.1 -28.325283 201.105169)"/></svg>