<svg height="137.297439pt" preserveAspectRatio="xMidYMid meet" viewBox="0 0 126.750087 137.297439" width="126.750087pt" xmlns="http://www.w3.org/2000/svg"><path d="m1260 2143c-8-4-33-24-55-45-45-43-60-46-75-18-6 11-26 22-46 26-48 9-71-15-86-91-7-33-13-61-14-63s-24-5-50-8c-52-5-128-26-181-50-17-8-33-14-36-14-19 0-207-213-207-235 0-4-11-21-26-37-14-17-23-37-20-44s-1-17-10-22c-8-4-19-35-25-70-10-55-9-65 7-90 11-15 20-46 20-68 1-23 8-52 17-64 27-39 108-90 142-90 28 0 33-4 43-37 13-46 18-140 8-171-5-15-2-31 8-47 9-13 16-31 16-40 0-8 5-15 10-15 6 0 10-7 10-15 0-17 36-39 50-30 10 6 75-12 95-27 6-4 17-3 25 2 8 6 32 10 52 10 39 0 88 18 88 31 0 4 12 14 28 21 36 17 40 52 9 73-33 21-42 74-33 215 1 24 5 25 76 32 41 4 92 7 114 7 45 0 93 29 174 106 60 56 56 36 36 188-6 50 0 56 32 32 25-19 58-19 74 0 7 8 16 12 22 9 5-3 20 2 35 11 23 15 25 22 21 66-4 43-3 49 13 49 12 0 19 7 19 20 0 11 4 20 9 20 16 0 40 58 34 82-3 13-13 29-22 36-15 13-14 15 7 29 12 9 22 24 22 35 0 27-58 96-84 100-12 2-22 12-24 23-5 26-76 93-107 101-14 3-32 4-40 0-9-3-28 7-46 25-44 43-88 58-129 42zm68-109c2-14-10-36-32-60-33-36-41-57-37-91 3-20-9-15-39 17-15 17-24 30-19 30s3 11-3 25c-10 23-8 29 28 66 31 32 45 39 69 37 22-2 31-9 33-24zm-212-59c-9-25-50-15-54 14-2 13 2 27 9 31 17 11 53-25 45-45zm370-10c4-8 2-21-4-28-19-24-22-64-7-77 12-10 21-10 43-1 15 6 39 10 52 8 29-5 39-34 16-43-22-8-21-63 2-80s7-31-44-37c-23-2-46-7-53-11s-18-2-26 4c-17 14-61 9-58-7 1-6-4-17-12-23-13-10-17-7-29 21-8 19-23 43-33 54s-24 33-31 50c-12 25-11 31 2 41 9 6 16 23 16 38s6 26 13 26 31 15 53 33c56 49 90 59 100 32zm-540-183 11-22 37 25c31 21 41 23 53 14 9-8 12-21 8-36-4-18-1-23 13-23 10 0 23 5 29 11 13 13 51 3 83-22 23-18 24-20 8-30-10-5-18-16-18-24 0-7-5-15-12-17-6-2-8-10-4-16 10-16 73-15 79 1 9 25 31-13 59-105 38-129 37-137-10-99-21 16-51 35-66 42-25 12-26 14-11 25 10 8 15 23 13 41-4 41-39 43-68 4-21-30-22-30-50-16-20 10-31 12-35 4-5-7-13-4-26 7-10 9-39 19-64 22-36 4-49 10-55 26-4 12-6 24-4 28 6 10-28 48-42 48-7 0-17-14-23-30-5-17-16-32-23-34s-38-11-68-20c-30-8-81-23-112-32-32-9-55-21-52-25 3-5-1-9-10-9-41 0-15 67 40 99 29 17 35 26 32 46-6 29 42 79 84 89 15 3 35 18 44 32 16 23 22 25 83 22 56-3 67-7 77-26zm544-154c33-24 39-52 14-62-28-11-51-6-78 15-63 50-1 96 64 47zm-712-197c2-63 0-70-22-85-23-14-26-14-40 0-9 8-16 26-16 39s-7 28-16 33c-28 16-13 56 26 69 64 22 66 20 68-56zm139 57c16-21 7-76-18-113-13-19-27-35-30-35-4 0-9 26-13 58-5 41-12 62-26 72-11 8-20 18-20 22 0 13 97 9 107-4zm156-36c21-9 37-23 37-32 0-62-62-126-109-113-21 5-23 10-18 52 3 25 10 47 15 49 7 2 7 14 1 35-5 18-9 33-9 35 0 5 40-8 83-26zm-443-49c8-16 15-36 16-45 0-9 9-33 18-53 22-45 13-79-17-71-12 3-27 6-33 6-18 0-74 62-74 81 0 10 9 21 21 24 17 6 20 13 16 35-11 50 31 68 53 23zm586-24c22-17 42-37 46-44 11-19-30-42-85-46-43-4-46-3-41 16 4 11 11 22 15 23 5 2 9 21 9 43 0 21 4 39 9 39 4 0 26-14 47-31zm-416-88c0-5-5-11-10-13-6-2-12-14-15-27-2-12-9-29-15-35-5-7-6-17-2-21 4-5 2-5-5-1-9 5-10 14-2 34 6 15 10 27 10 27s2 10 5 23c6 21 34 32 34 13zm109-117c3-3 8-67 11-142l5-137 30-6c17-4 23-8 15-9s-23-3-33-5c-9-2-54-5-99-7l-83-3-2 53c-1 28-2 60-2 70 1 9 2 46 2 82l2 64 43 9c33 6 42 13 42 29 0 18 4 20 32 14 17-3 34-9 37-12zm506 639c-20-5-45-30-45-45 0-4 15-8 33-8 38 0 72 31 54 49-6 6-13 10-16 10-4-1-15-3-26-6z" transform="matrix(.1 0 0 -.1 -42.249913 214.891946)"/></svg>