<svg height="98.36266pt" preserveAspectRatio="xMidYMid meet" viewBox="0 0 73.746079 98.36266" width="73.746079pt" xmlns="http://www.w3.org/2000/svg"><path d="m385 1095c-125-82-185-170-205-297-13-86-7-155 17-207 22-46 30-52 73-49 20 1 40 0 45-3 6-3 23-6 40-7 43-3 49-14 35-71-8-35-10-78-4-134 4-45 7-90 5-99-4-29 30-76 58-81 46-9 278 26 296 45 7 7 6 12-2 15-9 3-10 9-1 23s8 38-5 101c-9 47-12 88-8 92 5 5 7 26 4 48-5 35-3 39 23 49 97 35 153 81 155 125 2 53-21 175-38 202-10 14-18 34-20 44-4 29-68 122-102 149-17 14-41 33-53 43-11 9-33 17-48 17s-41 7-56 15c-18 9-54 15-94 14-56-1-72-6-115-34zm133-100c-3-23 0-35 8-35 6 0 11-8 10-17-1-13 5-17 22-15 18 3 22-2 22-22 0-33 9-37 80-38 47-1 64 3 74 17 12 16 13 16 30 0 9-10 15-22 13-28-5-17-67-27-110-17-36 8-40 6-58-23-11-18-18-41-17-52 3-18 10-20 65-18 47 2 71 9 99 28 41 28 50 30 60 14 9-15 8-114-1-128-3-6-18-11-33-11h-27l30 24c29 24 30 24 11 45-20 22-76 25-76 4 0-12-52-19-108-14-20 2-23-2-20-26 2-20 9-29 26-31 20-3 26-11 20-29-4-9-78-5-158 8-63 11-65 12-67 42-3 33-20 50-41 42-8-3-29-5-48-5-30 0-34-3-29-19 6-20-17-45-36-39-6 2-13 26-16 52l-4 49 33-7c89-20 106-19 117 3 7 11 19 21 28 21 15 0 15 2 3 14-8 7-45 16-81 20-53 5-69 3-79-9-19-22-32-18-25 8 13 42 25 47 85 31 63-16 80-17 99-5 12 8 12 12 2 25-11 13-8 19 17 41 29 25 30 27 14 45-12 14-29 20-60 20s-42 4-39 13c4 11 16 12 77 5 19-2 25 2 26 17 1 11 2 23 3 28 1 4 15 7 32 7 30 0 31-2 27-35zm140-17c17-17 15-28-7-28-31 0-73 19-66 30 9 14 58 13 73-2zm-93-476c6-4 10-15 11-24 3-60 3-60 34-53 37 8 38 0 3-68-15-29-26-62-24-74 1-13-5-26-18-32-46-25-121-3-83 25 27 20 22 62-10 85-33 24-35 41-8 103 19 41 24 46 53 46 18 0 37-4 42-8zm55-2c0-5-5-10-11-10-5 0-7 5-4 10 3 6 8 10 11 10 2 0 4-4 4-10z" transform="matrix(.1 0 0 -.1 -17.354941 112.900654)"/></svg>