<svg height="108.978761pt" preserveAspectRatio="xMidYMid meet" viewBox="0 0 89.183813 108.978761" width="89.183813pt" xmlns="http://www.w3.org/2000/svg"><path d="m556 1154c-42-21-76-32-87-29-11 4-18 2-17-4 4-15-33-68-57-81-28-15-122-149-140-199-8-23-19-108-25-189-12-161-7-195 32-212 25-10 145-31 193-33l30-2 3-90c4-111 28-170 82-193 19-8 42-18 49-21 8-4 55-1 104 7 126 19 130 24 134 176 3 126 7 136 51 136 13 0 21 4 18 9-3 4 6 6 21 3 16-3 24-1 20 5s3 11 16 11c12 0 47 15 78 34l55 33-2 60c-1 33-3 60-4 60-2 0-7 21-13 51-2 8-10 20-18 26-9 6-10 11-3 14 24 10-23 147-64 190-11 11-23 30-26 42-4 12-11 22-16 22s-11 8-15 19c-5 16-64 80-110 119-24 20-82 42-90 34-3-4-5-1-3 7 4 17-31 29-87 30-27 0-62-11-109-35zm181-75c29-9 34-15 28-33-47-146-51-185-33-272 12-56 18-65 66-103 67-53 131-70 185-48 28 12 37 22 37 39 0 29-17 48-36 41-8-3-20 0-28 6-8 7-18 11-22 10-30-6-79 19-114 57-37 40-39 46-34 86 4 24 12 59 18 78 10 31 15 35 45 33 41-2 81-21 81-40 0-7 4-13 8-13 11 0 60-99 67-138 4-18 15-37 26-42 10-6 19-17 19-24s9-25 20-39c22-27 26-42 10-32-6 4-10-8-10-29 0-27-6-39-29-55-16-12-34-21-40-21s-11-4-11-9c0-10-56-21-157-30-80-7-86-4-118 59-8 16-20 30-26 30s-7 4-4 10c11 18-40 57-83 64-68 10-139-35-173-112-13-29-18-32-59-31-74 2-76 4-77 59v50h43c25 0 62 10 91 24 51 26 116 83 108 96-3 4 8 25 24 47 37 51 62 99 55 106-3 3-8 20-11 38s-16 55-29 81l-24 47 22 15c24 17 106 15 165-5zm-220-99c42-83-24-205-129-239-75-25-100 25-55 110 30 57 132 161 154 157 10-2 23-14 30-28zm26-187c-7-2-19-2-25 0-7 3-2 5 12 5s19-2 13-5zm82-227c8-7 17-25 21-40 5-22 3-26-15-26-12 0-21-5-21-10 0-7-6-7-19-1-10 6-47 11-82 12-52 2-59 4-41 12 12 6 22 14 22 18 0 5 8 18 17 29 21 24 97 28 118 6zm65-205c0-4 10-6 23-4 36 7 55-17 58-69 2-27-1-52-6-57-14-14-122-24-129-12-3 5-9 29-12 53-5 35-2 48 16 71 20 26 50 37 50 18z" transform="matrix(.1 0 0 -.1 -22.4195 118.867505)"/></svg>