<svg height="168.505905pt" preserveAspectRatio="xMidYMid meet" viewBox="0 0 142.329341 168.505905" width="142.329341pt" xmlns="http://www.w3.org/2000/svg"><path d="m1360 2070c-36-10-78-20-95-20s-47-13-69-30-43-30-47-30c-13 0-223-189-253-228-11-15-23-29-27-32-14-11-72-153-74-182 0-3-3-10-8-14-11-12-8-153 4-177 6-12 21-32 32-44 24-26 15-43-13-25-10 6-55 14-99 18-74 6-83 5-124-19-49-29-78-79-97-164-6-26-15-52-20-59-13-15-24-149-15-171 5-10 9-22 9-28 1-5 10-29 21-51 28-57 94-94 150-83 48 8 55 5 55-25 0-12 4-26 10-32 5-5 12-34 16-65l6-56-62-6c-35-4-65-8-66-10-2-2-5-14-6-28-5-38 63-68 152-66 63 2 70 0 79-20 13-28 19-28 101-2 66 21 141 19 184-3 12-7 22-6 28 0 7 7 19 7 36 1 35-14 124 6 142 31 8 11 22 20 32 20 35 0 33 44-3 55-10 4-19 13-19 22 0 10-5 13-17 8-10-4-42-10-71-14-52-8-70-1-57 20 4 5 11 58 16 116 5 59 13 111 18 117s17 39 25 74c9 34 26 79 37 100 20 35 33 91 32 140-1 22 11 30 22 13 9-15 141-10 171 5 15 8 35 12 46 9 10-4 18-2 18 3 0 6 18 13 40 17s46 12 53 19c6 6 32 21 57 33 52 24 106 78 88 89-7 5-4 12 9 23 26 21 46 78 30 85-7 2-5 5 4 5 48 2 44 250-6 366-7 17-18 49-24 72s-18 49-26 57-15 21-15 29c0 22-95 106-147 129-67 29-181 33-263 8zm193-92c39-1 53-8 36-18-10-7-8-14 6-36 22-34 37-94 23-94-6 0-39 16-74 35-68 38-117 48-93 19 7-8 25-22 41-30 34-18 35-34 6-61-25-22-84-38-92-24-5 7-93 6-201-3-80-6-83 6-15 71 62 60 163 111 260 133 19 4 31 8 27 9-5 0-5 6-2 11 4 7 13 6 26-1 11-6 35-11 52-11zm117-178c0-5-7-10-16-10-8 0-12 5-9 10 3 6 10 10 16 10 5 0 9-4 9-10zm-727-130c-3-11-14-25-25-31-19-10-19-9-3 20 18 35 36 42 28 11zm256 11c11-7 7-13-15-27-16-10-31-20-34-22s3-8 13-13c9-6 15-15 12-20-4-5-10-7-15-4s-11 1-15-5c-10-16-28-12-21 5 6 17-19 45-41 45-12 0-14-11-8-67 3-38 15-82 25-100 13-22 15-33 7-36-17-6-67 25-67 42 0 8-7 22-15 31-13 15-13 22 0 67 17 57 30 71 89 94 48 20 66 22 85 10zm212-41c13 0 11-58-3-77-7-8-24-25-37-37-58-52-69-68-74-110-8-59-56-202-82-246-28-46-69-151-90-225-9-33-21-68-26-77-5-10-9-32-9-50s-7-65-15-103c-8-39-15-91-15-117v-48h-42c-24-1-69-2-100-3-60-2-68 3-74 48-1 11-5 30-7 41-3 12-8 39-11 60-7 43-12 49-41 58-37 11-46-23-30-101 17-81 18-103 5-103-5 0-10 11-10 25s-5 25-11 25c-7 0-8 11-4 31 5 21 2 36-9 48-14 16-15 23-4 56 12 34 19 40 67 57 30 10 58 15 61 11 11-13 30-89 30-120 0-16-5-34-11-40-17-17 29-68 60-68 20 0 24 6 27 35 3 19 11 40 19 46s15 16 15 23c0 6 4 11 9 11 8 0 23 49 35 110 1 8 5 22 8 30 8 17 22 131 19 144-1 4 6 14 16 22 11 8 13 13 6 14-18 0-16 20 1 20 9 0 17 16 21 43 8 48 22 98 40 142 8 19 9 39 4 52-5 14-3 38 6 64 8 23 15 61 15 86 0 27 4 42 10 38s8-10 5-15c-3-4 2-13 10-20 11-10 19-7 38 14 31 34 71 138 63 164-4 12-2 24 5 28 19 11 72 22 87 18 8-2 18-4 23-4zm-525-61c-9-22-15-27-15-16-1 21 18 61 25 54 3-3-2-20-10-38zm681-17c25-34 15-56-44-92-31-19-68-38-82-41-16-3-25-11-22-20 2-8 4-23 5-34 1-16 8-20 33-19 34 2 93 40 93 61 0 7 9 13 19 13 11 0 26 8 33 18s21 21 32 25c16 6 17 4 11-20-7-29-44-73-61-73-6 0-17-6-23-14s-36-17-67-21c-49-6-55-9-52-28 2-16 13-25 40-31 51-13 125 24 152 77 11 20 25 37 32 37 26 0 34-83 9-98-9-4-19-21-23-36-6-22-19-32-57-47-50-19-205-39-237-31-19 4-30 48-18 71 14 26 23 55 24 76 1 11 4 25 7 30 4 6 10 27 13 49 5 26 14 40 27 43 10 3 19 11 19 18 0 6 9 20 20 30s20 24 20 31c0 8 8 23 18 34 20 24 57 20 79-8zm-347-5c0-7-12-25-27-41l-26-28-13 23c-24 44-20 49 54 58 6 0 12-5 12-12zm-211-149c8-13 21-34 30-48l16-24-43 24c-38 22-52 46-35 63 11 11 18 8 32-15zm-73-169c16-15 32-20 51-17 34 5 65-20 60-48-12-58-47-111-47-71 0 6-14 28-30 47s-30 41-30 48c0 6-6 12-12 12-12 1-78 55-78 64 0 11 65-16 86-35zm-174-51c56-5 104-30 92-49-3-5 1-9 8-9 21-1 46-25 53-51 7-27-24-69-52-69-11 0-7 7 12 22l28 22-24 8c-27 10-72 3-117-20-28-14-32-22-30-47 3-26 7-30 28-27 14 2 33 11 42 19s22 12 28 8c13-8-24-39-60-50-14-4-34-13-45-19-24-15-105-36-139-36-31 0-36 9-40 62-3 50 20 102 74 168 21 25 43 55 49 68 9 16 16 20 24 14 7-5 38-12 69-14zm188-328c0-5-5-10-11-10-5 0-7 5-4 10 3 6 8 10 11 10 2 0 4-4 4-10zm-238 298c-17-17-15-58 2-58 27 0 46 12 46 29s-18 41-30 41c-3 0-11-5-18-12zm133-49c-4-6-5-13-2-16 7-7 27 6 27 18s-17 12-25-2z" transform="matrix(.1 0 0 -.1 -45.159139 208.670208)"/></svg>