<svg height="79.431432pt" preserveAspectRatio="xMidYMid meet" viewBox="0 0 139.287932 79.431432" width="139.287932pt" xmlns="http://www.w3.org/2000/svg"><path d="m850 1437c-80-17-120-47-170-126-25-39-51-71-57-71-7 0-32 20-55 44-45 46-92 66-158 66-27 0-44-8-73-36-20-20-37-43-37-52 0-8-7-20-16-26-9-7-23-39-31-71-17-63-28-223-18-263 6-25 62-82 80-82 7 0 53-15 103-34 50-18 94-30 99-25 4 4 26 4 47-1 22-5 44-6 49-3 6 3 29 8 53 9 41 4 43 3 49-28 4-18 10-35 14-38 3-3 11-14 17-25 7-13 24-21 48-23 49-4 48 18-4 68-22 21-40 43-40 49 0 5 22 20 49 33 55 25 66 46 55 104-4 24-22 48-60 83l-53 49 32 36c38 42 93 63 116 43 9-7 28-18 44-25 15-6 27-16 27-22 0-5 7-10 15-10s15-5 15-10c0-6 15-26 34-45 28-28 37-48 51-112 26-124 28-128 61-130 51-3 58 4 39 33-11 18-14 34-9 52 4 15 6 32 4 37-2 6-2 35-1 66 1 45-5 71-30 125-18 38-43 79-56 91-23 22-23 24-8 54 13 24 14 33 4 45-9 11-9 18-1 26 7 7 12 8 12 4 0-5 7-3 15 4 13 11 20 9 40-10 16-15 21-27 16-34-5-6-11-27-12-46-2-19-8-38-13-41-15-11 2-39 23-39 26 0 38 19 20 32-10 7-11 11-2 14 7 3 10 11 7 19-4 10 0 12 16 8 12-3 24-13 27-22s12-23 18-31c14-17 15-22 18-111 1-36 8-73 14-81 15-17 15-98 1-98-5 0-16 7-24 15-25 25-30 18-29-42 3-82 3-83 24-83 15 0 19 6 18 27-2 24 1 26 38 27l39 1 1 53c0 30-3 56-7 58-4 3-2 16 4 29s7 32 3 42-8 38-10 63c-4 67-17 130-26 136-5 3-9 12-9 20 0 9-11 30-25 48s-25 38-25 44c0 21-71 80-118 97-26 10-57 25-70 33-30 19-142 24-212 9zm50-108c0-40 16-70 35-63 10 4 13 16 9 44-5 33-3 39 16 45 45 14 97-47 69-81-5-6-7-19-3-27 5-14-7-16-89-16-103 1-156-17-199-66-26-30-39-31-62-6-17 19-13 51 7 51 6 0 21 12 32 26 19 23 24 25 42 14 32-20 53-6 53 34 0 31 5 38 38 55 49 27 52 26 52-10zm-475-109c4-6 14-8 24-5 25 8 65-38 58-67-4-18 2-28 33-50 48-34 75-80 61-107-12-21-54-35-80-26-10 3-37-2-61-10-62-22-74-19-103 21-32 46-27 61 23 60 22-1 40 1 40 3s-18 20-40 40c-32 28-39 41-34 59 7 24 34 31 34 8 0-12 20-26 39-26 18 0 4 44-21 61-16 12-25 26-21 34 6 17 39 20 48 5zm1079-328c-10-6-22-76-24-137 0-11-11-28-23-37-27-20-17-33 18-24 31 8 59 66 52 105-3 14-1 33 4 43 6 11 4 21-6 31-8 8-11 17-8 21 9 8 1 7-13-2zm-554-27c0-9 12-33 26-54 18-29 30-37 44-34 21 6 19 15-13 50-10 12-16 26-13 31 3 6-1 13-10 16-25 10-34 7-34-9zm427-51c-10-10-9-84 1-84 5 0 16 6 26 13 15 11 17 19 9 42-9 29-24 41-36 29zm-483-35c-9-16 43-66 56-53 6 6 1 19-16 37-28 30-30 31-40 16zm716-69c0-11 2-20 4-20s6 9 9 20 1 20-4 20-9-9-9-20z" transform="matrix(.1 0 0 -.1 -23.141084 144.571225)"/></svg>