<svg height="127.298271pt" preserveAspectRatio="xMidYMid meet" viewBox="0 0 89.711251 127.298271" width="89.711251pt" xmlns="http://www.w3.org/2000/svg"><path d="m685 2211c-66-12-121-48-175-112-87-104-114-177-135-358-13-107-14-153-5-230 12-107 27-168 47-192 13-16 130-36 179-31 30 3 40-32 48-165l5-73-35-16c-42-20-44-54-4-65 14-4 21-8 15-9-5-1 1-6 14-11 17-7 27-6 31 2 6 8 13 8 29 0 11-6 35-10 53-7 18 2 67 9 108 15s93 9 115 7c53-5 156 13 176 31 24 21 12 53-22 60-30 6-79 54-79 78 0 7-7 18-15 25-11 9-12 16-5 25 7 8 7 21 1 38-7 17-6 28 2 36 9 9 8 17-2 33-12 19-11 23 5 35 10 7 24 11 32 8 7-3 31 4 53 16 31 16 39 24 34 39s0 21 19 26c14 3 30 3 36-1s21 3 32 15c19 20 21 33 19 114-4 147-16 226-33 226-5 0-8 6-5 13 2 6-3 23-12 37s-22 36-28 50c-53 121-108 200-140 200-7 0-12 3-10 8 2 8-29 40-59 60-10 7-32 21-49 32-55 37-163 55-240 41zm129-100c3-5 21-12 39-15s40-14 49-24c9-9 39-37 67-61s51-50 51-58c0-13-3-13-15-3-9 8-15 9-15 2 0-6 5-14 10-17 18-11 11-23-10-18-26 7-47-11-70-61-16-36-25-43-67-55-26-7-65-14-85-16s-43-7-50-11c-20-13-97-13-171-1-52 8-70 7-80-2-9-10-5-18 20-39 27-23 30-29 18-39-21-19-43-16-55 6-13 24-13 95-1 119 5 9 17 42 26 72 15 49 75 154 99 171 4 4 20 0 35-7 32-16 92-3 121 26 35 35 73 49 84 31zm254-205c37-51 40-72 12-81-18-6-90 3-90 11 0 12 25 54 32 54 4 0 8 14 8 30 0 17 1 30 3 30s18-20 35-44zm75-149c6-20 5-31-7-42-8-9-19-15-23-15-23 3-43-11-43-29 0-14-6-21-20-21-11 0-20-3-20-7-1-18-55-45-107-53-31-5-59-14-63-20s-32-11-63-11c-32-1-60-5-63-11-8-12-54-1-120 29-61 27-79 23-69-16 9-36 20-47 72-72 43-21 49-21 136-9 51 7 101 18 112 23 11 6 38 12 60 15 52 4 167 63 181 91 6 12 21 29 33 37 20 14 22 14 30-8 7-18 4-28-12-45-11-12-24-20-28-17-5 3-9 1-9-4s-14-15-30-22c-18-7-30-20-29-29 4-43-2-49-63-66-35-9-67-21-73-25-5-4-46-10-90-13-44-4-101-9-127-13-43-6-48-5-48 13 0 10-4 23-10 29-17 17-78 3-104-23-18-17-31-23-45-18-28 9-51 33-51 54 0 14 6 17 31 13 29-4 48 8 49 31 0 12-65 8-78-5-9-9-12-8-13 7 0 11-3 41-5 67-3 26-1 55 5 65s11 12 11 6c0-15 40-18 40-4 0 5 11 11 25 13s25 7 24 12c-2 16 27 25 80 27 28 1 51 6 51 11s9 6 20 3c11-4 20-2 20 4 0 15 27 14 32-1 3-8 16-8 54 2 54 14 66 16 141 26 40 5 53 11 59 28 5 17 8 14 13-19l6-40 20 21c11 11 32 25 48 32 15 6 27 17 27 23 0 20 24 3 33-24zm-325-484c4-6 26-14 50-18 26-4 42-12 42-21 0-8 7-14 15-14s16-3 16-7c16-91 11-142-11-128-5 3-11 1-15-5-3-5-16-9-28-9s-51-4-87-10c-57-9-66-8-75 7-14 25-6 133 12 150 8 9 12 24 9 38-4 13-1 24 7 27 19 8 58 2 65-10zm-18 770c-6-16-16-38-23-49-19-37-103-51-179-30-42 12-47-16-10-54 23-23 39-30 69-30 22 0 48 6 58 14 10 7 26 11 36 9 9-3 20 0 23 6 11 18 76 14 76-4 0-43 74-15 83 31 6 33-26 64-59 58-23-4-24-3-18 36 6 38 5 40-19 40-18 0-28-8-37-27zm81-892c-7-5-21-6-31-4-18 5-37-13-26-24 10-11 66-13 91-3 31 12 33 40 3 40-13 0-29-4-37-9z" transform="matrix(.1 0 0 -.1 -36.429531 221.598595)"/></svg>