<svg height="111.653409pt" preserveAspectRatio="xMidYMid meet" viewBox="0 0 85.741054 111.653409" width="85.741054pt" xmlns="http://www.w3.org/2000/svg"><path d="m476 1303c-34-5-61-21-133-79-29-23-57-44-62-46-5-1-25-36-45-77-26-53-41-104-56-188-23-131-25-190-9-248 14-50 80-138 124-165 38-24 45-50 31-120-7-37-5-54 11-90 18-40 25-47 69-59 27-8 51-18 54-22s39-11 80-14c65-5 79-4 107 14 22 14 31 26 26 36-4 11 1 18 16 22 16 4 21 12 19 37-1 17-3 35-6 39-2 4-5 32-7 60-3 43 0 55 15 63 10 5 53 26 96 48 44 21 87 48 97 60 10 11 35 39 57 61 34 35 39 47 41 90 1 28 6 60 12 72 7 16 7 30-1 47-6 13-14 45-17 72-4 27-15 57-24 68-9 10-15 20-13 22 7 11 0 24-13 24-8 0-15 9-15 19s-7 21-15 25c-8 3-15 16-15 28 0 13-9 30-20 38s-20 19-20 26c0 18-35 44-58 44-12 0-22 6-22 14 0 21-27 40-33 24-4-11-8-11-23 0-66 44-79 51-82 42-2-6-13-10-24-10-17 0-18 3-8 15 11 13 5 15-46 14-33-1-72-4-88-6zm142-106c6 0 12-6 12-13 0-9 8-10 31-4 47 14 97-27 53-44-23-9-8-23 30-28 19-2 33-1 31 2s0 12 5 19c6 11 10 9 19-7 6-11 18-28 27-36 16-17 11-56-8-56-6 0-20-8-30-17-17-15-22-15-41-3-25 16-59 19-197 19-120-1-183-4-237-14-38-7-43-5-43 11 1 17 16 33 110 114 13 12 40 28 60 36 19 9 42 20 50 24 8 5 38 6 65 3 28-4 56-6 63-6zm277-233c20-40 24-59 16-67-14-14-52 6-81 45-25 33-20 58 10 58 12 0 18 5 15 10-3 6-2 10 3 10s22-25 37-56zm-464-70c1-13 2-27 3-31 19-76 19-76-5-94-13-10-34-19-46-19-13 0-23-4-23-10 0-5 4-10 9-10 14 0 20-51 9-79-25-66-96-51-123 25-11 33-11 40 6 58 19 20 19 20 34 0 8-10 15-25 15-31 0-7 7-13 15-13 18 0 15 30-9 75-9 17-16 38-16 48s-4 27-10 37c-7 13-5 21 6 31 14 11 18 10 30-5 7-11 11-23 8-27-2-5 0-16 5-26s12-26 15-35c3-11 11-15 21-12 16 7 19 58 6 104-5 17-2 29 8 36 21 16 41 6 42-22zm146 28c20-13 31-56 24-97-6-37-9-40-36-38-38 3-77 47-69 80 4 13 1 30-5 37-9 11-9 15 1 19 20 8 72 8 85-1zm137-22c20-7 26-16 26-40 0-32 26-43 37-15 5 14 8 14 25-2 52-47 55-103 10-186-31-57-41-67-86-77-27-6-36-4-40 7-11 27-6 48 14 66 12 10 18 21 15 26-2 5 6 12 19 15 17 4 27 16 31 37 4 17 4 33 1 36-3 4-1 12 5 19 11 14 4 34-12 34-5 0-9-6-9-14 0-7-9-25-20-38-10-14-16-28-13-32 3-3 2-6-3-6s-18-14-28-31c-17-28-20-29-34-15-15 15-16 41-8 126 2 19 7 43 10 53 3 9 8 24 11 32 5 18 14 19 49 5zm224-132c-13-26-18-22-13 12 2 17-1 30-6 30-14 0-11 58 4 63s28-80 15-105zm-443-108c0-11 10-14 42-12 38 3 43 1 49-21 9-39 1-62-24-65-13-2-26-11-29-20s-13-25-21-34c-13-16-13-18 2-24 9-3 32-3 51 0 32 6 35 5 35-16 0-25-55-78-82-78-13 0-15-7-11-40 6-45 1-48-52-26-39 17-38 10-36 159 1 83 5 112 17 124 8 9 14 25 13 37-2 34 0 38 24 34 12-2 22-10 22-18zm75-330c0-5-7-10-15-10s-15 5-15 10c0 6 7 10 15 10s15-4 15-10z" transform="matrix(.1 0 0 -.1 -16.081201 130.88628)"/></svg>