<svg height="134.449705pt" preserveAspectRatio="xMidYMid meet" viewBox="0 0 108.555831 134.449705" width="108.555831pt" xmlns="http://www.w3.org/2000/svg"><path d="m1504 2217c-12-6-27-26-33-44-7-18-16-33-21-33-4 0-13-30-20-67-13-68-34-121-70-178-11-16-29-50-41-75-20-41-23-43-30-23-4 11-13 24-19 28-8 5-8 11 0 20 7 9 6 16-4 24-8 7-20 31-27 55-11 38-50 76-78 76-13 0-21-138-9-162 6-12 1-22-21-37-16-12-34-21-40-21s-11-11-11-24c0-14-4-28-10-31-22-14-10-50 21-64 26-11 32-11 49 4 12 11 20 13 25 6 9-15 41-14 74 4l28 14-8-46c-5-25-13-51-18-57-4-6-11-26-14-43-4-18-16-54-28-80-21-45-25-70-21-133 1-14 0-50-4-80-3-30-5-70-4-87 1-48-14-40-29 15-8 26-24 61-37 79-13 17-24 36-24 42 0 18-51 106-74 127-23 22-26 43-11 77 4 9 2 23-4 31-6 7-8 16-4 19 3 4 7 19 8 35 6 86-91 167-137 115-16-19-36-87-40-138-2-19-9-30-18-30-8 0-20-4-27-8-12-8-55-3-72 7-5 4-12 2-16-4-3-5-14-10-24-10-14 0-18-10-20-50l-2-50 43-1c218-2 258-5 258-16 0-7 5-13 10-13 6 0 10-8 10-19 0-10 7-24 15-31s15-18 15-25 10-25 22-40c15-20 22-45 25-91 2-35-1-64-6-64-21 0-18-55 5-98 13-25 24-51 24-59 0-19 38-73 51-73 28 0 51 51 29 65-5 3-7 12-4 20 3 7 0 24-7 37-17 31-21 58-9 58 22 0 25 2 37 23 10 19 11 18 8-12-3-46 11-107 37-158 22-44 26-48 43-35 12 8 51 123 47 136-5 14 19 36 39 36 14 0 31 25 65 94 50 102 68 117 124 105 44-10 94 3 125 33 29 27 31 45 9 76-12 17-25 23-48 22-57-3-58-3-54 39 2 30-1 42-15 50-10 7-17 17-16 24 3 31-14 56-45 62-17 4-38 8-47 11-26 7-79-112-83-189-3-47-42-156-57-157-3 0-4 14-1 30 2 17-1 36-7 43-7 10-7 19 3 33 7 10 13 42 13 71 0 35 6 57 17 69 10 9 16 26 15 38-1 11 1 28 4 36s13 42 22 75 20 65 25 70c4 6 11 26 15 45s16 45 27 57 17 27 13 33c-5 9 7 10 46 5 35-4 64-2 84 6 17 7 35 13 40 14 28 3 107 40 115 54 4 9 6 28 3 42-5 28-63 59-112 59h-29l4 74c4 59 2 79-14 107-20 37-35 43-68 26zm-630-1112c-4-9-2-21 5-28 6-6 11-23 11-38 0-19 6-28 21-32 12-3 19-11 16-19-2-7 2-21 10-30 12-13 20-15 39-6 28 13 29 15 8 76-15 47-40 73-82 86-16 5-24 3-28-9zm531-43c-5-4-11-24-11-46-1-21-6-41-11-45-5-3-12-16-15-28-5-19-1-24 25-31 28-8 34-6 47 15 8 12 18 23 22 23s5 6 2 14-1 17 5 21c17 10 13 55-4 55-9 0-12 6-9 15 5 11-1 15-17 15-13 0-28-4-34-8zm-40-162c3-5 11-10 16-10 6 0 7 5 4 10-3 6-11 10-16 10-6 0-7-4-4-10z" transform="matrix(.1 0 0 -.1 -63.899936 222.587823)"/></svg>